<svg width="249" height="252" viewBox="0 0 249 252" fill="none" xmlns="http://www.w3.org/2000/svg">
<circle cx="129" cy="132" r="120" fill="white"/>
<mask id="mask0" mask-type="alpha" maskUnits="userSpaceOnUse" x="8" y="11" width="241" height="241">
<circle cx="128.5" cy="131.5" r="120.5" fill="white"/>
</mask>
<g mask="url(#mask0)">
<path d="M131.898 161.016C131.898 161.016 52.0684 158.43 52.0684 200.931C52.0684 249.055 67.9303 339.228 131.898 338.291C195.867 337.354 207.598 210.91 208.258 205.287C208.31 205.235 211.642 164.66 131.898 161.016Z" fill="#F66D1D"/>
<path d="M206.399 194.268C206.302 194.37 206.191 194.458 206.07 194.529L205.046 195.206C204.161 195.813 202.807 196.629 201.054 197.635C196.02 200.416 190.746 202.739 185.296 204.577C177.213 207.324 168.877 209.26 160.41 210.356C150.051 211.669 139.613 212.249 129.172 212.091C118.739 212.131 108.311 211.604 97.9345 210.512C89.4197 209.591 81.0903 207.403 73.2219 204.022C67.9413 201.698 63.0483 198.579 58.7136 194.772C57.2211 193.383 56.1104 192.238 55.4163 191.44L54.6353 190.503L54.375 190.173C54.375 190.173 54.4965 190.26 54.7047 190.45L55.5551 191.318C56.284 192.082 57.4294 193.175 59.026 194.494C63.3935 198.188 68.2897 201.206 73.5516 203.449C81.3567 206.739 89.6 208.873 98.0212 209.783C108.372 210.818 118.77 211.322 129.172 211.293C139.577 211.415 149.979 210.835 160.306 209.558C168.732 208.501 177.037 206.636 185.105 203.987C190.541 202.19 195.818 199.943 200.881 197.271C202.616 196.316 204.039 195.535 204.959 194.997L206.017 194.407C206.14 194.349 206.268 194.302 206.399 194.268Z" fill="#263238"/>
<path d="M158.15 210.302C158.231 210.69 158.272 211.086 158.271 211.482C158.271 212.263 158.271 213.426 158.271 214.953C158.273 219.165 157.831 223.364 156.952 227.483C156.327 230.333 155.414 233.113 154.228 235.779C152.907 238.863 151.154 241.744 149.021 244.334C146.62 247.187 143.736 249.595 140.5 251.449C138.77 252.4 136.951 253.179 135.068 253.775C133.115 254.354 131.099 254.698 129.064 254.799C125.043 254.893 121.071 253.91 117.558 251.953C114.293 250.134 111.416 247.693 109.089 244.768C105.21 239.785 102.666 233.896 101.696 227.657C101.02 223.499 100.753 219.285 100.898 215.075C100.898 213.6 101.036 212.437 101.106 211.604C101.115 211.2 101.167 210.799 101.262 210.406C101.292 210.805 101.292 211.205 101.262 211.604C101.262 212.472 101.262 213.617 101.262 215.075C101.235 219.247 101.595 223.412 102.338 227.518C103.358 233.616 105.901 239.359 109.731 244.213C112.004 247.037 114.804 249.395 117.974 251.154C121.377 253.024 125.217 253.953 129.098 253.844C131.057 253.751 132.997 253.425 134.878 252.873C136.684 252.296 138.428 251.54 140.084 250.616C143.245 248.815 146.06 246.464 148.397 243.675C150.525 241.17 152.279 238.37 153.603 235.362C154.805 232.75 155.742 230.023 156.397 227.223C157.326 223.153 157.861 219.004 157.994 214.832C157.994 213.426 157.994 212.298 158.08 211.361C158.07 211.007 158.093 210.652 158.15 210.302Z" fill="#263238"/>
<path d="M164.736 266.115L168.415 249.698H200.66C199.515 254.591 197.918 260.301 196.078 266.375L164.736 266.115Z" fill="#FAFAFA"/>
<path d="M92.6071 266.115L88.9454 249.698H56.6836C57.829 254.591 58.8008 260.301 60.623 266.375L92.6071 266.115Z" fill="#FAFAFA"/>
<path opacity="0.4" d="M204.11 190.241C196.388 177.641 175.962 163.064 131.899 161.016C131.899 161.016 82.5257 159.419 61.4402 179.394C59.4421 181.442 57.6409 183.673 56.0603 186.058C54.7761 188.436 72.5296 209.764 129.591 207.942C188.457 206.051 204.11 190.241 204.11 190.241Z" fill="#263238"/>
<path d="M50.6935 114.959C47.8647 108.625 46.4937 101.37 48.4201 94.7063C50.3464 88.0422 56.0733 82.2285 62.9977 81.6211" fill="#263238"/>
<path d="M60.696 82.0193C60.696 82.1408 59.5332 83.0779 57.8845 84.9695C55.7186 87.4042 53.9074 90.1327 52.5047 93.074C51.1904 96.0721 50.0659 99.1499 49.1379 102.289C48.8476 103.627 48.4649 104.944 47.9926 106.229C47.95 104.845 48.1257 103.462 48.5132 102.133C49.27 98.8947 50.3274 95.734 51.6717 92.6922C53.1095 89.667 55.0521 86.9087 57.416 84.5357C58.3301 83.4861 59.4454 82.6304 60.696 82.0193Z" fill="#F66D1D"/>
<path d="M210.273 114.959C213.102 108.625 214.473 101.37 212.547 94.7063C210.62 88.0422 204.893 82.2285 197.986 81.6211" fill="#263238"/>
<path d="M200.276 82.0193C201.531 82.6234 202.647 83.4801 203.556 84.5357C205.924 86.9047 207.867 89.6639 209.3 92.6922C210.644 95.734 211.702 98.8947 212.458 102.133C212.846 103.462 213.022 104.845 212.979 106.229C212.517 104.94 212.134 103.625 211.834 102.289C210.913 99.1499 209.794 96.072 208.484 93.074C207.07 90.1353 205.253 87.4076 203.087 84.9695C201.438 83.0953 200.189 82.1408 200.276 82.0193Z" fill="#F66D1D"/>
<path d="M57.1026 146.404C53.2623 142.482 50.4413 137.679 48.8863 132.415C47.3312 127.151 47.0896 121.586 48.1825 116.207C52.7987 92.9526 69.7193 51.0939 131.9 51.9963C197.135 52.9161 209.387 98.0722 211.487 119.817C211.926 124.267 211.48 128.76 210.175 133.037C208.871 137.314 206.733 141.29 203.886 144.738C194.185 156.452 173.585 171.585 131.9 171.568C90.6139 171.603 68.4177 157.823 57.1026 146.404Z" fill="#F66D1D"/>
<path d="M102.828 54.7212C102.986 54.9631 103.108 55.226 103.193 55.5022L104.095 57.7929C104.876 59.7713 105.969 62.6521 107.67 66.0362C109.596 70.0181 112.237 73.6123 115.462 76.6398C119.364 80.3969 124.571 82.4935 129.988 82.4882C135.387 82.1647 140.526 80.059 144.6 76.5009C147.918 73.5731 150.701 70.0909 152.826 66.2098C154.287 63.5939 155.591 60.8934 156.731 58.1227C157.118 57.0856 157.564 56.0716 158.067 55.0856C158.046 55.3733 157.976 55.6551 157.859 55.9186C157.685 56.4566 157.425 57.2549 157.061 58.2441C156.034 61.0882 154.805 63.8547 153.381 66.5222C151.298 70.5262 148.505 74.1189 145.138 77.1257C140.946 80.8628 135.612 83.071 130.005 83.3906C127.098 83.462 124.213 82.8685 121.571 81.6552C119.128 80.5443 116.878 79.0504 114.907 77.2298C111.63 74.1099 108.98 70.3932 107.097 66.2792C105.811 63.5522 104.698 60.7468 103.765 57.8797C103.418 56.8616 103.175 56.0806 103.036 55.5368C102.941 55.2721 102.872 54.999 102.828 54.7212Z" fill="#263238"/>
<path d="M173.099 143.837C142.833 151.23 113.296 151.507 84.5922 144.149C79.3368 142.782 74.6855 139.705 71.3708 135.404C68.0561 131.103 66.2663 125.821 66.2833 120.391V119.974C66.2833 116.747 66.9189 113.552 68.1539 110.57C69.3888 107.589 71.1989 104.88 73.4808 102.598C75.7627 100.316 78.4717 98.5062 81.4531 97.2712C84.4345 96.0363 87.63 95.4006 90.8571 95.4006H167.216C170.443 95.4006 173.639 96.0363 176.62 97.2712C179.602 98.5062 182.311 100.316 184.593 102.598C186.874 104.88 188.685 107.589 189.92 110.57C191.155 113.552 191.79 116.747 191.79 119.974C191.794 125.47 189.954 130.807 186.566 135.133C183.177 139.46 178.436 142.524 173.099 143.837Z" fill="#263238"/>
<path d="M106.421 124.643C106.246 125.731 105.753 126.742 105.004 127.549C104.255 128.356 103.284 128.923 102.213 129.179C101.142 129.434 100.019 129.367 98.9868 128.984C97.9542 128.602 97.058 127.923 96.4114 127.031C95.7648 126.14 95.3968 125.077 95.3538 123.977C95.3109 122.877 95.595 121.789 96.1702 120.85C96.7454 119.911 97.5859 119.164 98.5856 118.702C99.5853 118.241 100.699 118.086 101.787 118.257C102.511 118.371 103.206 118.627 103.831 119.01C104.456 119.393 104.999 119.895 105.429 120.489C105.86 121.082 106.169 121.754 106.339 122.467C106.509 123.18 106.537 123.92 106.421 124.643Z" fill="white"/>
<path d="M170.25 121.414C170.075 122.501 169.581 123.513 168.831 124.32C168.081 125.127 167.109 125.693 166.037 125.948C164.965 126.202 163.842 126.133 162.809 125.749C161.777 125.365 160.881 124.684 160.236 123.791C159.59 122.898 159.224 121.834 159.183 120.733C159.143 119.632 159.43 118.544 160.007 117.606C160.585 116.668 161.428 115.922 162.43 115.463C163.431 115.004 164.546 114.853 165.634 115.027C166.357 115.143 167.049 115.401 167.672 115.784C168.295 116.168 168.837 116.671 169.265 117.264C169.694 117.857 170.002 118.529 170.171 119.241C170.34 119.953 170.367 120.691 170.25 121.414Z" fill="white"/>
<path d="M145.748 122.125C145.997 123.781 145.705 125.474 144.915 126.95C144.173 128.612 143.049 130.075 141.635 131.219C139.915 132.601 137.814 133.424 135.613 133.579C133.432 133.753 131.25 133.25 129.365 132.139C127.838 131.208 126.558 129.922 125.634 128.39C124.673 127.029 124.191 125.387 124.263 123.722C124.793 125.185 125.467 126.592 126.276 127.922C127.215 129.268 128.442 130.389 129.868 131.202C131.598 132.162 133.572 132.591 135.543 132.434C137.531 132.298 139.437 131.586 141.027 130.386C142.348 129.366 143.436 128.076 144.22 126.603C144.86 125.158 145.371 123.66 145.748 122.125Z" fill="white"/>
</g>
<mask id="mask1" mask-type="alpha" maskUnits="userSpaceOnUse" x="0" y="0" width="129" height="252">
<rect width="129" height="252" fill="#C4C4C4"/>
</mask>
<g mask="url(#mask1)">
<mask id="mask2" mask-type="alpha" maskUnits="userSpaceOnUse" x="8" y="11" width="241" height="241">
<circle cx="128.5" cy="131.5" r="120.5" fill="white"/>
</mask>
<g mask="url(#mask2)">
<path d="M131.898 161.016C131.898 161.016 52.0684 158.43 52.0684 200.931C52.0684 249.055 67.9303 339.228 131.898 338.291C195.867 337.354 207.598 210.91 208.258 205.287C208.31 205.235 211.642 164.661 131.898 161.016Z" fill="#944BCB"/>
<path d="M206.397 194.269C206.3 194.371 206.189 194.459 206.068 194.529L205.044 195.206C204.159 195.814 202.805 196.629 201.052 197.636C196.018 200.416 190.744 202.739 185.294 204.578C177.211 207.325 168.875 209.26 160.408 210.357C150.05 211.67 139.611 212.25 129.17 212.092C118.737 212.132 108.309 211.605 97.9325 210.513C89.4178 209.592 81.0884 207.404 73.2199 204.022C67.9394 201.699 63.0464 198.579 58.7116 194.772C57.2192 193.384 56.1085 192.239 55.4143 191.44L54.6334 190.503L54.373 190.174C54.373 190.174 54.4945 190.26 54.7028 190.451L55.5531 191.319C56.282 192.083 57.4274 193.176 59.024 194.495C63.3915 198.188 68.2878 201.207 73.5497 203.45C81.3548 206.74 89.5981 208.874 98.0193 209.784C108.37 210.819 118.768 211.323 129.17 211.294C139.576 211.416 149.977 210.836 160.304 209.558C168.73 208.502 177.035 206.636 185.104 203.988C190.539 202.191 195.816 199.944 200.879 197.272C202.614 196.317 204.037 195.536 204.957 194.998L206.016 194.408C206.138 194.349 206.266 194.303 206.397 194.269Z" fill="#263238"/>
<path d="M158.148 210.302C158.229 210.69 158.27 211.086 158.269 211.482C158.269 212.263 158.269 213.426 158.269 214.953C158.271 219.165 157.829 223.364 156.95 227.483C156.325 230.333 155.412 233.113 154.226 235.779C152.905 238.863 151.152 241.744 149.019 244.334C146.618 247.187 143.734 249.595 140.498 251.45C138.768 252.4 136.949 253.179 135.066 253.775C133.113 254.354 131.097 254.698 129.062 254.799C125.041 254.893 121.069 253.91 117.556 251.953C114.291 250.134 111.414 247.693 109.087 244.768C105.208 239.785 102.664 233.896 101.694 227.657C101.018 223.499 100.751 219.285 100.896 215.075C100.896 213.6 101.035 212.437 101.104 211.604C101.113 211.2 101.165 210.799 101.26 210.406C101.29 210.805 101.29 211.205 101.26 211.604C101.26 212.472 101.26 213.617 101.26 215.075C101.233 219.247 101.593 223.412 102.336 227.518C103.356 233.616 105.899 239.359 109.729 244.213C112.003 247.037 114.802 249.395 117.972 251.154C121.375 253.024 125.215 253.953 129.097 253.844C131.055 253.751 132.995 253.425 134.876 252.873C136.682 252.296 138.426 251.54 140.082 250.616C143.243 248.815 146.058 246.464 148.395 243.675C150.523 241.17 152.277 238.37 153.601 235.362C154.803 232.75 155.74 230.023 156.395 227.223C157.324 223.153 157.859 219.004 157.992 214.832C157.992 213.426 157.992 212.298 158.078 211.361C158.068 211.007 158.091 210.652 158.148 210.302Z" fill="#263238"/>
<path d="M92.6012 266.114L88.9395 249.697H56.6777C57.8231 254.591 58.7949 260.301 60.6172 266.375L92.6012 266.114Z" fill="#FAFAFA"/>
<path opacity="0.4" d="M204.11 190.241C196.388 177.642 175.962 163.064 131.899 161.016C131.899 161.016 82.5257 159.42 61.4402 179.394C59.4421 181.442 57.6409 183.674 56.0603 186.059C54.7761 188.436 72.5296 209.765 129.591 207.942C188.457 206.051 204.11 190.241 204.11 190.241Z" fill="#263238"/>
<path d="M50.6935 114.959C47.8647 108.625 46.4937 101.371 48.4201 94.7068C50.3464 88.0427 56.0733 82.229 62.9977 81.6216" fill="#263238"/>
<path d="M60.7038 82.0193C60.7038 82.1408 59.541 83.0779 57.8923 84.9695C55.7264 87.4042 53.9153 90.1327 52.5125 93.074C51.1982 96.0721 50.0738 99.1499 49.1458 102.289C48.8555 103.627 48.4727 104.944 48.0004 106.229C47.9578 104.845 48.1335 103.462 48.521 102.133C49.2778 98.8947 50.3353 95.734 51.6795 92.6922C53.1173 89.667 55.0599 86.9087 57.4238 84.5357C58.3379 83.4861 59.4533 82.6304 60.7038 82.0193Z" fill="#944BCB"/>
<path d="M57.0987 146.404C53.2584 142.482 50.4374 137.679 48.8824 132.415C47.3273 127.151 47.0857 121.586 48.1786 116.207C52.7948 92.9524 69.7154 51.0936 131.896 51.996C197.131 52.9158 209.383 98.0719 211.483 119.817C211.922 124.267 211.476 128.76 210.171 133.037C208.867 137.313 206.729 141.29 203.882 144.738C194.181 156.452 173.581 171.585 131.896 171.568C90.61 171.602 68.4138 157.823 57.0987 146.404Z" fill="#944BCB"/>
<path d="M102.822 54.7207C102.98 54.9626 103.103 55.2255 103.187 55.5017L104.089 57.7924C104.87 59.7708 105.963 62.6517 107.664 66.0358C109.59 70.0176 112.231 73.6118 115.456 76.6393C119.358 80.3964 124.565 82.493 129.982 82.4877C135.381 82.1642 140.52 80.0585 144.594 76.5004C147.912 73.5726 150.695 70.0904 152.82 66.2093C154.281 63.5934 155.585 60.8929 156.725 58.1222C157.112 57.0851 157.558 56.0711 158.061 55.0852C158.04 55.3728 157.97 55.6546 157.853 55.9182C157.679 56.4561 157.419 57.2544 157.055 58.2436C156.029 61.0877 154.799 63.8542 153.376 66.5217C151.292 70.5257 148.499 74.1184 145.132 77.1252C140.94 80.8624 135.606 83.0705 129.999 83.3901C127.092 83.4616 124.208 82.868 121.565 81.6547C119.122 80.5438 116.872 79.0499 114.901 77.2293C111.624 74.1094 108.974 70.3927 107.091 66.2787C105.805 63.5517 104.692 60.7463 103.759 57.8792C103.412 56.8611 103.169 56.0801 103.031 55.5364C102.936 55.2716 102.866 54.9985 102.822 54.7207Z" fill="#263238"/>
<path d="M173.101 143.836C142.835 151.229 113.298 151.507 84.5941 144.148C79.3387 142.781 74.6875 139.705 71.3727 135.403C68.058 131.102 66.2683 125.82 66.2853 120.39V119.974C66.2853 116.747 66.9209 113.551 68.1558 110.57C69.3908 107.588 71.2009 104.879 73.4828 102.597C75.7647 100.316 78.4736 98.5054 81.455 97.2705C84.4365 96.0355 87.6319 95.3999 90.859 95.3999H167.218C170.445 95.3999 173.641 96.0355 176.622 97.2705C179.604 98.5054 182.313 100.316 184.595 102.597C186.876 104.879 188.687 107.588 189.922 110.57C191.156 113.551 191.792 116.747 191.792 119.974C191.796 125.469 189.956 130.807 186.568 135.133C183.179 139.459 178.438 142.523 173.101 143.836Z" fill="#263238"/>
<path d="M106.426 124.643C106.252 125.73 105.759 126.741 105.01 127.548C104.261 128.355 103.29 128.922 102.219 129.178C101.148 129.433 100.025 129.366 98.9927 128.984C97.9601 128.602 97.0638 127.922 96.4172 127.031C95.7706 126.139 95.4026 125.077 95.3597 123.976C95.3168 122.876 95.6009 121.788 96.1761 120.849C96.7513 119.91 97.5918 119.163 98.5915 118.701C99.5912 118.24 100.705 118.085 101.793 118.256C102.517 118.37 103.211 118.626 103.836 119.009C104.461 119.392 105.005 119.894 105.435 120.488C105.866 121.081 106.175 121.753 106.345 122.466C106.515 123.179 106.543 123.919 106.426 124.643Z" fill="white"/>
<path d="M145.755 122.125C146.005 123.78 145.712 125.473 144.922 126.949C144.181 128.611 143.057 130.074 141.642 131.218C139.922 132.6 137.821 133.423 135.62 133.578C133.439 133.752 131.258 133.249 129.373 132.138C127.845 131.207 126.565 129.921 125.642 128.389C124.681 127.028 124.199 125.386 124.271 123.721C124.8 125.185 125.475 126.591 126.284 127.921C127.223 129.267 128.45 130.388 129.876 131.201C131.605 132.161 133.579 132.59 135.551 132.433C137.539 132.297 139.444 131.585 141.035 130.385C142.356 129.365 143.444 128.075 144.228 126.602C144.868 125.157 145.379 123.659 145.755 122.125Z" fill="white"/>
</g>
</g>
</svg>
