<svg width="606" height="315" viewBox="0 0 606 315" fill="none" xmlns="http://www.w3.org/2000/svg">
<path d="M302.851 314.504C470.112 314.504 605.703 297.463 605.703 276.442C605.703 255.421 470.112 238.379 302.851 238.379C135.591 238.379 0 255.421 0 276.442C0 297.463 135.591 314.504 302.851 314.504Z" fill="#EBEBEB"/>
<path d="M4.13477 226.376L78.8136 226.155L153.492 226.072L302.85 225.916L452.208 226.072L526.887 226.155L601.566 226.376L526.887 226.607L452.208 226.68L302.85 226.837L153.492 226.68L78.8136 226.597L4.13477 226.376Z" fill="#263238"/>
<path d="M481.298 0H123.711V239.199H481.298V0Z" fill="#DBDBDB"/>
<path d="M478.704 2.92017H126.312V236.279H478.704V2.92017Z" fill="#263238"/>
<path d="M527.874 257.134H77.1387V273.549H527.874V257.134Z" fill="#C7C7C7"/>
<path d="M77.1387 257.134L123.713 239.199H481.3L527.874 257.134H77.1387Z" fill="#DBDBDB"/>
<path d="M127.877 250.778L157.935 239.199H447.088L477.146 250.778H127.877Z" fill="#263238"/>
<path d="M458.787 20.6526H146.227V218.556H458.787V20.6526Z" fill="white"/>
<path d="M458.798 20.6526H145.971V28.2706H458.798V20.6526Z" fill="#455A64"/>
<path d="M152.017 24.4661C152.017 24.8415 151.905 25.2084 151.695 25.5199C151.486 25.8313 151.188 26.0732 150.84 26.2147C150.492 26.3562 150.11 26.3908 149.743 26.3141C149.375 26.2374 149.039 26.053 148.777 25.7842C148.515 25.5155 148.339 25.1748 148.271 24.8055C148.204 24.4362 148.248 24.0551 148.398 23.711C148.548 23.3668 148.797 23.0752 149.113 22.8733C149.43 22.6715 149.799 22.5686 150.175 22.5777C150.667 22.5897 151.136 22.794 151.48 23.1468C151.825 23.4997 152.017 23.9731 152.017 24.4661Z" fill="#C7C7C7"/>
<path d="M159.732 24.4661C159.732 24.8415 159.62 25.2084 159.41 25.5199C159.201 25.8313 158.903 26.0732 158.555 26.2147C158.207 26.3562 157.825 26.3908 157.458 26.3141C157.09 26.2374 156.754 26.053 156.492 25.7842C156.23 25.5155 156.054 25.1748 155.986 24.8055C155.918 24.4362 155.962 24.0551 156.112 23.711C156.262 23.3668 156.512 23.0752 156.828 22.8733C157.145 22.6715 157.514 22.5686 157.89 22.5777C158.382 22.5897 158.851 22.794 159.195 23.1468C159.539 23.4997 159.732 23.9731 159.732 24.4661Z" fill="white"/>
<path d="M167.441 24.4665C167.441 24.84 167.33 25.2051 167.123 25.5156C166.915 25.8262 166.62 26.0682 166.275 26.2112C165.93 26.3541 165.55 26.3915 165.184 26.3186C164.818 26.2458 164.481 26.0659 164.217 25.8018C163.953 25.5377 163.773 25.2012 163.7 24.8349C163.627 24.4686 163.665 24.0889 163.808 23.7439C163.951 23.3988 164.193 23.1039 164.503 22.8964C164.814 22.6889 165.179 22.5781 165.552 22.5781C166.053 22.5781 166.534 22.7771 166.888 23.1312C167.242 23.4854 167.441 23.9657 167.441 24.4665Z" fill="#F66D1D"/>
<path d="M161.239 129.396L282.787 129.396V44.2711L161.239 44.2711V129.396Z" fill="#EBEBEB"/>
<path d="M175.445 68.4704C175.445 70.4618 176.036 72.4084 177.142 74.0641C178.248 75.7198 179.821 77.0103 181.661 77.7724C183.5 78.5344 185.525 78.7338 187.478 78.3453C189.431 77.9568 191.225 76.9979 192.633 75.5898C194.041 74.1817 195 72.3877 195.389 70.4347C195.777 68.4816 195.578 66.4572 194.816 64.6174C194.054 62.7777 192.763 61.2052 191.107 60.0989C189.452 58.9926 187.505 58.4021 185.514 58.4021C182.843 58.4021 180.282 59.4629 178.394 61.351C176.506 63.2392 175.445 65.8002 175.445 68.4704Z" fill="#DBDBDB"/>
<path d="M215.191 111.055H282.796L248.989 65.2458L215.191 111.055Z" fill="#C7C7C7"/>
<path d="M188.721 111.102H244.525L216.623 81.2651L188.721 111.102Z" fill="#DBDBDB"/>
<path d="M282.788 111.056H161.24V129.396H282.788V111.056Z" fill="#DBDBDB"/>
<path d="M300.079 202.251H367.996V140.8H300.079V202.251Z" fill="#EBEBEB"/>
<path d="M308.858 154.231C308.552 155.762 308.747 157.351 309.414 158.763C310.081 160.175 311.184 161.336 312.561 162.072C313.938 162.809 315.516 163.083 317.06 162.854C318.605 162.625 320.035 161.906 321.14 160.801C322.244 159.697 322.964 158.267 323.193 156.722C323.422 155.177 323.147 153.6 322.411 152.223C321.674 150.846 320.514 149.742 319.102 149.075C317.69 148.408 316.1 148.214 314.569 148.519C313.159 148.801 311.865 149.493 310.848 150.51C309.832 151.526 309.139 152.821 308.858 154.231Z" fill="#DBDBDB"/>
<path d="M319.201 189.005H368.004L343.603 155.935L319.201 189.005Z" fill="#C7C7C7"/>
<path d="M300.09 189.032H340.382L320.236 167.496L300.09 189.032Z" fill="#DBDBDB"/>
<path d="M368.007 189.004H300.09V202.242H368.007V189.004Z" fill="#DBDBDB"/>
<path d="M409.036 44.2808H300.09V49.7801H409.036V44.2808Z" fill="#A6A6A6"/>
<path d="M432.728 55.6567H300.09V61.1561H432.728V55.6567Z" fill="#DBDBDB"/>
<path d="M432.728 67.0332H300.09V72.5325H432.728V67.0332Z" fill="#DBDBDB"/>
<path d="M432.728 78.4185H300.09V83.9178H432.728V78.4185Z" fill="#DBDBDB"/>
<path d="M432.728 89.7954H300.09V95.2948H432.728V89.7954Z" fill="#DBDBDB"/>
<path d="M388.144 101.172H300.09V106.671H388.144V101.172Z" fill="#DBDBDB"/>
<path d="M422.245 140.791H374.059V146.207H422.245V140.791Z" fill="#A6A6A6"/>
<path d="M432.718 152.001H374.059V157.418H432.718V152.001Z" fill="#DBDBDB"/>
<path d="M432.718 163.212H374.059V168.628H432.718V163.212Z" fill="#DBDBDB"/>
<path d="M432.718 174.413H374.059V179.83H432.718V174.413Z" fill="#DBDBDB"/>
<path d="M432.718 185.624H374.059V191.04H432.718V185.624Z" fill="#DBDBDB"/>
<path d="M413.871 196.834H374.059V202.251H413.871V196.834Z" fill="#DBDBDB"/>
<path d="M432.728 113.239H300.09V129.396H432.728V113.239Z" fill="#F66D1D"/>
<path d="M282.788 140.791H161.24V156.948H282.788V140.791Z" fill="#A6A6A6"/>
<path d="M282.788 162.834H161.24V168.297H282.788V162.834Z" fill="#DBDBDB"/>
<path d="M282.788 174.146H161.24V179.609H282.788V174.146Z" fill="#DBDBDB"/>
<path d="M282.788 185.467H161.24V190.93H282.788V185.467Z" fill="#DBDBDB"/>
<path d="M244.523 196.779H161.24V202.242H244.523V196.779Z" fill="#DBDBDB"/>
<path d="M458.787 28.2612H450.432V218.546H458.787V28.2612Z" fill="#DBDBDB"/>
<path d="M454.605 127.849C454.033 127.849 453.485 127.622 453.081 127.217C452.676 126.813 452.449 126.265 452.449 125.693V32.3054C452.449 31.7337 452.676 31.1855 453.081 30.7812C453.485 30.377 454.033 30.1499 454.605 30.1499C455.176 30.1499 455.725 30.377 456.129 30.7812C456.533 31.1855 456.76 31.7337 456.76 32.3054V125.693C456.76 126.265 456.533 126.813 456.129 127.217C455.725 127.622 455.176 127.849 454.605 127.849Z" fill="#A6A6A6"/>
<path d="M266.059 127.637V262.661C266.032 265.569 264.854 268.348 262.782 270.389C260.71 272.43 257.913 273.566 255.005 273.549H42.7688C39.8605 273.566 37.064 272.43 34.9921 270.389C32.9201 268.348 31.7416 265.569 31.7148 262.661V127.637C31.7416 124.729 32.9204 121.951 34.9926 119.912C37.0649 117.872 39.8614 116.738 42.7688 116.758H254.95C256.394 116.741 257.828 117.009 259.168 117.547C260.509 118.084 261.73 118.881 262.762 119.892C263.794 120.903 264.616 122.107 265.182 123.436C265.748 124.765 266.046 126.192 266.059 127.637Z" fill="#455A64"/>
<path d="M249.968 123.344H48.2422V266.751H249.968V123.344Z" fill="white"/>
<path d="M60.2452 196.005H149.736V133.339H60.2452L60.2452 196.005Z" fill="#EBEBEB"/>
<path d="M70.7169 151.163C70.726 152.618 71.166 154.039 71.9812 155.244C72.7965 156.45 73.9506 157.388 75.2979 157.938C76.6453 158.489 78.1255 158.628 79.552 158.339C80.9784 158.049 82.2872 157.344 83.3132 156.312C84.3392 155.279 85.0365 153.966 85.3172 152.538C85.5978 151.109 85.4492 149.63 84.8901 148.286C84.331 146.942 83.3865 145.794 82.1756 144.986C80.9647 144.179 79.5418 143.748 78.0863 143.748C77.1146 143.748 76.1526 143.94 75.2555 144.313C74.3584 144.686 73.5439 145.233 72.859 145.922C72.1741 146.611 71.6322 147.429 71.2646 148.329C70.897 149.228 70.7109 150.191 70.7169 151.163Z" fill="#DBDBDB"/>
<path d="M99.9629 182.51H149.733L124.844 148.786L99.9629 182.51Z" fill="#C7C7C7"/>
<path d="M80.4707 182.538H121.555L101.013 160.577L80.4707 182.538Z" fill="#DBDBDB"/>
<path d="M149.737 182.51H60.2461V196.015H149.737V182.51Z" fill="#DBDBDB"/>
<path d="M178.124 255.55H237.963V213.646H178.124V255.55Z" fill="#EBEBEB"/>
<path d="M185.117 225.566C185.115 226.548 185.405 227.509 185.949 228.327C186.494 229.144 187.269 229.782 188.176 230.159C189.083 230.537 190.082 230.636 191.045 230.446C192.009 230.255 192.895 229.783 193.59 229.089C194.285 228.395 194.759 227.51 194.951 226.547C195.144 225.584 195.046 224.585 194.67 223.677C194.295 222.769 193.658 221.993 192.842 221.447C192.025 220.901 191.065 220.61 190.082 220.61C189.431 220.609 188.785 220.736 188.183 220.984C187.581 221.233 187.033 221.598 186.572 222.058C186.111 222.518 185.745 223.065 185.495 223.667C185.246 224.269 185.117 224.914 185.117 225.566Z" fill="#DBDBDB"/>
<path d="M204.691 246.522H237.964L221.328 223.972L204.691 246.522Z" fill="#C7C7C7"/>
<path d="M191.66 246.549H219.129L205.395 231.857L191.66 246.549Z" fill="#DBDBDB"/>
<path d="M237.964 246.531H178.125V255.559H237.964V246.531Z" fill="#DBDBDB"/>
<path d="M237.972 133.348H157.453V148.657H237.972V133.348Z" fill="#F66D1D"/>
<path d="M237.972 154.47H157.453V156.617H237.972V154.47Z" fill="#DBDBDB"/>
<path d="M237.972 159.509H157.453V161.655H237.972V159.509Z" fill="#DBDBDB"/>
<path d="M237.972 164.547H157.453V166.694H237.972V164.547Z" fill="#DBDBDB"/>
<path d="M237.972 169.586H157.453V171.733H237.972V169.586Z" fill="#DBDBDB"/>
<path d="M237.972 174.625H157.453V176.771H237.972V174.625Z" fill="#DBDBDB"/>
<path d="M237.972 179.664H157.453V181.81H237.972V179.664Z" fill="#DBDBDB"/>
<path d="M203.742 184.703H157.453V186.849H203.742V184.703Z" fill="#DBDBDB"/>
<path d="M169.613 243.887H89.0938V246.034H169.613V243.887Z" fill="#DBDBDB"/>
<path d="M169.613 213.655H89.0938V215.801H169.613V213.655Z" fill="#DBDBDB"/>
<path d="M169.613 218.694H89.0938V220.84H169.613V218.694Z" fill="#DBDBDB"/>
<path d="M169.613 223.732H89.0938V225.879H169.613V223.732Z" fill="#DBDBDB"/>
<path d="M144.004 228.771H89.0938V230.918H144.004V228.771Z" fill="#DBDBDB"/>
<path d="M169.613 238.849H89.0938V240.995H169.613V238.849Z" fill="#DBDBDB"/>
<path d="M144.004 248.927H89.0938V251.073H144.004V248.927Z" fill="#DBDBDB"/>
<path d="M237.976 203.006H60.2461V208.073H237.976V203.006Z" fill="#455A64"/>
<path d="M83.2568 213.655H60.2461V255.559H83.2568V213.655Z" fill="#F66D1D"/>
<path d="M41.4244 178.079H41.2862C40.6503 178.079 40.1348 178.595 40.1348 179.231V211.057C40.1348 211.693 40.6503 212.208 41.2862 212.208H41.4244C42.0603 212.208 42.5758 211.693 42.5758 211.057V179.231C42.5758 178.595 42.0603 178.079 41.4244 178.079Z" fill="#37474F"/>
<path d="M263.242 195.139C263.243 196.015 262.985 196.871 262.5 197.599C262.015 198.328 261.325 198.896 260.516 199.232C259.708 199.568 258.818 199.656 257.96 199.486C257.101 199.315 256.312 198.894 255.693 198.275C255.075 197.656 254.653 196.868 254.483 196.009C254.313 195.15 254.401 194.261 254.737 193.452C255.073 192.644 255.641 191.954 256.369 191.468C257.098 190.983 257.954 190.725 258.829 190.727C259.999 190.729 261.12 191.195 261.947 192.022C262.774 192.849 263.239 193.97 263.242 195.139Z" fill="#37474F"/>
<path d="M559.958 87.8423H477.873C475.653 87.8666 473.533 88.7706 471.979 90.356C470.425 91.9413 469.563 94.0785 469.582 96.2986V265.24C469.565 267.46 470.428 269.595 471.982 271.18C473.535 272.765 475.654 273.67 477.873 273.697H559.939C562.159 273.67 564.277 272.765 565.831 271.18C567.384 269.595 568.247 267.46 568.23 265.24V96.317C568.255 94.0969 567.397 91.9577 565.847 90.3689C564.296 88.7801 562.178 87.8714 559.958 87.8423ZM563.081 260.017C563.081 264.466 559.746 268.059 555.638 268.059H482.221C478.103 268.059 474.778 264.466 474.778 260.017V102.701C474.778 93.6456 478.103 93.2035 482.221 93.2035H496.959C497.816 93.2035 498.516 94.1246 498.516 95.3774V95.8933C498.516 98.7212 500.064 98.7304 501.961 98.7304H535.906C537.813 98.7304 539.342 98.7304 539.342 95.8933V95.3958C539.342 94.1891 540.033 93.2219 540.908 93.2219H555.647C559.755 93.2219 563.09 94.4286 563.09 102.719L563.081 260.017Z" fill="#455A64"/>
<path d="M523.562 95.202H514.286C514.135 95.202 513.989 95.1419 513.882 95.0348C513.775 94.9277 513.715 94.7824 513.715 94.6309C513.715 94.4795 513.775 94.3342 513.882 94.2271C513.989 94.12 514.135 94.0598 514.286 94.0598H523.562C523.714 94.0598 523.861 94.1197 523.969 94.2265C524.078 94.3334 524.14 94.4786 524.142 94.6309C524.14 94.7832 524.078 94.9285 523.969 95.0353C523.861 95.1422 523.714 95.2021 523.562 95.202Z" fill="white"/>
<path d="M563.082 102.701V260.017C563.082 264.466 559.748 268.059 555.639 268.059H482.222C478.105 268.059 474.779 264.466 474.779 260.017V102.701C474.779 93.6455 478.105 93.2034 482.222 93.2034H496.961C497.818 93.2034 498.518 94.1245 498.518 95.3773V95.8932C498.518 98.7211 500.065 98.7304 501.963 98.7304H535.908C537.815 98.7304 539.344 98.7304 539.344 95.8932V95.3957C539.344 94.189 540.035 93.2218 540.91 93.2218H555.648C559.748 93.2034 563.082 94.4101 563.082 102.701Z" fill="white"/>
<path d="M563.082 102.701V114.436H474.77V102.701C474.77 93.6455 478.104 93.2034 482.222 93.2034H496.96C497.808 93.2034 498.508 94.1245 498.508 95.3773V95.8932C498.508 98.7211 500.056 98.7304 501.944 98.7304H535.907C537.814 98.7304 539.352 98.7304 539.352 95.8932V95.3957C539.352 94.189 540.043 93.2218 540.909 93.2218H555.648C559.747 93.2034 563.082 94.4101 563.082 102.701Z" fill="#F66D1D"/>
<path d="M483.142 108.707L480.535 106.266L483.142 103.824L483.547 104.248L481.401 106.266L483.547 108.283L483.142 108.707Z" fill="white"/>
<path d="M555.112 108.928H553.27V108.292C553.27 108.274 553.264 108.257 553.255 108.242C553.245 108.228 553.231 108.216 553.215 108.209L553.012 108.089C552.996 108.082 552.979 108.079 552.962 108.079C552.944 108.079 552.927 108.082 552.911 108.089L552.349 108.421L551.428 106.827L551.99 106.505C552.001 106.49 552.007 106.473 552.007 106.454C552.007 106.436 552.001 106.418 551.99 106.404V106.182C552.001 106.168 552.007 106.15 552.007 106.132C552.007 106.113 552.001 106.096 551.99 106.081L551.428 105.759L552.349 104.165L552.911 104.488C552.926 104.496 552.944 104.501 552.962 104.501C552.979 104.501 552.997 104.496 553.012 104.488L553.215 104.368C553.231 104.361 553.245 104.349 553.255 104.334C553.264 104.32 553.27 104.303 553.27 104.285V103.631H555.112V104.285C555.113 104.303 555.118 104.32 555.128 104.334C555.138 104.349 555.151 104.361 555.168 104.368L555.37 104.488C555.386 104.496 555.403 104.501 555.421 104.501C555.439 104.501 555.456 104.496 555.472 104.488L556.034 104.165L556.955 105.759L556.393 106.081C556.382 106.096 556.376 106.113 556.376 106.132C556.376 106.15 556.382 106.168 556.393 106.182V106.404C556.382 106.418 556.376 106.436 556.376 106.454C556.376 106.473 556.382 106.49 556.393 106.505L556.955 106.827L556.034 108.421L555.472 108.099C555.456 108.09 555.439 108.085 555.421 108.085C555.403 108.085 555.386 108.09 555.37 108.099L555.168 108.218C555.151 108.225 555.138 108.237 555.128 108.252C555.118 108.266 555.113 108.283 555.112 108.301V108.928ZM553.731 108.467H554.652V108.292C554.653 108.189 554.682 108.089 554.736 108.002C554.789 107.914 554.865 107.843 554.956 107.795C555.011 107.769 555.063 107.738 555.112 107.702C555.202 107.651 555.304 107.623 555.407 107.623C555.511 107.623 555.612 107.651 555.702 107.702L555.868 107.804L556.328 107.002L556.163 106.901C556.074 106.851 556 106.777 555.952 106.687C555.903 106.598 555.88 106.496 555.886 106.394V106.21C555.88 106.107 555.903 106.004 555.952 105.913C556.001 105.822 556.074 105.747 556.163 105.694L556.328 105.602L555.868 104.801L555.702 104.902C555.614 104.954 555.514 104.981 555.412 104.981C555.31 104.981 555.21 104.954 555.122 104.902L554.956 104.81C554.865 104.762 554.789 104.69 554.736 104.603C554.682 104.515 554.653 104.415 554.652 104.313V104.119H553.731V104.313C553.729 104.415 553.7 104.515 553.647 104.603C553.593 104.69 553.517 104.762 553.427 104.81C553.372 104.835 553.319 104.866 553.27 104.902C553.18 104.954 553.079 104.981 552.975 104.981C552.872 104.981 552.77 104.954 552.681 104.902L552.515 104.801L552.054 105.602L552.22 105.694C552.309 105.747 552.382 105.822 552.431 105.913C552.479 106.004 552.502 106.107 552.496 106.21V106.394C552.502 106.497 552.479 106.6 552.431 106.691C552.382 106.782 552.309 106.858 552.22 106.91L552.054 107.002L552.515 107.804L552.681 107.702C552.77 107.651 552.872 107.623 552.975 107.623C553.079 107.623 553.18 107.651 553.27 107.702C553.319 107.738 553.372 107.769 553.427 107.795C553.517 107.843 553.593 107.914 553.647 108.002C553.7 108.089 553.729 108.189 553.731 108.292V108.467ZM554.191 107.629C553.922 107.629 553.658 107.549 553.434 107.399C553.21 107.249 553.035 107.036 552.932 106.787C552.829 106.538 552.802 106.264 552.854 105.999C552.907 105.735 553.037 105.492 553.227 105.301C553.418 105.111 553.661 104.981 553.925 104.928C554.19 104.876 554.464 104.903 554.713 105.006C554.962 105.109 555.175 105.284 555.325 105.508C555.475 105.732 555.555 105.996 555.555 106.265C555.552 106.626 555.408 106.972 555.153 107.227C554.897 107.482 554.552 107.626 554.191 107.629ZM554.191 105.363C554.009 105.363 553.831 105.417 553.679 105.518C553.528 105.619 553.41 105.763 553.34 105.931C553.271 106.1 553.252 106.285 553.288 106.464C553.323 106.642 553.411 106.806 553.54 106.935C553.669 107.064 553.833 107.152 554.012 107.187C554.19 107.223 554.375 107.205 554.544 107.135C554.712 107.065 554.856 106.947 554.957 106.796C555.058 106.644 555.112 106.466 555.112 106.284C555.112 106.04 555.015 105.805 554.843 105.632C554.67 105.46 554.436 105.363 554.191 105.363Z" fill="white"/>
<path d="M494.39 96.7313L494.252 96.8787L494.169 96.9616C493.989 96.7778 493.774 96.6317 493.536 96.532C493.299 96.4324 493.044 96.381 492.787 96.381C492.53 96.381 492.275 96.4324 492.038 96.532C491.8 96.6317 491.585 96.7778 491.405 96.9616L491.332 96.8787L491.193 96.7405C491.247 96.6836 491.306 96.6312 491.368 96.5839C491.495 96.478 491.634 96.3883 491.783 96.3168C491.959 96.2321 492.144 96.1702 492.336 96.1326H492.612H493.036C493.208 96.1539 493.378 96.194 493.542 96.2523C493.66 96.2982 493.774 96.3537 493.883 96.4181C494.001 96.481 494.112 96.555 494.215 96.6392L494.362 96.7774L494.39 96.7313Z" fill="white"/>
<path d="M491.875 97.4041L491.654 97.183C491.804 97.0326 491.982 96.9133 492.178 96.8319C492.374 96.7504 492.584 96.7085 492.797 96.7085C493.009 96.7085 493.219 96.7504 493.415 96.8319C493.611 96.9133 493.789 97.0326 493.939 97.183L493.718 97.4133C493.473 97.1703 493.142 97.0339 492.797 97.0339C492.451 97.0339 492.12 97.1703 491.875 97.4133V97.4041Z" fill="white"/>
<path d="M493.533 97.6252L493.312 97.8555C493.252 97.7942 493.18 97.7456 493.101 97.7123C493.022 97.6791 492.937 97.662 492.852 97.662C492.766 97.662 492.681 97.6791 492.602 97.7123C492.523 97.7456 492.451 97.7942 492.391 97.8555L492.17 97.6252C492.352 97.4474 492.597 97.3479 492.852 97.3479C493.106 97.3479 493.351 97.4474 493.533 97.6252Z" fill="white"/>
<path d="M493.001 98.0579C493.001 98.0979 492.989 98.1371 492.967 98.1705C492.945 98.2038 492.913 98.2298 492.876 98.2451C492.839 98.2604 492.798 98.2645 492.759 98.2566C492.72 98.2488 492.683 98.2295 492.655 98.2012C492.627 98.1728 492.607 98.1367 492.6 98.0974C492.592 98.0581 492.596 98.0174 492.611 97.9803C492.626 97.9433 492.652 97.9116 492.686 97.8894C492.719 97.8671 492.758 97.8552 492.798 97.8552C492.825 97.8539 492.852 97.8582 492.877 97.868C492.903 97.8777 492.925 97.8926 492.945 97.9116C492.964 97.9307 492.979 97.9536 492.988 97.9788C492.998 98.004 493.002 98.0309 493.001 98.0579Z" fill="white"/>
<path d="M480.535 97.1643C480.535 97.0104 480.596 96.8628 480.705 96.754C480.814 96.6451 480.962 96.584 481.115 96.584C481.27 96.584 481.419 96.6448 481.529 96.7534C481.639 96.862 481.703 97.0096 481.705 97.1643C481.705 97.3207 481.643 97.4706 481.532 97.5812C481.422 97.6918 481.272 97.7539 481.115 97.7539C480.961 97.7514 480.813 97.6883 480.705 97.578C480.596 97.4677 480.535 97.3191 480.535 97.1643Z" fill="white"/>
<path d="M482.377 97.1643C482.377 97.0104 482.438 96.8628 482.547 96.754C482.656 96.6451 482.803 96.584 482.957 96.584C483.112 96.584 483.261 96.6448 483.371 96.7534C483.481 96.862 483.544 97.0096 483.547 97.1643C483.547 97.3207 483.485 97.4706 483.374 97.5812C483.264 97.6918 483.114 97.7539 482.957 97.7539C482.803 97.7514 482.655 97.6883 482.546 97.578C482.438 97.4677 482.377 97.3191 482.377 97.1643Z" fill="white"/>
<path d="M484.219 97.1642C484.237 97.0217 484.307 96.8906 484.414 96.7956C484.522 96.7006 484.661 96.6482 484.804 96.6482C484.948 96.6482 485.087 96.7006 485.194 96.7956C485.302 96.8906 485.371 97.0217 485.389 97.1642C485.4 97.2472 485.392 97.3314 485.368 97.4113C485.343 97.4913 485.302 97.565 485.246 97.6277C485.191 97.6904 485.123 97.7407 485.047 97.7751C484.971 97.8095 484.888 97.8273 484.804 97.8273C484.721 97.8273 484.638 97.8095 484.562 97.7751C484.486 97.7407 484.418 97.6904 484.362 97.6277C484.307 97.565 484.266 97.4913 484.241 97.4113C484.216 97.3314 484.209 97.2472 484.219 97.1642Z" fill="white"/>
<path d="M486.061 97.1643C486.061 97.0476 486.095 96.9337 486.16 96.8367C486.225 96.7398 486.317 96.6642 486.424 96.6196C486.532 96.575 486.651 96.5633 486.765 96.586C486.879 96.6088 486.984 96.6649 487.067 96.7474C487.149 96.8298 487.206 96.9349 487.228 97.0492C487.251 97.1636 487.239 97.2821 487.195 97.3899C487.15 97.4976 487.075 97.5897 486.978 97.6544C486.881 97.7192 486.767 97.7538 486.65 97.7538C486.494 97.7538 486.344 97.6917 486.233 97.5811C486.123 97.4706 486.061 97.3206 486.061 97.1643Z" fill="white"/>
<path d="M487.904 97.1643C487.907 97.0096 487.97 96.862 488.08 96.7534C488.19 96.6448 488.339 96.584 488.494 96.584C488.648 96.584 488.795 96.6451 488.904 96.754C489.013 96.8628 489.074 97.0104 489.074 97.1643C489.074 97.3191 489.013 97.4677 488.905 97.578C488.796 97.6883 488.649 97.7514 488.494 97.7539C488.337 97.7539 488.188 97.6918 488.077 97.5812C487.966 97.4706 487.904 97.3207 487.904 97.1643Z" fill="white"/>
<path d="M556.448 98.4355H551.695V96.2432H556.448V98.4355ZM551.926 98.2052H556.218V96.4735H551.926V98.2052Z" fill="white"/>
<path d="M555.15 96.6113H552.082V98.0668H555.15V96.6113Z" fill="white"/>
<path d="M556.881 96.7498H556.457V97.9288H556.881V96.7498Z" fill="white"/>
<path d="M488.19 258.442H487.517V261.528H486.264V259.952H484.044V261.528H482.792V258.442H482.119L485.159 255.31L488.19 258.442Z" fill="#EBEBEB"/>
<path d="M555.749 255.31H548.426V256.36H555.749V255.31Z" fill="#EBEBEB"/>
<path d="M555.749 257.889H548.426V258.939H555.749V257.889Z" fill="#EBEBEB"/>
<path d="M555.749 260.478H548.426V261.528H555.749V260.478Z" fill="#EBEBEB"/>
<path d="M488.051 129.884C487.273 130.369 486.374 130.626 485.458 130.626C484.541 130.626 483.642 130.369 482.864 129.884C481.953 129.32 481.25 128.474 480.863 127.475C480.475 126.475 480.424 125.377 480.717 124.345C481.01 123.314 481.632 122.407 482.487 121.761C483.343 121.115 484.386 120.765 485.458 120.765C486.53 120.765 487.572 121.115 488.428 121.761C489.283 122.407 489.905 123.314 490.198 124.345C490.491 125.377 490.44 126.475 490.053 127.475C489.665 128.474 488.962 129.32 488.051 129.884Z" fill="#DBDBDB"/>
<path d="M486.956 125.131C486.956 125.428 486.868 125.719 486.702 125.966C486.537 126.213 486.302 126.406 486.027 126.519C485.752 126.632 485.45 126.662 485.158 126.603C484.867 126.544 484.599 126.4 484.39 126.189C484.18 125.978 484.038 125.71 483.981 125.418C483.924 125.126 483.955 124.824 484.07 124.55C484.185 124.276 484.379 124.042 484.627 123.878C484.875 123.714 485.166 123.628 485.464 123.629C485.86 123.632 486.24 123.791 486.52 124.072C486.799 124.354 486.956 124.734 486.956 125.131Z" fill="white"/>
<path d="M488.051 129.267V129.884C487.273 130.369 486.375 130.626 485.458 130.626C484.542 130.626 483.643 130.369 482.865 129.884V129.267C482.905 128.606 483.195 127.985 483.677 127.531C484.159 127.077 484.796 126.824 485.458 126.824C486.12 126.824 486.758 127.077 487.24 127.531C487.722 127.985 488.012 128.606 488.051 129.267Z" fill="white"/>
<path d="M527.884 121.05H496.564V123.63H527.884V121.05Z" fill="#EBEBEB"/>
<path d="M523.905 125.352H496.564V127.065H523.905V125.352Z" fill="#EBEBEB"/>
<path d="M541.766 128.65H496.564V130.363H541.766V128.65Z" fill="#EBEBEB"/>
<path d="M474.777 196.53H563.08V134.702H474.777V196.53Z" fill="#EBEBEB"/>
<path d="M485.092 152.277C485.092 153.724 485.521 155.138 486.324 156.341C487.128 157.544 488.27 158.481 489.607 159.035C490.943 159.588 492.414 159.733 493.833 159.451C495.252 159.169 496.555 158.472 497.578 157.449C498.601 156.426 499.297 155.123 499.579 153.704C499.862 152.286 499.717 150.815 499.163 149.478C498.61 148.142 497.672 147 496.469 146.196C495.266 145.392 493.852 144.963 492.406 144.963C490.466 144.963 488.606 145.734 487.234 147.106C485.862 148.477 485.092 150.338 485.092 152.277Z" fill="#DBDBDB"/>
<path d="M513.982 183.21H563.081L538.531 149.929L513.982 183.21Z" fill="#C7C7C7"/>
<path d="M494.732 183.238H535.273L514.998 161.572L494.732 183.238Z" fill="#DBDBDB"/>
<path d="M563.082 183.21H474.779V196.53H563.082V183.21Z" fill="#DBDBDB"/>
<path d="M488.051 229.131C487.273 229.616 486.374 229.873 485.458 229.873C484.541 229.873 483.642 229.616 482.864 229.131C481.953 228.567 481.25 227.721 480.863 226.721C480.475 225.722 480.424 224.623 480.717 223.592C481.01 222.561 481.632 221.653 482.487 221.007C483.343 220.361 484.386 220.011 485.458 220.011C486.53 220.011 487.572 220.361 488.428 221.007C489.283 221.653 489.905 222.561 490.198 223.592C490.491 224.623 490.44 225.722 490.053 226.721C489.665 227.721 488.962 228.567 488.051 229.131Z" fill="#DBDBDB"/>
<path d="M485.462 225.878C486.292 225.878 486.964 225.206 486.964 224.377C486.964 223.548 486.292 222.875 485.462 222.875C484.633 222.875 483.961 223.548 483.961 224.377C483.961 225.206 484.633 225.878 485.462 225.878Z" fill="white"/>
<path d="M488.051 228.513V229.13C487.273 229.615 486.375 229.873 485.458 229.873C484.542 229.873 483.643 229.615 482.865 229.13V228.513C482.905 227.852 483.195 227.231 483.677 226.777C484.159 226.323 484.796 226.07 485.458 226.07C486.12 226.07 486.758 226.323 487.24 226.777C487.722 227.231 488.012 227.852 488.051 228.513Z" fill="white"/>
<path d="M536.838 220.297H496.564V222.876H536.838V220.297Z" fill="#EBEBEB"/>
<path d="M547.984 224.598H496.564V226.312H547.984V224.598Z" fill="#EBEBEB"/>
<path d="M514.076 227.896H496.564V229.609H514.076V227.896Z" fill="#EBEBEB"/>
<path d="M563.064 233.948H474.779V249.046H563.064V233.948Z" fill="#EBEBEB"/>
<path d="M499.292 249.055H485.529C486.035 247.635 486.968 246.406 488.2 245.537C489.432 244.669 490.903 244.202 492.41 244.202C493.918 244.202 495.389 244.669 496.621 245.537C497.853 246.406 498.786 247.635 499.292 249.055Z" fill="#DBDBDB"/>
<path d="M480.71 203.771C480.573 203.209 480.606 202.62 480.804 202.078C481.002 201.535 481.357 201.064 481.823 200.723C482.289 200.382 482.846 200.187 483.423 200.162C484 200.138 484.571 200.285 485.065 200.585C485.558 200.885 485.951 201.325 486.195 201.849C486.438 202.372 486.521 202.957 486.433 203.527C486.344 204.098 486.088 204.63 485.698 205.055C485.307 205.48 484.799 205.78 484.238 205.917C483.865 206.009 483.478 206.026 483.099 205.968C482.719 205.91 482.355 205.777 482.027 205.578C481.699 205.378 481.414 205.116 481.188 204.806C480.962 204.496 480.799 204.144 480.71 203.771Z" fill="#EBEBEB"/>
<path fill-rule="evenodd" clip-rule="evenodd" d="M483.153 204.24C483.07 204.194 483.006 204.12 482.904 204.13C482.803 204.139 482.904 204.13 482.904 204.084V202.914C482.898 202.904 482.894 202.893 482.894 202.882C482.894 202.87 482.898 202.859 482.904 202.849C483.199 202.702 483.328 202.407 483.512 202.149C483.61 202.019 483.679 201.87 483.715 201.711C483.752 201.552 483.755 201.388 483.724 201.228C483.724 201.145 483.724 201.108 483.835 201.09C483.873 201.074 483.916 201.072 483.957 201.083C483.997 201.095 484.032 201.12 484.056 201.154C484.143 201.315 484.199 201.489 484.222 201.67C484.24 201.814 484.24 201.959 484.222 202.103C484.222 202.214 484.176 202.315 484.157 202.426C484.139 202.536 484.212 202.426 484.24 202.426H485.226C485.364 202.426 485.438 202.426 485.456 202.554C485.466 202.612 485.457 202.67 485.43 202.722C485.403 202.773 485.361 202.815 485.309 202.84C485.309 202.84 485.244 202.84 485.244 202.886C485.244 202.932 485.244 202.886 485.309 202.932C485.373 202.978 485.401 203.181 485.309 203.282C485.217 203.384 485.216 203.282 485.216 203.337C485.216 203.393 485.272 203.338 485.299 203.411C485.32 203.438 485.335 203.47 485.342 203.503C485.348 203.537 485.347 203.572 485.338 203.605C485.329 203.638 485.313 203.668 485.29 203.694C485.267 203.719 485.239 203.739 485.207 203.752H485.143C485.143 203.752 485.143 203.752 485.143 203.798C485.176 203.814 485.204 203.838 485.224 203.869C485.243 203.9 485.254 203.936 485.254 203.973C485.254 204.01 485.243 204.046 485.224 204.077C485.204 204.108 485.176 204.132 485.143 204.148C485.086 204.166 485.025 204.166 484.968 204.148H483.42C483.414 204.176 483.401 204.201 483.382 204.223C483.363 204.244 483.339 204.26 483.312 204.269C483.286 204.278 483.257 204.28 483.229 204.275C483.201 204.27 483.175 204.258 483.153 204.24Z" fill="white"/>
<path fill-rule="evenodd" clip-rule="evenodd" d="M481.68 203.559C481.68 203.31 481.68 203.061 481.68 202.812C481.68 202.766 481.68 202.739 481.753 202.739C482.048 202.739 482.352 202.739 482.675 202.739C482.73 202.739 482.739 202.739 482.739 202.812V204.305C482.739 204.369 482.739 204.388 482.656 204.388H481.781C481.707 204.388 481.698 204.388 481.698 204.296C481.689 204.093 481.68 203.807 481.68 203.559Z" fill="white"/>
<path d="M486.844 203.771C486.708 203.21 486.741 202.622 486.939 202.08C487.137 201.538 487.492 201.067 487.957 200.726C488.423 200.385 488.979 200.19 489.556 200.165C490.132 200.14 490.703 200.286 491.197 200.586C491.69 200.885 492.084 201.324 492.328 201.847C492.572 202.37 492.656 202.953 492.568 203.524C492.481 204.094 492.227 204.626 491.838 205.052C491.448 205.478 490.942 205.779 490.381 205.917C490.008 206.011 489.62 206.029 489.24 205.972C488.859 205.914 488.494 205.782 488.165 205.582C487.836 205.382 487.55 205.12 487.323 204.809C487.097 204.498 486.934 204.145 486.844 203.771Z" fill="#F66D1D"/>
<path d="M491.175 203.448C491.175 203.844 491.017 204.224 490.738 204.504C490.458 204.783 490.078 204.941 489.682 204.941C489.287 204.941 488.907 204.783 488.627 204.504C488.347 204.224 488.19 203.844 488.19 203.448C488.095 203.309 488.031 203.151 488.002 202.984C487.973 202.818 487.98 202.647 488.023 202.484C488.066 202.321 488.143 202.169 488.25 202.038C488.356 201.907 488.49 201.801 488.641 201.726C489.47 201.477 489.682 202.923 489.682 202.923C489.682 202.923 489.894 201.477 490.732 201.726C491.313 201.901 491.543 202.702 491.175 203.448Z" fill="white"/>
<path d="M538.533 202.702H497.053V204.388H538.533V202.702Z" fill="#EBEBEB"/>
<path d="M474.779 212.771L485.815 212.605L496.85 212.513L518.922 212.43L540.993 212.513L552.028 212.605L563.064 212.771L552.028 212.946L540.993 213.038L518.922 213.121L496.85 213.038L485.815 212.946L474.779 212.771Z" fill="#EBEBEB"/>
<path d="M342.154 292.571C341.463 290.618 305.805 245.481 303.41 244.671C303.143 244.56 287.86 255.927 287.86 255.927C287.234 256.793 257.609 251.174 257.609 251.174L258.061 286.759L311.755 284.493C311.755 284.493 319.125 288.61 325.812 291.945C328.667 293.479 331.614 294.832 334.637 295.998C337.355 296.615 342.854 294.506 342.154 292.571Z" fill="#EB9481"/>
<path d="M334.655 295.979C331.634 294.815 328.69 293.461 325.839 291.926C319.133 288.592 311.782 284.474 311.782 284.474L299.807 284.981L280.463 255.163C284.59 255.807 287.657 256.176 287.832 255.9C287.832 255.9 303.105 244.542 303.381 244.652C305.776 245.481 341.435 290.618 342.126 292.553C342.817 294.487 337.354 296.624 334.655 295.979Z" fill="white"/>
<path d="M342.46 292.617C341.732 290.627 305.917 245.518 303.458 244.661C302.536 244.33 295.038 249.175 287.844 255.909L310.965 284.953C310.965 284.953 331.968 295.528 334.759 296.182C337.55 296.836 343.197 294.616 342.46 292.617Z" fill="#F66D1D"/>
<path d="M340.152 293.446C333.962 286.077 309.698 255.541 304.144 247.747C304.097 247.683 304.144 247.646 304.144 247.747C310.435 254.96 334.459 285.644 340.226 293.382C340.401 293.446 340.281 293.566 340.152 293.446Z" fill="#263238"/>
<path d="M330.849 294.57C330.158 293.747 329.645 292.788 329.344 291.756C329.043 290.724 328.959 289.64 329.099 288.574C329.334 286.656 330.301 284.903 331.798 283.682C331.844 283.682 331.909 283.728 331.863 283.774C330.568 285.219 329.779 287.045 329.613 288.977C329.446 290.909 329.913 292.843 330.941 294.487C330.988 294.552 330.895 294.626 330.849 294.57Z" fill="#263238"/>
<path d="M313.625 286.731C311.175 283.738 309.462 279.362 310.447 275.53C310.447 275.383 310.696 275.438 310.714 275.53C311.431 279.277 312.546 282.936 314.04 286.446C314.078 286.501 314.092 286.568 314.08 286.634C314.068 286.7 314.03 286.758 313.975 286.796C313.92 286.834 313.853 286.848 313.787 286.836C313.721 286.824 313.663 286.786 313.625 286.731Z" fill="#263238"/>
<path d="M316.39 288.343C313.949 285.349 312.226 280.974 313.212 277.142C313.212 276.994 313.461 277.049 313.488 277.142C314.197 280.889 315.309 284.549 316.805 288.057C316.843 288.112 316.857 288.18 316.845 288.246C316.833 288.311 316.795 288.37 316.74 288.407C316.713 288.426 316.682 288.439 316.65 288.446C316.618 288.453 316.584 288.454 316.552 288.448C316.486 288.436 316.428 288.398 316.39 288.343Z" fill="#263238"/>
<path d="M319.152 289.955C316.711 286.961 314.998 282.586 315.974 278.754C315.974 278.606 316.223 278.661 316.251 278.754C316.965 282.5 318.077 286.159 319.567 289.669C319.605 289.724 319.619 289.792 319.607 289.858C319.595 289.923 319.557 289.982 319.502 290.019C319.447 290.057 319.38 290.072 319.314 290.06C319.248 290.048 319.19 290.01 319.152 289.955Z" fill="#263238"/>
<path d="M321.925 291.604C319.475 288.61 317.761 284.235 318.738 280.403C318.738 280.255 318.987 280.31 319.014 280.403C319.728 284.15 320.843 287.81 322.34 291.318C322.377 291.373 322.392 291.441 322.38 291.507C322.368 291.572 322.33 291.63 322.275 291.668C322.248 291.687 322.217 291.7 322.185 291.707C322.153 291.714 322.119 291.715 322.087 291.709C322.021 291.697 321.963 291.659 321.925 291.604Z" fill="#263238"/>
<path d="M298.49 255.337C295.8 251.929 301.088 247.756 303.778 251.165C306.467 254.573 301.18 258.746 298.49 255.337Z" fill="#263238"/>
<path d="M312.39 292.645C313.2 289.338 312.546 285.801 312.325 282.457C312.314 282.384 312.286 282.315 312.243 282.255C312.2 282.195 312.143 282.146 312.078 282.111C312.012 282.077 311.94 282.059 311.866 282.058C311.792 282.058 311.719 282.074 311.653 282.107C311.642 282.095 311.63 282.086 311.615 282.079C311.601 282.073 311.586 282.07 311.57 282.07C311.554 282.07 311.539 282.073 311.524 282.079C311.51 282.086 311.497 282.095 311.487 282.107C308.898 284.535 306.992 287.6 305.96 290.996C305.398 292.986 305.684 295.906 308.171 296.431C310.658 296.956 311.92 294.58 312.39 292.645ZM309.995 294.773C306.457 297.094 306.632 292.111 307.111 290.665C307.43 289.716 307.818 288.792 308.272 287.901C309.226 286.093 310.272 284.334 311.404 282.632C311.404 284.281 311.561 285.911 311.625 287.551C311.708 289.55 311.938 293.502 309.995 294.773Z" fill="#263238"/>
<path d="M301.006 272.867C299.219 274.71 300.582 277.271 302.157 278.616C304.895 280.885 308.184 282.391 311.692 282.982C311.774 282.982 311.811 282.936 311.811 282.871C311.885 282.863 311.957 282.838 312.019 282.797C312.082 282.756 312.133 282.701 312.17 282.637C312.207 282.572 312.228 282.499 312.231 282.425C312.235 282.35 312.22 282.276 312.189 282.208C310.531 279.297 309.121 275.99 306.662 273.678C305.188 272.324 302.719 271.163 301.006 272.867ZM308.771 278.312C309.628 279.721 310.402 281.167 311.295 282.549C309.453 281.692 307.555 280.918 305.768 279.878C304.907 279.387 304.079 278.839 303.29 278.238C302.093 277.317 299.21 273.227 303.438 273.217C305.796 273.181 307.786 276.635 308.79 278.312H308.771Z" fill="#263238"/>
<path d="M255.869 242.69L231.651 240.783C231.651 240.783 196.647 230.65 176.455 235.947C153.278 242.036 150.008 269.109 173.572 279.96C196.914 290.683 299.504 286.74 299.504 286.74L277.507 254.159C277.507 254.159 243.718 246.227 214.14 247.839L256.016 252.657L255.869 242.69Z" fill="#37474F"/>
<path d="M255.621 249.581C252.019 248.991 248.371 248.659 244.742 248.355C241.112 248.051 237.372 247.747 233.688 247.517C226.356 247.038 219.005 246.927 211.663 247.186C210.972 247.186 210.29 247.25 209.599 247.296C209.451 247.254 209.3 247.22 209.148 247.195C208.798 247.112 208.438 247.029 208.088 246.974C207.416 246.863 206.753 246.78 206.08 246.688C204.689 246.504 203.317 246.384 201.907 246.154C201.825 246.154 201.788 246.274 201.907 246.283C203.308 246.568 204.671 246.937 206.08 247.204L207.287 247.434C204.597 247.628 201.917 247.895 199.236 248.199C199.153 248.199 199.153 248.337 199.236 248.328C202.921 248.033 206.605 247.932 210.235 247.922C213.864 247.913 217.503 247.922 221.141 248.042C228.511 248.309 235.88 248.816 243.176 249.433C247.284 249.774 251.411 250.198 255.538 250.281C255.943 250.299 256.026 249.645 255.621 249.581Z" fill="#263238"/>
<path d="M289.029 285.994C287.675 283.921 286.505 281.701 285.262 279.546L281.503 273.098C278.998 268.814 270.025 254.426 269.15 253.422C269.095 253.357 268.985 253.422 269.012 253.514C269.445 254.628 275.055 264.162 276.381 266.29C278.961 270.537 281.669 274.7 284.331 278.892C285.096 280.089 285.879 281.278 286.653 282.466C287.426 283.654 288.246 284.824 288.955 286.049C288.928 286.141 289.029 286.077 289.029 285.994Z" fill="#263238"/>
<path d="M168.515 299.13C169.113 297.149 202.598 250.382 204.947 249.433C205.214 249.313 221.021 259.934 221.021 259.934C221.684 260.773 251.005 253.763 251.005 253.763L252.239 289.329L198.499 289.605C198.499 289.605 191.359 294.064 184.81 297.721C182.031 299.386 179.151 300.878 176.188 302.188C173.498 302.953 167.907 301.101 168.515 299.13Z" fill="#EB9481"/>
<path d="M176.17 302.188C179.132 300.88 182.009 299.388 184.783 297.72C191.323 294.036 198.472 289.605 198.472 289.605L210.447 289.55L228.363 258.847C224.274 259.685 221.224 260.201 220.994 259.934C220.994 259.934 205.187 249.304 204.92 249.433C202.571 250.354 169.087 297.149 168.488 299.13C167.889 301.11 173.499 302.952 176.17 302.188Z" fill="white"/>
<path d="M168.2 299.204C168.826 297.177 202.476 250.382 204.881 249.461C205.802 249.083 213.512 253.569 221.019 259.944L199.289 290.066C199.289 290.066 178.821 301.617 176.057 302.4C173.294 303.183 167.574 301.23 168.2 299.204Z" fill="#F66D1D"/>
<path d="M170.561 299.895C176.392 292.194 199.182 260.598 204.368 252.538C204.368 252.473 204.368 252.446 204.313 252.538C198.371 260.036 175.83 291.825 170.432 299.83C170.312 299.95 170.432 300.042 170.561 299.895Z" fill="#263238"/>
<path d="M179.912 300.595C180.561 299.738 181.025 298.757 181.276 297.712C181.526 296.667 181.557 295.582 181.367 294.524C181.057 292.626 180.028 290.921 178.493 289.762C178.493 289.762 178.383 289.817 178.42 289.863C179.781 291.244 180.657 293.03 180.916 294.952C181.176 296.874 180.804 298.828 179.857 300.521C179.855 300.529 179.856 300.538 179.858 300.546C179.86 300.555 179.864 300.563 179.869 300.569C179.874 300.576 179.88 300.582 179.888 300.586C179.895 300.591 179.903 300.594 179.912 300.595Z" fill="#263238"/>
<path d="M196.737 291.945C199.04 288.841 200.55 284.41 199.381 280.615C199.381 280.467 199.132 280.532 199.113 280.661C198.589 284.433 197.663 288.139 196.35 291.715C196.341 291.763 196.347 291.813 196.367 291.858C196.387 291.903 196.42 291.94 196.463 291.965C196.505 291.991 196.554 292.002 196.603 291.998C196.652 291.995 196.699 291.976 196.737 291.945Z" fill="#263238"/>
<path d="M194.049 293.686C196.352 290.582 197.863 286.151 196.702 282.356C196.702 282.208 196.444 282.273 196.426 282.402C195.901 286.174 194.975 289.88 193.662 293.456C193.653 293.504 193.659 293.554 193.679 293.599C193.699 293.644 193.733 293.681 193.775 293.706C193.817 293.732 193.866 293.743 193.915 293.739C193.965 293.736 194.011 293.717 194.049 293.686Z" fill="#263238"/>
<path d="M191.389 295.427C193.682 292.323 195.193 287.892 194.032 284.097C193.986 283.949 193.784 284.014 193.765 284.097C193.237 287.869 192.31 291.574 191.002 295.151C190.974 295.202 190.966 295.262 190.979 295.319C190.992 295.376 191.025 295.426 191.073 295.46C191.121 295.494 191.179 295.51 191.237 295.503C191.295 295.497 191.349 295.47 191.389 295.427Z" fill="#263238"/>
<path d="M188.677 297.177C190.98 294.064 192.49 289.633 191.32 285.838C191.32 285.69 191.072 285.755 191.053 285.884C190.529 289.656 189.602 293.362 188.29 296.938C188.278 296.987 188.282 297.038 188.301 297.085C188.32 297.131 188.354 297.171 188.397 297.197C188.44 297.224 188.49 297.236 188.54 297.233C188.59 297.229 188.638 297.21 188.677 297.177Z" fill="#263238"/>
<path d="M210.371 259.879C212.895 256.351 207.414 252.427 204.89 255.955C202.366 259.483 207.837 263.407 210.371 259.879Z" fill="#263238"/>
<path d="M202.67 301.359C205.129 300.723 205.276 297.794 204.613 295.832C203.417 292.483 201.358 289.509 198.644 287.21C198.58 287.155 198.524 287.21 198.488 287.21C198.419 287.181 198.344 287.168 198.27 287.173C198.196 287.178 198.123 287.2 198.059 287.237C197.994 287.275 197.94 287.327 197.899 287.389C197.858 287.452 197.833 287.523 197.824 287.597C197.769 290.941 197.281 294.506 198.248 297.776C198.81 299.71 200.339 301.967 202.67 301.359ZM198.755 292.709C198.755 291.07 198.81 289.43 198.755 287.79C199.966 289.435 201.092 291.141 202.126 292.903C202.618 293.76 203.052 294.65 203.425 295.565C203.968 296.993 204.346 301.958 200.735 299.821C198.755 298.632 198.755 294.671 198.755 292.709Z" fill="#263238"/>
<path d="M203.094 278.579C200.708 281.011 199.455 284.382 197.944 287.367C197.917 287.436 197.905 287.51 197.912 287.584C197.919 287.658 197.943 287.73 197.982 287.793C198.022 287.856 198.076 287.908 198.14 287.946C198.203 287.984 198.275 288.007 198.35 288.011C198.348 288.027 198.35 288.043 198.356 288.058C198.361 288.073 198.37 288.086 198.382 288.097C198.393 288.108 198.407 288.115 198.423 288.12C198.438 288.124 198.454 288.125 198.469 288.122C201.944 287.363 205.159 285.704 207.792 283.313C209.293 281.895 210.555 279.242 208.667 277.519C206.778 275.797 204.485 277.16 203.094 278.579ZM206.244 277.971C210.463 277.786 207.773 281.978 206.622 282.982C205.863 283.618 205.063 284.203 204.227 284.732C202.484 285.798 200.688 286.776 198.847 287.661C199.676 286.243 200.385 284.76 201.168 283.313C202.099 281.591 203.914 278.072 206.244 277.971Z" fill="#263238"/>
<path d="M252.342 242.782L276.449 242.147C276.449 242.147 301.32 229.352 321.788 233.7C345.223 238.674 348.981 267.847 331.847 278.653C310.145 292.341 211.939 292.405 211.939 292.405L232.205 255.891C232.205 255.891 264.658 248.153 294.282 248.365L252.673 255.163L252.342 242.782Z" fill="#37474F"/>
<path d="M230.841 258.276C230.865 258.217 230.88 258.155 230.887 258.092V257.935L230.97 257.585C231.034 257.346 231.117 257.115 231.2 256.876C231.283 256.636 231.384 256.415 231.476 256.185C231.589 255.961 231.718 255.745 231.863 255.54C231.863 255.54 231.863 255.54 231.918 255.494H231.964H232.02C235.594 254.73 259.885 250.594 263.505 250.087C267.125 249.58 270.801 249.166 274.467 248.733C281.766 247.904 289.101 247.443 296.446 247.351C297.137 247.351 297.828 247.351 298.519 247.351C298.663 247.301 298.811 247.261 298.961 247.231C299.311 247.139 299.661 247.038 300.011 246.964C300.674 246.817 301.337 246.697 302.001 246.577C303.382 246.329 304.764 246.144 306.146 245.85C306.229 245.85 306.266 245.96 306.146 245.979C304.764 246.329 303.382 246.762 302.028 247.102L300.831 247.388C303.53 247.462 306.22 247.6 308.919 247.775C308.936 247.775 308.952 247.782 308.964 247.794C308.976 247.806 308.983 247.822 308.983 247.839C308.983 247.856 308.976 247.873 308.964 247.885C308.952 247.897 308.936 247.904 308.919 247.904C305.234 247.784 301.549 247.858 297.911 248.014C294.272 248.171 290.652 248.346 287.023 248.659C279.653 249.267 272.376 250.124 265.08 251.082C260.99 251.625 236.22 255.909 232.103 256.194H232.047C232.022 256.292 231.988 256.388 231.946 256.48L231.614 257.152C231.504 257.364 231.393 257.576 231.264 257.788L231.071 258.092L230.97 258.239C230.97 258.285 230.877 258.35 230.868 258.396C230.859 258.442 230.795 258.359 230.841 258.276Z" fill="#263238"/>
<path d="M219.525 290.047C220.787 287.91 221.847 285.644 222.989 283.443L226.434 276.829C228.737 272.435 237.018 257.631 237.847 256.563C237.893 256.498 238.013 256.563 237.985 256.646C237.608 257.788 232.458 267.571 231.27 269.754C228.894 274.12 226.388 278.413 223.901 282.724C223.201 283.958 222.464 285.174 221.755 286.409C221.045 287.643 220.281 288.841 219.627 290.093C219.628 290.105 219.626 290.116 219.621 290.126C219.617 290.137 219.609 290.146 219.6 290.152C219.591 290.159 219.58 290.163 219.569 290.164C219.558 290.165 219.546 290.163 219.536 290.159C219.526 290.154 219.517 290.147 219.51 290.137C219.503 290.128 219.499 290.117 219.498 290.106C219.497 290.095 219.499 290.083 219.504 290.073C219.509 290.063 219.516 290.054 219.525 290.047Z" fill="#263238"/>
<path d="M300.645 145.028L295.569 172.507C295.329 173.317 295.772 173.944 296.555 173.888L310.51 172.967C310.934 172.906 311.331 172.726 311.657 172.449C311.983 172.172 312.224 171.809 312.353 171.401L317.428 143.923C317.668 143.112 317.226 142.495 316.443 142.541L302.496 143.462C302.072 143.523 301.673 143.703 301.345 143.979C301.018 144.256 300.775 144.62 300.645 145.028Z" fill="#37474F"/>
<path d="M302.305 144.908L297.229 172.387C296.99 173.197 297.432 173.824 298.206 173.768L312.161 172.847C312.585 172.787 312.983 172.608 313.309 172.33C313.635 172.053 313.876 171.69 314.004 171.281L319.088 143.803C319.328 142.992 318.886 142.366 318.103 142.421L304.147 143.342C303.724 143.405 303.328 143.585 303.002 143.862C302.676 144.138 302.435 144.501 302.305 144.908Z" fill="#455A64"/>
<path d="M306.209 145.894C306.22 146.129 306.161 146.362 306.039 146.564C305.917 146.765 305.738 146.926 305.525 147.025C305.312 147.125 305.074 147.159 304.841 147.123C304.609 147.087 304.392 146.983 304.219 146.824C304.045 146.665 303.923 146.458 303.868 146.229C303.812 146 303.826 145.76 303.907 145.54C303.988 145.319 304.132 145.127 304.323 144.988C304.513 144.85 304.74 144.771 304.975 144.761C305.289 144.749 305.595 144.861 305.826 145.073C306.057 145.285 306.195 145.581 306.209 145.894Z" fill="#263238"/>
<path d="M258.291 188.866C267.125 205.254 286.074 226.128 293.425 225.814C296.916 225.667 303.198 226.155 307.555 221.89C317.071 212.586 324.505 195.37 325.684 185.688C326.098 182.252 309.103 175.777 306.809 178.688C301.43 185.513 295.47 198.64 294.447 198.622C290.67 198.539 275.305 187.116 264.574 179.074C251.548 169.301 254.773 182.335 258.291 188.866Z" fill="#EB9481"/>
<path d="M325.114 168.048C322.977 161.222 321.383 159.758 322.636 153.079C323.456 148.667 320.996 146.253 318.104 149.91C313.378 155.898 314.29 165.285 315.543 168.453L325.114 168.048Z" fill="#EB9481"/>
<path d="M325.037 188.71C325.037 188.71 327.589 178.89 326.032 171.392C324.954 166.206 321.352 155.18 306.383 150.086C302.828 148.879 296.914 149.68 301.999 153.77C305.61 156.672 308.769 157.455 310.566 159.491C310.566 159.491 303.196 161.388 302.091 165.018C301.152 168.162 300.441 171.37 299.963 174.616C300.537 174.839 301.124 175.023 301.722 175.169C301.722 175.169 300.801 178.577 303.565 183.183L325.037 188.71Z" fill="#EB9481"/>
<path d="M324.208 166.602C321.997 164.926 317.244 161.453 312.371 159.96C306.955 158.312 296.085 156.58 294.869 160.587C294.003 163.535 298.093 164.557 298.093 164.557C298.093 164.557 293.487 164.787 293.248 167.615C293.064 170.195 296.279 170.793 296.279 170.793C296.279 170.793 293.515 171.42 293.791 173.935C294.151 176.956 299.945 175.15 303.003 177.896C303.675 178.513 324.208 166.602 324.208 166.602Z" fill="#EB9481"/>
<path d="M311.579 165.976C307.386 164.138 302.735 163.618 298.24 164.483C298.13 164.483 298.093 164.612 298.194 164.603C302.701 164.537 307.198 165.02 311.588 166.04L311.579 165.976Z" fill="#263238"/>
<path d="M309.748 171.392C307.62 170.535 301.338 169.329 296.327 170.692C296.207 170.692 296.18 170.821 296.327 170.812C300.82 170.514 305.332 170.727 309.776 171.447L309.748 171.392Z" fill="#263238"/>
<path d="M326.225 192.708C326.225 192.708 314.093 220.297 306.365 223.834C298.636 227.371 293.864 226.947 290.907 226.662C289.758 226.458 288.667 226.006 287.711 225.335C279.421 220.085 264.074 200.75 257.663 189.76C252.854 181.47 252.919 173.778 259.634 175.897C261.913 176.726 264.039 177.927 265.925 179.452C278.582 188.931 293.164 197.82 293.818 197.433C294.472 197.046 300.819 185.642 300.819 185.642L326.225 192.708Z" fill="#F66D1D"/>
<path d="M294.926 203.172C294.84 203.783 294.84 204.404 294.926 205.015C295.016 205.653 295.202 206.274 295.478 206.857C295.569 206.246 295.569 205.625 295.478 205.015C295.388 204.376 295.202 203.755 294.926 203.172Z" fill="white"/>
<path d="M310.762 210.035C310.676 210.646 310.676 211.266 310.762 211.877C310.846 212.493 311.014 213.094 311.259 213.665C311.35 213.054 311.35 212.433 311.259 211.822C311.182 211.205 311.015 210.603 310.762 210.035Z" fill="white"/>
<path d="M282.85 216.695C282.764 217.306 282.764 217.926 282.85 218.537C282.925 219.154 283.093 219.757 283.347 220.324C283.433 219.713 283.433 219.093 283.347 218.482C283.261 217.867 283.094 217.266 282.85 216.695Z" fill="white"/>
<path d="M275.211 189.594C275.055 190.846 275.233 192.118 275.727 193.279C275.813 192.668 275.813 192.048 275.727 191.437C275.641 190.801 275.468 190.181 275.211 189.594Z" fill="white"/>
<path d="M272.707 200.694C273.318 200.78 273.938 200.78 274.549 200.694C275.167 200.618 275.769 200.451 276.336 200.197C275.725 200.111 275.105 200.111 274.494 200.197C273.879 200.282 273.278 200.45 272.707 200.694Z" fill="white"/>
<path d="M305.02 203.909C305.631 203.995 306.251 203.995 306.862 203.909C307.477 203.825 308.078 203.657 308.649 203.412C308.038 203.32 307.417 203.32 306.807 203.412C306.19 203.489 305.587 203.656 305.02 203.909Z" fill="white"/>
<path d="M288.608 213.6C289.219 213.686 289.839 213.686 290.45 213.6C291.067 213.524 291.67 213.356 292.237 213.102C290.984 212.954 289.714 213.135 288.553 213.628L288.608 213.6Z" fill="white"/>
<path d="M319.825 194.393C320.436 194.479 321.056 194.479 321.667 194.393C322.284 194.318 322.887 194.15 323.454 193.896C322.201 193.748 320.931 193.929 319.77 194.421L319.825 194.393Z" fill="white"/>
<path d="M303.834 222.636C304.445 222.722 305.065 222.722 305.676 222.636C306.293 222.56 306.896 222.393 307.463 222.139C306.853 222.047 306.232 222.047 305.621 222.139C305.004 222.216 304.402 222.383 303.834 222.636Z" fill="white"/>
<path d="M256.336 176.809C255.828 177.033 255.292 177.188 254.742 177.269C254.82 177.092 254.919 176.925 255.037 176.772C255.47 176.729 255.906 176.741 256.336 176.809Z" fill="white"/>
<path d="M287.048 196.438C286.557 196.819 286.12 197.266 285.749 197.765C285.367 198.259 285.057 198.805 284.828 199.386C285.812 198.615 286.574 197.598 287.039 196.438H287.048Z" fill="white"/>
<path d="M302.238 211.859C301.744 212.24 301.306 212.69 300.939 213.194C300.559 213.687 300.249 214.229 300.018 214.806C300.511 214.428 300.949 213.981 301.316 213.48C301.698 212.986 302.008 212.44 302.238 211.859Z" fill="white"/>
<path d="M310.872 191.418C310.379 191.797 309.941 192.243 309.574 192.745C309.192 193.239 308.882 193.785 308.652 194.366C309.146 193.985 309.584 193.535 309.951 193.03C310.331 192.538 310.641 191.996 310.872 191.418Z" fill="white"/>
<path d="M277.458 209.933C276.967 210.317 276.53 210.767 276.159 211.269C275.78 211.761 275.47 212.304 275.238 212.881C275.732 212.503 276.169 212.056 276.537 211.554C276.922 211.062 277.233 210.516 277.458 209.933Z" fill="white"/>
<path d="M266.001 183.993C265.508 184.372 265.07 184.818 264.702 185.32C264.317 185.812 264.007 186.358 263.781 186.941C264.765 186.17 265.527 185.153 265.992 183.993H266.001Z" fill="white"/>
<path d="M265.293 196.724C264.912 196.23 264.462 195.793 263.958 195.425C263.468 195.042 262.925 194.732 262.346 194.504C262.719 195.002 263.166 195.44 263.672 195.803C264.165 196.188 264.711 196.498 265.293 196.724Z" fill="white"/>
<path d="M318.969 202.748C318.588 202.257 318.142 201.82 317.643 201.449C317.148 201.068 316.603 200.757 316.021 200.528C316.402 201.02 316.849 201.457 317.348 201.827C317.842 202.209 318.388 202.519 318.969 202.748Z" fill="white"/>
<path d="M302.45 197.783C302.069 197.292 301.623 196.855 301.123 196.484C300.631 196.099 300.085 195.789 299.502 195.563C300.273 196.547 301.29 197.309 302.45 197.774V197.783Z" fill="white"/>
<path d="M284.258 207.971C283.882 207.475 283.435 207.038 282.932 206.672C282.442 206.284 281.895 205.973 281.311 205.751C281.695 206.243 282.144 206.68 282.646 207.05C283.139 207.43 283.681 207.74 284.258 207.971Z" fill="white"/>
<path d="M295.202 223.161C294.823 222.668 294.377 222.23 293.875 221.863C293.381 221.481 292.835 221.171 292.254 220.941C292.636 221.435 293.085 221.873 293.59 222.24C294.082 222.62 294.624 222.93 295.202 223.161Z" fill="white"/>
<path d="M287.711 225.335C279.421 220.085 264.074 200.75 257.663 189.76C252.854 181.47 252.919 173.778 259.634 175.897C263.365 182.391 279.651 210.799 287.711 225.335Z" fill="#263238"/>
<path d="M323.113 197.783C322.192 197.332 313.478 194.476 311.571 193.896C309.664 193.316 301.908 190.884 299.89 190.451C299.882 190.448 299.873 190.446 299.864 190.447C299.855 190.447 299.846 190.45 299.838 190.453C299.83 190.457 299.823 190.463 299.817 190.469C299.811 190.476 299.806 190.484 299.803 190.492C299.8 190.501 299.798 190.51 299.799 190.519C299.799 190.528 299.802 190.536 299.805 190.545C299.809 190.553 299.815 190.56 299.821 190.566C299.828 190.572 299.836 190.577 299.844 190.58C301.742 191.381 309.563 193.868 311.497 194.495C313.431 195.121 322.1 197.756 323.085 197.912C323.187 197.921 323.196 197.811 323.113 197.783Z" fill="#263238"/>
<path d="M278.944 243.547C278.069 244.468 221.721 246.31 221.436 245.96C220.653 245.039 227.589 209.169 233.356 195.444C240.725 177.849 244.962 176.228 247.486 175.178C250.701 173.815 256.587 174.073 258.015 174.653C259.636 175.298 266.711 183.082 268.867 189.392C273.196 202.085 279.709 242.709 278.944 243.547Z" fill="#F66D1D"/>
<path d="M254.126 185.246C253.978 186.499 254.159 187.769 254.651 188.931C254.738 188.32 254.738 187.699 254.651 187.088C254.571 186.451 254.394 185.83 254.126 185.246Z" fill="white"/>
<path d="M254.606 212.144C254.45 213.397 254.628 214.668 255.121 215.829C255.207 215.218 255.207 214.598 255.121 213.987C255.036 213.352 254.862 212.731 254.606 212.144Z" fill="white"/>
<path d="M222.57 240.277C222.425 241.53 222.606 242.799 223.095 243.961C223.181 243.35 223.181 242.73 223.095 242.119C223.014 241.482 222.837 240.861 222.57 240.277Z" fill="white"/>
<path d="M245.653 241.391C245.566 242.002 245.566 242.622 245.653 243.233C245.736 243.853 245.907 244.458 246.16 245.03C246.246 244.419 246.246 243.798 246.16 243.187C246.082 242.567 245.911 241.961 245.653 241.391Z" fill="white"/>
<path d="M264.656 228.965C264.57 229.576 264.57 230.196 264.656 230.807C264.732 231.424 264.9 232.027 265.154 232.594C265.24 231.983 265.24 231.363 265.154 230.752C265.072 230.136 264.905 229.534 264.656 228.965Z" fill="white"/>
<path d="M237.559 201.33C237.473 201.941 237.473 202.561 237.559 203.172C237.634 203.789 237.802 204.392 238.056 204.959C238.147 204.349 238.147 203.728 238.056 203.117C237.979 202.5 237.812 201.898 237.559 201.33Z" fill="white"/>
<path d="M234.828 225.022C234.742 225.633 234.742 226.254 234.828 226.865C234.913 227.48 235.08 228.081 235.326 228.652C235.483 227.399 235.305 226.128 234.81 224.967L234.828 225.022Z" fill="white"/>
<path d="M268.682 206.249C268.596 206.86 268.596 207.48 268.682 208.091C268.766 208.706 268.933 209.308 269.179 209.878C269.27 209.267 269.27 208.647 269.179 208.036C269.102 207.419 268.935 206.817 268.682 206.249Z" fill="white"/>
<path d="M248.677 196.623C249.288 196.709 249.908 196.709 250.519 196.623C251.139 196.547 251.745 196.379 252.316 196.125C251.062 195.965 249.789 196.146 248.631 196.65L248.677 196.623Z" fill="white"/>
<path d="M235.088 214.365C236.341 214.513 237.611 214.332 238.773 213.84C238.162 213.753 237.541 213.753 236.93 213.84C236.293 213.92 235.672 214.097 235.088 214.365Z" fill="white"/>
<path d="M256.598 224.423C257.209 224.509 257.829 224.509 258.44 224.423C259.056 224.343 259.658 224.176 260.227 223.926C259.616 223.84 258.996 223.84 258.385 223.926C257.769 224.01 257.168 224.178 256.598 224.423Z" fill="white"/>
<path d="M240.631 235.827C241.242 235.913 241.862 235.913 242.473 235.827C243.089 235.743 243.69 235.576 244.26 235.33C243.649 235.244 243.029 235.244 242.418 235.33C241.803 235.416 241.202 235.583 240.631 235.827Z" fill="white"/>
<path d="M272.111 235.514C272.722 235.6 273.343 235.6 273.954 235.514C274.571 235.439 275.173 235.271 275.741 235.017C275.13 234.926 274.509 234.926 273.898 235.017C273.281 235.094 272.679 235.261 272.111 235.514Z" fill="white"/>
<path d="M252.689 177.325C253.301 177.411 253.921 177.411 254.532 177.325C255.15 177.24 255.754 177.073 256.328 176.827C255.717 176.741 255.097 176.741 254.486 176.827C253.866 176.906 253.261 177.074 252.689 177.325Z" fill="white"/>
<path d="M247.026 182.068C246.527 182.448 246.087 182.898 245.718 183.404C245.336 183.895 245.026 184.438 244.797 185.016C245.293 184.64 245.73 184.193 246.096 183.69C246.481 183.196 246.794 182.65 247.026 182.068Z" fill="white"/>
<path d="M260.163 202.177C259.181 202.951 258.416 203.967 257.943 205.125C258.442 204.748 258.88 204.298 259.242 203.789C259.625 203.299 259.936 202.756 260.163 202.177Z" fill="white"/>
<path d="M273.214 222.369C272.722 222.753 272.285 223.203 271.915 223.705C271.533 224.199 271.223 224.745 270.994 225.326C271.488 224.945 271.925 224.495 272.293 223.99C272.678 223.498 272.989 222.952 273.214 222.369Z" fill="white"/>
<path d="M258.699 237.725C258.205 238.103 257.767 238.55 257.4 239.052C257.015 239.544 256.704 240.09 256.479 240.673C256.977 240.299 257.415 239.852 257.777 239.346C258.162 238.854 258.473 238.308 258.699 237.725Z" fill="white"/>
<path d="M228.64 232.935C228.144 233.314 227.706 233.764 227.341 234.271C226.958 234.761 226.648 235.304 226.42 235.883C226.918 235.509 227.356 235.062 227.719 234.556C228.104 234.064 228.414 233.518 228.64 232.935Z" fill="white"/>
<path d="M245.909 218.685C245.418 219.065 244.981 219.512 244.611 220.011C244.229 220.505 243.919 221.051 243.689 221.632C244.181 221.252 244.618 220.805 244.988 220.306C245.372 219.812 245.682 219.266 245.909 218.685Z" fill="white"/>
<path d="M266.001 183.993C265.508 184.372 265.07 184.818 264.702 185.32C264.317 185.812 264.007 186.358 263.781 186.941C264.765 186.17 265.527 185.153 265.992 183.993H266.001Z" fill="white"/>
<path d="M265.293 196.724C264.912 196.23 264.462 195.793 263.958 195.425C263.468 195.042 262.925 194.732 262.346 194.504C262.719 195.002 263.166 195.44 263.672 195.803C264.165 196.188 264.711 196.498 265.293 196.724Z" fill="white"/>
<path d="M228.292 218.519C227.738 218.304 227.217 218.013 226.744 217.653L226.855 217.146L226.956 217.22C227.46 217.588 227.91 218.025 228.292 218.519Z" fill="white"/>
<path d="M267.182 218.086C266.804 217.592 266.357 217.155 265.856 216.787C265.361 216.405 264.815 216.095 264.234 215.866C264.616 216.36 265.066 216.797 265.57 217.165C266.062 217.544 266.605 217.854 267.182 218.086Z" fill="white"/>
<path d="M269.334 244.321C268.95 243.829 268.5 243.392 267.998 243.022C267.506 242.637 266.96 242.326 266.377 242.101C266.761 242.592 267.21 243.029 267.713 243.399C268.207 243.781 268.753 244.091 269.334 244.321Z" fill="white"/>
<path d="M240.63 192.524C240.248 192.019 239.795 191.572 239.285 191.197C238.793 190.812 238.247 190.502 237.664 190.276C238.04 190.772 238.487 191.209 238.991 191.575C239.488 191.969 240.041 192.289 240.63 192.524Z" fill="white"/>
<path d="M251.975 230.807C251.593 230.313 251.144 229.876 250.639 229.508C250.147 229.128 249.605 228.818 249.027 228.587C249.403 229.08 249.846 229.517 250.345 229.886C250.842 230.268 251.391 230.579 251.975 230.807Z" fill="white"/>
<path d="M235.512 243.215C235.134 242.721 234.687 242.284 234.186 241.916C233.693 241.531 233.147 241.221 232.564 240.995C232.94 241.491 233.387 241.929 233.891 242.294C234.385 242.677 234.931 242.987 235.512 243.215Z" fill="white"/>
<path d="M248.6 207.253C248.219 206.761 247.773 206.324 247.274 205.954C246.781 205.569 246.235 205.258 245.652 205.033C246.033 205.524 246.479 205.961 246.979 206.332C247.473 206.713 248.019 207.024 248.6 207.253Z" fill="white"/>
<path d="M238.19 179.996C214.065 198.493 193.293 224.036 195.384 232.041C197.594 240.498 214.489 249.838 229.338 251.635C232.378 252.003 241.571 229.637 238.448 228.605C236.016 227.832 224.962 224.801 223.627 223.3C222.705 222.259 239.581 198.023 245.025 185.403C250.727 172.239 244.648 175.049 238.19 179.996Z" fill="#EB9481"/>
<path d="M232.175 228.044C232.175 228.044 241.46 228.882 247.503 229.72C250.874 230.19 256.585 231.508 258.907 232.981C262.37 235.192 275.488 246.651 272.77 249.885C270.32 252.814 266.534 248.245 266.534 248.245C266.534 248.245 271.14 252.851 267.814 255.006C264.489 257.162 260.104 250.76 260.104 250.76C260.104 250.76 265.336 255.301 261.569 257.273C258.29 258.977 252.477 252.123 252.477 252.123C252.477 252.123 258.492 256.287 255.305 258.369C251.795 260.662 241.782 251.478 241.782 251.478C233.851 252.4 228.96 251.948 223.359 250.428C222.327 250.152 232.175 228.044 232.175 228.044Z" fill="#EB9481"/>
<path d="M261.517 252.279C261.158 251.791 260.78 251.312 260.412 250.824C259.724 249.854 258.973 248.931 258.164 248.061C257.372 247.213 256.543 246.412 255.677 245.638C254.811 244.864 253.779 244.081 252.913 243.234C252.907 243.228 252.899 243.223 252.89 243.22C252.882 243.217 252.873 243.215 252.864 243.216C252.855 243.216 252.846 243.219 252.838 243.222C252.83 243.226 252.823 243.232 252.817 243.238C252.811 243.245 252.806 243.253 252.803 243.261C252.8 243.27 252.798 243.279 252.799 243.288C252.799 243.297 252.802 243.305 252.805 243.313C252.809 243.322 252.815 243.329 252.821 243.335C253.708 244.16 254.544 245.036 255.327 245.96C256.128 246.835 256.911 247.72 257.703 248.604C258.496 249.488 259.297 250.271 260.089 251.119C260.485 251.533 260.863 251.975 261.241 252.408C261.572 252.846 261.938 253.256 262.337 253.634C262.383 253.634 262.429 253.634 262.411 253.569C262.158 253.109 261.859 252.677 261.517 252.279Z" fill="#263238"/>
<path d="M267.474 249.23C266.245 247.401 264.891 245.659 263.421 244.017C261.925 242.386 260.271 240.908 258.484 239.604C258.477 239.598 258.469 239.594 258.461 239.59C258.452 239.587 258.443 239.586 258.434 239.587C258.425 239.587 258.417 239.589 258.408 239.593C258.4 239.597 258.393 239.602 258.387 239.609C258.381 239.615 258.376 239.623 258.373 239.632C258.37 239.64 258.369 239.649 258.369 239.658C258.37 239.667 258.372 239.676 258.376 239.684C258.379 239.692 258.385 239.7 258.392 239.706C259.884 241.336 261.404 242.948 262.914 244.569C263.651 245.352 266.903 249.046 267.299 249.387C267.391 249.442 267.52 249.304 267.474 249.23Z" fill="#263238"/>
<path d="M255.988 255.31C254.797 253.614 253.495 251.999 252.092 250.474C250.515 249.052 248.837 247.747 247.071 246.568C247.007 246.568 246.924 246.624 246.979 246.67C248.545 248.098 250.139 249.488 251.585 250.981C252.322 251.718 255.058 254.794 255.813 255.43C255.829 255.453 255.853 255.469 255.881 255.474C255.909 255.48 255.937 255.474 255.96 255.458C255.984 255.442 256 255.417 256.005 255.39C256.01 255.362 256.004 255.333 255.988 255.31Z" fill="#263238"/>
<path d="M239.464 227.712L226.475 252.537C226.475 252.537 197.21 244.809 194.686 231.553C192.162 218.298 225.692 187.825 236.037 180.622C246.382 173.418 252.692 172.451 244.53 188.857C236.369 205.263 223.74 222.139 224.771 222.986C225.646 223.696 239.464 227.712 239.464 227.712Z" fill="#F66D1D"/>
<path d="M218.865 209.62C218.779 210.231 218.779 210.851 218.865 211.462C218.942 212.082 219.11 212.688 219.363 213.259C219.449 212.648 219.449 212.028 219.363 211.416C219.277 210.798 219.11 210.194 218.865 209.62Z" fill="white"/>
<path d="M222.57 240.277C222.425 241.53 222.606 242.799 223.095 243.961C223.181 243.35 223.181 242.73 223.095 242.119C223.014 241.482 222.837 240.861 222.57 240.277Z" fill="white"/>
<path d="M207.463 225.335C207.377 225.947 207.377 226.567 207.463 227.178C207.543 227.795 207.713 228.397 207.97 228.965C208.06 228.354 208.06 227.733 207.97 227.123C207.889 226.505 207.718 225.903 207.463 225.335Z" fill="white"/>
<path d="M237.592 201.431L237.537 201.524C237.532 201.462 237.532 201.401 237.537 201.339C237.559 201.367 237.578 201.398 237.592 201.431Z" fill="white"/>
<path d="M230.576 185.117C230.427 186.37 230.608 187.64 231.101 188.802C231.187 188.191 231.187 187.571 231.101 186.96C231.022 186.322 230.844 185.701 230.576 185.117Z" fill="white"/>
<path d="M235.344 228.67C235.098 228.099 234.931 227.498 234.846 226.883C234.846 226.699 234.828 226.514 234.791 226.33L235.261 226.468C235.261 226.579 235.307 226.699 235.325 226.809C235.419 227.425 235.425 228.052 235.344 228.67Z" fill="white"/>
<path d="M237.168 179.922C237.779 180.009 238.399 180.009 239.01 179.922C239.644 179.841 240.264 179.674 240.853 179.424C239.6 179.267 238.329 179.445 237.168 179.94V179.922Z" fill="white"/>
<path d="M206.709 211.352C207.32 211.438 207.94 211.438 208.551 211.352C209.168 211.276 209.771 211.108 210.338 210.855C209.727 210.769 209.107 210.769 208.496 210.855C207.881 210.939 207.28 211.106 206.709 211.352Z" fill="white"/>
<path d="M219.584 227.122C220.195 227.209 220.815 227.209 221.426 227.122C222.046 227.047 222.652 226.879 223.223 226.625C222.611 226.539 221.991 226.539 221.38 226.625C220.762 226.709 220.157 226.876 219.584 227.122Z" fill="white"/>
<path d="M211.941 245.251C212.552 245.338 213.172 245.338 213.783 245.251C214.403 245.175 215.008 245.007 215.579 244.753C214.326 244.605 213.056 244.786 211.895 245.278L211.941 245.251Z" fill="white"/>
<path d="M197.963 232.649C198.575 232.735 199.195 232.735 199.806 232.649C200.423 232.573 201.025 232.406 201.593 232.152C200.34 232.004 199.07 232.185 197.908 232.677L197.963 232.649Z" fill="white"/>
<path d="M224.991 195.407C225.602 195.493 226.223 195.493 226.834 195.407C227.454 195.331 228.059 195.163 228.63 194.909C227.377 194.761 226.107 194.942 224.945 195.434L224.991 195.407Z" fill="white"/>
<path d="M247.026 182.068C246.527 182.448 246.087 182.898 245.718 183.404C245.336 183.895 245.026 184.438 244.797 185.016C245.293 184.64 245.73 184.193 246.096 183.69C246.481 183.196 246.794 182.65 247.026 182.068Z" fill="white"/>
<path d="M228.64 203.513C228.144 203.892 227.706 204.342 227.341 204.849C226.958 205.339 226.648 205.882 226.42 206.461C226.918 206.088 227.356 205.64 227.719 205.134C228.104 204.642 228.414 204.096 228.64 203.513Z" fill="white"/>
<path d="M228.64 232.935C228.144 233.314 227.706 233.764 227.341 234.271C226.958 234.761 226.648 235.304 226.42 235.883C226.918 235.509 227.356 235.062 227.719 234.556C228.104 234.064 228.414 233.518 228.64 232.935Z" fill="white"/>
<path d="M209.468 236.905C208.486 237.679 207.721 238.695 207.248 239.853C207.746 239.476 208.184 239.026 208.547 238.517C208.93 238.027 209.24 237.484 209.468 236.905Z" fill="white"/>
<path d="M214.148 218.086C213.656 218.466 213.219 218.913 212.849 219.412C212.466 219.906 212.155 220.452 211.928 221.033C212.421 220.655 212.859 220.208 213.227 219.707C213.608 219.213 213.919 218.667 214.148 218.086Z" fill="white"/>
<path d="M227.525 248.42C226.547 249.196 225.786 250.211 225.314 251.368C226.298 250.597 227.06 249.58 227.525 248.42Z" fill="white"/>
<path d="M227.468 217.644L227.256 217.994C227.053 217.874 226.86 217.736 226.666 217.598C226.165 217.23 225.718 216.792 225.34 216.299C225.917 216.53 226.46 216.84 226.952 217.22C227.127 217.358 227.311 217.496 227.468 217.644Z" fill="white"/>
<path d="M202.147 222.139C201.766 221.647 201.32 221.21 200.82 220.84C200.326 220.458 199.78 220.148 199.199 219.919C199.578 220.412 200.024 220.85 200.526 221.218C201.02 221.599 201.566 221.91 202.147 222.139Z" fill="white"/>
<path d="M218.1 236.039C217.722 235.546 217.275 235.108 216.774 234.741C216.279 234.359 215.733 234.049 215.152 233.819C215.534 234.313 215.984 234.751 216.488 235.118C216.98 235.498 217.523 235.808 218.1 236.039Z" fill="white"/>
<path d="M240.63 192.524C240.248 192.019 239.795 191.572 239.285 191.197C238.793 190.812 238.247 190.502 237.664 190.276C238.04 190.772 238.487 191.209 238.991 191.575C239.488 191.969 240.041 192.289 240.63 192.524Z" fill="white"/>
<path d="M218.772 202.749C217.996 201.771 216.981 201.009 215.824 200.538C216.203 201.032 216.649 201.469 217.151 201.837C217.646 202.216 218.191 202.523 218.772 202.749Z" fill="white"/>
<path d="M222.331 249.092C222.948 248.272 227.434 240.286 228.373 238.527C229.313 236.767 233.219 229.628 234.029 227.74C234.033 227.724 234.032 227.708 234.026 227.694C234.02 227.679 234.01 227.667 233.997 227.659C233.983 227.651 233.968 227.647 233.952 227.648C233.936 227.649 233.921 227.656 233.91 227.666C232.758 229.37 228.797 236.564 227.802 238.333C226.807 240.102 222.552 248.097 222.202 249.037C222.174 249.12 222.285 249.148 222.331 249.092Z" fill="#263238"/>
<path d="M239.618 227.629L239.01 228.642C239.01 228.642 238.927 228.753 239.01 228.642C239.093 228.532 239.424 227.777 239.424 227.777C235.463 226.855 231.521 225.87 227.624 224.663C227.136 224.506 226.648 224.35 226.159 224.166C225.636 223.989 225.135 223.751 224.667 223.456C224.628 223.426 224.591 223.392 224.557 223.355C224.499 223.286 224.452 223.208 224.418 223.125C224.384 222.982 224.384 222.834 224.418 222.692C224.464 222.563 224.52 222.415 224.575 222.296C224.63 222.176 224.796 221.817 224.907 221.586C225.137 221.126 225.386 220.665 225.625 220.223C226.602 218.381 227.615 216.649 228.656 214.889C230.765 211.389 232.865 207.889 235.049 204.453C237.112 201.192 239.258 197.507 241.423 194.32C241.552 194.126 241.884 193.951 241.488 194.651C239.498 198.216 237.702 201.293 235.647 204.784L229.439 215.322C228.407 217.082 227.357 218.823 226.371 220.601C226.123 221.043 225.874 221.522 225.644 221.936C225.524 222.157 225.422 222.379 225.312 222.6L225.22 222.848L225.155 222.802C225.161 222.823 225.161 222.846 225.155 222.867C225.155 222.867 225.155 222.95 225.155 222.922V222.858C225.54 223.075 225.94 223.263 226.353 223.419L227.771 223.945C229.678 224.635 231.622 225.253 233.575 225.851L239.618 227.629Z" fill="#263238"/>
<path d="M225.223 222.858V222.922C225.223 222.922 225.223 222.876 225.223 222.867C225.228 222.846 225.228 222.823 225.223 222.802V222.858Z" fill="#263238"/>
<path d="M240.88 198.934C241.157 198.723 241.129 198.934 241 199.054C240.291 199.975 239.204 200.943 238.411 201.753C237.483 202.717 236.492 203.618 235.445 204.452C236.262 203.391 237.145 202.381 238.089 201.431C238.96 200.534 239.893 199.7 240.88 198.934Z" fill="#263238"/>
<path d="M256.789 184.417C253.62 185.338 247.909 180.733 245.56 176.836C245.394 176.569 245.679 173.686 245.854 170.167C245.956 168.039 246.02 165.653 245.919 163.479C245.919 163.037 259.736 166.16 259.736 166.16C259.085 168.918 258.776 171.746 258.815 174.579C258.831 174.889 258.874 175.198 258.944 175.5C258.944 175.5 258.944 175.592 258.944 175.648C259.313 177.297 259.847 183.542 256.789 184.417Z" fill="#EB9481"/>
<path d="M246.768 163.498C247.569 167.182 250.277 175.924 257.564 175.749C258.03 175.744 258.496 175.697 258.955 175.611C258.961 175.562 258.961 175.512 258.955 175.464C258.887 175.16 258.841 174.852 258.816 174.542C258.78 171.709 259.089 168.881 259.738 166.123C259.738 166.123 249.752 163.903 246.768 163.498Z" fill="#263238"/>
<path d="M262.932 141.721C262.932 141.721 267.372 143.564 268.191 148.059C269.011 152.554 267.989 157.271 267.602 157.519C267.215 157.768 262.932 141.721 262.932 141.721Z" fill="#263238"/>
<path d="M244.261 147.414C242.971 152.305 246.103 166.187 249.613 169.172C254.781 173.501 262.961 173.621 266.572 167.477C270.072 161.526 265.733 143.527 261.782 140.818C255.96 136.848 246.168 140.183 244.261 147.414Z" fill="#EB9481"/>
<path d="M258.478 156.552C258.478 156.552 258.414 156.616 258.423 156.653C258.663 157.574 258.773 158.689 257.99 159.177C257.99 159.177 257.99 159.242 257.99 159.233C259.013 158.864 258.847 157.399 258.478 156.552Z" fill="#263238"/>
<path d="M257.426 155.76C255.897 155.972 256.441 159.021 257.859 158.818C259.278 158.616 258.716 155.585 257.426 155.76Z" fill="#263238"/>
<path d="M263.763 155.649C263.763 155.649 263.846 155.649 263.846 155.723C263.984 156.644 264.306 157.731 265.209 157.897V157.952C264.159 158.035 263.735 156.57 263.763 155.649Z" fill="#263238"/>
<path d="M264.426 154.516C265.927 154.129 266.581 157.151 265.2 157.51C263.818 157.869 263.173 154.839 264.426 154.516Z" fill="#263238"/>
<path d="M255.599 153.595C256.006 153.48 256.406 153.342 256.797 153.181C257.241 153.093 257.642 152.859 257.939 152.517C258.009 152.392 258.037 152.247 258.019 152.105C258 151.962 257.937 151.829 257.838 151.725C257.604 151.553 257.329 151.446 257.041 151.417C256.752 151.388 256.461 151.437 256.198 151.559C255.629 151.717 255.139 152.082 254.825 152.582C254.762 152.7 254.734 152.835 254.744 152.969C254.755 153.103 254.804 153.231 254.886 153.338C254.967 153.445 255.078 153.526 255.205 153.571C255.331 153.617 255.468 153.625 255.599 153.595Z" fill="#263238"/>
<path d="M265.429 152.047C265.007 152.036 264.586 152.003 264.167 151.946C263.716 151.973 263.269 151.85 262.896 151.596C262.794 151.494 262.729 151.36 262.71 151.217C262.692 151.074 262.722 150.928 262.795 150.804C262.976 150.579 263.214 150.406 263.485 150.304C263.755 150.202 264.048 150.174 264.333 150.223C264.925 150.238 265.491 150.467 265.927 150.868C266.019 150.967 266.081 151.091 266.105 151.224C266.129 151.357 266.114 151.495 266.061 151.619C266.009 151.744 265.921 151.851 265.809 151.927C265.696 152.003 265.565 152.045 265.429 152.047Z" fill="#263238"/>
<path d="M258.446 165.598C258.694 165.841 259.021 165.988 259.367 166.012C259.717 165.938 260.048 165.798 260.344 165.598C260.344 165.598 260.408 165.598 260.39 165.598C260.289 165.808 260.132 165.986 259.938 166.114C259.743 166.242 259.517 166.315 259.284 166.325C259.077 166.315 258.878 166.241 258.713 166.114C258.549 165.988 258.427 165.814 258.363 165.616C258.363 165.616 258.409 165.57 258.446 165.598Z" fill="#263238"/>
<path d="M258.947 162.641C259.251 162.973 259.621 163.238 260.034 163.419C260.446 163.6 260.892 163.692 261.342 163.691C261.734 163.697 262.125 163.647 262.503 163.544L262.724 163.479L262.927 163.415C262.974 163.394 263.014 163.358 263.04 163.314C263.066 163.269 263.078 163.218 263.074 163.166C263.077 163.135 263.077 163.104 263.074 163.074V162.991C262.973 162.263 262.705 161.149 262.705 161.149C262.991 161.241 264.456 161.609 264.364 161.231C263.702 157.958 262.708 154.76 261.397 151.688C261.386 151.673 261.37 151.661 261.351 151.656C261.333 151.65 261.313 151.65 261.295 151.656C261.276 151.662 261.26 151.674 261.249 151.69C261.238 151.705 261.232 151.724 261.232 151.743C261.83 154.756 262.945 157.648 263.599 160.67C263.077 160.529 262.537 160.463 261.996 160.476C261.904 160.522 262.549 162.576 262.567 162.908C261.984 163.073 261.372 163.118 260.771 163.04C260.169 162.963 259.59 162.764 259.067 162.457C258.938 162.457 258.873 162.53 258.947 162.641Z" fill="#263238"/>
<path d="M262.012 163.203C261.706 163.794 261.253 164.295 260.695 164.658C260.384 164.844 260.025 164.931 259.663 164.907C258.88 164.843 258.742 164.152 258.742 163.535C258.764 163.207 258.823 162.882 258.917 162.567C259.853 163.108 260.939 163.331 262.012 163.203Z" fill="#263238"/>
<path d="M260.695 164.658C260.384 164.844 260.025 164.931 259.663 164.907C258.88 164.842 258.742 164.151 258.742 163.534C259.146 163.479 259.557 163.559 259.91 163.763C260.264 163.966 260.54 164.281 260.695 164.658Z" fill="#FF98B9"/>
<path d="M246.085 160.577C247.725 160.799 248.738 155.815 248.941 153.936C249.125 152.278 248.803 147.156 248.821 146.806C248.84 146.456 256.347 150.122 260.078 148.326C263.809 146.53 265.844 142.569 265.605 140.957C265.365 139.345 259.82 135.946 255.564 136.434C251.308 136.922 246.509 143.223 246.509 143.223C247.064 142.34 247.55 141.416 247.965 140.459C247.863 140.275 245.321 141.823 245.146 143.84C245.146 143.84 245.275 141.316 245.063 141.307C244.851 141.297 243.082 143.739 243.819 145.231C243.819 145.231 241.728 147.764 241.894 150.122C242.06 152.48 244.169 160.32 246.085 160.577Z" fill="#263238"/>
<path d="M262.723 147.036C261.67 147.862 260.496 148.518 259.241 148.98C257.817 149.344 256.325 149.344 254.902 148.98C253.467 148.684 252.091 148.152 250.83 147.405C249.707 146.76 248.675 145.931 247.514 145.388C247.219 145.249 246.98 145.682 247.183 145.894C249.342 148.066 252.141 149.487 255.169 149.947C256.576 150.162 258.014 150.008 259.344 149.499C260.673 148.991 261.847 148.145 262.75 147.046C262.75 147.046 262.741 147.027 262.723 147.036Z" fill="#263238"/>
<path d="M247.677 158.689C247.677 158.689 244.26 154.36 242.279 155.603C240.299 156.847 243.053 163.258 245.503 164.014C245.812 164.131 246.142 164.186 246.473 164.173C246.803 164.16 247.128 164.081 247.427 163.94C247.727 163.799 247.994 163.599 248.214 163.352C248.435 163.105 248.603 162.816 248.709 162.503L247.677 158.689Z" fill="#EB9481"/>
<path d="M243.111 157.418C243.111 157.418 243.111 157.473 243.111 157.482C244.843 158.072 245.82 159.582 246.538 161.167C246.43 161.004 246.288 160.866 246.121 160.763C245.954 160.66 245.767 160.595 245.573 160.571C245.379 160.547 245.181 160.566 244.995 160.626C244.808 160.686 244.637 160.786 244.493 160.918C244.493 160.918 244.493 161.019 244.548 161.001C244.84 160.891 245.158 160.873 245.46 160.95C245.762 161.028 246.032 161.197 246.234 161.434C246.569 161.831 246.859 162.264 247.1 162.724C247.192 162.871 247.459 162.779 247.395 162.604C247.284 160.412 245.433 157.501 243.111 157.418Z" fill="#263238"/>
<path d="M243.891 177.858C245.401 179.697 247.012 181.45 248.718 183.109C250.284 184.733 252.333 185.806 254.559 186.167C256.723 186.361 258.888 185.918 259.68 183.275C260.242 180.999 260.295 178.628 259.837 176.329C259.833 176.317 259.831 176.303 259.833 176.29C259.835 176.277 259.84 176.265 259.848 176.254C259.855 176.243 259.865 176.234 259.877 176.228C259.889 176.222 259.902 176.219 259.915 176.219C259.928 176.219 259.941 176.222 259.953 176.228C259.965 176.234 259.975 176.243 259.983 176.254C259.99 176.265 259.995 176.277 259.997 176.29C259.999 176.303 259.998 176.317 259.993 176.329C260.491 179.784 261.007 185.145 257.866 186.342C254.347 187.687 250.892 185.872 248.414 183.441C246.68 181.774 245.135 179.92 243.809 177.914C243.836 177.867 243.891 177.821 243.891 177.858Z" fill="#263238"/>
</svg>
