<svg width="241" height="241" viewBox="0 0 241 241" fill="none" xmlns="http://www.w3.org/2000/svg">
<circle cx="121" cy="121" r="120" fill="white"/>
<mask id="mask0" mask-type="alpha" maskUnits="userSpaceOnUse" x="0" y="0" width="241" height="241">
<circle cx="120.5" cy="120.5" r="120.5" fill="white"/>
</mask>
<g mask="url(#mask0)">
<path d="M123.898 150.016C123.898 150.016 44.0684 147.43 44.0684 189.931C44.0684 238.055 59.9303 328.228 123.898 327.291C187.867 326.354 199.598 199.91 200.258 194.287C200.31 194.235 203.642 153.66 123.898 150.016Z" fill="#F66D1D"/>
<path d="M198.399 183.268C198.302 183.37 198.191 183.458 198.07 183.529L197.046 184.206C196.161 184.813 194.807 185.629 193.054 186.635C188.02 189.416 182.746 191.739 177.296 193.577C169.213 196.324 160.877 198.26 152.41 199.356C142.051 200.669 131.613 201.249 121.172 201.091C110.739 201.131 100.311 200.604 89.9345 199.512C81.4197 198.591 73.0903 196.403 65.2219 193.022C59.9413 190.698 55.0483 187.579 50.7136 183.772C49.2211 182.383 48.1104 181.238 47.4163 180.44L46.6353 179.503L46.375 179.173C46.375 179.173 46.4965 179.26 46.7047 179.45L47.5551 180.318C48.284 181.082 49.4294 182.175 51.026 183.494C55.3935 187.188 60.2897 190.206 65.5516 192.449C73.3567 195.739 81.6 197.873 90.0212 198.783C100.372 199.818 110.77 200.322 121.172 200.293C131.577 200.415 141.979 199.835 152.306 198.558C160.732 197.501 169.037 195.636 177.105 192.987C182.541 191.19 187.818 188.943 192.881 186.271C194.616 185.316 196.039 184.535 196.959 183.997L198.017 183.407C198.14 183.349 198.268 183.302 198.399 183.268V183.268Z" fill="#263238"/>
<path d="M150.15 199.302C150.231 199.69 150.272 200.086 150.271 200.482C150.271 201.263 150.271 202.426 150.271 203.953C150.273 208.165 149.831 212.364 148.952 216.483C148.327 219.333 147.414 222.113 146.228 224.779C144.907 227.863 143.154 230.744 141.021 233.334C138.62 236.187 135.736 238.595 132.5 240.449C130.77 241.4 128.951 242.179 127.068 242.775C125.115 243.354 123.099 243.698 121.064 243.799C117.043 243.893 113.071 242.91 109.558 240.953C106.293 239.134 103.416 236.693 101.089 233.768C97.21 228.785 94.6655 222.896 93.6959 216.657C93.02 212.499 92.7526 208.285 92.8976 204.075C92.8976 202.6 93.0365 201.437 93.1059 200.604C93.1147 200.2 93.167 199.799 93.2621 199.406C93.2923 199.805 93.2923 200.205 93.2621 200.604C93.2621 201.472 93.2621 202.617 93.2621 204.075C93.235 208.247 93.5952 212.412 94.3381 216.518C95.3583 222.616 97.9011 228.359 101.731 233.213C104.004 236.037 106.804 238.395 109.974 240.154C113.377 242.024 117.217 242.953 121.098 242.844C123.057 242.751 124.997 242.425 126.878 241.873C128.684 241.296 130.428 240.54 132.084 239.616C135.245 237.815 138.06 235.464 140.397 232.675C142.525 230.17 144.279 227.37 145.603 224.362C146.805 221.75 147.742 219.023 148.397 216.223C149.326 212.153 149.861 208.004 149.994 203.832C149.994 202.426 149.994 201.298 150.08 200.361C150.07 200.007 150.093 199.652 150.15 199.302Z" fill="#263238"/>
<path d="M156.736 255.115L160.415 238.698H192.66C191.515 243.591 189.918 249.301 188.078 255.375L156.736 255.115Z" fill="#FAFAFA"/>
<path d="M84.6071 255.115L80.9454 238.698H48.6836C49.829 243.591 50.8008 249.301 52.623 255.375L84.6071 255.115Z" fill="#FAFAFA"/>
<path opacity="0.4" d="M196.11 179.241C188.388 166.641 167.962 152.064 123.899 150.016C123.899 150.016 74.5257 148.419 53.4402 168.394C51.4421 170.442 49.6409 172.673 48.0603 175.058C46.7761 177.436 64.5296 198.764 121.591 196.942C180.457 195.051 196.11 179.241 196.11 179.241Z" fill="black"/>
<path d="M42.6935 103.959C39.8647 97.6245 38.4937 90.3704 40.4201 83.7063C42.3464 77.0422 48.0733 71.2285 54.9977 70.6211" fill="#263238"/>
<path d="M52.696 71.0193C52.696 71.1408 51.5332 72.0779 49.8845 73.9695C47.7186 76.4042 45.9074 79.1327 44.5047 82.074C43.1904 85.0721 42.0659 88.1499 41.1379 91.2892C40.8476 92.6272 40.4649 93.9435 39.9926 95.2286C39.95 93.8446 40.1257 92.4624 40.5132 91.133C41.27 87.8947 42.3274 84.734 43.6717 81.6922C45.1095 78.667 47.0521 75.9087 49.416 73.5357C50.3301 72.4861 51.4454 71.6304 52.696 71.0193V71.0193Z" fill="#F66D1D"/>
<path d="M202.273 103.959C205.102 97.6245 206.473 90.3704 204.547 83.7063C202.62 77.0422 196.893 71.2285 189.986 70.6211" fill="#263238"/>
<path d="M192.276 71.0193C193.531 71.6234 194.647 72.4801 195.556 73.5357C197.924 75.9047 199.867 78.6639 201.3 81.6922C202.644 84.734 203.702 87.8947 204.458 91.133C204.846 92.4624 205.022 93.8446 204.979 95.2286C204.517 93.9403 204.134 92.6246 203.834 91.2892C202.913 88.1499 201.794 85.072 200.484 82.074C199.07 79.1353 197.253 76.4076 195.087 73.9695C193.438 72.0953 192.189 71.1408 192.276 71.0193Z" fill="#F66D1D"/>
<path d="M49.1026 135.404C45.2623 131.482 42.4413 126.679 40.8863 121.415C39.3312 116.151 39.0896 110.586 40.1825 105.207C44.7987 81.9526 61.7193 40.0939 123.9 40.9963C189.135 41.9161 201.387 87.0722 203.487 108.817C203.926 113.267 203.48 117.76 202.175 122.037C200.871 126.314 198.733 130.29 195.886 133.738C186.185 145.452 165.585 160.585 123.9 160.568C82.6139 160.603 60.4177 146.823 49.1026 135.404Z" fill="#F66D1D"/>
<path d="M94.8281 43.7212C94.9857 43.9631 95.1084 44.226 95.1926 44.5022L96.095 46.7929C96.8759 48.7713 97.9692 51.6521 99.67 55.0362C101.596 59.0181 104.237 62.6123 107.462 65.6398C111.364 69.3969 116.571 71.4935 121.988 71.4882C127.387 71.1647 132.526 69.059 136.6 65.5009C139.918 62.5731 142.701 59.0909 144.826 55.2098C146.287 52.5939 147.591 49.8934 148.731 47.1227C149.118 46.0856 149.564 45.0716 150.067 44.0856C150.046 44.3733 149.976 44.6551 149.859 44.9186C149.685 45.4566 149.425 46.2549 149.061 47.2441C148.034 50.0882 146.805 52.8547 145.381 55.5222C143.298 59.5262 140.505 63.1189 137.138 66.1257C132.946 69.8628 127.612 72.071 122.005 72.3906C119.098 72.462 116.213 71.8685 113.571 70.6552C111.128 69.5443 108.878 68.0504 106.907 66.2298C103.63 63.1099 100.98 59.3932 99.0973 55.2792C97.8112 52.5522 96.6983 49.7468 95.7652 46.8797C95.4181 45.8616 95.1752 45.0806 95.0364 44.5368C94.9415 44.2721 94.8718 43.999 94.8281 43.7212Z" fill="#263238"/>
<path d="M165.099 132.837C134.833 140.23 105.296 140.507 76.5922 133.149C71.3368 131.782 66.6855 128.705 63.3708 124.404C60.0561 120.103 58.2663 114.821 58.2833 109.391V108.974C58.2833 105.747 58.9189 102.552 60.1539 99.5705C61.3888 96.589 63.1989 93.88 65.4808 91.5981C67.7627 89.3162 70.4717 87.5062 73.4531 86.2712C76.4345 85.0363 79.63 84.4006 82.8571 84.4006H159.216C162.443 84.4006 165.639 85.0363 168.62 86.2712C171.602 87.5062 174.311 89.3162 176.593 91.5981C178.874 93.88 180.685 96.589 181.92 99.5705C183.155 102.552 183.79 105.747 183.79 108.974V108.974C183.794 114.47 181.954 119.807 178.566 124.133C175.177 128.46 170.436 131.524 165.099 132.837V132.837Z" fill="#263238"/>
<path d="M98.4206 113.643C98.246 114.731 97.7531 115.742 97.0042 116.549C96.2554 117.356 95.2841 117.923 94.2131 118.179C93.1421 118.434 92.0194 118.367 90.9868 117.984C89.9542 117.602 89.058 116.923 88.4114 116.031C87.7648 115.14 87.3968 114.077 87.3538 112.977C87.3109 111.877 87.595 110.789 88.1702 109.85C88.7454 108.911 89.5859 108.164 90.5856 107.702C91.5853 107.241 92.6993 107.086 93.787 107.257C94.5111 107.371 95.2055 107.627 95.8306 108.01C96.4556 108.393 96.9989 108.895 97.4293 109.489C97.8598 110.082 98.1689 110.754 98.339 111.467C98.5091 112.18 98.5368 112.92 98.4206 113.643Z" fill="white"/>
<path d="M162.25 110.414C162.075 111.501 161.581 112.513 160.831 113.32C160.081 114.127 159.109 114.693 158.037 114.948C156.965 115.202 155.842 115.133 154.809 114.749C153.777 114.365 152.881 113.684 152.236 112.791C151.59 111.898 151.224 110.834 151.183 109.733C151.143 108.632 151.43 107.544 152.007 106.606C152.585 105.668 153.428 104.922 154.43 104.463C155.431 104.004 156.546 103.853 157.634 104.027C158.357 104.143 159.049 104.401 159.672 104.784C160.295 105.168 160.837 105.671 161.265 106.264C161.694 106.857 162.002 107.529 162.171 108.241C162.34 108.953 162.367 109.691 162.25 110.414V110.414Z" fill="white"/>
<path d="M137.748 111.125C137.997 112.781 137.705 114.474 136.915 115.95C136.173 117.612 135.049 119.075 133.635 120.219C131.915 121.601 129.814 122.424 127.613 122.579C125.432 122.753 123.25 122.25 121.365 121.139C119.838 120.208 118.558 118.922 117.634 117.39C116.673 116.029 116.191 114.387 116.263 112.722C116.793 114.185 117.467 115.592 118.276 116.922C119.215 118.268 120.442 119.389 121.868 120.202C123.598 121.162 125.572 121.591 127.543 121.434C129.531 121.298 131.437 120.586 133.027 119.386C134.348 118.366 135.436 117.076 136.22 115.603C136.86 114.158 137.371 112.66 137.748 111.125V111.125Z" fill="white"/>
</g>
<mask id="mask1" mask-type="alpha" maskUnits="userSpaceOnUse" x="7" y="10" width="114" height="231">
<rect x="7" y="10" width="114" height="231" fill="#C4C4C4"/>
</mask>
<g mask="url(#mask1)">
<mask id="mask2" mask-type="alpha" maskUnits="userSpaceOnUse" x="0" y="0" width="241" height="241">
<circle cx="120.5" cy="120.5" r="120.5" fill="white"/>
</mask>
<g mask="url(#mask2)">
<path d="M123.898 150.016C123.898 150.016 44.0684 147.43 44.0684 189.931C44.0684 238.055 59.9303 328.228 123.898 327.291C187.867 326.354 199.598 199.91 200.258 194.287C200.31 194.235 203.642 153.661 123.898 150.016Z" fill="#944BCB"/>
<path d="M198.397 183.269C198.3 183.371 198.189 183.459 198.068 183.529L197.044 184.206C196.159 184.814 194.805 185.629 193.052 186.636C188.018 189.416 182.744 191.739 177.294 193.578C169.211 196.325 160.875 198.26 152.408 199.357C142.05 200.67 131.611 201.25 121.17 201.092C110.737 201.132 100.309 200.605 89.9325 199.513C81.4178 198.592 73.0884 196.404 65.2199 193.022C59.9394 190.699 55.0464 187.579 50.7116 183.772C49.2192 182.384 48.1085 181.239 47.4143 180.44L46.6334 179.503L46.373 179.174C46.373 179.174 46.4945 179.26 46.7028 179.451L47.5531 180.319C48.282 181.083 49.4274 182.176 51.024 183.495C55.3915 187.188 60.2878 190.207 65.5497 192.45C73.3548 195.74 81.5981 197.874 90.0193 198.784C100.37 199.819 110.768 200.323 121.17 200.294C131.576 200.416 141.977 199.836 152.304 198.558C160.73 197.502 169.035 195.636 177.104 192.988C182.539 191.191 187.816 188.944 192.879 186.272C194.614 185.317 196.037 184.536 196.957 183.998L198.016 183.408C198.138 183.349 198.266 183.303 198.397 183.269V183.269Z" fill="#263238"/>
<path d="M150.148 199.302C150.229 199.69 150.27 200.086 150.269 200.482C150.269 201.263 150.269 202.426 150.269 203.953C150.271 208.165 149.829 212.364 148.95 216.483C148.325 219.333 147.412 222.113 146.226 224.779C144.905 227.863 143.152 230.744 141.019 233.334C138.618 236.187 135.734 238.595 132.498 240.449C130.768 241.4 128.949 242.179 127.066 242.775C125.113 243.354 123.097 243.698 121.062 243.799C117.041 243.893 113.069 242.91 109.556 240.953C106.291 239.134 103.414 236.693 101.087 233.768C97.208 228.785 94.6635 222.896 93.694 216.657C93.018 212.499 92.7507 208.285 92.8957 204.075C92.8957 202.6 93.0345 201.437 93.1039 200.604C93.1127 200.2 93.1651 199.799 93.2601 199.406C93.2904 199.805 93.2904 200.205 93.2601 200.604C93.2601 201.472 93.2601 202.617 93.2601 204.075C93.233 208.247 93.5933 212.412 94.3361 216.518C95.3563 222.616 97.8991 228.359 101.729 233.213C104.003 236.037 106.802 238.395 109.972 240.154C113.375 242.024 117.215 242.953 121.097 242.844C123.055 242.751 124.995 242.425 126.876 241.873C128.682 241.296 130.426 240.54 132.082 239.616C135.243 237.815 138.058 235.464 140.395 232.675C142.523 230.17 144.277 227.37 145.601 224.362C146.803 221.75 147.74 219.023 148.395 216.223C149.324 212.153 149.859 208.004 149.992 203.832C149.992 202.426 149.992 201.298 150.078 200.361C150.068 200.007 150.091 199.652 150.148 199.302Z" fill="#263238"/>
<path d="M84.6012 255.114L80.9395 238.697H48.6777C49.8231 243.591 50.7949 249.301 52.6172 255.375L84.6012 255.114Z" fill="#FAFAFA"/>
<path opacity="0.4" d="M196.11 179.241C188.388 166.642 167.962 152.064 123.899 150.016C123.899 150.016 74.5257 148.42 53.4402 168.394C51.4421 170.442 49.6409 172.674 48.0603 175.059C46.7761 177.436 64.5296 198.765 121.591 196.942C180.457 195.051 196.11 179.241 196.11 179.241Z" fill="black"/>
<path d="M42.6935 103.959C39.8647 97.625 38.4937 90.3709 40.4201 83.7068C42.3464 77.0427 48.0733 71.229 54.9977 70.6216" fill="#263238"/>
<path d="M52.7038 71.0193C52.7038 71.1408 51.541 72.0779 49.8923 73.9695C47.7264 76.4042 45.9153 79.1327 44.5125 82.074C43.1982 85.0721 42.0738 88.1499 41.1458 91.2892C40.8555 92.6272 40.4727 93.9435 40.0004 95.2286C39.9578 93.8446 40.1335 92.4624 40.521 91.133C41.2778 87.8947 42.3353 84.734 43.6795 81.6922C45.1173 78.667 47.0599 75.9087 49.4238 73.5357C50.3379 72.4861 51.4533 71.6304 52.7038 71.0193V71.0193Z" fill="#944BCB"/>
<path d="M49.0987 135.404C45.2584 131.482 42.4374 126.679 40.8824 121.415C39.3273 116.151 39.0857 110.586 40.1786 105.207C44.7948 81.9524 61.7154 40.0936 123.896 40.996C189.131 41.9158 201.383 87.0719 203.483 108.817C203.922 113.267 203.476 117.76 202.171 122.037C200.867 126.313 198.729 130.29 195.882 133.738C186.181 145.452 165.581 160.585 123.896 160.568C82.61 160.602 60.4138 146.823 49.0987 135.404Z" fill="#944BCB"/>
<path d="M94.8223 43.7207C94.9798 43.9626 95.1025 44.2255 95.1867 44.5017L96.0891 46.7924C96.87 48.7708 97.9634 51.6517 99.6641 55.0358C101.59 59.0176 104.231 62.6118 107.456 65.6393C111.358 69.3964 116.565 71.493 121.982 71.4877C127.381 71.1642 132.52 69.0585 136.594 65.5004C139.912 62.5726 142.695 59.0904 144.82 55.2093C146.281 52.5934 147.585 49.8929 148.725 47.1222C149.112 46.0851 149.558 45.0711 150.061 44.0852C150.04 44.3728 149.97 44.6546 149.853 44.9182C149.679 45.4561 149.419 46.2544 149.055 47.2436C148.029 50.0877 146.799 52.8542 145.376 55.5217C143.292 59.5257 140.499 63.1184 137.132 66.1252C132.94 69.8624 127.606 72.0705 121.999 72.3901C119.092 72.4616 116.208 71.868 113.565 70.6547C111.122 69.5438 108.872 68.0499 106.901 66.2293C103.624 63.1094 100.974 59.3927 99.0914 55.2787C97.8053 52.5517 96.6924 49.7463 95.7594 46.8792C95.4123 45.8611 95.1693 45.0801 95.0305 44.5364C94.9356 44.2716 94.8659 43.9985 94.8223 43.7207Z" fill="#263238"/>
<path d="M165.101 132.836C134.835 140.229 105.298 140.507 76.5941 133.148C71.3387 131.781 66.6875 128.705 63.3727 124.403C60.058 120.102 58.2683 114.82 58.2853 109.39V108.974C58.2853 105.747 58.9209 102.551 60.1558 99.5697C61.3908 96.5883 63.2009 93.8793 65.4828 91.5974C67.7647 89.3155 70.4736 87.5054 73.455 86.2705C76.4365 85.0355 79.6319 84.3999 82.859 84.3999H159.218C162.445 84.3999 165.641 85.0355 168.622 86.2705C171.604 87.5054 174.313 89.3155 176.595 91.5974C178.876 93.8793 180.687 96.5883 181.922 99.5697C183.156 102.551 183.792 105.747 183.792 108.974V108.974C183.796 114.469 181.956 119.807 178.568 124.133C175.179 128.459 170.438 131.523 165.101 132.836V132.836Z" fill="#263238"/>
<path d="M98.4265 113.643C98.2518 114.73 97.759 115.741 97.0101 116.548C96.2613 117.355 95.29 117.922 94.219 118.178C93.148 118.433 92.0253 118.366 90.9927 117.984C89.9601 117.602 89.0638 116.922 88.4172 116.031C87.7706 115.139 87.4026 114.077 87.3597 112.976C87.3168 111.876 87.6009 110.788 88.1761 109.849C88.7513 108.91 89.5918 108.163 90.5915 107.701C91.5912 107.24 92.7052 107.085 93.7929 107.256C94.5169 107.37 95.2114 107.626 95.8364 108.009C96.4615 108.392 97.0047 108.894 97.4352 109.488C97.8656 110.081 98.1748 110.753 98.3449 111.466C98.515 112.179 98.5427 112.919 98.4265 113.643Z" fill="white"/>
<path d="M137.755 111.125C138.005 112.78 137.712 114.473 136.922 115.949C136.181 117.611 135.057 119.074 133.642 120.218C131.922 121.6 129.821 122.423 127.62 122.578C125.439 122.752 123.258 122.249 121.373 121.138C119.845 120.207 118.565 118.921 117.642 117.389C116.681 116.028 116.199 114.386 116.271 112.721C116.8 114.185 117.475 115.591 118.284 116.921C119.223 118.267 120.45 119.388 121.876 120.201C123.605 121.161 125.579 121.59 127.551 121.433C129.539 121.297 131.444 120.585 133.035 119.385C134.356 118.365 135.444 117.075 136.228 115.602C136.868 114.157 137.379 112.659 137.755 111.125V111.125Z" fill="white"/>
</g>
</g>
</svg>
