<svg width="261" height="221" viewBox="0 0 261 221" fill="none" xmlns="http://www.w3.org/2000/svg">
<path d="M0 194.325L32.5392 194.18L65.0721 194.126L130.144 194.023L195.216 194.126L227.749 194.174L260.282 194.325L227.749 194.47L195.216 194.524L130.144 194.626L65.0721 194.524L32.5392 194.47L0 194.325Z" fill="#263238"/>
<path d="M130.145 221C195.023 221 247.618 217.311 247.618 212.76C247.618 208.208 195.023 204.519 130.145 204.519C65.2663 204.519 12.6719 208.208 12.6719 212.76C12.6719 217.311 65.2663 221 130.145 221Z" fill="#EBEBEB"/>
<path d="M155.577 146.1V146.184C155.577 146.184 155.577 146.22 155.577 146.244C155.577 146.268 155.577 146.341 155.545 146.407V146.516C155.525 146.593 155.51 146.671 155.501 146.751C155.501 146.805 155.501 146.859 155.469 146.919C155.437 146.98 155.424 147.173 155.392 147.317C155.361 147.462 155.297 147.806 155.246 148.095L154.96 149.566C154.928 149.723 154.897 149.891 154.865 150.066C154.833 150.241 154.776 150.536 154.725 150.784C154.674 151.031 154.623 151.338 154.566 151.633C154.528 151.838 154.483 152.049 154.445 152.266C154.324 152.911 154.197 153.599 154.051 154.334C154.048 154.352 154.048 154.37 154.051 154.388C153.898 155.208 153.733 156.088 153.555 157.011C153.511 157.252 153.46 157.493 153.409 157.734C153.358 157.975 153.307 158.24 153.263 158.494C153.263 158.65 153.205 158.813 153.167 158.976C152.926 160.258 152.665 161.616 152.385 163.051C152.29 163.533 152.201 164.021 152.105 164.516C151.921 165.48 151.73 166.469 151.533 167.488C151.482 167.723 151.438 167.958 151.4 168.199C151.112 169.674 150.817 171.209 150.516 172.805C150.478 172.967 150.452 173.13 150.421 173.293C150.274 174.04 150.128 174.794 149.988 175.565C149.97 175.624 149.957 175.685 149.95 175.746L149.74 176.843C149.461 178.314 149.172 179.819 148.876 181.359C148.799 181.738 148.723 182.124 148.653 182.516C148.507 183.294 148.354 184.077 148.202 184.867C148.011 185.85 147.82 186.838 147.63 187.845C147.439 188.852 147.248 189.858 147.051 190.859C146.949 191.371 146.854 191.884 146.752 192.396C146.638 192.999 146.517 193.602 146.403 194.247H91.4521C98.2296 167.548 103.945 146.021 103.945 146.021L155.577 146.1Z" fill="#263238"/>
<path d="M147.273 152.128C144.523 166.194 141.742 180.26 138.932 194.325H138.169C141.087 180.225 144.094 166.15 147.07 152.068C147.114 151.935 147.312 151.989 147.273 152.128Z" fill="#263238"/>
<path d="M155.576 146.1C155.576 146.1 155.576 146.13 155.576 146.184C155.576 146.239 155.576 146.22 155.576 146.245C155.576 146.269 155.576 146.341 155.544 146.407V146.516C155.524 146.593 155.509 146.672 155.5 146.751C155.5 146.805 155.5 146.859 155.468 146.92C155.436 146.98 155.417 147.173 155.392 147.318C155.366 147.462 155.297 147.806 155.246 148.095C155.157 148.523 155.068 149.011 154.96 149.566C154.928 149.723 154.896 149.892 154.864 150.066C154.832 150.241 154.775 150.537 154.724 150.784C154.673 151.031 154.623 151.338 154.565 151.634C154.527 151.839 154.483 152.05 154.445 152.267C154.317 152.912 154.19 153.599 154.05 154.334C154.047 154.352 154.047 154.371 154.05 154.389C153.891 155.208 153.726 156.077 153.548 156.999C153.497 157.24 153.453 157.487 153.408 157.734C153.364 157.981 153.306 158.241 153.262 158.494C153.224 158.651 153.198 158.813 153.167 158.976C152.919 160.254 152.658 161.616 152.385 163.051C152.289 163.533 152.2 164.022 152.105 164.516C151.914 165.481 151.723 166.469 151.533 167.488C151.482 167.723 151.437 167.958 151.399 168.199C151.107 169.682 150.812 171.217 150.515 172.805C150.477 172.968 150.452 173.13 150.42 173.293C150.274 174.041 150.128 174.794 149.988 175.566C149.969 175.625 149.956 175.685 149.95 175.747L149.74 176.844C149.452 178.315 149.163 179.82 148.875 181.359C148.799 181.739 148.723 182.124 148.653 182.516C148.5 183.294 148.354 184.078 148.201 184.867C148.01 185.85 147.82 186.838 147.629 187.845C147.438 188.852 147.241 189.859 147.05 190.859C146.949 191.372 146.853 191.884 146.752 192.396C146.637 192.999 146.516 193.602 146.396 194.247H118.816L116.609 172.835L116.533 172.075L116.444 171.256L116.012 167.066L115.637 163.449L113.844 146.1H155.576Z" fill="#455A64"/>
<path d="M186.793 194.325H127.532C127.431 189.153 127.323 184.15 127.189 179.43C127.189 179.315 127.189 179.201 127.189 179.086C127.189 179.086 120.272 175.204 116.546 172.16C115.913 171.666 115.33 171.117 114.804 170.52C112.42 167.639 110.029 156.559 105.083 146.136H177.562C189.336 167.801 188.51 185.211 186.793 194.325Z" fill="#263238"/>
<path d="M113.081 169.754C116.604 171.123 119.776 173.227 122.904 175.258C126.159 177.362 129.141 179.797 132.269 182.058C132.39 182.148 132.269 182.335 132.142 182.251C128.842 180.255 125.39 178.501 122.128 176.446C118.95 174.45 115.669 172.509 112.922 169.995C112.814 169.899 112.935 169.694 113.081 169.754Z" fill="#455A64"/>
<path d="M112.637 150.422C113.056 152.562 113.603 154.684 114.093 156.812C114.544 158.807 114.881 160.839 115.44 162.84C115.895 164.75 116.919 166.495 118.39 167.868C119.217 168.597 120.126 169.242 121.003 169.905C121.48 170.267 121.989 170.61 122.485 170.978C122.421 170.695 122.37 170.375 122.313 170.116L121.875 167.705C121.557 165.896 121.239 164.088 120.959 162.279C120.387 158.729 119.865 155.142 119.052 151.628C119.049 151.601 119.057 151.574 119.073 151.552C119.089 151.53 119.112 151.514 119.14 151.507C119.167 151.5 119.196 151.502 119.222 151.513C119.247 151.524 119.268 151.543 119.281 151.567C120.215 155.052 121.245 158.5 122.059 162.014C122.459 163.732 123.877 172.262 123.966 172.865C124.055 173.468 124.087 174.113 124.112 174.734C124.198 175.368 124.198 176.01 124.112 176.645C124.1 176.673 124.079 176.698 124.052 176.715C124.024 176.732 123.993 176.741 123.96 176.741C123.927 176.741 123.895 176.732 123.868 176.715C123.841 176.698 123.82 176.673 123.807 176.645C123.536 176.055 123.345 175.435 123.241 174.8C123.076 174.197 122.93 173.594 122.815 172.955C122.771 172.738 122.739 172.509 122.707 172.28C121.824 171.768 121.003 171.075 120.164 170.532C119.325 169.99 118.365 169.326 117.526 168.651C115.967 167.406 114.843 165.741 114.302 163.877C113.76 161.873 113.407 159.828 113.247 157.764C112.961 155.353 112.751 152.942 112.395 150.531C112.382 150.32 112.605 150.277 112.637 150.422Z" fill="#455A64"/>
<path d="M172.94 165.324C171.993 164.86 168.331 165.686 161.655 164.607C160.35 164.447 159.11 163.969 158.057 163.22C156.321 161.876 155.005 159.712 153.949 157.861C152.696 155.776 151.73 153.548 151.076 151.23C151.044 151.085 150.834 151.158 150.86 151.29C151.108 152.598 151.241 153.906 151.61 155.203C151.971 156.419 152.432 157.606 152.989 158.753C153.994 160.899 155.17 163.202 157.205 164.655C159.335 166.174 162.291 166.463 164.885 166.632C166.373 166.728 172.228 166.578 173.017 165.788C173.046 165.754 173.068 165.714 173.081 165.671C173.093 165.628 173.096 165.584 173.089 165.54C173.082 165.496 173.065 165.454 173.039 165.417C173.013 165.379 172.98 165.348 172.94 165.324Z" fill="#455A64"/>
<path d="M117.786 68.7941C111.683 77.3481 69.2891 128.865 63.1538 129.92C47.52 132.59 33.2022 127.509 39.1086 114.741C45.9877 99.8755 84.249 70.4037 109.744 57.3526C128.003 48.0029 123.788 60.3487 117.786 68.7941Z" fill="#DD6A57"/>
<path d="M97.0853 97.1991L63.834 82.7315C63.834 82.7315 94.5994 62.4526 108.974 56.2797C123.991 49.8476 130.063 53.6092 117.239 70.3435C104.657 86.8125 97.0853 97.1991 97.0853 97.1991Z" fill="#455A64"/>
<path d="M81.541 71.5068C81.4709 71.5455 81.4029 71.5878 81.3376 71.6334L107.207 83.6054L107.335 83.4366L81.541 71.5068ZM74.3885 75.9617C74.3205 75.9983 74.2547 76.0386 74.1914 76.0822L102.897 89.3443L103.018 89.1815L74.3885 75.9617ZM67.3377 80.4587L67.1406 80.5853L98.6181 95.1494C98.6499 95.0952 98.6944 95.0409 98.7325 94.9867L67.3377 80.4587Z" fill="white"/>
<path d="M97.4983 90.797C96.7346 90.3842 95.9495 90.008 95.1459 89.6697L92.7236 88.5425C91.0897 87.7829 89.443 87.0475 87.7836 86.3241C84.4839 84.8713 81.1843 83.4065 77.8591 82.0139C76.9436 81.6281 76.0217 81.2423 75.0999 80.8867C74.178 80.531 73.1226 80.1874 72.1499 79.8076C72.0926 79.8076 72.0608 79.8679 72.1181 79.898C72.9255 80.2778 73.7012 80.7239 74.5022 81.1037C75.3033 81.4835 76.1616 81.8813 76.9945 82.2611C78.6433 82.9965 80.2963 83.7239 81.9536 84.4433C85.2151 85.8479 88.4766 87.2645 91.77 88.6028C92.6918 88.9825 93.6137 89.3442 94.5356 89.718C95.4575 90.0917 96.4429 90.5619 97.4538 90.8633C97.5047 90.8935 97.5492 90.8211 97.4983 90.797Z" fill="#263238"/>
<path d="M117.291 70.3253C104.658 86.8124 97.0854 97.199 97.0854 97.199L86.4551 92.5633L122.898 53.9829C125.696 55.7974 124.373 61.1022 117.291 70.3253Z" fill="#263238"/>
<path d="M98.4976 157.65H184.264C184.264 157.65 171.161 80.0548 139.544 53.5187C135.64 50.2394 126.828 50.9869 121.106 53.6935C119.052 54.6641 111.684 64.4358 109.579 73.683C107.475 82.9303 98.2624 157.372 98.4976 157.65Z" fill="#455A64"/>
<path d="M176.469 124.519L138.411 52.7534C138.816 52.9703 139.195 53.2269 139.543 53.519C157.485 68.5774 169.463 100.081 176.469 124.519Z" fill="#263238"/>
<path d="M135.868 51.7888H127.145C127.552 51.7164 127.953 51.6501 128.359 51.5898H134.838C135.181 51.6441 135.512 51.7104 135.868 51.7888ZM144.833 58.5645H116.68C116.636 58.6308 116.591 58.6971 116.54 58.7634H144.979L144.833 58.5645ZM150.491 65.5391H112.541L112.446 65.738H150.631L150.491 65.5391ZM155.119 72.5137H109.846C109.846 72.58 109.807 72.6463 109.788 72.7126H155.247L155.119 72.5137ZM159.087 79.4883H108.53C108.53 79.5547 108.529 79.621 108.498 79.6873H159.195C159.157 79.621 159.119 79.5547 159.087 79.4883ZM162.571 86.463H107.5C107.5 86.5293 107.5 86.5956 107.5 86.6619H162.679C162.628 86.5956 162.571 86.5293 162.571 86.463ZM165.68 93.4436H106.552C106.552 93.5099 106.552 93.5762 106.552 93.6365H165.75C165.75 93.5702 165.699 93.5039 165.673 93.4436H165.68ZM168.484 100.418H105.579C105.579 100.485 105.579 100.545 105.579 100.611H168.547C168.528 100.545 168.503 100.485 168.477 100.418H168.484ZM171.027 107.393H104.658C104.658 107.459 104.658 107.525 104.658 107.592H171.103C171.084 107.519 171.065 107.459 171.039 107.393H171.027ZM173.379 114.367H103.748C103.748 114.434 103.748 114.5 103.748 114.566H173.449C173.43 114.5 173.379 114.434 173.379 114.367ZM175.541 121.342H102.858C102.858 121.408 102.858 121.475 102.858 121.541H175.604L175.541 121.342ZM177.537 128.317H101.975C101.975 128.383 101.975 128.449 101.975 128.516H177.632C177.575 128.449 177.556 128.383 177.543 128.317H177.537ZM179.374 135.291H101.104C101.104 135.358 101.104 135.424 101.104 135.49H179.432C179.413 135.424 179.4 135.358 179.381 135.291H179.374ZM181.066 142.266H100.264C100.264 142.332 100.264 142.399 100.264 142.465H181.117C181.104 142.399 181.091 142.332 181.072 142.266H181.066ZM182.617 149.241H99.4061C99.4061 149.307 99.4061 149.373 99.4061 149.44H182.693L182.617 149.241ZM184.003 156.215H98.6113V156.414H184.06C184.035 156.348 184.022 156.282 184.009 156.215H184.003Z" fill="white"/>
<path d="M154.42 55.4723C176.037 63.0497 229.264 83.1597 231.986 94.9267C233.969 103.577 193.356 108.954 192.198 107.556C191.289 106.446 153.575 78.5903 140.281 63.5982C128.722 50.5774 147.509 53.0489 154.42 55.4723Z" fill="#DD6A57"/>
<path d="M170.753 90.9299L199.229 72.2425C199.229 72.2425 165.202 57.3649 149.88 53.6757C133.909 49.8297 128.626 54.5317 144.336 68.8848C159.811 83.0028 170.753 90.9299 170.753 90.9299Z" fill="#455A64"/>
<path d="M178.18 63.4773L156.105 79.2229C156.163 79.2651 156.207 79.3134 156.264 79.3495L178.409 63.5617L178.18 63.4773ZM185.987 66.6361L161.764 83.9129L161.923 84.0455L186.216 66.7265C186.14 66.6964 186.095 66.6602 185.987 66.6361ZM193.725 69.8491L167.569 88.5365C167.621 88.582 167.676 88.6243 167.734 88.6631L193.941 69.9757C193.865 69.9388 193.793 69.8965 193.725 69.8491Z" fill="white"/>
<path d="M191.371 70.9585C190.608 71.3564 189.89 71.8567 189.165 72.3209C188.44 72.7851 187.677 73.2734 186.927 73.7436C185.414 74.7021 183.914 75.6907 182.42 76.6793C179.444 78.6626 176.45 80.6338 173.519 82.6654C172.711 83.22 171.904 83.7806 171.109 84.3593C170.314 84.938 169.482 85.6312 168.649 86.2401C168.598 86.2763 168.649 86.3426 168.712 86.3124C169.462 85.8422 170.264 85.4323 171.02 84.9621C171.777 84.4919 172.565 83.9976 173.328 83.4972C174.828 82.5207 176.316 81.532 177.778 80.5314C180.697 78.5601 183.628 76.5949 186.501 74.5634L188.905 72.8574C189.744 72.2546 190.634 71.7 191.416 71.049C191.467 71.0007 191.429 70.9284 191.371 70.9585Z" fill="#263238"/>
<path d="M168.121 88.7899C167.32 88.1509 166.576 87.4516 165.801 86.7885C165.025 86.1254 164.224 85.4683 163.442 84.8052C161.91 83.5152 160.358 82.2432 158.82 80.9532C155.711 78.3369 152.602 75.7147 149.525 73.0683C147.776 71.5612 146.06 70.012 144.254 68.5652L144.216 68.6014C145.634 70.0542 147.159 71.4226 148.666 72.7849C148.348 72.5981 148.031 72.4052 147.725 72.1821C147.42 71.9591 147.051 71.724 146.727 71.4768C146.403 71.2297 146.091 70.9524 145.723 70.7233C145.665 70.6871 145.615 70.7595 145.653 70.8017C146.224 71.4416 146.898 71.9929 147.649 72.4353C148.018 72.6704 148.406 72.8814 148.793 73.0803L149.219 73.2672C150.567 74.4728 151.924 75.6785 153.288 76.8841C156.34 79.5526 159.453 82.1648 162.628 84.7208C163.505 85.4201 164.389 86.1073 165.279 86.7945C166.169 87.4817 167.148 88.1448 168.058 88.8502C168.102 88.8984 168.166 88.8321 168.121 88.7899Z" fill="#263238"/>
<path d="M123.832 68.5893C128.874 69.1921 136.548 61.2409 139.231 55.1344C139.415 54.7124 138.315 50.6012 137.222 45.5436C136.586 42.4752 135.95 39.0391 135.581 35.8683C135.511 35.2173 115.122 42.7887 115.122 42.7887C115.122 42.7887 117.919 49.2328 118.498 54.7667C118.539 55.2059 118.539 55.6477 118.498 56.0868C118.498 56.1471 118.498 56.2195 118.498 56.3039C118.339 58.8176 118.962 67.9925 123.832 68.5893Z" fill="#DD6A57"/>
<path d="M120.66 56.1954C119.942 56.2887 119.217 56.325 118.492 56.3039C118.492 56.2195 118.492 56.1471 118.492 56.0808C118.54 55.6439 118.54 55.2036 118.492 54.7667C117.92 49.2388 115.129 42.7887 115.129 42.7887C115.129 42.7887 131.659 36.6399 135.003 35.8984C134.762 39.6299 133.007 54.7064 120.66 56.1954Z" fill="#263238"/>
<path d="M133.325 11.2673C137.553 17.5065 139.606 38.2555 135.792 44.0185C130.26 52.3796 118.282 56.2376 110.055 49.2992C102.076 42.5778 99.8828 15.4931 104.435 9.97125C111.073 1.83319 127.069 2.0261 133.325 11.2673Z" fill="#DD6A57"/>
<path d="M119.739 29.3822C119.739 29.3279 119.866 29.4424 119.866 29.4967C119.967 30.9012 120.33 32.5108 121.709 32.8242C121.754 32.8242 121.754 32.9086 121.709 32.9026C120.056 32.8423 119.599 30.7264 119.739 29.3822Z" fill="#263238"/>
<path d="M120.902 27.8026C123.254 27.4107 123.909 31.8958 121.734 32.2635C119.56 32.6312 118.931 28.1341 120.902 27.8026Z" fill="#263238"/>
<path d="M110.723 30.3585C110.723 30.3103 110.615 30.4429 110.627 30.4972C110.875 31.8836 110.914 33.5112 109.655 34.1442C109.617 34.1442 109.655 34.2346 109.655 34.2165C111.27 33.8066 111.193 31.6546 110.723 30.3585Z" fill="#263238"/>
<path d="M109.197 29.0983C106.819 29.237 107.29 33.7461 109.496 33.6195C111.702 33.4929 111.199 28.9838 109.197 29.0983Z" fill="#263238"/>
<path d="M122.472 25.536C121.83 25.4418 121.193 25.317 120.565 25.1622C119.862 25.124 119.191 24.8677 118.657 24.4329C118.521 24.2653 118.447 24.0597 118.447 23.8482C118.447 23.6366 118.521 23.431 118.657 23.2634C119.293 22.5702 120.228 22.5461 121.124 22.6607C122.028 22.7765 122.855 23.206 123.445 23.8662C123.583 24.0248 123.668 24.2192 123.688 24.4242C123.709 24.6291 123.663 24.8352 123.558 25.0154C123.453 25.1956 123.294 25.3416 123.1 25.4345C122.906 25.5273 122.687 25.5627 122.472 25.536Z" fill="#263238"/>
<path d="M107.041 27.0793C107.658 26.8738 108.263 26.6364 108.853 26.3679C109.528 26.2028 110.126 25.8321 110.557 25.3129C110.659 25.124 110.691 24.9086 110.65 24.7002C110.608 24.4919 110.495 24.3024 110.328 24.1615C109.578 23.5949 108.643 23.7395 107.785 24.047C106.919 24.325 106.194 24.8988 105.751 25.6566C105.66 25.8361 105.626 26.0367 105.654 26.2339C105.682 26.4312 105.769 26.6166 105.906 26.7675C106.043 26.9183 106.223 27.0282 106.425 27.0835C106.626 27.1389 106.84 27.1374 107.041 27.0793Z" fill="#263238"/>
<path d="M122.803 41.6674C122.505 42.0412 122.219 42.5356 121.691 42.6441C121.144 42.7064 120.59 42.6592 120.063 42.5055C120.053 42.5029 120.042 42.5037 120.032 42.5075C120.022 42.5114 120.013 42.5182 120.008 42.527C120.002 42.5357 119.999 42.5459 120 42.5562C120.001 42.5664 120.005 42.5761 120.012 42.5838C120.262 42.8292 120.577 43.0062 120.924 43.0964C121.271 43.1866 121.637 43.1866 121.983 43.0963C122.272 42.9821 122.518 42.7894 122.691 42.5426C122.864 42.2958 122.956 42.006 122.956 41.7096C122.969 41.6312 122.848 41.6132 122.803 41.6674Z" fill="#263238"/>
<path d="M120.653 37.7071C120.363 38.3058 119.944 38.841 119.424 39.2788C118.905 39.7166 118.295 40.0476 117.634 40.251C117.057 40.4374 116.455 40.543 115.847 40.5645C115.731 40.5734 115.614 40.5734 115.497 40.5645H115.173C115.093 40.5601 115.016 40.5314 114.954 40.4826C114.892 40.4337 114.849 40.3673 114.83 40.2932C114.824 40.2451 114.824 40.1966 114.83 40.1485V40.028C114.645 38.961 114.518 37.3213 114.518 37.3213C114.13 37.5684 112.159 38.7439 112.115 38.1773C111.727 33.5115 111.301 28.3212 111.956 23.6011C111.963 23.5715 111.98 23.545 112.005 23.526C112.03 23.5069 112.061 23.4966 112.093 23.4966C112.125 23.4966 112.156 23.5069 112.18 23.526C112.205 23.545 112.223 23.5715 112.229 23.6011C112.782 28.074 112.509 32.6072 112.992 37.1043C113.693 36.6791 114.453 36.3484 115.249 36.1217C115.421 36.1217 115.44 39.2985 115.561 39.7687C115.559 39.7848 115.559 39.8009 115.561 39.817C117.468 39.817 118.841 39.0695 120.507 37.6227C120.609 37.5082 120.73 37.5926 120.653 37.7071Z" fill="#263238"/>
<path d="M116.432 39.9373C117.164 40.6182 118.068 41.11 119.057 41.3659C119.601 41.4902 120.173 41.4502 120.691 41.2514C121.823 40.8053 121.702 39.7805 121.359 38.9366C121.172 38.4896 120.931 38.0648 120.64 37.6707C119.528 38.8322 118.054 39.6263 116.432 39.9373Z" fill="#263238"/>
<path d="M119.058 41.3658C119.602 41.4901 120.173 41.4501 120.692 41.2513C121.823 40.8052 121.703 39.7805 121.359 38.9365C120.12 39.2259 119.001 40.1964 119.058 41.3658Z" fill="#FF98B9"/>
<path d="M136.542 27.0551C132.69 27.9894 130.089 19.122 130.089 19.122C130.089 19.122 123.992 19.8996 118.645 13.2565C118.645 13.2565 112.726 19.9297 106.139 20.7556C95.8143 22.0396 91.9997 9.95308 94.8225 6.39645C98.8216 1.35086 109.744 3.59937 109.744 3.59937C109.744 3.59937 122.46 -4.32769 129.612 3.34619C129.612 3.34619 135.919 1.71255 138.551 8.09037C141.184 14.4682 139.416 26.3558 136.542 27.0551Z" fill="#263238"/>
<path d="M131.793 19.7427C128.835 20.1378 125.823 19.5908 123.229 18.1875C120.578 16.6684 118.365 13.7749 118.27 10.7729C118.27 10.6101 117.984 10.6342 118.003 10.7729C118.346 14.0401 119.599 17.1205 122.523 19.0736C123.86 19.9872 125.425 20.5526 127.064 20.7134C128.703 20.8741 130.357 20.6247 131.863 19.9899C131.883 19.972 131.898 19.9491 131.906 19.9238C131.913 19.8985 131.913 19.8717 131.906 19.8463C131.899 19.8209 131.885 19.7978 131.865 19.7795C131.845 19.7613 131.82 19.7486 131.793 19.7427Z" fill="#263238"/>
<path d="M137.776 4.12384C135.074 2.39977 132.022 2.9182 129.154 3.91285C128.995 3.96711 129.097 4.22029 129.25 4.14795C131.996 2.94231 135.48 3.9008 137.718 5.66707C139.956 7.43334 140.503 10.2244 140.726 12.7985C141.18 17.7677 139.676 22.7201 136.504 26.6995C136.453 26.7598 136.555 26.8382 136.606 26.7779C138.466 24.6754 139.853 22.2351 140.684 19.6065C141.515 16.9779 141.771 14.2162 141.438 11.4903C141.075 8.81983 140.242 5.7153 137.776 4.12384Z" fill="#263238"/>
<path d="M110.271 3.91876C108.415 2.41563 106.042 1.61117 103.602 1.6582C100.661 1.78784 97.8734 2.94276 95.7753 4.90135C94.9529 5.71208 94.3706 6.71411 94.0871 7.80635C93.8036 8.89858 93.8288 10.0424 94.1604 11.1224C94.8343 13.6784 96.8688 15.6556 99.0241 17.1506C99.0298 17.1562 99.0366 17.1607 99.0443 17.1636C99.0519 17.1665 99.0601 17.1679 99.0683 17.1675C99.0765 17.1672 99.0846 17.1651 99.0919 17.1616C99.0992 17.158 99.1056 17.153 99.1107 17.1468C99.1158 17.1407 99.1194 17.1336 99.1213 17.126C99.1232 17.1184 99.1234 17.1105 99.1218 17.1029C99.1203 17.0952 99.117 17.088 99.1122 17.0817C99.1074 17.0753 99.1012 17.07 99.094 17.0662C97.263 15.5772 95.6227 13.7567 95.006 11.472C94.6766 10.4086 94.6707 9.27852 94.989 8.21202C95.3073 7.14552 95.9369 6.18597 96.8052 5.44389C100.232 2.53831 106.183 1.0373 110.106 4.09358C110.131 4.10217 110.158 4.10348 110.184 4.09732C110.21 4.09117 110.233 4.07784 110.251 4.05905C110.268 4.04026 110.28 4.01687 110.283 3.99187C110.287 3.96688 110.283 3.94142 110.271 3.91876Z" fill="#263238"/>
<path d="M133.789 29.2252C133.789 29.2252 136.758 21.6418 140.268 22.4857C143.777 23.3297 142.773 33.5052 139.517 35.6633C139.119 35.964 138.66 36.186 138.169 36.316C137.678 36.446 137.165 36.4814 136.66 36.4201C136.154 36.3589 135.667 36.2022 135.226 35.9594C134.785 35.7165 134.401 35.3924 134.094 35.0062L133.789 29.2252Z" fill="#DD6A57"/>
<path d="M139.906 25.3976C139.918 25.3948 139.929 25.3957 139.94 25.4003C139.951 25.4049 139.959 25.4128 139.965 25.4227C139.97 25.4325 139.971 25.4438 139.969 25.4546C139.966 25.4654 139.96 25.4751 139.951 25.4819C137.687 27.0794 136.969 29.6293 136.67 32.1611C137.179 31.0881 138.069 30.3526 139.55 30.8891C139.565 30.8976 139.576 30.91 139.583 30.9249C139.59 30.9398 139.592 30.9563 139.588 30.9721C139.585 30.988 139.576 31.0025 139.564 31.0135C139.551 31.0246 139.535 31.0316 139.518 31.0338C139.038 31.0097 138.561 31.1271 138.154 31.37C137.746 31.6128 137.428 31.9691 137.242 32.3901C136.937 33.0988 136.714 33.8364 136.575 34.5904C136.518 34.8315 136.079 34.8195 136.092 34.5482C136.095 34.5282 136.095 34.5079 136.092 34.4879C135.195 31.4498 136.505 26.5549 139.906 25.3976Z" fill="#263238"/>
<path d="M221.934 145.081C215.888 165.082 198.588 181.334 195.047 183.462C192.033 185.271 190.463 186.199 190.463 186.199C185.122 189.575 181.448 188.659 181.448 188.659C181.448 188.659 176.482 194.283 172.4 191.998C167.816 189.46 175.681 182.064 177.385 175.487C181.282 160.417 182.382 137.974 183.05 133.519L221.934 145.081Z" fill="#DD6A57"/>
<path d="M193.171 162.418C191.931 166.831 190.832 171.195 188.969 175.427C186.921 180.069 184.137 184.21 181.409 188.49C181.396 188.516 181.393 188.545 181.4 188.572C181.408 188.6 181.425 188.624 181.449 188.641C181.474 188.657 181.503 188.665 181.533 188.663C181.563 188.661 181.591 188.649 181.613 188.629C187.85 181.618 192.389 171.587 193.578 162.509C193.61 162.286 193.235 162.201 193.171 162.418Z" fill="#263238"/>
<path d="M203.102 163.328C201.646 167.548 199.033 174.975 190.336 186.115C190.304 186.151 190.336 186.205 190.399 186.169C196.918 179.911 201.47 172.057 203.547 163.485C203.617 163.214 203.204 163.051 203.102 163.328Z" fill="#263238"/>
<path d="M180.869 157.053C180.557 154.901 179.362 155.039 177.302 158.373C175.242 161.707 170.079 176.554 164.771 174.408C159.462 172.262 167.066 151.41 170.944 146.112C174.822 140.813 183.024 133.519 183.024 133.519C182.426 137.859 181.975 148.511 180.869 157.053Z" fill="#DD6A57"/>
<path d="M231.972 94.9267C236.213 107.556 225.023 135.72 221.933 145.081C220.585 149.162 181.281 138.263 182.75 133.905C185.764 124.989 193.558 108.761 192.185 107.556C191.098 106.597 228.113 83.4551 231.972 94.9267Z" fill="#DD6A57"/>
<path d="M202.956 99.9602C202.435 100.153 201.913 100.304 201.405 100.563C200.896 100.822 200.356 101.027 199.853 101.286C198.88 101.804 197.952 102.397 197.081 103.059C196.202 103.705 195.369 104.405 194.589 105.157C194.182 105.542 193.788 105.94 193.413 106.362C193.032 106.749 192.699 107.176 192.421 107.634C192.407 107.656 192.399 107.681 192.399 107.706C192.399 107.732 192.407 107.757 192.421 107.779C192.421 107.779 192.421 107.821 192.459 107.827C192.624 107.893 192.72 107.761 192.84 107.664L193.438 107.14C193.858 106.772 194.265 106.38 194.71 106.007C195.555 105.265 196.445 104.554 197.361 103.885C198.276 103.215 199.217 102.582 200.171 101.974C200.648 101.666 201.118 101.371 201.602 101.051C202.085 100.732 202.562 100.448 203.058 100.177C203.153 100.093 203.077 99.912 202.956 99.9602Z" fill="#263238"/>
<path d="M60.8463 93.7573C54.4885 97.977 35.129 114.416 39.0327 123.398C42.9364 132.38 57.839 132.163 78.6798 128.588L60.8463 93.7573Z" fill="#DD6A57"/>
<path d="M60.2861 94.149C68.8247 87.4035 81.2287 79.2111 86.3086 79.4704C91.6364 79.7416 110.322 81.4175 114.531 83.1295C118.74 84.8415 130.845 96.0117 132.085 99.7131C133.077 102.679 126.935 105.476 119.14 100.72C111.848 96.271 110.335 94.8664 107.957 94.0887C105.579 93.3111 96.2077 95.0171 95.076 98.3688C94.4084 100.346 97.1105 105.681 100.868 106.808C104.625 107.936 108.497 105.82 113.793 106.091C119.089 106.362 124.176 111.317 123.152 112.945C122.128 114.573 119.757 113.698 112.528 115.989C107.881 117.466 102.356 120.119 94.4911 124.507C86.4357 128.998 74.7819 128.92 74.7819 128.92L60.2861 94.149Z" fill="#DD6A57"/>
<path d="M119.465 101.563C132.18 105.337 126.312 123.21 113.565 119.431C100.817 115.651 106.724 97.7775 119.465 101.563Z" fill="#F6E01D"/>
<path opacity="0.1" d="M119.465 101.563C132.18 105.337 126.312 123.21 113.565 119.431C100.817 115.651 106.724 97.7775 119.465 101.563Z" fill="#F6E01D"/>
<path d="M118.27 101.208C130.394 104.825 124.52 122.68 112.37 119.076C100.22 115.471 106.126 97.603 118.27 101.208Z" fill="#F6E01D"/>
<path opacity="0.1" d="M107.392 109.629C107.03 112.89 108.606 116.29 112.872 117.556C122.956 120.57 127.832 105.711 117.768 102.727L117.571 102.673C126.98 105.687 122.301 119.69 112.688 116.839C111.053 116.418 109.627 115.465 108.658 114.147C107.69 112.828 107.242 111.229 107.392 109.629Z" fill="black"/>
<g opacity="0.1">
<path opacity="0.1" d="M117.151 104.578C117.231 104.609 117.296 104.668 117.332 104.743C117.367 104.818 117.371 104.904 117.341 104.982L117.144 105.47C117.941 105.843 118.604 106.43 119.052 107.158C119.091 107.207 119.118 107.264 119.129 107.325C119.14 107.386 119.135 107.449 119.115 107.507C119.079 107.588 119.01 107.652 118.925 107.686C118.84 107.72 118.744 107.72 118.657 107.688C118.571 107.659 118.5 107.598 118.46 107.519C118.094 106.883 117.539 106.361 116.865 106.018L115.466 109.424C117.259 110.527 117.793 111.522 117.303 112.71C116.782 114 115.262 114.518 113.641 113.951L113.253 114.898C113.237 114.937 113.214 114.974 113.183 115.005C113.152 115.035 113.116 115.06 113.075 115.077C113.034 115.095 112.99 115.104 112.946 115.106C112.901 115.107 112.856 115.1 112.815 115.085C112.773 115.07 112.735 115.047 112.702 115.018C112.67 114.989 112.644 114.954 112.625 114.916C112.607 114.877 112.597 114.835 112.596 114.793C112.594 114.751 112.602 114.708 112.618 114.669L113.005 113.71C111.967 113.238 111.123 112.451 110.609 111.474C110.576 111.429 110.556 111.378 110.549 111.325C110.543 111.271 110.55 111.217 110.57 111.166C110.607 111.088 110.673 111.026 110.755 110.992C110.837 110.957 110.93 110.953 111.015 110.98C111.101 111.011 111.171 111.071 111.213 111.148C111.631 112.025 112.354 112.74 113.26 113.174L114.678 109.714C112.916 108.604 112.395 107.64 112.891 106.428C113.387 105.217 114.906 104.68 116.483 105.223L116.674 104.764C116.689 104.72 116.714 104.679 116.747 104.645C116.78 104.611 116.821 104.584 116.866 104.566C116.912 104.548 116.961 104.54 117.01 104.542C117.059 104.544 117.107 104.556 117.151 104.578ZM114.983 109.093L116.337 105.777C115.065 105.343 113.978 105.747 113.616 106.621C113.253 107.495 113.482 108.122 114.983 109.093ZM115.243 110.039L113.87 113.397C115.142 113.843 116.28 113.445 116.661 112.523C117.043 111.6 116.795 111.004 115.243 110.039Z" fill="black"/>
</g>
<path d="M86.3096 79.47C92.5911 77.8545 105.885 76.6247 114.735 79.9041C120.718 82.1224 129.206 102.335 126.103 104.716C123 107.097 120.381 104.855 116.948 101.099C115.676 99.7307 110.692 90.7789 108.009 91.1647C104.143 91.7132 94.8545 96.9819 94.8545 96.9819L86.3096 79.47Z" fill="#DD6A57"/>
<path d="M126.763 103.3C127.717 98.7121 125.091 93.558 122.173 88.7476C122.122 88.6752 122.001 88.7476 122.046 88.8078C122.79 90.0135 126.687 98.7664 126.668 103.306C126.668 103.366 126.751 103.354 126.763 103.3Z" fill="#263238"/>
<path d="M86.3096 79.47C92.5911 77.8545 105.885 76.6247 114.735 79.9041C120.718 82.1224 124.126 101.551 121.023 103.932C117.921 106.314 113.973 103.299 111.143 98.3624C110.228 96.7649 108.6 89.9229 105.936 90.2846C102.071 90.8392 92.5848 92.2799 92.5848 92.2799L86.3096 79.47Z" fill="#DD6A57"/>
<path d="M98.2622 91.2435C99.2604 90.9963 99.61 90.9059 100.615 90.6708C101.619 90.4357 102.617 90.2247 103.635 90.068C104.511 89.8618 105.418 89.7986 106.318 89.8811C107.159 90.0622 107.916 90.498 108.473 91.1229C109.789 92.4853 110.253 94.4685 110.832 96.1805C111.467 98.0975 113.152 101.726 115.517 103.378C116.142 103.858 116.865 104.209 117.641 104.409C118.209 104.584 118.815 104.622 119.402 104.517C121.786 103.818 122.263 101.093 122.237 98.845C122.187 94.6253 120.775 90.4056 119.16 86.5536C118.766 85.6071 118.347 84.6667 117.927 83.7263C117.521 82.6205 116.87 81.6094 116.02 80.7605C114.525 79.4524 110.685 78.7772 109.496 78.5542C109.407 78.5542 109.452 78.4095 109.541 78.4276C110.984 78.6747 114.971 78.8737 117.285 81.08C118.124 81.8878 118.556 83.0331 119.027 84.0579C119.497 85.0827 120.019 86.222 120.464 87.3252C121.354 89.457 122.066 91.652 122.594 93.8898C123.07 96.0117 123.49 98.3688 123.115 100.521C122.791 102.396 121.424 104.282 119.446 104.837C117.787 105.313 116.134 104.343 115.409 103.866C114.698 103.393 114.056 102.831 113.502 102.197C112.36 100.688 111.336 99.1023 110.437 97.4525C109.598 95.8249 109.223 93.9682 108.244 92.4129C108.026 92.0343 107.73 91.7006 107.374 91.4315C107.018 91.1624 106.609 90.9632 106.171 90.8456C105.282 90.719 104.378 90.719 103.488 90.8456C101.776 90.9104 100.073 91.1243 98.4021 91.4846C97.9634 91.5871 97.8426 91.3279 98.2622 91.2435Z" fill="#263238"/>
<path d="M81.4707 80.6335C83.1492 79.6931 92.724 74.0025 96.4878 73.0018C100.252 72.0011 114.964 70.066 117.907 73.2429C121.608 77.2396 110.558 80.5732 105.611 81.604C100.665 82.6349 96.3035 87.8854 96.3035 87.8854L81.4707 80.6335Z" fill="#DD6A57"/>
<path d="M113.241 79.3976C111.583 79.6848 109.94 80.051 108.32 80.4948C106.754 80.8134 105.216 81.2426 103.717 81.7788C102.284 82.4123 100.97 83.2635 99.8263 84.2987C99.2477 84.799 98.7137 85.3235 98.186 85.866C97.6583 86.4086 97.0861 87.1079 96.5012 87.6745C96.4376 87.7348 96.5012 87.8373 96.5965 87.771C97.7183 86.7498 98.9075 85.7974 100.157 84.9196C101.426 83.9846 102.812 83.2011 104.283 82.5866C107.214 81.381 110.374 80.7781 113.311 79.5725C113.432 79.5423 113.356 79.3796 113.241 79.3976Z" fill="#263238"/>
<path d="M120.265 104.18C121.397 104.782 122.675 105.385 124.016 105.331C124.59 105.316 125.145 105.14 125.612 104.825C125.856 104.657 126.071 104.453 126.248 104.222C126.459 103.988 126.576 103.691 126.579 103.384C126.579 103.299 126.699 103.305 126.68 103.384C126.65 103.555 126.633 103.729 126.629 103.902C126.603 104.047 126.56 104.188 126.502 104.324C126.391 104.594 126.225 104.84 126.013 105.048C125.542 105.504 124.921 105.796 124.252 105.874C122.669 106.078 121.283 105.271 120.195 104.282C120.188 104.278 120.182 104.272 120.177 104.265C120.173 104.259 120.169 104.251 120.167 104.244C120.166 104.236 120.166 104.228 120.167 104.22C120.169 104.212 120.172 104.204 120.176 104.198C120.181 104.191 120.187 104.185 120.194 104.181C120.201 104.176 120.209 104.173 120.217 104.171C120.225 104.169 120.234 104.169 120.242 104.171C120.25 104.172 120.258 104.175 120.265 104.18Z" fill="#263238"/>
<path d="M94.7714 89.7541C93.3892 91.6453 92.1363 93.6186 91.0203 95.6618C89.9538 97.6933 89.2002 99.8594 88.7823 102.094C88.3818 104.505 88.5916 106.916 88.6488 109.376C88.702 110.537 88.6531 111.701 88.5026 112.854C88.3476 113.859 88.079 114.845 87.7015 115.796C86.7885 117.936 85.3265 119.825 83.4481 121.294C83.3782 121.354 83.4481 121.462 83.5499 121.414C85.3262 120.247 86.8106 118.724 87.8982 116.954C88.9858 115.183 89.65 113.207 89.8441 111.166C90.073 108.671 89.6279 106.169 89.8441 103.667C90.0664 101.39 90.5963 99.1492 91.4208 97C92.3246 94.4915 93.4763 92.0694 94.8604 89.7662C94.8612 89.7606 94.8609 89.755 94.8594 89.7496C94.858 89.7442 94.8554 89.7391 94.8519 89.7346C94.8483 89.7301 94.8439 89.7263 94.8388 89.7235C94.8337 89.7206 94.8281 89.7187 94.8223 89.718C94.8104 89.7164 94.7985 89.7193 94.7889 89.7261C94.7794 89.7328 94.7731 89.7429 94.7714 89.7541Z" fill="#263238"/>
<path d="M71.5468 85.9866C66.6086 88.8427 61.9052 92.0488 57.477 95.5775C52.9972 99.0439 48.9448 102.979 45.3971 107.308C43.4344 109.763 41.7188 112.387 40.2728 115.145C40.241 115.199 40.3236 115.242 40.3618 115.187C41.8373 112.847 43.4749 110.601 45.2636 108.466C47.034 106.346 48.9251 104.32 50.9284 102.395C55.0253 98.5223 59.4223 94.9456 64.0827 91.6953C66.7021 89.8266 69.1054 88.0422 71.7121 86.1675C71.9537 85.9866 71.8265 85.8178 71.5468 85.9866Z" fill="#263238"/>
<path d="M145.004 201.24C144.959 201.487 144.908 201.734 144.857 201.987C144.902 201.74 144.953 201.487 144.997 201.24H145.004Z" fill="#EBEBEB"/>
<path d="M44.1506 134.598C35.5612 145.624 26.6094 158.422 24.4414 172.25C24.4414 172.455 24.772 172.528 24.8229 172.317C25.8146 168.546 27.0894 164.847 28.6376 161.249C34.2833 159.772 39.821 158.566 42.7901 153.249C45.81 147.788 45.4285 140.669 44.8563 134.719C44.7801 134.399 44.3159 134.381 44.1506 134.598Z" fill="#F66D1D"/>
<path d="M28.6872 161.171C32.5464 152.966 37.4991 144.726 43.7934 137.974C43.8379 137.926 43.9015 137.974 43.8633 138.04C39.7434 142.863 36.609 148.083 33.5509 153.406C36.3929 150.67 39.5082 148.222 42.2039 145.316C42.2548 145.262 42.3438 145.316 42.2929 145.401C39.6163 148.415 36.698 151.749 33.2139 154.003C32.273 155.635 31.3278 157.272 30.3783 158.916C30.6136 158.79 30.8552 158.681 31.0968 158.566C31.1349 158.566 31.1731 158.609 31.1349 158.627C30.8679 158.753 30.6009 158.892 30.3275 159C29.8761 159.778 29.431 160.55 28.9605 161.327C28.8588 161.466 28.6045 161.315 28.6872 161.171Z" fill="#263238"/>
<path d="M31.5602 158.277C33.8694 157.055 36.0719 155.66 38.147 154.105C38.2042 154.063 38.2868 154.135 38.2296 154.184C36.2141 155.822 34.0086 157.238 31.6556 158.403C31.5475 158.482 31.4522 158.337 31.5602 158.277Z" fill="#263238"/>
<path d="M23.4354 170.213C23.4354 170.382 23.7533 170.376 23.7469 170.213C23.7914 165.655 23.7469 161.08 23.8232 156.505C25.0566 154.154 27.6951 152.852 29.5452 150.965C30.8654 149.584 32.0151 148.065 32.9721 146.438C35.1818 142.549 36.5338 138.275 36.9457 133.875C37.4543 129.004 35.5025 112.933 33.3345 113.487C32.2155 113.777 28.5788 121.74 27.6124 124.374C26.0497 128.716 24.9069 133.183 24.1983 137.721C22.4309 148.403 22.5771 159.41 23.4354 170.213Z" fill="#F66D1D"/>
<path d="M23.3971 150.549C23.6578 144.786 25.031 138.969 26.3089 133.381C27.6886 127.352 29.3034 121.692 32.5713 116.321C32.6349 116.218 32.7875 116.321 32.7366 116.411C30.5555 120.587 28.8669 124.978 27.7013 129.504C27.9238 129.179 28.1908 128.871 28.4133 128.564C28.5023 128.443 28.7122 128.564 28.6295 128.685C28.3367 129.17 27.9938 129.626 27.6059 130.047C27.5989 130.05 27.5913 130.051 27.5837 130.051C27.576 130.051 27.5684 130.05 27.5614 130.047C26.4361 134.351 25.6541 138.752 24.942 143.146L25.0946 142.977C25.1022 142.971 25.1118 142.968 25.1217 142.967C25.1317 142.967 25.1415 142.97 25.1495 142.975C25.1576 142.981 25.1635 142.989 25.1662 142.998C25.1689 143.007 25.1683 143.017 25.1645 143.026C25.0819 143.17 24.9802 143.315 24.8912 143.46C24.5415 145.69 24.2172 147.914 23.893 150.121C28.1018 146.703 31.6812 142.73 33.6966 137.805C33.6966 137.805 33.7411 137.805 33.7348 137.805C31.7575 142.911 28.6486 147.45 23.8549 150.555L23.5878 152.333C23.5878 152.454 23.3653 152.424 23.3653 152.303C23.3653 151.779 23.3653 151.254 23.4162 150.73C23.3335 150.687 23.3335 150.603 23.3971 150.549Z" fill="#263238"/>
<path d="M25.3686 142.2C28.5475 137.673 31.5546 133.278 33.9006 128.275C33.9006 128.22 34.0278 128.275 34.0023 128.317C32.0315 133.29 29.2659 138.324 25.5339 142.314C25.4577 142.399 25.3051 142.29 25.3686 142.2Z" fill="#263238"/>
<path d="M29.6221 127.159C30.9445 124.935 32.3432 122.771 33.5894 120.528C33.6275 120.468 33.7165 120.528 33.6911 120.583C32.6689 122.948 31.3724 125.198 29.8256 127.292C29.7366 127.413 29.5458 127.286 29.6221 127.159Z" fill="#263238"/>
<path d="M29.1069 128.124V128.16C29.1069 128.16 29.0554 128.124 29.1069 128.124Z" fill="#263238"/>
<path d="M20.1546 157.023C20.1034 160.04 19.7371 163.045 19.0611 165.993C19.112 166.318 19.1565 166.644 19.2073 166.976C20.1917 163.71 20.7616 160.344 20.9049 156.951C20.9333 156.904 20.9483 156.851 20.9483 156.797C20.9483 156.743 20.9333 156.69 20.9049 156.643C21.0457 152.102 20.6942 147.559 19.8558 143.086C18.3681 134.713 15.1193 126.683 8.9649 120.408C8.91406 120.366 8.85387 120.336 8.78894 120.32C8.72402 120.304 8.6561 120.303 8.5904 120.316C8.5247 120.328 8.46297 120.355 8.40996 120.394C8.35695 120.433 8.31407 120.483 8.28462 120.54C5.79871 126.532 6.66338 133.676 8.78053 139.65C9.93176 142.886 11.5768 145.944 13.6633 148.728C15.7741 151.567 18.4698 153.937 20.1546 157.023Z" fill="#F66D1D"/>
<path d="M9.69067 123.235C15.5271 132.235 19.5834 142.857 20.0793 153.46C20.0793 153.653 19.755 153.702 19.7296 153.509C19.5897 152.556 19.4371 151.61 19.2782 150.669C16.8686 148.475 14.3891 146.16 12.6598 143.436C12.6598 143.387 12.7043 143.333 12.7424 143.375C14.7476 145.702 16.8938 147.916 19.1701 150.006C18.7463 147.659 18.2482 145.351 17.676 143.08C17.5171 142.911 17.3645 142.736 17.2119 142.561C17.0593 142.387 17.2819 142.29 17.3836 142.399C17.4853 142.507 17.4789 142.501 17.5235 142.549C16.703 139.432 15.686 136.364 14.4781 133.362C12.9904 131.687 11.331 130.234 10.2502 128.208C10.2502 128.16 10.2947 128.124 10.3264 128.166C11.1975 129.324 12.0367 130.487 13.0221 131.56C13.4163 131.988 13.8487 132.392 14.2556 132.808C12.9094 129.555 11.3135 126.4 9.48086 123.368C9.46722 123.341 9.46412 123.311 9.47213 123.283C9.48014 123.255 9.49872 123.23 9.5244 123.214C9.55008 123.198 9.5811 123.191 9.6117 123.195C9.64229 123.199 9.67036 123.213 9.69067 123.235Z" fill="#263238"/>
<path d="M10.8718 134.309C12.7791 136.72 14.9027 139.011 16.6574 141.5C16.7083 141.573 16.6002 141.645 16.5366 141.591C14.2859 139.584 12.3786 136.847 10.7446 134.357C10.6938 134.303 10.8146 134.243 10.8718 134.309Z" fill="#263238"/>
<path d="M16.9243 142.055L17.0003 142.133C17.0572 142.187 16.9686 142.265 16.918 142.217L16.8357 142.139C16.7788 142.085 16.8674 142.007 16.9243 142.055Z" fill="#263238"/>
<path d="M0.553929 140.494C1.01805 145.111 3.58023 150.633 6.70825 154.19C8.08339 155.736 9.78306 156.995 11.6991 157.885C13.8608 158.898 16.1496 160.067 18.3621 160.899C19.4253 163.466 20.2155 166.128 20.7208 168.844C20.7971 168.615 20.867 168.374 20.937 168.139C19.5001 156.444 11.5211 146.437 1.31051 140.035C1.23139 139.985 1.13847 139.958 1.04314 139.957C0.94782 139.956 0.854244 139.981 0.773901 140.03C0.693559 140.078 0.629947 140.148 0.590871 140.23C0.551795 140.313 0.538954 140.404 0.553929 140.494Z" fill="#F66D1D"/>
<path d="M4.07593 143.948C4.006 143.888 4.07594 143.767 4.18402 143.821C9.79273 147.778 14.2652 153.005 17.192 159.024C17.262 159.181 17.0331 159.32 16.9377 159.163C16.4609 158.373 15.9777 157.608 15.4882 156.854C13.1548 156.438 10.9487 154.883 9.21938 153.406C9.17487 153.37 9.21938 153.304 9.28932 153.346C10.18 154.113 11.169 154.772 12.233 155.305C13.1866 155.763 14.2102 156.052 15.1957 156.42C14.331 155.118 13.4346 153.87 12.4936 152.665C9.98064 151.756 7.6238 150.498 5.50008 148.933C5.43014 148.885 5.50008 148.782 5.56365 148.825C7.66722 150.033 9.83607 151.135 12.0613 152.128C10.6294 150.348 9.08594 148.651 7.4392 147.046C6.64448 146.649 5.8434 146.251 5.07411 145.841C5.01053 145.811 5.07411 145.708 5.12497 145.726C5.76164 145.942 6.3697 146.227 6.93694 146.576C6.04049 145.672 5.09318 144.798 4.07593 143.948Z" fill="#263238"/>
<path d="M4.29312 147.987C4.43297 148.063 4.56492 148.152 4.68723 148.252C4.72537 148.282 4.68723 148.33 4.63638 148.312C4.4948 148.25 4.35875 148.178 4.22955 148.095C4.15963 148.053 4.2232 147.944 4.29312 147.987Z" fill="#263238"/>
<path d="M36.8698 194.169H8.89551L11.1525 170.014L11.6484 164.685H34.1169L34.6128 170.014L36.8698 194.169Z" fill="#455A64"/>
<path d="M34.6118 170.014H11.1514L11.6473 164.685H34.1158L34.6118 170.014Z" fill="#263238"/>
<path d="M35.4587 160.965H10.3135V166.24H35.4587V160.965Z" fill="#455A64"/>
<path d="M77.6794 148.005C77.8892 146.98 78.0163 146.063 78.1244 145.087C78.2325 144.11 78.2834 143.14 78.277 142.145C78.2822 141.123 78.1885 140.101 77.9973 139.095C77.7964 137.929 77.3037 136.825 76.5604 135.876C76.0973 135.339 75.5039 134.918 74.8311 134.646C74.4952 134.512 74.1427 134.419 73.7821 134.369C73.4454 134.322 73.1045 134.308 72.7648 134.327C71.5077 134.417 70.3108 134.874 69.338 135.635C68.4635 136.299 67.7207 137.105 67.1446 138.016C66.5451 138.913 66.1368 139.912 65.943 140.958C65.8151 141.582 65.8678 142.228 66.0955 142.826C66.2525 143.213 66.5297 143.545 66.8903 143.779C67.2331 143.994 67.6304 144.119 68.041 144.141C68.4635 144.161 68.8831 144.064 69.249 143.863C69.5632 143.675 69.8301 143.424 70.031 143.128C70.3494 142.652 70.5654 142.122 70.6668 141.567C70.8482 140.581 70.8482 139.574 70.6668 138.589C70.5071 137.602 70.1279 136.659 69.5542 135.822C69.2477 135.378 68.8335 135.01 68.3462 134.749C67.8419 134.488 67.2592 134.396 66.6932 134.489C65.6792 134.705 64.7614 135.215 64.0674 135.948C62.7503 137.324 61.6999 138.91 60.9648 140.632C61.8281 139.001 62.9857 137.526 64.3853 136.274C65.0382 135.672 65.8749 135.282 66.7758 135.159C67.1795 135.152 67.5761 135.259 67.9156 135.466C68.2551 135.673 68.5222 135.971 68.6832 136.322C69.0884 137.071 69.3244 137.893 69.3761 138.733C69.4511 139.571 69.3759 140.415 69.1536 141.229C69.0601 141.579 68.8961 141.909 68.6704 142.199C68.6 142.286 68.5083 142.354 68.4034 142.398C68.344 142.42 68.2784 142.42 68.219 142.398C68.13 142.398 68.0283 142.332 68.0156 142.302C67.9892 142.259 67.9699 142.212 67.9584 142.163C67.9147 141.881 67.9364 141.593 68.0219 141.319C68.5172 139.822 69.5352 138.53 70.9084 137.654C71.4639 137.273 72.1298 137.062 72.8157 137.051C72.9615 137.059 73.1062 137.079 73.248 137.112C73.3633 137.141 73.4744 137.183 73.5786 137.238C73.7769 137.349 73.943 137.504 74.0618 137.69C74.3992 138.271 74.5968 138.916 74.6404 139.577C74.7152 140.379 74.7152 141.186 74.6404 141.988C74.5656 142.842 74.4447 143.691 74.278 144.532C74.1127 145.37 73.9029 146.256 73.6422 147.022L77.6794 148.005Z" fill="#F66D1D"/>
<path d="M80.9033 192.794C83.7071 196.55 83.1349 208.021 84.8324 209.631C86.53 211.24 103.906 211.066 105.101 210.119C106.296 209.173 105.737 205.122 107.008 204.459C107.549 204.193 80.9033 192.794 80.9033 192.794Z" fill="#F66D1D"/>
<path d="M155.188 192.981C151.684 197.804 153.579 208.051 151.881 209.631C150.184 211.21 132.808 211.066 131.613 210.119C130.418 209.173 130.977 204.905 130.284 204.091C129.922 203.663 155.188 192.981 155.188 192.981Z" fill="#F66D1D"/>
<path d="M116.882 123.458C81.914 123.458 68.4863 149.433 68.4863 164.636C68.4863 179.634 78.6588 205.122 116.882 205.122C155.105 205.122 167.776 183.529 167.776 164.293C167.776 145.057 152.238 123.458 116.882 123.458Z" fill="#F66D1D"/>
<path d="M126.755 125.339C126.755 125.339 142.738 113.716 160.051 115.091C166.008 115.567 156.115 127.816 155.931 137.395L126.755 125.339Z" fill="#F66D1D"/>
<path d="M164.475 149.295C165.238 151.471 172.181 149.705 173.93 151.103C176.682 153.273 175.92 180.153 173.402 182.317C171.99 183.523 164.119 182.251 161.907 183.728C159.694 185.205 164.475 149.295 164.475 149.295Z" fill="#F66D1D"/>
<path opacity="0.1" d="M77.6794 148.005C77.8892 146.98 78.0163 146.063 78.1244 145.087C78.2325 144.11 78.2834 143.14 78.277 142.145C78.2822 141.123 78.1885 140.101 77.9973 139.095C77.7964 137.929 77.3037 136.825 76.5604 135.876C76.0973 135.339 75.5039 134.918 74.8311 134.646C74.4952 134.512 74.1427 134.419 73.7821 134.369C73.4454 134.322 73.1045 134.308 72.7648 134.327C71.5077 134.417 70.3108 134.874 69.338 135.635C68.4635 136.299 67.7207 137.105 67.1446 138.016C66.5451 138.913 66.1368 139.912 65.943 140.958C65.8151 141.582 65.8678 142.228 66.0955 142.826C66.2525 143.213 66.5297 143.545 66.8903 143.779C67.2331 143.994 67.6304 144.119 68.041 144.141C68.4635 144.161 68.8831 144.064 69.249 143.863C69.5632 143.675 69.8301 143.424 70.031 143.128C70.3494 142.652 70.5654 142.122 70.6668 141.567C70.8482 140.581 70.8482 139.574 70.6668 138.589C70.5071 137.602 70.1279 136.659 69.5542 135.822C69.2477 135.378 68.8335 135.01 68.3462 134.749C67.8419 134.488 67.2592 134.396 66.6932 134.489C65.6792 134.705 64.7614 135.215 64.0674 135.948C62.7503 137.324 61.6999 138.91 60.9648 140.632C61.8281 139.001 62.9857 137.526 64.3853 136.274C65.0382 135.672 65.8749 135.282 66.7758 135.159C67.1795 135.152 67.5761 135.259 67.9156 135.466C68.2551 135.673 68.5222 135.971 68.6832 136.322C69.0884 137.071 69.3244 137.893 69.3761 138.733C69.4511 139.571 69.3759 140.415 69.1536 141.229C69.0601 141.579 68.8961 141.909 68.6704 142.199C68.6 142.286 68.5083 142.354 68.4034 142.398C68.344 142.42 68.2784 142.42 68.219 142.398C68.13 142.398 68.0283 142.332 68.0156 142.302C67.9892 142.259 67.9699 142.212 67.9584 142.163C67.9147 141.881 67.9364 141.593 68.0219 141.319C68.5172 139.822 69.5352 138.53 70.9084 137.654C71.4639 137.273 72.1298 137.062 72.8157 137.051C72.9615 137.059 73.1062 137.079 73.248 137.112C73.3633 137.141 73.4744 137.183 73.5786 137.238C73.7769 137.349 73.943 137.504 74.0618 137.69C74.3992 138.271 74.5968 138.916 74.6404 139.577C74.7152 140.379 74.7152 141.186 74.6404 141.988C74.5656 142.842 74.4447 143.691 74.278 144.532C74.1127 145.37 73.9029 146.256 73.6422 147.022L77.6794 148.005Z" fill="black"/>
<path opacity="0.1" d="M80.9033 192.794C83.7071 196.55 83.1349 208.021 84.8324 209.631C86.53 211.24 103.906 211.066 105.101 210.119C106.296 209.173 105.737 205.122 107.008 204.459C107.549 204.193 80.9033 192.794 80.9033 192.794Z" fill="black"/>
<path opacity="0.1" d="M155.188 192.981C151.684 197.804 153.579 208.051 151.881 209.631C150.184 211.21 132.808 211.066 131.613 210.119C130.418 209.173 130.977 204.905 130.284 204.091C129.922 203.663 155.188 192.981 155.188 192.981Z" fill="black"/>
<path opacity="0.3" d="M107.034 204.459C106.831 204.602 106.66 204.783 106.531 204.99C106.402 205.197 106.318 205.426 106.284 205.664C98.2558 204.782 90.4075 202.79 82.9887 199.751C82.5818 196.954 82.0032 194.289 80.9033 192.812C80.9033 192.8 107.549 204.199 107.034 204.459Z" fill="black"/>
<path opacity="0.3" d="M155.187 192.981C153.884 194.789 153.325 197.315 153.051 199.889C145.936 202.878 138.395 204.854 130.672 205.755C130.682 205.179 130.552 204.61 130.29 204.091C129.915 203.663 155.187 192.981 155.187 192.981Z" fill="black"/>
<path opacity="0.1" d="M116.882 123.458C81.914 123.458 68.4863 149.433 68.4863 164.636C68.4863 179.634 78.6588 205.122 116.882 205.122C155.105 205.122 167.776 183.529 167.776 164.293C167.776 145.057 152.238 123.458 116.882 123.458Z" fill="black"/>
<path opacity="0.1" d="M126.755 125.339C126.755 125.339 142.738 113.716 160.051 115.091C166.008 115.567 156.115 127.816 155.931 137.395L126.755 125.339Z" fill="black"/>
<path opacity="0.3" d="M149.255 132.705C149.154 133.308 154.672 135.55 155.244 135.207C155.817 134.863 156.389 127.328 160.89 119.298C161.551 118.117 150.323 126.206 149.255 132.705Z" fill="black"/>
<path opacity="0.3" d="M152.727 162.557C153.26 162.479 153.759 162.26 154.166 161.923C154.572 161.587 154.869 161.148 155.022 160.658C154.971 161.261 154.777 161.845 154.455 162.367C154.132 162.889 153.689 163.335 153.159 163.672C153.083 163.72 153.121 163.859 153.223 163.828C156.281 162.737 155.951 158.644 154.876 156.034C154.819 155.889 154.762 155.745 154.692 155.606C154.005 154.093 152.784 152.996 151.309 153.195C146.369 153.87 148.149 163.183 152.727 162.557Z" fill="black"/>
<path opacity="0.1" d="M164.475 149.295C165.238 151.471 172.181 149.705 173.93 151.103C176.682 153.273 175.92 180.153 173.402 182.317C171.99 183.523 164.119 182.251 161.907 183.728C159.694 185.205 164.475 149.295 164.475 149.295Z" fill="black"/>
<path opacity="0.3" d="M174.324 166.035C174.324 172.582 173.746 177.893 173.053 177.893C172.36 177.893 171.781 172.582 171.781 166.035C171.781 159.488 172.353 154.177 173.053 154.177C173.752 154.177 174.324 159.488 174.324 166.035Z" fill="black"/>
<path opacity="0.3" d="M103.314 132.072C103.429 132.036 115.229 128.401 126.202 131.246L127.296 127.454C115.076 124.284 102.5 128.178 101.998 128.34L103.308 132.072L102.672 130.209L103.314 132.072Z" fill="black"/>
<path d="M86.9099 189.147C71.1491 171.972 80.7937 152.031 81.2324 151.169C81.5019 150.588 81.5241 149.931 81.2945 149.335C81.0649 148.739 80.6011 148.25 80.0002 147.971C79.3993 147.691 78.7077 147.643 78.0701 147.836C77.4324 148.028 76.898 148.447 76.5786 149.005C74.4495 153.529 73.1899 158.378 72.8593 163.322C72.1027 174.245 75.911 184.276 84.939 191.106C87.6664 193.168 88.9571 191.359 86.9099 189.147Z" fill="white"/>
<path d="M80.0703 143.55C80.0691 144.08 80.2335 144.598 80.5429 145.039C80.8523 145.479 81.2928 145.824 81.8084 146.027C82.3241 146.231 82.8919 146.284 83.4399 146.182C83.9878 146.079 84.4914 145.825 84.8868 145.451C85.2822 145.077 85.5517 144.6 85.6611 144.08C85.7705 143.561 85.715 143.022 85.5016 142.533C85.2881 142.044 84.9263 141.625 84.462 141.331C83.9976 141.037 83.4516 140.879 82.8931 140.879C82.1455 140.879 81.4285 141.161 80.8993 141.661C80.3701 142.162 80.072 142.841 80.0703 143.55Z" fill="white"/>
<path d="M220.101 206.731H200.169V210.908H220.101V206.731Z" fill="#F6E01D"/>
<g opacity="0.1">
<path opacity="0.1" d="M200.99 207.111C201.411 208.191 201.411 209.377 200.99 210.457C200.569 209.377 200.569 208.191 200.99 207.111Z" fill="black"/>
<path opacity="0.1" d="M202.471 207.111C202.892 208.19 202.892 209.377 202.471 210.456C202.05 209.377 202.05 208.19 202.471 207.111Z" fill="black"/>
<path opacity="0.1" d="M203.197 207.111C203.618 208.19 203.618 209.377 203.197 210.456C202.776 209.377 202.776 208.19 203.197 207.111Z" fill="black"/>
<path opacity="0.1" d="M207.183 207.111C207.599 208.191 207.599 209.376 207.183 210.456C206.762 209.377 206.762 208.19 207.183 207.111Z" fill="black"/>
<path opacity="0.1" d="M208.257 207.111C208.476 207.645 208.583 208.214 208.575 208.786C208.586 209.357 208.478 209.925 208.257 210.456C208.033 209.926 207.924 209.358 207.939 208.786C207.93 208.214 208.038 207.645 208.257 207.111Z" fill="black"/>
<path opacity="0.1" d="M212.707 207.111C213.128 208.19 213.128 209.377 212.707 210.456C212.286 209.377 212.286 208.19 212.707 207.111Z" fill="black"/>
<path opacity="0.1" d="M213.739 207.111C214.16 208.19 214.16 209.377 213.739 210.456C213.318 209.377 213.318 208.19 213.739 207.111Z" fill="black"/>
<path opacity="0.1" d="M215.625 207.111C216.046 208.19 216.046 209.377 215.625 210.456C215.21 209.376 215.21 208.191 215.625 207.111Z" fill="black"/>
<path opacity="0.1" d="M211.849 207.111C212.07 207.646 212.176 208.218 212.161 208.792C212.175 209.364 212.067 209.932 211.843 210.462C211.622 209.931 211.514 209.363 211.525 208.792C211.517 208.217 211.628 207.646 211.849 207.111Z" fill="black"/>
<path opacity="0.1" d="M204.532 207.111C204.953 208.19 204.953 209.377 204.532 210.456C204.111 209.377 204.111 208.19 204.532 207.111Z" fill="black"/>
<path opacity="0.1" d="M209.675 207.111C210.096 208.19 210.096 209.377 209.675 210.456C209.451 209.926 209.342 209.358 209.357 208.786C209.345 208.213 209.453 207.644 209.675 207.111Z" fill="black"/>
<path opacity="0.1" d="M210.419 207.111C210.84 208.19 210.84 209.377 210.419 210.456C209.998 209.377 209.998 208.19 210.419 207.111Z" fill="black"/>
<path opacity="0.1" d="M218.093 207.111C218.312 207.645 218.42 208.214 218.411 208.786C218.422 209.357 218.314 209.925 218.093 210.456C217.868 209.926 217.76 209.358 217.775 208.786C217.763 208.213 217.871 207.644 218.093 207.111Z" fill="black"/>
<path opacity="0.1" d="M219.205 207.111C219.424 207.645 219.532 208.214 219.523 208.786C219.538 209.358 219.43 209.926 219.205 210.456C218.984 209.925 218.876 209.357 218.888 208.786C218.879 208.214 218.987 207.645 219.205 207.111Z" fill="black"/>
<path opacity="0.1" d="M216.503 207.111C216.924 208.19 216.924 209.377 216.503 210.456C216.082 209.377 216.082 208.19 216.503 207.111Z" fill="black"/>
<path opacity="0.1" d="M206.318 207.111C206.54 207.644 206.648 208.213 206.636 208.786C206.65 209.358 206.542 209.926 206.318 210.456C205.897 209.377 205.897 208.19 206.318 207.111Z" fill="black"/>
</g>
<path opacity="0.1" d="M220.101 206.731V207.617L200.163 208.214V206.731H220.101Z" fill="black"/>
<path d="M218.435 202.553H198.503V206.731H218.435V202.553Z" fill="#F6E01D"/>
<g opacity="0.1">
<path opacity="0.1" d="M217.539 206.279C217.115 205.202 217.115 204.016 217.539 202.939C217.963 204.016 217.963 205.202 217.539 206.279Z" fill="black"/>
<path opacity="0.1" d="M216.056 206.279C215.834 205.748 215.726 205.18 215.738 204.609C215.722 204.038 215.83 203.469 216.056 202.939C216.278 203.47 216.386 204.038 216.374 204.609C216.383 205.18 216.275 205.747 216.056 206.279Z" fill="black"/>
<path opacity="0.1" d="M215.338 206.279C214.915 205.202 214.915 204.016 215.338 202.939C215.762 204.016 215.762 205.202 215.338 206.279Z" fill="black"/>
<path opacity="0.1" d="M211.352 206.279C210.928 205.202 210.928 204.016 211.352 202.939C211.776 204.016 211.776 205.202 211.352 206.279Z" fill="black"/>
<path opacity="0.1" d="M210.252 206.279C210.034 205.747 209.926 205.18 209.935 204.609C209.922 204.038 210.03 203.47 210.252 202.939C210.478 203.469 210.586 204.038 210.57 204.609C210.582 205.18 210.474 205.748 210.252 206.279Z" fill="black"/>
<path opacity="0.1" d="M205.802 206.279C205.378 205.202 205.378 204.016 205.802 202.939C206.226 204.016 206.226 205.202 205.802 206.279Z" fill="black"/>
<path opacity="0.1" d="M204.791 206.279C204.569 205.748 204.461 205.18 204.473 204.609C204.457 204.038 204.566 203.469 204.791 202.939C205.215 204.016 205.215 205.202 204.791 206.279Z" fill="black"/>
<path opacity="0.1" d="M202.902 206.279C202.478 205.202 202.478 204.016 202.902 202.939C203.326 204.016 203.326 205.202 202.902 206.279Z" fill="black"/>
<path opacity="0.1" d="M206.679 206.279C206.46 205.747 206.352 205.18 206.361 204.609C206.345 204.038 206.453 203.469 206.679 202.939C206.901 203.47 207.009 204.038 206.997 204.609C207.006 205.18 206.898 205.747 206.679 206.279Z" fill="black"/>
<path opacity="0.1" d="M214.016 206.279C213.794 205.748 213.686 205.18 213.698 204.609C213.682 204.038 213.79 203.469 214.016 202.939C214.44 204.016 214.44 205.202 214.016 206.279Z" fill="black"/>
<path opacity="0.1" d="M208.853 206.279C208.429 205.202 208.429 204.016 208.853 202.939C209.277 204.016 209.277 205.202 208.853 206.279Z" fill="black"/>
<path opacity="0.1" d="M208.116 206.279C207.692 205.202 207.692 204.016 208.116 202.939C208.532 204.018 208.532 205.2 208.116 206.279Z" fill="black"/>
<path opacity="0.1" d="M200.435 206.279C200.011 205.202 200.011 204.016 200.435 202.939C200.661 203.469 200.769 204.038 200.753 204.609C200.765 205.18 200.657 205.748 200.435 206.279Z" fill="black"/>
<path opacity="0.1" d="M199.324 206.279C199.105 205.747 198.997 205.18 199.006 204.609C198.993 204.038 199.101 203.471 199.324 202.94C199.549 203.47 199.657 204.038 199.642 204.609C199.654 205.181 199.546 205.748 199.324 206.279Z" fill="black"/>
<path opacity="0.1" d="M202.025 206.279C201.601 205.202 201.601 204.016 202.025 202.939C202.449 204.016 202.449 205.202 202.025 206.279Z" fill="black"/>
<path opacity="0.1" d="M212.21 206.279C211.988 205.748 211.88 205.18 211.892 204.609C211.876 204.038 211.985 203.469 212.21 202.939C212.433 203.47 212.541 204.038 212.528 204.609C212.537 205.18 212.429 205.747 212.21 206.279Z" fill="black"/>
</g>
<path opacity="0.1" d="M218.435 202.553V203.44L198.503 204.036V202.553H218.435Z" fill="black"/>
<path d="M219.968 198.412H200.036V202.59H219.968V198.412Z" fill="#F6E01D"/>
<g opacity="0.1">
<path opacity="0.1" d="M200.862 198.792C201.283 199.872 201.283 201.058 200.862 202.138C200.441 201.058 200.441 199.872 200.862 198.792Z" fill="black"/>
<path opacity="0.1" d="M202.343 198.792C202.565 199.326 202.673 199.895 202.661 200.468C202.675 201.04 202.567 201.608 202.343 202.138C201.922 201.059 201.922 199.872 202.343 198.792Z" fill="black"/>
<path opacity="0.1" d="M203.068 198.792C203.489 199.872 203.489 201.059 203.068 202.138C202.647 201.059 202.647 199.872 203.068 198.792Z" fill="black"/>
<path opacity="0.1" d="M207.073 198.792C207.494 199.872 207.494 201.059 207.073 202.138C206.652 201.059 206.652 199.872 207.073 198.792Z" fill="black"/>
<path opacity="0.1" d="M208.128 198.792C208.347 199.326 208.455 199.895 208.446 200.468C208.457 201.039 208.349 201.607 208.128 202.138C207.904 201.608 207.795 201.04 207.81 200.468C207.798 199.895 207.906 199.326 208.128 198.792Z" fill="black"/>
<path opacity="0.1" d="M212.578 198.792C212.999 199.872 212.999 201.059 212.578 202.138C212.157 201.059 212.157 199.872 212.578 198.792Z" fill="black"/>
<path opacity="0.1" d="M213.609 198.792C214.03 199.872 214.03 201.059 213.609 202.138C213.188 201.059 213.188 199.872 213.609 198.792Z" fill="black"/>
<path opacity="0.1" d="M215.496 198.792C215.917 199.872 215.917 201.059 215.496 202.138C215.075 201.059 215.075 199.872 215.496 198.792Z" fill="black"/>
<path opacity="0.1" d="M211.72 198.792C211.939 199.326 212.047 199.895 212.038 200.468C212.052 201.04 211.944 201.608 211.72 202.138C211.499 201.607 211.391 201.039 211.402 200.468C211.393 199.895 211.501 199.326 211.72 198.792Z" fill="black"/>
<path opacity="0.1" d="M204.383 198.792C204.804 199.872 204.804 201.059 204.383 202.138C203.962 201.059 203.962 199.872 204.383 198.792Z" fill="black"/>
<path opacity="0.1" d="M209.546 198.792C209.967 199.872 209.967 201.059 209.546 202.138C209.125 201.059 209.125 199.872 209.546 198.792Z" fill="black"/>
<path opacity="0.1" d="M210.29 198.792C210.706 199.873 210.706 201.058 210.29 202.138C209.869 201.059 209.869 199.872 210.29 198.792Z" fill="black"/>
<path opacity="0.1" d="M217.964 198.792C218.385 199.872 218.385 201.059 217.964 202.138C217.74 201.608 217.631 201.04 217.646 200.468C217.634 199.895 217.742 199.326 217.964 198.792Z" fill="black"/>
<path opacity="0.1" d="M219.076 198.792C219.295 199.326 219.403 199.895 219.394 200.468C219.405 201.039 219.297 201.607 219.076 202.138C218.852 201.608 218.744 201.04 218.758 200.468C218.749 199.895 218.857 199.326 219.076 198.792Z" fill="black"/>
<path opacity="0.1" d="M216.375 198.792C216.797 199.872 216.797 201.059 216.375 202.138C215.954 201.059 215.954 199.872 216.375 198.792Z" fill="black"/>
<path opacity="0.1" d="M206.19 198.792C206.412 199.326 206.52 199.895 206.508 200.468C206.522 201.04 206.414 201.608 206.19 202.138C205.968 201.607 205.86 201.039 205.872 200.468C205.863 199.895 205.971 199.326 206.19 198.792Z" fill="black"/>
</g>
<path opacity="0.1" d="M219.974 198.412V199.298L200.036 199.895V198.412H219.974Z" fill="black"/>
<path d="M74.3235 204.218H54.3916V208.395H74.3235V204.218Z" fill="#F6E01D"/>
<g opacity="0.1">
<path opacity="0.1" d="M55.2123 204.573C55.6334 205.653 55.6334 206.839 55.2123 207.919C54.7912 206.839 54.7912 205.653 55.2123 204.573Z" fill="black"/>
<path opacity="0.1" d="M56.6993 204.573C56.9177 205.105 57.0257 205.672 57.0172 206.243C57.0293 206.816 56.9213 207.385 56.6993 207.919C56.4742 207.386 56.3661 206.816 56.3813 206.243C56.3697 205.672 56.4778 205.104 56.6993 204.573Z" fill="black"/>
<path opacity="0.1" d="M57.4253 204.573C57.6437 205.105 57.7516 205.672 57.7432 206.243C57.7584 206.816 57.6502 207.386 57.4253 207.919C57.2033 207.385 57.0952 206.816 57.1074 206.243C57.0989 205.672 57.2068 205.105 57.4253 204.573Z" fill="black"/>
<path opacity="0.1" d="M61.4047 204.573C61.8258 205.652 61.8258 206.839 61.4047 207.919C60.9836 206.839 60.9836 205.652 61.4047 204.573Z" fill="black"/>
<path opacity="0.1" d="M62.4847 204.573C62.9057 205.652 62.9057 206.839 62.4847 207.919C62.0637 206.839 62.0637 205.652 62.4847 204.573Z" fill="black"/>
<path opacity="0.1" d="M66.9358 204.573C67.1572 205.104 67.2653 205.672 67.2537 206.243C67.2689 206.816 67.1608 207.386 66.9358 207.919C66.5149 206.839 66.5149 205.652 66.9358 204.573Z" fill="black"/>
<path opacity="0.1" d="M67.9663 204.573C68.1847 205.105 68.2926 205.672 68.2842 206.243C68.2994 206.816 68.1912 207.386 67.9663 207.919C67.7443 207.385 67.6363 206.816 67.6484 206.243C67.6399 205.672 67.7478 205.105 67.9663 204.573Z" fill="black"/>
<path opacity="0.1" d="M69.8539 204.573C70.0753 205.104 70.1834 205.672 70.1718 206.243C70.187 206.816 70.0788 207.386 69.8539 207.919C69.4328 206.839 69.4328 205.652 69.8539 204.573Z" fill="black"/>
<path opacity="0.1" d="M66.0772 204.573C66.4983 205.652 66.4983 206.839 66.0772 207.919C65.8522 207.386 65.744 206.816 65.7592 206.243C65.7476 205.672 65.8557 205.104 66.0772 204.573Z" fill="black"/>
<path opacity="0.1" d="M58.7402 204.573C58.9586 205.105 59.0666 205.672 59.0581 206.243C59.0702 206.816 58.9622 207.385 58.7402 207.919C58.5152 207.386 58.4071 206.816 58.4223 206.243C58.4138 205.672 58.5218 205.105 58.7402 204.573Z" fill="black"/>
<path opacity="0.1" d="M63.9027 204.573C64.3238 205.652 64.3238 206.839 63.9027 207.919C63.4816 206.839 63.4816 205.652 63.9027 204.573Z" fill="black"/>
<path opacity="0.1" d="M64.6595 204.573C65.0805 205.652 65.0805 206.839 64.6595 207.919C64.2385 206.839 64.2385 205.652 64.6595 204.573Z" fill="black"/>
<path opacity="0.1" d="M72.3206 204.573C72.7417 205.652 72.7417 206.839 72.3206 207.919C71.8996 206.839 71.8996 205.652 72.3206 204.573Z" fill="black"/>
<path opacity="0.1" d="M73.434 204.573C73.8551 205.652 73.8551 206.839 73.434 207.919C73.0129 206.839 73.0129 205.652 73.434 204.573Z" fill="black"/>
<path opacity="0.1" d="M70.7308 204.573C70.9522 205.104 71.0602 205.672 71.0486 206.243C71.0638 206.816 70.9557 207.386 70.7308 207.919C70.3098 206.839 70.3098 205.652 70.7308 204.573Z" fill="black"/>
<path opacity="0.1" d="M60.5468 204.573C60.7653 205.105 60.8732 205.672 60.8647 206.243C60.8769 206.816 60.7688 207.385 60.5468 207.919C60.3219 207.386 60.2137 206.816 60.229 206.243C60.2173 205.672 60.3254 205.104 60.5468 204.573Z" fill="black"/>
</g>
<path opacity="0.1" d="M74.3298 204.218V205.104L54.3916 205.7V204.218H74.3298Z" fill="black"/>
<path d="M72.9627 200.04H53.0312V204.218H72.9627V200.04Z" fill="#F6E01D"/>
<g opacity="0.1">
<path opacity="0.1" d="M53.8504 200.42C54.0694 200.954 54.1774 201.523 54.1684 202.096C54.1827 202.667 54.0746 203.235 53.8504 203.765C53.6263 203.235 53.5181 202.667 53.5325 202.096C53.5235 201.523 53.6315 200.954 53.8504 200.42Z" fill="black"/>
<path opacity="0.1" d="M55.3302 200.419C55.7513 201.499 55.7513 202.685 55.3302 203.765C54.9147 202.685 54.9147 201.5 55.3302 200.419Z" fill="black"/>
<path opacity="0.1" d="M56.0628 200.419C56.4839 201.499 56.4839 202.685 56.0628 203.765C55.6418 202.685 55.6418 201.499 56.0628 200.419Z" fill="black"/>
<path opacity="0.1" d="M60.0419 200.419C60.463 201.499 60.463 202.685 60.0419 203.765C59.8177 203.234 59.7095 202.666 59.7239 202.095C59.7118 201.522 59.8199 200.952 60.0419 200.419Z" fill="black"/>
<path opacity="0.1" d="M61.1166 200.419C61.5377 201.499 61.5377 202.685 61.1166 203.765C60.6955 202.685 60.6955 201.499 61.1166 200.419Z" fill="black"/>
<path opacity="0.1" d="M65.5736 200.419C65.9947 201.499 65.9947 202.685 65.5736 203.765C65.1525 202.685 65.1525 201.499 65.5736 200.419Z" fill="black"/>
<path opacity="0.1" d="M66.6029 200.419C67.024 201.499 67.024 202.685 66.6029 203.765C66.1818 202.685 66.1818 201.499 66.6029 200.419Z" fill="black"/>
<path opacity="0.1" d="M68.4721 200.419C68.8932 201.499 68.8932 202.685 68.4721 203.765C68.051 202.685 68.051 201.499 68.4721 200.419Z" fill="black"/>
<path opacity="0.1" d="M64.7094 200.419C65.1305 201.499 65.1305 202.685 64.7094 203.765C64.2883 202.685 64.2883 201.499 64.7094 200.419Z" fill="black"/>
<path opacity="0.1" d="M57.3774 200.419C57.7985 201.499 57.7985 202.685 57.3774 203.765C56.9562 202.685 56.9562 201.499 57.3774 200.419Z" fill="black"/>
<path opacity="0.1" d="M62.5346 200.419C62.7566 200.952 62.8647 201.522 62.8525 202.095C62.8669 202.666 62.7588 203.234 62.5346 203.765C62.3131 203.234 62.2051 202.666 62.2167 202.095C62.2077 201.522 62.3156 200.953 62.5346 200.419Z" fill="black"/>
<path opacity="0.1" d="M63.2791 200.419C63.7002 201.499 63.7002 202.685 63.2791 203.765C63.055 203.234 62.9469 202.666 62.9612 202.095C62.9491 201.522 63.0572 200.952 63.2791 200.419Z" fill="black"/>
<path opacity="0.1" d="M70.9515 200.419C71.1735 200.952 71.2815 201.522 71.2694 202.095C71.2838 202.666 71.1757 203.234 70.9515 203.765C70.5305 202.685 70.5305 201.499 70.9515 200.419Z" fill="black"/>
<path opacity="0.1" d="M72.0648 200.419C72.4858 201.499 72.4858 202.685 72.0648 203.765C71.6438 202.685 71.6438 201.499 72.0648 200.419Z" fill="black"/>
<path opacity="0.1" d="M69.3695 200.419C69.7906 201.499 69.7906 202.685 69.3695 203.765C68.9484 202.685 68.9484 201.499 69.3695 200.419Z" fill="black"/>
<path opacity="0.1" d="M59.1772 200.419C59.5984 201.499 59.5984 202.685 59.1772 203.765C58.756 202.685 58.756 201.499 59.1772 200.419Z" fill="black"/>
</g>
<path opacity="0.1" d="M72.9627 200.04V200.926L53.0312 201.523V200.04H72.9627Z" fill="black"/>
<path d="M76.0393 191.721H56.1074V195.898H76.0393V191.721Z" fill="#F6E01D"/>
<g opacity="0.1">
<path opacity="0.1" d="M56.9281 192.101C57.3492 193.18 57.3492 194.367 56.9281 195.446C56.507 194.367 56.507 193.18 56.9281 192.101Z" fill="black"/>
<path opacity="0.1" d="M58.4157 192.101C58.6345 192.635 58.7424 193.204 58.7334 193.776C58.745 194.347 58.637 194.915 58.4157 195.446C58.1917 194.916 58.0836 194.348 58.0979 193.776C58.0858 193.203 58.1938 192.634 58.4157 192.101Z" fill="black"/>
<path opacity="0.1" d="M59.1405 192.101C59.3595 192.635 59.4674 193.204 59.4584 193.776C59.47 194.347 59.362 194.915 59.1405 195.446C58.9163 194.916 58.8082 194.348 58.8226 193.776C58.8136 193.204 58.9215 192.635 59.1405 192.101Z" fill="black"/>
<path opacity="0.1" d="M63.1204 192.101C63.3423 192.634 63.4504 193.203 63.4382 193.776C63.4526 194.348 63.3445 194.916 63.1204 195.446C62.6994 194.367 62.6994 193.18 63.1204 192.101Z" fill="black"/>
<path opacity="0.1" d="M64.2005 192.101C64.6215 193.18 64.6215 194.367 64.2005 195.446C63.7795 194.367 63.7795 193.18 64.2005 192.101Z" fill="black"/>
<path opacity="0.1" d="M68.6508 192.101C68.8728 192.634 68.9809 193.203 68.9688 193.776C68.9831 194.348 68.875 194.916 68.6508 195.446C68.4293 194.915 68.3213 194.347 68.3329 193.776C68.3239 193.204 68.4319 192.635 68.6508 192.101Z" fill="black"/>
<path opacity="0.1" d="M69.6803 192.101C69.8992 192.635 70.0071 193.204 69.9981 193.776C70.0097 194.347 69.9017 194.915 69.6803 195.446C69.4563 194.916 69.3482 194.348 69.3626 193.776C69.3536 193.204 69.4615 192.635 69.6803 192.101Z" fill="black"/>
<path opacity="0.1" d="M71.5697 192.101C71.7917 192.634 71.8997 193.203 71.8876 193.776C71.902 194.348 71.7938 194.916 71.5697 195.446C71.1486 194.367 71.1486 193.18 71.5697 192.101Z" fill="black"/>
<path opacity="0.1" d="M67.7934 192.101C68.2145 193.18 68.2145 194.367 67.7934 195.446C67.3723 194.367 67.3723 193.18 67.7934 192.101Z" fill="black"/>
<path opacity="0.1" d="M60.4559 192.101C60.6748 192.635 60.7827 193.204 60.7737 193.776C60.7853 194.347 60.6773 194.915 60.4559 195.446C60.2318 194.916 60.1236 194.348 60.138 193.776C60.129 193.204 60.2369 192.635 60.4559 192.101Z" fill="black"/>
<path opacity="0.1" d="M65.6124 192.101C66.0335 193.18 66.0335 194.367 65.6124 195.446C65.1969 194.366 65.1969 193.181 65.6124 192.101Z" fill="black"/>
<path opacity="0.1" d="M66.3568 192.101C66.7778 193.18 66.7778 194.367 66.3568 195.446C65.9358 194.367 65.9358 193.18 66.3568 192.101Z" fill="black"/>
<path opacity="0.1" d="M74.0365 192.101C74.4575 193.18 74.4575 194.367 74.0365 195.446C73.6154 194.367 73.6154 193.18 74.0365 192.101Z" fill="black"/>
<path opacity="0.1" d="M75.1488 192.101C75.5699 193.18 75.5699 194.367 75.1488 195.446C74.7277 194.367 74.7277 193.18 75.1488 192.101Z" fill="black"/>
<path opacity="0.1" d="M72.4467 192.101C72.6687 192.634 72.7768 193.203 72.7647 193.776C72.779 194.348 72.6709 194.916 72.4467 195.446C72.2252 194.915 72.1172 194.347 72.1288 193.776C72.1198 193.204 72.2278 192.635 72.4467 192.101Z" fill="black"/>
<path opacity="0.1" d="M62.2625 192.101C62.4814 192.635 62.5894 193.204 62.5804 193.776C62.592 194.347 62.4839 194.915 62.2625 195.446C62.0384 194.916 61.9303 194.348 61.9446 193.776C61.9325 193.203 62.0406 192.634 62.2625 192.101Z" fill="black"/>
</g>
<path opacity="0.1" d="M76.0393 191.721V192.607L56.1074 193.204V191.721H76.0393Z" fill="black"/>
<path d="M75.5371 187.543H55.6055V191.721H75.5371V187.543Z" fill="#F6E01D"/>
<g opacity="0.1">
<path opacity="0.1" d="M74.6462 191.269C74.2221 190.192 74.2221 189.007 74.6462 187.93C75.0619 189.008 75.0619 190.191 74.6462 191.269Z" fill="black"/>
<path opacity="0.1" d="M73.1597 191.269C72.9408 190.737 72.8328 190.17 72.8418 189.599C72.8292 189.028 72.9373 188.461 73.1597 187.93C73.3852 188.46 73.4934 189.028 73.4776 189.599C73.4865 190.17 73.3786 190.737 73.1597 191.269Z" fill="black"/>
<path opacity="0.1" d="M72.4346 191.269C72.2127 190.738 72.1046 190.171 72.1167 189.599C72.1009 189.028 72.2091 188.46 72.4346 187.93C72.657 188.461 72.7651 189.028 72.7525 189.599C72.7615 190.17 72.6535 190.737 72.4346 191.269Z" fill="black"/>
<path opacity="0.1" d="M68.4733 191.269C68.0493 190.192 68.0493 189.007 68.4733 187.93C68.8973 189.007 68.8973 190.192 68.4733 191.269Z" fill="black"/>
<path opacity="0.1" d="M67.3736 191.269C66.9497 190.192 66.9497 189.007 67.3736 187.93C67.7975 189.007 67.7975 190.192 67.3736 191.269Z" fill="black"/>
<path opacity="0.1" d="M62.9219 191.269C62.7 190.738 62.5919 190.171 62.6041 189.599C62.5882 189.028 62.6964 188.46 62.9219 187.93C63.3459 189.007 63.3459 190.192 62.9219 191.269Z" fill="black"/>
<path opacity="0.1" d="M61.8926 191.269C61.6707 190.738 61.5626 190.171 61.5748 189.599C61.5589 189.028 61.6671 188.46 61.8926 187.93C62.115 188.461 62.2231 189.028 62.2105 189.599C62.2195 190.17 62.1115 190.737 61.8926 191.269Z" fill="black"/>
<path opacity="0.1" d="M60.0046 191.269C59.5805 190.192 59.5805 189.007 60.0046 187.93C60.4287 189.007 60.4287 190.192 60.0046 191.269Z" fill="black"/>
<path opacity="0.1" d="M63.7808 191.269C63.5619 190.737 63.4539 190.17 63.4629 189.599C63.4503 189.028 63.5584 188.461 63.7808 187.93C64.0063 188.46 64.1145 189.028 64.0987 189.599C64.1108 190.171 64.0027 190.738 63.7808 191.269Z" fill="black"/>
<path opacity="0.1" d="M71.1183 191.269C70.8994 190.737 70.7914 190.17 70.8003 189.599C70.7845 189.028 70.8927 188.46 71.1183 187.93C71.3407 188.461 71.4488 189.028 71.4362 189.599C71.4452 190.17 71.3372 190.737 71.1183 191.269Z" fill="black"/>
<path opacity="0.1" d="M65.9303 191.269C65.5063 190.192 65.5063 189.007 65.9303 187.93C66.3543 189.007 66.3543 190.192 65.9303 191.269Z" fill="black"/>
<path opacity="0.1" d="M65.2174 191.269C64.7934 190.192 64.7934 189.007 65.2174 187.93C65.6414 189.007 65.6414 190.192 65.2174 191.269Z" fill="black"/>
<path opacity="0.1" d="M57.5378 191.269C57.1137 190.192 57.1137 189.007 57.5378 187.93C57.9619 189.007 57.9619 190.192 57.5378 191.269Z" fill="black"/>
<path opacity="0.1" d="M56.4255 191.269C56.0014 190.192 56.0014 189.006 56.4255 187.929C56.8496 189.006 56.8496 190.192 56.4255 191.269Z" fill="black"/>
<path opacity="0.1" d="M59.1276 191.269C58.7036 190.192 58.7036 189.007 59.1276 187.93C59.5516 189.007 59.5516 190.192 59.1276 191.269Z" fill="black"/>
<path opacity="0.1" d="M69.3121 191.269C69.0932 190.737 68.9852 190.17 68.9942 189.599C68.9815 189.028 69.0896 188.461 69.3121 187.93C69.5376 188.46 69.6458 189.028 69.63 189.599C69.639 190.17 69.531 190.737 69.3121 191.269Z" fill="black"/>
</g>
<path opacity="0.1" d="M75.5371 187.543V188.429L55.6055 189.026V187.543H75.5371Z" fill="black"/>
<path d="M74.3235 183.366H54.3916V187.543H74.3235V183.366Z" fill="#F6E01D"/>
<g opacity="0.1">
<path opacity="0.1" d="M55.211 183.751C55.6349 184.828 55.6349 186.014 55.211 187.091C54.7955 186.013 54.7955 184.83 55.211 183.751Z" fill="black"/>
<path opacity="0.1" d="M56.698 183.752C56.9169 184.284 57.0248 184.851 57.0158 185.422C57.028 185.993 56.9199 186.56 56.698 187.091C56.4739 186.561 56.3658 185.993 56.3802 185.422C56.3712 184.851 56.4792 184.284 56.698 183.752Z" fill="black"/>
<path opacity="0.1" d="M57.4243 183.752C57.6462 184.283 57.7543 184.85 57.7422 185.422C57.7566 185.993 57.6484 186.561 57.4243 187.091C57.2023 186.56 57.0943 185.993 57.1064 185.422C57.0974 184.851 57.2054 184.284 57.4243 183.752Z" fill="black"/>
<path opacity="0.1" d="M61.4039 183.752C61.8279 184.829 61.8279 186.014 61.4039 187.091C60.9799 186.014 60.9799 184.829 61.4039 183.752Z" fill="black"/>
<path opacity="0.1" d="M62.4849 183.752C62.9089 184.829 62.9089 186.014 62.4849 187.091C62.061 186.014 62.061 184.829 62.4849 183.752Z" fill="black"/>
<path opacity="0.1" d="M66.9343 183.752C67.3584 184.829 67.3584 186.014 66.9343 187.091C66.5102 186.014 66.5102 184.829 66.9343 183.752Z" fill="black"/>
<path opacity="0.1" d="M67.9643 183.752C68.1863 184.283 68.2943 184.85 68.2822 185.422C68.2966 185.993 68.1885 186.561 67.9643 187.091C67.7424 186.56 67.6343 185.993 67.6464 185.422C67.6375 184.851 67.7454 184.284 67.9643 183.752Z" fill="black"/>
<path opacity="0.1" d="M69.8532 183.752C70.2773 184.829 70.2773 186.014 69.8532 187.091C69.4291 186.014 69.4291 184.829 69.8532 183.752Z" fill="black"/>
<path opacity="0.1" d="M66.076 183.752C66.2949 184.284 66.4029 184.851 66.3939 185.422C66.406 185.993 66.2979 186.56 66.076 187.091C65.8519 186.561 65.7437 185.993 65.7581 185.422C65.746 184.85 65.8541 184.283 66.076 183.752Z" fill="black"/>
<path opacity="0.1" d="M58.7387 183.752C58.9575 184.284 59.0655 184.851 59.0565 185.422C59.0709 185.993 58.9628 186.561 58.7387 187.091C58.5168 186.56 58.4087 185.993 58.4208 185.422C58.4119 184.851 58.5198 184.284 58.7387 183.752Z" fill="black"/>
<path opacity="0.1" d="M63.9021 183.752C64.3261 184.829 64.3261 186.014 63.9021 187.091C63.478 186.014 63.478 184.829 63.9021 183.752Z" fill="black"/>
<path opacity="0.1" d="M64.6578 183.752C65.0817 184.829 65.0817 186.014 64.6578 187.091C64.2339 186.014 64.2339 184.829 64.6578 183.752Z" fill="black"/>
<path opacity="0.1" d="M72.32 183.752C72.7441 184.829 72.7441 186.014 72.32 187.091C71.8959 186.014 71.8959 184.829 72.32 183.752Z" fill="black"/>
<path opacity="0.1" d="M73.4323 183.752C73.8563 184.829 73.8563 186.014 73.4323 187.091C73.0083 186.014 73.0083 184.829 73.4323 183.752Z" fill="black"/>
<path opacity="0.1" d="M70.7312 183.752C71.1553 184.829 71.1553 186.014 70.7312 187.091C70.3071 186.014 70.3071 184.829 70.7312 183.752Z" fill="black"/>
<path opacity="0.1" d="M60.5448 183.752C60.7637 184.284 60.8716 184.851 60.8627 185.422C60.8748 185.993 60.7667 186.56 60.5448 187.091C60.3206 186.561 60.2125 185.993 60.2269 185.422C60.2179 184.851 60.3259 184.284 60.5448 183.752Z" fill="black"/>
</g>
<path opacity="0.1" d="M74.3298 183.366V184.258L54.3916 184.855V183.366H74.3298Z" fill="black"/>
<path d="M74.3235 195.898H54.3916V200.076H74.3235V195.898Z" fill="#F6E01D"/>
<g opacity="0.1">
<path opacity="0.1" d="M73.434 199.623C73.0129 198.544 73.0129 197.357 73.434 196.278C73.8551 197.357 73.8551 198.544 73.434 199.623Z" fill="black"/>
<path opacity="0.1" d="M71.9466 199.623C71.5256 198.544 71.5256 197.357 71.9466 196.278C72.3676 197.357 72.3676 198.544 71.9466 199.623Z" fill="black"/>
<path opacity="0.1" d="M71.2211 199.623C70.8 198.544 70.8 197.357 71.2211 196.278C71.4452 196.808 71.5533 197.376 71.539 197.948C71.5511 198.521 71.443 199.09 71.2211 199.623Z" fill="black"/>
<path opacity="0.1" d="M67.2411 199.623C67.0221 199.09 66.9142 198.52 66.9231 197.948C66.9088 197.376 67.0169 196.808 67.2411 196.278C67.4626 196.809 67.5706 197.377 67.559 197.948C67.568 198.52 67.46 199.09 67.2411 199.623Z" fill="black"/>
<path opacity="0.1" d="M66.1664 199.623C65.7453 198.544 65.7453 197.357 66.1664 196.278C66.5821 197.358 66.5821 198.543 66.1664 199.623Z" fill="black"/>
<path opacity="0.1" d="M61.7103 199.623C61.4914 199.09 61.3835 198.52 61.3924 197.948C61.3808 197.377 61.4889 196.809 61.7103 196.278C61.9344 196.808 62.0426 197.376 62.0282 197.948C62.0372 198.52 61.9292 199.09 61.7103 199.623Z" fill="black"/>
<path opacity="0.1" d="M60.6791 199.623C60.258 198.544 60.258 197.357 60.6791 196.278C60.9033 196.808 61.0115 197.376 60.9971 197.948C61.0092 198.521 60.9011 199.09 60.6791 199.623Z" fill="black"/>
<path opacity="0.1" d="M58.7918 199.623C58.5729 199.09 58.4649 198.52 58.4739 197.948C58.4595 197.376 58.5677 196.808 58.7918 196.278C59.0132 196.809 59.1213 197.377 59.1097 197.948C59.1186 198.52 59.0107 199.09 58.7918 199.623Z" fill="black"/>
<path opacity="0.1" d="M62.5686 199.623C62.1477 198.544 62.1477 197.357 62.5686 196.278C62.9896 197.357 62.9896 198.544 62.5686 199.623Z" fill="black"/>
<path opacity="0.1" d="M69.9047 199.623C69.4836 198.544 69.4836 197.357 69.9047 196.278C70.1288 196.808 70.2369 197.376 70.2226 197.948C70.2347 198.521 70.1266 199.09 69.9047 199.623Z" fill="black"/>
<path opacity="0.1" d="M64.7484 199.623C64.3273 198.544 64.3273 197.357 64.7484 196.278C65.1696 197.357 65.1696 198.544 64.7484 199.623Z" fill="black"/>
<path opacity="0.1" d="M64.0243 199.623C63.8023 199.09 63.6942 198.521 63.7063 197.948C63.692 197.376 63.8001 196.808 64.0243 196.278C64.2458 196.809 64.3538 197.377 64.3422 197.948C64.3512 198.52 64.2432 199.09 64.0243 199.623Z" fill="black"/>
<path opacity="0.1" d="M56.3315 199.623C55.9103 198.544 55.9103 197.357 56.3315 196.278C56.7526 197.357 56.7526 198.544 56.3315 199.623Z" fill="black"/>
<path opacity="0.1" d="M55.2123 199.624C54.7912 198.544 54.7912 197.358 55.2123 196.278C55.6334 197.358 55.6334 198.544 55.2123 199.624Z" fill="black"/>
<path opacity="0.1" d="M57.9148 199.623C57.6959 199.09 57.588 198.52 57.597 197.948C57.5826 197.376 57.6907 196.808 57.9148 196.278C58.1389 196.808 58.2471 197.376 58.2327 197.948C58.2417 198.52 58.1337 199.09 57.9148 199.623Z" fill="black"/>
<path opacity="0.1" d="M68.0989 199.623C67.678 198.544 67.678 197.357 68.0989 196.278C68.5198 197.357 68.5198 198.544 68.0989 199.623Z" fill="black"/>
</g>
<path opacity="0.1" d="M74.3298 195.898V196.784L54.3916 197.381V195.898H74.3298Z" fill="black"/>
<path d="M52.7322 193.819C65.8547 196.055 62.3833 214.483 49.2418 212.247C36.1003 210.011 39.5844 191.582 52.7322 193.819Z" fill="#F6E01D"/>
<path opacity="0.1" d="M52.7322 193.819C65.8547 196.055 62.3833 214.483 49.2418 212.247C36.1003 210.011 39.5844 191.582 52.7322 193.819Z" fill="black"/>
<path d="M51.4983 193.608C64.0041 195.736 60.5391 214.17 48.0079 212.036C35.4767 209.902 38.9735 191.48 51.4983 193.608Z" fill="#F6E01D"/>
<path opacity="0.1" d="M41.8223 203.259C41.8922 206.544 43.9076 209.721 48.3073 210.493C58.7024 212.259 61.5825 196.959 51.2001 195.193L50.9967 195.163C60.7306 197.014 57.9395 211.487 48.0275 209.8C46.3472 209.575 44.8041 208.796 43.6692 207.6C42.5344 206.404 41.8804 204.867 41.8223 203.259Z" fill="black"/>
<g opacity="0.1">
<path opacity="0.1" d="M50.8369 197.086C50.9201 197.109 50.9908 197.161 51.0346 197.231C51.0784 197.302 51.0918 197.386 51.0722 197.466L50.9387 197.972C51.7903 198.239 52.5371 198.743 53.0812 199.419C53.1278 199.462 53.1626 199.515 53.1826 199.574C53.2025 199.633 53.207 199.696 53.1957 199.756C53.169 199.841 53.1093 199.912 53.0289 199.956C52.9485 199.999 52.8535 200.012 52.7634 199.992C52.7184 199.982 52.676 199.963 52.6388 199.937C52.6016 199.912 52.5704 199.879 52.5472 199.841C52.0965 199.255 51.4757 198.807 50.7606 198.551L49.8324 202.089C51.7397 202.975 52.4137 203.898 52.0894 205.134C51.7334 206.478 50.2965 207.141 48.6181 206.797L48.3574 207.786C48.3522 207.83 48.3369 207.873 48.3128 207.912C48.2887 207.95 48.2562 207.983 48.2175 208.009C48.1787 208.034 48.1347 208.051 48.0884 208.059C48.042 208.067 47.9944 208.066 47.9487 208.055C47.903 208.044 47.8602 208.024 47.8233 207.997C47.7864 207.969 47.7562 207.934 47.7347 207.894C47.7132 207.854 47.7009 207.811 47.6986 207.766C47.6964 207.721 47.7042 207.677 47.7216 207.635L47.9823 206.635C46.8862 206.293 45.9434 205.611 45.3057 204.7C45.2675 204.659 45.2406 204.611 45.2273 204.558C45.2139 204.505 45.2147 204.45 45.2294 204.398C45.2533 204.316 45.3095 204.246 45.3865 204.202C45.4634 204.159 45.5551 204.145 45.6426 204.163C45.6876 204.171 45.7304 204.188 45.7677 204.213C45.8051 204.238 45.8362 204.27 45.8588 204.308C46.3909 205.128 47.203 205.752 48.1603 206.074L49.1076 202.457C47.2003 201.565 46.5645 200.649 46.9078 199.413C47.2512 198.177 48.6689 197.436 50.3092 197.785L50.4364 197.303C50.4615 197.225 50.517 197.16 50.5914 197.119C50.6658 197.079 50.7536 197.067 50.8369 197.086ZM49.2793 201.824L50.1821 198.37C48.9105 198.093 47.8361 198.623 47.6008 199.533C47.3656 200.444 47.658 201.022 49.2793 201.824ZM49.6608 202.734L48.7643 206.225C50.0994 206.514 51.1612 205.984 51.4155 205.019C51.6698 204.055 51.3074 203.512 49.6608 202.765V202.734Z" fill="black"/>
</g>
</svg>
