<svg width="338" height="398" viewBox="0 0 338 398" fill="none" xmlns="http://www.w3.org/2000/svg">
<mask id="mask0" mask-type="alpha" maskUnits="userSpaceOnUse" x="0" y="0" width="338" height="398">
<rect width="337.459" height="398" fill="#C4C4C4"/>
</mask>
<g mask="url(#mask0)">
<mask id="mask1" mask-type="alpha" maskUnits="userSpaceOnUse" x="-71" y="-77" width="475" height="475">
<circle cx="166.51" cy="160.859" r="237.096" fill="white"/>
</mask>
<g mask="url(#mask1)">
<path d="M173.197 218.935C173.197 218.935 16.123 213.847 16.123 297.472C16.123 392.16 47.3329 569.585 173.197 567.741C299.061 565.897 322.144 317.106 323.441 306.043C323.544 305.94 330.1 226.106 173.197 218.935Z" fill="#F66D1D"/>
<path d="M319.785 284.363C319.594 284.563 319.376 284.736 319.136 284.875L317.122 286.207C315.38 287.402 312.717 289.007 309.268 290.987C299.362 296.458 288.985 301.029 278.263 304.646C262.358 310.05 245.956 313.859 229.297 316.016C208.915 318.601 188.376 319.742 167.833 319.431C147.304 319.51 126.786 318.473 106.37 316.324C89.6161 314.512 73.2272 310.207 57.7452 303.553C47.3552 298.982 37.7277 292.843 29.1987 285.353C26.2621 282.621 24.0768 280.368 22.7109 278.797L21.1743 276.953L20.6621 276.304C20.6621 276.304 20.9011 276.475 21.3109 276.85L22.984 278.558C24.4182 280.06 26.6719 282.212 29.8133 284.807C38.4068 292.074 48.0407 298.013 58.394 302.426C73.7513 308.9 89.9709 313.099 106.54 314.89C126.907 316.926 147.365 317.917 167.833 317.86C188.306 318.101 208.772 316.96 229.092 314.446C245.671 312.367 262.012 308.696 277.887 303.485C288.583 299.949 298.965 295.529 308.927 290.27C312.341 288.392 315.141 286.855 316.951 285.797L319.034 284.636C319.275 284.52 319.526 284.429 319.785 284.363V284.363Z" fill="#263238"/>
<path d="M224.848 315.911C225.008 316.674 225.088 317.452 225.087 318.233C225.087 319.769 225.087 322.057 225.087 325.062C225.091 333.348 224.221 341.612 222.491 349.716C221.261 355.324 219.465 360.792 217.13 366.038C214.531 372.106 211.082 377.775 206.887 382.872C202.161 388.485 196.486 393.223 190.121 396.872C186.716 398.742 183.136 400.274 179.433 401.448C175.589 402.587 171.623 403.264 167.618 403.462C159.707 403.647 151.891 401.713 144.979 397.862C138.555 394.283 132.894 389.481 128.315 383.726C120.683 373.922 115.677 362.334 113.769 350.057C112.439 341.876 111.913 333.584 112.198 325.301C112.198 322.398 112.472 320.111 112.608 318.472C112.625 317.677 112.728 316.888 112.915 316.116C112.975 316.9 112.975 317.687 112.915 318.472C112.915 320.179 112.915 322.433 112.915 325.301C112.862 333.51 113.571 341.706 115.033 349.784C117.04 361.783 122.043 373.082 129.579 382.633C134.052 388.191 139.56 392.829 145.798 396.291C152.494 399.971 160.05 401.798 167.686 401.584C171.539 401.4 175.356 400.758 179.057 399.672C182.611 398.538 186.043 397.051 189.301 395.233C195.522 391.688 201.06 387.063 205.657 381.574C209.846 376.647 213.296 371.137 215.901 365.218C218.267 360.078 220.109 354.713 221.399 349.203C223.227 341.196 224.279 333.032 224.54 324.823C224.54 322.057 224.54 319.838 224.711 317.994C224.69 317.297 224.736 316.599 224.848 315.911Z" fill="#263238"/>
<path d="M237.809 425.727L245.048 393.425H308.492C306.238 403.054 303.097 414.288 299.477 426.239L237.809 425.727Z" fill="#FAFAFA"/>
<path d="M95.8862 425.727L88.6814 393.425H25.2031C27.4568 403.054 29.369 414.288 32.9543 426.239L95.8862 425.727Z" fill="#FAFAFA"/>
<path opacity="0.4" d="M315.279 276.437C300.084 251.647 259.894 222.964 173.196 218.935C173.196 218.935 76.0493 215.793 34.5614 255.096C30.63 259.125 27.086 263.515 23.976 268.208C21.4491 272.886 56.3809 314.852 168.655 311.267C284.479 307.545 315.279 276.437 315.279 276.437Z" fill="black"/>
<path d="M13.4171 128.313C7.8512 115.85 5.15363 101.576 8.94389 88.4642C12.7341 75.352 24.0025 63.9129 37.6269 62.7178" fill="#263238"/>
<path d="M33.0993 63.501C33.0993 63.74 30.8114 65.5839 27.5675 69.3059C23.3058 74.0964 19.7422 79.4649 16.9821 85.2523C14.3962 91.1514 12.1837 97.2072 10.3577 103.384C9.78653 106.017 9.03349 108.607 8.10404 111.135C8.02036 108.412 8.36602 105.692 9.12839 103.077C10.6176 96.705 12.6982 90.4861 15.3431 84.501C18.1722 78.5486 21.9943 73.1214 26.6455 68.4522C28.4442 66.387 30.6388 64.7035 33.0993 63.501V63.501Z" fill="#F66D1D"/>
<path d="M327.408 128.313C332.974 115.85 335.672 101.576 331.881 88.4642C328.091 75.352 316.823 63.9129 303.232 62.7178" fill="#263238"/>
<path d="M307.735 63.501C310.204 64.6896 312.401 66.3752 314.189 68.4522C318.849 73.1136 322.672 78.5425 325.491 84.501C328.136 90.4861 330.217 96.705 331.706 103.077C332.468 105.692 332.814 108.412 332.73 111.135C331.82 108.6 331.068 106.012 330.476 103.384C328.664 97.2071 326.463 91.1511 323.886 85.2523C321.103 79.47 317.529 74.1031 313.267 69.3059C310.023 65.618 307.564 63.74 307.735 63.501Z" fill="#F66D1D"/>
<path d="M26.0292 190.185C18.473 182.468 12.9223 173.018 9.86269 162.661C6.80305 152.303 6.32754 141.354 8.47789 130.77C17.5608 85.0136 50.8537 2.65229 173.2 4.42791C301.557 6.23767 325.664 95.0868 329.796 137.872C330.659 146.628 329.782 155.468 327.215 163.883C324.648 172.299 320.443 180.123 314.84 186.907C295.752 209.955 255.22 239.731 173.2 239.697C91.9661 239.765 48.2927 212.653 26.0292 190.185Z" fill="#F66D1D"/>
<path d="M115.998 9.78931C116.308 10.2653 116.549 10.7826 116.715 11.3259L118.491 15.8332C120.027 19.7259 122.178 25.3943 125.525 32.0528C129.315 39.8875 134.512 46.9594 140.857 52.9163C148.534 60.3088 158.78 64.434 169.437 64.4236C180.061 63.7872 190.173 59.6439 198.188 52.6431C204.716 46.8824 210.193 40.0308 214.374 32.3943C217.248 27.2472 219.814 21.9337 222.057 16.482C222.818 14.4415 223.696 12.4463 224.686 10.5064C224.645 11.0723 224.507 11.6268 224.276 12.1454C223.935 13.204 223.423 14.7747 222.706 16.721C220.687 22.317 218.268 27.7604 215.467 33.0089C211.367 40.8872 205.871 47.9562 199.247 53.8724C190.999 61.2256 180.504 65.5703 169.471 66.1993C163.752 66.3398 158.076 65.1719 152.876 62.7846C148.07 60.5989 143.643 57.6594 139.764 54.0773C133.317 47.9386 128.102 40.6255 124.398 32.5309C121.868 27.1651 119.678 21.6452 117.842 16.004C117.159 14.0007 116.681 12.4641 116.408 11.3942C116.221 10.8733 116.084 10.3359 115.998 9.78931Z" fill="#263238"/>
<path d="M254.263 185.133C194.712 199.679 136.595 200.226 80.1165 185.748C69.776 183.058 60.6242 177.004 54.1021 168.541C47.5801 160.078 44.0585 149.686 44.092 139.001V138.182C44.092 131.832 45.3426 125.545 47.7725 119.678C50.2024 113.812 53.764 108.482 58.2538 103.992C62.7437 99.5023 68.0738 95.9407 73.9401 93.5109C79.8063 91.081 86.0937 89.8303 92.4433 89.8303H242.688C249.037 89.8303 255.325 91.081 261.191 93.5109C267.057 95.9407 272.388 99.5023 276.877 103.992C281.367 108.482 284.929 113.812 287.359 119.678C289.789 125.545 291.039 131.832 291.039 138.182V138.182C291.047 148.994 287.427 159.496 280.76 168.009C274.093 176.521 264.763 182.55 254.263 185.133V185.133Z" fill="#263238"/>
<path d="M123.066 147.368C122.723 149.507 121.753 151.497 120.28 153.085C118.806 154.673 116.895 155.789 114.788 156.292C112.681 156.795 110.472 156.662 108.44 155.91C106.408 155.158 104.645 153.82 103.372 152.067C102.1 150.313 101.376 148.222 101.292 146.057C101.207 143.893 101.766 141.751 102.898 139.904C104.03 138.057 105.683 136.586 107.65 135.678C109.617 134.77 111.809 134.465 113.949 134.802C115.374 135.027 116.741 135.53 117.97 136.284C119.2 137.037 120.269 138.026 121.116 139.193C121.963 140.36 122.571 141.683 122.906 143.086C123.241 144.489 123.295 145.944 123.066 147.368Z" fill="white"/>
<path d="M248.657 141.014C248.313 143.154 247.341 145.143 245.865 146.731C244.39 148.319 242.477 149.434 240.368 149.935C238.258 150.435 236.048 150.299 234.017 149.544C231.985 148.789 230.223 147.448 228.953 145.691C227.683 143.934 226.962 141.84 226.882 139.674C226.803 137.508 227.367 135.367 228.504 133.521C229.64 131.675 231.299 130.208 233.27 129.305C235.24 128.402 237.434 128.104 239.575 128.448C240.996 128.676 242.359 129.182 243.585 129.937C244.811 130.693 245.876 131.682 246.719 132.849C247.563 134.016 248.168 135.337 248.501 136.738C248.833 138.139 248.886 139.592 248.657 141.014V141.014Z" fill="white"/>
<path d="M200.447 142.414C200.938 145.672 200.363 149.002 198.808 151.907C197.349 155.176 195.138 158.055 192.355 160.307C188.97 163.026 184.836 164.646 180.506 164.951C176.214 165.293 171.922 164.303 168.213 162.117C165.208 160.285 162.689 157.755 160.872 154.741C158.981 152.062 158.032 148.831 158.174 145.556C159.216 148.435 160.543 151.203 162.135 153.819C163.983 156.468 166.397 158.673 169.203 160.273C172.606 162.162 176.49 163.005 180.369 162.697C184.281 162.429 188.03 161.029 191.16 158.668C193.758 156.66 195.9 154.123 197.442 151.224C198.701 148.381 199.707 145.433 200.447 142.414V142.414Z" fill="white"/>
</g>
<mask id="mask2" mask-type="alpha" maskUnits="userSpaceOnUse" x="-87" y="-1" width="255" height="399">
<rect x="-86.3281" y="-0.342041" width="253.375" height="398" fill="#C4C4C4"/>
</mask>
<g mask="url(#mask2)">
<mask id="mask3" mask-type="alpha" maskUnits="userSpaceOnUse" x="-71" y="-77" width="475" height="475">
<circle cx="166.508" cy="160.859" r="237.096" fill="white"/>
</mask>
<g mask="url(#mask3)">
<path d="M173.195 218.936C173.195 218.936 16.1211 213.848 16.1211 297.472C16.1211 392.161 47.331 569.586 173.195 567.742C299.059 565.898 322.142 317.107 323.439 306.043C323.542 305.941 330.098 226.106 173.195 218.936Z" fill="#944BCB"/>
<path d="M319.779 284.364C319.588 284.564 319.37 284.737 319.13 284.876L317.116 286.208C315.374 287.403 312.711 289.008 309.262 290.988C299.356 296.459 288.98 301.03 278.257 304.647C262.353 310.052 245.95 313.861 229.291 316.018C208.909 318.602 188.37 319.743 167.828 319.432C147.298 319.511 126.78 318.474 106.364 316.325C89.6103 314.513 73.2213 310.208 57.7394 303.554C47.3493 298.983 37.7219 292.845 29.1929 285.354C26.2563 282.622 24.0709 280.369 22.7051 278.798L21.1684 276.954L20.6562 276.305C20.6562 276.305 20.8953 276.476 21.305 276.852L22.9782 278.559C24.4123 280.061 26.666 282.213 29.8075 284.808C38.401 292.075 48.0348 298.014 58.3882 302.427C73.7455 308.901 89.965 313.1 106.535 314.891C126.901 316.927 147.359 317.919 167.828 317.862C188.301 318.102 208.767 316.961 229.086 314.447C245.666 312.368 262.006 308.698 277.882 303.486C288.577 299.95 298.959 295.53 308.921 290.271C312.335 288.393 315.135 286.857 316.945 285.798L319.028 284.637C319.269 284.521 319.52 284.43 319.779 284.364V284.364Z" fill="#263238"/>
<path d="M224.842 315.911C225.002 316.674 225.082 317.452 225.081 318.233C225.081 319.769 225.081 322.057 225.081 325.062C225.085 333.348 224.215 341.612 222.486 349.716C221.255 355.324 219.459 360.792 217.125 366.038C214.525 372.106 211.076 377.775 206.881 382.872C202.155 388.485 196.48 393.223 190.115 396.872C186.71 398.742 183.13 400.274 179.427 401.448C175.583 402.587 171.617 403.264 167.612 403.462C159.702 403.647 151.885 401.713 144.973 397.862C138.549 394.283 132.888 389.481 128.31 383.726C120.677 373.922 115.671 362.334 113.763 350.057C112.433 341.876 111.907 333.584 112.192 325.301C112.192 322.398 112.466 320.111 112.602 318.472C112.62 317.677 112.723 316.888 112.91 316.116C112.969 316.9 112.969 317.687 112.91 318.472C112.91 320.179 112.91 322.433 112.91 325.301C112.856 333.51 113.565 341.706 115.027 349.784C117.034 361.783 122.037 373.082 129.573 382.633C134.046 388.191 139.554 392.829 145.793 396.291C152.488 399.971 160.044 401.798 167.68 401.584C171.533 401.4 175.35 400.758 179.051 399.672C182.606 398.538 186.037 397.051 189.295 395.233C195.516 391.688 201.054 387.063 205.651 381.574C209.84 376.647 213.29 371.137 215.895 365.218C218.261 360.078 220.103 354.713 221.393 349.203C223.221 341.196 224.273 333.032 224.534 324.823C224.534 322.057 224.534 319.838 224.705 317.994C224.684 317.297 224.73 316.599 224.842 315.911Z" fill="#263238"/>
<path d="M95.8745 425.727L88.6697 393.424H25.1914C27.4451 403.053 29.3572 414.288 32.9426 426.239L95.8745 425.727Z" fill="#FAFAFA"/>
<path opacity="0.4" d="M315.277 276.438C300.082 251.648 259.892 222.965 173.194 218.935C173.194 218.935 76.0474 215.794 34.5594 255.097C30.6281 259.126 27.084 263.516 23.974 268.209C21.4472 272.887 56.379 314.853 168.653 311.267C284.477 307.545 315.277 276.438 315.277 276.438Z" fill="black"/>
<path d="M13.4151 128.314C7.84924 115.85 5.15168 101.577 8.94194 88.465C12.7322 75.3527 24.0005 63.9136 37.6249 62.7185" fill="#263238"/>
<path d="M33.111 63.501C33.111 63.74 30.8231 65.5839 27.5792 69.3059C23.3175 74.0964 19.7539 79.4649 16.9939 85.2523C14.4079 91.1514 12.1954 97.2072 10.3694 103.384C9.79824 106.017 9.0452 108.607 8.11576 111.135C8.03208 108.412 8.37774 105.692 9.14011 103.077C10.6293 96.705 12.7099 90.4861 15.3548 84.501C18.1839 78.5486 22.006 73.1214 26.6573 68.4522C28.4559 66.387 30.6505 64.7035 33.111 63.501V63.501Z" fill="#944BCB"/>
<path d="M26.0175 190.184C18.4612 182.468 12.9106 173.018 9.85097 162.66C6.79133 152.302 6.31582 141.353 8.46617 130.769C17.5491 85.0131 50.842 2.6518 173.189 4.42742C301.545 6.23718 325.653 95.0863 329.784 137.872C330.647 146.627 329.77 155.467 327.203 163.883C324.637 172.298 320.431 180.123 314.828 186.906C295.74 209.955 255.209 239.731 173.189 239.696C91.9543 239.765 48.281 212.653 26.0175 190.184Z" fill="#944BCB"/>
<path d="M115.984 9.78833C116.294 10.2643 116.536 10.7816 116.701 11.325L118.477 15.8323C120.014 19.725 122.165 25.3933 125.511 32.0518C129.301 39.8866 134.498 46.9584 140.843 52.9153C148.52 60.3078 158.766 64.4331 169.424 64.4227C180.047 63.7862 190.159 59.6429 198.175 52.6421C204.703 46.8814 210.179 40.0298 214.36 32.3933C217.234 27.2462 219.8 21.9327 222.043 16.4811C222.805 14.4405 223.682 12.4454 224.673 10.5054C224.632 11.0713 224.493 11.6258 224.263 12.1444C223.921 13.203 223.409 14.7737 222.692 16.7201C220.673 22.3161 218.254 27.7595 215.453 33.0079C211.353 40.8863 205.857 47.9553 199.233 53.8714C190.985 61.2246 180.49 65.5693 169.458 66.1983C163.738 66.3388 158.062 65.1709 152.863 62.7836C148.056 60.5979 143.629 57.6584 139.75 54.0763C133.304 47.9376 128.088 40.6245 124.384 32.5299C121.854 27.1642 119.664 21.6443 117.828 16.003C117.145 13.9998 116.667 12.4631 116.394 11.3932C116.207 10.8723 116.07 10.335 115.984 9.78833Z" fill="#263238"/>
<path d="M254.265 185.131C194.714 199.678 136.597 200.224 80.1185 185.746C69.778 183.056 60.6261 177.003 54.1041 168.54C47.5821 160.076 44.0605 149.684 44.094 139V138.18C44.094 131.83 45.3446 125.543 47.7745 119.677C50.2043 113.81 53.7659 108.48 58.2558 103.99C62.7456 99.5006 68.0758 95.939 73.942 93.5091C79.8083 91.0793 86.0957 89.8286 92.4453 89.8286H242.69C249.039 89.8286 255.327 91.0793 261.193 93.5091C267.059 95.939 272.389 99.5006 276.879 103.99C281.369 108.48 284.931 113.81 287.361 119.677C289.791 125.543 291.041 131.83 291.041 138.18V138.18C291.048 148.992 287.429 159.495 280.762 168.007C274.095 176.519 264.765 182.549 254.265 185.131V185.131Z" fill="#263238"/>
<path d="M123.076 147.367C122.733 149.506 121.763 151.495 120.289 153.084C118.816 154.672 116.905 155.788 114.798 156.291C112.69 156.793 110.481 156.66 108.45 155.908C106.418 155.156 104.654 153.819 103.382 152.066C102.11 150.312 101.386 148.221 101.301 146.056C101.217 143.891 101.776 141.75 102.908 139.903C104.039 138.055 105.693 136.585 107.66 135.677C109.627 134.769 111.819 134.464 113.959 134.801C115.384 135.026 116.75 135.529 117.98 136.282C119.21 137.036 120.279 138.024 121.126 139.192C121.973 140.359 122.581 141.682 122.916 143.085C123.25 144.488 123.305 145.943 123.076 147.367Z" fill="white"/>
<path d="M200.461 142.412C200.951 145.67 200.376 149 198.822 151.905C197.363 155.174 195.152 158.053 192.368 160.305C188.984 163.024 184.85 164.644 180.52 164.949C176.228 165.291 171.935 164.301 168.227 162.115C165.221 160.283 162.703 157.753 160.885 154.739C158.995 152.06 158.046 148.829 158.188 145.554C159.23 148.433 160.557 151.201 162.149 153.817C163.996 156.466 166.411 158.671 169.217 160.271C172.619 162.16 176.503 163.003 180.383 162.695C184.294 162.427 188.043 161.027 191.173 158.666C193.772 156.658 195.913 154.121 197.456 151.222C198.715 148.379 199.72 145.431 200.461 142.412V142.412Z" fill="white"/>
</g>
</g>
</g>
</svg>
