<svg width="437" height="443" viewBox="0 0 437 443" fill="none" xmlns="http://www.w3.org/2000/svg">
<mask id="mask0" mask-type="alpha" maskUnits="userSpaceOnUse" x="14" y="19" width="424" height="424">
<circle cx="225.521" cy="230.785" r="211.48" fill="white"/>
</mask>
<g mask="url(#mask0)">
<path d="M231.484 282.586C231.484 282.586 91.3809 278.048 91.3809 352.638C91.3809 437.096 119.219 595.352 231.484 593.707C343.75 592.063 364.339 370.151 365.496 360.283C365.588 360.192 371.435 288.982 231.484 282.586Z" fill="#F66D1D"/>
<path d="M362.235 340.945C362.065 341.124 361.87 341.278 361.657 341.402L359.86 342.59C358.306 343.656 355.931 345.087 352.854 346.854C344.019 351.733 334.763 355.811 325.199 359.037C311.013 363.858 296.382 367.255 281.524 369.179C263.344 371.484 245.024 372.502 226.701 372.225C208.389 372.295 190.088 371.37 171.877 369.453C156.934 367.837 142.316 363.997 128.506 358.062C119.239 353.985 110.652 348.51 103.044 341.828C100.425 339.392 98.4754 337.382 97.2571 335.981L95.8865 334.336L95.4297 333.757C95.4297 333.757 95.6429 333.91 96.0084 334.245L97.5008 335.767C98.78 337.108 100.79 339.026 103.592 341.341C111.257 347.823 119.85 353.121 129.085 357.057C142.783 362.832 157.25 366.577 172.03 368.174C190.196 369.99 208.444 370.875 226.701 370.824C244.962 371.038 263.217 370.02 281.341 367.778C296.129 365.924 310.704 362.65 324.864 358.001C334.404 354.848 343.665 350.905 352.55 346.214C355.596 344.539 358.093 343.169 359.707 342.224L361.565 341.189C361.78 341.086 362.004 341.004 362.235 340.945Z" fill="#263238"/>
<path d="M277.556 369.085C277.699 369.766 277.77 370.46 277.769 371.156C277.769 372.526 277.769 374.567 277.769 377.247C277.772 384.638 276.997 392.009 275.454 399.237C274.356 404.24 272.754 409.117 270.672 413.796C268.354 419.209 265.277 424.265 261.535 428.811C257.32 433.818 252.258 438.045 246.58 441.299C243.543 442.967 240.35 444.334 237.047 445.38C233.619 446.397 230.081 447 226.509 447.177C219.453 447.342 212.481 445.617 206.316 442.182C200.586 438.99 195.536 434.706 191.453 429.573C184.645 420.828 180.18 410.493 178.478 399.542C177.292 392.245 176.822 384.849 177.077 377.46C177.077 374.872 177.321 372.831 177.442 371.369C177.458 370.661 177.55 369.956 177.717 369.267C177.77 369.967 177.77 370.67 177.717 371.369C177.717 372.892 177.717 374.902 177.717 377.46C177.669 384.783 178.301 392.093 179.605 399.298C181.395 410.001 185.858 420.079 192.58 428.598C196.57 433.556 201.483 437.693 207.047 440.781C213.019 444.063 219.758 445.693 226.57 445.502C230.006 445.338 233.411 444.765 236.712 443.796C239.883 442.785 242.944 441.458 245.85 439.837C251.398 436.675 256.338 432.55 260.438 427.654C264.174 423.259 267.252 418.345 269.576 413.065C271.686 408.48 273.329 403.695 274.479 398.781C276.11 391.639 277.048 384.356 277.281 377.034C277.281 374.567 277.281 372.587 277.434 370.943C277.415 370.321 277.456 369.699 277.556 369.085Z" fill="#263238"/>
<path d="M289.115 467.037L295.572 438.224H352.162C350.152 446.813 347.35 456.833 344.121 467.494L289.115 467.037Z" fill="#FAFAFA"/>
<path d="M162.527 467.037L156.101 438.224H99.4805C101.491 446.813 103.196 456.833 106.394 467.494L162.527 467.037Z" fill="#FAFAFA"/>
<path opacity="0.4" d="M358.217 333.876C344.664 311.764 308.815 286.18 231.484 282.586C231.484 282.586 144.833 279.784 107.828 314.84C104.321 318.435 101.16 322.35 98.3861 326.536C96.1323 330.709 127.29 368.141 227.434 364.943C330.745 361.623 358.217 333.876 358.217 333.876Z" fill="black"/>
<path d="M88.9678 201.755C84.0033 190.638 81.5971 177.907 84.9779 166.212C88.3587 154.516 98.4095 144.313 110.562 143.247" fill="#263238"/>
<path d="M106.522 143.946C106.522 144.159 104.482 145.803 101.588 149.123C97.787 153.396 94.6085 158.185 92.1466 163.347C89.84 168.609 87.8666 174.01 86.2379 179.52C85.7284 181.868 85.0567 184.178 84.2277 186.433C84.1531 184.004 84.4614 181.579 85.1414 179.246C86.4697 173.562 88.3255 168.015 90.6846 162.677C93.2081 157.367 96.6173 152.527 100.766 148.362C102.37 146.52 104.328 145.018 106.522 143.946Z" fill="#F66D1D"/>
<path d="M369.034 201.755C373.999 190.638 376.405 177.907 373.024 166.212C369.644 154.516 359.593 144.313 347.471 143.247" fill="#263238"/>
<path d="M351.488 143.946C353.69 145.006 355.65 146.509 357.244 148.362C361.401 152.52 364.812 157.362 367.326 162.677C369.685 168.015 371.541 173.562 372.869 179.246C373.549 181.579 373.857 184.004 373.783 186.433C372.971 184.172 372.3 181.863 371.772 179.52C370.156 174.01 368.193 168.608 365.894 163.347C363.412 158.189 360.224 153.402 356.422 149.123C353.529 145.834 351.336 144.159 351.488 143.946Z" fill="#F66D1D"/>
<path d="M100.217 256.942C93.4766 250.06 88.5257 241.63 85.7966 232.392C83.0676 223.153 82.6434 213.387 84.5614 203.947C92.6631 163.134 122.359 89.6709 231.487 91.2547C345.976 92.8689 367.479 172.119 371.164 210.282C371.934 218.091 371.152 225.976 368.862 233.482C366.573 240.989 362.821 247.968 357.824 254.018C340.798 274.577 304.646 301.136 231.487 301.105C159.03 301.166 120.075 276.983 100.217 256.942Z" fill="#F66D1D"/>
<path d="M180.465 96.0369C180.741 96.4614 180.957 96.9228 181.104 97.4075L182.688 101.428C184.059 104.9 185.978 109.956 188.962 115.895C192.343 122.883 196.978 129.191 202.638 134.504C209.485 141.098 218.624 144.778 228.13 144.768C237.606 144.201 246.626 140.505 253.775 134.261C259.598 129.122 264.483 123.011 268.212 116.2C270.776 111.609 273.064 106.869 275.065 102.007C275.744 100.186 276.527 98.4068 277.41 96.6765C277.374 97.1812 277.25 97.6758 277.045 98.1384C276.74 99.0826 276.283 100.484 275.644 102.22C273.843 107.211 271.685 112.066 269.187 116.748C265.53 123.775 260.628 130.08 254.72 135.357C247.362 141.916 238.001 145.791 228.161 146.352C223.059 146.478 217.996 145.436 213.359 143.307C209.071 141.357 205.123 138.735 201.663 135.54C195.913 130.064 191.261 123.542 187.957 116.321C185.7 111.535 183.747 106.612 182.109 101.58C181.5 99.7933 181.074 98.4227 180.83 97.4684C180.664 97.0037 180.541 96.5244 180.465 96.0369Z" fill="#263238"/>
<path d="M303.793 252.436C250.675 265.411 198.837 265.899 148.461 252.985C139.237 250.585 131.074 245.186 125.257 237.637C119.44 230.088 116.298 220.819 116.328 211.289V210.558C116.328 204.894 117.444 199.286 119.611 194.054C121.779 188.821 124.955 184.067 128.96 180.062C132.965 176.057 137.719 172.88 142.952 170.713C148.184 168.546 153.792 167.43 159.456 167.43H293.468C299.131 167.43 304.74 168.546 309.972 170.713C315.204 172.88 319.959 176.057 323.964 180.062C327.968 184.067 331.145 188.821 333.312 194.054C335.48 199.286 336.595 204.894 336.595 210.558C336.602 220.202 333.373 229.57 327.426 237.162C321.48 244.754 313.158 250.133 303.793 252.436Z" fill="#263238"/>
<path d="M186.77 218.752C186.463 220.66 185.598 222.434 184.284 223.851C182.97 225.267 181.265 226.263 179.385 226.711C177.506 227.16 175.536 227.041 173.723 226.37C171.911 225.7 170.338 224.507 169.203 222.943C168.068 221.379 167.423 219.513 167.347 217.583C167.272 215.652 167.77 213.742 168.78 212.094C169.789 210.446 171.265 209.135 173.019 208.325C174.774 207.515 176.729 207.243 178.638 207.544C179.908 207.744 181.127 208.193 182.224 208.865C183.321 209.537 184.274 210.419 185.03 211.46C185.785 212.501 186.328 213.681 186.627 214.933C186.925 216.184 186.974 217.482 186.77 218.752Z" fill="white"/>
<path d="M298.792 213.084C298.485 214.992 297.618 216.767 296.302 218.183C294.986 219.6 293.279 220.594 291.398 221.041C289.517 221.487 287.546 221.366 285.733 220.692C283.921 220.019 282.349 218.823 281.217 217.256C280.084 215.689 279.441 213.821 279.37 211.889C279.299 209.957 279.802 208.047 280.816 206.401C281.83 204.754 283.309 203.446 285.067 202.64C286.825 201.835 288.782 201.569 290.691 201.875C291.959 202.079 293.174 202.53 294.268 203.204C295.361 203.878 296.311 204.76 297.064 205.801C297.816 206.842 298.356 208.021 298.653 209.27C298.949 210.52 298.997 211.816 298.792 213.084Z" fill="white"/>
<path d="M255.791 214.333C256.228 217.239 255.715 220.209 254.329 222.8C253.028 225.716 251.055 228.284 248.572 230.292C245.554 232.717 241.866 234.163 238.004 234.435C234.176 234.74 230.347 233.857 227.039 231.907C224.358 230.273 222.112 228.016 220.491 225.328C218.804 222.938 217.958 220.057 218.085 217.135C219.014 219.703 220.198 222.172 221.618 224.505C223.266 226.869 225.419 228.835 227.922 230.262C230.957 231.947 234.422 232.699 237.882 232.424C241.371 232.185 244.715 230.936 247.506 228.83C249.824 227.04 251.734 224.776 253.11 222.191C254.233 219.655 255.13 217.026 255.791 214.333Z" fill="white"/>
</g>
<mask id="mask1" mask-type="alpha" maskUnits="userSpaceOnUse" x="0" y="0" width="227" height="443">
<rect width="226.398" height="442.265" fill="#C4C4C4"/>
</mask>
<g mask="url(#mask1)">
<mask id="mask2" mask-type="alpha" maskUnits="userSpaceOnUse" x="14" y="19" width="424" height="424">
<circle cx="225.521" cy="230.785" r="211.48" fill="white"/>
</mask>
<g mask="url(#mask2)">
<path d="M231.484 282.587C231.484 282.587 91.3809 278.049 91.3809 352.639C91.3809 437.097 119.219 595.353 231.484 593.708C343.75 592.063 364.339 370.152 365.496 360.283C365.588 360.192 371.435 288.983 231.484 282.587Z" fill="#944BCB"/>
<path d="M362.231 340.946C362.061 341.125 361.866 341.279 361.653 341.403L359.856 342.591C358.302 343.657 355.927 345.089 352.851 346.855C344.015 351.735 334.759 355.812 325.195 359.038C311.009 363.859 296.379 367.256 281.52 369.18C263.34 371.485 245.02 372.503 226.697 372.226C208.386 372.296 190.084 371.371 171.874 369.454C156.93 367.838 142.312 363.999 128.502 358.063C119.235 353.986 110.648 348.511 103.04 341.83C100.421 339.393 98.4715 337.383 97.2532 335.982L95.8826 334.337L95.4258 333.759C95.4258 333.759 95.639 333.911 96.0045 334.246L97.4969 335.769C98.7761 337.109 100.786 339.028 103.588 341.342C111.253 347.825 119.846 353.122 129.081 357.058C142.779 362.833 157.246 366.578 172.026 368.175C190.192 369.991 208.44 370.876 226.697 370.825C244.958 371.039 263.213 370.022 281.337 367.779C296.125 365.925 310.7 362.651 324.86 358.003C334.4 354.849 343.661 350.906 352.546 346.216C355.592 344.54 358.089 343.17 359.703 342.226L361.561 341.19C361.776 341.087 362.001 341.005 362.231 340.946Z" fill="#263238"/>
<path d="M277.552 369.085C277.695 369.766 277.766 370.46 277.765 371.156C277.765 372.526 277.765 374.567 277.765 377.247C277.768 384.638 276.993 392.009 275.45 399.237C274.352 404.24 272.75 409.117 270.668 413.796C268.35 419.209 265.273 424.265 261.531 428.811C257.316 433.818 252.254 438.045 246.577 441.299C243.539 442.967 240.347 444.334 237.043 445.38C233.615 446.397 230.077 447 226.505 447.177C219.449 447.342 212.478 445.617 206.312 442.182C200.582 438.99 195.532 434.706 191.449 429.573C184.641 420.828 180.176 410.493 178.474 399.542C177.288 392.245 176.819 384.849 177.073 377.46C177.073 374.872 177.317 372.831 177.439 371.369C177.454 370.661 177.546 369.956 177.713 369.267C177.766 369.967 177.766 370.67 177.713 371.369C177.713 372.892 177.713 374.902 177.713 377.46C177.665 384.783 178.297 392.093 179.601 399.298C181.391 410.001 185.854 420.079 192.576 428.598C196.566 433.556 201.479 437.693 207.043 440.781C213.015 444.063 219.754 445.693 226.566 445.502C230.003 445.338 233.407 444.765 236.708 443.796C239.879 442.785 242.94 441.458 245.846 439.837C251.394 436.675 256.334 432.55 260.435 427.654C264.171 423.259 267.248 418.345 269.572 413.065C271.682 408.48 273.325 403.695 274.475 398.781C276.106 391.639 277.044 384.356 277.277 377.034C277.277 374.567 277.277 372.587 277.43 370.943C277.411 370.321 277.452 369.699 277.552 369.085Z" fill="#263238"/>
<path d="M162.517 467.036L156.091 438.224H99.4707C101.481 446.813 103.186 456.833 106.384 467.493L162.517 467.036Z" fill="#FAFAFA"/>
<path opacity="0.4" d="M358.217 333.877C344.664 311.765 308.815 286.181 231.484 282.587C231.484 282.587 144.833 279.785 107.828 314.841C104.321 318.435 101.16 322.351 98.3861 326.536C96.1323 330.709 127.29 368.141 227.434 364.943C330.745 361.623 358.217 333.877 358.217 333.877Z" fill="black"/>
<path d="M88.9678 201.756C84.0033 190.639 81.5971 177.908 84.9779 166.212C88.3587 154.517 98.4095 144.314 110.562 143.248" fill="#263238"/>
<path d="M106.536 143.946C106.536 144.159 104.495 145.803 101.602 149.123C97.8007 153.396 94.6221 158.185 92.1603 163.347C89.8537 168.609 87.8802 174.01 86.2516 179.52C85.7421 181.868 85.0704 184.178 84.2414 186.433C84.1667 184.004 84.4751 181.579 85.1551 179.246C86.4834 173.562 88.3392 168.015 90.6983 162.677C93.2218 157.367 96.631 152.527 100.78 148.362C102.384 146.52 104.341 145.018 106.536 143.946Z" fill="#944BCB"/>
<path d="M100.209 256.942C93.4688 250.059 88.5179 241.63 85.7888 232.391C83.0597 223.153 82.6356 213.386 84.5536 203.946C92.6553 163.133 122.351 89.6704 231.48 91.2542C345.968 92.8684 367.471 172.118 371.157 210.281C371.926 218.091 371.144 225.976 368.855 233.482C366.565 240.988 362.814 247.967 357.816 254.018C340.791 274.577 304.638 301.135 231.48 301.105C159.022 301.166 120.067 276.983 100.209 256.942Z" fill="#944BCB"/>
<path d="M180.455 96.0359C180.732 96.4604 180.947 96.9219 181.095 97.4065L182.678 101.427C184.049 104.899 185.968 109.955 188.953 115.894C192.333 122.882 196.968 129.19 202.628 134.503C209.476 141.097 218.614 144.777 228.121 144.768C237.596 144.2 246.616 140.504 253.766 134.26C259.588 129.121 264.473 123.01 268.202 116.199C270.766 111.608 273.054 106.868 275.055 102.006C275.734 100.185 276.517 98.4059 277.401 96.6755C277.364 97.1803 277.24 97.6749 277.035 98.1374C276.73 99.0816 276.274 100.483 275.634 102.219C273.833 107.21 271.675 112.065 269.177 116.747C265.52 123.774 260.618 130.079 254.71 135.356C247.352 141.915 237.992 145.79 228.151 146.351C223.05 146.477 217.987 145.435 213.349 143.306C209.062 141.356 205.113 138.734 201.653 135.539C195.903 130.064 191.251 123.541 187.948 116.32C185.69 111.534 183.737 106.611 182.1 101.579C181.491 99.7923 181.064 98.4217 180.821 97.4674C180.654 97.0028 180.532 96.5235 180.455 96.0359Z" fill="#263238"/>
<path d="M303.797 252.435C250.679 265.41 198.841 265.897 148.465 252.983C139.241 250.584 131.078 245.185 125.261 237.636C119.443 230.087 116.302 220.817 116.332 211.287V210.556C116.332 204.893 117.448 199.285 119.615 194.052C121.782 188.82 124.959 184.065 128.964 180.06C132.969 176.056 137.723 172.879 142.955 170.712C148.188 168.544 153.796 167.429 159.46 167.429H293.472C299.135 167.429 304.743 168.544 309.976 170.712C315.208 172.879 319.963 176.056 323.967 180.06C327.972 184.065 331.149 188.82 333.316 194.052C335.484 199.285 336.599 204.893 336.599 210.556C336.606 220.2 333.377 229.568 327.43 237.161C321.483 244.753 313.162 250.131 303.797 252.435Z" fill="#263238"/>
<path d="M186.781 218.751C186.475 220.659 185.61 222.433 184.296 223.85C182.981 225.266 181.277 226.262 179.397 226.71C177.518 227.158 175.547 227.04 173.735 226.369C171.923 225.698 170.35 224.506 169.215 222.942C168.08 221.378 167.434 219.512 167.359 217.581C167.284 215.65 167.782 213.74 168.792 212.093C169.801 210.445 171.276 209.133 173.031 208.323C174.785 207.514 176.74 207.242 178.649 207.542C179.92 207.742 181.139 208.191 182.236 208.863C183.333 209.536 184.286 210.417 185.042 211.459C185.797 212.5 186.34 213.68 186.638 214.931C186.937 216.183 186.985 217.481 186.781 218.751Z" fill="white"/>
<path d="M255.804 214.331C256.242 217.237 255.729 220.207 254.343 222.798C253.041 225.715 251.069 228.282 248.586 230.291C245.567 232.716 241.88 234.161 238.017 234.433C234.19 234.738 230.361 233.855 227.053 231.905C224.372 230.271 222.126 228.014 220.504 225.326C218.818 222.937 217.972 220.055 218.098 217.133C219.028 219.701 220.211 222.171 221.631 224.504C223.279 226.867 225.433 228.833 227.936 230.26C230.971 231.946 234.435 232.698 237.896 232.423C241.384 232.183 244.728 230.935 247.52 228.829C249.838 227.038 251.748 224.775 253.124 222.189C254.247 219.654 255.144 217.024 255.804 214.331Z" fill="white"/>
</g>
</g>
</svg>
