<svg width="336" height="200" viewBox="0 0 336 200" fill="none" xmlns="http://www.w3.org/2000/svg">
<path opacity="0.1" d="M145.405 2.01743C177.616 11.4697 162.751 56.2395 130.459 46.7722C98.1664 37.3048 113.129 -7.46501 145.405 2.01743Z" fill="#F6E01D"/>
<path d="M142.469 1.20201C172.755 10.3046 158.08 55.2412 127.731 46.169C97.3815 37.0967 112.135 -7.87026 142.469 1.20201Z" fill="#F6E01D"/>
<path opacity="0.1" d="M115.416 22.3263C114.517 30.4726 118.428 38.9652 129.01 42.1274C154.022 49.6563 166.118 12.5386 141.153 5.08498L140.664 4.94946C164.005 12.4784 152.397 47.4578 128.552 40.3355C124.497 39.2836 120.958 36.9029 118.556 33.6102C116.155 30.3176 115.043 26.323 115.416 22.3263Z" fill="black"/>
<g opacity="0.1">
<path opacity="0.1" d="M139.607 9.47056C139.809 9.5483 139.972 9.69729 140.061 9.88633C140.15 10.0754 140.159 10.2898 140.085 10.4848L139.591 11.7109C141.591 12.6475 143.257 14.1216 144.38 15.9495C144.48 16.0724 144.547 16.2167 144.575 16.3697C144.603 16.5227 144.591 16.6799 144.54 16.8275C144.448 17.03 144.277 17.1907 144.062 17.2755C143.848 17.3603 143.607 17.3625 143.39 17.2816C143.173 17.2075 142.995 17.0552 142.895 16.8577C141.974 15.2586 140.582 13.9488 138.888 13.0885L135.376 21.6412C139.878 24.4114 141.219 26.9091 139.99 29.8912C138.681 33.1307 134.865 34.4326 130.794 33.0096L129.82 35.3862C129.78 35.4856 129.72 35.5766 129.643 35.654C129.566 35.7313 129.474 35.7936 129.371 35.8372C129.269 35.8808 129.159 35.9048 129.047 35.9079C128.935 35.9111 128.823 35.8932 128.718 35.8555C128.613 35.8177 128.517 35.7608 128.436 35.6878C128.354 35.6149 128.289 35.5274 128.243 35.4304C128.197 35.3334 128.171 35.2288 128.168 35.1225C128.165 35.0162 128.183 34.9104 128.223 34.811L129.197 32.4041C126.589 31.2176 124.471 29.2418 123.178 26.788C123.097 26.6764 123.046 26.5478 123.029 26.4133C123.013 26.2788 123.031 26.1424 123.082 26.016C123.174 25.8202 123.339 25.6637 123.546 25.577C123.752 25.4903 123.986 25.4795 124.2 25.5467C124.415 25.6248 124.591 25.7759 124.695 25.9706C125.747 28.1723 127.561 29.967 129.836 31.0569L133.396 22.3679C128.974 19.5825 127.664 17.1605 128.91 14.1178C130.155 11.0752 133.971 9.72791 137.93 11.0903L138.409 9.93982C138.446 9.82823 138.509 9.72574 138.593 9.63952C138.676 9.5533 138.778 9.48546 138.893 9.44074C139.007 9.39602 139.13 9.37551 139.253 9.38066C139.376 9.38581 139.497 9.4165 139.607 9.47056ZM134.162 20.8086L137.563 12.483C134.37 11.393 131.64 12.4073 130.73 14.6022C129.82 16.7972 130.395 18.3715 134.162 20.8086ZM134.817 23.1853L131.368 31.6169C134.561 32.7371 137.419 31.738 138.377 29.422C139.335 27.1059 138.712 25.6073 134.817 23.1853Z" fill="black"/>
</g>
<path d="M168 199.674C260.784 199.674 336 194.398 336 187.889C336 181.381 260.784 176.104 168 176.104C75.2162 176.104 0 181.381 0 187.889C0 194.398 75.2162 199.674 168 199.674Z" fill="#BF92E0"/>
<path d="M92.9681 95.2822C93.2682 93.8166 93.45 92.5063 93.6046 91.1097C93.7592 89.7131 93.8319 88.3251 93.8228 86.9027C93.8302 85.4401 93.6963 83.9799 93.4228 82.5405C93.1356 80.8724 92.4309 79.2938 91.3679 77.9369C90.7057 77.1697 89.857 76.5662 88.8948 76.1783C88.4144 75.9866 87.9103 75.8533 87.3946 75.7817C86.9131 75.7145 86.4256 75.6943 85.9398 75.7214C84.1419 75.8511 82.4302 76.5045 81.039 77.5921C79.7884 78.5415 78.7261 79.6946 77.9022 80.9973C77.0448 82.2797 76.461 83.709 76.1837 85.2044C76.0009 86.0975 76.0763 87.021 76.4019 87.8768C76.6265 88.4296 77.0228 88.9046 77.5385 89.2389C78.0288 89.5469 78.5969 89.7255 79.1842 89.7562C79.7884 89.7852 80.3885 89.6474 80.9117 89.3596C81.3611 89.0907 81.7428 88.7317 82.0301 88.3079C82.4854 87.6277 82.7944 86.8689 82.9393 86.0751C83.1988 84.6662 83.1988 83.2253 82.9393 81.8163C82.711 80.4052 82.1686 79.0564 81.3482 77.8593C80.9099 77.2243 80.3175 76.6981 79.6206 76.3248C78.8994 75.9516 78.0662 75.8209 77.2566 75.9541C75.8066 76.2624 74.494 76.9917 73.5015 78.0404C71.6178 80.0079 70.1157 82.2756 69.0645 84.7388C70.299 82.4065 71.9545 80.297 73.9561 78.5059C74.8898 77.6458 76.0864 77.0876 77.3748 76.911C77.9521 76.9015 78.5193 77.0545 79.0049 77.3506C79.4904 77.6468 79.8724 78.0728 80.1025 78.5749C80.6821 79.6465 81.0196 80.821 81.0936 82.0232C81.2008 83.2214 81.0933 84.4282 80.7754 85.5923C80.6417 86.0929 80.407 86.5642 80.0843 86.9803C79.9836 87.1034 79.8525 87.2011 79.7025 87.2647C79.6175 87.2952 79.5237 87.2952 79.4388 87.2647C79.3115 87.2647 79.166 87.1699 79.1478 87.1268C79.11 87.0651 79.0824 86.9982 79.066 86.9285C79.0035 86.5247 79.0345 86.1129 79.1569 85.7216C79.8652 83.5807 81.321 81.7321 83.2848 80.4801C84.0793 79.9342 85.0316 79.6333 86.0125 79.618C86.221 79.6285 86.428 79.6574 86.6308 79.7042C86.7957 79.7457 86.9545 79.8065 87.1036 79.8852C87.3871 80.0428 87.6247 80.2651 87.7946 80.5318C88.2771 81.3623 88.5597 82.2838 88.622 83.2302C88.729 84.3774 88.729 85.5313 88.622 86.6785C88.5152 87.8988 88.3422 89.1131 88.1038 90.3165C87.8674 91.5149 87.5673 92.7821 87.1945 93.877L92.9681 95.2822Z" fill="#F66D1D"/>
<path d="M97.5781 159.337C101.588 164.708 100.77 181.113 103.197 183.415C105.625 185.717 130.474 185.467 132.184 184.113C133.893 182.76 133.093 176.967 134.911 176.018C135.684 175.639 97.5781 159.337 97.5781 159.337Z" fill="#F66D1D"/>
<path d="M203.812 159.604C198.802 166.5 201.511 181.156 199.084 183.415C196.656 185.673 171.807 185.467 170.097 184.113C168.388 182.76 169.188 176.656 168.197 175.492C167.679 174.88 203.812 159.604 203.812 159.604Z" fill="#F66D1D"/>
<path d="M149.034 60.177C99.0254 60.177 79.8223 97.325 79.8223 119.067C79.8223 140.516 94.3701 176.966 149.034 176.966C203.697 176.966 221.818 146.085 221.818 118.576C221.818 91.0661 199.596 60.177 149.034 60.177Z" fill="#F66D1D"/>
<path d="M163.154 62.8673C163.154 62.8673 186.013 46.246 210.771 48.2116C219.291 48.8926 205.143 66.4105 204.879 80.1093L163.154 62.8673Z" fill="#F66D1D"/>
<path d="M217.095 97.1274C218.186 100.24 228.115 97.7137 230.616 99.7137C234.553 102.817 233.462 141.258 229.861 144.353C227.843 146.077 216.586 144.258 213.422 146.371C210.258 148.483 217.095 97.1274 217.095 97.1274Z" fill="#F66D1D"/>
<path opacity="0.1" d="M92.9681 95.2822C93.2682 93.8166 93.45 92.5063 93.6046 91.1097C93.7592 89.7131 93.8319 88.3251 93.8228 86.9027C93.8302 85.4401 93.6963 83.9799 93.4228 82.5405C93.1356 80.8724 92.4309 79.2938 91.3679 77.9369C90.7057 77.1697 89.857 76.5662 88.8948 76.1783C88.4144 75.9866 87.9103 75.8533 87.3946 75.7817C86.9131 75.7145 86.4256 75.6943 85.9398 75.7214C84.1419 75.8511 82.4302 76.5045 81.039 77.5921C79.7884 78.5415 78.7261 79.6946 77.9022 80.9973C77.0448 82.2797 76.461 83.709 76.1837 85.2044C76.0009 86.0975 76.0763 87.021 76.4019 87.8768C76.6265 88.4296 77.0228 88.9046 77.5385 89.2389C78.0288 89.5469 78.5969 89.7255 79.1842 89.7562C79.7884 89.7852 80.3885 89.6474 80.9117 89.3596C81.3611 89.0907 81.7428 88.7317 82.0301 88.3079C82.4854 87.6277 82.7944 86.8689 82.9393 86.0751C83.1988 84.6662 83.1988 83.2253 82.9393 81.8163C82.711 80.4052 82.1686 79.0564 81.3482 77.8593C80.9099 77.2243 80.3175 76.6981 79.6206 76.3248C78.8994 75.9516 78.0662 75.8209 77.2566 75.9541C75.8066 76.2624 74.494 76.9917 73.5015 78.0404C71.6178 80.0079 70.1157 82.2756 69.0645 84.7388C70.299 82.4065 71.9545 80.297 73.9561 78.5059C74.8898 77.6458 76.0864 77.0876 77.3748 76.911C77.9521 76.9015 78.5193 77.0545 79.0049 77.3506C79.4904 77.6468 79.8724 78.0728 80.1025 78.5749C80.6821 79.6465 81.0196 80.821 81.0936 82.0232C81.2008 83.2214 81.0933 84.4282 80.7754 85.5923C80.6417 86.0929 80.407 86.5642 80.0843 86.9803C79.9836 87.1034 79.8525 87.2011 79.7025 87.2647C79.6175 87.2952 79.5237 87.2952 79.4388 87.2647C79.3115 87.2647 79.166 87.1699 79.1478 87.1268C79.11 87.0651 79.0824 86.9982 79.066 86.9285C79.0035 86.5247 79.0345 86.1129 79.1569 85.7216C79.8652 83.5807 81.321 81.7321 83.2848 80.4801C84.0793 79.9342 85.0316 79.6333 86.0125 79.618C86.221 79.6285 86.428 79.6574 86.6308 79.7042C86.7957 79.7457 86.9545 79.8065 87.1036 79.8852C87.3871 80.0428 87.6247 80.2651 87.7946 80.5318C88.2771 81.3623 88.5597 82.2838 88.622 83.2302C88.729 84.3774 88.729 85.5313 88.622 86.6785C88.5152 87.8988 88.3422 89.1131 88.1038 90.3165C87.8674 91.5149 87.5673 92.7821 87.1945 93.877L92.9681 95.2822Z" fill="black"/>
<path opacity="0.1" d="M97.5781 159.337C101.588 164.708 100.77 181.113 103.197 183.415C105.625 185.717 130.474 185.467 132.184 184.113C133.893 182.76 133.093 176.967 134.911 176.018C135.684 175.639 97.5781 159.337 97.5781 159.337Z" fill="black"/>
<path opacity="0.1" d="M203.816 159.604C198.806 166.5 201.515 181.156 199.087 183.415C196.66 185.673 171.81 185.467 170.101 184.113C168.392 182.76 169.192 176.656 168.201 175.492C167.683 174.88 203.816 159.604 203.816 159.604Z" fill="black"/>
<path opacity="0.3" d="M134.948 176.018C134.657 176.223 134.413 176.482 134.228 176.778C134.044 177.074 133.924 177.402 133.875 177.742C122.394 176.48 111.17 173.631 100.56 169.285C99.9785 165.285 99.1511 161.474 97.5781 159.362C97.5781 159.345 135.684 175.647 134.948 176.018Z" fill="black"/>
<path opacity="0.3" d="M203.813 159.604C201.949 162.19 201.149 165.802 200.758 169.483C190.583 173.757 179.798 176.584 168.753 177.871C168.768 177.049 168.581 176.234 168.207 175.492C167.671 174.88 203.813 159.604 203.813 159.604Z" fill="black"/>
<path opacity="0.1" d="M149.034 60.177C99.0254 60.177 79.8223 97.325 79.8223 119.067C79.8223 140.516 94.3701 176.966 149.034 176.966C203.697 176.966 221.818 146.085 221.818 118.576C221.818 91.0661 199.596 60.177 149.034 60.177Z" fill="black"/>
<path opacity="0.1" d="M163.15 62.8673C163.15 62.8673 186.009 46.246 210.767 48.2116C219.287 48.8926 205.139 66.4105 204.875 80.1093L163.15 62.8673Z" fill="black"/>
<path opacity="0.3" d="M195.33 73.4018C195.185 74.2639 203.077 77.471 203.895 76.9796C204.714 76.4882 205.532 65.7118 211.969 54.2285C212.915 52.5388 196.858 64.1083 195.33 73.4018Z" fill="black"/>
<path opacity="0.3" d="M200.296 116.093C201.059 115.983 201.772 115.668 202.353 115.188C202.935 114.707 203.36 114.079 203.578 113.378C203.506 114.24 203.228 115.076 202.767 115.822C202.306 116.568 201.672 117.206 200.914 117.688C200.805 117.757 200.86 117.955 201.005 117.912C205.379 116.352 204.906 110.498 203.369 106.765C203.288 106.558 203.206 106.351 203.106 106.153C202.124 103.989 200.378 102.42 198.268 102.705C191.204 103.67 193.75 116.99 200.296 116.093Z" fill="black"/>
<path opacity="0.1" d="M217.095 97.1272C218.186 100.239 228.115 97.7134 230.616 99.7135C234.553 102.817 233.462 141.258 229.861 144.353C227.843 146.077 216.586 144.258 213.422 146.37C210.258 148.482 217.095 97.1272 217.095 97.1272Z" fill="black"/>
<path opacity="0.3" d="M231.182 121.068C231.182 130.43 230.354 138.025 229.363 138.025C228.372 138.025 227.545 130.43 227.545 121.068C227.545 111.705 228.363 104.11 229.363 104.11C230.364 104.11 231.182 111.705 231.182 121.068Z" fill="black"/>
<path opacity="0.3" d="M129.628 72.4967C129.792 72.445 146.667 67.2465 162.361 71.3156L163.925 65.893C146.449 61.3583 128.464 66.9275 127.746 67.1603L129.619 72.4967L128.71 69.8328L129.628 72.4967Z" fill="black"/>
<path d="M106.167 154.12C83.6276 129.559 97.4206 101.041 98.048 99.808C98.4333 98.9773 98.4651 98.0375 98.1367 97.1851C97.8083 96.3326 97.1451 95.6335 96.2857 95.2339C95.4264 94.8342 94.4373 94.765 93.5254 95.0407C92.6135 95.3164 91.8492 95.9156 91.3924 96.7131C88.3476 103.183 86.5463 110.117 86.0734 117.188C84.9914 132.809 90.4377 147.155 103.349 156.922C107.249 159.871 109.095 157.284 106.167 154.12Z" fill="white"/>
<path d="M96.3867 88.9114C96.3849 89.6688 96.6202 90.4098 97.0626 91.0404C97.5051 91.671 98.135 92.1629 98.8724 92.454C99.6099 92.745 100.422 92.822 101.206 92.6753C101.989 92.5286 102.709 92.1647 103.275 91.6297C103.84 91.0948 104.226 90.4127 104.382 89.67C104.539 88.9272 104.459 88.1572 104.154 87.4572C103.849 86.7573 103.331 86.159 102.667 85.738C102.003 85.317 101.222 85.0923 100.424 85.0923C99.3545 85.0923 98.3291 85.4944 97.5723 86.2104C96.8155 86.9263 96.3891 87.8977 96.3867 88.9114Z" fill="white"/>
<path d="M296.649 179.267H268.145V185.242H296.649V179.267Z" fill="#F6E01D"/>
<g opacity="0.1">
<path opacity="0.1" d="M269.319 179.811C269.921 181.355 269.921 183.052 269.319 184.596C268.717 183.052 268.717 181.355 269.319 179.811Z" fill="black"/>
<path opacity="0.1" d="M271.44 179.811C272.042 181.354 272.042 183.051 271.44 184.595C270.838 183.051 270.838 181.354 271.44 179.811Z" fill="black"/>
<path opacity="0.1" d="M272.477 179.811C273.079 181.354 273.079 183.051 272.477 184.595C271.875 183.051 271.875 181.354 272.477 179.811Z" fill="black"/>
<path opacity="0.1" d="M278.176 179.811C278.771 181.356 278.771 183.05 278.176 184.595C277.574 183.051 277.574 181.354 278.176 179.811Z" fill="black"/>
<path opacity="0.1" d="M279.712 179.811C280.025 180.574 280.18 181.388 280.167 182.207C280.183 183.024 280.029 183.836 279.712 184.595C279.392 183.837 279.237 183.024 279.258 182.207C279.245 181.388 279.399 180.574 279.712 179.811Z" fill="black"/>
<path opacity="0.1" d="M286.079 179.811C286.681 181.354 286.681 183.051 286.079 184.595C285.476 183.051 285.476 181.354 286.079 179.811Z" fill="black"/>
<path opacity="0.1" d="M287.549 179.811C288.151 181.354 288.151 183.051 287.549 184.595C286.947 183.051 286.947 181.354 287.549 179.811Z" fill="black"/>
<path opacity="0.1" d="M290.25 179.811C290.852 181.354 290.852 183.051 290.25 184.595C289.656 183.05 289.656 181.356 290.25 179.811Z" fill="black"/>
<path opacity="0.1" d="M284.848 179.811C285.163 180.576 285.315 181.394 285.293 182.216C285.314 183.033 285.159 183.845 284.839 184.604C284.522 183.844 284.367 183.032 284.384 182.216C284.373 181.393 284.53 180.576 284.848 179.811Z" fill="black"/>
<path opacity="0.1" d="M274.385 179.811C274.987 181.354 274.987 183.051 274.385 184.595C273.783 183.051 273.783 181.354 274.385 179.811Z" fill="black"/>
<path opacity="0.1" d="M281.742 179.811C282.344 181.354 282.344 183.051 281.742 184.595C281.421 183.837 281.266 183.024 281.287 182.207C281.27 181.388 281.424 180.573 281.742 179.811Z" fill="black"/>
<path opacity="0.1" d="M282.805 179.811C283.407 181.354 283.407 183.051 282.805 184.595C282.203 183.051 282.203 181.354 282.805 179.811Z" fill="black"/>
<path opacity="0.1" d="M293.779 179.811C294.092 180.574 294.246 181.388 294.233 182.207C294.25 183.024 294.096 183.836 293.779 184.595C293.458 183.837 293.304 183.024 293.324 182.207C293.307 181.388 293.461 180.573 293.779 179.811Z" fill="black"/>
<path opacity="0.1" d="M295.37 179.811C295.683 180.574 295.837 181.388 295.824 182.207C295.845 183.024 295.69 183.837 295.37 184.595C295.053 183.836 294.899 183.024 294.915 182.207C294.902 181.388 295.057 180.574 295.37 179.811Z" fill="black"/>
<path opacity="0.1" d="M291.506 179.811C292.109 181.354 292.109 183.051 291.506 184.595C290.904 183.051 290.904 181.354 291.506 179.811Z" fill="black"/>
<path opacity="0.1" d="M276.94 179.811C277.257 180.573 277.412 181.388 277.395 182.207C277.415 183.024 277.26 183.837 276.94 184.595C276.338 183.051 276.338 181.354 276.94 179.811Z" fill="black"/>
</g>
<path opacity="0.1" d="M296.65 179.267V180.535L268.137 181.388V179.267H296.65Z" fill="black"/>
<path d="M294.264 173.293H265.76V179.267H294.264V173.293Z" fill="#F6E01D"/>
<g opacity="0.1">
<path opacity="0.1" d="M292.984 178.621C292.378 177.081 292.378 175.385 292.984 173.845C293.59 175.385 293.59 177.081 292.984 178.621Z" fill="black"/>
<path opacity="0.1" d="M290.865 178.621C290.548 177.861 290.393 177.049 290.41 176.233C290.388 175.416 290.542 174.603 290.865 173.845C291.183 174.604 291.338 175.416 291.32 176.233C291.332 177.049 291.178 177.86 290.865 178.621Z" fill="black"/>
<path opacity="0.1" d="M289.838 178.621C289.231 177.081 289.231 175.385 289.838 173.845C290.444 175.385 290.444 177.081 289.838 178.621Z" fill="black"/>
<path opacity="0.1" d="M284.136 178.621C283.53 177.081 283.53 175.385 284.136 173.845C284.743 175.385 284.743 177.081 284.136 178.621Z" fill="black"/>
<path opacity="0.1" d="M282.563 178.621C282.25 177.86 282.096 177.049 282.109 176.233C282.091 175.416 282.245 174.604 282.563 173.845C282.886 174.603 283.041 175.416 283.018 176.233C283.035 177.049 282.881 177.861 282.563 178.621Z" fill="black"/>
<path opacity="0.1" d="M276.199 178.621C275.593 177.081 275.593 175.385 276.199 173.845C276.805 175.385 276.805 177.081 276.199 178.621Z" fill="black"/>
<path opacity="0.1" d="M274.754 178.621C274.436 177.861 274.282 177.049 274.299 176.233C274.276 175.416 274.431 174.603 274.754 173.845C275.36 175.385 275.36 177.081 274.754 178.621Z" fill="black"/>
<path opacity="0.1" d="M272.053 178.621C271.446 177.081 271.446 175.385 272.053 173.845C272.659 175.385 272.659 177.081 272.053 178.621Z" fill="black"/>
<path opacity="0.1" d="M277.455 178.621C277.142 177.86 276.987 177.049 277 176.233C276.978 175.416 277.132 174.603 277.455 173.845C277.773 174.604 277.927 175.416 277.909 176.233C277.922 177.049 277.768 177.86 277.455 178.621Z" fill="black"/>
<path opacity="0.1" d="M287.947 178.621C287.63 177.861 287.475 177.049 287.492 176.233C287.47 175.416 287.625 174.603 287.947 173.845C288.554 175.385 288.554 177.081 287.947 178.621Z" fill="black"/>
<path opacity="0.1" d="M280.564 178.621C279.958 177.081 279.958 175.385 280.564 173.845C281.171 175.385 281.171 177.081 280.564 178.621Z" fill="black"/>
<path opacity="0.1" d="M279.51 178.621C278.903 177.081 278.903 175.385 279.51 173.845C280.104 175.387 280.104 177.079 279.51 178.621Z" fill="black"/>
<path opacity="0.1" d="M268.527 178.621C267.921 177.081 267.921 175.385 268.527 173.845C268.849 174.603 269.004 175.416 268.982 176.233C268.999 177.049 268.844 177.861 268.527 178.621Z" fill="black"/>
<path opacity="0.1" d="M266.935 178.621C266.622 177.861 266.467 177.05 266.48 176.233C266.462 175.417 266.616 174.605 266.935 173.845C267.257 174.604 267.412 175.416 267.389 176.233C267.406 177.05 267.252 177.862 266.935 178.621Z" fill="black"/>
<path opacity="0.1" d="M270.8 178.621C270.194 177.081 270.194 175.385 270.8 173.845C271.407 175.385 271.407 177.081 270.8 178.621Z" fill="black"/>
<path opacity="0.1" d="M285.363 178.621C285.046 177.861 284.891 177.049 284.908 176.233C284.886 175.416 285.041 174.603 285.363 173.845C285.681 174.604 285.836 175.416 285.818 176.233C285.831 177.049 285.676 177.86 285.363 178.621Z" fill="black"/>
</g>
<path opacity="0.1" d="M294.264 173.293V174.56L265.76 175.414V173.293H294.264Z" fill="black"/>
<path d="M296.458 167.371H267.953V173.345H296.458V167.371Z" fill="#F6E01D"/>
<g opacity="0.1">
<path opacity="0.1" d="M269.135 167.914C269.737 169.458 269.737 171.155 269.135 172.699C268.533 171.155 268.533 169.458 269.135 167.914Z" fill="black"/>
<path opacity="0.1" d="M271.252 167.914C271.57 168.677 271.724 169.491 271.707 170.311C271.727 171.128 271.573 171.94 271.252 172.699C270.65 171.155 270.65 169.458 271.252 167.914Z" fill="black"/>
<path opacity="0.1" d="M272.288 167.914C272.89 169.458 272.89 171.155 272.288 172.699C271.685 171.155 271.685 169.458 272.288 167.914Z" fill="black"/>
<path opacity="0.1" d="M278.018 167.914C278.62 169.458 278.62 171.155 278.018 172.699C277.416 171.155 277.416 169.458 278.018 167.914Z" fill="black"/>
<path opacity="0.1" d="M279.527 167.914C279.84 168.678 279.994 169.492 279.981 170.311C279.998 171.128 279.843 171.939 279.527 172.699C279.206 171.94 279.052 171.128 279.072 170.311C279.055 169.491 279.209 168.677 279.527 167.914Z" fill="black"/>
<path opacity="0.1" d="M285.893 167.914C286.495 169.458 286.495 171.155 285.893 172.699C285.291 171.155 285.291 169.458 285.893 167.914Z" fill="black"/>
<path opacity="0.1" d="M287.366 167.914C287.968 169.458 287.968 171.155 287.366 172.699C286.764 171.155 286.764 169.458 287.366 167.914Z" fill="black"/>
<path opacity="0.1" d="M290.065 167.914C290.667 169.458 290.667 171.155 290.065 172.699C289.463 171.155 289.463 169.458 290.065 167.914Z" fill="black"/>
<path opacity="0.1" d="M284.663 167.914C284.976 168.678 285.13 169.492 285.117 170.311C285.138 171.128 284.983 171.94 284.663 172.699C284.346 171.939 284.192 171.128 284.208 170.311C284.195 169.492 284.35 168.678 284.663 167.914Z" fill="black"/>
<path opacity="0.1" d="M274.172 167.914C274.775 169.458 274.775 171.155 274.172 172.699C273.57 171.155 273.57 169.458 274.172 167.914Z" fill="black"/>
<path opacity="0.1" d="M281.557 167.914C282.159 169.458 282.159 171.155 281.557 172.699C280.955 171.155 280.955 169.458 281.557 167.914Z" fill="black"/>
<path opacity="0.1" d="M282.619 167.914C283.214 169.459 283.214 171.154 282.619 172.699C282.017 171.155 282.017 169.458 282.619 167.914Z" fill="black"/>
<path opacity="0.1" d="M293.593 167.914C294.196 169.458 294.196 171.155 293.593 172.699C293.273 171.94 293.118 171.128 293.139 170.311C293.121 169.491 293.276 168.677 293.593 167.914Z" fill="black"/>
<path opacity="0.1" d="M295.183 167.914C295.496 168.678 295.65 169.492 295.638 170.311C295.654 171.128 295.5 171.939 295.183 172.699C294.862 171.94 294.708 171.128 294.728 170.311C294.716 169.492 294.87 168.678 295.183 167.914Z" fill="black"/>
<path opacity="0.1" d="M291.321 167.914C291.923 169.458 291.923 171.155 291.321 172.699C290.719 171.155 290.719 169.458 291.321 167.914Z" fill="black"/>
<path opacity="0.1" d="M276.753 167.914C277.07 168.677 277.225 169.491 277.207 170.311C277.228 171.128 277.073 171.94 276.753 172.699C276.436 171.939 276.281 171.128 276.298 170.311C276.285 169.492 276.44 168.678 276.753 167.914Z" fill="black"/>
</g>
<path opacity="0.1" d="M296.467 167.371V168.638L267.953 169.492V167.371H296.467Z" fill="black"/>
<path d="M88.1709 175.673H59.666V181.647H88.1709V175.673Z" fill="#F6E01D"/>
<g opacity="0.1">
<path opacity="0.1" d="M60.8364 176.181C61.4387 177.725 61.4387 179.422 60.8364 180.966C60.2342 179.422 60.2342 177.725 60.8364 176.181Z" fill="black"/>
<path opacity="0.1" d="M62.9626 176.181C63.2751 176.942 63.4295 177.753 63.4173 178.569C63.4346 179.389 63.2801 180.203 62.9626 180.966C62.6408 180.205 62.4861 179.389 62.5079 178.569C62.4913 177.752 62.6458 176.941 62.9626 176.181Z" fill="black"/>
<path opacity="0.1" d="M64.0028 176.181C64.3152 176.942 64.4696 177.753 64.4574 178.569C64.4792 179.389 64.3245 180.205 64.0028 180.966C63.6854 180.203 63.5309 179.389 63.5482 178.569C63.5361 177.753 63.6904 176.942 64.0028 176.181Z" fill="black"/>
<path opacity="0.1" d="M69.6939 176.181C70.2961 177.725 70.2961 179.422 69.6939 180.966C69.0916 179.422 69.0916 177.725 69.6939 176.181Z" fill="black"/>
<path opacity="0.1" d="M71.2387 176.181C71.8408 177.725 71.8408 179.422 71.2387 180.966C70.6366 179.422 70.6366 177.725 71.2387 176.181Z" fill="black"/>
<path opacity="0.1" d="M77.6019 176.181C77.9185 176.941 78.073 177.752 78.0564 178.569C78.0782 179.389 77.9236 180.205 77.6019 180.966C76.9999 179.422 76.9999 177.725 77.6019 176.181Z" fill="black"/>
<path opacity="0.1" d="M79.0751 176.181C79.3875 176.942 79.5418 177.753 79.5297 178.569C79.5515 179.389 79.3968 180.205 79.0751 180.966C78.7577 180.203 78.6031 179.389 78.6205 178.569C78.6083 177.753 78.7627 176.942 79.0751 176.181Z" fill="black"/>
<path opacity="0.1" d="M81.7778 176.181C82.0945 176.941 82.249 177.752 82.2324 178.569C82.2542 179.389 82.0995 180.205 81.7778 180.966C81.1756 179.422 81.1756 177.725 81.7778 176.181Z" fill="black"/>
<path opacity="0.1" d="M76.3747 176.181C76.977 177.725 76.977 179.422 76.3747 180.966C76.0529 180.205 75.8982 179.389 75.92 178.569C75.9034 177.752 76.0579 176.941 76.3747 176.181Z" fill="black"/>
<path opacity="0.1" d="M65.8844 176.181C66.1968 176.942 66.3511 177.753 66.339 178.569C66.3563 179.389 66.2018 180.203 65.8844 180.966C65.5627 180.205 65.408 179.389 65.4298 178.569C65.4176 177.753 65.572 176.942 65.8844 176.181Z" fill="black"/>
<path opacity="0.1" d="M73.2661 176.181C73.8684 177.725 73.8684 179.422 73.2661 180.966C72.6639 179.422 72.6639 177.725 73.2661 176.181Z" fill="black"/>
<path opacity="0.1" d="M74.35 176.181C74.9521 177.725 74.9521 179.422 74.35 180.966C73.7479 179.422 73.7479 177.725 74.35 176.181Z" fill="black"/>
<path opacity="0.1" d="M85.307 176.181C85.9092 177.725 85.9092 179.422 85.307 180.966C84.7049 179.422 84.7049 177.725 85.307 176.181Z" fill="black"/>
<path opacity="0.1" d="M86.895 176.181C87.4973 177.725 87.4973 179.422 86.895 180.966C86.2928 179.422 86.2928 177.725 86.895 176.181Z" fill="black"/>
<path opacity="0.1" d="M83.0336 176.181C83.3502 176.941 83.5047 177.752 83.4881 178.569C83.5099 179.389 83.3552 180.205 83.0336 180.966C82.4315 179.422 82.4315 177.725 83.0336 176.181Z" fill="black"/>
<path opacity="0.1" d="M68.4645 176.181C68.7768 176.942 68.9312 177.753 68.9191 178.569C68.9364 179.389 68.7819 180.203 68.4645 180.966C68.1427 180.205 67.988 179.389 68.0098 178.569C67.9932 177.752 68.1478 176.941 68.4645 176.181Z" fill="black"/>
</g>
<path opacity="0.1" d="M88.1799 175.673V176.94L59.666 177.794V175.673H88.1799Z" fill="black"/>
<path d="M86.227 169.699H57.7227V175.673H86.227V169.699Z" fill="#F6E01D"/>
<g opacity="0.1">
<path opacity="0.1" d="M58.892 170.241C59.2052 171.005 59.3595 171.819 59.3467 172.638C59.3673 173.455 59.2126 174.268 58.892 175.026C58.5715 174.268 58.4168 173.455 58.4374 172.638C58.4245 171.819 58.5789 171.005 58.892 170.241Z" fill="black"/>
<path opacity="0.1" d="M61.0101 170.241C61.6123 171.785 61.6123 173.482 61.0101 175.026C60.4159 173.48 60.4159 171.786 61.0101 170.241Z" fill="black"/>
<path opacity="0.1" d="M62.0551 170.241C62.6572 171.785 62.6572 173.482 62.0551 175.026C61.453 173.482 61.453 171.785 62.0551 170.241Z" fill="black"/>
<path opacity="0.1" d="M67.7475 170.241C68.3498 171.785 68.3498 173.482 67.7475 175.026C67.427 174.267 67.2723 173.454 67.2928 172.637C67.2755 171.818 67.4301 171.003 67.7475 170.241Z" fill="black"/>
<path opacity="0.1" d="M69.2837 170.241C69.8859 171.785 69.8859 173.482 69.2837 175.026C68.6815 173.482 68.6815 171.785 69.2837 170.241Z" fill="black"/>
<path opacity="0.1" d="M75.6587 170.241C76.2609 171.785 76.2609 173.482 75.6587 175.026C75.0565 173.482 75.0565 171.785 75.6587 170.241Z" fill="black"/>
<path opacity="0.1" d="M77.1314 170.241C77.7336 171.785 77.7336 173.482 77.1314 175.026C76.5291 173.482 76.5291 171.785 77.1314 170.241Z" fill="black"/>
<path opacity="0.1" d="M79.8032 170.241C80.4055 171.785 80.4055 173.482 79.8032 175.026C79.201 173.482 79.201 171.785 79.8032 170.241Z" fill="black"/>
<path opacity="0.1" d="M74.4243 170.241C75.0266 171.785 75.0266 173.482 74.4243 175.026C73.8221 173.482 73.8221 171.785 74.4243 170.241Z" fill="black"/>
<path opacity="0.1" d="M63.938 170.241C64.5402 171.785 64.5402 173.482 63.938 175.026C63.3358 173.482 63.3358 171.785 63.938 170.241Z" fill="black"/>
<path opacity="0.1" d="M71.3114 170.241C71.6288 171.003 71.7834 171.818 71.7661 172.637C71.7866 173.454 71.6319 174.267 71.3114 175.026C70.9946 174.266 70.8401 173.454 70.8567 172.637C70.8438 171.818 70.9982 171.004 71.3114 170.241Z" fill="black"/>
<path opacity="0.1" d="M72.3744 170.241C72.9766 171.785 72.9766 173.482 72.3744 175.026C72.0539 174.267 71.8992 173.454 71.9198 172.637C71.9025 171.818 72.057 171.003 72.3744 170.241Z" fill="black"/>
<path opacity="0.1" d="M83.3501 170.241C83.6675 171.003 83.822 171.818 83.8047 172.637C83.8252 173.454 83.6706 174.267 83.3501 175.026C82.7479 173.482 82.7479 171.785 83.3501 170.241Z" fill="black"/>
<path opacity="0.1" d="M84.9399 170.241C85.542 171.785 85.542 173.482 84.9399 175.026C84.3378 173.482 84.3378 171.785 84.9399 170.241Z" fill="black"/>
<path opacity="0.1" d="M81.0845 170.241C81.6867 171.785 81.6867 173.482 81.0845 175.026C80.4823 173.482 80.4823 171.785 81.0845 170.241Z" fill="black"/>
<path opacity="0.1" d="M66.5104 170.241C67.1127 171.785 67.1127 173.482 66.5104 175.026C65.908 173.482 65.908 171.785 66.5104 170.241Z" fill="black"/>
</g>
<path opacity="0.1" d="M86.227 169.699V170.966L57.7227 171.82V169.699H86.227Z" fill="black"/>
<path d="M90.6221 157.801H62.1172V163.775H90.6221V157.801Z" fill="#F6E01D"/>
<g opacity="0.1">
<path opacity="0.1" d="M63.2935 158.345C63.8957 159.889 63.8957 161.586 63.2935 163.129C62.6912 161.586 62.6912 159.889 63.2935 158.345Z" fill="black"/>
<path opacity="0.1" d="M65.4191 158.344C65.7321 159.108 65.8864 159.922 65.8735 160.741C65.8901 161.558 65.7357 162.369 65.4191 163.129C65.0987 162.37 64.9442 161.558 64.9647 160.741C64.9474 159.921 65.1018 159.107 65.4191 158.344Z" fill="black"/>
<path opacity="0.1" d="M66.4565 158.344C66.7696 159.108 66.924 159.922 66.9112 160.741C66.9278 161.558 66.7732 162.369 66.4565 163.129C66.1359 162.37 65.9813 161.558 66.0018 160.741C65.989 159.922 66.1434 159.108 66.4565 158.344Z" fill="black"/>
<path opacity="0.1" d="M72.1508 158.344C72.4681 159.107 72.6226 159.921 72.6053 160.741C72.6258 161.558 72.4712 162.37 72.1508 163.129C71.5487 161.585 71.5487 159.888 72.1508 158.344Z" fill="black"/>
<path opacity="0.1" d="M73.6938 158.344C74.2959 159.888 74.2959 161.585 73.6938 163.129C73.0917 161.585 73.0917 159.888 73.6938 158.344Z" fill="black"/>
<path opacity="0.1" d="M80.0594 158.344C80.3769 159.107 80.5314 159.921 80.5141 160.741C80.5347 161.558 80.38 162.37 80.0594 163.129C79.7427 162.369 79.5881 161.558 79.6047 160.741C79.5919 159.922 79.7463 159.108 80.0594 158.344Z" fill="black"/>
<path opacity="0.1" d="M81.5324 158.344C81.8453 159.108 81.9996 159.922 81.9868 160.741C82.0034 161.558 81.8489 162.369 81.5324 163.129C81.212 162.37 81.0574 161.558 81.078 160.741C81.0651 159.922 81.2194 159.108 81.5324 158.344Z" fill="black"/>
<path opacity="0.1" d="M84.2348 158.344C84.5522 159.107 84.7068 159.921 84.6895 160.741C84.71 161.558 84.5553 162.37 84.2348 163.129C83.6327 161.585 83.6327 159.888 84.2348 158.344Z" fill="black"/>
<path opacity="0.1" d="M78.8306 158.344C79.4328 159.888 79.4328 161.585 78.8306 163.129C78.2283 161.585 78.2283 159.888 78.8306 158.344Z" fill="black"/>
<path opacity="0.1" d="M68.3392 158.344C68.6523 159.108 68.8067 159.922 68.7938 160.741C68.8104 161.558 68.6559 162.369 68.3392 163.129C68.0187 162.37 67.8641 161.558 67.8846 160.741C67.8718 159.922 68.0261 159.108 68.3392 158.344Z" fill="black"/>
<path opacity="0.1" d="M75.7113 158.344C76.3135 159.888 76.3135 161.585 75.7113 163.129C75.1171 161.584 75.1171 159.889 75.7113 158.344Z" fill="black"/>
<path opacity="0.1" d="M76.7778 158.344C77.3799 159.888 77.3799 161.585 76.7778 163.129C76.1756 161.585 76.1756 159.888 76.7778 158.344Z" fill="black"/>
<path opacity="0.1" d="M87.7602 158.344C88.3623 159.888 88.3623 161.585 87.7602 163.129C87.1581 161.585 87.1581 159.888 87.7602 158.344Z" fill="black"/>
<path opacity="0.1" d="M89.3501 158.344C89.9523 159.888 89.9523 161.585 89.3501 163.129C88.7479 161.585 88.7479 159.888 89.3501 158.344Z" fill="black"/>
<path opacity="0.1" d="M85.4852 158.344C85.8027 159.107 85.9572 159.921 85.9399 160.741C85.9604 161.558 85.8058 162.37 85.4852 163.129C85.1685 162.369 85.0139 161.558 85.0305 160.741C85.0177 159.922 85.1721 159.108 85.4852 158.344Z" fill="black"/>
<path opacity="0.1" d="M70.9212 158.344C71.2343 159.108 71.3887 159.922 71.3758 160.741C71.3924 161.558 71.2379 162.369 70.9212 163.129C70.6008 162.37 70.4461 161.558 70.4667 160.741C70.4493 159.921 70.6039 159.107 70.9212 158.344Z" fill="black"/>
</g>
<path opacity="0.1" d="M90.6221 157.801V159.068L62.1172 159.922V157.801H90.6221Z" fill="black"/>
<path d="M89.9068 151.827H61.4023V157.801H89.9068V151.827Z" fill="#F6E01D"/>
<g opacity="0.1">
<path opacity="0.1" d="M88.6306 157.155C88.0242 155.615 88.0242 153.919 88.6306 152.379C89.2251 153.922 89.2251 155.613 88.6306 157.155Z" fill="black"/>
<path opacity="0.1" d="M86.5048 157.155C86.1918 156.395 86.0374 155.584 86.0502 154.767C86.0322 153.951 86.1868 153.139 86.5048 152.379C86.8273 153.137 86.982 153.95 86.9594 154.767C86.9723 155.584 86.8179 156.395 86.5048 157.155Z" fill="black"/>
<path opacity="0.1" d="M85.4685 157.155C85.1511 156.396 84.9966 155.584 85.0139 154.767C84.9913 153.95 85.146 153.137 85.4685 152.379C85.7866 153.139 85.9411 153.951 85.9231 154.767C85.9359 155.584 85.7815 156.395 85.4685 157.155Z" fill="black"/>
<path opacity="0.1" d="M79.8044 157.155C79.198 155.615 79.198 153.919 79.8044 152.379C80.4108 153.919 80.4108 155.615 79.8044 157.155Z" fill="black"/>
<path opacity="0.1" d="M78.2301 157.155C77.6238 155.615 77.6238 153.919 78.2301 152.379C78.8363 153.919 78.8363 155.615 78.2301 157.155Z" fill="black"/>
<path opacity="0.1" d="M71.8649 157.155C71.5476 156.396 71.393 155.584 71.4104 154.767C71.3878 153.95 71.5425 153.137 71.8649 152.379C72.4712 153.919 72.4712 155.615 71.8649 157.155Z" fill="black"/>
<path opacity="0.1" d="M70.3904 157.155C70.073 156.396 69.9184 155.584 69.9358 154.767C69.9132 153.95 70.0679 153.137 70.3904 152.379C70.7084 153.139 70.863 153.951 70.8449 154.767C70.8578 155.584 70.7034 156.395 70.3904 157.155Z" fill="black"/>
<path opacity="0.1" d="M67.6893 157.155C67.0827 155.615 67.0827 153.919 67.6893 152.379C68.2958 153.919 68.2958 155.615 67.6893 157.155Z" fill="black"/>
<path opacity="0.1" d="M73.0947 157.155C72.7817 156.395 72.6273 155.584 72.6401 154.767C72.622 153.951 72.7766 153.139 73.0947 152.379C73.4172 153.137 73.5719 153.95 73.5493 154.767C73.5666 155.584 73.4121 156.396 73.0947 157.155Z" fill="black"/>
<path opacity="0.1" d="M83.5858 157.155C83.2727 156.395 83.1182 155.584 83.1311 154.767C83.1085 153.95 83.2632 153.137 83.5858 152.379C83.9039 153.139 84.0585 153.951 84.0404 154.767C84.0533 155.584 83.8989 156.395 83.5858 157.155Z" fill="black"/>
<path opacity="0.1" d="M76.1677 157.155C75.5613 155.615 75.5613 153.919 76.1677 152.379C76.7741 153.919 76.7741 155.615 76.1677 157.155Z" fill="black"/>
<path opacity="0.1" d="M75.1481 157.155C74.5418 155.615 74.5418 153.919 75.1481 152.379C75.7545 153.919 75.7545 155.615 75.1481 157.155Z" fill="black"/>
<path opacity="0.1" d="M64.1658 157.155C63.5593 155.615 63.5593 153.919 64.1658 152.379C64.7723 153.919 64.7723 155.615 64.1658 157.155Z" fill="black"/>
<path opacity="0.1" d="M62.574 157.155C61.9675 155.615 61.9675 153.919 62.574 152.379C63.1805 153.919 63.1805 155.615 62.574 157.155Z" fill="black"/>
<path opacity="0.1" d="M66.4372 157.155C65.8308 155.615 65.8308 153.919 66.4372 152.379C67.0436 153.919 67.0436 155.615 66.4372 157.155Z" fill="black"/>
<path opacity="0.1" d="M81.001 157.155C80.6879 156.395 80.5335 155.584 80.5463 154.767C80.5283 153.951 80.6829 153.139 81.001 152.379C81.3236 153.137 81.4783 153.95 81.4557 154.767C81.4685 155.584 81.3141 156.395 81.001 157.155Z" fill="black"/>
</g>
<path opacity="0.1" d="M89.9068 151.827V153.094L61.4023 153.947V151.827H89.9068Z" fill="black"/>
<path d="M88.1709 145.853H59.666V151.827H88.1709V145.853Z" fill="#F6E01D"/>
<g opacity="0.1">
<path opacity="0.1" d="M60.8382 146.404C61.4445 147.944 61.4445 149.64 60.8382 151.18C60.244 149.638 60.244 147.946 60.8382 146.404Z" fill="black"/>
<path opacity="0.1" d="M62.9642 146.405C63.2772 147.165 63.4315 147.976 63.4187 148.793C63.436 149.609 63.2815 150.421 62.9642 151.181C62.6437 150.422 62.4891 149.61 62.5096 148.793C62.4968 147.976 62.6512 147.165 62.9642 146.405Z" fill="black"/>
<path opacity="0.1" d="M64.0009 146.405C64.3183 147.164 64.4728 147.976 64.4555 148.793C64.4761 149.61 64.3214 150.422 64.0009 151.181C63.6835 150.421 63.5289 149.609 63.5462 148.793C63.5334 147.976 63.6878 147.165 64.0009 146.405Z" fill="black"/>
<path opacity="0.1" d="M69.6931 146.405C70.2994 147.945 70.2994 149.641 69.6931 151.181C69.0867 149.641 69.0867 147.945 69.6931 146.405Z" fill="black"/>
<path opacity="0.1" d="M71.2418 146.405C71.8481 147.945 71.8481 149.641 71.2418 151.181C70.6355 149.641 70.6355 147.945 71.2418 146.405Z" fill="black"/>
<path opacity="0.1" d="M77.6053 146.405C78.2118 147.945 78.2118 149.641 77.6053 151.181C76.9988 149.641 76.9988 147.945 77.6053 146.405Z" fill="black"/>
<path opacity="0.1" d="M79.0751 146.405C79.3925 147.164 79.5471 147.976 79.5297 148.793C79.5503 149.61 79.3956 150.422 79.0751 151.181C78.7577 150.421 78.6031 149.609 78.6205 148.793C78.6076 147.976 78.762 147.165 79.0751 146.405Z" fill="black"/>
<path opacity="0.1" d="M81.7771 146.405C82.3836 147.945 82.3836 149.641 81.7771 151.181C81.1706 149.641 81.1706 147.945 81.7771 146.405Z" fill="black"/>
<path opacity="0.1" d="M76.3764 146.405C76.6894 147.165 76.8438 147.976 76.831 148.793C76.8483 149.609 76.6938 150.421 76.3764 151.181C76.0558 150.422 75.9012 149.61 75.9217 148.793C75.9044 147.976 76.059 147.164 76.3764 146.405Z" fill="black"/>
<path opacity="0.1" d="M65.8855 146.405C66.1985 147.165 66.3529 147.976 66.3401 148.793C66.3606 149.61 66.206 150.422 65.8855 151.181C65.5682 150.421 65.4137 149.609 65.431 148.793C65.4182 147.976 65.5725 147.165 65.8855 146.405Z" fill="black"/>
<path opacity="0.1" d="M73.2674 146.405C73.8739 147.945 73.8739 149.641 73.2674 151.181C72.6609 149.641 72.6609 147.945 73.2674 146.405Z" fill="black"/>
<path opacity="0.1" d="M74.3492 146.405C74.9555 147.945 74.9555 149.641 74.3492 151.181C73.743 149.641 73.743 147.945 74.3492 146.405Z" fill="black"/>
<path opacity="0.1" d="M85.3045 146.405C85.911 147.945 85.911 149.641 85.3045 151.181C84.698 149.641 84.698 147.945 85.3045 146.405Z" fill="black"/>
<path opacity="0.1" d="M86.8981 146.405C87.5045 147.945 87.5045 149.641 86.8981 151.181C86.2918 149.641 86.2918 147.945 86.8981 146.405Z" fill="black"/>
<path opacity="0.1" d="M83.033 146.405C83.6395 147.945 83.6395 149.641 83.033 151.181C82.4265 149.641 82.4265 147.945 83.033 146.405Z" fill="black"/>
<path opacity="0.1" d="M68.4643 146.405C68.7773 147.165 68.9317 147.976 68.9189 148.793C68.9362 149.609 68.7817 150.421 68.4643 151.181C68.1437 150.422 67.9891 149.61 68.0096 148.793C67.9968 147.976 68.1512 147.165 68.4643 146.405Z" fill="black"/>
</g>
<path opacity="0.1" d="M88.1799 145.853V147.129L59.666 147.982V145.853H88.1799Z" fill="black"/>
<path d="M88.1709 163.775H59.666V169.75H88.1709V163.775Z" fill="#F6E01D"/>
<g opacity="0.1">
<path opacity="0.1" d="M86.895 169.103C86.2928 167.559 86.2928 165.862 86.895 164.318C87.4973 165.862 87.4973 167.559 86.895 169.103Z" fill="black"/>
<path opacity="0.1" d="M84.7699 169.103C84.1678 167.559 84.1678 165.862 84.7699 164.318C85.372 165.862 85.372 167.559 84.7699 169.103Z" fill="black"/>
<path opacity="0.1" d="M83.729 169.103C83.1268 167.559 83.1268 165.862 83.729 164.318C84.0495 165.077 84.2041 165.889 84.1836 166.706C84.2009 167.526 84.0464 168.341 83.729 169.103Z" fill="black"/>
<path opacity="0.1" d="M78.0405 169.103C77.7273 168.339 77.5729 167.526 77.5858 166.706C77.5652 165.889 77.7199 165.077 78.0405 164.318C78.3572 165.078 78.5118 165.89 78.4952 166.706C78.508 167.526 78.3536 168.339 78.0405 169.103Z" fill="black"/>
<path opacity="0.1" d="M76.5005 169.103C75.8983 167.559 75.8983 165.862 76.5005 164.318C77.0949 165.863 77.0949 167.558 76.5005 169.103Z" fill="black"/>
<path opacity="0.1" d="M70.1316 169.103C69.8185 168.339 69.6641 167.526 69.677 166.706C69.6604 165.89 69.8149 165.078 70.1316 164.318C70.4521 165.077 70.6067 165.889 70.5862 166.706C70.599 167.526 70.4447 168.339 70.1316 169.103Z" fill="black"/>
<path opacity="0.1" d="M68.6548 169.103C68.0526 167.559 68.0526 165.862 68.6548 164.318C68.9754 165.077 69.1301 165.889 69.1096 166.706C69.1269 167.526 68.9723 168.341 68.6548 169.103Z" fill="black"/>
<path opacity="0.1" d="M65.9584 169.103C65.6453 168.339 65.4909 167.526 65.5038 166.706C65.4832 165.889 65.6379 165.077 65.9584 164.318C66.275 165.078 66.4295 165.89 66.413 166.706C66.4258 167.526 66.2714 168.339 65.9584 169.103Z" fill="black"/>
<path opacity="0.1" d="M71.3558 169.103C70.7538 167.559 70.7538 165.862 71.3558 164.318C71.9578 165.862 71.9578 167.559 71.3558 169.103Z" fill="black"/>
<path opacity="0.1" d="M81.8501 169.103C81.2479 167.559 81.2479 165.862 81.8501 164.318C82.1706 165.077 82.3252 165.889 82.3047 166.706C82.322 167.526 82.1675 168.341 81.8501 169.103Z" fill="black"/>
<path opacity="0.1" d="M74.4771 169.103C73.8748 167.559 73.8748 165.862 74.4771 164.318C75.0793 165.862 75.0793 167.559 74.4771 169.103Z" fill="black"/>
<path opacity="0.1" d="M73.4409 169.103C73.1234 168.341 72.9689 167.526 72.9862 166.706C72.9656 165.889 73.1203 165.077 73.4409 164.318C73.7576 165.078 73.9122 165.89 73.8956 166.706C73.9084 167.526 73.754 168.339 73.4409 169.103Z" fill="black"/>
<path opacity="0.1" d="M62.438 169.103C61.8358 167.559 61.8358 165.862 62.438 164.318C63.0402 165.862 63.0402 167.559 62.438 169.103Z" fill="black"/>
<path opacity="0.1" d="M60.8364 169.103C60.2342 167.559 60.2342 165.862 60.8364 164.318C61.4387 165.862 61.4387 167.559 60.8364 169.103Z" fill="black"/>
<path opacity="0.1" d="M64.7025 169.103C64.3894 168.339 64.2351 167.526 64.2479 166.706C64.2274 165.889 64.382 165.077 64.7025 164.318C65.023 165.077 65.1776 165.889 65.1571 166.706C65.1699 167.526 65.0155 168.339 64.7025 169.103Z" fill="black"/>
<path opacity="0.1" d="M79.2659 169.103C78.664 167.559 78.664 165.862 79.2659 164.318C79.8679 165.862 79.8679 167.559 79.2659 169.103Z" fill="black"/>
</g>
<path opacity="0.1" d="M88.1799 163.775V165.043L59.666 165.896V163.775H88.1799Z" fill="black"/>
<path d="M57.2891 160.802C76.0557 164 71.0913 190.355 52.2974 187.156C33.5036 183.958 38.4862 157.603 57.2891 160.802Z" fill="#F6E01D"/>
<path opacity="0.1" d="M57.2891 160.802C76.0557 164 71.0913 190.355 52.2974 187.156C33.5036 183.958 38.4862 157.603 57.2891 160.802Z" fill="black"/>
<path d="M55.5271 160.5C73.4118 163.543 68.4564 189.906 50.5354 186.854C32.6144 183.802 37.6152 157.456 55.5271 160.5Z" fill="#F6E01D"/>
<path opacity="0.1" d="M41.6875 174.302C41.7875 179 44.6698 183.544 50.9618 184.647C65.828 187.173 69.9469 165.293 55.0989 162.767L54.808 162.724C68.7285 165.371 64.7369 186.07 50.5618 183.656C48.1587 183.335 45.9518 182.221 44.3289 180.51C42.7059 178.8 41.7707 176.601 41.6875 174.302Z" fill="black"/>
<g opacity="0.1">
<path opacity="0.1" d="M54.5829 165.474C54.7018 165.506 54.803 165.581 54.8656 165.682C54.9282 165.783 54.9475 165.903 54.9194 166.017L54.7284 166.741C55.9463 167.122 57.0144 167.844 57.7925 168.81C57.8592 168.872 57.9089 168.948 57.9375 169.032C57.966 169.117 57.9724 169.206 57.9562 169.293C57.9181 169.413 57.8327 169.515 57.7177 169.578C57.6027 169.641 57.4668 169.659 57.3379 169.629C57.2736 169.615 57.2129 169.589 57.1598 169.552C57.1066 169.515 57.062 169.468 57.0288 169.414C56.3842 168.577 55.4964 167.936 54.4738 167.569L53.1463 172.629C55.8741 173.897 56.8378 175.216 56.3741 176.983C55.865 178.906 53.8101 179.854 51.4097 179.362L51.0369 180.776C51.0294 180.84 51.0077 180.901 50.9731 180.956C50.9386 181.011 50.8921 181.058 50.8368 181.095C50.7814 181.131 50.7185 181.156 50.6522 181.167C50.5859 181.179 50.5178 181.177 50.4524 181.161C50.387 181.146 50.3259 181.117 50.2731 181.077C50.2203 181.038 50.1771 180.988 50.1463 180.931C50.1156 180.874 50.098 180.812 50.0948 180.748C50.0916 180.684 50.1028 180.62 50.1277 180.561L50.5005 179.13C48.9329 178.641 47.5846 177.666 46.6726 176.362C46.618 176.305 46.5795 176.235 46.5604 176.16C46.5414 176.085 46.5424 176.006 46.5635 175.931C46.5977 175.814 46.6781 175.714 46.7881 175.651C46.8981 175.589 47.0293 175.569 47.1545 175.595C47.2188 175.606 47.2799 175.63 47.3334 175.666C47.3868 175.702 47.4313 175.748 47.4636 175.802C48.2245 176.975 49.386 177.867 50.755 178.328L52.1098 173.155C49.3821 171.879 48.4729 170.569 48.9638 168.802C49.4548 167.034 51.4824 165.974 53.8283 166.474L54.0101 165.784C54.0461 165.673 54.1253 165.579 54.2317 165.522C54.3381 165.464 54.4637 165.447 54.5829 165.474ZM52.3553 172.25L53.6464 167.31C51.8279 166.914 50.2913 167.672 49.9549 168.974C49.6185 170.276 50.0367 171.104 52.3553 172.25ZM52.9008 173.552L51.6188 178.543C53.5282 178.957 55.0466 178.199 55.4103 176.819C55.774 175.44 55.2558 174.664 52.9008 173.595V173.552Z" fill="black"/>
</g>
</svg>
