<svg width="572" height="468" viewBox="0 0 572 468" fill="none" xmlns="http://www.w3.org/2000/svg">
<path d="M354.435 20.6207C369.128 4.2705 394.29 0.340398 418.629 5.00108C442.967 9.66176 472.115 21.3009 474.772 59.8963C476.951 91.2363 466.801 121.795 466.801 156.763C466.801 191.731 508.543 276.908 441.745 318.476C381.723 355.812 260.11 321.524 256.364 244.661C253.414 183.744 329.618 127.413 337.642 103.304C345.667 79.1941 338.333 38.5076 354.435 20.6207Z" fill="#263238"/>
<path d="M343.462 55.0086C343.01 72.4421 340.353 90.0771 332.834 106.528C330.883 110.695 328.335 114.586 325.261 118.092C322.312 121.619 319.177 124.944 316.042 128.169C309.718 134.694 303.474 141.168 297.442 147.895C285.463 161.073 275.564 175.83 268.055 191.705C260.856 207.654 256.898 224.749 256.391 242.091C255.643 233.338 255.919 224.534 257.215 215.84C258.651 207.1 261.028 198.524 264.309 190.244C271.23 173.654 281.038 158.283 293.324 144.771C299.355 137.943 305.759 131.419 312.136 124.969C318.513 118.52 324.969 112.373 328.928 104.815C332.988 97.0876 336.083 88.9371 338.148 80.529C340.479 72.1357 342.254 63.6122 343.462 55.0086Z" fill="#263238"/>
<path d="M473.098 86.2228C472.646 104.009 471.45 121.77 471.955 139.43C472.173 148.226 472.954 157.001 474.293 165.706C475.675 174.272 478.385 182.838 480.644 191.504C482.902 200.17 484.921 208.963 486.409 217.83C487.847 226.74 488.452 235.752 488.216 244.762C487.783 253.815 485.994 262.765 482.902 271.34C479.335 279.769 474.013 287.429 467.252 293.863C473.176 286.958 477.682 279.063 480.537 270.584C483.014 262.153 484.248 253.438 484.204 244.686C483.451 227.069 480.544 209.594 475.542 192.612C473.416 183.971 470.706 175.406 469.404 166.311C468.185 157.4 467.705 148.412 467.97 139.43C468.531 121.612 470.244 103.843 473.098 86.2228Z" fill="#263238"/>
<path d="M376.462 235.792C315.35 299.58 265.478 330.215 216.322 330.215C169.585 330.215 69.7336 222.616 62.4002 208.433C56.0764 196.189 138.046 129.201 150.64 137.54C171.897 151.497 240.076 232.291 247.303 232.668C254.531 233.046 281.154 216.369 345.268 187.901C384.22 170.644 418.974 191.579 376.462 235.792Z" fill="#EB9481"/>
<path d="M71.9124 219.039C62.9316 209.819 25.2283 163.791 17.762 148.776C10.2957 133.761 -7.79869 89.0693 3.75942 82.494C15.3175 75.9186 21.6944 88.5907 21.6944 88.5907C21.6944 88.5907 17.204 68.5875 29.4795 62.9695C41.7551 57.3515 51.0016 77.3798 51.0016 77.3798C51.0016 77.3798 47.9725 56.5201 60.62 51.7335C73.2675 46.9469 79.0598 68.6127 79.0598 68.6127C79.0598 68.6127 75.34 49.6425 87.5092 49.8692C102.149 50.1464 104.833 85.8446 114.372 101.842C116.524 105.47 163.766 172.382 163.766 172.382L71.9124 219.039Z" fill="#EB9481"/>
<path d="M78.5542 66.774C80.6001 92.9998 86.2861 104.16 102.467 124.995C102.786 125.398 102.228 125.927 101.856 125.549C83.9745 106.503 74.7281 93.5037 77.1459 66.7992C77.3319 65.4892 78.4479 65.5144 78.5542 66.774Z" fill="#263238"/>
<path d="M50.9229 75.3141C55.5461 102.396 61.5509 114.539 76.9351 137.54C77.1477 137.868 76.5897 138.246 76.3506 137.943C59.319 116.555 50.3914 103.379 49.5146 75.7423C49.4614 74.4827 50.7103 74.0544 50.9229 75.3141Z" fill="#263238"/>
<path d="M22.5453 89.7493C29.0284 115.673 35.0599 129.252 52.9683 149.759C53.3935 150.262 52.6761 150.892 52.2244 150.439C31.8183 131.191 24.166 114.287 21.7481 89.976C21.5887 88.3637 22.1467 88.1118 22.5453 89.7493Z" fill="#263238"/>
<path d="M184.838 178.781C184.838 178.781 184.226 145.803 180.586 131.368C176.946 116.932 142.644 67.9068 130.926 74.3562C115.967 82.6699 129.943 114.665 138.897 129.529C138.897 129.529 104.356 148.776 109.059 173.818C113.762 198.86 184.838 178.781 184.838 178.781Z" fill="#EB9481"/>
<path d="M127.603 77.9085C119.632 94.8381 132.917 113.607 140.49 128.597C140.612 128.812 140.677 129.052 140.681 129.297C140.686 129.542 140.628 129.784 140.514 130.003C140.399 130.222 140.232 130.413 140.024 130.558C139.817 130.703 139.575 130.8 139.321 130.839C125.345 139.833 108.419 156.334 108.207 173.213C108.207 173.314 108.165 173.41 108.09 173.481C108.015 173.551 107.914 173.591 107.808 173.591C107.703 173.591 107.601 173.551 107.526 173.481C107.452 173.41 107.41 173.314 107.41 173.213C105.045 155.074 120.27 137.54 136.212 128.647C128.241 113.355 115.833 94.0068 127.444 77.7573L127.603 77.9085Z" fill="#263238"/>
<path d="M271.082 214.127L320.184 300.992C320.184 300.992 386.77 239.697 397.398 214.127C408.026 188.556 396.574 169.989 349.199 183.669C322.135 191.274 295.96 201.48 271.082 214.127Z" fill="#F66D1D"/>
<path d="M331.532 282.878C329.114 278.167 326.988 273.305 324.464 268.619C321.94 263.933 319.416 259.298 316.785 254.712C311.471 245.442 306.157 236.145 300.63 227C297.495 221.962 294.2 216.772 290.773 211.885C290.64 211.658 290.188 211.885 290.321 212.061C299.328 231.182 310.249 249.498 321.143 267.687C324.304 272.952 327.891 277.965 331.186 283.155C331.292 283.281 331.664 283.054 331.532 282.878Z" fill="#263238"/>
<path d="M397.4 214.127C386.772 239.698 320.186 300.992 320.186 300.992L287.106 242.57L396.231 185.357C402.501 191.554 402.422 202.06 397.4 214.127Z" fill="#263238"/>
<path d="M282.269 360.371C282.269 360.371 255.274 421.64 264.813 468.247H562.454C552.782 341.552 486.17 232.668 446.82 197.424C415.095 169.006 381.696 171.551 358.447 186.087C352.973 189.538 292.579 268.669 286.042 281.19C260.11 330.593 282.269 360.371 282.269 360.371Z" fill="#F66D1D"/>
<path d="M360.521 182.358C360.521 182.358 341.921 233.072 352.709 235.717C379.545 242.267 415.548 200.724 417.7 196.492C418.231 195.408 420.623 167.016 422.403 144.922C423.545 130.713 424.422 119.099 424.422 119.099L358.209 140.639L360.335 179.562L360.521 182.358Z" fill="#EB9481"/>
<path d="M358.103 140.639L360.228 179.562C373.7 177.774 403.325 170.845 422.297 144.922C423.439 130.713 424.316 119.099 424.316 119.099L416.026 121.618L358.103 140.639Z" fill="#263238"/>
<path d="M308.786 86.1468C307.989 105.923 310.061 121.921 315.136 132.552C319.485 141.633 326.403 149.393 335.123 154.97C343.842 160.547 354.022 163.722 364.531 164.144C372.502 164.421 395.459 162.431 412.065 150.439C424.978 141.118 432.763 124.314 437.174 94.7628C447.271 27.1954 414.669 4.47145 382.545 1.75061C350.422 -0.970219 311.443 17.9748 308.786 86.1468Z" fill="#EB9481"/>
<path d="M327.202 71.0813C328.876 70.8545 330.417 70.401 332.038 70.0483C333.8 69.898 335.467 69.2185 336.794 68.1085C337.126 67.6771 337.306 67.1565 337.306 66.6221C337.306 66.0878 337.126 65.5672 336.794 65.1358C335.967 64.4067 334.951 63.899 333.849 63.6644C332.747 63.4298 331.6 63.4768 330.523 63.8005C328.232 64.1459 326.158 65.2862 324.704 67C324.361 67.3968 324.154 67.8834 324.111 68.3947C324.067 68.9061 324.189 69.4178 324.461 69.8616C324.732 70.3053 325.14 70.6599 325.63 70.8778C326.12 71.0958 326.668 71.1668 327.202 71.0813Z" fill="#263238"/>
<path d="M374.151 72.7697C372.52 72.4973 370.906 72.1441 369.315 71.7116C367.552 71.5723 365.888 70.881 364.585 69.7465C364.253 69.315 364.073 68.7944 364.073 68.26C364.073 67.7256 364.253 67.2051 364.585 66.7736C365.419 66.0464 366.442 65.5438 367.549 65.3179C368.656 65.092 369.807 65.151 370.882 65.4887C373.192 65.8388 375.278 66.9988 376.728 68.7387C377.061 69.1416 377.257 69.6311 377.289 70.1421C377.321 70.6531 377.189 71.1612 376.909 71.599C376.629 72.0367 376.215 72.3832 375.722 72.5923C375.229 72.8015 374.681 72.8634 374.151 72.7697Z" fill="#263238"/>
<path d="M362.407 89.8001C362.407 89.6238 362.779 90.0268 362.779 90.2284C362.38 94.8387 362.779 100.306 367.11 101.968C367.11 101.968 367.11 102.246 367.11 102.22C361.69 101.263 361.264 94.1081 362.407 89.8001Z" fill="#263238"/>
<path d="M367.029 85.1396C375 84.938 374.787 99.9277 367.454 100.129C360.12 100.331 360.519 85.3159 367.029 85.1396Z" fill="#263238"/>
<path d="M370.138 85.9704C371.493 86.827 372.795 88.3386 374.496 88.4898C376.196 88.6409 377.897 87.1293 379.172 85.6177C379.305 85.4666 379.438 85.6177 379.438 85.7941C379.438 88.6661 378.269 91.6137 375 92.0168C371.732 92.4199 369.952 89.7998 369.208 86.9782C369.075 86.3735 369.58 85.6177 370.138 85.9704Z" fill="#263238"/>
<path d="M336.235 87.8348C336.235 87.6585 335.863 88.0615 335.863 88.2379C335.863 92.8987 335.359 98.3153 330.921 99.7766C330.789 99.7766 330.789 100.054 330.921 100.028C336.368 99.3231 337.165 92.2185 336.235 87.8348Z" fill="#263238"/>
<path d="M331.876 82.9729C323.905 82.3934 323.347 97.3834 330.654 97.9125C337.96 98.4416 338.465 83.4768 331.876 82.9729Z" fill="#263238"/>
<path d="M328.637 83.8543C327.361 84.6101 325.979 85.9956 324.571 86.046C323.163 86.0964 321.622 84.4085 320.586 82.8214C320.586 82.6451 320.347 82.8214 320.32 82.9726C320.134 85.8445 320.984 88.8423 323.88 89.5225C326.777 90.2027 328.557 87.7339 329.38 84.9124C329.434 84.3581 329.035 83.552 328.637 83.8543Z" fill="#263238"/>
<path d="M361.927 125.876C360.785 127.01 359.669 128.547 357.915 128.748C356.092 128.761 354.285 128.427 352.601 127.766C352.569 127.739 352.528 127.725 352.486 127.728C352.443 127.73 352.404 127.748 352.375 127.778C352.347 127.808 352.333 127.848 352.335 127.888C352.338 127.928 352.357 127.966 352.389 127.992C353.126 128.882 354.102 129.566 355.215 129.974C356.328 130.382 357.536 130.498 358.712 130.31C359.694 130.019 360.565 129.464 361.221 128.713C361.876 127.962 362.288 127.046 362.406 126.078C362.421 126.02 362.414 125.96 362.387 125.906C362.359 125.853 362.313 125.811 362.256 125.787C362.199 125.763 362.135 125.758 362.074 125.775C362.014 125.791 361.962 125.827 361.927 125.876Z" fill="#263238"/>
<path d="M341.92 108.669C341.92 108.669 340.751 115.597 340.698 118.872C340.698 119.174 341.522 119.326 342.691 119.426C342.691 119.426 342.691 119.426 342.823 119.426C345.756 119.976 348.792 119.755 351.602 118.787C354.412 117.819 356.889 116.141 358.766 113.934C359.005 113.632 358.58 113.279 358.261 113.481C353.796 116.238 348.515 117.563 343.195 117.26C342.983 116.328 345.613 105.47 345.055 105.419C342.336 105.579 339.653 106.096 337.084 106.956C339.077 92.47 343.488 78.4123 345.215 63.9768C345.215 63.4729 344.497 63.2966 344.338 63.75C338.599 78.1604 335.942 94.7877 333.471 109.677C333.258 111.566 340.432 109.223 341.92 108.669Z" fill="#263238"/>
<path d="M344.896 117.714C346.596 120.183 348.939 122.196 351.698 123.558C353.218 124.246 354.925 124.474 356.587 124.213C360.227 123.584 360.572 120.485 360.147 117.789C359.888 116.355 359.46 114.952 358.872 113.607C354.795 116.355 349.897 117.794 344.896 117.714Z" fill="#263238"/>
<path d="M351.697 123.559C353.218 124.246 354.924 124.474 356.586 124.214C360.226 123.584 360.572 120.485 360.147 117.79C358.259 117.71 356.398 118.236 354.865 119.282C353.332 120.329 352.216 121.836 351.697 123.559Z" fill="#FF98B9"/>
<path d="M435.874 88.6915C428.036 88.9183 405.797 70.3763 401.758 34.7536C401.758 34.7536 407.736 66.4966 410.712 70.9557C413.688 75.4149 398.277 60.5007 394.584 31.8312C394.584 31.8312 378.907 44.7803 364.931 49.8189C350.955 54.8575 342.214 55.5125 341.018 54.6056C339.822 53.6986 360.361 45.5865 365.463 38.8852C365.463 38.8852 328.982 59.0395 311.552 61.7603C309.532 62.0627 312.933 32.3099 338.467 13.1633C364.001 -5.98331 399.101 -1.19666 411.695 8.37663C411.695 8.37663 425.459 9.05684 442.039 26.8178C458.619 44.5788 444.297 88.4396 435.874 88.6915Z" fill="#263238"/>
<path d="M425.538 99.5748C425.538 99.5748 440.125 77.5814 450.567 82.4185C461.009 87.2555 450.833 118.621 439.115 123.382C437.657 124.097 436.061 124.524 434.424 124.637C432.787 124.75 431.143 124.547 429.591 124.041C428.038 123.535 426.611 122.735 425.393 121.691C424.176 120.647 423.195 119.38 422.509 117.966L425.538 99.5748Z" fill="#EB9481"/>
<path d="M447.405 91.4123C447.618 91.4123 447.645 91.639 447.405 91.7146C439.195 95.3172 435.183 102.9 432.473 110.685C434.838 107.611 438.132 105.848 442.437 108.468C442.649 108.594 442.437 108.946 442.224 108.896C440.745 108.553 439.191 108.644 437.768 109.157C436.344 109.67 435.119 110.58 434.253 111.768C432.82 113.805 431.61 115.974 430.64 118.243C430.294 118.973 428.912 118.671 429.178 117.839C429.166 117.773 429.166 117.705 429.178 117.638C428.434 107.46 436.007 92.8987 447.405 91.4123Z" fill="#263238"/>
<path d="M469.858 211.255C499.298 243.476 581.825 360.119 562.695 391.636C544.335 421.867 502.699 430.382 478.732 389.771C461.488 360.724 432.5 274.061 425.299 232.492C419.454 198.835 442.65 181.452 469.858 211.255Z" fill="#EB9481"/>
<path d="M442.357 314.521L539.923 280.535C539.923 280.535 485.162 209.466 459.946 195.938C434.731 182.409 413.74 190.572 421.446 236.952C425.593 263.419 432.6 289.412 442.357 314.521Z" fill="#F66D1D"/>
<path d="M522.6 267.334C517.286 268.972 511.972 270.282 506.658 271.995C501.344 273.708 496.243 275.446 491.088 277.285C480.646 280.964 470.23 284.642 459.894 288.597C454.102 290.814 448.31 293.207 442.65 295.726C442.385 295.726 442.491 296.255 442.65 296.18C463.907 290.386 484.525 282.677 505.037 274.993C510.989 272.751 516.702 269.954 522.574 267.712C522.972 267.611 522.786 267.259 522.6 267.334Z" fill="#263238"/>
<path d="M447.857 312.354C445.925 312.758 444.032 313.314 442.198 314.016C439.54 308.549 433.243 284.515 431.782 278.343C428.859 266.049 426.468 253.629 423.412 241.335C423.412 240.982 422.695 241.083 422.748 241.335C423.651 248.162 424.767 254.964 426.016 261.716C424.688 258.491 423.359 255.241 422.323 251.941C422.334 251.918 422.338 251.893 422.336 251.868C422.333 251.843 422.325 251.819 422.31 251.798C422.296 251.777 422.276 251.759 422.253 251.748C422.229 251.736 422.203 251.729 422.177 251.729C422.15 251.729 422.124 251.736 422.101 251.748C422.078 251.759 422.058 251.777 422.043 251.798C422.029 251.819 422.02 251.843 422.018 251.868C422.016 251.893 422.02 251.918 422.031 251.941C423.238 256.04 424.72 260.063 426.468 263.983C427.504 276.58 439.594 316.611 439.939 316.46C442.672 315.285 445.334 313.964 447.91 312.505C448.202 312.58 448.202 312.328 447.857 312.354Z" fill="#263238"/>
<path d="M492.892 399.949C510.136 430.18 555.784 412.949 562.692 391.635C578.9 341.628 568.857 258.491 559.185 212.061C556.076 197.121 449.051 212.061 449.689 228.209C450.433 247.734 459.095 340.494 492.892 399.949Z" fill="#EB9481"/>
<path d="M557.99 234.256C563.382 212.225 563.708 189.353 558.947 167.192C553.314 143.032 534.901 91.7902 460.875 68.9403C443.312 63.4986 414.218 67.5547 439.619 86.2982C457.581 99.6252 473.204 102.925 482.132 112.499C482.132 112.499 445.784 121.82 440.735 138.699C436.315 153.474 433.003 168.526 430.824 183.744C433.671 184.756 436.582 185.597 439.539 186.263C437.979 200.96 441.584 215.733 449.796 228.285L557.99 234.256Z" fill="#EB9481"/>
<path d="M549.675 144.947C538.675 137.389 515.134 121.316 490.981 114.715C464.198 107.158 410.553 99.8516 404.973 118.62C400.881 132.401 421.101 136.961 421.101 136.961C421.101 136.961 398.251 138.321 397.427 151.522C396.683 163.564 412.545 166.21 412.545 166.21C412.545 166.21 398.835 169.283 400.456 181.023C402.422 195.106 430.879 186.339 445.891 198.986C449.266 201.757 549.675 144.947 549.675 144.947Z" fill="#EB9481"/>
<path d="M487.42 142.755C475.835 137.112 446.023 130.738 421.525 136.507C420.967 136.507 420.781 137.087 421.313 137.087C443.501 136.519 465.68 138.498 487.367 142.982C487.5 143.032 487.553 142.805 487.42 142.755Z" fill="#263238"/>
<path d="M478.758 168.15C468.13 164.27 437.176 158.979 412.571 165.63C412.013 165.782 411.854 166.26 412.385 166.235C434.542 164.557 456.829 165.284 478.811 168.402C478.847 168.395 478.878 168.375 478.898 168.347C478.917 168.319 478.925 168.284 478.918 168.251C478.911 168.217 478.89 168.188 478.86 168.169C478.83 168.15 478.793 168.143 478.758 168.15Z" fill="#263238"/>
<path d="M483.117 378.888C482.32 376.369 481.549 373.85 480.699 371.557C478.945 366.519 477.431 361.48 475.89 356.441C472.754 346.364 469.752 336.136 467.121 325.857C461.871 305.37 457.888 284.609 455.191 263.681C454.447 257.887 453.809 252.092 453.145 246.298C452.481 240.504 452.268 234.483 451.099 228.663C451.099 228.361 447.991 223.927 446.768 221.735C445.5 219.455 444.39 217.099 443.447 214.681C441.461 209.748 440.114 204.605 439.435 199.364C439.421 199.331 439.397 199.303 439.366 199.283C439.336 199.263 439.299 199.253 439.262 199.253C439.225 199.253 439.189 199.263 439.158 199.283C439.127 199.303 439.103 199.331 439.089 199.364C438.745 205.328 439.537 211.302 441.428 216.999C443.065 221.765 445.89 226.086 449.664 229.595C449.664 230.351 449.85 239.672 450.169 244.887C450.488 250.102 450.993 255.317 451.604 260.507C452.853 270.937 454.394 281.341 456.334 291.696C460.125 312.641 465.398 333.321 472.117 353.595C472.117 353.922 472.356 354.25 472.462 354.577C472.462 355.333 472.462 356.089 472.462 356.844C472.501 358.708 472.661 360.567 472.94 362.412C473.485 366.083 474.438 369.689 475.783 373.169C475.771 373.2 475.767 373.233 475.772 373.265C475.776 373.297 475.788 373.328 475.808 373.355C475.828 373.381 475.854 373.403 475.884 373.418C475.914 373.433 475.948 373.441 475.983 373.441C476.017 373.441 476.051 373.433 476.081 373.418C476.111 373.403 476.138 373.381 476.157 373.355C476.177 373.328 476.189 373.297 476.193 373.265C476.198 373.233 476.194 373.2 476.182 373.169C475.239 369.528 474.599 365.821 474.269 362.085L473.791 358.255C475.252 362.337 476.793 366.418 478.307 370.474C479.37 373.295 480.46 376.041 481.682 378.787C482.904 381.534 483.861 384.204 485.295 386.748C485.295 386.95 485.721 386.748 485.668 386.597C485.003 383.902 483.94 381.433 483.117 378.888Z" fill="#263238"/>
</svg>
