<svg width="27" height="27" viewBox="0 0 27 27" fill="none" xmlns="http://www.w3.org/2000/svg">
<circle cx="13.5" cy="13.5" r="13.5" fill="white"/>
<path d="M17.3476 5.62639C17.5465 5.42743 17.7818 5.27009 18.0421 5.16267C18.3015 5.05525 18.5799 5 18.8606 5C19.1413 5 19.4197 5.05525 19.6791 5.16267C19.9394 5.27009 20.1747 5.42743 20.3736 5.62639C20.5726 5.82535 20.7299 6.06065 20.8374 6.32088C20.9448 6.58037 21 6.85874 21 7.1394C21 7.42006 20.9448 7.69844 20.8374 7.95792C20.7299 8.21816 20.5726 8.45345 20.3736 8.65241L10.1608 18.8652L6 20L7.13476 15.8392L17.3476 5.62639Z" stroke="#00A2AF" stroke-width="1.5" stroke-linecap="round" stroke-linejoin="round"/>
</svg>
