<svg width="102" height="102" viewBox="0 0 102 102" fill="none" xmlns="http://www.w3.org/2000/svg">
<circle cx="51" cy="51" r="51" fill="#F66D1D"/>
<path d="M72 49.3056C72.0071 52.4589 71.2714 55.5692 69.85 58.3833C68.1634 61.7564 65.5739 64.5921 62.3656 66.5749C59.1597 68.5576 55.4641 69.6087 51.6944 69.6111C48.5411 69.6183 45.4308 68.8824 42.6167 67.4611L29 72L33.5389 58.3833C32.1175 55.5692 31.3817 52.4589 31.3889 49.3056C31.3913 45.5359 32.4424 41.8404 34.4252 38.6345C36.4079 35.4262 39.2436 32.8367 42.6167 31.1501C45.4308 29.7287 48.5411 28.9929 51.6944 29.0001H52.8889C57.8673 29.2748 62.571 31.377 66.097 34.903C69.623 38.429 71.7252 43.1327 72 48.1111V49.3056Z" stroke="white" stroke-width="4" stroke-linecap="round" stroke-linejoin="round"/>
</svg>
