<svg width="27" height="27" viewBox="0 0 27 27" fill="none" xmlns="http://www.w3.org/2000/svg">
<circle cx="13.5" cy="13.5" r="13.5" fill="white"/>
<path d="M21.5018 20.9996H5.49804C5.22299 20.9996 5 20.8473 5 20.6596C5 20.4718 5.22299 20.3196 5.49804 20.3196H21.5018C21.7768 20.3196 21.9998 20.4718 21.9998 20.6596C21.9998 20.8473 21.7768 20.9996 21.5018 20.9996Z" fill="#00A2AF"/>
<path d="M8.62602 21.0002H6.8127C6.56235 21.0002 6.35938 20.7871 6.35938 20.5242V17.0336C6.35938 16.5961 6.69831 16.2402 7.11492 16.2402H8.3238C8.74041 16.2402 9.07934 16.5961 9.07934 17.0336V20.5242C9.07934 20.7871 8.87637 21.0002 8.62602 21.0002ZM7.26603 20.0482H8.17269V17.1922H7.26603V20.0482ZM8.3238 17.1922H8.3241H8.3238Z" fill="#00A2AF"/>
<path d="M12.594 20.9998H10.3274C10.0145 20.9998 9.76074 20.7788 9.76074 20.5063V15.7025C9.76074 15.2489 10.1844 14.8799 10.7052 14.8799H12.2163C12.737 14.8799 13.1607 15.2489 13.1607 15.7025V20.5063C13.1607 20.7788 12.907 20.9998 12.594 20.9998ZM10.8941 20.0127H12.0274V15.867H10.8941V20.0127ZM12.2163 15.867H12.2166H12.2163Z" fill="#00A2AF"/>
<path d="M16.6751 20.9995H14.4085C14.0955 20.9995 13.8418 20.7721 13.8418 20.4916V13.6861C13.8418 13.2193 14.2655 12.8396 14.7862 12.8396H16.2973C16.8181 12.8396 17.2418 13.2193 17.2418 13.6861V20.4916C17.2418 20.7721 16.988 20.9995 16.6751 20.9995ZM14.9751 19.9838H16.1084V13.8554H14.9751V19.9838ZM16.2973 13.8554H16.2977H16.2973Z" fill="#00A2AF"/>
<path d="M20.1856 20.9998H18.3723C18.1219 20.9998 17.9189 20.7721 17.9189 20.4913V10.2874C17.9189 9.82013 18.2579 9.43994 18.6745 9.43994H19.8834C20.3 9.43994 20.6389 9.82013 20.6389 10.2874V20.4913C20.6389 20.7721 20.4359 20.9998 20.1856 20.9998ZM18.8256 19.9828H19.7323V10.4569H18.8256V19.9828ZM19.8834 10.4569H19.8837H19.8834Z" fill="#00A2AF"/>
<path d="M5.50221 14.8799C5.22486 14.8799 5 14.6532 5 14.3735C5 14.0939 5.22486 13.8672 5.50221 13.8672C8.45541 13.8672 11.6708 12.7829 14.5561 10.8141C17.2105 9.00294 19.3256 6.6285 20.3591 4.29968C20.4724 4.04441 20.7695 3.93004 21.0226 4.04431C21.2758 4.15851 21.3892 4.45803 21.2759 4.7133C20.1681 7.20949 17.9241 9.73886 15.1191 11.6528C12.0694 13.7338 8.65399 14.8799 5.50221 14.8799Z" fill="#00A2AF"/>
<path d="M21.5106 8.07995C21.2949 8.07995 21.0977 7.93175 21.0393 7.70702L20.3661 5.11907L17.854 5.81252C17.5934 5.88448 17.3258 5.72521 17.256 5.45689C17.1862 5.18858 17.3408 4.91278 17.6012 4.84089L20.585 4.01727C20.8455 3.94535 21.1132 4.10462 21.1829 4.3729L21.9824 7.44669C22.0522 7.715 21.8977 7.99079 21.6372 8.06269C21.5949 8.07435 21.5524 8.07995 21.5106 8.07995V8.07995Z" fill="#00A2AF"/>
</svg>
