<svg width="27" height="27" viewBox="0 0 27 27" fill="none" xmlns="http://www.w3.org/2000/svg">
<circle cx="13.5" cy="13.5" r="13.5" fill="white"/>
<path d="M13.7101 7.5813H8.49113C8.09598 7.5813 7.71649 7.7386 7.4369 8.01816C7.15731 8.29772 7 8.67717 7 9.07228V19.5092C7 19.9043 7.15731 20.2837 7.4369 20.5633C7.71649 20.8429 8.09598 21.0001 8.49113 21.0001H18.929C19.3242 21.0001 19.7037 20.8429 19.9833 20.5633C20.2629 20.2837 20.4202 19.9043 20.4202 19.5092V14.2907" stroke="#20ADB9" stroke-width="2" stroke-linecap="round" stroke-linejoin="round"/>
<path d="M19.303 6.46293C19.5998 6.16622 20.0016 6 20.4214 6C20.8411 6 21.243 6.16622 21.5397 6.46293C21.8365 6.75964 22.0027 7.16146 22.0027 7.58117C22.0027 8.00088 21.8365 8.4027 21.5397 8.69941L14.4569 15.7816L11.4746 16.5271L12.2202 13.5451L19.303 6.46293Z" stroke="#20ADB9" stroke-width="2" stroke-linecap="round" stroke-linejoin="round"/>
</svg>
