<svg width="68" height="47" viewBox="0 0 68 47" fill="none" xmlns="http://www.w3.org/2000/svg">
<rect width="68" height="47" rx="14" fill="#F66D1D"/>
<path fill-rule="evenodd" clip-rule="evenodd" d="M22.1402 10.9468C22.4417 10.6689 22.8823 10.6033 23.2517 10.7811L49.0258 23.1909C49.3719 23.3575 49.592 23.7077 49.592 24.0919C49.592 24.476 49.3719 24.8262 49.0258 24.9929L23.2517 37.4026C22.8823 37.5805 22.4417 37.5148 22.1402 37.2369C21.8387 36.9591 21.7374 36.5253 21.8846 36.1426L26.2973 24.6696C26.1816 24.5065 26.1136 24.3071 26.1136 24.0919C26.1136 23.8766 26.1816 23.6773 26.2973 23.5141L21.8846 12.0411C21.7374 11.6584 21.8387 11.2247 22.1402 10.9468ZM28.2777 25.0919L24.6567 34.5064L44.2099 25.0919H28.2777ZM44.2099 23.0919H28.2777L24.6567 13.6774L44.2099 23.0919Z" fill="white"/>
</svg>
