<svg width="48" height="44" viewBox="0 0 48 44" fill="none" xmlns="http://www.w3.org/2000/svg">
<path fill-rule="evenodd" clip-rule="evenodd" d="M5.83544 36.6459C3.14204 33.7571 1.29068 30.1684 0.487892 26.2802L0.508717 26.2781C-0.0793343 23.5127 -0.122543 20.6582 0.381561 17.8789C0.885674 15.0997 1.92715 12.4506 3.44602 10.0843C4.96489 7.71803 6.93113 5.68121 9.23153 4.09117C11.5319 2.50113 14.121 1.38929 16.8498 0.819669C19.5785 0.250051 22.3929 0.233917 25.1309 0.772183C27.8689 1.31045 30.4765 2.39249 32.8034 3.95599C35.1304 5.51949 37.1307 7.53355 38.6892 9.88221C40.2478 12.2309 41.3337 14.8677 41.8845 17.6409C42.6024 21.0964 42.4605 24.6765 41.4715 28.0574L47.6606 36.7507L36.9673 36.2161C34.369 39.178 31.0085 41.3471 27.2605 42.4815C23.5126 43.6159 19.5247 43.6709 15.7415 42.6405C11.9584 41.6101 8.52885 39.5347 5.83544 36.6459ZM9.53422 23.8509C9.20556 23.3565 9.03099 22.7757 9.03261 22.182C9.03261 21.7884 9.11027 21.3987 9.26113 21.0352C9.41199 20.6717 9.63309 20.3415 9.91178 20.0636C10.1905 19.7857 10.5213 19.5655 10.8852 19.4156C11.2491 19.2657 11.639 19.1891 12.0326 19.1902C12.6263 19.1902 13.2066 19.3663 13.7002 19.6964C14.1937 20.0264 14.5782 20.4954 14.805 21.044C15.0318 21.5927 15.0908 22.1963 14.9744 22.7785C14.8579 23.3606 14.5714 23.8952 14.151 24.3144C13.7306 24.7336 13.1953 25.0187 12.6129 25.1335C12.0304 25.2484 11.4269 25.1878 10.8789 24.9595C10.3308 24.7312 9.86288 24.3454 9.53422 23.8509ZM18.0327 22.182C18.0311 22.7757 18.2057 23.3565 18.5343 23.8509C18.863 24.3454 19.331 24.7312 19.879 24.9595C20.427 25.1878 21.0305 25.2484 21.613 25.1335C22.1955 25.0187 22.7308 24.7336 23.1511 24.3144C23.5715 23.8952 23.858 23.3606 23.9745 22.7785C24.0909 22.1963 24.032 21.5927 23.8051 21.044C23.5783 20.4954 23.1938 20.0264 22.7003 19.6964C22.2068 19.3663 21.6264 19.1902 21.0327 19.1902C20.6391 19.1891 20.2492 19.2657 19.8853 19.4156C19.5214 19.5655 19.1906 19.7857 18.9119 20.0636C18.6332 20.3415 18.4121 20.6717 18.2612 21.0352C18.1104 21.3987 18.0327 21.7884 18.0327 22.182ZM27.5343 23.8509C27.2057 23.3565 27.0311 22.7757 27.0327 22.182C27.0327 21.7884 27.1104 21.3987 27.2612 21.0352C27.4121 20.6717 27.6332 20.3415 27.9119 20.0636C28.1906 19.7857 28.5214 19.5655 28.8853 19.4156C29.2492 19.2657 29.6391 19.1891 30.0327 19.1902C30.6264 19.1902 31.2068 19.3663 31.7003 19.6964C32.1938 20.0264 32.5783 20.4954 32.8051 21.044C33.032 21.5927 33.0909 22.1963 32.9745 22.7785C32.858 23.3606 32.5715 23.8952 32.1511 24.3144C31.7308 24.7336 31.1955 25.0187 30.613 25.1335C30.0305 25.2484 29.427 25.1878 28.879 24.9595C28.331 24.7312 27.863 24.3454 27.5343 23.8509Z" fill="white"/>
</svg>
