<svg width="27" height="27" viewBox="0 0 27 27" fill="none" xmlns="http://www.w3.org/2000/svg">
<circle cx="13.5" cy="13.5" r="13.5" fill="white"/>
<path d="M13.6406 4C8.32478 4 4 8.32478 4 13.6406C4 18.9565 8.32478 23.2812 13.6406 23.2812C18.9565 23.2812 23.2812 18.9565 23.2812 13.6406C23.2812 8.32478 18.9565 4 13.6406 4ZM13.6406 21.7981C9.14261 21.7981 5.48317 18.1386 5.48317 13.6406C5.48317 9.14261 9.14261 5.48317 13.6406 5.48317C18.1386 5.48317 21.7981 9.14261 21.7981 13.6406C21.7981 18.1386 18.1386 21.7981 13.6406 21.7981Z" fill="#00A2AF"/>
<path d="M15.8653 11.4086C15.8653 11.8181 16.1973 12.1501 16.6069 12.1501C17.0164 12.1501 17.3485 11.8181 17.3485 11.4086C17.3485 10.5873 16.9237 9.79763 16.183 9.24213C15.6771 8.86269 15.0546 8.60921 14.3821 8.50139V7.70057C14.3821 7.29102 14.0501 6.95898 13.6405 6.95898C13.231 6.95898 12.899 7.29102 12.899 7.70057V8.50139C12.2264 8.60921 11.604 8.86269 11.0981 9.24213C10.3574 9.79763 9.93262 10.5873 9.93262 11.4086C9.93262 12.2298 10.3574 13.0194 11.0981 13.575C11.604 13.9544 12.2265 14.2079 12.899 14.3157V17.2528C12.0447 17.0441 11.4158 16.4897 11.4158 15.8581C11.4158 15.4485 11.0838 15.1165 10.6742 15.1165C10.2647 15.1165 9.93262 15.4485 9.93262 15.8581C9.93262 16.6794 10.3574 17.4689 11.0981 18.0245C11.604 18.4039 12.2265 18.6574 12.899 18.7652V19.5735C12.899 19.9831 13.231 20.3151 13.6405 20.3151C14.0501 20.3151 14.3821 19.9831 14.3821 19.5735V18.7652C15.0547 18.6574 15.6771 18.4039 16.183 18.0245C16.9237 17.469 17.3485 16.6794 17.3485 15.8581C17.3485 15.0368 16.9237 14.2471 16.183 13.6917C15.6771 13.3122 15.0546 13.0587 14.3821 12.9509V10.0138C15.2364 10.2226 15.8653 10.777 15.8653 11.4086ZM11.4158 11.4086C11.4158 10.777 12.0447 10.2226 12.899 10.0138V12.8033C12.0447 12.5945 11.4158 12.0401 11.4158 11.4086ZM15.8653 15.8581C15.8653 16.4897 15.2364 17.0441 14.3821 17.2528V14.4633C15.2364 14.6721 15.8653 15.2265 15.8653 15.8581Z" fill="#00A2AF"/>
</svg>
