<svg width="27" height="27" viewBox="0 0 27 27" fill="none" xmlns="http://www.w3.org/2000/svg">
<circle cx="13.5" cy="13.5" r="13.5" fill="white"/>
<path d="M15.1733 5.1087C15.1733 5.72101 14.5115 6.21739 13.6951 6.21739C12.8786 6.21739 12.2168 5.72101 12.2168 5.1087C12.2168 4.49639 12.8786 4 13.6951 4C14.5115 4 15.1733 4.49639 15.1733 5.1087Z" fill="#00A2AF"/>
<path d="M13.5811 20.9999C13.1103 20.9999 12.7282 20.6026 12.7282 20.113V10.9478H11.5911C11.1204 10.9478 10.7383 10.5504 10.7383 10.0608C10.7383 9.57119 11.1204 9.17383 11.5911 9.17383H13.5811C14.0519 9.17383 14.4339 9.57119 14.4339 10.0608V20.113C14.4339 20.6026 14.0519 20.9999 13.5811 20.9999Z" fill="#00A2AF"/>
<path d="M16.4674 21H10.9239C10.4139 21 10 20.6689 10 20.2609C10 19.8529 10.4139 19.5217 10.9239 19.5217H16.4674C16.9774 19.5217 17.3913 19.8529 17.3913 20.2609C17.3913 20.6689 16.9774 21 16.4674 21Z" fill="#00A2AF"/>
</svg>
