<svg width="27" height="27" viewBox="0 0 27 27" fill="none" xmlns="http://www.w3.org/2000/svg">
<circle cx="13.5" cy="13.5" r="13.5" fill="white"/>
<path d="M13.0908 3.27271V24.2707" stroke="#00A2AF" stroke-width="1.5" stroke-linecap="round" stroke-linejoin="round"/>
<path d="M17.8633 7.09082H10.7042C9.81837 7.09082 8.96882 7.44301 8.34168 8.06913C7.7155 8.69621 7.36328 9.54567 7.36328 10.4314C7.36328 11.3171 7.7155 12.1666 8.34168 12.7937C8.96882 13.4198 9.81837 13.772 10.7042 13.772H15.4769C16.3627 13.772 17.2123 14.1242 17.8394 14.7503C18.4656 15.3774 18.8178 16.2268 18.8178 17.1126C18.8178 17.9983 18.4656 18.8478 17.8394 19.4748C17.2123 20.101 16.3627 20.4532 15.4769 20.4532H7.36328" stroke="#00A2AF" stroke-width="1.5" stroke-linecap="round" stroke-linejoin="round"/>
</svg>
