<svg width="27" height="27" viewBox="0 0 27 27" fill="none" xmlns="http://www.w3.org/2000/svg">
<circle cx="13.5" cy="13.5" r="13.5" fill="white"/>
<path d="M11.152 7.44379C9.74649 6.03831 7.45968 6.03823 6.05411 7.44379C4.64863 8.84928 4.64863 11.1363 6.05411 12.5417C6.75682 13.2444 7.67991 13.5957 8.60309 13.5957C9.5261 13.5957 10.4492 13.2444 11.1521 12.5416C12.5575 11.1361 12.5575 8.8492 11.152 7.44379ZM9.39171 10.7815C8.95681 11.2164 8.24912 11.2164 7.81422 10.7815C7.37932 10.3466 7.37932 9.63888 7.81422 9.20398C8.03167 8.98653 8.3173 8.87781 8.603 8.87781C8.88863 8.87781 9.17426 8.98662 9.39171 9.20398C9.8266 9.63888 9.8266 10.3466 9.39171 10.7815Z" fill="#00A2AF"/>
<path d="M21.9458 15.4518C20.5404 14.0463 18.2535 14.0463 16.8481 15.4518C15.4426 16.8573 15.4426 19.1442 16.8481 20.5496C17.5508 21.2525 18.4737 21.6037 19.397 21.6037C20.3199 21.6037 21.2431 21.2522 21.9459 20.5496C23.3512 19.1441 23.3512 16.8572 21.9458 15.4518ZM20.1857 18.7894C19.7508 19.2243 19.0431 19.2243 18.6082 18.7894C18.3975 18.5787 18.2815 18.2987 18.2815 18.0007C18.2815 17.7028 18.3975 17.4227 18.6082 17.212C18.8255 16.9946 19.1112 16.8858 19.3969 16.8858C19.6825 16.8858 19.9681 16.9946 20.1857 17.212C20.3963 17.4227 20.5123 17.7027 20.5123 18.0007C20.5123 18.2986 20.3963 18.5787 20.1857 18.7894Z" fill="#00A2AF"/>
<path d="M19.6179 5.1915C19.0363 4.82536 18.2677 4.99989 17.9014 5.5816L8.12123 21.1136C7.755 21.6953 7.92961 22.4638 8.51133 22.8301C8.71733 22.9597 8.94672 23.0217 9.1734 23.0217C9.5868 23.0217 9.9912 22.8159 10.2278 22.4402L20.008 6.90796C20.3742 6.32624 20.1995 5.55773 19.6179 5.1915Z" fill="#00A2AF"/>
</svg>
