<svg width="61" height="61" viewBox="0 0 61 61" fill="none" xmlns="http://www.w3.org/2000/svg">
<mask id="mask0" mask-type="alpha" maskUnits="userSpaceOnUse" x="0" y="0" width="61" height="61">
<circle cx="30.5" cy="30.5" r="30.5" fill="#FF0000"/>
</mask>
<g mask="url(#mask0)">
<rect x="-6" y="-11" width="82" height="76" fill="white"/>
<path d="M31.8627 46.6122C28.3552 61.8736 21.1012 80.1681 18.0043 83.1375C14.0863 86.8921 -11.833 93.7794 -13.1244 93.9189C-16.313 94.2418 -22.742 71.2002 -19.3302 70.702C-14.1487 69.9527 4.72775 68.9283 5.85571 67.7685C6.98368 66.6086 14.995 56.5088 23.1817 45.1614C28.8335 37.3214 34.0429 37.1421 31.8627 46.6122Z" fill="#AD6359"/>
<path d="M-14.9415 69.4581L-6.97 94.7118C-6.97 94.7118 14.6128 88.5498 18.5387 84.297C22.4647 80.0442 29.7626 58.0828 31.9029 47.4369C34.0433 36.791 28.6625 37.074 23.7162 43.766C18.7699 50.4581 6.45397 66.7438 5.78038 67.0986C5.10679 67.4533 -14.9415 69.4581 -14.9415 69.4581Z" fill="#F66D1D"/>
<path d="M3.91559 91.2404L4.87216 90.9056C6.66973 90.2639 8.50317 89.5744 10.229 88.8689C10.4522 88.7812 10.6714 88.6896 10.8866 88.5979C11.2334 88.4544 11.5802 88.3069 11.915 88.1595L12.4172 87.9402L12.5965 87.8605L13.1147 87.6214C13.8002 87.3065 14.4499 86.9916 15.0557 86.6728L15.4543 86.4496C16.4013 85.9624 17.2939 85.3759 18.1168 84.6998C18.1925 84.6321 18.2682 84.5643 18.336 84.4966C18.4038 84.4288 18.4755 84.361 18.5353 84.2973C22.4812 80.0445 29.7591 58.083 31.8995 47.4371L31.9712 47.0704V46.9907C32.1147 46.1936 32.2423 45.1812 32.3459 44.0971C32.6448 38.8 30.1378 37.9351 27.0409 40.2628C19.3205 56.8315 7.49478 84.2096 3.91559 91.2404Z" fill="#263238"/>
<path d="M15.1108 95.4813L62.1426 95.7284C62.1027 94.716 55.4067 65.1019 50.0817 54.173C43.2541 40.1592 39.7188 39.0272 37.6343 38.2779C34.9439 37.3133 30.153 37.7916 29.0171 38.3297C27.7257 38.9316 23.6204 46.0979 22.1496 51.3551C19.2082 61.9293 14.4492 94.8356 15.1108 95.4813Z" fill="#EBEBEB"/>
<path d="M40.0457 39.386C40.0457 39.386 34.0671 61.5268 33.7681 62.9975C33.3177 65.1339 30.3364 95.6168 30.3364 95.6168L63.1191 95.7284C63.1191 95.7284 55.9647 67.5094 50.6398 55.1536C44.8286 41.6021 40.0457 39.386 40.0457 39.386Z" fill="#F66D1D"/>
<path d="M28.5869 38.6724C28.4115 39.3778 22.8993 57.3655 22.5166 61.8495C22.0902 66.8237 18.3196 95.7283 18.3196 95.7283H13.5368C13.5368 95.7283 20.46 54.2008 22.3612 49.8125C26.2513 40.8566 28.5869 38.6724 28.5869 38.6724Z" fill="#F66D1D"/>
<path d="M46.2363 44.5635C54.1122 53.0013 73.2597 85.0148 67.1854 90.8539C61.1111 96.693 27.3878 88.8332 17.9176 84.3173C15.0997 82.9781 25.8054 65.409 29.1176 64.9984C31.8757 64.6596 45.9693 71.1046 46.3798 70.2955C46.8382 69.3787 44.5982 62.6149 41.1984 50.3668C37.2963 36.2493 42.7528 40.8329 46.2363 44.5635Z" fill="#AD6359"/>
<path d="M15.1182 59.3309C8.27066 58.3743 6.34953 59.1834 1.01262 55.3093C-2.49882 52.7664 -5.63161 53.9182 -3.62678 57.9558C-0.350501 64.5641 8.22682 67.6491 11.519 67.8643L15.1182 59.3309Z" fill="#AD6359"/>
<path d="M33.3105 65.915C33.3105 65.915 25.6141 61.6423 18.4158 59.9046C13.4416 58.7088 2.3214 57.2939 -8.32053 68.2746C-10.8435 70.8773 -12.5933 76.3776 -6.92951 73.6235C-2.90391 71.6665 -0.950897 69.2113 1.60397 68.4978C1.60397 68.4978 0.208954 75.7558 2.91527 78.1832C5.28059 80.3043 7.79398 82.2543 10.4364 84.0183C10.8709 83.6095 11.2783 83.1728 11.656 82.711C11.656 82.711 14.3982 84.7397 19.5557 84.2455L33.3105 65.915Z" fill="#AD6359"/>
<path d="M13.4805 59.5378C11.0891 60.7774 6.10293 63.4917 2.7868 67.1347C-0.900014 71.1842 -6.90653 79.9688 -3.88932 82.6791C-1.68122 84.652 0.89357 81.4833 0.89357 81.4833C0.89357 81.4833 -0.824287 85.6405 1.56317 86.9837C3.7354 88.2113 5.59276 85.6524 5.59276 85.6524C5.59276 85.6524 4.98294 88.3508 7.30663 89.128C10.0966 90.0607 10.9177 84.2494 14.5647 82.7508C15.3977 82.3921 13.4805 59.5378 13.4805 59.5378Z" fill="#AD6359"/>
<path d="M33.3099 65.9151L22.5165 88.6338C22.5165 88.6338 64.7335 98.1119 68.3765 90.7622C72.0195 83.4125 55.6221 54.6514 48.2365 46.2733C39.6712 36.5641 38.5791 39.8683 40.4643 48.4735C42.4572 57.4813 46.2556 70.5067 46.2556 70.5067L33.3099 65.9151Z" fill="#F66D1D"/>
<path d="M33.4212 65.8552C33.6324 65.911 45.1791 69.7253 45.5578 69.9007C45.5099 69.7253 43.4374 63.5873 43.1265 62.6865C43.0986 62.5988 43.0707 62.5071 43.0388 62.4195C42.8315 62.0209 42.6163 61.6223 42.421 61.2237C42.1739 60.7016 41.9268 60.1715 41.6836 59.6294H41.7076L42.5047 61.1719C42.6283 61.4071 42.7438 61.6502 42.8594 61.8933C42.6562 61.2596 42.4609 60.6219 42.2656 59.9802C41.9547 58.9638 41.6757 57.9355 41.4006 56.9072C41.4006 56.8713 41.4405 56.8633 41.4525 56.9072C42.0663 58.6968 42.7359 60.4664 43.3537 62.256C43.9715 64.0456 46.347 70.6261 46.327 70.6261C46.3071 70.6261 33.6125 66.1381 33.3654 66.0385C33.3534 66.0348 33.3422 66.0288 33.3324 66.0209C33.3227 66.0129 33.3147 66.003 33.3087 65.9919C33.3028 65.9808 33.2991 65.9687 33.2979 65.9561C33.2967 65.9436 33.298 65.931 33.3016 65.9189C33.3053 65.9069 33.3113 65.8957 33.3193 65.886C33.3273 65.8763 33.3371 65.8682 33.3482 65.8623C33.3593 65.8564 33.3715 65.8527 33.384 65.8515C33.3965 65.8502 33.4092 65.8515 33.4212 65.8552Z" fill="#263238"/>
<path d="M28.5785 46.9349C31.3685 47.7041 36.3626 43.5789 38.4033 40.1591C38.5428 39.9239 38.2678 37.389 38.0805 34.2921C37.9729 32.4148 37.9011 30.3064 37.9729 28.4012C37.9729 28.0026 25.8443 30.8803 25.8443 30.8803C25.8443 30.8803 26.8806 34.9378 26.7371 38.2778C26.7244 38.5464 26.687 38.8133 26.6255 39.075C26.6145 39.1169 26.6065 39.1595 26.6016 39.2025C26.3026 40.6812 25.8801 46.1895 28.5785 46.9349Z" fill="#AD6359"/>
<path d="M37.2324 28.4492C36.5548 31.6697 34.2511 39.422 27.834 39.3303C27.4225 39.3263 27.012 39.2889 26.6064 39.2187C26.6014 39.175 26.6014 39.1309 26.6064 39.0872C26.6656 38.8249 26.7042 38.5583 26.722 38.29C26.8615 34.946 25.8292 30.8845 25.8292 30.8845C25.8292 30.8845 34.6058 28.8119 37.2324 28.4492Z" fill="#263238"/>
<path d="M24.3978 22.6496C24.5333 25.5911 22.5484 28.0703 19.9656 28.1898C17.3828 28.3094 15.1827 26.0136 15.0512 23.0721C14.9197 20.1307 16.9046 17.6515 19.4833 17.5359C22.0621 17.4203 24.2662 19.7082 24.3978 22.6496Z" fill="#455A64"/>
<path d="M15.5252 23.2349C15.3772 19.9628 17.5854 17.2049 20.4573 17.075C23.3292 16.9451 25.7773 19.4923 25.9254 22.7645C26.0734 26.0366 23.8652 28.7945 20.9933 28.9244C18.1214 29.0543 15.6732 26.5071 15.5252 23.2349Z" fill="#C7C7C7"/>
<path d="M36.391 13.1399C38.4795 17.0778 38.6111 29.597 36.1558 32.8733C32.5966 37.6163 25.6016 39.3581 21.289 34.8263C17.092 30.418 17.2116 14.1004 20.0614 11.0035C24.2504 6.43185 33.306 7.32465 36.391 13.1399Z" fill="#AD6359"/>
<path d="M25.981 22.8172C25.981 22.7853 26.0488 22.8611 26.0448 22.8969C26.0009 23.7379 26.0886 24.7105 26.8419 25.0054C26.8658 25.0054 26.8619 25.0572 26.8419 25.0532C25.9093 24.9018 25.8056 23.6104 25.981 22.8172Z" fill="#263238"/>
<path d="M26.754 21.9562C28.1132 21.8845 28.157 24.6067 26.9015 24.6705C25.646 24.7343 25.6141 22.016 26.754 21.9562Z" fill="#263238"/>
<path d="M21.2611 22.9208C21.2611 22.8889 21.1974 22.9646 21.1974 22.9965C21.2372 23.8415 21.1416 24.814 20.4002 25.1049C20.3763 25.1049 20.4002 25.1568 20.4002 25.1528C21.3209 25.0053 21.4365 23.7139 21.2611 22.9208Z" fill="#263238"/>
<path d="M20.4919 22.0722C19.1367 21.9885 19.0729 24.7108 20.3324 24.7865C21.5919 24.8622 21.6318 22.12 20.4919 22.0722Z" fill="#263238"/>
<path d="M27.9728 19.7801C27.5742 19.7601 27.2434 19.6765 26.8648 19.6207C26.4653 19.613 26.0797 19.4728 25.7687 19.2221C25.6853 19.1261 25.6361 19.0051 25.6289 18.8781C25.6217 18.7512 25.6568 18.6254 25.7288 18.5206C25.9031 18.3372 26.1231 18.2036 26.3662 18.1335C26.6093 18.0635 26.8667 18.0595 27.1119 18.122C27.6313 18.1633 28.1163 18.398 28.471 18.7797C28.5453 18.8711 28.5917 18.9821 28.6047 19.0992C28.6176 19.2164 28.5966 19.3348 28.544 19.4403C28.4915 19.5458 28.4097 19.6339 28.3084 19.6942C28.2071 19.7544 28.0906 19.7843 27.9728 19.7801Z" fill="#263238"/>
<path d="M19.2122 20.0791C19.576 19.999 19.9353 19.8992 20.2883 19.7801C20.6804 19.7328 21.046 19.5577 21.3286 19.2819C21.4001 19.1767 21.4346 19.0506 21.4266 18.9237C21.4187 18.7967 21.3688 18.676 21.2848 18.5804C21.0898 18.4171 20.8549 18.3085 20.6042 18.2657C20.3535 18.223 20.0959 18.2477 19.8579 18.3373C19.3482 18.4444 18.8965 18.737 18.5904 19.1584C18.5307 19.2585 18.5008 19.3735 18.5041 19.4899C18.5074 19.6064 18.5438 19.7195 18.609 19.8161C18.6742 19.9127 18.7656 19.9887 18.8724 20.0352C18.9792 20.0818 19.097 20.097 19.2122 20.0791Z" fill="#263238"/>
<path d="M27.5193 30.6334C27.32 30.8327 27.1207 31.1077 26.8178 31.1396C26.5044 31.1368 26.1949 31.0689 25.9091 30.9403C25.9034 30.9391 25.8974 30.9395 25.8919 30.9414C25.8864 30.9434 25.8815 30.9468 25.8778 30.9513C25.8741 30.9559 25.8717 30.9613 25.8709 30.9671C25.8701 30.9729 25.8709 30.9788 25.8732 30.9842C25.9954 31.1487 26.1602 31.2769 26.3498 31.3548C26.5394 31.4328 26.7467 31.4576 26.9494 31.4266C27.1207 31.3786 27.2741 31.2812 27.3904 31.1465C27.5066 31.0118 27.5806 30.8458 27.603 30.6693C27.615 30.6215 27.5512 30.6015 27.5193 30.6334Z" fill="#263238"/>
<path d="M26.5905 28.1222C26.3824 28.4591 26.1067 28.7492 25.7808 28.9742C25.455 29.1992 25.086 29.3542 24.6973 29.4295C24.3582 29.5019 24.0105 29.5247 23.665 29.4973C23.5982 29.4948 23.5316 29.4881 23.4657 29.4773L23.2823 29.4494C23.2372 29.442 23.1957 29.4201 23.164 29.387C23.1324 29.354 23.1124 29.3115 23.1069 29.2661C23.105 29.2369 23.105 29.2076 23.1069 29.1784V29.1027C23.079 28.453 23.1069 27.4645 23.1069 27.4645C22.8718 27.5881 21.6681 28.1541 21.684 27.8153C21.8036 25.0014 21.9391 21.8765 22.6526 19.1064C22.6566 19.0888 22.6665 19.0731 22.6806 19.0618C22.6947 19.0506 22.7122 19.0444 22.7303 19.0444C22.7484 19.0444 22.7659 19.0506 22.78 19.0618C22.7941 19.0731 22.804 19.0888 22.808 19.1064C22.808 21.8128 22.3138 24.4991 22.262 27.2174C22.6888 27.011 23.1422 26.8648 23.6092 26.783C23.7008 26.8109 23.4856 28.6921 23.5215 28.9831C23.5205 28.9937 23.5205 29.0044 23.5215 29.015C24.6175 29.1346 25.4346 28.7918 26.4789 28.0425C26.5745 27.9986 26.6423 28.0504 26.5905 28.1222Z" fill="#263238"/>
<path d="M24.0434 29.1584C24.4058 29.6172 24.8809 29.9742 25.4224 30.1947C25.7213 30.3053 26.0472 30.3207 26.3551 30.2386C27.0247 30.0472 27.0327 29.4414 26.9012 28.9033C26.8277 28.6263 26.722 28.3587 26.5863 28.1062C25.8724 28.7188 24.9815 29.0875 24.0434 29.1584Z" fill="#263238"/>
<path d="M25.4224 30.1947C25.7213 30.3053 26.0472 30.3206 26.3551 30.2385C27.0247 30.0472 27.0327 29.4414 26.9012 28.9033C26.1797 28.991 25.4743 29.4932 25.4224 30.1947Z" fill="#FF98B9"/>
<path opacity="0.2" d="M37.958 21.9804C37.1369 21.8489 35.168 19.0708 34.335 17.9667C33.5019 16.8627 33.0197 10.9439 32.9439 9.59668C34.4056 10.4233 35.6026 11.6479 36.3956 13.128C37.3283 14.8977 37.8663 18.3773 37.958 21.9804Z" fill="#263238"/>
<path d="M22.7601 14.4991C23.2468 15.0329 23.8618 15.4336 24.5468 15.6631C25.2318 15.8926 25.964 15.9433 26.6741 15.8104C27.3987 15.677 28.0772 15.3605 28.6451 14.891C29.2129 14.4215 29.6513 13.8146 29.9185 13.128C29.9185 13.0841 29.9982 13.108 29.9823 13.1479C29.7668 13.8959 29.351 14.5708 28.7799 15.0997C28.2089 15.6286 27.5041 15.9915 26.7419 16.1492C25.9845 16.2635 25.2104 16.1764 24.4974 15.8965C23.7844 15.6167 23.1577 15.1539 22.6804 14.5549C22.6777 14.5446 22.6782 14.5338 22.6818 14.5238C22.6854 14.5138 22.6921 14.5052 22.7008 14.4991C22.7094 14.493 22.7198 14.4898 22.7304 14.4897C22.741 14.4897 22.7514 14.493 22.7601 14.4991Z" fill="#263238"/>
<path d="M26.8089 3.889C29.2681 3.86509 31.5639 5.15248 32.5165 6.7946C33.0456 7.73039 33.2423 8.81774 33.0745 9.87957C33.0745 9.92341 32.9828 9.91544 32.9868 9.87957C33.0075 8.94378 32.776 8.01967 32.3167 7.20411C31.8574 6.38854 31.1871 5.71157 30.3761 5.24415C29.4882 4.69999 28.4861 4.36926 27.4487 4.27796C26.4113 4.18667 25.3669 4.33731 24.3975 4.71803C23.4528 5.06764 22.664 5.74332 22.1735 6.62322C22.1257 6.71489 21.9423 6.66307 21.9782 6.5714C22.6 5.00899 24.5888 3.90893 26.8089 3.889Z" fill="#263238"/>
<path d="M12.7201 9.66431C13.0847 8.43954 13.8694 7.38249 14.9362 6.679C16.4149 5.6985 18.1248 5.7822 19.8147 5.90177C19.8242 5.90177 19.8333 5.90555 19.8401 5.91228C19.8468 5.91901 19.8506 5.92813 19.8506 5.93765C19.8506 5.94716 19.8468 5.95628 19.8401 5.96301C19.8333 5.96974 19.8242 5.97352 19.8147 5.97352C18.3719 5.87786 16.9011 5.86192 15.6018 6.58334C14.5202 7.16883 13.6751 8.11115 13.2103 9.2498C12.768 10.4177 12.7623 11.7061 13.1944 12.8779C13.6265 14.0496 14.4672 15.0259 15.5619 15.627C16.2004 15.9568 16.8995 16.1527 17.6164 16.2028C18.3333 16.2528 19.0529 16.1559 19.731 15.9179C19.7868 15.898 19.8267 15.9737 19.7749 15.9977C18.8589 16.3587 17.8605 16.4576 16.8915 16.2835C15.9224 16.1094 15.021 15.669 14.288 15.0117C13.555 14.3544 13.0193 13.5061 12.741 12.5617C12.4627 11.6173 12.4527 10.6141 12.7121 9.66431H12.7201Z" fill="#263238"/>
<path d="M37.2794 15.5513C37.2794 15.5513 39.4557 11.0753 37.415 8.60413C36.2591 7.20514 32.6002 7.52399 32.6002 7.52399C32.6002 7.52399 31.3447 5.46336 28.2836 4.87746C25.2226 4.29156 21.6115 6.2087 21.6115 6.2087C21.6115 6.2087 18.6381 4.65027 15.9677 6.30834C12.241 8.62007 12.9266 14.3954 16.8246 16.1173C19.5588 17.313 23.1221 14.8179 23.1221 14.8179C23.4768 14.8538 27.1517 16.8865 29.7504 13.5823C29.7504 13.5823 32.0302 15.4636 33.9633 14.0168C34.2922 14.5816 34.7866 15.0317 35.3798 15.3061C35.9729 15.5806 36.6361 15.6662 37.2794 15.5513Z" fill="#263238"/>
<path d="M35.7126 23.4949C35.7126 23.4949 37.7812 19.1105 39.7302 19.7642C41.6792 20.4179 40.5991 26.4842 38.6461 27.6241C38.4051 27.7876 38.1336 27.9007 37.8478 27.9565C37.562 28.0124 37.2679 28.0099 36.9831 27.9493C36.6982 27.8886 36.4286 27.7709 36.1905 27.6034C35.9523 27.4359 35.7504 27.2219 35.597 26.9744L35.7126 23.4949Z" fill="#AD6359"/>
<path d="M39.38 21.4902C39.4119 21.4902 39.4278 21.5301 39.38 21.546C38.0168 22.391 37.4788 23.8857 37.1838 25.3883C37.5226 24.7705 38.0687 24.3719 38.8818 24.7625C38.8902 24.7681 38.8966 24.7761 38.9002 24.7856C38.9037 24.795 38.9042 24.8053 38.9016 24.815C38.8989 24.8248 38.8932 24.8334 38.8854 24.8397C38.8775 24.846 38.8679 24.8497 38.8578 24.8502C38.5857 24.8133 38.3087 24.8613 38.0648 24.9875C37.8208 25.1138 37.6218 25.3122 37.4947 25.5557C37.2881 25.9653 37.1251 26.3954 37.0085 26.8391C36.9606 26.9826 36.7135 26.9507 36.7374 26.7913C36.7356 26.7794 36.7356 26.7673 36.7374 26.7554C36.4026 24.8941 37.403 22.0283 39.38 21.4902Z" fill="#263238"/>
<path d="M31.2054 32.3234L35.1314 30.6294L38.2881 26.6995L37.6823 26.2092L34.6451 29.9917L30.8945 31.6099L31.2054 32.3234Z" fill="#C7C7C7"/>
<path d="M31.6239 31.6976C31.2253 30.5537 28.0367 30.9762 28.6146 32.706C29.1926 34.4358 32.0105 32.8335 31.6239 31.6976Z" fill="#37474F"/>
<path d="M39.7905 19.6447C39.7905 19.6447 40.217 13.2157 38.3357 9.6803C36.2392 5.73043 27.5503 1.97188 21.5956 6.21669C21.5956 6.21669 31.269 4.48688 35.7769 9.96329C37.6741 12.267 37.6263 19.824 37.6263 19.824L39.7905 19.6447Z" fill="#C7C7C7"/>
<path d="M38.9132 28.8783C36.0385 28.8497 33.7345 26.1713 33.7671 22.896C33.7997 19.6207 36.1565 16.9887 39.0312 17.0173C41.9059 17.0459 44.2099 19.7243 44.1773 22.9996C44.1447 26.2749 41.7879 28.9069 38.9132 28.8783Z" fill="#C7C7C7"/>
<path d="M35.2868 22.7257C35.2589 25.6712 37.3275 28.0786 39.9102 28.1025C42.493 28.1264 44.6134 25.7628 44.6413 22.8174C44.6692 19.8719 42.6006 17.4645 40.0179 17.4406C37.4351 17.4167 35.3147 19.7802 35.2868 22.7257Z" fill="#455A64"/>
<path d="M26.6498 39.0035L29.4598 46.0981L38.3002 37.178L40.7793 40.0637C40.7793 40.0637 32.1103 54.2569 32.0585 53.6152L29.1688 47.4971L24.936 51.7259L25.3345 41.0681L26.6498 39.0035Z" fill="#EBEBEB"/>
<path d="M24.8332 46.445C24.9568 44.6873 25.0285 42.9136 25.2318 41.1639C25.2318 41.1041 25.3354 41.0762 25.3514 41.1639C25.6941 42.8658 25.1879 49.5817 25.1879 51.196H25.2079C25.3832 51.0126 29.1298 47.4773 29.1657 47.5331C29.7915 48.5056 31.9159 52.9577 32.0594 53.3642C33.4305 51.1083 39.2337 42.2241 40.8679 40.0917C40.8758 40.0779 40.8888 40.0679 40.9042 40.0638C40.9195 40.0597 40.9358 40.0618 40.9496 40.0698C40.9633 40.0777 40.9733 40.0908 40.9774 40.1061C40.9816 40.1214 40.9794 40.1377 40.9715 40.1515C39.7758 42.5429 32.2427 54.265 32.1391 54.2331C31.0208 52.1313 30.0111 49.9735 29.1139 47.7682C28.4802 48.5375 24.7017 52.5312 24.6897 52.2681C24.6347 50.3259 24.6826 48.3821 24.8332 46.445Z" fill="#263238"/>
</g>
</svg>
