<svg width="27" height="27" viewBox="0 0 27 27" fill="none" xmlns="http://www.w3.org/2000/svg">
<circle cx="13.5" cy="13.5" r="13.5" fill="white"/>
<path d="M14.5537 16.3606C14.5537 16.7665 14.2247 17.0954 13.8188 17.0954C13.4131 17.0954 13.084 16.7665 13.084 16.3606C13.084 15.9549 13.4131 15.6257 13.8188 15.6257C14.2247 15.6257 14.5537 15.9549 14.5537 16.3606Z" fill="#00A2AF"/>
<path d="M13.8179 8.54199C12.3262 8.54199 11.1162 9.74913 11.1162 11.2437V11.2447C11.1162 11.6504 11.4452 11.9791 11.8511 11.9791C12.2569 11.9791 12.5859 11.6496 12.5859 11.2437C12.5859 10.5644 13.1353 10.0117 13.8189 10.0117C14.4986 10.0117 15.0517 10.5647 15.0517 11.2447C15.0517 11.9244 14.4986 12.4774 13.8189 12.4774C13.413 12.4774 13.084 12.8066 13.084 13.2123V13.9994C13.084 14.4053 13.413 14.7342 13.8189 14.7342C14.2246 14.7342 14.5537 14.4053 14.5537 13.9994V13.8457C15.688 13.5248 16.5214 12.4801 16.5214 11.2447C16.5214 9.7543 15.3091 8.54199 13.8179 8.54199Z" fill="#00A2AF"/>
<path d="M18.5414 5H9.09612C7.38607 5 6 6.38358 6 8.09612V22.264C6 22.865 6.6893 23.2166 7.17576 22.8518L10.1282 20.6375H18.5414C20.2515 20.6375 21.6375 19.254 21.6375 17.5414V8.09612C21.6375 6.38607 20.254 5 18.5414 5V5ZM20.1678 17.5414C20.1678 18.4405 19.4408 19.1678 18.5414 19.1678H9.88321C9.72419 19.1678 9.56956 19.2195 9.44231 19.3148L7.4697 20.7943V8.09612C7.4697 7.19708 8.1967 6.4697 9.09612 6.4697H18.5414C19.4405 6.4697 20.1678 7.1967 20.1678 8.09612V17.5414Z" fill="#00A2AF"/>
</svg>
