<svg width="27" height="27" viewBox="0 0 27 27" fill="none" xmlns="http://www.w3.org/2000/svg">
<circle cx="13.5" cy="13.5" r="13.5" fill="white"/>
<path d="M19.625 6H8.375C7.4802 6.00103 6.62234 6.36606 5.98962 7.015C5.35691 7.66394 5.001 8.5438 5 9.46154V17.5385C5.001 18.4562 5.35691 19.3361 5.98962 19.985C6.62234 20.6339 7.4802 20.999 8.375 21H19.625C20.5198 20.999 21.3777 20.6339 22.0104 19.985C22.6431 19.3361 22.999 18.4562 23 17.5385V9.46154C22.999 8.5438 22.6431 7.66394 22.0104 7.015C21.3777 6.36606 20.5198 6.00103 19.625 6V6ZM21.875 17.5385C21.8743 18.1503 21.6371 18.7369 21.2152 19.1695C20.7934 19.6021 20.2215 19.8455 19.625 19.8462H8.375C7.77847 19.8455 7.20656 19.6021 6.78475 19.1695C6.36294 18.7369 6.12567 18.1503 6.125 17.5385V9.46154C6.12567 8.84971 6.36294 8.26314 6.78475 7.83051C7.20656 7.39788 7.77847 7.15453 8.375 7.15385H19.625C20.2215 7.15453 20.7934 7.39788 21.2152 7.83051C21.6371 8.26314 21.8743 8.84971 21.875 9.46154V17.5385Z" fill="#00A2AF"/>
<path d="M18.6546 12.9969L9.90454 9.0594C9.80925 9.01651 9.70336 8.99626 9.59693 9.00057C9.49051 9.00487 9.38707 9.03359 9.29644 9.084C9.20581 9.1344 9.13101 9.20482 9.07912 9.28857C9.02724 9.37231 9 9.4666 9 9.56248V17.4375C9 17.5334 9.02724 17.6277 9.07912 17.7114C9.13101 17.7952 9.20581 17.8656 9.29644 17.916C9.38707 17.9664 9.49051 17.9951 9.59693 17.9994C9.70336 18.0037 9.80925 17.9835 9.90454 17.9406L18.6546 14.0031C18.7584 13.9564 18.8457 13.8846 18.9067 13.7957C18.9677 13.7068 19 13.6045 19 13.5C19 13.3955 18.9677 13.2932 18.9067 13.2043C18.8457 13.1154 18.7584 13.0436 18.6546 12.9969V12.9969ZM10.25 16.5274V10.4726L16.9775 13.5L10.25 16.5274Z" fill="#00A2AF"/>
</svg>
