<svg width="27" height="27" viewBox="0 0 27 27" fill="none" xmlns="http://www.w3.org/2000/svg">
<circle cx="13.5" cy="13.5" r="13.5" fill="white"/>
<path d="M20 19.3984V17.7986C20 16.9507 19.6632 16.1348 19.0624 15.5348C18.4624 14.9349 17.6488 14.5989 16.8 14.5989H11.2C10.3512 14.5989 9.5376 14.9349 8.9376 15.5348C8.3368 16.1348 8 16.9507 8 17.7986V19.3984" stroke="#20ADB9" stroke-width="2" stroke-linecap="round" stroke-linejoin="round"/>
<path d="M13.9998 11.3994C15.767 11.3994 17.1998 9.96753 17.1998 8.1997C17.1998 6.43186 15.767 5 13.9998 5C12.2326 5 10.7998 6.43186 10.7998 8.1997C10.7998 9.96753 12.2326 11.3994 13.9998 11.3994Z" stroke="#20ADB9" stroke-width="2" stroke-linecap="round" stroke-linejoin="round"/>
</svg>
