<svg width="2034" height="678" viewBox="0 0 2034 678" fill="none" xmlns="http://www.w3.org/2000/svg">
<path d="M622.449 55.5508C659.491 92.5668 677.999 141.134 677.999 189.673C677.999 238.213 659.465 286.753 622.449 323.796C585.433 360.812 536.866 379.347 488.326 379.347C439.786 379.347 391.246 360.812 354.203 323.796L366.453 311.547C400.111 345.205 444.218 362.021 488.326 362.021C532.434 362.021 576.541 345.205 610.2 311.547C643.858 277.889 660.673 233.781 660.673 189.673C660.673 145.566 643.831 101.458 610.2 67.8L622.449 55.5508Z" fill="#E7C8FF"/>
<path d="M601.121 76.8792C632.254 108.012 647.834 148.843 647.834 189.673C647.834 230.477 632.254 271.334 601.121 302.467C569.987 333.6 529.157 349.18 488.326 349.18C447.523 349.18 406.692 333.6 375.532 302.467L387.782 290.218C415.557 317.994 451.928 331.854 488.326 331.854C524.698 331.854 561.096 317.967 588.845 290.218C616.62 262.443 630.508 226.071 630.508 189.673C630.508 153.275 616.62 116.904 588.871 89.1283L601.121 76.8792Z" fill="#E7C8FF"/>
<path d="M579.792 98.2081C605.043 123.458 617.668 156.553 617.668 189.674C617.668 222.768 605.043 255.862 579.792 281.139C554.542 306.39 521.448 319.015 488.327 319.015C455.233 319.015 422.139 306.39 396.861 281.139L409.11 268.89C430.976 290.756 459.665 301.716 488.327 301.716C516.989 301.716 545.651 290.756 567.543 268.89C589.409 247.024 600.342 218.335 600.342 189.674C600.342 161.012 589.409 132.35 567.543 110.457L579.792 98.2081Z" fill="#E7C8FF"/>
<path d="M558.437 119.563C577.804 138.931 587.475 164.316 587.475 189.673C587.475 215.058 577.804 240.443 558.437 259.81C539.069 279.178 513.685 288.848 488.327 288.848C462.942 288.848 437.557 279.151 418.19 259.81L430.439 247.561C446.422 263.544 467.374 271.522 488.327 271.522C509.279 271.522 530.232 263.517 546.188 247.561C562.171 231.578 570.176 210.626 570.176 189.673C570.176 168.721 562.171 147.769 546.188 131.812L558.437 119.563Z" fill="#E7C8FF"/>
<path d="M537.082 140.892C550.567 154.376 557.336 172.052 557.336 189.673C557.336 207.322 550.594 224.997 537.136 238.455C523.678 251.913 506.002 258.655 488.354 258.655C470.706 258.655 453.03 251.913 439.572 238.455L451.822 226.206C461.922 236.306 475.138 241.356 488.354 241.356C501.57 241.356 514.813 236.306 524.886 226.233C534.987 216.132 540.037 202.916 540.037 189.673C540.037 176.43 534.987 163.187 524.94 153.141L537.109 140.892H537.082Z" fill="#E7C8FF"/>
<path d="M515.779 162.221C523.354 169.796 527.142 179.735 527.142 189.674C527.142 199.613 523.354 209.552 515.779 217.127C508.204 224.702 498.265 228.489 488.326 228.489C478.387 228.489 468.448 224.702 460.873 217.127L473.122 204.878C477.313 209.095 482.819 211.19 488.326 211.19C493.833 211.19 499.34 209.095 503.53 204.878C507.721 200.687 509.843 195.18 509.843 189.674C509.843 184.167 507.748 178.66 503.53 174.47L515.779 162.221Z" fill="#E7C8FF"/>
<path d="M204.877 473.123C167.861 436.08 149.326 387.54 149.326 339C149.326 290.46 167.861 241.921 204.877 204.878C241.92 167.862 290.46 149.327 339 149.327C387.54 149.327 436.079 167.862 473.122 204.878L460.873 217.127C427.215 183.469 383.107 166.653 339 166.653C294.892 166.653 250.785 183.496 217.126 217.127C183.468 250.785 166.652 294.893 166.652 339C166.652 383.108 183.495 427.216 217.126 460.874L204.877 473.123Z" fill="#E7C8FF"/>
<path d="M226.206 451.794C195.072 420.66 179.492 379.83 179.492 339C179.492 298.169 195.072 257.339 226.206 226.206C257.339 195.072 298.169 179.492 339 179.492C379.83 179.492 420.66 195.072 451.794 226.206L439.545 238.455C411.796 210.679 375.398 196.818 339 196.818C302.601 196.818 266.23 210.706 238.455 238.455C210.679 266.203 196.818 302.601 196.818 339C196.818 375.398 210.706 411.769 238.455 439.545L226.206 451.794Z" fill="#E7C8FF"/>
<path d="M247.533 430.466C222.283 405.215 209.658 372.121 209.658 339.027C209.658 305.933 222.283 272.839 247.533 247.588C272.784 222.338 305.905 209.713 338.999 209.713C372.093 209.713 405.187 222.338 430.438 247.588L418.188 259.838C396.323 237.972 367.634 227.039 338.972 227.039C310.31 227.039 281.648 237.972 259.782 259.838C237.917 281.73 226.957 310.392 226.957 339.054C226.957 367.716 237.89 396.378 259.756 418.243L247.506 430.493L247.533 430.466Z" fill="#E7C8FF"/>
<path d="M268.862 409.137C249.495 389.769 239.824 364.385 239.824 339C239.824 313.615 249.522 288.231 268.862 268.863C288.23 249.495 313.615 239.825 338.999 239.825C364.384 239.825 389.769 249.522 409.136 268.863L396.887 281.112C380.904 265.129 359.952 257.124 339.026 257.124C318.074 257.124 297.121 265.129 281.165 281.112C265.182 297.095 257.177 318.048 257.177 338.973C257.177 359.926 265.182 380.878 281.165 396.834L268.916 409.083L268.862 409.137Z" fill="#E7C8FF"/>
<path d="M290.218 387.755C276.76 374.297 270.018 356.648 270.018 339C270.018 321.351 276.76 303.73 290.218 290.245C303.676 276.733 321.351 269.991 339 269.991C356.648 269.991 374.324 276.733 387.781 290.191L375.532 302.441C365.459 292.34 352.216 287.317 339 287.317C325.784 287.317 312.541 292.367 302.467 302.441C292.367 312.514 287.344 325.757 287.344 338.973C287.344 352.216 292.394 365.459 302.467 375.559L290.218 387.728V387.755Z" fill="#E7C8FF"/>
<path d="M311.547 366.453C303.972 358.878 300.184 348.912 300.184 339C300.184 329.061 303.972 319.122 311.547 311.547C319.122 303.972 329.088 300.184 339 300.184C348.939 300.184 358.878 303.972 366.453 311.547L354.204 323.796C350.013 319.578 344.506 317.483 339 317.483C333.493 317.483 327.986 319.578 323.796 323.769C319.578 327.986 317.483 333.493 317.483 338.973C317.483 344.48 319.578 349.986 323.769 354.177L311.52 366.426L311.547 366.453Z" fill="#E7C8FF"/>
<path d="M301.178 158.997C304.321 139.764 310.446 120.88 319.552 103.124C328.363 85.932 339.94 69.8416 354.204 55.5778C391.247 18.5349 439.787 0.0269165 488.327 0.0269165C536.867 0.0269165 585.406 18.5618 622.449 55.5778L610.2 67.8269C576.542 34.1687 532.434 17.353 488.327 17.353C444.219 17.353 400.112 34.1955 366.453 67.8269C353.371 80.9088 342.842 95.5218 334.89 110.994C326.644 127.112 321.056 144.25 318.209 161.791L301.178 159.024V158.997Z" fill="#E7C8FF"/>
<path d="M332.366 156.23C335.509 141.483 340.8 127.058 348.188 113.466C355.333 100.33 364.439 88.0002 375.533 76.933C406.64 45.773 447.497 30.1929 488.3 30.1929C529.131 30.1929 569.961 45.773 601.094 76.9062L588.845 89.1553C561.07 61.3799 524.699 47.519 488.3 47.519C451.902 47.519 415.504 61.4067 387.755 89.1553C377.816 99.0406 369.677 110.027 363.338 121.712C356.783 133.773 352.083 146.613 349.262 159.83L332.339 156.23H332.366Z" fill="#E7C8FF"/>
<path d="M362.746 158.836C365.513 147.581 369.811 136.594 375.667 126.226C381.308 116.152 388.399 106.724 396.888 98.2352C422.138 72.9848 455.259 60.3596 488.353 60.3596C521.447 60.3596 554.568 72.9848 579.819 98.2352L567.57 110.484C545.704 88.6186 517.042 77.6857 488.353 77.6857C459.691 77.6857 431.029 88.6186 409.137 110.484C401.723 117.871 395.571 126.038 390.709 134.687C385.632 143.605 381.899 153.141 379.535 162.919L362.746 158.863V158.836Z" fill="#E7C8FF"/>
<path d="M391.864 166.653C393.932 157.95 397.236 149.407 401.749 141.322C406.101 133.478 411.607 126.145 418.188 119.564C437.556 100.196 462.941 90.5256 488.326 90.5256C513.71 90.5256 539.095 100.196 558.436 119.564L546.187 131.813C530.204 115.83 509.251 107.825 488.326 107.825C467.373 107.825 446.421 115.83 430.438 131.813C424.958 137.293 420.418 143.337 416.845 149.757C413.138 156.311 410.425 163.376 408.706 170.655L391.864 166.653Z" fill="#E7C8FF"/>
<path d="M419.961 180.54C420.955 173.153 423.131 165.874 426.489 159.104C429.739 152.55 434.091 146.399 439.571 140.919C453.029 127.434 470.677 120.692 488.325 120.692C505.947 120.692 523.622 127.434 537.107 140.946L524.858 153.114C514.811 143.041 501.568 138.018 488.325 138.018C475.109 138.018 461.866 143.068 451.793 153.141C447.656 157.224 444.406 161.818 441.988 166.733C439.463 171.837 437.825 177.263 437.099 182.77L419.988 180.54H419.961Z" fill="#E7C8FF"/>
<path d="M460.874 217.127C453.299 209.551 449.511 199.612 449.511 189.673C449.511 179.734 453.299 169.795 460.874 162.22C468.449 154.645 478.388 150.858 488.327 150.858C498.266 150.858 508.205 154.645 515.78 162.22L503.531 174.469C499.34 170.279 493.833 168.157 488.327 168.157C482.82 168.157 477.313 170.252 473.123 174.469C468.905 178.66 466.81 184.167 466.81 189.673C466.81 195.18 468.905 200.687 473.123 204.877L460.874 217.127Z" fill="#E7C8FF"/>
<path d="M323.797 354.203C360.813 391.246 379.348 439.786 379.348 488.326C379.348 536.866 360.813 585.406 323.797 622.449C286.754 659.491 238.214 677.999 189.674 677.999C141.134 677.999 92.5944 659.491 55.5515 622.449L67.8006 610.2C101.459 643.858 145.566 660.673 189.674 660.673C233.782 660.673 277.889 643.831 311.548 610.2C345.206 576.541 362.048 532.434 362.048 488.326C362.048 444.218 345.206 400.111 311.548 366.453L323.797 354.203Z" fill="#E7C8FF"/>
<path d="M302.467 375.532C333.6 406.692 349.18 447.496 349.18 488.326C349.18 529.13 333.6 569.96 302.467 601.121C271.334 632.254 230.504 647.834 189.673 647.834C148.87 647.834 108.012 632.254 76.8792 601.121L89.1283 588.871C116.904 616.647 153.275 630.508 189.673 630.508C226.071 630.508 262.47 616.62 290.218 588.871C317.994 561.096 331.854 524.725 331.854 488.326C331.854 451.955 317.967 415.557 290.218 387.808L302.467 375.559V375.532Z" fill="#E7C8FF"/>
<path d="M281.112 396.888C306.363 422.138 318.988 455.232 318.988 488.353C318.988 521.447 306.363 554.541 281.112 579.819C255.862 605.069 222.768 617.694 189.647 617.694C156.553 617.694 123.458 605.069 98.1812 579.819L110.43 567.57C132.296 589.435 160.985 600.368 189.647 600.368C218.309 600.368 246.997 589.435 268.863 567.57C290.729 545.704 301.689 517.015 301.689 488.353C301.689 459.691 290.756 431.003 268.863 409.137L281.112 396.888Z" fill="#E7C8FF"/>
<path d="M259.784 418.216C279.151 437.584 288.821 462.968 288.821 488.353C288.821 513.738 279.151 539.122 259.784 558.463C240.416 577.831 215.031 587.501 189.647 587.501C164.262 587.501 138.877 577.831 119.536 558.463L131.786 546.214C147.768 562.197 168.721 570.202 189.647 570.202C210.599 570.202 231.551 562.197 247.534 546.214C263.517 530.231 271.495 509.279 271.495 488.353C271.495 467.4 263.49 446.448 247.534 430.465L259.784 418.216Z" fill="#E7C8FF"/>
<path d="M238.455 439.545C251.913 453.03 258.656 470.678 258.656 488.326C258.656 505.975 251.913 523.65 238.455 537.108C224.971 550.566 207.322 557.308 189.647 557.308C172.025 557.308 154.377 550.566 140.892 537.108L153.061 524.859C163.134 534.959 176.377 539.982 189.62 539.982C202.836 539.982 216.079 534.932 226.153 524.859C236.253 514.759 241.303 501.543 241.303 488.326C241.303 475.11 236.253 461.867 226.179 451.794L238.429 439.545H238.455Z" fill="#E7C8FF"/>
<path d="M217.127 460.874C224.702 468.449 228.489 478.388 228.489 488.327C228.489 498.266 224.702 508.205 217.127 515.78C209.498 523.355 199.586 527.143 189.674 527.143C179.762 527.143 169.823 523.355 162.247 515.78L174.416 503.531C178.633 507.721 184.14 509.843 189.674 509.843C195.18 509.843 200.687 507.748 204.904 503.558C209.095 499.34 211.19 493.834 211.19 488.327C211.19 482.82 209.095 477.313 204.878 473.123L217.127 460.874Z" fill="#E7C8FF"/>
<path d="M161.764 318.236C144.223 321.083 127.085 326.671 110.967 334.917C95.4949 342.868 80.9087 353.372 67.8 366.48C34.1418 400.138 17.3261 444.246 17.3261 488.354C17.3261 532.461 34.1686 576.569 67.8 610.227L55.5509 622.476C18.508 585.46 0 536.894 0 488.354C0 439.814 18.508 391.274 55.5509 354.231C69.8415 339.94 85.9051 328.39 103.097 319.579C120.853 310.473 139.737 304.348 158.97 301.205L161.737 318.236H161.764Z" fill="#E7C8FF"/>
<path d="M159.803 349.288C146.613 352.109 133.746 356.81 121.685 363.364C110 369.73 99.0136 377.843 89.1284 387.755C61.3529 415.557 47.4921 451.955 47.4921 488.327C47.4921 524.725 61.3798 561.096 89.1284 588.872L76.8792 601.121C45.746 569.988 30.166 529.157 30.166 488.327C30.166 447.496 45.746 406.666 76.8792 375.533C87.9733 364.465 100.303 355.359 113.439 348.214C127.031 340.827 141.456 335.535 156.203 332.392L159.803 349.315V349.288Z" fill="#E7C8FF"/>
<path d="M162.892 379.535C153.114 381.925 143.605 385.632 134.66 390.682C126.011 395.571 117.871 401.723 110.457 409.137C88.5916 431.003 77.6587 459.664 77.6587 488.353C77.6587 517.015 88.5916 545.677 110.457 567.57L98.2082 579.819C72.9578 554.568 60.3326 521.447 60.3326 488.353C60.3326 455.259 72.9578 422.138 98.2082 396.888C106.724 388.399 116.152 381.308 126.199 375.64C136.567 369.811 147.554 365.513 158.809 362.746L162.865 379.535H162.892Z" fill="#E7C8FF"/>
<path d="M170.628 408.734C163.349 410.453 156.284 413.166 149.703 416.846C143.31 420.446 137.266 424.985 131.786 430.465C115.803 446.448 107.798 467.401 107.798 488.353C107.798 509.305 115.803 530.231 131.786 546.214L119.537 558.463C100.169 539.096 90.4987 513.711 90.4987 488.353C90.4987 462.968 100.169 437.584 119.537 418.216C126.118 411.635 133.451 406.128 141.241 401.776C149.354 397.264 157.896 393.933 166.626 391.891L170.628 408.734Z" fill="#E7C8FF"/>
<path d="M182.742 437.101C177.236 437.826 171.81 439.464 166.706 441.99C161.79 444.407 157.197 447.684 153.114 451.767C143.013 461.894 137.99 475.137 137.99 488.354C137.99 501.597 143.04 514.84 153.114 524.913L140.864 537.081C127.406 523.624 120.664 505.975 120.664 488.327C120.664 470.678 127.406 453.003 140.864 439.545C146.344 434.092 152.496 429.74 159.05 426.49C165.846 423.132 173.099 420.956 180.486 419.963L182.716 437.074L182.742 437.101Z" fill="#E7C8FF"/>
<path d="M204.878 473.122C200.688 468.905 195.181 466.809 189.674 466.809C184.167 466.809 178.661 468.905 174.47 473.122C170.253 477.313 168.157 482.819 168.157 488.326C168.157 493.86 170.253 499.366 174.47 503.584L162.221 515.752C154.646 508.177 150.858 498.238 150.858 488.326C150.858 478.414 154.646 468.475 162.221 460.9C169.796 453.271 179.735 449.483 189.674 449.483C199.613 449.483 209.552 453.271 217.127 460.846L204.878 473.095V473.122Z" fill="#E7C8FF"/>
<path d="M526.147 369.703C523.004 388.936 516.88 407.82 507.774 425.576C498.936 442.768 487.385 458.858 473.122 473.149C458.831 487.44 442.767 498.99 425.549 507.801C407.793 516.907 388.909 523.032 369.675 526.175L366.909 509.117C384.45 506.27 401.588 500.683 417.705 492.436C433.204 484.512 447.791 473.982 460.872 460.873C473.954 447.791 484.484 433.205 492.435 417.706C500.709 401.588 506.269 384.45 509.117 366.909L526.174 369.676L526.147 369.703Z" fill="#E7C8FF"/>
<path d="M494.961 372.471C491.819 387.218 486.527 401.643 479.113 415.235C471.967 428.371 462.861 440.701 451.794 451.768L451.767 451.795C440.7 462.862 428.37 471.968 415.235 479.113C401.642 486.5 387.217 491.819 372.47 494.962L368.871 478.039C382.06 475.218 394.9 470.518 406.988 463.963C418.646 457.597 429.66 449.458 439.572 439.572C449.484 429.66 457.623 418.647 463.963 406.989C470.517 394.928 475.218 382.087 478.038 368.871L494.961 372.471Z" fill="#E7C8FF"/>
<path d="M464.58 369.865C461.814 381.12 457.516 392.107 451.66 402.475C445.965 412.575 438.9 422.004 430.439 430.466C421.977 438.927 412.549 445.992 402.448 451.687C392.08 457.543 381.093 461.841 369.838 464.607L365.782 447.819C375.559 445.428 385.069 441.694 394.014 436.671C402.583 431.836 410.749 425.684 418.216 418.216C425.684 410.749 431.836 402.583 436.671 394.014C441.721 385.095 445.428 375.559 447.819 365.782L464.607 369.838L464.58 369.865Z" fill="#E7C8FF"/>
<path d="M435.461 362.02C433.366 370.777 430.089 379.319 425.576 387.405C421.171 395.249 415.691 402.582 409.137 409.136C402.582 415.691 395.249 421.171 387.405 425.549C379.346 430.089 370.777 433.393 362.047 435.461L358.072 418.619C365.298 416.9 372.362 414.187 378.97 410.48C385.337 406.934 391.381 402.394 396.887 396.887C402.394 391.381 406.934 385.337 410.48 378.997C414.187 372.362 416.9 365.297 418.619 358.045L435.461 362.02Z" fill="#E7C8FF"/>
<path d="M407.364 348.16C406.397 355.574 404.221 362.827 400.836 369.596C397.559 376.204 393.208 382.355 387.781 387.808C382.355 393.234 376.177 397.586 369.569 400.863C362.773 404.221 355.52 406.397 348.133 407.391L345.903 390.28C351.41 389.554 356.809 387.916 361.94 385.391C366.802 383 371.422 379.723 375.532 375.586C379.669 371.449 382.946 366.856 385.337 361.994C387.862 356.89 389.501 351.464 390.226 345.957L407.337 348.187L407.364 348.16Z" fill="#E7C8FF"/>
<path d="M366.453 311.547C374.028 319.122 377.816 329.088 377.816 339C377.816 348.939 374.028 358.878 366.453 366.453C358.878 374.028 348.912 377.816 339 377.816C329.061 377.816 319.122 374.028 311.547 366.453L323.796 354.204C327.986 358.421 333.493 360.517 339 360.517C344.507 360.517 350.013 358.421 354.204 354.231C358.421 350.013 360.517 344.507 360.517 339.027C360.517 333.52 358.421 328.013 354.231 323.823L366.48 311.574L366.453 311.547Z" fill="#E7C8FF"/>
<path d="M622.449 622.449C585.433 659.492 536.866 678 488.326 678C439.786 678 391.247 659.492 354.204 622.449C350.228 618.473 346.306 614.149 342.438 609.501C338.731 605.042 335.212 600.368 331.881 595.56L346.091 585.809C349.019 590.08 352.216 594.324 355.681 598.461C358.851 602.276 362.45 606.197 366.426 610.2C400.084 643.858 444.192 660.674 488.299 660.674C532.407 660.674 576.515 643.831 610.173 610.2L622.422 622.449H622.449Z" fill="#E7C8FF"/>
<path d="M601.121 601.12C569.987 632.254 529.157 647.834 488.327 647.834C447.523 647.834 406.666 632.254 375.533 601.12C370.106 595.641 365.083 589.838 360.543 583.768C355.896 577.562 351.786 571.115 348.187 564.507L363.337 556.261C366.561 562.197 370.241 567.946 374.351 573.426C378.353 578.771 382.812 583.956 387.755 588.871C415.557 616.647 451.955 630.508 488.327 630.508C524.725 630.508 561.096 616.62 588.872 588.871L601.121 601.12Z" fill="#E7C8FF"/>
<path d="M579.792 579.792C554.541 605.043 521.447 617.668 488.326 617.668C455.232 617.668 422.138 605.043 396.861 579.792C388.453 571.384 381.388 561.983 375.693 551.909C369.837 541.568 365.54 530.635 362.773 519.46L379.562 515.323C381.979 525.101 385.686 534.557 390.709 543.448C395.544 551.99 401.669 560.102 409.11 567.516C430.976 589.382 459.664 600.315 488.326 600.315C516.988 600.315 545.65 589.382 567.543 567.516L579.792 579.765V579.792Z" fill="#E7C8FF"/>
<path d="M558.437 558.463C539.069 577.831 513.685 587.501 488.327 587.501C462.942 587.501 437.557 577.831 418.19 558.463C411.635 551.909 406.156 544.602 401.804 536.839C397.345 528.888 394.041 520.373 391.946 511.562L408.734 507.586C410.454 514.705 413.167 521.716 416.9 528.378C420.473 534.744 424.986 540.761 430.439 546.214C446.422 562.197 467.374 570.202 488.327 570.202C509.279 570.202 530.232 562.197 546.188 546.214L558.437 558.463Z" fill="#E7C8FF"/>
<path d="M537.108 537.108C523.65 550.566 505.975 557.308 488.327 557.308C470.705 557.308 453.057 550.566 439.572 537.108C434.119 531.709 429.767 525.557 426.517 518.976C423.159 512.207 420.983 504.981 419.99 497.647L437.101 495.337C437.853 500.844 439.491 506.243 442.016 511.32C444.407 516.155 447.684 520.749 451.794 524.859C461.868 534.959 475.111 539.982 488.327 539.982C501.543 539.982 514.786 534.932 524.859 524.859L537.108 537.108Z" fill="#E7C8FF"/>
<path d="M515.752 515.807C508.177 523.382 498.238 527.17 488.326 527.17C478.414 527.17 468.475 523.382 460.9 515.807C453.271 508.232 449.483 498.293 449.483 488.354C449.483 478.415 453.271 468.476 460.846 460.901L473.095 473.15C468.878 477.34 466.783 482.847 466.783 488.354C466.783 493.861 468.878 499.367 473.095 503.558C477.259 507.775 482.792 509.87 488.299 509.87C493.833 509.87 499.34 507.775 503.557 503.558L515.725 515.807H515.752Z" fill="#E7C8FF"/>
<path d="M595.56 331.882C600.234 335.079 604.881 338.624 609.501 342.466C614.149 346.334 618.473 350.256 622.449 354.231C659.492 391.274 678 439.814 678 488.354C678 536.894 659.465 585.434 622.449 622.476L610.2 610.227C643.858 576.569 660.674 532.461 660.674 488.354C660.674 444.246 643.831 400.139 610.2 366.48C606.224 362.505 602.302 358.905 598.461 355.709C594.459 352.378 590.241 349.181 585.809 346.146L595.56 331.882Z" fill="#E7C8FF"/>
<path d="M564.507 348.187C571.115 351.786 577.562 355.896 583.74 360.543C589.918 365.164 595.721 370.16 601.093 375.533C632.226 406.666 647.806 447.496 647.806 488.327C647.806 529.13 632.226 569.987 601.093 601.121L588.844 588.872C616.619 561.096 630.48 524.725 630.48 488.327C630.48 451.928 616.592 415.53 588.844 387.782C583.821 382.758 578.663 378.272 573.398 374.324C567.918 370.214 562.17 366.561 556.233 363.337L564.48 348.187H564.507Z" fill="#E7C8FF"/>
<path d="M519.164 362.746C530.419 365.513 541.406 369.811 551.775 375.667C561.848 381.308 571.277 388.399 579.765 396.888C605.015 422.138 617.641 455.232 617.641 488.353C617.641 521.447 605.015 554.541 579.765 579.819L567.516 567.57C589.382 545.704 600.315 517.015 600.315 488.353C600.315 459.691 589.382 431.003 567.516 409.137C560.129 401.723 551.963 395.571 543.313 390.709C534.395 385.632 524.859 381.899 515.081 379.535L519.137 362.746H519.164Z" fill="#E7C8FF"/>
<path d="M511.347 391.864C520.051 393.933 528.593 397.237 536.705 401.749C544.549 406.101 551.855 411.608 558.463 418.189C577.831 437.557 587.501 462.941 587.501 488.326C587.501 513.711 577.831 539.096 558.463 558.436L546.214 546.187C562.197 530.204 570.202 509.252 570.202 488.326C570.202 467.374 562.197 446.421 546.214 430.438C540.734 424.958 534.69 420.419 528.297 416.846C521.716 413.139 514.651 410.426 507.399 408.707L511.374 391.864H511.347Z" fill="#E7C8FF"/>
<path d="M497.487 419.989C504.874 420.983 512.154 423.159 518.923 426.516C525.531 429.794 531.683 434.145 537.109 439.571C550.567 453.083 557.309 470.731 557.309 488.353C557.309 506.001 550.567 523.677 537.109 537.135L524.86 524.885C534.96 514.785 539.983 501.569 539.983 488.353C539.983 475.11 534.933 461.867 524.887 451.82C520.723 447.684 516.13 444.433 511.268 442.016C506.164 439.491 500.738 437.852 495.258 437.127L497.487 420.016V419.989Z" fill="#E7C8FF"/>
<path d="M460.873 460.874C468.448 453.299 478.387 449.511 488.326 449.511C498.265 449.511 508.204 453.299 515.779 460.874C523.354 468.449 527.142 478.388 527.142 488.327C527.142 498.266 523.354 508.205 515.779 515.78L503.53 503.531C507.721 499.34 509.843 493.833 509.843 488.327C509.843 482.82 507.748 477.313 503.53 473.123C499.34 468.905 493.833 466.81 488.326 466.81C482.819 466.81 477.313 468.905 473.122 473.123L460.873 460.874Z" fill="#E7C8FF"/>
<path d="M82.4399 346.118C77.6047 342.788 72.9575 339.269 68.4984 335.562C63.8513 331.693 59.5265 327.772 55.5509 323.796C18.508 286.753 0 238.213 0 189.673C0 141.134 18.508 92.5937 55.5509 55.5508L67.8 67.8C34.1418 101.458 17.3261 145.566 17.3261 189.673C17.3261 233.781 34.1686 277.889 67.8 311.547C71.7756 315.522 75.6975 319.122 79.5388 322.292C83.7024 325.757 87.9197 328.954 92.1908 331.882L82.4399 346.092V346.118Z" fill="#E7C8FF"/>
<path d="M113.492 329.813C106.884 326.213 100.437 322.077 94.2322 317.456C88.1613 312.917 82.3591 307.92 76.9061 302.44C45.746 271.334 30.166 230.477 30.166 189.673C30.166 148.843 45.746 108.012 76.8792 76.8792L89.1284 89.1283C61.3529 116.904 47.4921 153.275 47.4921 189.673C47.4921 226.071 61.3798 262.47 89.1284 290.218C94.0441 295.188 99.2285 299.647 104.574 303.649C110.054 307.759 115.802 311.412 121.739 314.663L113.492 329.813Z" fill="#E7C8FF"/>
<path d="M158.541 315.2C147.366 312.433 136.433 308.135 126.091 302.28C116.045 296.585 106.643 289.52 98.2082 281.112C72.9578 255.862 60.3326 222.741 60.3326 189.647C60.3326 156.553 72.9578 123.432 98.2082 98.1812L110.457 110.43C88.5916 132.296 77.6587 160.958 77.6587 189.647C77.6587 218.309 88.5916 246.97 110.457 268.863C117.898 276.304 126.011 282.428 134.526 287.264C143.417 292.287 152.873 295.994 162.65 298.411L158.514 315.2H158.541Z" fill="#E7C8FF"/>
<path d="M166.465 286.055C157.682 283.959 149.139 280.655 141.188 276.196C133.425 271.845 126.119 266.365 119.564 259.81C100.197 240.443 90.5262 215.058 90.5262 189.673C90.5262 164.289 100.197 138.904 119.564 119.563L131.813 131.812C115.83 147.795 107.825 168.748 107.825 189.673C107.825 210.626 115.83 231.578 131.813 247.561C137.266 253.014 143.283 257.527 149.65 261.1C156.312 264.834 163.323 267.574 170.441 269.266L166.465 286.055Z" fill="#E7C8FF"/>
<path d="M180.352 258.011C172.992 257.017 165.766 254.841 159.024 251.483C152.443 248.233 146.291 243.881 140.892 238.482C127.434 224.97 120.692 207.322 120.692 189.7C120.692 172.052 127.434 154.376 140.892 140.919L153.141 153.168C143.041 163.241 138.018 176.484 138.018 189.7C138.018 202.943 143.068 216.186 153.141 226.259C157.278 230.369 161.844 233.62 166.68 236.01C171.757 238.535 177.183 240.174 182.663 240.926L180.352 258.037V258.011Z" fill="#E7C8FF"/>
<path d="M217.127 217.127C209.552 224.702 199.613 228.489 189.674 228.489C179.735 228.489 169.796 224.702 162.221 217.127C154.646 209.498 150.858 199.586 150.858 189.674C150.858 179.762 154.646 169.823 162.221 162.247L174.47 174.416C170.28 178.633 168.157 184.14 168.157 189.674C168.157 195.18 170.253 200.714 174.443 204.904C178.661 209.095 184.167 211.19 189.674 211.19C195.181 211.19 200.688 209.095 204.878 204.878L217.127 217.127Z" fill="#E7C8FF"/>
<path d="M331.855 92.1908C328.819 87.7586 325.623 83.5412 322.292 79.5388C319.095 75.7243 315.522 71.8025 311.52 67.8C277.862 34.1418 233.754 17.3261 189.646 17.3261C145.539 17.3261 101.431 34.1686 67.7731 67.8L55.5239 55.5509C92.5399 18.508 141.107 0 189.646 0C238.186 0 286.726 18.5349 323.769 55.5509C327.745 59.5265 331.667 63.8513 335.535 68.4984C339.376 73.1187 342.895 77.7659 346.118 82.4399L331.855 92.1908Z" fill="#E7C8FF"/>
<path d="M314.636 121.739C311.412 115.802 307.732 110.054 303.649 104.574C299.7 99.3091 295.214 94.1516 290.191 89.1284C262.443 61.3529 226.045 47.4921 189.646 47.4921C153.248 47.4921 116.877 61.3798 89.1014 89.1284L76.8523 76.8792C107.985 45.746 148.816 30.166 189.646 30.166C230.477 30.166 271.307 45.746 302.44 76.8792C307.813 82.2517 312.809 88.0539 317.429 94.2322C322.077 100.41 326.187 106.857 329.786 113.465L314.636 121.712V121.739Z" fill="#E7C8FF"/>
<path d="M298.465 162.892C296.074 153.114 292.367 143.605 287.317 134.66C282.428 126.011 276.277 117.871 268.863 110.457C246.997 88.5917 218.335 77.6588 189.647 77.6588C160.985 77.6588 132.323 88.5917 110.43 110.457L98.1812 98.2083C123.432 72.9579 156.553 60.3327 189.647 60.3327C222.741 60.3327 255.862 72.9579 281.112 98.2083C289.601 106.724 296.692 116.152 302.36 126.199C308.189 136.567 312.487 147.554 315.254 158.809L298.465 162.865V162.892Z" fill="#E7C8FF"/>
<path d="M269.292 170.628C267.573 163.349 264.86 156.284 261.18 149.703C257.58 143.31 253.041 137.266 247.561 131.786C231.578 115.803 210.625 107.798 189.673 107.798C168.72 107.798 147.795 115.803 131.812 131.786L119.563 119.537C138.93 100.169 164.315 90.4987 189.673 90.4987C215.058 90.4987 240.442 100.169 259.81 119.537C266.391 126.118 271.898 133.451 276.249 141.241C280.762 149.354 284.093 157.896 286.135 166.626L269.292 170.602V170.628Z" fill="#E7C8FF"/>
<path d="M240.9 182.743C240.175 177.263 238.536 171.837 236.011 166.733C233.593 161.871 230.343 157.251 226.206 153.141C216.16 143.041 202.917 138.018 189.674 138.018C176.458 138.018 163.215 143.068 153.141 153.141L140.892 140.892C154.35 127.407 172.025 120.692 189.674 120.692C207.295 120.692 224.944 127.434 238.429 140.919C243.882 146.318 248.233 152.496 251.51 159.104C254.868 165.874 257.044 173.153 258.038 180.54L240.927 182.77L240.9 182.743Z" fill="#E7C8FF"/>
<path d="M204.878 204.877C209.095 200.687 211.19 195.18 211.19 189.673C211.19 184.167 209.095 178.66 204.878 174.469C200.687 170.279 195.18 168.157 189.674 168.157C184.167 168.157 178.66 170.252 174.47 174.469L162.221 162.22C169.796 154.645 179.735 150.858 189.674 150.858C199.613 150.858 209.552 154.645 217.127 162.22C224.702 169.795 228.489 179.734 228.489 189.673C228.489 199.612 224.702 209.551 217.127 217.127L204.878 204.877Z" fill="#E7C8FF"/>
<path d="M1300.45 55.5508C1337.49 92.5668 1356 141.134 1356 189.673C1356 238.213 1337.46 286.753 1300.45 323.796C1263.43 360.812 1214.87 379.347 1166.33 379.347C1117.79 379.347 1069.25 360.812 1032.2 323.796L1044.45 311.547C1078.11 345.205 1122.22 362.021 1166.33 362.021C1210.43 362.021 1254.54 345.205 1288.2 311.547C1321.86 277.889 1338.67 233.781 1338.67 189.673C1338.67 145.566 1321.83 101.458 1288.2 67.8L1300.45 55.5508Z" fill="#E7C8FF"/>
<path d="M1279.12 76.8792C1310.25 108.012 1325.83 148.843 1325.83 189.673C1325.83 230.477 1310.25 271.334 1279.12 302.467C1247.99 333.6 1207.16 349.18 1166.33 349.18C1125.52 349.18 1084.69 333.6 1053.53 302.467L1065.78 290.218C1093.56 317.994 1129.93 331.854 1166.33 331.854C1202.7 331.854 1239.1 317.967 1266.84 290.218C1294.62 262.443 1308.51 226.071 1308.51 189.673C1308.51 153.275 1294.62 116.904 1266.87 89.1283L1279.12 76.8792Z" fill="#E7C8FF"/>
<path d="M1257.79 98.2081C1283.04 123.458 1295.67 156.553 1295.67 189.674C1295.67 222.768 1283.04 255.862 1257.79 281.139C1232.54 306.39 1199.45 319.015 1166.33 319.015C1133.23 319.015 1100.14 306.39 1074.86 281.139L1087.11 268.89C1108.98 290.756 1137.66 301.716 1166.33 301.716C1194.99 301.716 1223.65 290.756 1245.54 268.89C1267.41 247.024 1278.34 218.335 1278.34 189.674C1278.34 161.012 1267.41 132.35 1245.54 110.457L1257.79 98.2081Z" fill="#E7C8FF"/>
<path d="M1236.44 119.563C1255.8 138.931 1265.47 164.316 1265.47 189.673C1265.47 215.058 1255.8 240.443 1236.44 259.81C1217.07 279.178 1191.68 288.848 1166.33 288.848C1140.94 288.848 1115.56 279.151 1096.19 259.81L1108.44 247.561C1124.42 263.544 1145.37 271.522 1166.33 271.522C1187.28 271.522 1208.23 263.517 1224.19 247.561C1240.17 231.578 1248.18 210.626 1248.18 189.673C1248.18 168.721 1240.17 147.769 1224.19 131.812L1236.44 119.563Z" fill="#E7C8FF"/>
<path d="M1215.08 140.892C1228.57 154.376 1235.34 172.052 1235.34 189.673C1235.34 207.322 1228.59 224.997 1215.14 238.455C1201.68 251.913 1184 258.655 1166.35 258.655C1148.71 258.655 1131.03 251.913 1117.57 238.455L1129.82 226.206C1139.92 236.306 1153.14 241.356 1166.35 241.356C1179.57 241.356 1192.81 236.306 1202.89 226.233C1212.99 216.132 1218.04 202.916 1218.04 189.673C1218.04 176.43 1212.99 163.187 1202.94 153.141L1215.11 140.892H1215.08Z" fill="#E7C8FF"/>
<path d="M1193.78 162.221C1201.35 169.796 1205.14 179.735 1205.14 189.674C1205.14 199.613 1201.35 209.552 1193.78 217.127C1186.2 224.702 1176.27 228.489 1166.33 228.489C1156.39 228.489 1146.45 224.702 1138.87 217.127L1151.12 204.878C1155.31 209.095 1160.82 211.19 1166.33 211.19C1171.83 211.19 1177.34 209.095 1181.53 204.878C1185.72 200.687 1187.84 195.18 1187.84 189.674C1187.84 184.167 1185.75 178.66 1181.53 174.47L1193.78 162.221Z" fill="#E7C8FF"/>
<path d="M882.877 473.123C845.861 436.08 827.326 387.54 827.326 339C827.326 290.46 845.861 241.921 882.877 204.878C919.92 167.862 968.46 149.327 1017 149.327C1065.54 149.327 1114.08 167.862 1151.12 204.878L1138.87 217.127C1105.21 183.469 1061.11 166.653 1017 166.653C972.892 166.653 928.785 183.496 895.126 217.127C861.468 250.785 844.652 294.893 844.652 339C844.652 383.108 861.495 427.216 895.126 460.874L882.877 473.123Z" fill="#E7C8FF"/>
<path d="M904.206 451.794C873.072 420.66 857.492 379.83 857.492 339C857.492 298.169 873.072 257.339 904.206 226.206C935.339 195.072 976.169 179.492 1017 179.492C1057.83 179.492 1098.66 195.072 1129.79 226.206L1117.54 238.455C1089.8 210.679 1053.4 196.818 1017 196.818C980.601 196.818 944.23 210.706 916.455 238.455C888.679 266.203 874.818 302.601 874.818 339C874.818 375.398 888.706 411.769 916.455 439.545L904.206 451.794Z" fill="#E7C8FF"/>
<path d="M925.533 430.466C900.283 405.215 887.658 372.121 887.658 339.027C887.658 305.933 900.283 272.839 925.533 247.588C950.784 222.338 983.905 209.713 1017 209.713C1050.09 209.713 1083.19 222.338 1108.44 247.588L1096.19 259.838C1074.32 237.972 1045.63 227.039 1016.97 227.039C988.31 227.039 959.648 237.972 937.782 259.838C915.917 281.73 904.957 310.392 904.957 339.054C904.957 367.716 915.89 396.378 937.756 418.243L925.506 430.493L925.533 430.466Z" fill="#E7C8FF"/>
<path d="M946.862 409.137C927.495 389.769 917.824 364.385 917.824 339C917.824 313.615 927.522 288.231 946.862 268.863C966.23 249.495 991.615 239.825 1017 239.825C1042.38 239.825 1067.77 249.522 1087.14 268.863L1074.89 281.112C1058.9 265.129 1037.95 257.124 1017.03 257.124C996.074 257.124 975.121 265.129 959.165 281.112C943.182 297.095 935.177 318.048 935.177 338.973C935.177 359.926 943.182 380.878 959.165 396.834L946.916 409.083L946.862 409.137Z" fill="#E7C8FF"/>
<path d="M968.218 387.755C954.76 374.297 948.018 356.648 948.018 339C948.018 321.351 954.76 303.73 968.218 290.245C981.676 276.733 999.351 269.991 1017 269.991C1034.65 269.991 1052.32 276.733 1065.78 290.191L1053.53 302.441C1043.46 292.34 1030.22 287.317 1017 287.317C1003.78 287.317 990.541 292.367 980.467 302.441C970.367 312.514 965.344 325.757 965.344 338.973C965.344 352.216 970.394 365.459 980.467 375.559L968.218 387.728V387.755Z" fill="#E7C8FF"/>
<path d="M989.547 366.453C981.972 358.878 978.184 348.912 978.184 339C978.184 329.061 981.972 319.122 989.547 311.547C997.122 303.972 1007.09 300.184 1017 300.184C1026.94 300.184 1036.88 303.972 1044.45 311.547L1032.2 323.796C1028.01 319.578 1022.51 317.483 1017 317.483C1011.49 317.483 1005.99 319.578 1001.8 323.769C997.578 327.986 995.483 333.493 995.483 338.973C995.483 344.48 997.578 349.986 1001.77 354.177L989.52 366.426L989.547 366.453Z" fill="#E7C8FF"/>
<path d="M979.178 158.997C982.321 139.764 988.446 120.88 997.552 103.124C1006.36 85.932 1017.94 69.8416 1032.2 55.5778C1069.25 18.5349 1117.79 0.0269165 1166.33 0.0269165C1214.87 0.0269165 1263.41 18.5618 1300.45 55.5778L1288.2 67.8269C1254.54 34.1687 1210.43 17.353 1166.33 17.353C1122.22 17.353 1078.11 34.1955 1044.45 67.8269C1031.37 80.9088 1020.84 95.5218 1012.89 110.994C1004.64 127.112 999.056 144.25 996.209 161.791L979.178 159.024V158.997Z" fill="#E7C8FF"/>
<path d="M1010.37 156.23C1013.51 141.483 1018.8 127.058 1026.19 113.466C1033.33 100.33 1042.44 88.0002 1053.53 76.933C1084.64 45.773 1125.5 30.1929 1166.3 30.1929C1207.13 30.1929 1247.96 45.773 1279.09 76.9062L1266.85 89.1553C1239.07 61.3799 1202.7 47.519 1166.3 47.519C1129.9 47.519 1093.5 61.4067 1065.76 89.1553C1055.82 99.0406 1047.68 110.027 1041.34 121.712C1034.78 133.773 1030.08 146.613 1027.26 159.83L1010.34 156.23H1010.37Z" fill="#E7C8FF"/>
<path d="M1040.75 158.836C1043.51 147.581 1047.81 136.594 1053.67 126.226C1059.31 116.152 1066.4 106.724 1074.89 98.2352C1100.14 72.9848 1133.26 60.3596 1166.35 60.3596C1199.45 60.3596 1232.57 72.9848 1257.82 98.2352L1245.57 110.484C1223.7 88.6186 1195.04 77.6857 1166.35 77.6857C1137.69 77.6857 1109.03 88.6186 1087.14 110.484C1079.72 117.871 1073.57 126.038 1068.71 134.687C1063.63 143.605 1059.9 153.141 1057.53 162.919L1040.75 158.863V158.836Z" fill="#E7C8FF"/>
<path d="M1069.86 166.653C1071.93 157.95 1075.24 149.407 1079.75 141.322C1084.1 133.478 1089.61 126.145 1096.19 119.564C1115.56 100.196 1140.94 90.5256 1166.33 90.5256C1191.71 90.5256 1217.09 100.196 1236.44 119.564L1224.19 131.813C1208.2 115.83 1187.25 107.825 1166.33 107.825C1145.37 107.825 1124.42 115.83 1108.44 131.813C1102.96 137.293 1098.42 143.337 1094.85 149.757C1091.14 156.311 1088.43 163.376 1086.71 170.655L1069.86 166.653Z" fill="#E7C8FF"/>
<path d="M1097.96 180.54C1098.96 173.153 1101.13 165.874 1104.49 159.104C1107.74 152.55 1112.09 146.399 1117.57 140.919C1131.03 127.434 1148.68 120.692 1166.33 120.692C1183.95 120.692 1201.62 127.434 1215.11 140.946L1202.86 153.114C1192.81 143.041 1179.57 138.018 1166.33 138.018C1153.11 138.018 1139.87 143.068 1129.79 153.141C1125.66 157.224 1122.41 161.818 1119.99 166.733C1117.46 171.837 1115.82 177.263 1115.1 182.77L1097.99 180.54H1097.96Z" fill="#E7C8FF"/>
<path d="M1138.87 217.127C1131.3 209.551 1127.51 199.612 1127.51 189.673C1127.51 179.734 1131.3 169.795 1138.87 162.22C1146.45 154.645 1156.39 150.858 1166.33 150.858C1176.27 150.858 1186.2 154.645 1193.78 162.22L1181.53 174.469C1177.34 170.279 1171.83 168.157 1166.33 168.157C1160.82 168.157 1155.31 170.252 1151.12 174.469C1146.91 178.66 1144.81 184.167 1144.81 189.673C1144.81 195.18 1146.91 200.687 1151.12 204.877L1138.87 217.127Z" fill="#E7C8FF"/>
<path d="M1001.8 354.203C1038.81 391.246 1057.35 439.786 1057.35 488.326C1057.35 536.866 1038.81 585.406 1001.8 622.449C964.754 659.491 916.214 677.999 867.674 677.999C819.134 677.999 770.594 659.491 733.551 622.449L745.801 610.2C779.459 643.858 823.566 660.673 867.674 660.673C911.782 660.673 955.889 643.831 989.548 610.2C1023.21 576.541 1040.05 532.434 1040.05 488.326C1040.05 444.218 1023.21 400.111 989.548 366.453L1001.8 354.203Z" fill="#E7C8FF"/>
<path d="M980.467 375.532C1011.6 406.692 1027.18 447.496 1027.18 488.326C1027.18 529.13 1011.6 569.96 980.467 601.121C949.334 632.254 908.504 647.834 867.673 647.834C826.87 647.834 786.012 632.254 754.879 601.121L767.128 588.871C794.904 616.647 831.275 630.508 867.673 630.508C904.071 630.508 940.47 616.62 968.218 588.871C995.994 561.096 1009.85 524.725 1009.85 488.326C1009.85 451.955 995.967 415.557 968.218 387.808L980.467 375.559V375.532Z" fill="#E7C8FF"/>
<path d="M959.112 396.888C984.363 422.138 996.988 455.232 996.988 488.353C996.988 521.447 984.363 554.541 959.112 579.819C933.862 605.069 900.768 617.694 867.647 617.694C834.553 617.694 801.458 605.069 776.181 579.819L788.43 567.57C810.296 589.435 838.985 600.368 867.647 600.368C896.309 600.368 924.997 589.435 946.863 567.57C968.729 545.704 979.689 517.015 979.689 488.353C979.689 459.691 968.756 431.003 946.863 409.137L959.112 396.888Z" fill="#E7C8FF"/>
<path d="M937.784 418.216C957.151 437.584 966.821 462.968 966.821 488.353C966.821 513.738 957.151 539.122 937.784 558.463C918.416 577.831 893.031 587.501 867.647 587.501C842.262 587.501 816.877 577.831 797.536 558.463L809.786 546.214C825.768 562.197 846.721 570.202 867.647 570.202C888.599 570.202 909.551 562.197 925.534 546.214C941.517 530.231 949.495 509.279 949.495 488.353C949.495 467.4 941.49 446.448 925.534 430.465L937.784 418.216Z" fill="#E7C8FF"/>
<path d="M916.455 439.545C929.913 453.03 936.656 470.678 936.656 488.326C936.656 505.975 929.913 523.65 916.455 537.108C902.971 550.566 885.322 557.308 867.647 557.308C850.025 557.308 832.377 550.566 818.892 537.108L831.061 524.859C841.134 534.959 854.377 539.982 867.62 539.982C880.836 539.982 894.079 534.932 904.153 524.859C914.253 514.759 919.303 501.543 919.303 488.326C919.303 475.11 914.253 461.867 904.179 451.794L916.429 439.545H916.455Z" fill="#E7C8FF"/>
<path d="M895.127 460.874C902.702 468.449 906.489 478.388 906.489 488.327C906.489 498.266 902.702 508.205 895.127 515.78C887.498 523.355 877.586 527.143 867.674 527.143C857.762 527.143 847.823 523.355 840.247 515.78L852.416 503.531C856.633 507.721 862.14 509.843 867.674 509.843C873.18 509.843 878.687 507.748 882.905 503.558C887.095 499.34 889.19 493.834 889.19 488.327C889.19 482.82 887.095 477.313 882.878 473.123L895.127 460.874Z" fill="#E7C8FF"/>
<path d="M839.764 318.236C822.223 321.083 805.085 326.671 788.967 334.917C773.495 342.868 758.909 353.372 745.8 366.48C712.142 400.138 695.326 444.246 695.326 488.354C695.326 532.461 712.169 576.569 745.8 610.227L733.551 622.476C696.508 585.46 678 536.894 678 488.354C678 439.814 696.508 391.274 733.551 354.231C747.842 339.94 763.905 328.39 781.097 319.579C798.853 310.473 817.737 304.348 836.97 301.205L839.737 318.236H839.764Z" fill="#E7C8FF"/>
<path d="M837.803 349.288C824.613 352.109 811.746 356.81 799.685 363.364C788 369.73 777.014 377.843 767.128 387.755C739.353 415.557 725.492 451.955 725.492 488.327C725.492 524.725 739.38 561.096 767.128 588.872L754.879 601.121C723.746 569.988 708.166 529.157 708.166 488.327C708.166 447.496 723.746 406.666 754.879 375.533C765.973 364.465 778.303 355.359 791.439 348.214C805.031 340.827 819.456 335.535 834.203 332.392L837.803 349.315V349.288Z" fill="#E7C8FF"/>
<path d="M840.892 379.535C831.114 381.925 821.605 385.632 812.66 390.682C804.011 395.571 795.871 401.723 788.457 409.137C766.592 431.003 755.659 459.664 755.659 488.353C755.659 517.015 766.592 545.677 788.457 567.57L776.208 579.819C750.958 554.568 738.333 521.447 738.333 488.353C738.333 455.259 750.958 422.138 776.208 396.888C784.724 388.399 794.152 381.308 804.199 375.64C814.567 369.811 825.554 365.513 836.809 362.746L840.865 379.535H840.892Z" fill="#E7C8FF"/>
<path d="M848.628 408.734C841.349 410.453 834.284 413.166 827.703 416.846C821.31 420.446 815.266 424.985 809.786 430.465C793.803 446.448 785.798 467.401 785.798 488.353C785.798 509.305 793.803 530.231 809.786 546.214L797.537 558.463C778.169 539.096 768.499 513.711 768.499 488.353C768.499 462.968 778.169 437.584 797.537 418.216C804.118 411.635 811.451 406.128 819.241 401.776C827.354 397.264 835.896 393.933 844.626 391.891L848.628 408.734Z" fill="#E7C8FF"/>
<path d="M860.742 437.101C855.236 437.826 849.81 439.464 844.706 441.99C839.79 444.407 835.197 447.684 831.114 451.767C821.013 461.894 815.99 475.137 815.99 488.354C815.99 501.597 821.04 514.84 831.114 524.913L818.864 537.081C805.407 523.624 798.664 505.975 798.664 488.327C798.664 470.678 805.407 453.003 818.864 439.545C824.344 434.092 830.496 429.74 837.05 426.49C843.846 423.132 851.099 420.956 858.486 419.963L860.716 437.074L860.742 437.101Z" fill="#E7C8FF"/>
<path d="M882.878 473.122C878.688 468.905 873.181 466.809 867.674 466.809C862.167 466.809 856.661 468.905 852.47 473.122C848.253 477.313 846.158 482.819 846.158 488.326C846.158 493.86 848.253 499.366 852.47 503.584L840.221 515.752C832.646 508.177 828.858 498.238 828.858 488.326C828.858 478.414 832.646 468.475 840.221 460.9C847.796 453.271 857.735 449.483 867.674 449.483C877.613 449.483 887.552 453.271 895.127 460.846L882.878 473.095V473.122Z" fill="#E7C8FF"/>
<path d="M1204.15 369.703C1201 388.936 1194.88 407.82 1185.77 425.576C1176.94 442.768 1165.39 458.858 1151.12 473.149C1136.83 487.44 1120.77 498.99 1103.55 507.801C1085.79 516.907 1066.91 523.032 1047.68 526.175L1044.91 509.117C1062.45 506.27 1079.59 500.683 1095.71 492.436C1111.2 484.512 1125.79 473.982 1138.87 460.873C1151.95 447.791 1162.48 433.205 1170.44 417.706C1178.71 401.588 1184.27 384.45 1187.12 366.909L1204.17 369.676L1204.15 369.703Z" fill="#E7C8FF"/>
<path d="M1172.96 372.471C1169.82 387.218 1164.53 401.643 1157.11 415.235C1149.97 428.371 1140.86 440.701 1129.79 451.768L1129.77 451.795C1118.7 462.862 1106.37 471.968 1093.23 479.113C1079.64 486.5 1065.22 491.819 1050.47 494.962L1046.87 478.039C1060.06 475.218 1072.9 470.518 1084.99 463.963C1096.65 457.597 1107.66 449.458 1117.57 439.572C1127.48 429.66 1135.62 418.647 1141.96 406.989C1148.52 394.928 1153.22 382.087 1156.04 368.871L1172.96 372.471Z" fill="#E7C8FF"/>
<path d="M1142.58 369.865C1139.81 381.12 1135.52 392.107 1129.66 402.475C1123.97 412.575 1116.9 422.004 1108.44 430.466C1099.98 438.927 1090.55 445.992 1080.45 451.687C1070.08 457.543 1059.09 461.841 1047.84 464.607L1043.78 447.819C1053.56 445.428 1063.07 441.694 1072.01 436.671C1080.58 431.836 1088.75 425.684 1096.22 418.216C1103.68 410.749 1109.84 402.583 1114.67 394.014C1119.72 385.095 1123.43 375.559 1125.82 365.782L1142.61 369.838L1142.58 369.865Z" fill="#E7C8FF"/>
<path d="M1113.46 362.02C1111.37 370.777 1108.09 379.319 1103.58 387.405C1099.17 395.249 1093.69 402.582 1087.14 409.136C1080.58 415.691 1073.25 421.171 1065.41 425.549C1057.35 430.089 1048.78 433.393 1040.05 435.461L1036.07 418.619C1043.3 416.9 1050.36 414.187 1056.97 410.48C1063.34 406.934 1069.38 402.394 1074.89 396.887C1080.39 391.381 1084.93 385.337 1088.48 378.997C1092.19 372.362 1094.9 365.297 1096.62 358.045L1113.46 362.02Z" fill="#E7C8FF"/>
<path d="M1085.36 348.16C1084.4 355.574 1082.22 362.827 1078.84 369.596C1075.56 376.204 1071.21 382.355 1065.78 387.808C1060.36 393.234 1054.18 397.586 1047.57 400.863C1040.77 404.221 1033.52 406.397 1026.13 407.391L1023.9 390.28C1029.41 389.554 1034.81 387.916 1039.94 385.391C1044.8 383 1049.42 379.723 1053.53 375.586C1057.67 371.449 1060.95 366.856 1063.34 361.994C1065.86 356.89 1067.5 351.464 1068.23 345.957L1085.34 348.187L1085.36 348.16Z" fill="#E7C8FF"/>
<path d="M1044.45 311.547C1052.03 319.122 1055.82 329.088 1055.82 339C1055.82 348.939 1052.03 358.878 1044.45 366.453C1036.88 374.028 1026.91 377.816 1017 377.816C1007.06 377.816 997.122 374.028 989.547 366.453L1001.8 354.204C1005.99 358.421 1011.49 360.517 1017 360.517C1022.51 360.517 1028.01 358.421 1032.2 354.231C1036.42 350.013 1038.52 344.507 1038.52 339.027C1038.52 333.52 1036.42 328.013 1032.23 323.823L1044.48 311.574L1044.45 311.547Z" fill="#E7C8FF"/>
<path d="M1300.45 622.449C1263.43 659.492 1214.87 678 1166.33 678C1117.79 678 1069.25 659.492 1032.2 622.449C1028.23 618.473 1024.31 614.149 1020.44 609.501C1016.73 605.042 1013.21 600.368 1009.88 595.56L1024.09 585.809C1027.02 590.08 1030.22 594.324 1033.68 598.461C1036.85 602.276 1040.45 606.197 1044.43 610.2C1078.08 643.858 1122.19 660.674 1166.3 660.674C1210.41 660.674 1254.51 643.831 1288.17 610.2L1300.42 622.449H1300.45Z" fill="#E7C8FF"/>
<path d="M1279.12 601.12C1247.99 632.254 1207.16 647.834 1166.33 647.834C1125.52 647.834 1084.67 632.254 1053.53 601.12C1048.11 595.641 1043.08 589.838 1038.54 583.768C1033.9 577.562 1029.79 571.115 1026.19 564.507L1041.34 556.261C1044.56 562.197 1048.24 567.946 1052.35 573.426C1056.35 578.771 1060.81 583.956 1065.75 588.871C1093.56 616.647 1129.96 630.508 1166.33 630.508C1202.72 630.508 1239.1 616.62 1266.87 588.871L1279.12 601.12Z" fill="#E7C8FF"/>
<path d="M1257.79 579.792C1232.54 605.043 1199.45 617.668 1166.33 617.668C1133.23 617.668 1100.14 605.043 1074.86 579.792C1066.45 571.384 1059.39 561.983 1053.69 551.909C1047.84 541.568 1043.54 530.635 1040.77 519.46L1057.56 515.323C1059.98 525.101 1063.69 534.557 1068.71 543.448C1073.54 551.99 1079.67 560.102 1087.11 567.516C1108.98 589.382 1137.66 600.315 1166.33 600.315C1194.99 600.315 1223.65 589.382 1245.54 567.516L1257.79 579.765V579.792Z" fill="#E7C8FF"/>
<path d="M1236.44 558.463C1217.07 577.831 1191.68 587.501 1166.33 587.501C1140.94 587.501 1115.56 577.831 1096.19 558.463C1089.64 551.909 1084.16 544.602 1079.8 536.839C1075.34 528.888 1072.04 520.373 1069.95 511.562L1086.73 507.586C1088.45 514.705 1091.17 521.716 1094.9 528.378C1098.47 534.744 1102.99 540.761 1108.44 546.214C1124.42 562.197 1145.37 570.202 1166.33 570.202C1187.28 570.202 1208.23 562.197 1224.19 546.214L1236.44 558.463Z" fill="#E7C8FF"/>
<path d="M1215.11 537.108C1201.65 550.566 1183.98 557.308 1166.33 557.308C1148.71 557.308 1131.06 550.566 1117.57 537.108C1112.12 531.709 1107.77 525.557 1104.52 518.976C1101.16 512.207 1098.98 504.981 1097.99 497.647L1115.1 495.337C1115.85 500.844 1117.49 506.243 1120.02 511.32C1122.41 516.155 1125.68 520.749 1129.79 524.859C1139.87 534.959 1153.11 539.982 1166.33 539.982C1179.54 539.982 1192.79 534.932 1202.86 524.859L1215.11 537.108Z" fill="#E7C8FF"/>
<path d="M1193.75 515.807C1186.18 523.382 1176.24 527.17 1166.33 527.17C1156.41 527.17 1146.47 523.382 1138.9 515.807C1131.27 508.232 1127.48 498.293 1127.48 488.354C1127.48 478.415 1131.27 468.476 1138.85 460.901L1151.1 473.15C1146.88 477.34 1144.78 482.847 1144.78 488.354C1144.78 493.861 1146.88 499.367 1151.1 503.558C1155.26 507.775 1160.79 509.87 1166.3 509.87C1171.83 509.87 1177.34 507.775 1181.56 503.558L1193.73 515.807H1193.75Z" fill="#E7C8FF"/>
<path d="M1273.56 331.882C1278.23 335.079 1282.88 338.624 1287.5 342.466C1292.15 346.334 1296.47 350.256 1300.45 354.231C1337.49 391.274 1356 439.814 1356 488.354C1356 536.894 1337.47 585.434 1300.45 622.476L1288.2 610.227C1321.86 576.569 1338.67 532.461 1338.67 488.354C1338.67 444.246 1321.83 400.139 1288.2 366.48C1284.22 362.505 1280.3 358.905 1276.46 355.709C1272.46 352.378 1268.24 349.181 1263.81 346.146L1273.56 331.882Z" fill="#E7C8FF"/>
<path d="M1242.51 348.187C1249.11 351.786 1255.56 355.896 1261.74 360.543C1267.92 365.164 1273.72 370.16 1279.09 375.533C1310.23 406.666 1325.81 447.496 1325.81 488.327C1325.81 529.13 1310.23 569.987 1279.09 601.121L1266.84 588.872C1294.62 561.096 1308.48 524.725 1308.48 488.327C1308.48 451.928 1294.59 415.53 1266.84 387.782C1261.82 382.758 1256.66 378.272 1251.4 374.324C1245.92 370.214 1240.17 366.561 1234.23 363.337L1242.48 348.187H1242.51Z" fill="#E7C8FF"/>
<path d="M1197.16 362.746C1208.42 365.513 1219.41 369.811 1229.77 375.667C1239.85 381.308 1249.28 388.399 1257.77 396.888C1283.02 422.138 1295.64 455.232 1295.64 488.353C1295.64 521.447 1283.02 554.541 1257.77 579.819L1245.52 567.57C1267.38 545.704 1278.31 517.015 1278.31 488.353C1278.31 459.691 1267.38 431.003 1245.52 409.137C1238.13 401.723 1229.96 395.571 1221.31 390.709C1212.39 385.632 1202.86 381.899 1193.08 379.535L1197.14 362.746H1197.16Z" fill="#E7C8FF"/>
<path d="M1189.35 391.864C1198.05 393.933 1206.59 397.237 1214.71 401.749C1222.55 406.101 1229.86 411.608 1236.46 418.189C1255.83 437.557 1265.5 462.941 1265.5 488.326C1265.5 513.711 1255.83 539.096 1236.46 558.436L1224.21 546.187C1240.2 530.204 1248.2 509.252 1248.2 488.326C1248.2 467.374 1240.2 446.421 1224.21 430.438C1218.73 424.958 1212.69 420.419 1206.3 416.846C1199.72 413.139 1192.65 410.426 1185.4 408.707L1189.37 391.864H1189.35Z" fill="#E7C8FF"/>
<path d="M1175.49 419.989C1182.87 420.983 1190.15 423.159 1196.92 426.516C1203.53 429.794 1209.68 434.145 1215.11 439.571C1228.57 453.083 1235.31 470.731 1235.31 488.353C1235.31 506.001 1228.57 523.677 1215.11 537.135L1202.86 524.885C1212.96 514.785 1217.98 501.569 1217.98 488.353C1217.98 475.11 1212.93 461.867 1202.89 451.82C1198.72 447.684 1194.13 444.433 1189.27 442.016C1184.16 439.491 1178.74 437.852 1173.26 437.127L1175.49 420.016V419.989Z" fill="#E7C8FF"/>
<path d="M1138.87 460.874C1146.45 453.299 1156.39 449.511 1166.33 449.511C1176.27 449.511 1186.2 453.299 1193.78 460.874C1201.35 468.449 1205.14 478.388 1205.14 488.327C1205.14 498.266 1201.35 508.205 1193.78 515.78L1181.53 503.531C1185.72 499.34 1187.84 493.833 1187.84 488.327C1187.84 482.82 1185.75 477.313 1181.53 473.123C1177.34 468.905 1171.83 466.81 1166.33 466.81C1160.82 466.81 1155.31 468.905 1151.12 473.123L1138.87 460.874Z" fill="#E7C8FF"/>
<path d="M760.44 346.118C755.605 342.788 750.958 339.269 746.498 335.562C741.851 331.693 737.526 327.772 733.551 323.796C696.508 286.753 678 238.213 678 189.673C678 141.134 696.508 92.5937 733.551 55.5508L745.8 67.8C712.142 101.458 695.326 145.566 695.326 189.673C695.326 233.781 712.169 277.889 745.8 311.547C749.776 315.522 753.697 319.122 757.539 322.292C761.702 325.757 765.92 328.954 770.191 331.882L760.44 346.092V346.118Z" fill="#E7C8FF"/>
<path d="M791.492 329.813C784.884 326.213 778.437 322.077 772.232 317.456C766.161 312.917 760.359 307.92 754.906 302.44C723.746 271.334 708.166 230.477 708.166 189.673C708.166 148.843 723.746 108.012 754.879 76.8792L767.128 89.1283C739.353 116.904 725.492 153.275 725.492 189.673C725.492 226.071 739.38 262.47 767.128 290.218C772.044 295.188 777.229 299.647 782.574 303.649C788.054 307.759 793.802 311.412 799.739 314.663L791.492 329.813Z" fill="#E7C8FF"/>
<path d="M836.541 315.2C825.366 312.433 814.433 308.135 804.091 302.28C794.045 296.585 784.643 289.52 776.208 281.112C750.958 255.862 738.333 222.741 738.333 189.647C738.333 156.553 750.958 123.432 776.208 98.1812L788.457 110.43C766.592 132.296 755.659 160.958 755.659 189.647C755.659 218.309 766.592 246.97 788.457 268.863C795.898 276.304 804.011 282.428 812.526 287.264C821.417 292.287 830.873 295.994 840.651 298.411L836.514 315.2H836.541Z" fill="#E7C8FF"/>
<path d="M844.465 286.055C835.682 283.959 827.139 280.655 819.188 276.196C811.425 271.845 804.119 266.365 797.564 259.81C778.197 240.443 768.526 215.058 768.526 189.673C768.526 164.289 778.197 138.904 797.564 119.563L809.813 131.812C793.83 147.795 785.825 168.748 785.825 189.673C785.825 210.626 793.83 231.578 809.813 247.561C815.266 253.014 821.283 257.527 827.65 261.1C834.312 264.834 841.323 267.574 848.441 269.266L844.465 286.055Z" fill="#E7C8FF"/>
<path d="M858.352 258.011C850.992 257.017 843.766 254.841 837.024 251.483C830.443 248.233 824.291 243.881 818.892 238.482C805.434 224.97 798.692 207.322 798.692 189.7C798.692 172.052 805.434 154.376 818.892 140.919L831.141 153.168C821.041 163.241 816.018 176.484 816.018 189.7C816.018 202.943 821.068 216.186 831.141 226.259C835.278 230.369 839.844 233.62 844.68 236.01C849.757 238.535 855.183 240.174 860.663 240.926L858.352 258.037V258.011Z" fill="#E7C8FF"/>
<path d="M895.127 217.127C887.552 224.702 877.613 228.489 867.674 228.489C857.735 228.489 847.796 224.702 840.221 217.127C832.646 209.498 828.858 199.586 828.858 189.674C828.858 179.762 832.646 169.823 840.221 162.247L852.47 174.416C848.28 178.633 846.158 184.14 846.158 189.674C846.158 195.18 848.253 200.714 852.443 204.904C856.661 209.095 862.167 211.19 867.674 211.19C873.181 211.19 878.688 209.095 882.878 204.878L895.127 217.127Z" fill="#E7C8FF"/>
<path d="M1009.85 92.1908C1006.82 87.7586 1003.62 83.5412 1000.29 79.5388C997.095 75.7243 993.522 71.8025 989.52 67.8C955.862 34.1418 911.754 17.3261 867.646 17.3261C823.539 17.3261 779.431 34.1686 745.773 67.8L733.524 55.5509C770.54 18.508 819.107 0 867.646 0C916.186 0 964.726 18.5349 1001.77 55.5509C1005.74 59.5265 1009.67 63.8513 1013.53 68.4984C1017.38 73.1187 1020.89 77.7659 1024.12 82.4399L1009.85 92.1908Z" fill="#E7C8FF"/>
<path d="M992.636 121.739C989.412 115.802 985.732 110.054 981.649 104.574C977.7 99.3091 973.214 94.1516 968.191 89.1284C940.443 61.3529 904.044 47.4921 867.646 47.4921C831.248 47.4921 794.877 61.3798 767.101 89.1284L754.852 76.8792C785.985 45.746 826.816 30.166 867.646 30.166C908.477 30.166 949.307 45.746 980.44 76.8792C985.813 82.2517 990.809 88.0539 995.429 94.2322C1000.08 100.41 1004.19 106.857 1007.79 113.465L992.636 121.712V121.739Z" fill="#E7C8FF"/>
<path d="M976.465 162.892C974.074 153.114 970.367 143.605 965.317 134.66C960.428 126.011 954.277 117.871 946.863 110.457C924.997 88.5917 896.335 77.6588 867.647 77.6588C838.985 77.6588 810.323 88.5917 788.43 110.457L776.181 98.2083C801.432 72.9579 834.553 60.3327 867.647 60.3327C900.741 60.3327 933.862 72.9579 959.112 98.2083C967.601 106.724 974.692 116.152 980.36 126.199C986.189 136.567 990.487 147.554 993.254 158.809L976.465 162.865V162.892Z" fill="#E7C8FF"/>
<path d="M947.292 170.628C945.573 163.349 942.86 156.284 939.18 149.703C935.58 143.31 931.041 137.266 925.561 131.786C909.578 115.803 888.625 107.798 867.673 107.798C846.72 107.798 825.795 115.803 809.812 131.786L797.563 119.537C816.93 100.169 842.315 90.4987 867.673 90.4987C893.058 90.4987 918.442 100.169 937.81 119.537C944.391 126.118 949.898 133.451 954.249 141.241C958.762 149.354 962.093 157.896 964.135 166.626L947.292 170.602V170.628Z" fill="#E7C8FF"/>
<path d="M918.9 182.743C918.175 177.263 916.536 171.837 914.011 166.733C911.593 161.871 908.343 157.251 904.206 153.141C894.16 143.041 880.917 138.018 867.674 138.018C854.458 138.018 841.215 143.068 831.141 153.141L818.892 140.892C832.35 127.407 850.025 120.692 867.674 120.692C885.295 120.692 902.944 127.434 916.429 140.919C921.882 146.318 926.233 152.496 929.51 159.104C932.868 165.874 935.044 173.153 936.038 180.54L918.927 182.77L918.9 182.743Z" fill="#E7C8FF"/>
<path d="M882.878 204.877C887.095 200.687 889.19 195.18 889.19 189.673C889.19 184.167 887.095 178.66 882.878 174.469C878.687 170.279 873.18 168.157 867.674 168.157C862.167 168.157 856.66 170.252 852.47 174.469L840.221 162.22C847.796 154.645 857.735 150.858 867.674 150.858C877.613 150.858 887.552 154.645 895.127 162.22C902.702 169.795 906.489 179.734 906.489 189.673C906.489 199.612 902.702 209.551 895.127 217.127L882.878 204.877Z" fill="#E7C8FF"/>
<path d="M1978.45 55.5508C2015.49 92.5668 2034 141.134 2034 189.673C2034 238.213 2015.46 286.753 1978.45 323.796C1941.43 360.812 1892.87 379.347 1844.33 379.347C1795.79 379.347 1747.25 360.812 1710.2 323.796L1722.45 311.547C1756.11 345.205 1800.22 362.021 1844.33 362.021C1888.43 362.021 1932.54 345.205 1966.2 311.547C1999.86 277.889 2016.67 233.781 2016.67 189.673C2016.67 145.566 1999.83 101.458 1966.2 67.8L1978.45 55.5508Z" fill="#E7C8FF"/>
<path d="M1957.12 76.8792C1988.25 108.012 2003.83 148.843 2003.83 189.673C2003.83 230.477 1988.25 271.334 1957.12 302.467C1925.99 333.6 1885.16 349.18 1844.33 349.18C1803.52 349.18 1762.69 333.6 1731.53 302.467L1743.78 290.218C1771.56 317.994 1807.93 331.854 1844.33 331.854C1880.7 331.854 1917.1 317.967 1944.84 290.218C1972.62 262.443 1986.51 226.071 1986.51 189.673C1986.51 153.275 1972.62 116.904 1944.87 89.1283L1957.12 76.8792Z" fill="#E7C8FF"/>
<path d="M1935.79 98.2081C1961.04 123.458 1973.67 156.553 1973.67 189.674C1973.67 222.768 1961.04 255.862 1935.79 281.139C1910.54 306.39 1877.45 319.015 1844.33 319.015C1811.23 319.015 1778.14 306.39 1752.86 281.139L1765.11 268.89C1786.98 290.756 1815.66 301.716 1844.33 301.716C1872.99 301.716 1901.65 290.756 1923.54 268.89C1945.41 247.024 1956.34 218.335 1956.34 189.674C1956.34 161.012 1945.41 132.35 1923.54 110.457L1935.79 98.2081Z" fill="#E7C8FF"/>
<path d="M1914.44 119.563C1933.8 138.931 1943.47 164.316 1943.47 189.673C1943.47 215.058 1933.8 240.443 1914.44 259.81C1895.07 279.178 1869.68 288.848 1844.33 288.848C1818.94 288.848 1793.56 279.151 1774.19 259.81L1786.44 247.561C1802.42 263.544 1823.37 271.522 1844.33 271.522C1865.28 271.522 1886.23 263.517 1902.19 247.561C1918.17 231.578 1926.18 210.626 1926.18 189.673C1926.18 168.721 1918.17 147.769 1902.19 131.812L1914.44 119.563Z" fill="#E7C8FF"/>
<path d="M1893.08 140.892C1906.57 154.376 1913.34 172.052 1913.34 189.673C1913.34 207.322 1906.59 224.997 1893.14 238.455C1879.68 251.913 1862 258.655 1844.35 258.655C1826.71 258.655 1809.03 251.913 1795.57 238.455L1807.82 226.206C1817.92 236.306 1831.14 241.356 1844.35 241.356C1857.57 241.356 1870.81 236.306 1880.89 226.233C1890.99 216.132 1896.04 202.916 1896.04 189.673C1896.04 176.43 1890.99 163.187 1880.94 153.141L1893.11 140.892H1893.08Z" fill="#E7C8FF"/>
<path d="M1871.78 162.221C1879.35 169.796 1883.14 179.735 1883.14 189.674C1883.14 199.613 1879.35 209.552 1871.78 217.127C1864.2 224.702 1854.27 228.489 1844.33 228.489C1834.39 228.489 1824.45 224.702 1816.87 217.127L1829.12 204.878C1833.31 209.095 1838.82 211.19 1844.33 211.19C1849.83 211.19 1855.34 209.095 1859.53 204.878C1863.72 200.687 1865.84 195.18 1865.84 189.674C1865.84 184.167 1863.75 178.66 1859.53 174.47L1871.78 162.221Z" fill="#E7C8FF"/>
<path d="M1560.88 473.123C1523.86 436.08 1505.33 387.54 1505.33 339C1505.33 290.46 1523.86 241.921 1560.88 204.878C1597.92 167.862 1646.46 149.327 1695 149.327C1743.54 149.327 1792.08 167.862 1829.12 204.878L1816.87 217.127C1783.21 183.469 1739.11 166.653 1695 166.653C1650.89 166.653 1606.78 183.496 1573.13 217.127C1539.47 250.785 1522.65 294.893 1522.65 339C1522.65 383.108 1539.49 427.216 1573.13 460.874L1560.88 473.123Z" fill="#E7C8FF"/>
<path d="M1582.21 451.794C1551.07 420.66 1535.49 379.83 1535.49 339C1535.49 298.169 1551.07 257.339 1582.21 226.206C1613.34 195.072 1654.17 179.492 1695 179.492C1735.83 179.492 1776.66 195.072 1807.79 226.206L1795.54 238.455C1767.8 210.679 1731.4 196.818 1695 196.818C1658.6 196.818 1622.23 210.706 1594.45 238.455C1566.68 266.203 1552.82 302.601 1552.82 339C1552.82 375.398 1566.71 411.769 1594.45 439.545L1582.21 451.794Z" fill="#E7C8FF"/>
<path d="M1603.53 430.466C1578.28 405.215 1565.66 372.121 1565.66 339.027C1565.66 305.933 1578.28 272.839 1603.53 247.588C1628.78 222.338 1661.9 209.713 1695 209.713C1728.09 209.713 1761.19 222.338 1786.44 247.588L1774.19 259.838C1752.32 237.972 1723.63 227.039 1694.97 227.039C1666.31 227.039 1637.65 237.972 1615.78 259.838C1593.92 281.73 1582.96 310.392 1582.96 339.054C1582.96 367.716 1593.89 396.378 1615.76 418.243L1603.51 430.493L1603.53 430.466Z" fill="#E7C8FF"/>
<path d="M1624.86 409.137C1605.49 389.769 1595.82 364.385 1595.82 339C1595.82 313.615 1605.52 288.231 1624.86 268.863C1644.23 249.495 1669.61 239.825 1695 239.825C1720.38 239.825 1745.77 249.522 1765.14 268.863L1752.89 281.112C1736.9 265.129 1715.95 257.124 1695.03 257.124C1674.07 257.124 1653.12 265.129 1637.17 281.112C1621.18 297.095 1613.18 318.048 1613.18 338.973C1613.18 359.926 1621.18 380.878 1637.17 396.834L1624.92 409.083L1624.86 409.137Z" fill="#E7C8FF"/>
<path d="M1646.22 387.755C1632.76 374.297 1626.02 356.648 1626.02 339C1626.02 321.351 1632.76 303.73 1646.22 290.245C1659.68 276.733 1677.35 269.991 1695 269.991C1712.65 269.991 1730.32 276.733 1743.78 290.191L1731.53 302.441C1721.46 292.34 1708.22 287.317 1695 287.317C1681.78 287.317 1668.54 292.367 1658.47 302.441C1648.37 312.514 1643.34 325.757 1643.34 338.973C1643.34 352.216 1648.39 365.459 1658.47 375.559L1646.22 387.728V387.755Z" fill="#E7C8FF"/>
<path d="M1667.55 366.453C1659.97 358.878 1656.18 348.912 1656.18 339C1656.18 329.061 1659.97 319.122 1667.55 311.547C1675.12 303.972 1685.09 300.184 1695 300.184C1704.94 300.184 1714.88 303.972 1722.45 311.547L1710.2 323.796C1706.01 319.578 1700.51 317.483 1695 317.483C1689.49 317.483 1683.99 319.578 1679.8 323.769C1675.58 327.986 1673.48 333.493 1673.48 338.973C1673.48 344.48 1675.58 349.986 1679.77 354.177L1667.52 366.426L1667.55 366.453Z" fill="#E7C8FF"/>
<path d="M1657.18 158.997C1660.32 139.764 1666.45 120.88 1675.55 103.124C1684.36 85.932 1695.94 69.8416 1710.2 55.5778C1747.25 18.5349 1795.79 0.0269165 1844.33 0.0269165C1892.87 0.0269165 1941.41 18.5618 1978.45 55.5778L1966.2 67.8269C1932.54 34.1687 1888.43 17.353 1844.33 17.353C1800.22 17.353 1756.11 34.1955 1722.45 67.8269C1709.37 80.9088 1698.84 95.5218 1690.89 110.994C1682.64 127.112 1677.06 144.25 1674.21 161.791L1657.18 159.024V158.997Z" fill="#E7C8FF"/>
<path d="M1688.37 156.23C1691.51 141.483 1696.8 127.058 1704.19 113.466C1711.33 100.33 1720.44 88.0002 1731.53 76.933C1762.64 45.773 1803.5 30.1929 1844.3 30.1929C1885.13 30.1929 1925.96 45.773 1957.09 76.9062L1944.85 89.1553C1917.07 61.3799 1880.7 47.519 1844.3 47.519C1807.9 47.519 1771.5 61.4067 1743.76 89.1553C1733.82 99.0406 1725.68 110.027 1719.34 121.712C1712.78 133.773 1708.08 146.613 1705.26 159.83L1688.34 156.23H1688.37Z" fill="#E7C8FF"/>
<path d="M1718.75 158.836C1721.51 147.581 1725.81 136.594 1731.67 126.226C1737.31 116.152 1744.4 106.724 1752.89 98.2352C1778.14 72.9848 1811.26 60.3596 1844.35 60.3596C1877.45 60.3596 1910.57 72.9848 1935.82 98.2352L1923.57 110.484C1901.7 88.6186 1873.04 77.6857 1844.35 77.6857C1815.69 77.6857 1787.03 88.6186 1765.14 110.484C1757.72 117.871 1751.57 126.038 1746.71 134.687C1741.63 143.605 1737.9 153.141 1735.53 162.919L1718.75 158.863V158.836Z" fill="#E7C8FF"/>
<path d="M1747.86 166.653C1749.93 157.95 1753.24 149.407 1757.75 141.322C1762.1 133.478 1767.61 126.145 1774.19 119.564C1793.56 100.196 1818.94 90.5256 1844.33 90.5256C1869.71 90.5256 1895.09 100.196 1914.44 119.564L1902.19 131.813C1886.2 115.83 1865.25 107.825 1844.33 107.825C1823.37 107.825 1802.42 115.83 1786.44 131.813C1780.96 137.293 1776.42 143.337 1772.85 149.757C1769.14 156.311 1766.43 163.376 1764.71 170.655L1747.86 166.653Z" fill="#E7C8FF"/>
<path d="M1775.96 180.54C1776.96 173.153 1779.13 165.874 1782.49 159.104C1785.74 152.55 1790.09 146.399 1795.57 140.919C1809.03 127.434 1826.68 120.692 1844.33 120.692C1861.95 120.692 1879.62 127.434 1893.11 140.946L1880.86 153.114C1870.81 143.041 1857.57 138.018 1844.33 138.018C1831.11 138.018 1817.87 143.068 1807.79 153.141C1803.66 157.224 1800.41 161.818 1797.99 166.733C1795.46 171.837 1793.82 177.263 1793.1 182.77L1775.99 180.54H1775.96Z" fill="#E7C8FF"/>
<path d="M1816.87 217.127C1809.3 209.551 1805.51 199.612 1805.51 189.673C1805.51 179.734 1809.3 169.795 1816.87 162.22C1824.45 154.645 1834.39 150.858 1844.33 150.858C1854.27 150.858 1864.2 154.645 1871.78 162.22L1859.53 174.469C1855.34 170.279 1849.83 168.157 1844.33 168.157C1838.82 168.157 1833.31 170.252 1829.12 174.469C1824.91 178.66 1822.81 184.167 1822.81 189.673C1822.81 195.18 1824.91 200.687 1829.12 204.877L1816.87 217.127Z" fill="#E7C8FF"/>
<path d="M1679.8 354.203C1716.81 391.246 1735.35 439.786 1735.35 488.326C1735.35 536.866 1716.81 585.406 1679.8 622.449C1642.75 659.491 1594.21 677.999 1545.67 677.999C1497.13 677.999 1448.59 659.491 1411.55 622.449L1423.8 610.2C1457.46 643.858 1501.57 660.673 1545.67 660.673C1589.78 660.673 1633.89 643.831 1667.55 610.2C1701.21 576.541 1718.05 532.434 1718.05 488.326C1718.05 444.218 1701.21 400.111 1667.55 366.453L1679.8 354.203Z" fill="#E7C8FF"/>
<path d="M1658.47 375.532C1689.6 406.692 1705.18 447.496 1705.18 488.326C1705.18 529.13 1689.6 569.96 1658.47 601.121C1627.33 632.254 1586.5 647.834 1545.67 647.834C1504.87 647.834 1464.01 632.254 1432.88 601.121L1445.13 588.871C1472.9 616.647 1509.28 630.508 1545.67 630.508C1582.07 630.508 1618.47 616.62 1646.22 588.871C1673.99 561.096 1687.85 524.725 1687.85 488.326C1687.85 451.955 1673.97 415.557 1646.22 387.808L1658.47 375.559V375.532Z" fill="#E7C8FF"/>
<path d="M1637.11 396.888C1662.36 422.138 1674.99 455.232 1674.99 488.353C1674.99 521.447 1662.36 554.541 1637.11 579.819C1611.86 605.069 1578.77 617.694 1545.65 617.694C1512.55 617.694 1479.46 605.069 1454.18 579.819L1466.43 567.57C1488.3 589.435 1516.98 600.368 1545.65 600.368C1574.31 600.368 1603 589.435 1624.86 567.57C1646.73 545.704 1657.69 517.015 1657.69 488.353C1657.69 459.691 1646.76 431.003 1624.86 409.137L1637.11 396.888Z" fill="#E7C8FF"/>
<path d="M1615.78 418.216C1635.15 437.584 1644.82 462.968 1644.82 488.353C1644.82 513.738 1635.15 539.122 1615.78 558.463C1596.42 577.831 1571.03 587.501 1545.65 587.501C1520.26 587.501 1494.88 577.831 1475.54 558.463L1487.79 546.214C1503.77 562.197 1524.72 570.202 1545.65 570.202C1566.6 570.202 1587.55 562.197 1603.53 546.214C1619.52 530.231 1627.5 509.279 1627.5 488.353C1627.5 467.4 1619.49 446.448 1603.53 430.465L1615.78 418.216Z" fill="#E7C8FF"/>
<path d="M1594.46 439.545C1607.91 453.03 1614.66 470.678 1614.66 488.326C1614.66 505.975 1607.91 523.65 1594.46 537.108C1580.97 550.566 1563.32 557.308 1545.65 557.308C1528.03 557.308 1510.38 550.566 1496.89 537.108L1509.06 524.859C1519.13 534.959 1532.38 539.982 1545.62 539.982C1558.84 539.982 1572.08 534.932 1582.15 524.859C1592.25 514.759 1597.3 501.543 1597.3 488.326C1597.3 475.11 1592.25 461.867 1582.18 451.794L1594.43 439.545H1594.46Z" fill="#E7C8FF"/>
<path d="M1573.13 460.874C1580.7 468.449 1584.49 478.388 1584.49 488.327C1584.49 498.266 1580.7 508.205 1573.13 515.78C1565.5 523.355 1555.59 527.143 1545.67 527.143C1535.76 527.143 1525.82 523.355 1518.25 515.78L1530.42 503.531C1534.63 507.721 1540.14 509.843 1545.67 509.843C1551.18 509.843 1556.69 507.748 1560.9 503.558C1565.09 499.34 1567.19 493.834 1567.19 488.327C1567.19 482.82 1565.09 477.313 1560.88 473.123L1573.13 460.874Z" fill="#E7C8FF"/>
<path d="M1517.76 318.236C1500.22 321.083 1483.08 326.671 1466.97 334.917C1451.49 342.868 1436.91 353.372 1423.8 366.48C1390.14 400.138 1373.33 444.246 1373.33 488.354C1373.33 532.461 1390.17 576.569 1423.8 610.227L1411.55 622.476C1374.51 585.46 1356 536.894 1356 488.354C1356 439.814 1374.51 391.274 1411.55 354.231C1425.84 339.94 1441.91 328.39 1459.1 319.579C1476.85 310.473 1495.74 304.348 1514.97 301.205L1517.74 318.236H1517.76Z" fill="#E7C8FF"/>
<path d="M1515.8 349.288C1502.61 352.109 1489.75 356.81 1477.69 363.364C1466 369.73 1455.01 377.843 1445.13 387.755C1417.35 415.557 1403.49 451.955 1403.49 488.327C1403.49 524.725 1417.38 561.096 1445.13 588.872L1432.88 601.121C1401.75 569.988 1386.17 529.157 1386.17 488.327C1386.17 447.496 1401.75 406.666 1432.88 375.533C1443.97 364.465 1456.3 355.359 1469.44 348.214C1483.03 340.827 1497.46 335.535 1512.2 332.392L1515.8 349.315V349.288Z" fill="#E7C8FF"/>
<path d="M1518.89 379.535C1509.11 381.925 1499.61 385.632 1490.66 390.682C1482.01 395.571 1473.87 401.723 1466.46 409.137C1444.59 431.003 1433.66 459.664 1433.66 488.353C1433.66 517.015 1444.59 545.677 1466.46 567.57L1454.21 579.819C1428.96 554.568 1416.33 521.447 1416.33 488.353C1416.33 455.259 1428.96 422.138 1454.21 396.888C1462.72 388.399 1472.15 381.308 1482.2 375.64C1492.57 369.811 1503.55 365.513 1514.81 362.746L1518.87 379.535H1518.89Z" fill="#E7C8FF"/>
<path d="M1526.63 408.734C1519.35 410.453 1512.28 413.166 1505.7 416.846C1499.31 420.446 1493.27 424.985 1487.79 430.465C1471.8 446.448 1463.8 467.401 1463.8 488.353C1463.8 509.305 1471.8 530.231 1487.79 546.214L1475.54 558.463C1456.17 539.096 1446.5 513.711 1446.5 488.353C1446.5 462.968 1456.17 437.584 1475.54 418.216C1482.12 411.635 1489.45 406.128 1497.24 401.776C1505.35 397.264 1513.9 393.933 1522.63 391.891L1526.63 408.734Z" fill="#E7C8FF"/>
<path d="M1538.74 437.101C1533.24 437.826 1527.81 439.464 1522.71 441.99C1517.79 444.407 1513.2 447.684 1509.11 451.767C1499.01 461.894 1493.99 475.137 1493.99 488.354C1493.99 501.597 1499.04 514.84 1509.11 524.913L1496.86 537.081C1483.41 523.624 1476.66 505.975 1476.66 488.327C1476.66 470.678 1483.41 453.003 1496.86 439.545C1502.34 434.092 1508.5 429.74 1515.05 426.49C1521.85 423.132 1529.1 420.956 1536.49 419.963L1538.72 437.074L1538.74 437.101Z" fill="#E7C8FF"/>
<path d="M1560.88 473.122C1556.69 468.905 1551.18 466.809 1545.67 466.809C1540.17 466.809 1534.66 468.905 1530.47 473.122C1526.25 477.313 1524.16 482.819 1524.16 488.326C1524.16 493.86 1526.25 499.366 1530.47 503.584L1518.22 515.752C1510.65 508.177 1506.86 498.238 1506.86 488.326C1506.86 478.414 1510.65 468.475 1518.22 460.9C1525.8 453.271 1535.74 449.483 1545.67 449.483C1555.61 449.483 1565.55 453.271 1573.13 460.846L1560.88 473.095V473.122Z" fill="#E7C8FF"/>
<path d="M1882.15 369.703C1879 388.936 1872.88 407.82 1863.77 425.576C1854.94 442.768 1843.39 458.858 1829.12 473.149C1814.83 487.44 1798.77 498.99 1781.55 507.801C1763.79 516.907 1744.91 523.032 1725.68 526.175L1722.91 509.117C1740.45 506.27 1757.59 500.683 1773.71 492.436C1789.2 484.512 1803.79 473.982 1816.87 460.873C1829.95 447.791 1840.48 433.205 1848.44 417.706C1856.71 401.588 1862.27 384.45 1865.12 366.909L1882.17 369.676L1882.15 369.703Z" fill="#E7C8FF"/>
<path d="M1850.96 372.471C1847.82 387.218 1842.53 401.643 1835.11 415.235C1827.97 428.371 1818.86 440.701 1807.79 451.768L1807.77 451.795C1796.7 462.862 1784.37 471.968 1771.23 479.113C1757.64 486.5 1743.22 491.819 1728.47 494.962L1724.87 478.039C1738.06 475.218 1750.9 470.518 1762.99 463.963C1774.65 457.597 1785.66 449.458 1795.57 439.572C1805.48 429.66 1813.62 418.647 1819.96 406.989C1826.52 394.928 1831.22 382.087 1834.04 368.871L1850.96 372.471Z" fill="#E7C8FF"/>
<path d="M1820.58 369.865C1817.81 381.12 1813.52 392.107 1807.66 402.475C1801.97 412.575 1794.9 422.004 1786.44 430.466C1777.98 438.927 1768.55 445.992 1758.45 451.687C1748.08 457.543 1737.09 461.841 1725.84 464.607L1721.78 447.819C1731.56 445.428 1741.07 441.694 1750.01 436.671C1758.58 431.836 1766.75 425.684 1774.22 418.216C1781.68 410.749 1787.84 402.583 1792.67 394.014C1797.72 385.095 1801.43 375.559 1803.82 365.782L1820.61 369.838L1820.58 369.865Z" fill="#E7C8FF"/>
<path d="M1791.46 362.02C1789.37 370.777 1786.09 379.319 1781.58 387.405C1777.17 395.249 1771.69 402.582 1765.14 409.136C1758.58 415.691 1751.25 421.171 1743.41 425.549C1735.35 430.089 1726.78 433.393 1718.05 435.461L1714.07 418.619C1721.3 416.9 1728.36 414.187 1734.97 410.48C1741.34 406.934 1747.38 402.394 1752.89 396.887C1758.39 391.381 1762.93 385.337 1766.48 378.997C1770.19 372.362 1772.9 365.297 1774.62 358.045L1791.46 362.02Z" fill="#E7C8FF"/>
<path d="M1763.36 348.16C1762.4 355.574 1760.22 362.827 1756.84 369.596C1753.56 376.204 1749.21 382.355 1743.78 387.808C1738.36 393.234 1732.18 397.586 1725.57 400.863C1718.77 404.221 1711.52 406.397 1704.13 407.391L1701.9 390.28C1707.41 389.554 1712.81 387.916 1717.94 385.391C1722.8 383 1727.42 379.723 1731.53 375.586C1735.67 371.449 1738.95 366.856 1741.34 361.994C1743.86 356.89 1745.5 351.464 1746.23 345.957L1763.34 348.187L1763.36 348.16Z" fill="#E7C8FF"/>
<path d="M1722.45 311.547C1730.03 319.122 1733.82 329.088 1733.82 339C1733.82 348.939 1730.03 358.878 1722.45 366.453C1714.88 374.028 1704.91 377.816 1695 377.816C1685.06 377.816 1675.12 374.028 1667.55 366.453L1679.8 354.204C1683.99 358.421 1689.49 360.517 1695 360.517C1700.51 360.517 1706.01 358.421 1710.2 354.231C1714.42 350.013 1716.52 344.507 1716.52 339.027C1716.52 333.52 1714.42 328.013 1710.23 323.823L1722.48 311.574L1722.45 311.547Z" fill="#E7C8FF"/>
<path d="M1978.45 622.449C1941.43 659.492 1892.87 678 1844.33 678C1795.79 678 1747.25 659.492 1710.2 622.449C1706.23 618.473 1702.31 614.149 1698.44 609.501C1694.73 605.042 1691.21 600.368 1687.88 595.56L1702.09 585.809C1705.02 590.08 1708.22 594.324 1711.68 598.461C1714.85 602.276 1718.45 606.197 1722.43 610.2C1756.08 643.858 1800.19 660.674 1844.3 660.674C1888.41 660.674 1932.51 643.831 1966.17 610.2L1978.42 622.449H1978.45Z" fill="#E7C8FF"/>
<path d="M1957.12 601.12C1925.99 632.254 1885.16 647.834 1844.33 647.834C1803.52 647.834 1762.67 632.254 1731.53 601.12C1726.11 595.641 1721.08 589.838 1716.54 583.768C1711.9 577.562 1707.79 571.115 1704.19 564.507L1719.34 556.261C1722.56 562.197 1726.24 567.946 1730.35 573.426C1734.35 578.771 1738.81 583.956 1743.75 588.871C1771.56 616.647 1807.96 630.508 1844.33 630.508C1880.72 630.508 1917.1 616.62 1944.87 588.871L1957.12 601.12Z" fill="#E7C8FF"/>
<path d="M1935.79 579.792C1910.54 605.043 1877.45 617.668 1844.33 617.668C1811.23 617.668 1778.14 605.043 1752.86 579.792C1744.45 571.384 1737.39 561.983 1731.69 551.909C1725.84 541.568 1721.54 530.635 1718.77 519.46L1735.56 515.323C1737.98 525.101 1741.69 534.557 1746.71 543.448C1751.54 551.99 1757.67 560.102 1765.11 567.516C1786.98 589.382 1815.66 600.315 1844.33 600.315C1872.99 600.315 1901.65 589.382 1923.54 567.516L1935.79 579.765V579.792Z" fill="#E7C8FF"/>
<path d="M1914.44 558.463C1895.07 577.831 1869.68 587.501 1844.33 587.501C1818.94 587.501 1793.56 577.831 1774.19 558.463C1767.64 551.909 1762.16 544.602 1757.8 536.839C1753.34 528.888 1750.04 520.373 1747.95 511.562L1764.73 507.586C1766.45 514.705 1769.17 521.716 1772.9 528.378C1776.47 534.744 1780.99 540.761 1786.44 546.214C1802.42 562.197 1823.37 570.202 1844.33 570.202C1865.28 570.202 1886.23 562.197 1902.19 546.214L1914.44 558.463Z" fill="#E7C8FF"/>
<path d="M1893.11 537.108C1879.65 550.566 1861.98 557.308 1844.33 557.308C1826.71 557.308 1809.06 550.566 1795.57 537.108C1790.12 531.709 1785.77 525.557 1782.52 518.976C1779.16 512.207 1776.98 504.981 1775.99 497.647L1793.1 495.337C1793.85 500.844 1795.49 506.243 1798.02 511.32C1800.41 516.155 1803.68 520.749 1807.79 524.859C1817.87 534.959 1831.11 539.982 1844.33 539.982C1857.54 539.982 1870.79 534.932 1880.86 524.859L1893.11 537.108Z" fill="#E7C8FF"/>
<path d="M1871.75 515.807C1864.18 523.382 1854.24 527.17 1844.33 527.17C1834.41 527.17 1824.47 523.382 1816.9 515.807C1809.27 508.232 1805.48 498.293 1805.48 488.354C1805.48 478.415 1809.27 468.476 1816.85 460.901L1829.1 473.15C1824.88 477.34 1822.78 482.847 1822.78 488.354C1822.78 493.861 1824.88 499.367 1829.1 503.558C1833.26 507.775 1838.79 509.87 1844.3 509.87C1849.83 509.87 1855.34 507.775 1859.56 503.558L1871.73 515.807H1871.75Z" fill="#E7C8FF"/>
<path d="M1951.56 331.882C1956.23 335.079 1960.88 338.624 1965.5 342.466C1970.15 346.334 1974.47 350.256 1978.45 354.231C2015.49 391.274 2034 439.814 2034 488.354C2034 536.894 2015.47 585.434 1978.45 622.476L1966.2 610.227C1999.86 576.569 2016.67 532.461 2016.67 488.354C2016.67 444.246 1999.83 400.139 1966.2 366.48C1962.22 362.505 1958.3 358.905 1954.46 355.709C1950.46 352.378 1946.24 349.181 1941.81 346.146L1951.56 331.882Z" fill="#E7C8FF"/>
<path d="M1920.51 348.187C1927.11 351.786 1933.56 355.896 1939.74 360.543C1945.92 365.164 1951.72 370.16 1957.09 375.533C1988.23 406.666 2003.81 447.496 2003.81 488.327C2003.81 529.13 1988.23 569.987 1957.09 601.121L1944.84 588.872C1972.62 561.096 1986.48 524.725 1986.48 488.327C1986.48 451.928 1972.59 415.53 1944.84 387.782C1939.82 382.758 1934.66 378.272 1929.4 374.324C1923.92 370.214 1918.17 366.561 1912.23 363.337L1920.48 348.187H1920.51Z" fill="#E7C8FF"/>
<path d="M1875.16 362.746C1886.42 365.513 1897.41 369.811 1907.77 375.667C1917.85 381.308 1927.28 388.399 1935.77 396.888C1961.02 422.138 1973.64 455.232 1973.64 488.353C1973.64 521.447 1961.02 554.541 1935.77 579.819L1923.52 567.57C1945.38 545.704 1956.31 517.015 1956.31 488.353C1956.31 459.691 1945.38 431.003 1923.52 409.137C1916.13 401.723 1907.96 395.571 1899.31 390.709C1890.39 385.632 1880.86 381.899 1871.08 379.535L1875.14 362.746H1875.16Z" fill="#E7C8FF"/>
<path d="M1867.35 391.864C1876.05 393.933 1884.59 397.237 1892.71 401.749C1900.55 406.101 1907.86 411.608 1914.46 418.189C1933.83 437.557 1943.5 462.941 1943.5 488.326C1943.5 513.711 1933.83 539.096 1914.46 558.436L1902.21 546.187C1918.2 530.204 1926.2 509.252 1926.2 488.326C1926.2 467.374 1918.2 446.421 1902.21 430.438C1896.73 424.958 1890.69 420.419 1884.3 416.846C1877.72 413.139 1870.65 410.426 1863.4 408.707L1867.37 391.864H1867.35Z" fill="#E7C8FF"/>
<path d="M1853.49 419.989C1860.87 420.983 1868.15 423.159 1874.92 426.516C1881.53 429.794 1887.68 434.145 1893.11 439.571C1906.57 453.083 1913.31 470.731 1913.31 488.353C1913.31 506.001 1906.57 523.677 1893.11 537.135L1880.86 524.885C1890.96 514.785 1895.98 501.569 1895.98 488.353C1895.98 475.11 1890.93 461.867 1880.89 451.82C1876.72 447.684 1872.13 444.433 1867.27 442.016C1862.16 439.491 1856.74 437.852 1851.26 437.127L1853.49 420.016V419.989Z" fill="#E7C8FF"/>
<path d="M1816.87 460.874C1824.45 453.299 1834.39 449.511 1844.33 449.511C1854.27 449.511 1864.2 453.299 1871.78 460.874C1879.35 468.449 1883.14 478.388 1883.14 488.327C1883.14 498.266 1879.35 508.205 1871.78 515.78L1859.53 503.531C1863.72 499.34 1865.84 493.833 1865.84 488.327C1865.84 482.82 1863.75 477.313 1859.53 473.123C1855.34 468.905 1849.83 466.81 1844.33 466.81C1838.82 466.81 1833.31 468.905 1829.12 473.123L1816.87 460.874Z" fill="#E7C8FF"/>
<path d="M1438.44 346.118C1433.6 342.788 1428.96 339.269 1424.5 335.562C1419.85 331.693 1415.53 327.772 1411.55 323.796C1374.51 286.753 1356 238.213 1356 189.673C1356 141.134 1374.51 92.5937 1411.55 55.5508L1423.8 67.8C1390.14 101.458 1373.33 145.566 1373.33 189.673C1373.33 233.781 1390.17 277.889 1423.8 311.547C1427.78 315.522 1431.7 319.122 1435.54 322.292C1439.7 325.757 1443.92 328.954 1448.19 331.882L1438.44 346.092V346.118Z" fill="#E7C8FF"/>
<path d="M1469.49 329.813C1462.88 326.213 1456.44 322.077 1450.23 317.456C1444.16 312.917 1438.36 307.92 1432.91 302.44C1401.75 271.334 1386.17 230.477 1386.17 189.673C1386.17 148.843 1401.75 108.012 1432.88 76.8792L1445.13 89.1283C1417.35 116.904 1403.49 153.275 1403.49 189.673C1403.49 226.071 1417.38 262.47 1445.13 290.218C1450.04 295.188 1455.23 299.647 1460.57 303.649C1466.05 307.759 1471.8 311.412 1477.74 314.663L1469.49 329.813Z" fill="#E7C8FF"/>
<path d="M1514.54 315.2C1503.37 312.433 1492.43 308.135 1482.09 302.28C1472.04 296.585 1462.64 289.52 1454.21 281.112C1428.96 255.862 1416.33 222.741 1416.33 189.647C1416.33 156.553 1428.96 123.432 1454.21 98.1812L1466.46 110.43C1444.59 132.296 1433.66 160.958 1433.66 189.647C1433.66 218.309 1444.59 246.97 1466.46 268.863C1473.9 276.304 1482.01 282.428 1490.53 287.264C1499.42 292.287 1508.87 295.994 1518.65 298.411L1514.51 315.2H1514.54Z" fill="#E7C8FF"/>
<path d="M1522.47 286.055C1513.68 283.959 1505.14 280.655 1497.19 276.196C1489.43 271.845 1482.12 266.365 1475.56 259.81C1456.2 240.443 1446.53 215.058 1446.53 189.673C1446.53 164.289 1456.2 138.904 1475.56 119.563L1487.81 131.812C1471.83 147.795 1463.83 168.748 1463.83 189.673C1463.83 210.626 1471.83 231.578 1487.81 247.561C1493.27 253.014 1499.28 257.527 1505.65 261.1C1512.31 264.834 1519.32 267.574 1526.44 269.266L1522.47 286.055Z" fill="#E7C8FF"/>
<path d="M1536.35 258.011C1528.99 257.017 1521.77 254.841 1515.02 251.483C1508.44 248.233 1502.29 243.881 1496.89 238.482C1483.43 224.97 1476.69 207.322 1476.69 189.7C1476.69 172.052 1483.43 154.376 1496.89 140.919L1509.14 153.168C1499.04 163.241 1494.02 176.484 1494.02 189.7C1494.02 202.943 1499.07 216.186 1509.14 226.259C1513.28 230.369 1517.84 233.62 1522.68 236.01C1527.76 238.535 1533.18 240.174 1538.66 240.926L1536.35 258.037V258.011Z" fill="#E7C8FF"/>
<path d="M1573.13 217.127C1565.55 224.702 1555.61 228.489 1545.67 228.489C1535.74 228.489 1525.8 224.702 1518.22 217.127C1510.65 209.498 1506.86 199.586 1506.86 189.674C1506.86 179.762 1510.65 169.823 1518.22 162.247L1530.47 174.416C1526.28 178.633 1524.16 184.14 1524.16 189.674C1524.16 195.18 1526.25 200.714 1530.44 204.904C1534.66 209.095 1540.17 211.19 1545.67 211.19C1551.18 211.19 1556.69 209.095 1560.88 204.878L1573.13 217.127Z" fill="#E7C8FF"/>
<path d="M1687.85 92.1908C1684.82 87.7586 1681.62 83.5412 1678.29 79.5388C1675.1 75.7243 1671.52 71.8025 1667.52 67.8C1633.86 34.1418 1589.75 17.3261 1545.65 17.3261C1501.54 17.3261 1457.43 34.1686 1423.77 67.8L1411.52 55.5509C1448.54 18.508 1497.11 0 1545.65 0C1594.19 0 1642.73 18.5349 1679.77 55.5509C1683.74 59.5265 1687.67 63.8513 1691.53 68.4984C1695.38 73.1187 1698.89 77.7659 1702.12 82.4399L1687.85 92.1908Z" fill="#E7C8FF"/>
<path d="M1670.64 121.739C1667.41 115.802 1663.73 110.054 1659.65 104.574C1655.7 99.3091 1651.21 94.1516 1646.19 89.1284C1618.44 61.3529 1582.04 47.4921 1545.65 47.4921C1509.25 47.4921 1472.88 61.3798 1445.1 89.1284L1432.85 76.8792C1463.99 45.746 1504.82 30.166 1545.65 30.166C1586.48 30.166 1627.31 45.746 1658.44 76.8792C1663.81 82.2517 1668.81 88.0539 1673.43 94.2322C1678.08 100.41 1682.19 106.857 1685.79 113.465L1670.64 121.712V121.739Z" fill="#E7C8FF"/>
<path d="M1654.47 162.892C1652.07 153.114 1648.37 143.605 1643.32 134.66C1638.43 126.011 1632.28 117.871 1624.86 110.457C1603 88.5917 1574.34 77.6588 1545.65 77.6588C1516.98 77.6588 1488.32 88.5917 1466.43 110.457L1454.18 98.2083C1479.43 72.9579 1512.55 60.3327 1545.65 60.3327C1578.74 60.3327 1611.86 72.9579 1637.11 98.2083C1645.6 106.724 1652.69 116.152 1658.36 126.199C1664.19 136.567 1668.49 147.554 1671.25 158.809L1654.47 162.865V162.892Z" fill="#E7C8FF"/>
<path d="M1625.29 170.628C1623.57 163.349 1620.86 156.284 1617.18 149.703C1613.58 143.31 1609.04 137.266 1603.56 131.786C1587.58 115.803 1566.63 107.798 1545.67 107.798C1524.72 107.798 1503.79 115.803 1487.81 131.786L1475.56 119.537C1494.93 100.169 1520.31 90.4987 1545.67 90.4987C1571.06 90.4987 1596.44 100.169 1615.81 119.537C1622.39 126.118 1627.9 133.451 1632.25 141.241C1636.76 149.354 1640.09 157.896 1642.13 166.626L1625.29 170.602V170.628Z" fill="#E7C8FF"/>
<path d="M1596.9 182.743C1596.17 177.263 1594.54 171.837 1592.01 166.733C1589.59 161.871 1586.34 157.251 1582.21 153.141C1572.16 143.041 1558.92 138.018 1545.67 138.018C1532.46 138.018 1519.21 143.068 1509.14 153.141L1496.89 140.892C1510.35 127.407 1528.03 120.692 1545.67 120.692C1563.3 120.692 1580.94 127.434 1594.43 140.919C1599.88 146.318 1604.23 152.496 1607.51 159.104C1610.87 165.874 1613.04 173.153 1614.04 180.54L1596.93 182.77L1596.9 182.743Z" fill="#E7C8FF"/>
<path d="M1560.88 204.877C1565.09 200.687 1567.19 195.18 1567.19 189.673C1567.19 184.167 1565.09 178.66 1560.88 174.469C1556.69 170.279 1551.18 168.157 1545.67 168.157C1540.17 168.157 1534.66 170.252 1530.47 174.469L1518.22 162.22C1525.8 154.645 1535.73 150.858 1545.67 150.858C1555.61 150.858 1565.55 154.645 1573.13 162.22C1580.7 169.795 1584.49 179.734 1584.49 189.673C1584.49 199.612 1580.7 209.551 1573.13 217.127L1560.88 204.877Z" fill="#E7C8FF"/>
</svg>
