<svg width="266" height="226" viewBox="0 0 266 226" fill="none" xmlns="http://www.w3.org/2000/svg">
<path d="M0 198.495L33.2374 198.347L66.4684 198.292L132.937 198.187L199.405 198.292L232.636 198.341L265.867 198.495L232.636 198.643L199.405 198.698L132.937 198.803L66.4684 198.698L33.2374 198.643L0 198.495Z" fill="#263238"/>
<path d="M132.939 225.742C199.21 225.742 252.933 221.974 252.933 217.325C252.933 212.676 199.21 208.908 132.939 208.908C66.6683 208.908 12.9453 212.676 12.9453 217.325C12.9453 221.974 66.6683 225.742 132.939 225.742Z" fill="#EBEBEB"/>
<path d="M158.913 149.235V149.321C158.913 149.321 158.913 149.358 158.913 149.383C158.913 149.407 158.913 149.481 158.88 149.549V149.66C158.86 149.739 158.845 149.819 158.835 149.9C158.835 149.955 158.835 150.011 158.802 150.072C158.77 150.134 158.757 150.331 158.724 150.479C158.692 150.626 158.627 150.977 158.575 151.273L158.283 152.775C158.25 152.936 158.218 153.108 158.185 153.286C158.153 153.465 158.094 153.767 158.043 154.019C157.991 154.272 157.939 154.586 157.88 154.887C157.841 155.097 157.796 155.312 157.757 155.534C157.633 156.193 157.503 156.895 157.354 157.646C157.351 157.664 157.351 157.683 157.354 157.701C157.198 158.539 157.029 159.438 156.848 160.38C156.802 160.626 156.75 160.873 156.698 161.119C156.646 161.365 156.594 161.636 156.549 161.895C156.549 162.055 156.49 162.221 156.451 162.387C156.205 163.697 155.938 165.084 155.653 166.55C155.555 167.042 155.464 167.541 155.367 168.046C155.179 169.031 154.984 170.041 154.782 171.082C154.73 171.322 154.685 171.562 154.646 171.808C154.352 173.315 154.051 174.883 153.743 176.513C153.704 176.679 153.678 176.845 153.646 177.012C153.497 177.775 153.347 178.545 153.204 179.333C153.185 179.393 153.172 179.455 153.165 179.518L152.951 180.638C152.665 182.141 152.371 183.678 152.068 185.25C151.99 185.638 151.912 186.032 151.841 186.433C151.691 187.227 151.535 188.027 151.379 188.834C151.185 189.838 150.99 190.848 150.795 191.876C150.6 192.904 150.405 193.933 150.204 194.955C150.1 195.478 150.003 196.001 149.899 196.525C149.782 197.141 149.658 197.756 149.542 198.415H93.4121C100.335 171.143 106.173 149.155 106.173 149.155L158.913 149.235Z" fill="#263238"/>
<path d="M150.431 155.392C147.621 169.76 144.781 184.127 141.91 198.495H141.131C144.112 184.092 147.184 169.715 150.223 155.331C150.268 155.195 150.47 155.251 150.431 155.392Z" fill="#263238"/>
<path d="M158.911 149.234C158.911 149.234 158.911 149.265 158.911 149.321C158.911 149.376 158.911 149.358 158.911 149.382C158.911 149.407 158.911 149.481 158.879 149.548V149.659C158.858 149.738 158.843 149.818 158.833 149.899C158.833 149.955 158.833 150.01 158.801 150.072C158.768 150.133 158.749 150.33 158.723 150.478C158.697 150.626 158.625 150.977 158.573 151.273C158.483 151.71 158.392 152.208 158.281 152.775C158.249 152.935 158.216 153.107 158.184 153.286C158.151 153.465 158.093 153.766 158.041 154.019C157.989 154.271 157.937 154.585 157.879 154.887C157.84 155.096 157.794 155.312 157.755 155.534C157.625 156.192 157.495 156.894 157.353 157.646C157.35 157.664 157.35 157.683 157.353 157.701C157.19 158.538 157.021 159.425 156.84 160.367C156.788 160.614 156.742 160.866 156.697 161.118C156.651 161.371 156.593 161.636 156.547 161.894C156.508 162.054 156.482 162.221 156.45 162.387C156.197 163.692 155.93 165.084 155.651 166.549C155.554 167.042 155.463 167.541 155.365 168.046C155.171 169.031 154.976 170.041 154.781 171.081C154.729 171.322 154.683 171.562 154.644 171.808C154.346 173.323 154.045 174.891 153.742 176.512C153.703 176.679 153.677 176.845 153.644 177.011C153.495 177.775 153.346 178.544 153.203 179.333C153.184 179.393 153.17 179.455 153.164 179.517L152.949 180.638C152.655 182.14 152.361 183.678 152.066 185.25C151.988 185.638 151.91 186.032 151.839 186.432C151.683 187.227 151.534 188.027 151.378 188.834C151.183 189.837 150.988 190.847 150.793 191.875C150.599 192.904 150.397 193.932 150.202 194.954C150.099 195.478 150.001 196.001 149.897 196.524C149.78 197.14 149.657 197.756 149.534 198.415H121.362L119.108 176.543L119.03 175.767L118.939 174.93L118.498 170.65L118.115 166.956L116.283 149.234H158.911Z" fill="#455A64"/>
<path d="M190.8 198.495H130.267C130.163 193.212 130.053 188.101 129.916 183.28C129.916 183.163 129.916 183.046 129.916 182.929C129.916 182.929 122.851 178.963 119.045 175.854C118.398 175.349 117.802 174.789 117.266 174.179C114.83 171.236 112.388 159.918 107.336 149.272H181.37C193.397 171.402 192.553 189.185 190.8 198.495Z" fill="#263238"/>
<path d="M115.504 173.397C119.101 174.795 122.342 176.944 125.537 179.019C128.862 181.168 131.908 183.656 135.103 185.965C135.226 186.057 135.103 186.248 134.973 186.162C131.603 184.124 128.076 182.332 124.745 180.232C121.498 178.194 118.147 176.211 115.341 173.643C115.231 173.545 115.354 173.336 115.504 173.397Z" fill="#455A64"/>
<path d="M115.052 153.65C115.481 155.836 116.039 158.003 116.539 160.177C117 162.215 117.344 164.29 117.916 166.334C118.38 168.285 119.426 170.067 120.929 171.47C121.773 172.215 122.702 172.873 123.598 173.551C124.085 173.92 124.605 174.271 125.112 174.647C125.047 174.357 124.995 174.031 124.936 173.766L124.488 171.303C124.163 169.456 123.839 167.609 123.553 165.762C122.968 162.135 122.436 158.471 121.605 154.881C121.602 154.854 121.61 154.827 121.626 154.804C121.643 154.782 121.667 154.766 121.695 154.758C121.722 154.751 121.752 154.753 121.778 154.764C121.804 154.775 121.826 154.795 121.838 154.82C122.793 158.379 123.845 161.901 124.676 165.491C125.086 167.246 126.534 175.958 126.625 176.574C126.716 177.19 126.748 177.849 126.774 178.483C126.862 179.131 126.862 179.787 126.774 180.435C126.761 180.464 126.74 180.489 126.712 180.507C126.684 180.524 126.652 180.533 126.618 180.533C126.585 180.533 126.552 180.524 126.525 180.507C126.497 180.489 126.475 180.464 126.462 180.435C126.185 179.833 125.991 179.2 125.884 178.551C125.715 177.935 125.566 177.319 125.449 176.667C125.404 176.445 125.371 176.211 125.339 175.977C124.436 175.454 123.598 174.745 122.741 174.191C121.884 173.637 120.903 172.96 120.046 172.27C118.453 170.998 117.305 169.297 116.753 167.393C116.199 165.346 115.839 163.257 115.675 161.15C115.383 158.687 115.169 156.224 114.805 153.76C114.792 153.545 115.02 153.502 115.052 153.65Z" fill="#455A64"/>
<path d="M176.649 168.871C175.681 168.397 171.94 169.24 165.121 168.138C163.788 167.975 162.521 167.487 161.445 166.722C159.673 165.349 158.328 163.138 157.25 161.248C155.97 159.119 154.983 156.842 154.315 154.475C154.282 154.327 154.068 154.401 154.094 154.536C154.347 155.872 154.484 157.209 154.86 158.532C155.229 159.774 155.7 160.987 156.27 162.159C157.296 164.351 158.497 166.703 160.575 168.187C162.751 169.739 165.771 170.035 168.42 170.207C169.94 170.306 175.921 170.152 176.726 169.345C176.757 169.31 176.779 169.269 176.792 169.226C176.805 169.182 176.808 169.136 176.8 169.091C176.793 169.047 176.775 169.004 176.749 168.966C176.723 168.928 176.689 168.895 176.649 168.871Z" fill="#455A64"/>
<path d="M120.311 70.2704C114.077 79.0079 70.7735 131.63 64.5065 132.708C48.5373 135.436 33.9123 130.245 39.9454 117.203C46.9721 102.019 86.0543 71.9144 112.096 58.5834C130.748 49.033 126.442 61.6436 120.311 70.2704Z" fill="#FF9786"/>
<path d="M99.1659 99.285L65.2012 84.5069C65.2012 84.5069 96.6267 63.7929 111.31 57.4876C126.649 50.9175 132.851 54.7598 119.753 71.8531C106.901 88.6755 99.1659 99.285 99.1659 99.285Z" fill="#455A64"/>
<path d="M83.2895 73.0413C83.2178 73.0808 83.1484 73.1239 83.0817 73.1706L109.507 85.3995L109.637 85.227L83.2895 73.0413ZM75.9835 77.5917C75.914 77.6291 75.8468 77.6702 75.7822 77.7148L105.104 91.2614L105.227 91.0952L75.9835 77.5917ZM68.7814 82.1852L68.5801 82.3145L100.733 97.1912C100.765 97.1357 100.811 97.0803 100.85 97.0249L68.7814 82.1852Z" fill="white"/>
<path d="M99.5885 92.7455C98.8083 92.3238 98.0064 91.9395 97.1856 91.594L94.7113 90.4425C93.0423 89.6667 91.3603 88.9155 89.6653 88.1766C86.2949 86.6926 82.9244 85.1963 79.5279 83.7739C78.5927 83.3798 77.6511 82.9858 76.7094 82.6225C75.7678 82.2592 74.6897 81.9082 73.6961 81.5203C73.6377 81.5203 73.6052 81.5818 73.6636 81.6126C74.4884 82.0005 75.2807 82.4562 76.099 82.8441C76.9172 83.2321 77.7939 83.6385 78.6447 84.0264C80.3288 84.7776 82.0173 85.5206 83.7102 86.2554C87.0417 87.6901 90.3732 89.1371 93.7372 90.5041C94.6789 90.892 95.6205 91.2615 96.5622 91.6433C97.5038 92.025 98.5104 92.5053 99.543 92.8132C99.595 92.844 99.6404 92.7701 99.5885 92.7455Z" fill="#263238"/>
<path d="M119.804 71.8347C106.9 88.6756 99.165 99.285 99.165 99.285L88.3066 94.5499L125.532 55.1416C128.389 56.995 127.038 62.4137 119.804 71.8347Z" fill="#263238"/>
<path d="M100.608 161.033H188.215C188.215 161.033 174.831 81.7726 142.535 54.6671C138.547 51.3174 129.546 52.0809 123.702 54.8456C121.604 55.837 114.077 65.8184 111.927 75.2641C109.778 84.7097 100.368 160.749 100.608 161.033Z" fill="#455A64"/>
<path d="M180.253 127.191L141.379 53.8853C141.792 54.1068 142.18 54.3689 142.535 54.6673C160.862 70.0488 173.097 102.228 180.253 127.191Z" fill="#263238"/>
<path d="M138.781 52.9002H129.871C130.286 52.8263 130.695 52.7586 131.111 52.697H137.729C138.079 52.7524 138.417 52.8202 138.781 52.9002ZM147.938 59.8213H119.181C119.136 59.889 119.09 59.9568 119.038 60.0245H148.087L147.938 59.8213ZM153.717 66.9456H114.953L114.856 67.1488H153.86L153.717 66.9456ZM158.445 74.0699H112.2C112.2 74.1376 112.161 74.2053 112.141 74.2731H158.575L158.445 74.0699ZM162.498 81.1941H110.856C110.856 81.2619 110.856 81.3296 110.823 81.3973H162.608C162.569 81.3296 162.53 81.2619 162.498 81.1941ZM166.056 88.3184H109.804C109.804 88.3862 109.804 88.4539 109.804 88.5216H166.167C166.115 88.4539 166.056 88.3862 166.056 88.3184ZM169.232 95.4489H108.836C108.836 95.5166 108.836 95.5843 108.836 95.6459H169.304C169.304 95.5782 169.252 95.5104 169.226 95.4489H169.232ZM172.096 102.573H107.842C107.842 102.641 107.842 102.702 107.842 102.77H172.161C172.142 102.702 172.116 102.641 172.09 102.573H172.096ZM174.694 109.697H106.901C106.901 109.765 106.901 109.833 106.901 109.901H174.772C174.752 109.827 174.733 109.765 174.707 109.697H174.694ZM177.097 116.822H105.972C105.972 116.889 105.972 116.957 105.972 117.025H177.168C177.149 116.957 177.097 116.889 177.097 116.822ZM179.305 123.946H105.063C105.063 124.014 105.063 124.081 105.063 124.149H179.37L179.305 123.946ZM181.344 131.07H104.16C104.16 131.138 104.16 131.206 104.16 131.273H181.441C181.383 131.206 181.363 131.138 181.35 131.07H181.344ZM183.221 138.195H103.27C103.27 138.262 103.27 138.33 103.27 138.398H183.279C183.26 138.33 183.247 138.262 183.227 138.195H183.221ZM184.948 145.319H102.413C102.413 145.387 102.413 145.454 102.413 145.522H185C184.987 145.454 184.974 145.387 184.955 145.319H184.948ZM186.533 152.443H101.536C101.536 152.511 101.536 152.579 101.536 152.646H186.611L186.533 152.443ZM187.948 159.567H100.725V159.771H188.007C187.981 159.703 187.968 159.635 187.955 159.567H187.948Z" fill="white"/>
<path d="M157.731 56.6623C179.812 64.4023 234.181 84.9438 236.961 96.9632C238.987 105.799 197.502 111.292 196.32 109.863C195.391 108.73 156.868 80.2764 143.288 64.9626C131.482 51.6623 150.672 54.1869 157.731 56.6623Z" fill="#FF9786"/>
<path d="M174.415 92.8809L203.502 73.7925C203.502 73.7925 168.745 58.5957 153.094 54.8273C136.781 50.8988 131.384 55.7016 147.431 70.3628C163.238 84.7837 174.415 92.8809 174.415 92.8809Z" fill="#455A64"/>
<path d="M182.001 64.8394L159.453 80.9229C159.512 80.966 159.557 81.0152 159.615 81.0522L182.235 64.9256L182.001 64.8394ZM189.976 68.0659L165.233 85.7134L165.395 85.8489L190.21 68.1583C190.132 68.1275 190.086 68.0905 189.976 68.0659ZM197.879 71.3479L171.162 90.4363C171.216 90.4827 171.272 90.5259 171.331 90.5656L198.1 71.4772C198.023 71.4395 197.949 71.3963 197.879 71.3479Z" fill="white"/>
<path d="M195.474 72.4809C194.694 72.8873 193.96 73.3984 193.22 73.8725C192.48 74.3466 191.701 74.8454 190.934 75.3257C189.389 76.3048 187.856 77.3146 186.33 78.3244C183.291 80.3503 180.232 82.3638 177.238 84.4389C176.413 85.0054 175.588 85.5781 174.777 86.1692C173.965 86.7603 173.114 87.4684 172.263 88.0904C172.211 88.1273 172.263 88.195 172.328 88.1643C173.095 87.684 173.913 87.2652 174.686 86.785C175.459 86.3047 176.264 85.7997 177.043 85.2887C178.576 84.2911 180.095 83.2813 181.589 82.2591C184.57 80.2456 187.564 78.2382 190.499 76.1631L192.954 74.4205C193.811 73.8048 194.72 73.2383 195.519 72.5733C195.571 72.524 195.532 72.4501 195.474 72.4809Z" fill="#263238"/>
<path d="M171.725 90.695C170.907 90.0423 170.147 89.328 169.355 88.6507C168.562 87.9734 167.744 87.3022 166.945 86.6249C165.38 85.3072 163.796 84.0079 162.224 82.6902C159.048 80.0178 155.873 77.3393 152.729 74.6361C150.943 73.0967 149.19 71.5142 147.346 70.0364L147.307 70.0733C148.755 71.5573 150.313 72.9551 151.853 74.3467C151.528 74.1558 151.203 73.9588 150.891 73.7309C150.58 73.5031 150.203 73.2629 149.872 73.0105C149.541 72.758 149.222 72.4748 148.846 72.2408C148.787 72.2038 148.735 72.2777 148.774 72.3208C149.358 72.9745 150.046 73.5376 150.814 73.9895C151.19 74.2297 151.586 74.4452 151.982 74.6484L152.418 74.8393C153.794 76.0708 155.18 77.3023 156.574 78.5338C159.691 81.2596 162.871 83.9279 166.114 86.5387C167.01 87.2529 167.913 87.9549 168.822 88.6569C169.731 89.3588 170.731 90.0362 171.66 90.7566C171.705 90.8059 171.77 90.7381 171.725 90.695Z" fill="#263238"/>
<path d="M126.487 70.0608C131.637 70.6766 139.475 62.5548 142.216 56.3172C142.404 55.8862 141.281 51.6867 140.164 46.5206C139.514 43.3864 138.865 39.8766 138.488 36.6377C138.417 35.9727 117.59 43.7066 117.59 43.7066C117.59 43.7066 120.447 50.289 121.038 55.9416C121.08 56.3902 121.08 56.8415 121.038 57.2901C121.038 57.3517 121.038 57.4255 121.038 57.5118C120.876 60.0794 121.512 69.4512 126.487 70.0608Z" fill="#FF9786"/>
<path d="M123.248 57.4011C122.514 57.4965 121.773 57.5335 121.033 57.512C121.033 57.4258 121.033 57.3519 121.033 57.2841C121.082 56.8379 121.082 56.3881 121.033 55.9418C120.449 50.2953 117.598 43.7068 117.598 43.7068C117.598 43.7068 134.483 37.4261 137.898 36.6687C137.652 40.4802 135.859 55.8802 123.248 57.4011Z" fill="#263238"/>
<path d="M136.182 11.509C140.5 17.882 142.598 39.0763 138.701 44.9629C133.051 53.5034 120.816 57.4442 112.413 50.3569C104.262 43.4912 102.022 15.8254 106.672 10.1851C113.452 1.87241 129.791 2.06945 136.182 11.509Z" fill="#FF9786"/>
<path d="M122.303 30.0123C122.303 29.9569 122.433 30.0739 122.433 30.1293C122.537 31.564 122.907 33.2081 124.317 33.5283C124.362 33.5283 124.362 33.6145 124.317 33.6083C122.628 33.5467 122.161 31.3855 122.303 30.0123Z" fill="#263238"/>
<path d="M123.494 28.3993C125.897 27.999 126.566 32.5803 124.345 32.9559C122.124 33.3315 121.481 28.7379 123.494 28.3993Z" fill="#263238"/>
<path d="M113.097 31.0099C113.097 30.9606 112.986 31.0961 112.999 31.1515C113.253 32.5677 113.291 34.2302 112.006 34.8768C111.967 34.8768 112.006 34.9691 112.006 34.9507C113.655 34.5319 113.577 32.3337 113.097 31.0099Z" fill="#263238"/>
<path d="M111.537 29.7229C109.109 29.8645 109.589 34.4704 111.843 34.341C114.096 34.2117 113.583 29.6059 111.537 29.7229Z" fill="#263238"/>
<path d="M125.097 26.0839C124.442 25.9877 123.791 25.8603 123.149 25.7021C122.431 25.6631 121.746 25.4013 121.201 24.9571C121.062 24.7859 120.986 24.5759 120.986 24.3599C120.986 24.1438 121.062 23.9338 121.201 23.7626C121.85 23.0545 122.805 23.0299 123.721 23.1469C124.644 23.2652 125.489 23.7039 126.091 24.3783C126.232 24.5403 126.319 24.7389 126.34 24.9482C126.361 25.1576 126.314 25.368 126.207 25.5521C126.1 25.7362 125.937 25.8854 125.739 25.9802C125.541 26.0751 125.317 26.1112 125.097 26.0839Z" fill="#EFC7C1"/>
<path d="M109.335 27.6601C109.965 27.4503 110.583 27.2077 111.186 26.9335C111.875 26.7649 112.486 26.3863 112.926 25.8559C113.03 25.663 113.063 25.4429 113.021 25.23C112.978 25.0172 112.863 24.8237 112.692 24.6798C111.926 24.101 110.971 24.2488 110.095 24.5628C109.21 24.8467 108.469 25.4329 108.016 26.2069C107.924 26.3903 107.89 26.5952 107.918 26.7967C107.946 26.9982 108.035 27.1876 108.175 27.3417C108.315 27.4958 108.499 27.6079 108.705 27.6645C108.911 27.7211 109.13 27.7195 109.335 27.6601Z" fill="#EFC7C1"/>
<path d="M125.434 42.5614C125.129 42.9432 124.836 43.4482 124.297 43.5591C123.739 43.6227 123.173 43.5744 122.635 43.4174C122.624 43.4149 122.613 43.4156 122.603 43.4196C122.592 43.4235 122.584 43.4304 122.578 43.4394C122.572 43.4483 122.57 43.4588 122.57 43.4692C122.571 43.4797 122.576 43.4896 122.583 43.4975C122.838 43.7481 123.16 43.929 123.514 44.0211C123.868 44.1132 124.242 44.1131 124.596 44.021C124.891 43.9042 125.142 43.7074 125.319 43.4554C125.496 43.2033 125.59 42.9073 125.59 42.6045C125.603 42.5245 125.479 42.506 125.434 42.5614Z" fill="#263238"/>
<path d="M123.239 38.5159C122.942 39.1275 122.514 39.6741 121.983 40.1213C121.453 40.5685 120.83 40.9067 120.154 41.1144C119.566 41.3048 118.951 41.4126 118.329 41.4346C118.21 41.4437 118.091 41.4437 117.972 41.4346H117.641C117.559 41.4302 117.48 41.4009 117.417 41.351C117.354 41.3011 117.31 41.2333 117.29 41.1575C117.284 41.1084 117.284 41.0588 117.29 41.0097V40.8866C117.102 39.7967 116.972 38.1218 116.972 38.1218C116.576 38.3743 114.563 39.575 114.517 38.9962C114.121 34.2303 113.686 28.9286 114.355 24.1072C114.362 24.077 114.379 24.0499 114.405 24.0305C114.43 24.0111 114.462 24.0005 114.494 24.0005C114.527 24.0005 114.559 24.0111 114.584 24.0305C114.61 24.0499 114.627 24.077 114.634 24.1072C115.199 28.6761 114.92 33.3066 115.413 37.9002C116.129 37.4659 116.905 37.1281 117.719 36.8965C117.894 36.8965 117.914 40.1415 118.037 40.6218C118.036 40.6382 118.036 40.6547 118.037 40.6711C119.985 40.6711 121.388 39.9075 123.09 38.4297C123.194 38.3127 123.317 38.3989 123.239 38.5159Z" fill="#263238"/>
<path d="M118.928 40.7945C119.676 41.49 120.599 41.9924 121.61 42.2538C122.165 42.3808 122.749 42.3399 123.279 42.1368C124.435 41.6812 124.311 40.6344 123.961 39.7723C123.77 39.3158 123.523 38.8819 123.227 38.4792C122.091 39.6657 120.584 40.4769 118.928 40.7945Z" fill="#263238"/>
<path d="M121.612 42.2534C122.167 42.3804 122.751 42.3395 123.281 42.1364C124.436 41.6808 124.313 40.634 123.962 39.772C122.696 40.0675 121.553 41.0589 121.612 42.2534Z" fill="#FF98B9"/>
<path d="M139.468 27.6356C135.532 28.59 132.876 19.5323 132.876 19.5323C132.876 19.5323 126.648 20.3266 121.186 13.541C121.186 13.541 115.14 20.3574 108.412 21.201C97.8657 22.5125 93.9692 10.1667 96.8526 6.53371C100.937 1.37984 112.095 3.67661 112.095 3.67661C112.095 3.67661 125.083 -4.42056 132.389 3.41799C132.389 3.41799 138.831 1.7493 141.52 8.26397C144.208 14.7786 142.403 26.9213 139.468 27.6356Z" fill="#EFC7C1"/>
<path d="M134.618 20.1664C131.597 20.57 128.52 20.0112 125.87 18.5778C123.162 17.0261 120.902 14.0705 120.805 11.0041C120.805 10.8378 120.513 10.8624 120.532 11.0041C120.883 14.3414 122.162 17.4879 125.15 19.4829C126.515 20.4161 128.114 20.9936 129.788 21.1578C131.462 21.3221 133.152 21.0673 134.689 20.4188C134.71 20.4006 134.725 20.3772 134.733 20.3514C134.741 20.3255 134.741 20.2982 134.734 20.2722C134.727 20.2462 134.712 20.2226 134.691 20.204C134.671 20.1853 134.646 20.1723 134.618 20.1664Z" fill="#EFC7C1"/>
<path d="M140.73 4.21226C137.97 2.4512 134.853 2.98074 131.924 3.99674C131.761 4.05216 131.865 4.31078 132.021 4.23689C134.827 3.00537 138.385 3.98443 140.671 5.7886C142.957 7.59277 143.516 10.4437 143.743 13.073C144.207 18.1489 142.671 23.2076 139.431 27.2724C139.379 27.3339 139.483 27.414 139.535 27.3524C141.435 25.2048 142.852 22.7122 143.701 20.0271C144.55 17.3421 144.811 14.5211 144.471 11.7368C144.1 9.00901 143.25 5.83786 140.73 4.21226Z" fill="#EFC7C1"/>
<path d="M112.635 4.0032C110.74 2.46782 108.315 1.64609 105.823 1.69413C102.818 1.82655 99.9716 3.00626 97.8284 5.00687C96.9884 5.835 96.3936 6.85852 96.104 7.9742C95.8144 9.08987 95.8402 10.2582 96.1789 11.3614C96.8672 13.9722 98.9454 15.9919 101.147 17.5189C101.153 17.5247 101.16 17.5293 101.168 17.5322C101.175 17.5352 101.184 17.5366 101.192 17.5362C101.2 17.5359 101.209 17.5338 101.216 17.5301C101.224 17.5265 101.23 17.5214 101.235 17.5151C101.241 17.5088 101.244 17.5016 101.246 17.4938C101.248 17.4861 101.248 17.478 101.247 17.4702C101.245 17.4624 101.242 17.455 101.237 17.4485C101.232 17.4421 101.226 17.4367 101.218 17.4327C99.348 15.9118 97.6725 14.0523 97.0426 11.7186C96.7061 10.6323 96.7001 9.47796 97.0253 8.38858C97.3504 7.2992 97.9935 6.31905 98.8805 5.56105C102.381 2.59313 108.459 1.05991 112.466 4.18177C112.492 4.19054 112.52 4.19187 112.546 4.18559C112.572 4.17931 112.596 4.16569 112.614 4.1465C112.632 4.12731 112.644 4.10341 112.648 4.07788C112.652 4.05235 112.647 4.02634 112.635 4.0032Z" fill="#EFC7C1"/>
<path d="M136.656 29.8524C136.656 29.8524 139.689 22.1063 143.274 22.9683C146.859 23.8304 145.833 34.2242 142.508 36.4286C142.1 36.7359 141.632 36.9625 141.13 37.0953C140.629 37.2281 140.105 37.2643 139.588 37.2017C139.072 37.1392 138.574 36.9791 138.124 36.7311C137.674 36.483 137.281 36.152 136.968 35.7575L136.656 29.8524Z" fill="#FF9786"/>
<path d="M142.905 25.9425C142.917 25.9397 142.929 25.9407 142.94 25.9453C142.951 25.95 142.959 25.958 142.965 25.9681C142.97 25.9782 142.971 25.9898 142.969 26.0008C142.966 26.0118 142.96 26.0217 142.951 26.0287C140.639 27.6604 139.905 30.265 139.6 32.8512C140.119 31.7551 141.028 31.0039 142.541 31.5519C142.556 31.5605 142.568 31.5733 142.575 31.5885C142.582 31.6037 142.584 31.6205 142.58 31.6367C142.577 31.6529 142.568 31.6677 142.555 31.679C142.542 31.6903 142.526 31.6975 142.509 31.6997C142.018 31.6751 141.531 31.795 141.115 32.0431C140.699 32.2911 140.374 32.6551 140.184 33.0851C139.873 33.809 139.644 34.5625 139.502 35.3326C139.444 35.5789 138.996 35.5666 139.009 35.2895C139.012 35.2691 139.012 35.2483 139.009 35.2279C138.093 32.1246 139.431 27.1247 142.905 25.9425Z" fill="#263238"/>
<path d="M226.693 148.194C220.517 168.625 202.846 185.225 199.229 187.399C196.151 189.246 194.547 190.195 194.547 190.195C189.092 193.643 185.338 192.707 185.338 192.707C185.338 192.707 180.266 198.452 176.097 196.118C171.414 193.526 179.448 185.97 181.188 179.253C185.169 163.859 186.293 140.934 186.975 136.384L226.693 148.194Z" fill="#FF9786"/>
<path d="M197.313 165.903C196.046 170.411 194.923 174.869 193.02 179.191C190.929 183.932 188.084 188.163 185.298 192.535C185.285 192.561 185.282 192.59 185.289 192.618C185.297 192.647 185.314 192.671 185.339 192.688C185.364 192.705 185.394 192.713 185.425 192.711C185.455 192.709 185.484 192.696 185.506 192.676C191.877 185.515 196.514 175.269 197.728 165.996C197.761 165.768 197.378 165.682 197.313 165.903Z" fill="#263238"/>
<path d="M207.456 166.833C205.968 171.143 203.299 178.729 194.415 190.108C194.383 190.145 194.415 190.201 194.48 190.164C201.138 183.772 205.788 175.749 207.91 166.993C207.982 166.716 207.559 166.55 207.456 166.833Z" fill="#263238"/>
<path d="M184.747 160.423C184.429 158.225 183.208 158.366 181.104 161.771C179 165.176 173.727 180.342 168.304 178.15C162.881 175.958 170.648 154.659 174.61 149.247C178.571 143.834 186.949 136.384 186.949 136.384C186.338 140.817 185.877 151.698 184.747 160.423Z" fill="#FF9786"/>
<path d="M236.948 96.9633C241.28 109.863 229.85 138.631 226.694 148.194C225.317 152.363 185.17 141.23 186.67 136.778C189.748 127.671 197.71 111.095 196.307 109.863C195.197 108.884 233.006 85.2455 236.948 96.9633Z" fill="#FF9786"/>
<path d="M207.308 102.105C206.776 102.302 206.243 102.456 205.724 102.721C205.204 102.985 204.652 103.195 204.139 103.46C203.145 103.988 202.197 104.594 201.308 105.27C200.41 105.93 199.559 106.646 198.762 107.413C198.346 107.807 197.944 108.213 197.56 108.644C197.172 109.039 196.832 109.475 196.547 109.944C196.533 109.966 196.525 109.991 196.525 110.017C196.525 110.043 196.533 110.069 196.547 110.091C196.547 110.091 196.547 110.134 196.586 110.141C196.755 110.208 196.853 110.073 196.976 109.974L197.586 109.439C198.015 109.063 198.431 108.663 198.885 108.281C199.749 107.524 200.658 106.797 201.593 106.113C202.529 105.43 203.49 104.783 204.464 104.162C204.951 103.847 205.432 103.546 205.925 103.219C206.419 102.893 206.906 102.604 207.412 102.327C207.51 102.24 207.432 102.056 207.308 102.105Z" fill="#263238"/>
<path d="M62.1496 95.769C55.6554 100.079 35.8806 116.871 39.868 126.046C43.8554 135.22 59.0778 134.999 80.3658 131.347L62.1496 95.769Z" fill="#FF9786"/>
<path d="M61.5781 96.1692C70.2999 89.2789 82.9701 80.9108 88.159 81.1756C93.6011 81.4527 112.688 83.1644 116.987 84.9132C121.286 86.6619 133.651 98.0719 134.917 101.853C135.93 104.882 129.657 107.739 121.695 102.881C114.246 98.3367 112.701 96.902 110.272 96.1076C107.843 95.3133 98.2705 97.0559 97.1145 100.479C96.4326 102.499 99.1926 107.949 103.031 109.1C106.869 110.252 110.824 108.09 116.233 108.367C121.643 108.644 126.839 113.706 125.793 115.368C124.747 117.031 122.325 116.138 114.941 118.478C110.194 119.987 104.55 122.696 96.517 127.179C88.2888 131.766 76.3849 131.686 76.3849 131.686L61.5781 96.1692Z" fill="#FF9786"/>
<path d="M122.027 103.743C135.015 107.597 129.021 125.854 116 121.994C102.979 118.133 109.013 99.8757 122.027 103.743Z" fill="#F66D1D"/>
<path opacity="0.1" d="M122.027 103.743C135.015 107.597 129.021 125.854 116 121.994C102.979 118.133 109.013 99.8757 122.027 103.743Z" fill="#DADD1A"/>
<path d="M120.805 103.379C133.19 107.074 127.189 125.313 114.779 121.631C102.368 117.948 108.401 99.6972 120.805 103.379Z" fill="#DADD1A"/>
<path opacity="0.1" d="M109.692 111.982C109.322 115.313 110.932 118.786 115.29 120.079C125.59 123.158 130.571 107.979 120.29 104.931L120.089 104.876C129.7 107.955 124.921 122.259 115.102 119.346C113.432 118.916 111.974 117.942 110.985 116.596C109.996 115.249 109.538 113.616 109.692 111.982Z" fill="#DADD1A"/>
<g opacity="0.1">
<path opacity="0.1" d="M119.663 106.821C119.746 106.853 119.812 106.914 119.848 106.99C119.885 107.067 119.888 107.155 119.858 107.234L119.657 107.733C120.471 108.114 121.148 108.713 121.605 109.457C121.646 109.507 121.673 109.565 121.684 109.628C121.696 109.69 121.691 109.754 121.67 109.814C121.633 109.896 121.563 109.962 121.476 109.996C121.389 110.031 121.291 110.032 121.203 109.999C121.114 109.968 121.042 109.907 121.001 109.826C120.627 109.176 120.06 108.643 119.371 108.293L117.943 111.772C119.774 112.899 120.319 113.915 119.819 115.128C119.287 116.446 117.735 116.975 116.079 116.396L115.683 117.363C115.666 117.403 115.642 117.44 115.611 117.472C115.579 117.503 115.542 117.529 115.5 117.546C115.459 117.564 115.414 117.574 115.368 117.575C115.322 117.577 115.277 117.569 115.234 117.554C115.192 117.539 115.153 117.515 115.12 117.486C115.086 117.456 115.06 117.42 115.041 117.381C115.022 117.342 115.012 117.299 115.011 117.256C115.009 117.213 115.017 117.169 115.033 117.129L115.429 116.15C114.368 115.667 113.507 114.864 112.981 113.866C112.948 113.82 112.927 113.768 112.92 113.713C112.914 113.658 112.921 113.603 112.942 113.552C112.979 113.472 113.046 113.408 113.13 113.373C113.214 113.338 113.309 113.333 113.397 113.361C113.484 113.392 113.556 113.454 113.598 113.533C114.026 114.429 114.764 115.159 115.689 115.602L117.137 112.068C115.338 110.935 114.806 109.949 115.312 108.712C115.819 107.474 117.371 106.926 118.982 107.48L119.176 107.012C119.192 106.967 119.217 106.925 119.251 106.89C119.285 106.855 119.327 106.827 119.373 106.809C119.419 106.791 119.47 106.783 119.52 106.785C119.57 106.787 119.619 106.799 119.663 106.821ZM117.449 111.433L118.832 108.047C117.533 107.603 116.423 108.016 116.053 108.909C115.683 109.802 115.916 110.442 117.449 111.433ZM117.715 112.4L116.312 115.83C117.611 116.285 118.774 115.879 119.163 114.937C119.553 113.995 119.3 113.385 117.715 112.4Z" fill="#DADD1A"/>
</g>
<path d="M88.1602 81.1754C94.5765 79.5252 108.156 78.2691 117.196 81.6188C123.307 83.8847 131.977 104.531 128.808 106.963C125.638 109.395 122.963 107.105 119.456 103.269C118.157 101.871 113.066 92.7269 110.325 93.121C106.376 93.6813 96.8884 99.063 96.8884 99.063L88.1602 81.1754Z" fill="#FF9786"/>
<path d="M129.483 105.516C130.457 100.83 127.775 95.5657 124.794 90.652C124.742 90.5781 124.619 90.652 124.664 90.7136C125.424 91.9451 129.405 100.886 129.385 105.522C129.385 105.584 129.47 105.572 129.483 105.516Z" fill="#263238"/>
<path d="M88.1602 81.1754C94.5765 79.5252 108.156 78.2691 117.196 81.6188C123.307 83.8847 126.788 103.731 123.619 106.163C120.45 108.595 116.417 105.516 113.527 100.473C112.592 98.8414 110.929 91.8526 108.208 92.2221C104.259 92.7886 94.57 94.2602 94.57 94.2602L88.1602 81.1754Z" fill="#FF9786"/>
<path d="M100.368 93.2011C101.388 92.9487 101.745 92.8563 102.771 92.6162C103.797 92.376 104.817 92.1605 105.856 92.0004C106.751 91.7898 107.678 91.7253 108.597 91.8095C109.456 91.9944 110.229 92.4397 110.798 93.078C112.142 94.4696 112.616 96.4954 113.207 98.2441C113.857 100.202 115.578 103.909 117.994 105.596C118.631 106.087 119.37 106.445 120.163 106.649C120.743 106.828 121.362 106.866 121.962 106.76C124.397 106.046 124.884 103.262 124.858 100.966C124.806 96.6555 123.364 92.3452 121.715 88.4106C121.312 87.4438 120.884 86.4833 120.455 85.5227C120.04 84.3931 119.376 83.3603 118.507 82.4932C116.981 81.157 113.058 80.4674 111.844 80.2395C111.753 80.2395 111.798 80.0918 111.889 80.1102C113.363 80.3627 117.435 80.5659 119.799 82.8195C120.656 83.6447 121.098 84.8146 121.578 85.8614C122.059 86.9081 122.592 88.0719 123.046 89.1987C123.956 91.3763 124.683 93.6184 125.222 95.9043C125.709 98.0717 126.137 100.479 125.754 102.678C125.423 104.593 124.027 106.52 122.007 107.086C120.312 107.573 118.624 106.581 117.883 106.095C117.157 105.611 116.501 105.038 115.935 104.389C114.769 102.848 113.723 101.229 112.805 99.5434C111.948 97.8808 111.564 95.9843 110.564 94.3957C110.341 94.0089 110.039 93.6681 109.676 93.3932C109.312 93.1183 108.894 92.9149 108.447 92.7947C107.539 92.6654 106.615 92.6654 105.707 92.7947C103.957 92.8609 102.218 93.0794 100.511 93.4474C100.063 93.5521 99.9397 93.2873 100.368 93.2011Z" fill="#263238"/>
<path d="M83.2168 82.364C84.9313 81.4034 94.7116 75.5907 98.5562 74.5685C102.401 73.5463 117.428 71.5698 120.435 74.8148C124.215 78.8973 112.928 82.3024 107.875 83.3553C102.823 84.4083 98.3678 89.7715 98.3678 89.7715L83.2168 82.364Z" fill="#FF9786"/>
<path d="M115.666 81.1015C113.972 81.3949 112.295 81.7689 110.64 82.2222C109.04 82.5476 107.469 82.9861 105.938 83.5338C104.474 84.1809 103.132 85.0503 101.964 86.1077C101.373 86.6188 100.827 87.1545 100.288 87.7087C99.7491 88.2629 99.1646 88.9772 98.5672 89.556C98.5022 89.6176 98.5672 89.7223 98.6646 89.6545C99.8104 88.6115 101.025 87.6386 102.301 86.742C103.598 85.7869 105.014 84.9866 106.516 84.3589C109.51 83.1274 112.738 82.5116 115.738 81.2801C115.861 81.2493 115.783 81.0831 115.666 81.1015Z" fill="#263238"/>
<path d="M122.846 106.415C124.002 107.031 125.307 107.647 126.677 107.591C127.263 107.576 127.83 107.396 128.307 107.074C128.557 106.902 128.776 106.695 128.957 106.458C129.172 106.22 129.292 105.916 129.294 105.602C129.294 105.516 129.418 105.522 129.398 105.602C129.368 105.777 129.35 105.954 129.346 106.132C129.319 106.279 129.275 106.424 129.216 106.563C129.103 106.838 128.933 107.089 128.716 107.302C128.235 107.768 127.601 108.066 126.917 108.145C125.3 108.355 123.885 107.53 122.774 106.52C122.767 106.515 122.761 106.509 122.756 106.503C122.751 106.496 122.747 106.488 122.746 106.48C122.744 106.472 122.744 106.464 122.745 106.456C122.747 106.448 122.75 106.44 122.755 106.433C122.759 106.427 122.765 106.421 122.773 106.416C122.78 106.411 122.788 106.408 122.796 106.406C122.805 106.405 122.813 106.405 122.822 106.406C122.83 106.407 122.838 106.411 122.846 106.415Z" fill="#263238"/>
<path d="M96.8021 91.6802C95.3902 93.612 94.1104 95.6276 92.9705 97.7146C91.8811 99.7898 91.1113 102.002 90.6845 104.285C90.2754 106.748 90.4897 109.211 90.5481 111.723C90.6024 112.909 90.5525 114.098 90.3988 115.276C90.2404 116.302 89.9661 117.31 89.5805 118.281C88.6479 120.466 87.1545 122.397 85.2359 123.897C85.1644 123.958 85.2359 124.069 85.3398 124.02C87.1542 122.827 88.6704 121.272 89.7814 119.463C90.8923 117.654 91.5708 115.636 91.769 113.552C92.0028 111.003 91.5482 108.447 91.769 105.892C91.9961 103.566 92.5374 101.277 93.3796 99.0816C94.3028 96.5192 95.4792 94.0452 96.893 91.6925C96.8938 91.6869 96.8935 91.6811 96.892 91.6756C96.8905 91.67 96.8879 91.6648 96.8843 91.6602C96.8807 91.6557 96.8761 91.6518 96.8709 91.6489C96.8657 91.646 96.86 91.6441 96.854 91.6433C96.842 91.6416 96.8297 91.6446 96.82 91.6515C96.8102 91.6585 96.8038 91.6688 96.8021 91.6802Z" fill="#263238"/>
<path d="M73.0793 87.8316C68.0351 90.749 63.2309 94.0239 58.7076 97.6283C54.1317 101.169 49.9924 105.189 46.3686 109.611C44.3637 112.118 42.6113 114.798 41.1342 117.616C41.1018 117.671 41.1862 117.714 41.2252 117.659C42.7324 115.268 44.4051 112.974 46.2322 110.793C48.0406 108.628 49.9722 106.558 52.0185 104.592C56.2033 100.636 60.6947 96.9828 65.4551 93.6628C68.1307 91.754 70.5855 89.9313 73.2482 88.0163C73.4949 87.8316 73.3651 87.6592 73.0793 87.8316Z" fill="#263238"/>
<path d="M148.112 205.558C148.067 205.81 148.015 206.063 147.963 206.321C148.008 206.069 148.06 205.81 148.106 205.558H148.112Z" fill="#EBEBEB"/>
<path d="M45.097 137.486C36.3233 148.748 27.1794 161.821 24.9648 175.946C24.9648 176.155 25.3025 176.229 25.3545 176.014C26.3675 172.162 27.6696 168.384 29.251 164.708C35.0179 163.2 40.6744 161.968 43.7072 156.537C46.792 150.959 46.4023 143.687 45.8178 137.609C45.7399 137.283 45.2658 137.264 45.097 137.486Z" fill="#F66D1D"/>
<path d="M29.3018 164.629C33.2438 156.248 38.3028 147.831 44.7321 140.934C44.7776 140.885 44.8425 140.934 44.8036 141.002C40.5953 145.928 37.3936 151.26 34.2699 156.698C37.1728 153.902 40.355 151.402 43.1086 148.434C43.1605 148.379 43.2514 148.434 43.1995 148.52C40.4654 151.599 37.4845 155.004 33.9257 157.307C32.9645 158.974 31.999 160.647 31.0292 162.326C31.2695 162.196 31.5163 162.085 31.7631 161.968C31.8021 161.968 31.841 162.012 31.8021 162.03C31.5293 162.159 31.2565 162.301 30.9773 162.412C30.5162 163.206 30.0616 163.994 29.581 164.789C29.4771 164.93 29.2173 164.776 29.3018 164.629Z" fill="#263238"/>
<path d="M32.238 161.673C34.5967 160.424 36.8465 158.999 38.9661 157.412C39.0245 157.369 39.109 157.442 39.0505 157.492C36.9918 159.165 34.7389 160.611 32.3354 161.802C32.225 161.882 32.1276 161.734 32.238 161.673Z" fill="#263238"/>
<path d="M23.9369 173.865C23.9369 174.037 24.2616 174.031 24.2551 173.865C24.3006 169.21 24.2551 164.536 24.333 159.863C25.5929 157.461 28.288 156.131 30.1778 154.204C31.5264 152.794 32.7008 151.242 33.6782 149.579C35.9354 145.607 37.3164 141.241 37.7371 136.747C38.2566 131.772 36.2629 115.356 34.0484 115.922C32.9054 116.218 29.1907 124.352 28.2036 127.043C26.6073 131.477 25.44 136.04 24.7162 140.676C22.9108 151.587 23.0602 162.83 23.9369 173.865Z" fill="#F66D1D"/>
<path d="M23.8981 153.779C24.1643 147.892 25.5671 141.95 26.8724 136.242C28.2816 130.085 29.9311 124.303 33.2691 118.816C33.3341 118.712 33.4899 118.816 33.438 118.909C31.2101 123.174 29.4852 127.659 28.2946 132.283C28.5219 131.95 28.7947 131.636 29.022 131.322C29.1129 131.199 29.3272 131.322 29.2428 131.445C28.9437 131.941 28.5935 132.407 28.1972 132.837C28.19 132.84 28.1823 132.841 28.1745 132.841C28.1667 132.841 28.1589 132.84 28.1517 132.837C27.0023 137.234 26.2035 141.729 25.4761 146.217L25.632 146.045C25.6398 146.039 25.6495 146.035 25.6597 146.035C25.6699 146.034 25.6799 146.037 25.6881 146.043C25.6964 146.049 25.7024 146.057 25.7051 146.066C25.7079 146.075 25.7073 146.085 25.7034 146.094C25.619 146.242 25.5151 146.39 25.4242 146.538C25.067 148.816 24.7358 151.088 24.4046 153.342C28.7037 149.85 32.3599 145.792 34.4186 140.762C34.4186 140.762 34.464 140.762 34.4576 140.762C32.4379 145.977 29.2622 150.614 24.3657 153.785L24.0929 155.601C24.0929 155.725 23.8656 155.694 23.8656 155.571C23.8656 155.035 23.8656 154.499 23.9176 153.963C23.8331 153.92 23.8331 153.834 23.8981 153.779Z" fill="#263238"/>
<path d="M25.91 145.251C29.157 140.626 32.2287 136.137 34.625 131.027C34.625 130.971 34.7549 131.027 34.7289 131.07C32.7158 136.15 29.8909 141.291 26.0788 145.368C26.0009 145.454 25.845 145.343 25.91 145.251Z" fill="#263238"/>
<path d="M30.2543 129.888C31.6051 127.615 33.0338 125.405 34.3067 123.114C34.3457 123.053 34.4366 123.114 34.4106 123.17C33.3664 125.586 32.0422 127.884 30.4621 130.023C30.3712 130.146 30.1764 130.017 30.2543 129.888Z" fill="#263238"/>
<path d="M29.7302 130.873V130.91C29.7302 130.91 29.6781 130.873 29.7302 130.873Z" fill="#263238"/>
<path d="M20.5864 160.392C20.534 163.474 20.1599 166.543 19.4694 169.555C19.5213 169.887 19.5668 170.22 19.6187 170.558C20.6242 167.222 21.2063 163.785 21.3527 160.318C21.3818 160.271 21.3971 160.216 21.3971 160.161C21.3971 160.106 21.3818 160.052 21.3527 160.004C21.4965 155.365 21.1375 150.725 20.2812 146.156C18.7615 137.603 15.443 129.401 9.15654 122.991C9.10461 122.949 9.04312 122.918 8.97681 122.902C8.91049 122.886 8.84111 122.884 8.774 122.897C8.70689 122.91 8.64384 122.938 8.58969 122.978C8.53554 123.017 8.49174 123.068 8.46166 123.127C5.92241 129.247 6.80563 136.544 8.96821 142.646C10.1441 145.952 11.8245 149.076 13.9558 151.919C16.1119 154.82 18.8654 157.239 20.5864 160.392Z" fill="#F66D1D"/>
<path d="M9.8976 125.879C15.8593 135.072 20.0026 145.922 20.5091 156.753C20.5091 156.95 20.1779 156.999 20.1519 156.802C20.0091 155.829 19.8532 154.863 19.6909 153.902C17.2296 151.661 14.6968 149.296 12.9304 146.513C12.9304 146.464 12.9758 146.408 13.0148 146.451C15.063 148.828 17.2553 151.09 19.5805 153.225C19.1475 150.827 18.6388 148.469 18.0543 146.15C17.892 145.977 17.7361 145.799 17.5802 145.62C17.4244 145.442 17.6517 145.343 17.7556 145.454C17.8595 145.565 17.853 145.559 17.8985 145.608C17.0604 142.424 16.0216 139.29 14.7877 136.224C13.2681 134.512 11.5731 133.028 10.4691 130.959C10.4691 130.91 10.5146 130.873 10.547 130.916C11.4367 132.098 12.294 133.287 13.3006 134.383C13.7032 134.82 14.1448 135.232 14.5604 135.657C13.1854 132.334 11.5553 129.111 9.68329 126.014C9.66936 125.988 9.66619 125.957 9.67437 125.928C9.68255 125.899 9.70153 125.874 9.72776 125.858C9.75399 125.841 9.78568 125.834 9.81693 125.838C9.84818 125.842 9.87685 125.857 9.8976 125.879Z" fill="#263238"/>
<path d="M11.1053 137.191C13.0535 139.654 15.2226 141.993 17.015 144.537C17.067 144.61 16.9566 144.684 16.8916 144.629C14.5927 142.578 12.6444 139.783 10.9754 137.24C10.9234 137.184 11.0468 137.123 11.1053 137.191Z" fill="#263238"/>
<path d="M17.2875 145.103L17.3654 145.183C17.4238 145.239 17.3329 145.319 17.281 145.269L17.1966 145.189C17.1381 145.134 17.229 145.054 17.2875 145.103Z" fill="#263238"/>
<path d="M0.564802 143.508C1.03888 148.225 3.65604 153.865 6.85118 157.498C8.25583 159.078 9.99197 160.363 11.9491 161.273C14.1572 162.307 16.4951 163.502 18.755 164.351C19.8411 166.974 20.6482 169.693 21.1644 172.467C21.2423 172.233 21.3138 171.987 21.3852 171.747C19.9175 159.801 11.7673 149.579 1.33761 143.04C1.2568 142.989 1.16188 142.961 1.06451 142.96C0.967145 142.958 0.87156 142.984 0.789494 143.034C0.707428 143.084 0.642451 143.155 0.602537 143.239C0.562622 143.323 0.549506 143.417 0.564802 143.508Z" fill="#F66D1D"/>
<path d="M4.16345 147.036C4.09201 146.975 4.16345 146.852 4.27385 146.907C10.0029 150.948 14.5713 156.288 17.561 162.436C17.6324 162.596 17.3986 162.738 17.3012 162.578C16.8142 161.771 16.3206 160.989 15.8205 160.22C13.4372 159.795 11.1837 158.206 9.41726 156.698C9.3718 156.661 9.41726 156.593 9.4887 156.636C10.3985 157.42 11.4087 158.092 12.4955 158.637C13.4696 159.105 14.5152 159.401 15.5218 159.776C14.6386 158.446 13.7229 157.172 12.7618 155.94C10.1949 155.012 7.78745 153.727 5.61815 152.129C5.54672 152.079 5.61815 151.975 5.68309 152.018C7.8318 153.252 10.0472 154.378 12.3202 155.392C10.8576 153.574 9.28096 151.84 7.59888 150.201C6.78711 149.795 5.96884 149.389 5.18304 148.97C5.1181 148.939 5.18304 148.834 5.23499 148.853C5.88532 149.073 6.50644 149.365 7.08584 149.721C6.17016 148.797 5.20252 147.905 4.16345 147.036Z" fill="#263238"/>
<path d="M4.38302 151.162C4.52588 151.24 4.66066 151.331 4.78559 151.433C4.82455 151.464 4.7856 151.513 4.73365 151.494C4.58903 151.431 4.45006 151.357 4.31809 151.273C4.24667 151.23 4.3116 151.119 4.38302 151.162Z" fill="#263238"/>
<path d="M37.6585 198.335H9.08398L11.3894 173.662L11.896 168.218H34.8465L35.3531 173.662L37.6585 198.335Z" fill="#455A64"/>
<path d="M35.3544 173.662H11.3906L11.8972 168.218H34.8479L35.3544 173.662Z" fill="#263238"/>
<path d="M36.218 164.419H10.5332V169.807H36.218V164.419Z" fill="#455A64"/>
<path d="M79.3486 151.18C79.5629 150.134 79.6928 149.198 79.8032 148.2C79.9136 147.203 79.9655 146.211 79.959 145.195C79.9643 144.151 79.8687 143.108 79.6733 142.08C79.4681 140.888 78.9649 139.761 78.2056 138.791C77.7326 138.243 77.1265 137.812 76.4392 137.535C76.096 137.398 75.736 137.303 75.3676 137.252C75.0238 137.204 74.6756 137.19 74.3286 137.209C73.0444 137.302 71.8219 137.768 70.8282 138.545C69.9349 139.223 69.1762 140.047 68.5877 140.977C67.9753 141.893 67.5583 142.914 67.3603 143.982C67.2297 144.62 67.2836 145.28 67.5162 145.891C67.6765 146.286 67.9596 146.625 68.328 146.864C68.6782 147.084 69.0839 147.211 69.5034 147.233C69.9349 147.254 70.3635 147.156 70.7373 146.95C71.0582 146.758 71.3309 146.502 71.5361 146.199C71.8613 145.713 72.082 145.171 72.1855 144.604C72.3708 143.598 72.3708 142.569 72.1855 141.562C72.0224 140.554 71.635 139.591 71.049 138.736C70.736 138.282 70.3129 137.907 69.8151 137.64C69.3 137.373 68.7048 137.28 68.1266 137.375C67.091 137.595 66.1534 138.116 65.4445 138.865C64.0991 140.271 63.0263 141.89 62.2754 143.65C63.1571 141.984 64.3396 140.477 65.7693 139.198C66.4362 138.584 67.2908 138.185 68.2111 138.059C68.6234 138.052 69.0285 138.161 69.3753 138.373C69.7221 138.584 69.9949 138.889 70.1593 139.247C70.5732 140.013 70.8143 140.851 70.8672 141.71C70.9438 142.566 70.8669 143.428 70.6399 144.259C70.5444 144.617 70.3768 144.954 70.1463 145.251C70.0744 145.339 69.9807 145.408 69.8736 145.454C69.8129 145.476 69.7459 145.476 69.6852 145.454C69.5943 145.454 69.4904 145.386 69.4774 145.355C69.4504 145.311 69.4307 145.263 69.419 145.214C69.3744 144.925 69.3965 144.631 69.4839 144.352C69.9898 142.823 71.0296 141.502 72.4323 140.608C72.9997 140.218 73.6799 140.003 74.3805 139.992C74.5294 140 74.6773 140.02 74.8221 140.054C74.9399 140.083 75.0534 140.127 75.1598 140.183C75.3623 140.296 75.532 140.454 75.6534 140.645C75.998 141.238 76.1998 141.896 76.2444 142.572C76.3208 143.392 76.3208 144.216 76.2444 145.035C76.168 145.907 76.0445 146.774 75.8742 147.634C75.7053 148.489 75.491 149.395 75.2248 150.177L79.3486 151.18Z" fill="#F66D1D"/>
<path opacity="0.1" d="M79.3486 151.18C79.5629 150.134 79.6928 149.198 79.8032 148.2C79.9136 147.203 79.9655 146.211 79.959 145.195C79.9643 144.151 79.8687 143.108 79.6733 142.08C79.4681 140.888 78.9649 139.761 78.2056 138.791C77.7326 138.243 77.1265 137.812 76.4392 137.535C76.096 137.398 75.736 137.303 75.3676 137.252C75.0238 137.204 74.6756 137.19 74.3286 137.209C73.0444 137.302 71.8219 137.768 70.8282 138.545C69.9349 139.223 69.1762 140.047 68.5877 140.977C67.9753 141.893 67.5583 142.914 67.3603 143.982C67.2297 144.62 67.2836 145.28 67.5162 145.891C67.6765 146.286 67.9596 146.625 68.328 146.864C68.6782 147.084 69.0839 147.211 69.5034 147.233C69.9349 147.254 70.3635 147.156 70.7373 146.95C71.0582 146.758 71.3309 146.502 71.5361 146.199C71.8613 145.713 72.082 145.171 72.1855 144.604C72.3708 143.598 72.3708 142.569 72.1855 141.562C72.0224 140.554 71.635 139.591 71.049 138.736C70.736 138.282 70.3129 137.907 69.8151 137.64C69.3 137.373 68.7048 137.28 68.1266 137.375C67.091 137.595 66.1534 138.116 65.4445 138.865C64.0991 140.271 63.0263 141.89 62.2754 143.65C63.1571 141.984 64.3396 140.477 65.7693 139.198C66.4362 138.584 67.2908 138.185 68.2111 138.059C68.6234 138.052 69.0285 138.161 69.3753 138.373C69.7221 138.584 69.9949 138.889 70.1593 139.247C70.5732 140.013 70.8143 140.851 70.8672 141.71C70.9438 142.566 70.8669 143.428 70.6399 144.259C70.5444 144.617 70.3768 144.954 70.1463 145.251C70.0744 145.339 69.9807 145.408 69.8736 145.454C69.8129 145.476 69.7459 145.476 69.6852 145.454C69.5943 145.454 69.4904 145.386 69.4774 145.355C69.4504 145.311 69.4307 145.263 69.419 145.214C69.3744 144.925 69.3965 144.631 69.4839 144.352C69.9898 142.823 71.0296 141.502 72.4323 140.608C72.9997 140.218 73.6799 140.003 74.3805 139.992C74.5294 140 74.6773 140.02 74.8221 140.054C74.9399 140.083 75.0534 140.127 75.1598 140.183C75.3623 140.296 75.532 140.454 75.6534 140.645C75.998 141.238 76.1998 141.896 76.2444 142.572C76.3208 143.392 76.3208 144.216 76.2444 145.035C76.168 145.907 76.0445 146.774 75.8742 147.634C75.7053 148.489 75.491 149.395 75.2248 150.177L79.3486 151.18Z" fill="black"/>
<path d="M82.6426 196.931C85.5065 200.767 84.922 212.485 86.656 214.129C88.39 215.773 106.139 215.595 107.36 214.628C108.58 213.661 108.009 209.523 109.308 208.846C109.86 208.575 82.6426 196.931 82.6426 196.931Z" fill="#F66D1D"/>
<path opacity="0.1" d="M82.6426 196.931C85.5065 200.767 84.922 212.485 86.656 214.129C88.39 215.773 106.139 215.595 107.36 214.628C108.58 213.661 108.009 209.523 109.308 208.846C109.86 208.575 82.6426 196.931 82.6426 196.931Z" fill="black"/>
<path d="M158.52 197.122C154.941 202.048 156.877 212.516 155.143 214.129C153.409 215.742 135.66 215.595 134.439 214.628C133.218 213.661 133.79 209.302 133.082 208.47C132.712 208.033 158.52 197.122 158.52 197.122Z" fill="#F66D1D"/>
<path opacity="0.1" d="M158.52 197.122C154.941 202.048 156.877 212.516 155.143 214.129C153.409 215.742 135.66 215.595 134.439 214.628C133.218 213.661 133.79 209.302 133.082 208.47C132.712 208.033 158.52 197.122 158.52 197.122Z" fill="black"/>
<path opacity="0.3" d="M109.334 208.846C109.126 208.992 108.952 209.177 108.82 209.388C108.688 209.6 108.603 209.834 108.568 210.077C100.367 209.176 92.3507 207.141 84.7727 204.037C84.3571 201.18 83.7661 198.458 82.6426 196.949C82.6426 196.937 109.86 208.581 109.334 208.846Z" fill="black"/>
<path opacity="0.3" d="M158.52 197.122C157.188 198.969 156.617 201.549 156.338 204.179C149.07 207.231 141.367 209.25 133.478 210.17C133.489 209.582 133.355 209 133.088 208.47C132.705 208.033 158.52 197.122 158.52 197.122Z" fill="black"/>
<path d="M119.393 126.107C83.6748 126.107 69.959 152.64 69.959 168.169C69.959 183.489 80.3497 209.523 119.393 209.523C158.436 209.523 171.379 187.467 171.379 167.818C171.379 148.17 155.507 126.107 119.393 126.107Z" fill="#F66D1D"/>
<path opacity="0.1" d="M119.393 126.107C83.6748 126.107 69.959 152.64 69.959 168.169C69.959 183.489 80.3497 209.523 119.393 209.523C158.436 209.523 171.379 187.467 171.379 167.818C171.379 148.17 155.507 126.107 119.393 126.107Z" fill="black"/>
<path d="M129.479 128.028C129.479 128.028 145.805 116.157 163.489 117.56C169.574 118.047 159.469 130.559 159.281 140.343L129.479 128.028Z" fill="#F66D1D"/>
<path opacity="0.1" d="M129.479 128.028C129.479 128.028 145.805 116.157 163.489 117.56C169.574 118.047 159.469 130.559 159.281 140.343L129.479 128.028Z" fill="black"/>
<path opacity="0.3" d="M152.46 135.553C152.356 136.169 157.994 138.459 158.578 138.108C159.162 137.757 159.747 130.06 164.345 121.858C165.02 120.651 153.551 128.915 152.46 135.553Z" fill="black"/>
<path opacity="0.3" d="M156.008 166.045C156.552 165.966 157.062 165.742 157.477 165.398C157.892 165.055 158.196 164.606 158.352 164.105C158.3 164.721 158.102 165.318 157.772 165.851C157.443 166.384 156.991 166.84 156.449 167.184C156.371 167.233 156.41 167.375 156.514 167.344C159.638 166.23 159.3 162.049 158.203 159.383C158.144 159.235 158.086 159.087 158.014 158.945C157.313 157.4 156.066 156.279 154.559 156.482C149.513 157.172 151.332 166.685 156.008 166.045Z" fill="black"/>
<path d="M168.008 152.499C168.787 154.721 175.879 152.917 177.665 154.346C180.477 156.563 179.698 184.019 177.126 186.229C175.684 187.461 167.644 186.162 165.384 187.67C163.124 189.179 168.008 152.499 168.008 152.499Z" fill="#F66D1D"/>
<path opacity="0.1" d="M168.008 152.499C168.787 154.721 175.879 152.917 177.665 154.346C180.477 156.563 179.698 184.019 177.126 186.229C175.684 187.461 167.644 186.162 165.384 187.67C163.124 189.179 168.008 152.499 168.008 152.499Z" fill="black"/>
<path opacity="0.3" d="M178.066 169.598C178.066 176.285 177.475 181.71 176.768 181.71C176.06 181.71 175.469 176.285 175.469 169.598C175.469 162.911 176.053 157.486 176.768 157.486C177.482 157.486 178.066 162.911 178.066 169.598Z" fill="black"/>
<path opacity="0.3" d="M105.532 134.906C105.649 134.869 117.702 131.156 128.911 134.063L130.028 130.189C117.546 126.951 104.701 130.928 104.188 131.095L105.525 134.906L104.876 133.003L105.532 134.906Z" fill="black"/>
<path d="M88.7778 193.206C72.6788 175.663 82.5305 155.294 82.9786 154.413C83.2538 153.82 83.2765 153.149 83.042 152.54C82.8074 151.931 82.3337 151.432 81.7199 151.146C81.1061 150.861 80.3997 150.811 79.7483 151.008C79.097 151.205 78.5511 151.633 78.2248 152.203C76.0501 156.824 74.7635 161.777 74.4258 166.827C73.653 177.984 77.543 188.231 86.7646 195.207C89.5506 197.313 90.8689 195.466 88.7778 193.206Z" fill="white"/>
<path d="M81.791 146.63C81.7897 147.171 81.9577 147.7 82.2738 148.151C82.5898 148.601 83.0397 148.953 83.5664 149.16C84.0932 149.368 84.6731 149.423 85.2329 149.319C85.7926 149.214 86.307 148.954 86.7109 148.572C87.1147 148.19 87.39 147.702 87.5018 147.172C87.6136 146.641 87.5569 146.091 87.3388 145.591C87.1208 145.092 86.7512 144.664 86.2769 144.364C85.8026 144.063 85.2449 143.902 84.6743 143.902C83.9108 143.902 83.1784 144.19 82.6378 144.701C82.0973 145.212 81.7927 145.906 81.791 146.63Z" fill="white"/>
<path d="M224.822 211.167H204.463V215.434H224.822V211.167Z" fill="#DADD1A"/>
<g opacity="0.1">
<path opacity="0.1" d="M205.299 211.555C205.729 212.658 205.729 213.87 205.299 214.972C204.869 213.87 204.869 212.658 205.299 211.555Z" fill="#DADD1A"/>
<path opacity="0.1" d="M206.813 211.555C207.243 212.658 207.243 213.87 206.813 214.972C206.383 213.87 206.383 212.658 206.813 211.555Z" fill="#DADD1A"/>
<path opacity="0.1" d="M207.553 211.555C207.983 212.658 207.983 213.87 207.553 214.972C207.123 213.87 207.123 212.658 207.553 211.555Z" fill="#DADD1A"/>
<path opacity="0.1" d="M211.625 211.555C212.05 212.659 212.05 213.869 211.625 214.972C211.195 213.87 211.195 212.658 211.625 211.555Z" fill="#DADD1A"/>
<path opacity="0.1" d="M212.724 211.555C212.948 212.1 213.058 212.682 213.049 213.267C213.061 213.85 212.951 214.43 212.724 214.972C212.496 214.431 212.385 213.85 212.4 213.267C212.391 212.682 212.501 212.1 212.724 211.555Z" fill="#DADD1A"/>
<path opacity="0.1" d="M217.268 211.555C217.698 212.658 217.698 213.87 217.268 214.972C216.838 213.87 216.838 212.658 217.268 211.555Z" fill="#DADD1A"/>
<path opacity="0.1" d="M218.323 211.555C218.753 212.658 218.753 213.87 218.323 214.972C217.892 213.87 217.892 212.658 218.323 211.555Z" fill="#DADD1A"/>
<path opacity="0.1" d="M220.25 211.555C220.68 212.658 220.68 213.87 220.25 214.972C219.826 213.869 219.826 212.659 220.25 211.555Z" fill="#DADD1A"/>
<path opacity="0.1" d="M216.393 211.555C216.618 212.102 216.726 212.686 216.711 213.273C216.725 213.856 216.615 214.437 216.386 214.978C216.16 214.436 216.05 213.856 216.061 213.273C216.053 212.685 216.166 212.102 216.393 211.555Z" fill="#DADD1A"/>
<path opacity="0.1" d="M208.918 211.555C209.348 212.658 209.348 213.87 208.918 214.972C208.488 213.87 208.488 212.658 208.918 211.555Z" fill="#DADD1A"/>
<path opacity="0.1" d="M214.172 211.555C214.602 212.658 214.602 213.87 214.172 214.972C213.943 214.431 213.832 213.85 213.847 213.267C213.835 212.681 213.945 212.1 214.172 211.555Z" fill="#DADD1A"/>
<path opacity="0.1" d="M214.932 211.555C215.362 212.658 215.362 213.87 214.932 214.972C214.502 213.87 214.502 212.658 214.932 211.555Z" fill="#DADD1A"/>
<path opacity="0.1" d="M222.771 211.555C222.995 212.1 223.105 212.682 223.096 213.267C223.108 213.85 222.998 214.43 222.771 214.972C222.542 214.431 222.432 213.85 222.447 213.267C222.434 212.681 222.545 212.1 222.771 211.555Z" fill="#DADD1A"/>
<path opacity="0.1" d="M223.908 211.555C224.131 212.1 224.241 212.682 224.232 213.267C224.247 213.85 224.136 214.431 223.908 214.972C223.681 214.43 223.571 213.85 223.583 213.267C223.574 212.682 223.684 212.1 223.908 211.555Z" fill="#DADD1A"/>
<path opacity="0.1" d="M221.147 211.555C221.577 212.658 221.577 213.87 221.147 214.972C220.717 213.87 220.717 212.658 221.147 211.555Z" fill="#DADD1A"/>
<path opacity="0.1" d="M210.742 211.555C210.969 212.1 211.08 212.681 211.067 213.267C211.082 213.85 210.971 214.431 210.742 214.972C210.312 213.87 210.312 212.658 210.742 211.555Z" fill="#DADD1A"/>
</g>
<path opacity="0.1" d="M224.823 211.167V212.072L204.457 212.682V211.167H224.823Z" fill="#DADD1A"/>
<path d="M223.119 206.9H202.76V211.167H223.119V206.9Z" fill="#DADD1A"/>
<g opacity="0.1">
<path opacity="0.1" d="M222.206 210.705C221.773 209.605 221.773 208.394 222.206 207.294C222.639 208.394 222.639 209.605 222.206 210.705Z" fill="#DADD1A"/>
<path opacity="0.1" d="M220.693 210.705C220.467 210.163 220.356 209.583 220.369 209C220.353 208.416 220.463 207.836 220.693 207.294C220.921 207.836 221.031 208.416 221.018 209C221.027 209.583 220.917 210.162 220.693 210.705Z" fill="#DADD1A"/>
<path opacity="0.1" d="M219.958 210.705C219.525 209.605 219.525 208.394 219.958 207.294C220.391 208.394 220.391 209.605 219.958 210.705Z" fill="#DADD1A"/>
<path opacity="0.1" d="M215.887 210.705C215.454 209.605 215.454 208.394 215.887 207.294C216.32 208.394 216.32 209.605 215.887 210.705Z" fill="#DADD1A"/>
<path opacity="0.1" d="M214.765 210.705C214.542 210.162 214.431 209.583 214.44 209C214.428 208.416 214.538 207.836 214.765 207.294C214.995 207.836 215.106 208.416 215.09 209C215.102 209.583 214.992 210.163 214.765 210.705Z" fill="#DADD1A"/>
<path opacity="0.1" d="M210.217 210.705C209.784 209.605 209.784 208.394 210.217 207.294C210.65 208.394 210.65 209.605 210.217 210.705Z" fill="#DADD1A"/>
<path opacity="0.1" d="M209.186 210.705C208.959 210.163 208.849 209.583 208.861 209C208.845 208.416 208.955 207.836 209.186 207.294C209.619 208.394 209.619 209.605 209.186 210.705Z" fill="#DADD1A"/>
<path opacity="0.1" d="M207.257 210.705C206.823 209.605 206.823 208.394 207.257 207.294C207.69 208.394 207.69 209.605 207.257 210.705Z" fill="#DADD1A"/>
<path opacity="0.1" d="M211.115 210.705C210.892 210.162 210.781 209.583 210.791 209C210.774 208.416 210.885 207.836 211.115 207.294C211.342 207.836 211.453 208.416 211.44 209C211.449 209.583 211.339 210.162 211.115 210.705Z" fill="#DADD1A"/>
<path opacity="0.1" d="M218.608 210.705C218.381 210.163 218.27 209.583 218.283 209C218.267 208.416 218.377 207.836 218.608 207.294C219.041 208.394 219.041 209.605 218.608 210.705Z" fill="#DADD1A"/>
<path opacity="0.1" d="M213.337 210.705C212.903 209.605 212.903 208.394 213.337 207.294C213.77 208.394 213.77 209.605 213.337 210.705Z" fill="#DADD1A"/>
<path opacity="0.1" d="M212.581 210.705C212.148 209.605 212.148 208.394 212.581 207.294C213.005 208.396 213.005 209.604 212.581 210.705Z" fill="#DADD1A"/>
<path opacity="0.1" d="M204.739 210.705C204.306 209.605 204.306 208.394 204.739 207.294C204.969 207.836 205.08 208.416 205.064 209C205.076 209.583 204.966 210.163 204.739 210.705Z" fill="#DADD1A"/>
<path opacity="0.1" d="M203.599 210.706C203.376 210.162 203.265 209.583 203.274 209C203.262 208.417 203.372 207.837 203.599 207.294C203.829 207.836 203.94 208.416 203.924 209C203.936 209.583 203.826 210.163 203.599 210.706Z" fill="#DADD1A"/>
<path opacity="0.1" d="M206.36 210.705C205.927 209.605 205.927 208.394 206.36 207.294C206.793 208.394 206.793 209.605 206.36 210.705Z" fill="#DADD1A"/>
<path opacity="0.1" d="M216.766 210.705C216.539 210.163 216.429 209.583 216.441 209C216.425 208.416 216.535 207.836 216.766 207.294C216.993 207.836 217.103 208.416 217.091 209C217.1 209.583 216.989 210.162 216.766 210.705Z" fill="#DADD1A"/>
</g>
<path opacity="0.1" d="M223.119 206.9V207.805L202.76 208.415V206.9H223.119Z" fill="#DADD1A"/>
<path d="M224.687 202.67H204.328V206.937H224.687V202.67Z" fill="#DADD1A"/>
<g opacity="0.1">
<path opacity="0.1" d="M205.17 203.058C205.6 204.16 205.6 205.372 205.17 206.475C204.74 205.372 204.74 204.16 205.17 203.058Z" fill="#DADD1A"/>
<path opacity="0.1" d="M206.684 203.057C206.91 203.602 207.021 204.184 207.008 204.769C207.023 205.353 206.913 205.933 206.684 206.475C206.254 205.372 206.254 204.16 206.684 203.057Z" fill="#DADD1A"/>
<path opacity="0.1" d="M207.422 203.057C207.852 204.16 207.852 205.372 207.422 206.475C206.992 205.372 206.992 204.16 207.422 203.057Z" fill="#DADD1A"/>
<path opacity="0.1" d="M211.516 203.057C211.946 204.16 211.946 205.372 211.516 206.475C211.086 205.372 211.086 204.16 211.516 203.057Z" fill="#DADD1A"/>
<path opacity="0.1" d="M212.594 203.057C212.817 203.603 212.927 204.184 212.918 204.769C212.93 205.352 212.82 205.932 212.594 206.475C212.365 205.933 212.254 205.353 212.269 204.769C212.257 204.184 212.367 203.602 212.594 203.057Z" fill="#DADD1A"/>
<path opacity="0.1" d="M217.139 203.057C217.569 204.16 217.569 205.372 217.139 206.475C216.709 205.372 216.709 204.16 217.139 203.057Z" fill="#DADD1A"/>
<path opacity="0.1" d="M218.19 203.057C218.62 204.16 218.62 205.372 218.19 206.475C217.76 205.372 217.76 204.16 218.19 203.057Z" fill="#DADD1A"/>
<path opacity="0.1" d="M220.119 203.057C220.549 204.16 220.549 205.372 220.119 206.475C219.689 205.372 219.689 204.16 220.119 203.057Z" fill="#DADD1A"/>
<path opacity="0.1" d="M216.263 203.057C216.487 203.603 216.597 204.184 216.588 204.769C216.602 205.353 216.492 205.933 216.263 206.475C216.037 205.932 215.927 205.352 215.938 204.769C215.929 204.184 216.039 203.603 216.263 203.057Z" fill="#DADD1A"/>
<path opacity="0.1" d="M208.768 203.057C209.198 204.16 209.198 205.372 208.768 206.475C208.338 205.372 208.338 204.16 208.768 203.057Z" fill="#DADD1A"/>
<path opacity="0.1" d="M214.039 203.057C214.47 204.16 214.47 205.372 214.039 206.475C213.609 205.372 213.609 204.16 214.039 203.057Z" fill="#DADD1A"/>
<path opacity="0.1" d="M214.801 203.057C215.225 204.161 215.225 205.371 214.801 206.475C214.371 205.372 214.371 204.16 214.801 203.057Z" fill="#DADD1A"/>
<path opacity="0.1" d="M222.639 203.057C223.069 204.16 223.069 205.372 222.639 206.475C222.41 205.933 222.299 205.353 222.314 204.769C222.301 204.184 222.412 203.602 222.639 203.057Z" fill="#DADD1A"/>
<path opacity="0.1" d="M223.775 203.057C223.999 203.603 224.109 204.184 224.1 204.769C224.112 205.352 224.001 205.932 223.775 206.475C223.546 205.933 223.436 205.353 223.451 204.769C223.441 204.184 223.552 203.603 223.775 203.057Z" fill="#DADD1A"/>
<path opacity="0.1" d="M221.014 203.057C221.444 204.16 221.444 205.372 221.014 206.475C220.584 205.372 220.584 204.16 221.014 203.057Z" fill="#DADD1A"/>
<path opacity="0.1" d="M210.615 203.057C210.841 203.602 210.952 204.184 210.939 204.769C210.954 205.353 210.844 205.933 210.615 206.475C210.388 205.932 210.278 205.352 210.29 204.769C210.281 204.184 210.391 203.603 210.615 203.057Z" fill="#DADD1A"/>
</g>
<path opacity="0.1" d="M224.694 202.67V203.575L204.328 204.185V202.67H224.694Z" fill="#DADD1A"/>
<path d="M75.9162 208.599H55.5566V212.866H75.9162V208.599Z" fill="#DADD1A"/>
<g opacity="0.1">
<path opacity="0.1" d="M56.3949 208.963C56.825 210.066 56.825 211.278 56.3949 212.38C55.9647 211.278 55.9647 210.066 56.3949 208.963Z" fill="#DADD1A"/>
<path opacity="0.1" d="M57.9141 208.962C58.1373 209.506 58.2476 210.085 58.2389 210.668C58.2513 211.253 58.1409 211.835 57.9141 212.38C57.6843 211.836 57.5738 211.254 57.5893 210.668C57.5775 210.085 57.6879 209.505 57.9141 208.962Z" fill="#DADD1A"/>
<path opacity="0.1" d="M58.6538 208.962C58.8769 209.506 58.9872 210.085 58.9785 210.668C58.9941 211.254 58.8836 211.836 58.6538 212.38C58.4271 211.835 58.3167 211.253 58.3291 210.668C58.3204 210.085 58.4307 209.506 58.6538 208.962Z" fill="#DADD1A"/>
<path opacity="0.1" d="M62.721 208.962C63.1512 210.065 63.1512 211.277 62.721 212.38C62.2909 211.277 62.2909 210.065 62.721 208.962Z" fill="#DADD1A"/>
<path opacity="0.1" d="M63.8245 208.962C64.2545 210.065 64.2545 211.277 63.8245 212.38C63.3944 211.277 63.3944 210.065 63.8245 208.962Z" fill="#DADD1A"/>
<path opacity="0.1" d="M68.3694 208.962C68.5955 209.505 68.7059 210.085 68.694 210.668C68.7096 211.254 68.5991 211.836 68.3694 212.38C67.9394 211.277 67.9394 210.065 68.3694 208.962Z" fill="#DADD1A"/>
<path opacity="0.1" d="M69.4194 208.962C69.6425 209.506 69.7528 210.085 69.7441 210.668C69.7597 211.254 69.6492 211.836 69.4194 212.38C69.1927 211.835 69.0823 211.253 69.0947 210.668C69.086 210.085 69.1963 209.506 69.4194 208.962Z" fill="#DADD1A"/>
<path opacity="0.1" d="M71.3499 208.962C71.5761 209.505 71.6865 210.085 71.6746 210.668C71.6902 211.254 71.5797 211.836 71.3499 212.38C70.9198 211.277 70.9198 210.065 71.3499 208.962Z" fill="#DADD1A"/>
<path opacity="0.1" d="M67.4922 208.962C67.9224 210.065 67.9224 211.277 67.4922 212.38C67.2624 211.836 67.1519 211.254 67.1675 210.668C67.1556 210.085 67.266 209.505 67.4922 208.962Z" fill="#DADD1A"/>
<path opacity="0.1" d="M60 208.962C60.2231 209.506 60.3334 210.085 60.3247 210.668C60.3371 211.253 60.2267 211.835 60 212.38C59.7702 211.836 59.6597 211.254 59.6753 210.668C59.6666 210.085 59.7769 209.506 60 208.962Z" fill="#DADD1A"/>
<path opacity="0.1" d="M65.2718 208.962C65.702 210.065 65.702 211.277 65.2718 212.38C64.8417 211.277 64.8417 210.065 65.2718 208.962Z" fill="#DADD1A"/>
<path opacity="0.1" d="M66.0452 208.962C66.4752 210.065 66.4752 211.277 66.0452 212.38C65.6151 211.277 65.6151 210.065 66.0452 208.962Z" fill="#DADD1A"/>
<path opacity="0.1" d="M73.8694 208.962C74.2995 210.065 74.2995 211.277 73.8694 212.38C73.4394 211.277 73.4394 210.065 73.8694 208.962Z" fill="#DADD1A"/>
<path opacity="0.1" d="M75.0062 208.962C75.4363 210.065 75.4363 211.277 75.0062 212.38C74.5761 211.277 74.5761 210.065 75.0062 208.962Z" fill="#DADD1A"/>
<path opacity="0.1" d="M72.2463 208.962C72.4725 209.505 72.5828 210.085 72.571 210.668C72.5865 211.254 72.4761 211.836 72.2463 212.38C71.8163 211.277 71.8163 210.065 72.2463 208.962Z" fill="#DADD1A"/>
<path opacity="0.1" d="M61.8418 208.962C62.0649 209.506 62.1752 210.085 62.1665 210.668C62.1789 211.253 62.0685 211.835 61.8418 212.38C61.612 211.836 61.5015 211.254 61.5171 210.668C61.5052 210.085 61.6156 209.505 61.8418 208.962Z" fill="#DADD1A"/>
</g>
<path opacity="0.1" d="M75.9227 208.599V209.505L55.5566 210.114V208.599H75.9227Z" fill="#DADD1A"/>
<path d="M74.5271 204.332H54.168V208.599H74.5271V204.332Z" fill="#DADD1A"/>
<g opacity="0.1">
<path opacity="0.1" d="M55.0057 204.72C55.2294 205.266 55.3397 205.847 55.3305 206.432C55.3452 207.016 55.2347 207.596 55.0057 208.138C54.7768 207.596 54.6663 207.016 54.681 206.432C54.6718 205.847 54.7821 205.266 55.0057 204.72Z" fill="#DADD1A"/>
<path opacity="0.1" d="M56.5176 204.72C56.9476 205.823 56.9476 207.035 56.5176 208.138C56.0931 207.034 56.0931 205.824 56.5176 204.72Z" fill="#DADD1A"/>
<path opacity="0.1" d="M57.2639 204.72C57.694 205.823 57.694 207.035 57.2639 208.138C56.8339 207.035 56.8339 205.823 57.2639 204.72Z" fill="#DADD1A"/>
<path opacity="0.1" d="M61.33 204.72C61.7602 205.823 61.7602 207.035 61.33 208.138C61.101 207.596 60.9905 207.016 61.0052 206.432C60.9928 205.847 61.1032 205.265 61.33 204.72Z" fill="#DADD1A"/>
<path opacity="0.1" d="M62.4281 204.72C62.8582 205.823 62.8582 207.035 62.4281 208.138C61.9979 207.035 61.9979 205.823 62.4281 204.72Z" fill="#DADD1A"/>
<path opacity="0.1" d="M66.9808 204.72C67.411 205.823 67.411 207.035 66.9808 208.138C66.5507 207.035 66.5507 205.823 66.9808 204.72Z" fill="#DADD1A"/>
<path opacity="0.1" d="M68.0316 204.72C68.4617 205.823 68.4617 207.035 68.0316 208.138C67.6014 207.035 67.6014 205.823 68.0316 204.72Z" fill="#DADD1A"/>
<path opacity="0.1" d="M69.9417 204.72C70.3719 205.823 70.3719 207.035 69.9417 208.138C69.5116 207.035 69.5116 205.823 69.9417 204.72Z" fill="#DADD1A"/>
<path opacity="0.1" d="M66.098 204.72C66.5281 205.823 66.5281 207.035 66.098 208.138C65.6679 207.035 65.6679 205.823 66.098 204.72Z" fill="#DADD1A"/>
<path opacity="0.1" d="M58.6097 204.72C59.0399 205.823 59.0399 207.035 58.6097 208.138C58.1796 207.035 58.1796 205.823 58.6097 204.72Z" fill="#DADD1A"/>
<path opacity="0.1" d="M63.8745 204.72C64.1012 205.265 64.2116 205.847 64.1992 206.432C64.2139 207.016 64.1034 207.596 63.8745 208.138C63.6482 207.595 63.5378 207.015 63.5497 206.432C63.5405 205.847 63.6508 205.266 63.8745 204.72Z" fill="#DADD1A"/>
<path opacity="0.1" d="M64.6346 204.72C65.0647 205.823 65.0647 207.035 64.6346 208.138C64.4057 207.596 64.2952 207.016 64.3099 206.432C64.2975 205.847 64.4079 205.265 64.6346 204.72Z" fill="#DADD1A"/>
<path opacity="0.1" d="M72.473 204.72C72.6997 205.265 72.81 205.847 72.7977 206.432C72.8124 207.016 72.7019 207.596 72.473 208.138C72.0429 207.035 72.0429 205.823 72.473 204.72Z" fill="#DADD1A"/>
<path opacity="0.1" d="M73.6096 204.72C74.0397 205.823 74.0397 207.035 73.6096 208.138C73.1796 207.035 73.1796 205.823 73.6096 204.72Z" fill="#DADD1A"/>
<path opacity="0.1" d="M70.8578 204.72C71.2879 205.823 71.2879 207.035 70.8578 208.138C70.4276 207.035 70.4276 205.823 70.8578 204.72Z" fill="#DADD1A"/>
<path opacity="0.1" d="M60.4477 204.72C60.8779 205.823 60.8779 207.035 60.4477 208.138C60.0174 207.035 60.0174 205.823 60.4477 204.72Z" fill="#DADD1A"/>
</g>
<path opacity="0.1" d="M74.5271 204.332V205.237L54.168 205.847V204.332H74.5271Z" fill="#DADD1A"/>
<path d="M77.6682 195.835H57.3086V200.102H77.6682V195.835Z" fill="#DADD1A"/>
<g opacity="0.1">
<path opacity="0.1" d="M58.1468 196.223C58.577 197.325 58.577 198.537 58.1468 199.64C57.7167 198.537 57.7167 197.325 58.1468 196.223Z" fill="#DADD1A"/>
<path opacity="0.1" d="M59.6657 196.223C59.8892 196.768 59.9994 197.349 59.9903 197.934C60.0021 198.518 59.8918 199.098 59.6657 199.64C59.4369 199.098 59.3265 198.518 59.3411 197.934C59.3288 197.349 59.4391 196.767 59.6657 196.223Z" fill="#DADD1A"/>
<path opacity="0.1" d="M60.4061 196.223C60.6298 196.768 60.7401 197.349 60.7309 197.934C60.7427 198.518 60.6324 199.098 60.4061 199.64C60.1772 199.098 60.0667 198.518 60.0814 197.934C60.0722 197.349 60.1825 196.768 60.4061 196.223Z" fill="#DADD1A"/>
<path opacity="0.1" d="M64.4729 196.223C64.6996 196.767 64.8099 197.349 64.7975 197.934C64.8122 198.518 64.7018 199.098 64.4729 199.64C64.0429 198.537 64.0429 197.325 64.4729 196.223Z" fill="#DADD1A"/>
<path opacity="0.1" d="M65.5764 196.223C66.0065 197.325 66.0065 198.537 65.5764 199.64C65.1464 198.537 65.1464 197.325 65.5764 196.223Z" fill="#DADD1A"/>
<path opacity="0.1" d="M70.1225 196.223C70.3492 196.767 70.4596 197.349 70.4473 197.934C70.4619 198.518 70.3515 199.098 70.1225 199.64C69.8963 199.098 69.7859 198.518 69.7977 197.934C69.7886 197.349 69.8988 196.768 70.1225 196.223Z" fill="#DADD1A"/>
<path opacity="0.1" d="M71.1735 196.223C71.397 196.768 71.5072 197.349 71.4981 197.934C71.5099 198.518 71.3996 199.098 71.1735 199.64C70.9447 199.098 70.8343 198.518 70.8489 197.934C70.8398 197.349 70.95 196.768 71.1735 196.223Z" fill="#DADD1A"/>
<path opacity="0.1" d="M73.1019 196.223C73.3286 196.767 73.439 197.349 73.4266 197.934C73.4413 198.518 73.3308 199.098 73.1019 199.64C72.6718 198.537 72.6718 197.325 73.1019 196.223Z" fill="#DADD1A"/>
<path opacity="0.1" d="M69.2445 196.223C69.6746 197.325 69.6746 198.537 69.2445 199.64C68.8143 198.537 68.8143 197.325 69.2445 196.223Z" fill="#DADD1A"/>
<path opacity="0.1" d="M61.7518 196.223C61.9754 196.768 62.0856 197.349 62.0765 197.934C62.0883 198.518 61.978 199.098 61.7518 199.64C61.5229 199.098 61.4124 198.518 61.4271 197.934C61.4179 197.349 61.5282 196.768 61.7518 196.223Z" fill="#DADD1A"/>
<path opacity="0.1" d="M67.0195 196.223C67.4496 197.325 67.4496 198.537 67.0195 199.64C66.5951 198.536 66.5951 197.326 67.0195 196.223Z" fill="#DADD1A"/>
<path opacity="0.1" d="M67.7757 196.223C68.2057 197.325 68.2057 198.537 67.7757 199.64C67.3456 198.537 67.3456 197.325 67.7757 196.223Z" fill="#DADD1A"/>
<path opacity="0.1" d="M75.6253 196.223C76.0553 197.325 76.0553 198.537 75.6253 199.64C75.1952 198.537 75.1952 197.325 75.6253 196.223Z" fill="#DADD1A"/>
<path opacity="0.1" d="M76.7601 196.223C77.1902 197.325 77.1902 198.537 76.7601 199.64C76.33 198.537 76.33 197.325 76.7601 196.223Z" fill="#DADD1A"/>
<path opacity="0.1" d="M73.9995 196.223C74.2262 196.767 74.3366 197.349 74.3242 197.934C74.3389 198.518 74.2284 199.098 73.9995 199.64C73.7732 199.098 73.6628 198.518 73.6747 197.934C73.6655 197.349 73.7758 196.768 73.9995 196.223Z" fill="#DADD1A"/>
<path opacity="0.1" d="M63.5955 196.223C63.8191 196.768 63.9294 197.349 63.9202 197.934C63.9321 198.518 63.8217 199.098 63.5955 199.64C63.3666 199.098 63.2561 198.518 63.2708 197.934C63.2585 197.349 63.3688 196.767 63.5955 196.223Z" fill="#DADD1A"/>
</g>
<path opacity="0.1" d="M77.6682 195.835V196.74L57.3086 197.35V195.835H77.6682Z" fill="#DADD1A"/>
<path d="M77.1562 191.568H56.7969V195.835H77.1562V191.568Z" fill="#DADD1A"/>
<g opacity="0.1">
<path opacity="0.1" d="M76.2487 195.373C75.8155 194.273 75.8155 193.062 76.2487 191.962C76.6733 193.063 76.6733 194.272 76.2487 195.373Z" fill="#DADD1A"/>
<path opacity="0.1" d="M74.7281 195.373C74.5045 194.83 74.3942 194.251 74.4034 193.668C74.3905 193.084 74.5009 192.504 74.7281 191.962C74.9584 192.503 75.0689 193.084 75.0527 193.668C75.0619 194.251 74.9516 194.83 74.7281 195.373Z" fill="#DADD1A"/>
<path opacity="0.1" d="M73.9864 195.373C73.7597 194.831 73.6493 194.251 73.6617 193.668C73.6456 193.084 73.7561 192.503 73.9864 191.962C74.2136 192.504 74.324 193.084 74.3111 193.668C74.3202 194.251 74.21 194.83 73.9864 195.373Z" fill="#DADD1A"/>
<path opacity="0.1" d="M69.9401 195.373C69.507 194.273 69.507 193.062 69.9401 191.962C70.3732 193.062 70.3732 194.273 69.9401 195.373Z" fill="#DADD1A"/>
<path opacity="0.1" d="M68.8169 195.373C68.3839 194.273 68.3839 193.062 68.8169 191.962C69.25 193.062 69.25 194.273 68.8169 195.373Z" fill="#DADD1A"/>
<path opacity="0.1" d="M64.2715 195.373C64.0449 194.831 63.9345 194.251 63.9469 193.668C63.9307 193.084 64.0412 192.503 64.2715 191.962C64.7046 193.062 64.7046 194.273 64.2715 195.373Z" fill="#DADD1A"/>
<path opacity="0.1" d="M63.2188 195.373C62.9921 194.831 62.8817 194.251 62.8941 193.668C62.878 193.084 62.9885 192.503 63.2188 191.962C63.446 192.504 63.5564 193.084 63.5435 193.668C63.5527 194.251 63.4424 194.83 63.2188 195.373Z" fill="#DADD1A"/>
<path opacity="0.1" d="M61.2917 195.373C60.8585 194.273 60.8585 193.062 61.2917 191.962C61.7249 193.062 61.7249 194.273 61.2917 195.373Z" fill="#DADD1A"/>
<path opacity="0.1" d="M65.148 195.373C64.9244 194.83 64.8141 194.251 64.8233 193.668C64.8104 193.084 64.9208 192.504 65.148 191.962C65.3783 192.503 65.4888 193.084 65.4727 193.668C65.485 194.251 65.3747 194.831 65.148 195.373Z" fill="#DADD1A"/>
<path opacity="0.1" d="M72.6427 195.373C72.4191 194.83 72.3088 194.251 72.318 193.668C72.3018 193.084 72.4123 192.503 72.6427 191.962C72.87 192.504 72.9804 193.084 72.9675 193.668C72.9766 194.251 72.8663 194.83 72.6427 195.373Z" fill="#DADD1A"/>
<path opacity="0.1" d="M67.3444 195.373C66.9113 194.273 66.9113 193.062 67.3444 191.962C67.7775 193.062 67.7775 194.273 67.3444 195.373Z" fill="#DADD1A"/>
<path opacity="0.1" d="M66.6178 195.373C66.1847 194.273 66.1847 193.062 66.6178 191.962C67.0509 193.062 67.0509 194.273 66.6178 195.373Z" fill="#DADD1A"/>
<path opacity="0.1" d="M58.7702 195.373C58.337 194.273 58.337 193.062 58.7702 191.962C59.2034 193.062 59.2034 194.273 58.7702 195.373Z" fill="#DADD1A"/>
<path opacity="0.1" d="M57.6335 195.373C57.2003 194.273 57.2003 193.062 57.6335 191.962C58.0667 193.062 58.0667 194.273 57.6335 195.373Z" fill="#DADD1A"/>
<path opacity="0.1" d="M60.3951 195.373C59.962 194.273 59.962 193.062 60.3951 191.962C60.8282 193.062 60.8282 194.273 60.3951 195.373Z" fill="#DADD1A"/>
<path opacity="0.1" d="M70.7984 195.373C70.5748 194.83 70.4645 194.251 70.4737 193.668C70.4608 193.084 70.5712 192.504 70.7984 191.962C71.0288 192.503 71.1393 193.084 71.1232 193.668C71.1323 194.251 71.0221 194.83 70.7984 195.373Z" fill="#DADD1A"/>
</g>
<path opacity="0.1" d="M77.1562 191.568V192.473L56.7969 193.082V191.568H77.1562Z" fill="#DADD1A"/>
<path d="M75.9162 187.301H55.5566V191.568H75.9162V187.301Z" fill="#DADD1A"/>
<g opacity="0.1">
<path opacity="0.1" d="M56.3964 187.695C56.8294 188.795 56.8294 190.006 56.3964 191.106C55.972 190.004 55.972 188.796 56.3964 187.695Z" fill="#DADD1A"/>
<path opacity="0.1" d="M57.9158 187.695C58.1393 188.238 58.2496 188.817 58.2404 189.4C58.2528 189.984 58.1425 190.563 57.9158 191.106C57.6869 190.564 57.5765 189.984 57.5911 189.4C57.582 188.817 57.6922 188.238 57.9158 187.695Z" fill="#DADD1A"/>
<path opacity="0.1" d="M58.6557 187.695C58.8824 188.237 58.9928 188.817 58.9805 189.4C58.9951 189.984 58.8847 190.564 58.6557 191.106C58.429 190.563 58.3186 189.984 58.331 189.4C58.3219 188.817 58.4321 188.238 58.6557 187.695Z" fill="#DADD1A"/>
<path opacity="0.1" d="M62.7213 187.695C63.1544 188.795 63.1544 190.006 62.7213 191.106C62.2882 190.006 62.2882 188.795 62.7213 187.695Z" fill="#DADD1A"/>
<path opacity="0.1" d="M63.8267 187.695C64.2597 188.795 64.2597 190.006 63.8267 191.106C63.3937 190.006 63.3937 188.795 63.8267 187.695Z" fill="#DADD1A"/>
<path opacity="0.1" d="M68.3698 187.695C68.803 188.795 68.803 190.006 68.3698 191.106C67.9366 190.006 67.9366 188.795 68.3698 187.695Z" fill="#DADD1A"/>
<path opacity="0.1" d="M69.4214 187.695C69.6481 188.237 69.7585 188.817 69.7461 189.4C69.7608 189.984 69.6503 190.564 69.4214 191.106C69.1947 190.563 69.0843 189.984 69.0966 189.4C69.0875 188.817 69.1978 188.238 69.4214 187.695Z" fill="#DADD1A"/>
<path opacity="0.1" d="M71.3522 187.695C71.7854 188.795 71.7854 190.006 71.3522 191.106C70.919 190.006 70.919 188.795 71.3522 187.695Z" fill="#DADD1A"/>
<path opacity="0.1" d="M67.494 187.695C67.7176 188.238 67.8279 188.817 67.8187 189.4C67.8311 189.984 67.7207 190.563 67.494 191.106C67.2651 190.564 67.1546 189.984 67.1693 189.4C67.1569 188.817 67.2673 188.237 67.494 187.695Z" fill="#DADD1A"/>
<path opacity="0.1" d="M59.9994 187.695C60.223 188.238 60.3332 188.817 60.3241 189.4C60.3388 189.984 60.2283 190.564 59.9994 191.106C59.7728 190.563 59.6624 189.984 59.6748 189.4C59.6656 188.817 59.7759 188.238 59.9994 187.695Z" fill="#DADD1A"/>
<path opacity="0.1" d="M65.2722 187.695C65.7054 188.795 65.7054 190.006 65.2722 191.106C64.839 190.006 64.839 188.795 65.2722 187.695Z" fill="#DADD1A"/>
<path opacity="0.1" d="M66.0455 187.695C66.4785 188.795 66.4785 190.006 66.0455 191.106C65.6124 190.006 65.6124 188.795 66.0455 187.695Z" fill="#DADD1A"/>
<path opacity="0.1" d="M73.8718 187.695C74.305 188.795 74.305 190.006 73.8718 191.106C73.4386 190.006 73.4386 188.795 73.8718 187.695Z" fill="#DADD1A"/>
<path opacity="0.1" d="M75.0084 187.695C75.4415 188.795 75.4415 190.006 75.0084 191.106C74.5753 190.006 74.5753 188.795 75.0084 187.695Z" fill="#DADD1A"/>
<path opacity="0.1" d="M72.2468 187.695C72.68 188.795 72.68 190.006 72.2468 191.106C71.8136 190.006 71.8136 188.795 72.2468 187.695Z" fill="#DADD1A"/>
<path opacity="0.1" d="M61.8436 187.695C62.0672 188.238 62.1775 188.817 62.1683 189.4C62.1807 189.984 62.0703 190.563 61.8436 191.106C61.6147 190.564 61.5042 189.984 61.5189 189.4C61.5097 188.817 61.62 188.238 61.8436 187.695Z" fill="#DADD1A"/>
</g>
<path opacity="0.1" d="M75.9227 187.301V188.212L55.5566 188.821V187.301H75.9227Z" fill="#DADD1A"/>
<path d="M75.9162 200.102H55.5566V204.369H75.9162V200.102Z" fill="#DADD1A"/>
<g opacity="0.1">
<path opacity="0.1" d="M75.0062 203.907C74.5761 202.805 74.5761 201.592 75.0062 200.49C75.4363 201.592 75.4363 202.805 75.0062 203.907Z" fill="#DADD1A"/>
<path opacity="0.1" d="M73.4866 203.907C73.0565 202.805 73.0565 201.592 73.4866 200.49C73.9167 201.592 73.9167 202.805 73.4866 203.907Z" fill="#DADD1A"/>
<path opacity="0.1" d="M72.7464 203.907C72.3163 202.805 72.3163 201.592 72.7464 200.49C72.9753 201.032 73.0858 201.612 73.0711 202.195C73.0835 202.781 72.9731 203.363 72.7464 203.907Z" fill="#DADD1A"/>
<path opacity="0.1" d="M68.6835 203.907C68.4598 203.362 68.3495 202.781 68.3587 202.195C68.344 201.612 68.4545 201.032 68.6835 200.49C68.9097 201.032 69.0201 201.612 69.0082 202.195C69.0174 202.781 68.9071 203.362 68.6835 203.907Z" fill="#DADD1A"/>
<path opacity="0.1" d="M67.5844 203.907C67.1542 202.805 67.1542 201.592 67.5844 200.49C68.0089 201.593 68.0089 202.804 67.5844 203.907Z" fill="#DADD1A"/>
<path opacity="0.1" d="M63.0306 203.907C62.807 203.362 62.6968 202.781 62.7059 202.195C62.6941 201.612 62.8045 201.032 63.0306 200.49C63.2595 201.032 63.37 201.612 63.3553 202.195C63.3645 202.781 63.2542 203.362 63.0306 203.907Z" fill="#DADD1A"/>
<path opacity="0.1" d="M61.9789 203.907C61.5487 202.805 61.5487 201.592 61.9789 200.49C62.2079 201.032 62.3184 201.612 62.3037 202.195C62.316 202.781 62.2056 203.363 61.9789 203.907Z" fill="#DADD1A"/>
<path opacity="0.1" d="M60.0506 203.907C59.827 203.362 59.7167 202.781 59.7259 202.195C59.7112 201.612 59.8217 201.032 60.0506 200.49C60.2768 201.032 60.3871 201.612 60.3753 202.195C60.3845 202.781 60.2742 203.362 60.0506 203.907Z" fill="#DADD1A"/>
<path opacity="0.1" d="M63.9065 203.907C63.4765 202.805 63.4765 201.592 63.9065 200.49C64.3364 201.592 64.3364 202.805 63.9065 203.907Z" fill="#DADD1A"/>
<path opacity="0.1" d="M71.4007 203.907C70.9706 202.805 70.9706 201.592 71.4007 200.49C71.6296 201.032 71.7401 201.612 71.7254 202.195C71.7378 202.781 71.6274 203.363 71.4007 203.907Z" fill="#DADD1A"/>
<path opacity="0.1" d="M66.1371 203.907C65.7069 202.805 65.7069 201.592 66.1371 200.49C66.5672 201.592 66.5672 202.805 66.1371 203.907Z" fill="#DADD1A"/>
<path opacity="0.1" d="M65.3944 203.907C65.1677 203.363 65.0573 202.781 65.0697 202.195C65.055 201.612 65.1655 201.032 65.3944 200.49C65.6206 201.032 65.731 201.612 65.7192 202.195C65.7284 202.781 65.6181 203.362 65.3944 203.907Z" fill="#DADD1A"/>
<path opacity="0.1" d="M57.5375 203.907C57.1073 202.805 57.1073 201.592 57.5375 200.49C57.9676 201.592 57.9676 202.805 57.5375 203.907Z" fill="#DADD1A"/>
<path opacity="0.1" d="M56.3949 203.907C55.9647 202.805 55.9647 201.592 56.3949 200.49C56.825 201.592 56.825 202.805 56.3949 203.907Z" fill="#DADD1A"/>
<path opacity="0.1" d="M59.1541 203.907C58.9305 203.362 58.8202 202.781 58.8294 202.195C58.8147 201.612 58.9252 201.032 59.1541 200.49C59.383 201.032 59.4935 201.612 59.4788 202.195C59.488 202.781 59.3777 203.362 59.1541 203.907Z" fill="#DADD1A"/>
<path opacity="0.1" d="M69.5588 203.907C69.1288 202.805 69.1288 201.592 69.5588 200.49C69.9888 201.592 69.9888 202.805 69.5588 203.907Z" fill="#DADD1A"/>
</g>
<path opacity="0.1" d="M75.9227 200.102V201.007L55.5566 201.617V200.102H75.9227Z" fill="#DADD1A"/>
<path d="M53.8619 197.978C67.2659 200.262 63.72 219.086 50.2965 216.801C36.8731 214.517 40.4319 195.693 53.8619 197.978Z" fill="#DADD1A"/>
<path opacity="0.1" d="M53.8619 197.978C67.2659 200.262 63.72 219.086 50.2965 216.801C36.8731 214.517 40.4319 195.693 53.8619 197.978Z" fill="#DADD1A"/>
<path d="M52.6016 197.762C65.3757 199.936 61.8364 218.766 49.0363 216.586C36.2362 214.406 39.808 195.588 52.6016 197.762Z" fill="#DADD1A"/>
<path opacity="0.1" d="M42.7168 207.62C42.7882 210.976 44.8469 214.221 49.341 215.009C59.9591 216.813 62.9011 201.186 52.2959 199.381L52.0881 199.351C62.0308 201.241 59.1798 216.025 49.0552 214.301C47.3389 214.072 45.7626 213.276 44.6034 212.055C43.4442 210.833 42.7762 209.263 42.7168 207.62Z" fill="#DADD1A"/>
<g opacity="0.1">
<path opacity="0.1" d="M51.9272 201.315C52.0121 201.338 52.0844 201.391 52.1291 201.464C52.1739 201.536 52.1876 201.621 52.1675 201.703L52.0311 202.22C52.901 202.493 53.6639 203.008 54.2197 203.698C54.2673 203.742 54.3028 203.797 54.3232 203.857C54.3436 203.917 54.3482 203.981 54.3366 204.043C54.3094 204.129 54.2484 204.202 54.1662 204.246C54.0841 204.291 53.987 204.304 53.895 204.283C53.849 204.273 53.8057 204.254 53.7677 204.228C53.7297 204.201 53.6979 204.168 53.6742 204.129C53.2138 203.531 52.5797 203.073 51.8493 202.811L50.9012 206.426C52.8494 207.331 53.5378 208.273 53.2066 209.535C52.8429 210.909 51.3752 211.586 49.6608 211.235L49.3945 212.245C49.3891 212.29 49.3736 212.334 49.3489 212.373C49.3243 212.412 49.2911 212.446 49.2515 212.472C49.212 212.498 49.1671 212.516 49.1197 212.524C49.0724 212.532 49.0237 212.531 48.977 212.52C48.9303 212.509 48.8866 212.488 48.8489 212.46C48.8112 212.431 48.7804 212.396 48.7584 212.355C48.7364 212.315 48.7239 212.27 48.7216 212.224C48.7193 212.179 48.7273 212.133 48.7451 212.091L49.0113 211.069C47.8917 210.72 46.9287 210.023 46.2773 209.092C46.2383 209.051 46.2108 209.001 46.1972 208.948C46.1836 208.894 46.1843 208.838 46.1993 208.784C46.2238 208.701 46.2812 208.629 46.3598 208.584C46.4384 208.54 46.5321 208.525 46.6215 208.544C46.6675 208.552 46.7111 208.569 46.7492 208.595C46.7874 208.62 46.8192 208.653 46.8423 208.692C47.3858 209.53 48.2153 210.167 49.1932 210.496L50.1608 206.802C48.2126 205.89 47.5631 204.954 47.9138 203.692C48.2645 202.43 49.7127 201.672 51.3882 202.029L51.5181 201.537C51.5438 201.457 51.6004 201.39 51.6764 201.349C51.7524 201.308 51.8421 201.296 51.9272 201.315ZM50.3362 206.155L51.2583 202.627C49.9595 202.343 48.862 202.885 48.6217 203.815C48.3814 204.745 48.6801 205.336 50.3362 206.155ZM50.7258 207.085L49.8101 210.65C51.1739 210.946 52.2584 210.404 52.5182 209.418C52.778 208.433 52.4078 207.879 50.7258 207.116V207.085Z" fill="#DADD1A"/>
</g>
</svg>
