<svg width="24" height="25" viewBox="0 0 24 25" fill="none" xmlns="http://www.w3.org/2000/svg">
<path d="M17.0215 3.33197C17.2897 3.06383 17.6067 2.85179 17.9574 2.70702C18.3071 2.56225 18.6823 2.48779 19.0606 2.48779C19.4388 2.48779 19.814 2.56225 20.1637 2.70702C20.5144 2.85179 20.8315 3.06383 21.0997 3.33197C21.3678 3.60011 21.5799 3.91721 21.7246 4.26793C21.8694 4.61763 21.9438 4.99279 21.9438 5.37104C21.9438 5.74928 21.8694 6.12444 21.7246 6.47414C21.5799 6.82486 21.3678 7.14197 21.0997 7.4101L7.33595 21.1738L1.72852 22.7031L3.25782 17.0957L17.0215 3.33197Z" stroke="white" stroke-width="3" stroke-linecap="round" stroke-linejoin="round"/>
</svg>
