<svg width="225" height="238" viewBox="0 0 225 238" fill="none" xmlns="http://www.w3.org/2000/svg">
<path d="M179.628 81.2944L172.856 81.4388L169.421 81.4955C168.276 81.5213 167.121 81.4956 165.971 81.5265H165.739V81.2944L165.713 75.523V75.2651H165.971L172.799 75.2961C175.074 75.2961 177.348 75.358 179.628 75.3838H179.767V75.523C179.767 76.503 179.726 77.4778 179.7 78.4371L179.628 81.2944ZM179.628 81.2944L179.556 78.3803C179.53 77.4159 179.494 76.4669 179.489 75.523L179.628 75.6623C177.348 75.6881 175.074 75.7448 172.799 75.75L165.971 75.7809L166.229 75.523L166.187 81.2944L165.96 81.0623C167.085 81.0623 168.209 81.0623 169.334 81.0932L172.727 81.15L179.628 81.2944Z" fill="#EBEBEB"/>
<path d="M172.011 88.5716L165.239 88.716L161.804 88.7728C160.659 88.7728 159.504 88.7728 158.354 88.8037H158.121V88.5716L158.096 82.8002V82.5217H158.359L165.187 82.5527C167.462 82.5527 169.736 82.6146 172.016 82.6404H172.155V82.7796C172.155 83.7596 172.109 84.7343 172.088 85.6937L172.011 88.5716ZM172.011 88.5716L171.934 85.6576C171.934 84.6931 171.877 83.7441 171.867 82.8002L172.011 82.9395C169.731 82.9653 167.457 83.022 165.182 83.0272L158.354 83.0581L158.611 82.8002L158.581 88.5716L158.354 88.3395C159.478 88.3395 160.597 88.3395 161.727 88.3705L165.12 88.4272L172.011 88.5716Z" fill="#EBEBEB"/>
<path d="M187.247 88.5716L180.48 88.716L177.04 88.7728C175.895 88.7728 174.739 88.7728 173.589 88.8037H173.362V88.5716V82.8002V82.5217H173.62L180.449 82.5527C182.723 82.5527 185.003 82.6146 187.278 82.6404H187.422V82.7796C187.422 83.7596 187.381 84.7343 187.355 85.6937L187.247 88.5716ZM187.247 88.5716L187.174 85.6576C187.149 84.6931 187.118 83.7441 187.107 82.8002L187.247 82.9395C184.972 82.9653 182.692 83.022 180.418 83.0272L173.589 83.0581L173.847 82.8002L173.821 88.5716L173.589 88.3395C174.714 88.3395 175.838 88.3395 176.967 88.3705L180.356 88.4272L187.247 88.5716Z" fill="#EBEBEB"/>
<path d="M213.262 29.0322L206.495 29.1766L203.06 29.2333C201.91 29.2333 200.755 29.2333 199.605 29.2643H199.378V29.0322L199.347 23.2608V23.0029H199.605L206.433 23.0339C208.713 23.0339 210.987 23.0958 213.262 23.1216H213.406V23.2608C213.406 24.2408 213.36 25.2155 213.339 26.1749L213.262 29.0322ZM213.262 29.0322L213.19 26.1181C213.19 25.1537 213.133 24.2047 213.123 23.2608L213.262 23.4001C210.987 23.4259 208.713 23.4826 206.433 23.4877L199.605 23.5187L199.862 23.2608L199.837 29.0322L199.605 28.8001C200.729 28.8001 201.853 28.8001 202.983 28.831L206.377 28.8878L213.262 29.0322Z" fill="#EBEBEB"/>
<path d="M220.859 36.3098L214.092 36.4542L210.657 36.5109C209.507 36.5109 208.357 36.5109 207.201 36.5419H206.974V36.3098L206.943 30.5384V30.2805H207.201L214.03 30.3115C216.31 30.3115 218.584 30.3734 220.859 30.3991H221.003V30.5384C221.003 31.5183 220.957 32.4931 220.936 33.4525L220.859 36.3098ZM220.859 36.3098L220.786 33.3957C220.786 32.4312 220.73 31.4822 220.719 30.5384L220.859 30.6777C218.584 30.7034 216.31 30.7602 214.03 30.7653L207.201 30.7963L207.459 30.5384L207.449 36.3098L207.217 36.0777C208.346 36.0777 209.465 36.0777 210.595 36.1086L213.989 36.1654L220.859 36.3098Z" fill="#EBEBEB"/>
<path d="M16.8436 29.0376L10.0716 29.182L6.63665 29.2387C5.4865 29.2645 4.33634 29.2387 3.18619 29.2697H2.9541V29.0376V23.2662V23.0083H3.20683L10.0355 23.0444C12.31 23.0444 14.5845 23.1011 16.8642 23.1269H17.0035V23.2662C17.0035 24.2461 16.957 25.2209 16.9364 26.1854L16.8436 29.0376ZM16.8436 29.0376L16.7662 26.1235C16.7662 25.1642 16.7095 24.21 16.6992 23.2662L16.8436 23.4106C14.5639 23.4106 12.2894 23.488 10.0149 23.4931L3.20683 23.5241L3.45955 23.2662L3.41313 29.0376L3.20683 28.8106C4.33119 28.8106 5.45039 28.8106 6.57991 28.8106L9.97362 28.8674L16.8436 29.0376Z" fill="#EBEBEB"/>
<path d="M10.8046 171.558L17.69 171.414L21.0837 171.357C22.2132 171.331 23.3376 171.357 24.4619 171.331L24.2299 171.558L24.2041 165.787L24.4619 166.045L17.6487 166.014C15.3691 166.014 13.0946 165.957 10.82 165.926L10.9593 165.787C10.9593 166.731 10.9129 167.68 10.8922 168.644L10.8046 171.558ZM10.8046 171.558L10.7272 168.706C10.7272 167.741 10.6705 166.767 10.6602 165.787V165.647H10.8046C13.0791 165.622 15.3536 165.565 17.6333 165.56L24.4619 165.529H24.7198V165.787L24.6889 171.558V171.79H24.4619C23.3118 171.79 22.1565 171.79 21.0063 171.759L17.5714 171.702L10.8046 171.558Z" fill="#EBEBEB"/>
<path d="M3.20594 178.835L10.0914 178.691L13.4851 178.634C14.6146 178.608 15.7338 178.634 16.8633 178.608L16.6312 178.835V173.064L16.8891 173.322L10.014 173.296C7.73433 173.296 5.45982 173.239 3.18531 173.208L3.32456 173.069C3.32456 174.013 3.27814 174.962 3.25751 175.927L3.20594 178.835ZM3.20594 178.835L3.12857 175.983C3.12857 175.019 3.07184 174.044 3.06152 173.064V172.925H3.20594C5.48045 172.925 7.75496 172.842 10.0346 172.837L16.8633 172.806H17.1212V173.064L17.0903 178.835V179.068H16.8633C15.708 179.068 14.5579 179.068 13.4077 179.037L9.95211 178.97L3.20594 178.835Z" fill="#EBEBEB"/>
<path d="M207.221 171.563L214.112 171.419L217.506 171.362C218.635 171.362 219.754 171.362 220.879 171.336L220.652 171.563L220.626 165.792L220.879 166.05L214.05 166.019C211.775 166.019 209.501 165.962 207.221 165.936L207.366 165.792C207.366 166.736 207.319 167.69 207.299 168.649L207.221 171.563ZM207.221 171.563L207.149 168.711C207.149 167.747 207.092 166.772 207.082 165.792V165.653H207.221C209.501 165.627 211.775 165.57 214.05 165.57L220.858 165.56H221.121V165.818L221.095 171.589V171.821H220.858C219.708 171.821 218.558 171.821 217.408 171.79L213.973 171.733L207.221 171.563Z" fill="#EBEBEB"/>
<path d="M100.283 163.244L107.055 163.099L110.49 163.043C111.635 163.017 112.791 163.043 113.941 163.012H114.168V163.244V169.015V169.273H113.91L107.081 169.237C104.807 169.237 102.527 169.18 100.252 169.154H100.17V169.015C100.17 168.035 100.211 167.06 100.237 166.096L100.283 163.244ZM100.283 163.244L100.356 166.158C100.356 167.117 100.412 168.071 100.423 169.015L100.283 168.871C102.558 168.845 104.838 168.793 107.112 168.788L113.941 168.757L113.683 169.015L113.714 163.244L113.941 163.471C112.816 163.471 111.692 163.471 110.568 163.445L107.174 163.388L100.283 163.244Z" fill="#EBEBEB"/>
<path d="M107.906 155.966L114.678 155.822L118.113 155.765C119.258 155.74 120.413 155.765 121.564 155.734H121.796V155.966L121.821 161.738V161.996H121.564L114.73 161.949C112.455 161.949 110.181 161.893 107.901 161.867H107.762V161.728C107.762 160.748 107.808 159.773 107.829 158.808L107.906 155.966ZM107.906 155.966L107.978 158.881C108.004 159.84 108.04 160.794 108.051 161.738L107.906 161.593C110.186 161.568 112.46 161.516 114.735 161.511L121.564 161.48L121.306 161.738L121.316 155.966L121.543 156.193C120.419 156.193 119.294 156.193 118.17 156.193L114.776 156.137L107.906 155.966Z" fill="#EBEBEB"/>
<path d="M201.486 0H200.971V39.3217H201.486V0Z" fill="#C7C7C7"/>
<path d="M182.315 57.5539L183.837 60.896H218.625L220.141 57.5539L205.329 47.3005H197.128L182.315 57.5539Z" fill="#EBEBEB"/>
<path d="M196.097 37.4238L197.128 47.3007H205.329L206.36 37.4238H196.097Z" fill="#DBDBDB"/>
<path d="M182.315 57.554L183.837 60.9013H218.625L220.141 57.554H182.315Z" fill="#DBDBDB"/>
<path d="M160.881 0H160.365V28.5371H160.881V0Z" fill="#C7C7C7"/>
<path d="M141.71 46.7641L143.231 50.1114H178.014L179.536 46.7641L164.723 36.5159H156.517L141.71 46.7641Z" fill="#EBEBEB"/>
<path d="M155.49 26.6392L156.517 36.516H164.722L165.749 26.6392H155.49Z" fill="#DBDBDB"/>
<path d="M141.71 46.7693L143.231 50.1114H178.02L179.536 46.7693H141.71Z" fill="#DBDBDB"/>
<path d="M120.192 29.0427H6.71875V104.04H120.192V29.0427Z" fill="#EBEBEB"/>
<path d="M122.956 25.3704H4.01562V29.0426H122.956V25.3704Z" fill="#A6A6A6"/>
<path d="M30.1051 39.3167H12.1875V60.5454H30.1051V39.3167Z" fill="white"/>
<path d="M21.7748 40.7453C21.7748 40.8728 21.7369 40.9974 21.6661 41.1035C21.5953 41.2095 21.4946 41.2921 21.3768 41.3409C21.259 41.3897 21.1293 41.4025 21.0043 41.3776C20.8792 41.3527 20.7643 41.2913 20.6742 41.2012C20.584 41.111 20.5226 40.9961 20.4977 40.8711C20.4729 40.746 20.4856 40.6164 20.5344 40.4986C20.5832 40.3808 20.6659 40.2801 20.7719 40.2092C20.8779 40.1384 21.0025 40.1006 21.1301 40.1006C21.301 40.1006 21.465 40.1685 21.5859 40.2894C21.7068 40.4103 21.7748 40.5743 21.7748 40.7453Z" fill="#455A64"/>
<path d="M15.585 43.5715C17.4004 43.4323 19.1953 43.422 21.0211 43.4013C22.8469 43.3807 24.6314 43.4013 26.4572 43.5715C24.6469 43.7108 22.8469 43.7211 21.0211 43.7366C19.1953 43.7521 17.4108 43.7108 15.585 43.5715Z" fill="#EBEBEB"/>
<path d="M15.585 45.2478C16.5658 45.132 17.5527 45.0751 18.5403 45.0776C19.528 45.0699 20.5152 45.1268 21.4956 45.2478C20.515 45.3662 19.528 45.423 18.5403 45.418C17.5527 45.4204 16.5658 45.3636 15.585 45.2478Z" fill="#EBEBEB"/>
<path d="M15.585 46.9345C16.8434 46.8056 18.1019 46.7746 19.3603 46.7695C20.6188 46.7643 21.8773 46.8056 23.1357 46.9345C21.881 47.0555 20.6209 47.1124 19.3603 47.1047C18.0998 47.1124 16.8397 47.0555 15.585 46.9345Z" fill="#EBEBEB"/>
<path d="M15.585 48.6054C17.1632 48.4713 18.7363 48.4404 20.3093 48.4352C21.8824 48.4301 23.4606 48.4713 25.0337 48.6054C23.4864 48.7344 21.8824 48.7653 20.3093 48.7705C18.7363 48.7756 17.1735 48.7344 15.585 48.6054Z" fill="#EBEBEB"/>
<path d="M15.585 50.2815C16.9569 50.1474 18.3237 50.1164 19.7111 50.1113C21.0985 50.1061 22.4446 50.1474 23.8372 50.2815C22.4652 50.4104 21.0985 50.4413 19.7111 50.4465C18.3237 50.4517 16.9672 50.4104 15.585 50.2815Z" fill="#EBEBEB"/>
<path d="M15.585 51.958C17.3386 51.8188 19.087 51.8085 20.8406 51.7878C22.5942 51.7672 24.3426 51.8188 26.091 51.958C24.3426 52.0973 22.589 52.1076 20.8406 52.1282C19.0921 52.1489 17.3489 52.0921 15.585 51.958Z" fill="#EBEBEB"/>
<path d="M15.585 53.6395C16.7124 53.5229 17.8453 53.4678 18.9787 53.4744C20.1121 53.4677 21.245 53.5228 22.3724 53.6395C21.2453 53.7605 20.1122 53.8173 18.9787 53.8097C17.8451 53.8172 16.7121 53.7603 15.585 53.6395Z" fill="#EBEBEB"/>
<path d="M15.585 55.3154C17.4004 55.1762 19.1953 55.1659 21.0211 55.1452C22.8469 55.1246 24.6314 55.1452 26.4572 55.3154C24.6469 55.4547 22.8469 55.465 21.0211 55.4805C19.1953 55.496 17.4108 55.4547 15.585 55.3154Z" fill="#EBEBEB"/>
<path d="M15.585 56.9917C17.4004 56.8525 19.1953 56.8421 21.0211 56.8215C22.8469 56.8009 24.6314 56.8525 26.4572 56.9917C24.6469 57.131 22.8469 57.1413 21.0211 57.1619C19.1953 57.1826 17.4108 57.131 15.585 56.9917Z" fill="#EBEBEB"/>
<path d="M114.895 57.5591H100.866V74.1821H114.895V57.5591Z" fill="white"/>
<path d="M107.881 59.4879C108.146 59.4879 108.361 59.2731 108.361 59.0082C108.361 58.7433 108.146 58.5286 107.881 58.5286C107.616 58.5286 107.401 58.7433 107.401 59.0082C107.401 59.2731 107.616 59.4879 107.881 59.4879Z" fill="#455A64"/>
<path d="M103.115 62.0875C104.09 61.95 105.08 61.95 106.055 62.0875C105.08 62.232 104.09 62.232 103.115 62.0875Z" fill="#EBEBEB"/>
<path d="M103.115 63.2736C104.38 63.1292 105.657 63.1292 106.922 63.2736C106.29 63.3491 105.654 63.3836 105.018 63.3768C104.382 63.381 103.747 63.3465 103.115 63.2736Z" fill="#EBEBEB"/>
<path d="M103.115 64.4702C104.287 64.326 105.472 64.326 106.643 64.4702C105.471 64.6077 104.287 64.6077 103.115 64.4702Z" fill="#EBEBEB"/>
<path d="M103.115 65.641C104.287 65.5035 105.471 65.5035 106.643 65.641C105.472 65.7852 104.287 65.7852 103.115 65.641Z" fill="#EBEBEB"/>
<path d="M103.115 66.8273C103.628 66.7537 104.145 66.7192 104.663 66.7242C105.18 66.7166 105.698 66.7511 106.21 66.8273C105.194 66.9717 104.162 66.9717 103.146 66.8273H103.115Z" fill="#EBEBEB"/>
<path d="M103.115 68.0136C104.418 67.8692 105.732 67.8692 107.035 68.0136C105.732 68.1511 104.418 68.1511 103.115 68.0136Z" fill="#EBEBEB"/>
<path d="M103.115 69.1998C104.188 69.0555 105.276 69.0555 106.349 69.1998C105.276 69.3374 104.189 69.3374 103.115 69.1998Z" fill="#EBEBEB"/>
<path d="M103.115 70.381C104.465 70.2434 105.825 70.2434 107.174 70.381C105.825 70.5253 104.464 70.5253 103.115 70.381Z" fill="#EBEBEB"/>
<path d="M103.115 71.5671C103.788 71.4942 104.465 71.4597 105.142 71.464C105.821 71.4572 106.5 71.4916 107.174 71.5671C105.825 71.7114 104.464 71.7114 103.115 71.5671Z" fill="#EBEBEB"/>
<path d="M108.907 62.0875C110.19 61.95 111.483 61.95 112.765 62.0875C111.483 62.2319 110.189 62.2319 108.907 62.0875Z" fill="#EBEBEB"/>
<path d="M108.907 63.2736C109.747 63.1292 110.605 63.1292 111.445 63.2736C111.026 63.3489 110.601 63.3835 110.176 63.3768C109.751 63.3809 109.326 63.3464 108.907 63.2736Z" fill="#EBEBEB"/>
<path d="M108.907 64.4702C110.106 64.327 111.318 64.327 112.518 64.4702C111.318 64.6065 110.107 64.6065 108.907 64.4702Z" fill="#EBEBEB"/>
<path d="M108.907 65.641C110.079 65.5035 111.263 65.5035 112.435 65.641C111.264 65.7852 110.079 65.7852 108.907 65.641Z" fill="#EBEBEB"/>
<path d="M108.907 66.8274C109.548 66.7545 110.192 66.72 110.836 66.7242C111.481 66.7174 112.125 66.7519 112.765 66.8274C111.483 66.9718 110.189 66.9718 108.907 66.8274Z" fill="#EBEBEB"/>
<path d="M108.907 68.0136C109.925 67.8692 110.958 67.8692 111.976 68.0136C110.958 68.1511 109.926 68.1511 108.907 68.0136Z" fill="#EBEBEB"/>
<path d="M108.907 69.1997C110.106 69.0565 111.318 69.0565 112.518 69.1997C111.318 69.336 110.107 69.336 108.907 69.1997Z" fill="#EBEBEB"/>
<path d="M108.907 70.381C109.837 70.2435 110.783 70.2435 111.713 70.381C111.249 70.4557 110.78 70.4919 110.31 70.4893C109.84 70.4915 109.371 70.4553 108.907 70.381Z" fill="#EBEBEB"/>
<path d="M108.907 71.5671C109.352 71.4943 109.803 71.4598 110.253 71.464C110.704 71.4573 111.155 71.4918 111.6 71.5671C110.708 71.7116 109.799 71.7116 108.907 71.5671Z" fill="#EBEBEB"/>
<path d="M37.6339 52.4014H26.8545V63.1808H37.6339V52.4014Z" fill="#C7C7C7"/>
<path d="M32.889 53.4948C32.889 53.6223 32.8512 53.747 32.7804 53.853C32.7095 53.959 32.6088 54.0416 32.491 54.0904C32.3732 54.1392 32.2436 54.152 32.1185 54.1271C31.9935 54.1022 31.8786 54.0408 31.7884 53.9507C31.6983 53.8605 31.6369 53.7456 31.612 53.6206C31.5871 53.4955 31.5999 53.3659 31.6487 53.2481C31.6975 53.1303 31.7801 53.0296 31.8861 52.9587C31.9922 52.8879 32.1168 52.8501 32.2443 52.8501C32.329 52.8501 32.4128 52.8668 32.491 52.8992C32.5692 52.9316 32.6403 52.9791 32.7002 53.0389C32.7601 53.0988 32.8075 53.1699 32.8399 53.2481C32.8723 53.3263 32.889 53.4101 32.889 53.4948Z" fill="#455A64"/>
<path d="M120.192 29.0427H6.71875V33.8135H120.192V29.0427Z" fill="#DBDBDB"/>
<path d="M42.6826 39.7241L60.8787 39.688L79.0748 39.7241L60.8787 39.7654L42.6826 39.7241Z" fill="#C7C7C7"/>
<path d="M42.6826 41.2094L60.8787 41.1733L79.0748 41.2094L60.8787 41.2507L42.6826 41.2094Z" fill="#C7C7C7"/>
<path d="M42.6826 42.6948L60.8787 42.6536L79.0748 42.6948L60.8787 42.7309L42.6826 42.6948Z" fill="#C7C7C7"/>
<path d="M42.6826 44.1802L60.8787 44.1389L79.0748 44.1802L60.8787 44.2163L42.6826 44.1802Z" fill="#C7C7C7"/>
<path d="M42.6826 45.6604L60.8787 45.6243L79.0748 45.6604L60.8787 45.7016L42.6826 45.6604Z" fill="#C7C7C7"/>
<path d="M42.6826 47.1458L60.8787 47.1045L79.0748 47.1458L60.8787 47.187L42.6826 47.1458Z" fill="#C7C7C7"/>
<path d="M42.6826 48.6313L60.8787 48.5901L79.0748 48.6313L60.8787 48.6675L42.6826 48.6313Z" fill="#C7C7C7"/>
<path d="M42.6826 50.1113L60.8787 50.0752L79.0748 50.1113L60.8787 50.1526L42.6826 50.1113Z" fill="#C7C7C7"/>
<path d="M42.6826 51.5969L60.8787 51.5608L79.0748 51.5969L60.8787 51.6382L42.6826 51.5969Z" fill="#C7C7C7"/>
<path d="M42.6826 53.0825L60.8787 53.0413L79.0748 53.0825L60.8787 53.1238L42.6826 53.0825Z" fill="#C7C7C7"/>
<path d="M42.6826 54.5676L60.8787 54.5264L79.0748 54.5676L60.8787 54.6037L42.6826 54.5676Z" fill="#C7C7C7"/>
<path d="M42.6826 56.0478L60.8787 56.0117L79.0748 56.0478L60.8787 56.0891L42.6826 56.0478Z" fill="#C7C7C7"/>
<path d="M42.6826 57.5334L60.8787 57.4922L79.0748 57.5334L60.8787 57.5747L42.6826 57.5334Z" fill="#C7C7C7"/>
<path d="M42.6826 59.0188L60.8787 58.9775L79.0748 59.0188L60.8787 59.0549L42.6826 59.0188Z" fill="#C7C7C7"/>
<path d="M42.6826 60.5041L60.8787 60.4629L79.0748 60.5041L60.8787 60.5403L42.6826 60.5041Z" fill="#C7C7C7"/>
<path d="M49.2896 50.1113H46.5303V62.2317H49.2896V50.1113Z" fill="#C7C7C7"/>
<path d="M54.4068 44.9897H51.6475V62.2317H54.4068V44.9897Z" fill="white"/>
<path d="M59.5279 42.6584H56.7686V62.2316H59.5279V42.6584Z" fill="#C7C7C7"/>
<path d="M64.649 45.6965H61.8896V62.2319H64.649V45.6965Z" fill="white"/>
<path d="M69.7662 46.5991H67.0068V62.2319H69.7662V46.5991Z" fill="#C7C7C7"/>
<path d="M74.8873 55.4548H72.1279V62.232H74.8873V55.4548Z" fill="white"/>
<path d="M43.6679 38.6821L43.7297 44.5721L43.771 50.457C43.802 54.3819 43.8071 58.3069 43.8123 62.2318L43.6679 62.0874H52.5183H61.3688L70.2244 62.1338L79.0749 62.2215L70.2244 62.3092L61.3688 62.3556H52.5183H43.5234V62.2112C43.5234 58.288 43.5372 54.363 43.5647 50.4363L43.606 44.5515L43.6679 38.6821Z" fill="#C7C7C7"/>
<path d="M49.2896 63.4749H46.5303V63.7224H49.2896V63.4749Z" fill="#C7C7C7"/>
<path d="M54.4068 63.4749H51.6475V63.7224H54.4068V63.4749Z" fill="#C7C7C7"/>
<path d="M59.5279 63.4749H56.7686V63.7224H59.5279V63.4749Z" fill="#C7C7C7"/>
<path d="M64.649 63.4749H61.8896V63.7224H64.649V63.4749Z" fill="#C7C7C7"/>
<path d="M69.7662 63.4749H67.0068V63.7224H69.7662V63.4749Z" fill="#C7C7C7"/>
<path d="M74.8873 63.4749H72.1279V63.7224H74.8873V63.4749Z" fill="#C7C7C7"/>
<path d="M27.8857 94.6064H16.9258V95.5503H27.8857V94.6064Z" fill="#C7C7C7"/>
<path d="M31.7282 96.5767H16.9258V97.5205H31.7282V96.5767Z" fill="#C7C7C7"/>
<path d="M24.7808 98.5415H16.9258V99.4853H24.7808V98.5415Z" fill="#C7C7C7"/>
<path d="M14.4811 94.6064H12.1963V96.8913H14.4811V94.6064Z" fill="#C7C7C7"/>
<path d="M98.6435 39.6829H87.6836V40.6267H98.6435V39.6829Z" fill="#C7C7C7"/>
<path d="M102.486 41.6479H87.6836V42.5918H102.486V41.6479Z" fill="#C7C7C7"/>
<path d="M95.5387 43.613H87.6836V44.5569H95.5387V43.613Z" fill="#C7C7C7"/>
<path d="M85.2389 39.6829H82.9541V41.9677H85.2389V39.6829Z" fill="#C7C7C7"/>
<path d="M100.707 47.2903H87.6836V48.2341H100.707V47.2903Z" fill="#C7C7C7"/>
<path d="M97.9885 49.2554H87.6836V50.1992H97.9885V49.2554Z" fill="#C7C7C7"/>
<path d="M102.486 51.2202H87.6836V52.1641H102.486V51.2202Z" fill="#C7C7C7"/>
<path d="M85.2389 47.2903H82.9541V49.5751H85.2389V47.2903Z" fill="white"/>
<path d="M61.2984 70.4736H12.1875V91.9551H61.2984V70.4736Z" fill="#DBDBDB"/>
<path d="M58.6873 73.1814H14.7959V75.0381H58.6873V73.1814Z" fill="white"/>
<path d="M37.2367 73.1814H14.7959V75.0381H37.2367V73.1814Z" fill="#C7C7C7"/>
<path d="M58.6873 76.7351H14.7959V78.5919H58.6873V76.7351Z" fill="white"/>
<path d="M55.0563 76.7351H14.7959V78.5919H55.0563V76.7351Z" fill="#C7C7C7"/>
<path d="M58.6873 80.2837H14.7959V82.1404H58.6873V80.2837Z" fill="white"/>
<path d="M27.7828 80.2837H14.7959V82.1404H27.7828V80.2837Z" fill="#C7C7C7"/>
<path d="M58.6873 83.8372H14.7959V85.6939H58.6873V83.8372Z" fill="white"/>
<path d="M49.2901 83.8372H14.7959V85.6939H49.2901V83.8372Z" fill="#C7C7C7"/>
<path d="M58.6873 87.3855H14.7959V89.2422H58.6873V87.3855Z" fill="white"/>
<path d="M40.1559 87.3855H14.7959V89.2422H40.1559V87.3855Z" fill="#C7C7C7"/>
<path d="M93.124 82.1763C92.9704 84.2313 92.3133 86.217 91.2105 87.958L87.9922 86.1012C88.7628 84.9218 89.2435 83.5769 89.3951 82.1763H93.124Z" fill="#A6A6A6"/>
<path d="M93.1615 81.2119C93.1615 81.346 93.1615 81.4801 93.1615 81.6142H89.448C89.448 81.4801 89.448 81.346 89.448 81.2119C89.4449 79.7328 89.0753 78.2775 88.3724 76.9761C87.6695 75.6747 86.6551 74.5677 85.4199 73.754L87.2767 70.5356C89.0771 71.6759 90.5604 73.2523 91.5892 75.1186C92.6179 76.9849 93.1587 79.0808 93.1615 81.2119Z" fill="#A6A6A6"/>
<path d="M86.796 70.2208L84.9393 73.4444C83.6722 72.7146 82.2438 72.3106 80.7822 72.2684V68.5549C82.8953 68.5937 84.9642 69.1668 86.796 70.2208Z" fill="#A6A6A6"/>
<path d="M80.2208 68.5549V72.2684C78.7106 72.3142 77.2367 72.7422 75.9369 73.5125C74.6371 74.2828 73.5539 75.3702 72.7887 76.673L69.5703 74.8214C70.6602 72.9521 72.2119 71.3941 74.0769 70.2968C75.9419 69.1995 78.0574 68.5997 80.2208 68.5549Z" fill="#C7C7C7"/>
<path d="M72.5198 77.1683C71.9062 78.3721 71.578 79.701 71.5604 81.052H67.8418C67.8604 79.0458 68.361 77.0735 69.3014 75.3013L72.5198 77.1683Z" fill="#A6A6A6"/>
<path d="M75.517 88.6389L73.6551 91.8624C71.9273 90.7546 70.4955 89.2424 69.4836 87.4568C68.4717 85.6711 67.9102 83.6658 67.8477 81.6143H71.5663C71.6263 83.0133 72.0153 84.3785 72.7017 85.599C73.3882 86.8195 74.3527 87.861 75.517 88.6389Z" fill="#A6A6A6"/>
<path d="M90.8863 88.4276C89.0751 91.0457 86.3425 92.8836 83.2348 93.574C80.1271 94.2644 76.8733 93.7563 74.124 92.1514L75.9808 88.9382C77.8802 90.0453 80.1206 90.4148 82.275 89.9763C84.4294 89.5378 86.3471 88.322 87.6628 86.5605L90.8863 88.4276Z" fill="#DBDBDB"/>
<path d="M87.1162 81.6143C87.1164 82.7659 86.7776 83.8921 86.142 84.8524C85.5064 85.8127 84.6021 86.5646 83.5419 87.0143L81.252 81.6143H87.1162Z" fill="#C7C7C7"/>
<path d="M80.4988 81.2118L82.7939 86.6118C82.6134 86.684 82.4329 86.7511 82.2782 86.8078C81.1717 87.1497 79.9888 87.156 78.8787 86.826C77.7687 86.4959 76.7814 85.8443 76.0414 84.9535C75.3015 84.0627 74.8421 82.9725 74.7214 81.8208C74.6006 80.669 74.8239 79.5073 75.363 78.4824C75.9021 77.4575 76.7328 76.6153 77.7503 76.0622C78.7677 75.5091 79.9263 75.27 81.0796 75.375C82.2329 75.4799 83.3292 75.9243 84.2301 76.652C85.131 77.3796 85.796 78.358 86.1412 79.4634C86.3133 80.0286 86.4019 80.6159 86.4042 81.2067L80.4988 81.2118Z" fill="#C7C7C7"/>
<path d="M80.4986 81.2118L82.7938 86.6118C82.6133 86.684 82.4328 86.7511 82.278 86.8078C81.3989 87.0845 80.4669 87.1503 79.5576 86.9998C78.6483 86.8494 77.7872 86.4869 77.0441 85.9417C76.3009 85.3965 75.6966 84.684 75.2801 83.8618C74.8635 83.0396 74.6465 82.1309 74.6465 81.2092C74.6465 80.2875 74.8635 79.3788 75.2801 78.5566C75.6966 77.7345 76.3009 77.0219 77.0441 76.4768C77.7872 75.9316 78.6483 75.5691 79.5576 75.4186C80.4669 75.2681 81.3989 75.3339 82.278 75.6106C83.1821 75.899 84.0042 76.3991 84.6761 77.0692C85.348 77.7393 85.8502 78.5601 86.1411 79.4634C86.3132 80.0285 86.4018 80.6158 86.4041 81.2066L80.4986 81.2118Z" fill="#DBDBDB"/>
<path d="M80.5039 81.2118L76.6821 85.6577C75.9363 85.0169 75.3637 84.199 75.0168 83.279C74.6699 82.359 74.5599 81.3666 74.6968 80.393C74.8338 79.4194 75.2134 78.4958 75.8006 77.7072C76.3879 76.9187 77.164 76.2905 78.0576 75.8803C78.9512 75.4702 79.9335 75.2913 80.9143 75.3601C81.8951 75.4289 82.8428 75.7432 83.6704 76.2741C84.4979 76.805 85.1787 77.5355 85.6501 78.3983C86.1215 79.2611 86.3684 80.2286 86.3681 81.2118H80.5039Z" fill="#A6A6A6"/>
<path d="M97.3024 95.1993H89.1276L78.998 85.0749L79.1476 84.9253L89.2101 94.9878H97.3024V95.1993Z" fill="#263238"/>
<path d="M79.6428 84.4302H78.5029V85.57H79.6428V84.4302Z" fill="#263238"/>
<path d="M97.3032 87.365H88.0866L83.7129 82.9914L83.8625 82.8418L88.1742 87.1587H97.3032V87.365Z" fill="#263238"/>
<path d="M84.3566 82.3464H83.2168V83.4863H84.3566V82.3464Z" fill="#263238"/>
<path d="M97.3018 79.613H83.3711V79.8245H97.3018V79.613Z" fill="#263238"/>
<path d="M83.7893 79.1487H82.6494V80.2885H83.7893V79.1487Z" fill="#263238"/>
<path d="M111.847 78.5764H100.887V79.5203H111.847V78.5764Z" fill="#DBDBDB"/>
<path d="M115.689 80.5413H100.887V81.4851H115.689V80.5413Z" fill="#DBDBDB"/>
<path d="M108.742 82.5066H100.887V83.4504H108.742V82.5066Z" fill="#DBDBDB"/>
<path d="M98.442 78.5764H96.1572V80.8612H98.442V78.5764Z" fill="#C7C7C7"/>
<path d="M113.91 86.1841H100.887V87.1279H113.91V86.1841Z" fill="#DBDBDB"/>
<path d="M111.192 88.1487H100.887V89.0925H111.192V88.1487Z" fill="#DBDBDB"/>
<path d="M115.689 90.114H100.887V91.0579H115.689V90.114Z" fill="#DBDBDB"/>
<path d="M98.442 86.1841H96.1572V88.4689H98.442V86.1841Z" fill="#A6A6A6"/>
<path d="M113.91 93.7915H100.887V94.7353H113.91V93.7915Z" fill="#DBDBDB"/>
<path d="M111.192 95.7563H100.887V96.7002H111.192V95.7563Z" fill="#DBDBDB"/>
<path d="M115.689 97.7214H100.887V98.6653H115.689V97.7214Z" fill="#DBDBDB"/>
<path d="M98.442 93.7915H96.1572V96.0763H98.442V93.7915Z" fill="#C7C7C7"/>
<path d="M112.034 237.183C142.541 237.183 167.272 233.242 167.272 228.379C167.272 223.517 142.541 219.575 112.034 219.575C81.5268 219.575 56.7959 223.517 56.7959 228.379C56.7959 233.242 81.5268 237.183 112.034 237.183Z" fill="#EBEBEB"/>
<path d="M0 210.451L28.0059 210.328L56.0169 210.281L112.034 210.199L168.051 210.281L196.062 210.328L224.068 210.451L196.062 210.58L168.051 210.627L112.034 210.709L56.0169 210.627L28.0059 210.58L0 210.451Z" fill="#263238"/>
<path d="M102.735 154.914L101.43 162.733L92.5895 210.452H91.166L97.5924 162.733L98.5414 154.914H102.735Z" fill="#DBDBDB"/>
<path d="M98.5418 154.914H102.735L101.43 162.733H97.5928L98.5418 154.914Z" fill="#C7C7C7"/>
<path d="M130.482 210.452H129.059L120.219 162.733L118.919 154.914H123.107L124.056 162.733L130.482 210.452Z" fill="#DBDBDB"/>
<path d="M123.107 154.914L124.056 162.733H120.219L118.919 154.914H123.107Z" fill="#C7C7C7"/>
<path d="M156.987 210.452H155.564L146.724 162.733L145.419 154.914H149.612L150.561 162.733L156.987 210.452Z" fill="#DBDBDB"/>
<path d="M150.561 162.733H146.724L145.419 154.914H149.612L150.561 162.733Z" fill="#C7C7C7"/>
<path d="M154.729 158.587H89.9805V153.336L114.216 151.763L122.365 104.777H152.259L154.729 158.587Z" fill="#DBDBDB"/>
<path d="M154.729 158.587H151.196L148.896 104.777H152.258L154.729 158.587Z" fill="#C7C7C7"/>
<path d="M204.03 131.23H160.938V210.4H204.03V131.23Z" fill="#455A64"/>
<path d="M204.03 131.23H160.938V136.393H204.03V131.23Z" fill="#263238"/>
<path d="M222.531 127.068H47.9971V131.236H222.531V127.068Z" fill="#455A64"/>
<path d="M57.1887 131.23L57.0494 136.393L55.2339 210.4H51.9434V131.23H57.1887Z" fill="#455A64"/>
<path d="M51.9434 131.23H57.1887L57.0494 136.393H51.9434V131.23Z" fill="#263238"/>
<path d="M218.631 131.23H204.03V210.4H218.631V131.23Z" fill="#37474F"/>
<path d="M218.631 131.23H204.03V136.393H218.631V131.23Z" fill="#263238"/>
<path d="M204.913 120.606H172.167V127.068H204.913V120.606Z" fill="#F66D1D"/>
<path d="M177.402 120.606H174.204V127.068H177.402V120.606Z" fill="#37474F"/>
<path d="M179.93 120.606H178.594V127.068H179.93V120.606Z" fill="#37474F"/>
<path d="M201.061 120.606H197.863V127.068H201.061V120.606Z" fill="#37474F"/>
<path d="M192.977 115.783H170.263V120.606H192.977V115.783Z" fill="#455A64"/>
<path d="M202.777 115.783H192.978V120.606H202.777V115.783Z" fill="#455A64"/>
<path d="M192.977 116.284H170.263V120.106H192.977V116.284Z" fill="white"/>
<path d="M171.733 117.078C173.508 117.032 175.277 116.996 177.046 116.98L182.358 116.949H187.67C189.44 116.949 191.209 117.001 192.978 117.052C191.209 117.099 189.44 117.135 187.67 117.15L182.358 117.181L177.046 117.15C175.278 117.143 173.508 117.119 171.733 117.078Z" fill="#DBDBDB"/>
<path d="M171.733 117.821C173.508 117.774 175.277 117.738 177.046 117.723L182.358 117.692L187.67 117.723C189.44 117.723 191.209 117.774 192.978 117.821C191.209 117.867 189.44 117.903 187.67 117.919L182.358 117.95L177.046 117.919C175.277 117.903 173.508 117.867 171.733 117.821Z" fill="#DBDBDB"/>
<path d="M171.733 118.569C173.508 118.524 175.278 118.491 177.046 118.471L182.358 118.44L187.67 118.471C189.44 118.471 191.209 118.522 192.978 118.569C191.209 118.62 189.44 118.651 187.67 118.672H182.358L177.046 118.641C175.277 118.651 173.508 118.625 171.733 118.569Z" fill="#DBDBDB"/>
<path d="M171.733 119.322C173.508 119.27 175.278 119.237 177.046 119.224L182.358 119.193L187.67 119.218C189.44 119.218 191.209 119.27 192.978 119.322C191.209 119.368 189.44 119.404 187.67 119.42L182.358 119.451L177.046 119.42C175.278 119.399 173.508 119.366 171.733 119.322Z" fill="#DBDBDB"/>
<path d="M198.09 110.502H175.36V115.784H198.09V110.502Z" fill="#37474F"/>
<path d="M195.681 110.502H193.562V115.784H195.681V110.502Z" fill="#F66D1D"/>
<path d="M192.169 110.502H191.349V115.784H192.169V110.502Z" fill="#F66D1D"/>
<path d="M24.9532 121.452C24.9532 121.452 12.4614 119.703 15.3806 104.623C15.3806 104.623 29.3371 107.758 24.9532 121.452Z" fill="#F66D1D"/>
<path opacity="0.1" d="M24.9532 121.452C24.9532 121.452 12.4614 119.703 15.3806 104.623C15.3806 104.623 29.3371 107.758 24.9532 121.452Z" fill="black"/>
<path d="M24.3233 118.305C24.0758 117.542 23.8076 116.794 23.4723 116.057C23.4723 115.959 23.4465 115.866 23.4362 115.773C23.4362 115.561 23.4001 115.355 23.3846 115.149C23.3537 114.7 23.3227 114.246 23.297 113.798C23.2454 112.895 23.1835 111.998 23.1732 111.095C23.1732 111.043 23.0958 111.049 23.0958 111.095C23.0958 111.998 23.0958 112.9 23.0958 113.803C23.0958 114.251 23.1371 114.705 23.168 115.154C23.168 115.252 23.168 115.355 23.168 115.453C22.4691 113.95 21.6298 112.517 20.6614 111.172C20.2378 110.57 19.7815 109.992 19.2946 109.439C18.7789 108.867 18.2631 108.325 17.7474 107.763C17.7164 107.727 17.6597 107.763 17.6958 107.815C18.5911 108.81 19.3971 109.881 20.1044 111.018C20.4809 111.59 20.8419 112.183 21.1823 112.781L21.0689 112.735L20.6202 112.555L19.5886 112.168C18.9233 111.92 18.2477 111.678 17.5823 111.42C17.5411 111.42 17.5153 111.477 17.5514 111.492C18.2167 111.755 18.8769 112.039 19.5319 112.322L20.5015 112.735C20.6614 112.807 20.8265 112.874 20.9863 112.936C21.0907 112.99 21.2017 113.03 21.3164 113.055C21.5692 113.509 21.8322 113.963 22.0488 114.422C22.636 115.593 23.1527 116.799 23.5961 118.032L23.6889 118.295C23.36 118.095 23.015 117.922 22.6574 117.779C22.2293 117.578 21.7961 117.387 21.3629 117.191C20.4912 116.789 19.6196 116.376 18.784 115.902C18.7428 115.902 18.7067 115.948 18.7479 115.969C19.6041 116.438 20.4448 116.939 21.3267 117.408C21.7548 117.64 22.1881 117.867 22.6316 118.078C22.9953 118.294 23.3903 118.453 23.8024 118.548C24.2192 119.691 24.4946 120.881 24.6225 122.091C24.7617 123.798 24.7463 125.516 24.7875 127.249C24.7875 127.274 24.8288 127.274 24.8288 127.249C24.9577 125.701 25.0248 124.154 25.0299 122.581C25.0268 121.127 24.7881 119.683 24.3233 118.305Z" fill="#263238"/>
<path d="M22.4002 109.434C22.28 110.316 22.2368 111.207 22.2712 112.096H22.3125C22.3641 111.214 22.3692 110.332 22.4724 109.455C22.4775 109.403 22.4053 109.388 22.4002 109.434Z" fill="#263238"/>
<path d="M18.8255 110.192C18.2684 109.977 17.7316 109.713 17.2214 109.403C17.1802 109.372 17.1389 109.439 17.1802 109.47C17.6811 109.806 18.2285 110.067 18.8048 110.244C18.8358 110.249 18.8564 110.203 18.8255 110.192Z" fill="#263238"/>
<path d="M25.3496 145.393C25.3496 144.016 25.3135 142.634 25.298 141.267C25.298 136.682 25.2361 132.102 25.1536 127.517C25.0882 123.876 25.004 120.236 24.9008 116.598C24.8953 116.583 24.8843 116.57 24.8699 116.562C24.8699 115.567 24.8699 114.576 24.8699 113.581C24.8699 113.581 24.8699 113.545 24.8132 113.545C24.7564 113.545 24.7513 113.545 24.7513 113.581V116.567C24.7426 116.572 24.7351 116.578 24.7297 116.586C24.7243 116.595 24.721 116.604 24.7203 116.614C24.5398 123.087 24.3748 129.57 24.3335 136.048C24.3335 137.363 24.3335 138.683 24.3335 139.998C24.2854 144.221 24.2682 148.445 24.2819 152.671C24.2819 153.341 24.2819 154.017 24.2819 154.687C24.2819 158.55 24.3232 162.424 24.3283 166.282C24.3283 166.488 24.5553 166.591 24.8028 166.601C25.0504 166.612 25.3805 166.503 25.3805 166.266C25.3805 162.001 25.4114 157.741 25.4114 153.48C25.3857 150.767 25.3857 148.08 25.3496 145.393Z" fill="#263238"/>
<path d="M20.1357 141.2C20.1357 141.2 14.1271 136.749 8.42277 139.756C2.71844 142.763 1.82617 154.362 1.82617 154.362C1.82617 154.362 10.2021 155.559 15.4732 150.541C20.5535 145.703 20.1357 141.2 20.1357 141.2Z" fill="#F66D1D"/>
<path d="M21.7761 141.473C20.6707 141.038 19.4748 140.882 18.2947 141.02C18.0524 140.98 17.8077 140.956 17.5623 140.947L16.7113 140.885C16.1285 140.839 15.5457 140.808 14.9629 140.762C13.7766 140.674 12.5852 140.602 11.4041 140.483C11.3629 140.483 11.3526 140.55 11.4041 140.555C12.5749 140.705 13.7405 140.875 14.9165 140.994C15.5199 141.056 16.1234 141.118 16.732 141.159L17.1703 141.2C16.9898 141.241 16.8145 141.283 16.6546 141.334C15.7118 141.609 14.7994 141.979 13.9314 142.438C13.4569 142.526 12.9875 142.66 12.5233 142.768C11.7755 142.943 11.0379 143.134 10.3004 143.33C8.84079 143.712 7.39666 144.14 5.94736 144.563C5.90095 144.563 5.94736 144.645 5.94736 144.635C7.39666 144.279 8.8511 143.954 10.3004 143.604C11.007 143.438 11.7084 143.273 12.415 143.088L12.9669 142.959C11.3517 143.957 9.90943 145.211 8.69638 146.672C7.52294 148.109 6.52559 149.682 5.72559 151.355C5.72559 151.397 5.76685 151.438 5.79263 151.397C6.78408 149.674 7.99794 148.089 9.40297 146.683L9.32561 146.92L8.95941 148.024C8.73764 148.73 8.5107 149.437 8.29924 150.149C8.29924 150.195 8.36113 150.21 8.3766 150.149C8.62933 149.463 8.86658 148.771 9.10898 148.085C9.22761 147.75 9.34624 147.41 9.47002 147.054L9.64538 146.538L9.70727 146.378C10.3758 145.726 11.0875 145.12 11.8374 144.563C12.828 143.835 13.8972 143.221 15.0248 142.732C15.0248 142.835 14.9887 142.943 14.968 143.041C14.9062 143.315 14.8443 143.588 14.7875 143.861C14.6689 144.434 14.5606 145.001 14.4523 145.574C14.2253 146.734 14.0809 147.91 13.8643 149.076C13.8672 149.084 13.8725 149.09 13.8794 149.095C13.8864 149.1 13.8946 149.103 13.903 149.103C13.9114 149.103 13.9196 149.1 13.9266 149.095C13.9335 149.09 13.9387 149.084 13.9417 149.076C14.2099 147.905 14.5554 146.755 14.8185 145.579C14.9474 144.996 15.0815 144.408 15.2001 143.82L15.3703 142.995C15.4013 142.845 15.4322 142.691 15.4529 142.536L15.7778 142.402C17.356 141.819 19.0993 141.396 20.7807 141.716C21.5739 141.866 22.3181 142.209 22.9477 142.714C23.5772 143.22 24.0729 143.872 24.391 144.614C24.4426 144.749 24.6489 144.666 24.618 144.532C24.416 143.836 24.0538 143.196 23.5603 142.665C23.0668 142.134 22.4557 141.726 21.7761 141.473Z" fill="#263238"/>
<path d="M12.5742 146.43L12.0584 148.71C11.8706 149.441 11.731 150.183 11.6406 150.932C11.6406 150.963 11.6819 150.963 11.6922 150.932C11.9134 150.199 12.0857 149.451 12.208 148.694C12.3575 147.946 12.5071 147.193 12.6515 146.44C12.6522 146.435 12.6519 146.43 12.6505 146.425C12.6492 146.42 12.647 146.415 12.6438 146.411C12.6407 146.407 12.6368 146.404 12.6324 146.401C12.628 146.399 12.6231 146.397 12.618 146.396C12.6129 146.396 12.6078 146.396 12.6028 146.397C12.5978 146.399 12.5932 146.401 12.5891 146.404C12.5851 146.407 12.5816 146.411 12.5791 146.415C12.5765 146.42 12.5748 146.425 12.5742 146.43Z" fill="#263238"/>
<path d="M6.76278 148.364C5.99945 148.751 5.25675 149.195 4.45732 149.509C4.45085 149.51 4.44461 149.512 4.43912 149.515C4.43363 149.519 4.42903 149.524 4.42571 149.529C4.42239 149.535 4.42044 149.541 4.42001 149.548C4.41958 149.554 4.4207 149.56 4.42326 149.566C4.42582 149.572 4.42976 149.578 4.43475 149.582C4.43974 149.586 4.44564 149.589 4.45198 149.59C4.45832 149.592 4.46491 149.592 4.47121 149.59C4.47752 149.589 4.48336 149.586 4.48827 149.581C5.27302 149.223 6.03905 148.826 6.78341 148.39C6.78341 148.39 6.78341 148.354 6.76278 148.364Z" fill="#263238"/>
<path d="M21.4869 133.025C21.4869 133.025 14.1424 133.495 10.7229 128.652C7.30339 123.809 8.07703 116.892 8.07703 116.892C8.07703 116.892 15.8135 117.831 18.8513 121.307C21.8891 124.783 21.4869 133.025 21.4869 133.025Z" fill="#F66D1D"/>
<path d="M24.9326 140.287C24.6799 139.498 24.3653 138.74 24.0661 137.951C23.767 137.162 23.4782 136.481 23.1532 135.754C22.4968 134.273 21.7616 132.828 20.9509 131.426C20.4352 130.534 19.8782 129.668 19.3057 128.811C19.3057 128.682 19.2696 128.554 19.2489 128.425C19.2128 128.192 19.1819 127.966 19.1458 127.739C19.0736 127.274 18.991 126.81 18.9137 126.346C18.7435 125.315 18.5372 124.324 18.3979 123.313C18.3979 123.262 18.3102 123.262 18.3206 123.313C18.4701 124.314 18.5681 125.325 18.7074 126.325C18.7796 126.841 18.8415 127.311 18.9188 127.806C18.9188 127.981 18.9704 128.162 19.0014 128.321C17.8864 126.684 16.6811 125.11 15.391 123.607C15.2157 123.406 15.0352 123.21 14.8753 123.009C14.8574 122.951 14.835 122.894 14.8082 122.839L14.6483 122.421C14.54 122.127 14.4369 121.838 14.3337 121.544C14.1274 120.972 13.9417 120.389 13.787 119.796C13.787 119.749 13.6993 119.796 13.7096 119.796C13.8592 120.399 14.0191 120.998 14.1945 121.596C14.277 121.88 14.375 122.163 14.473 122.447L14.5245 122.591C13.5859 121.56 12.6059 120.58 11.6208 119.605C11.5847 119.569 11.5331 119.605 11.5641 119.662C13.4636 121.647 15.2037 123.778 16.7681 126.037C16.5989 125.981 16.4267 125.934 16.2524 125.897C15.685 125.789 15.1177 125.707 14.5452 125.634C13.3486 125.485 12.1572 125.33 10.9658 125.144C10.961 125.144 10.9564 125.145 10.952 125.147C10.9476 125.149 10.9436 125.152 10.9403 125.155C10.9369 125.158 10.9342 125.162 10.9324 125.167C10.9306 125.171 10.9297 125.176 10.9297 125.18C10.9297 125.185 10.9306 125.19 10.9324 125.194C10.9342 125.199 10.9369 125.203 10.9403 125.206C10.9436 125.209 10.9476 125.212 10.952 125.214C10.9564 125.216 10.961 125.217 10.9658 125.217C12.1056 125.443 13.23 125.696 14.3647 125.959C14.8804 126.083 15.4323 126.186 15.9687 126.289C16.4063 126.384 16.8371 126.508 17.2581 126.661C17.3767 126.826 17.5005 126.996 17.614 127.176C18.1555 127.96 18.6713 128.76 19.1613 129.57L18.3154 129.456C17.7481 129.348 17.1807 129.245 16.6082 129.152C15.489 128.966 14.3698 128.77 13.2609 128.523C13.2145 128.523 13.1939 128.584 13.2609 128.595C14.3853 128.858 15.4993 129.167 16.6134 129.461C17.1291 129.606 17.6913 129.735 18.238 129.858L19.0529 130.034C19.1607 130.064 19.2714 130.083 19.383 130.09C20.4558 131.83 21.4598 133.61 22.3951 135.429C22.8042 136.226 23.1997 137.033 23.5813 137.848C23.9733 138.678 24.3086 139.529 24.6747 140.375C24.7263 140.524 24.9945 140.457 24.9326 140.287Z" fill="#263238"/>
<path d="M17.418 123.391C17.2736 122.695 17.1292 121.993 16.9745 121.297C16.9745 121.25 16.8919 121.271 16.9023 121.297C17.0415 121.988 17.1705 122.674 17.2942 123.36C17.418 124.046 17.5212 124.747 17.712 125.423C17.6594 124.74 17.5612 124.061 17.418 123.391Z" fill="#263238"/>
<path d="M13.1321 123.19C12.7875 123.024 12.4346 122.876 12.0748 122.746L11.5178 122.524L11.2341 122.411C11.1251 122.381 11.0208 122.336 10.9247 122.277C10.8679 122.235 10.837 122.333 10.8886 122.339C10.9975 122.371 11.1029 122.414 11.2032 122.468L11.4817 122.591L11.9975 122.834C12.3505 122.996 12.712 123.139 13.0806 123.262C13.0901 123.269 13.102 123.271 13.1136 123.269C13.1253 123.268 13.1356 123.261 13.1425 123.252C13.1493 123.242 13.152 123.23 13.1501 123.218C13.1482 123.207 13.1417 123.196 13.1321 123.19Z" fill="#263238"/>
<path d="M28.9961 127.249C28.9961 127.249 33.442 118.95 40.2036 117.661C46.9652 116.372 51.1017 123.334 51.1017 123.334C51.1017 123.334 46.171 129.632 39.9664 130.73C33.7617 131.829 28.9961 127.249 28.9961 127.249Z" fill="#F66D1D"/>
<path d="M44.743 121.385C42.9804 121.147 41.1925 121.168 39.4358 121.447L39.7401 121.287L41.241 120.513C42.2725 119.997 43.3298 119.399 44.4129 118.966C44.4173 118.964 44.4213 118.961 44.4246 118.957C44.4279 118.954 44.4304 118.95 44.4321 118.945C44.4338 118.94 44.4346 118.936 44.4344 118.931C44.4342 118.926 44.433 118.921 44.431 118.917C44.429 118.912 44.4261 118.908 44.4225 118.905C44.419 118.902 44.4148 118.899 44.4102 118.898C44.4057 118.896 44.4008 118.895 44.396 118.895C44.3912 118.895 44.3864 118.897 44.382 118.899C43.3505 119.389 42.2313 119.801 41.1688 120.291C40.653 120.534 40.1373 120.807 39.6215 121.065C39.2863 121.24 38.9149 121.405 38.59 121.617C37.1053 121.917 35.6626 122.397 34.2937 123.045L35.1395 122.127C35.7688 121.436 36.3877 120.709 37.0788 120.064C37.1149 120.028 37.0788 119.977 37.0221 120.008C36.3155 120.652 35.5676 121.245 34.8817 121.916C34.5378 122.239 34.218 122.583 33.9223 122.947C33.7676 123.118 33.6129 123.298 33.4633 123.463C31.1415 124.706 29.1243 126.448 27.5573 128.565C25.9903 130.681 24.9124 133.119 24.4014 135.702C24.4014 135.749 24.4581 135.774 24.4736 135.728C25.4238 132.563 27.1282 129.677 29.4404 127.316C31.9275 124.777 35.0608 122.965 38.5023 122.076C40.5425 121.555 42.6527 121.363 44.7533 121.508C44.7652 121.502 44.7751 121.493 44.7816 121.481C44.788 121.47 44.7909 121.456 44.7898 121.443C44.7887 121.43 44.7837 121.417 44.7753 121.407C44.767 121.396 44.7558 121.389 44.743 121.385Z" fill="#263238"/>
<path opacity="0.1" d="M51.1129 123.334C51.1129 123.334 46.177 129.637 39.9724 130.73C35.2377 131.571 31.3437 129.101 29.7655 127.888L29.4199 127.326C29.4199 127.326 32.6228 124.629 38.7036 123.071C44.7845 121.514 51.1129 123.334 51.1129 123.334Z" fill="black"/>
<path d="M40.8128 118.424C40.2963 118.729 39.7954 119.059 39.3119 119.414C38.8422 119.772 38.4055 120.17 38.007 120.606C38.0022 120.614 38.0002 120.623 38.0013 120.632C38.0024 120.641 38.0065 120.65 38.0131 120.657C38.0196 120.663 38.0282 120.667 38.0374 120.668C38.0466 120.669 38.0559 120.667 38.0638 120.663C38.5125 120.276 38.9664 119.884 39.4306 119.512C39.884 119.14 40.3593 118.796 40.8541 118.481C40.8953 118.46 40.8592 118.398 40.8128 118.424Z" fill="#263238"/>
<path d="M44.5263 119.827C44.2736 119.935 44.0105 120.023 43.7681 120.126L43.0151 120.441C42.9636 120.441 42.9893 120.549 43.0151 120.529L43.7681 120.219C44.0209 120.121 44.2839 120.002 44.5212 119.899C44.5934 119.884 44.5676 119.812 44.5263 119.827Z" fill="#263238"/>
<path d="M28.1143 137.708C28.1143 137.708 29.3057 145.961 35.4948 148.823C41.684 151.686 49.2399 148.823 49.2399 148.823C49.2399 148.823 46.2691 131.004 28.1143 137.708Z" fill="#F66D1D"/>
<path d="M44.9848 143.459C44.4123 143.392 43.845 143.294 43.2777 143.191L42.4473 143.036L42.0089 142.949C41.8438 142.794 41.6788 142.634 41.4931 142.484C40.3197 141.454 39.0522 140.535 37.7074 139.741C36.9755 139.304 36.2176 138.914 35.4381 138.57H35.5515C36.2323 138.601 36.9132 138.626 37.6146 138.663C38.9762 138.724 40.3378 138.755 41.6943 138.843C41.7407 138.843 41.7407 138.771 41.6943 138.766C40.3275 138.673 38.971 138.523 37.6094 138.405L35.6289 138.229L34.5974 138.142L34.3395 138.111C33.9836 137.982 33.6278 137.858 33.2719 137.745C31.5819 137.166 29.7647 137.066 28.0214 137.456C26.4741 137.853 24.9268 138.874 24.5091 140.519C24.5043 140.532 24.5049 140.547 24.5107 140.559C24.5165 140.572 24.527 140.582 24.54 140.586C24.553 140.591 24.5674 140.591 24.58 140.585C24.5925 140.579 24.6023 140.568 24.6071 140.555C25.1847 139.183 26.7114 138.492 28.0833 138.209C29.0088 138.033 29.9572 138.013 30.8891 138.152C30.9561 138.577 31.0614 138.994 31.2037 139.4C31.3739 139.978 31.5441 140.555 31.7194 141.138C32.0701 142.294 32.457 143.439 32.7974 144.599C32.7991 144.604 32.8017 144.608 32.8051 144.612C32.8084 144.616 32.8125 144.619 32.8171 144.621C32.8216 144.623 32.8265 144.624 32.8316 144.624C32.8366 144.625 32.8416 144.624 32.8464 144.622C32.8511 144.621 32.8555 144.618 32.8592 144.615C32.8629 144.611 32.866 144.607 32.8681 144.603C32.8703 144.598 32.8715 144.593 32.8718 144.588C32.872 144.583 32.8713 144.578 32.8696 144.573C32.5859 143.418 32.3538 142.252 32.065 141.097C31.9257 140.524 31.7813 139.957 31.6421 139.39C31.5636 138.993 31.4603 138.602 31.3326 138.219C31.8738 138.317 32.4093 138.444 32.9366 138.601C33.8931 138.884 34.8303 139.228 35.7424 139.632C35.8352 140.22 35.9642 140.803 36.0983 141.381C36.2685 142.108 36.4593 142.83 36.6914 143.537C36.6914 143.583 36.7687 143.562 36.7584 143.537C36.7555 143.492 36.7555 143.447 36.7584 143.402C36.6192 142.727 36.4748 142.056 36.3303 141.386C36.2169 140.87 36.1137 140.298 35.9951 139.756C36.7652 140.099 37.5175 140.482 38.249 140.901C38.249 141.066 38.3057 141.236 38.3315 141.417C38.3779 141.7 38.4243 141.979 38.4759 142.263C38.5945 142.897 38.7235 143.531 38.8731 144.161C39.1543 145.375 39.5108 146.57 39.9407 147.74C39.9407 147.74 39.9407 147.771 39.9407 147.786L39.9768 147.828C40.0026 147.859 40.0438 147.828 40.0387 147.792C39.7498 146.569 39.4249 145.357 39.1567 144.135C39.0226 143.521 38.8885 142.912 38.7647 142.299C38.7029 141.989 38.6461 141.685 38.5894 141.375L38.543 141.102C39.377 141.591 40.1828 142.127 40.9567 142.706C42.292 143.711 43.5286 144.84 44.6496 146.079C44.6908 146.126 44.7785 146.079 44.7373 146.002C44.2773 145.377 43.785 144.776 43.2622 144.202C42.9527 143.872 42.6278 143.547 42.2977 143.232H42.4009C42.6897 143.284 42.9837 143.325 43.2725 143.366C43.845 143.444 44.4227 143.5 44.9951 143.562C44.9848 143.537 45.0209 143.464 44.9848 143.459Z" fill="#263238"/>
<path d="M40.6222 146.249C40.6222 146.177 40.5964 146.105 40.5861 146.038C40.5758 145.971 40.5242 145.857 40.5087 145.77C40.3798 145.218 40.2715 144.666 40.1735 144.109C40.1735 144.068 40.1064 144.109 40.1064 144.109C40.1433 144.847 40.3019 145.573 40.5758 146.26C40.5758 146.26 40.6274 146.26 40.6222 146.26V146.249Z" fill="#263238"/>
<path d="M35.438 146.12C35.438 146.095 35.438 146.084 35.4019 146.084C35.2265 145.352 35.0563 144.625 34.8861 143.892C34.8088 143.506 34.7263 143.119 34.6541 142.732C34.6128 142.526 34.5767 142.314 34.5406 142.108C34.5184 141.931 34.4733 141.757 34.4065 141.592C34.4029 141.586 34.3977 141.58 34.3913 141.577C34.385 141.573 34.3778 141.571 34.3704 141.571C34.363 141.571 34.3558 141.573 34.3494 141.577C34.3431 141.58 34.3378 141.586 34.3343 141.592C34.3296 141.966 34.3817 142.338 34.489 142.696C34.5664 143.098 34.6437 143.5 34.7314 143.898C34.9119 144.712 35.1182 145.522 35.3452 146.322C35.3452 146.333 35.3495 146.343 35.3573 146.351C35.365 146.359 35.3755 146.363 35.3864 146.363C35.3974 146.363 35.4079 146.359 35.4156 146.351C35.4233 146.343 35.4277 146.333 35.4277 146.322C35.4432 146.239 35.438 146.177 35.438 146.12Z" fill="#263238"/>
<path d="M44.4073 141.086C43.2778 140.932 42.1483 140.767 41.0136 140.627C40.9672 140.627 40.9466 140.694 41.0136 140.705C42.1431 140.87 43.2778 141.009 44.4073 141.159C44.4383 141.164 44.4692 141.092 44.4073 141.086Z" fill="#263238"/>
<path d="M24.9429 118.383C24.9429 118.383 21.1521 101.76 39.0181 95.0291C39.0181 95.0291 43.9539 116.913 24.9429 118.383Z" fill="#F66D1D"/>
<path d="M28.8013 108.955L28.9973 108.826L30.0288 108.264L32.0919 107.103C33.4586 106.34 34.8048 105.556 36.1767 104.803C36.218 104.777 36.1767 104.715 36.1354 104.736C34.7583 105.484 33.3606 106.185 31.9784 106.918L29.9153 108.001L29.0798 108.439C29.6729 107.31 30.3125 106.201 31.0088 105.138C31.9423 103.715 32.9687 102.358 34.0311 101.012C34.0389 101.007 34.0455 101 34.0503 100.992C34.0551 100.984 34.058 100.975 34.0588 100.966C34.0596 100.956 34.0583 100.947 34.055 100.938C34.0516 100.93 34.0464 100.922 34.0395 100.915C34.0327 100.909 34.0246 100.904 34.0156 100.901C34.0067 100.898 33.9973 100.898 33.988 100.899C33.9788 100.9 33.97 100.904 33.9623 100.909C33.9545 100.914 33.9481 100.921 33.9434 100.93C32.3773 102.453 30.9928 104.153 29.8173 105.994C29.8173 105.932 29.8173 105.876 29.8173 105.819C29.8173 105.406 29.8483 104.994 29.8535 104.576C29.8535 103.766 29.8277 102.951 29.8535 102.142C29.8535 102.095 29.7812 102.095 29.7761 102.142C29.7451 102.941 29.6471 103.735 29.6007 104.535C29.6007 104.932 29.5646 105.329 29.5492 105.731C29.5492 105.943 29.5492 106.19 29.5492 106.428C29.1778 107.01 28.8271 107.603 28.5176 108.207C27.9197 109.29 27.3858 110.408 26.9188 111.554C26.9188 111.142 26.8775 110.729 26.8517 110.311C26.8001 109.403 26.6867 108.496 26.6506 107.588C26.6506 107.578 26.6465 107.568 26.6392 107.561C26.632 107.553 26.6221 107.549 26.6119 107.549C26.6016 107.549 26.5918 107.553 26.5845 107.561C26.5773 107.568 26.5732 107.578 26.5732 107.588C26.5732 108.501 26.5732 109.409 26.5732 110.322C26.5732 110.775 26.6042 111.229 26.6299 111.683C26.6299 111.853 26.6299 112.024 26.666 112.199C26.0931 113.683 25.6412 115.211 25.3147 116.769C25.0053 118.429 24.7832 120.104 24.6494 121.787C24.8373 120.271 25.153 118.773 25.5933 117.31C25.815 116.526 26.0471 115.763 26.2999 114.969C27.0425 114.618 27.7543 114.185 28.4712 113.787C29.1881 113.39 29.9669 112.967 30.7148 112.56C32.2053 111.74 33.6907 110.91 35.2329 110.187C35.2741 110.187 35.2329 110.105 35.1916 110.12C33.6443 110.827 32.0661 111.497 30.5497 112.266C29.7916 112.648 29.0385 113.06 28.2959 113.478C27.6769 113.824 27.0425 114.174 26.4494 114.577C26.6196 114.061 26.8001 113.545 27.0013 113.029C27.5325 111.642 28.1333 110.282 28.8013 108.955Z" fill="#263238"/>
<path d="M27.2944 105.154C27.2944 105.107 27.2119 105.107 27.217 105.154C27.2789 106.103 27.315 107.052 27.413 107.996C27.413 108.052 27.5007 108.052 27.4955 107.996C27.4491 107.047 27.3614 106.103 27.2944 105.154Z" fill="#263238"/>
<path d="M35.8557 108.31C34.7365 108.759 33.6122 109.187 32.4981 109.651C32.4672 109.651 32.4981 109.713 32.4981 109.703C33.6276 109.28 34.7417 108.821 35.8661 108.382C35.9228 108.382 35.9022 108.31 35.8557 108.31Z" fill="#263238"/>
<path d="M37.5535 100.661C36.4622 101.163 35.4029 101.731 34.3816 102.363C34.3761 102.366 34.3714 102.37 34.3675 102.375C34.3637 102.38 34.3609 102.386 34.3592 102.392C34.3575 102.398 34.357 102.404 34.3578 102.41C34.3585 102.416 34.3605 102.422 34.3635 102.428C34.3665 102.433 34.3706 102.438 34.3755 102.442C34.3804 102.445 34.386 102.448 34.392 102.45C34.398 102.452 34.4042 102.452 34.4104 102.451C34.4166 102.451 34.4226 102.449 34.428 102.446C35.4595 101.842 36.522 101.259 37.5948 100.728C37.6412 100.702 37.5999 100.64 37.5535 100.661Z" fill="#263238"/>
<path d="M37.2848 154.336H11.5225V181.491H37.2848V154.336Z" fill="#37474F"/>
<path d="M11.0733 163.945H9.75293V210.457H11.0733V163.945Z" fill="#263238"/>
<path d="M38.9209 163.945H37.6006V210.457H38.9209V163.945Z" fill="#263238"/>
<path d="M25.7012 163.945H24.3809V210.457H25.7012V163.945Z" fill="#263238"/>
<path d="M38.2594 179.748H10.4082V183.508H38.2594V179.748Z" fill="#263238"/>
<path d="M146.12 225.548C144.965 225.934 111.858 225.836 110.6 225.032C110.12 224.733 109.852 219.905 109.697 214.072C109.661 212.813 109.635 211.493 109.615 210.188C109.589 208.641 109.568 207.037 109.558 205.5C109.517 198.584 109.615 192.498 109.615 192.498H131.163V210.188L131.05 214.072C131.05 214.072 143.707 219.781 144.975 220.808C146.244 221.834 147.276 225.171 146.12 225.548Z" fill="#D3766A"/>
<path d="M146.12 225.547C144.965 225.934 111.858 225.836 110.6 225.032C110.151 224.753 109.888 220.55 109.733 215.263C112.384 216.491 135.279 221.189 140.679 221.251C145.837 221.303 137.615 217.125 136.3 216.48C139.942 218.172 144.264 220.23 144.986 220.808C146.265 221.839 147.276 225.171 146.12 225.547Z" fill="#263238"/>
<path d="M97.9736 93.6567C97.9736 93.6567 109.274 150.391 110.068 154.573C110.249 155.528 109.037 209.801 109.037 209.801H131.839C131.839 209.801 132.612 161.949 131.601 153.583C130.59 145.217 117.794 93.6567 117.794 93.6567H97.9736Z" fill="#F66D1D"/>
<path opacity="0.2" d="M97.9736 93.6567C97.9736 93.6567 109.274 150.391 110.068 154.573C110.249 155.528 109.037 209.801 109.037 209.801H131.839C131.839 209.801 132.612 161.949 131.601 153.583C130.59 145.217 117.794 93.6567 117.794 93.6567H97.9736Z" fill="black"/>
<path opacity="0.2" d="M97.9736 93.6567C97.9736 93.6567 103.472 121.265 107.072 139.389L117.8 93.6567H97.9736Z" fill="black"/>
<path d="M127.114 204.484L127.274 182.306L127.48 160.128C127.48 158.292 127.526 156.41 127.454 154.615C127.16 152.825 126.799 151.004 126.449 149.184L124.303 138.306L122.173 127.393L120.084 116.5C121.69 123.721 123.237 130.952 124.726 138.193L126.928 149.06C127.284 150.886 127.661 152.67 127.96 154.537C128.027 156.43 127.96 158.251 127.96 160.108C127.877 167.504 127.762 174.896 127.614 182.285C127.506 189.702 127.305 197.093 127.114 204.484Z" fill="#263238"/>
<path d="M113.065 231.061C111.879 231.345 78.906 228.348 77.7198 227.451C77.2711 227.11 77.431 222.293 77.7817 216.455C77.859 215.196 80.0562 194.401 80.0562 194.401L101.058 196.84L99.0466 218.322C99.0466 218.322 111.151 225.119 112.343 226.254C113.534 227.389 114.246 230.757 113.065 231.061Z" fill="#D3766A"/>
<path d="M113.064 231.061C111.878 231.345 78.9054 228.348 77.7192 227.451C77.322 227.146 77.4046 223.299 77.6728 218.363C82.3146 220.173 102.429 225.46 107.484 225.805C112.053 226.115 106.339 222.525 104.069 221.164C107.551 223.165 111.672 225.594 112.322 226.234C113.529 227.348 114.245 230.757 113.064 231.061Z" fill="#263238"/>
<path d="M100.284 213.118L77.8643 210.658C77.8643 210.658 82.7382 173.822 83.1199 167.576C83.3107 164.389 86.6322 129.791 88.4786 114.452C88.4786 114.452 83.9812 104.993 91.532 93.6208H117.836C117.836 93.6208 117.418 104.968 114.406 112.539C112.043 113.366 109.753 114.386 107.557 115.587C107.557 115.587 104.978 164.487 104.307 171.996C103.343 182.301 100.284 213.118 100.284 213.118Z" fill="#F66D1D"/>
<g opacity="0.2">
<path opacity="0.2" d="M100.284 213.118L77.8643 210.658C77.8643 210.658 82.7382 173.822 83.1199 167.576C83.3107 164.389 86.6322 129.791 88.4786 114.452C88.4786 114.452 83.9812 104.993 91.532 93.6208H117.836C117.836 93.6208 117.418 104.968 114.406 112.539C112.043 113.366 109.753 114.386 107.557 115.587C107.557 115.587 104.978 164.487 104.307 171.996C103.343 182.301 100.284 213.118 100.284 213.118Z" fill="black"/>
</g>
<path d="M96.9941 209.136L98.0669 197.65L99.1861 186.19L101.461 163.238C101.553 162.284 101.657 161.32 101.729 160.381L101.899 157.503L102.239 151.747L102.931 140.235L103.653 128.723L104.431 117.217L103.916 128.739L103.333 140.256L102.719 151.768L102.404 157.524L102.234 160.402C102.162 161.376 102.064 162.32 101.976 163.285C101.199 170.932 100.4 178.579 99.5781 186.226L98.3145 197.686L96.9941 209.136Z" fill="#263238"/>
<path d="M93.4251 61.4888C93.4251 66.8889 92.4607 73.3514 94.9724 78.3852C96.9272 82.3101 100.806 84.8529 104.772 86.4208C113.504 89.8712 125.542 89.8815 131.21 81.1187C133.469 77.6219 133.593 70.5147 129.508 68.0854C127.409 66.8373 124.964 66.631 122.633 66.0997C121.177 65.8215 119.803 65.2183 118.612 64.3352C117.422 63.452 116.446 62.3115 115.758 60.9989C112.777 55.5834 113.179 51.514 112.395 45.5518C112.363 44.9536 112.206 44.3689 111.933 43.8357C111.66 43.3024 111.278 42.8327 110.811 42.4572C109.794 41.5345 108.547 40.9037 107.201 40.6314C106.038 40.1811 104.782 40.0252 103.544 40.1775C100.904 40.5644 98.459 43.1071 96.4733 44.7111C94.4876 46.3151 93.5747 47.9862 93.518 50.5959C93.4148 54.2321 93.4664 57.863 93.4251 61.4888Z" fill="#263238"/>
<path d="M92.8623 64.0574C93.2027 59.1061 93.6411 54.1703 94.0485 49.2293C94.0485 49.1983 94.1001 49.1983 94.1001 49.2293C93.8835 53.3038 93.7184 57.3783 93.4502 61.458C93.1872 65.45 92.6405 69.5348 92.723 73.5423C92.919 82.5269 102.296 85.8071 109.913 85.0593C110.264 85.0283 110.28 85.575 109.913 85.606C103.208 86.0495 95.1007 84.0587 92.7798 76.8638C91.5161 72.9182 92.5838 68.0804 92.8623 64.0574Z" fill="#263238"/>
<path d="M111.931 45.0979C111.931 45.0051 112.07 45.0051 112.075 45.0979C112.503 50.0235 112.534 55.8103 115.52 59.9983C116.992 62.0591 119.052 63.6268 121.431 64.4958C123.314 65.1766 125.284 65.1611 127.238 65.4654C134.877 66.6465 135.367 76.8844 130.018 81.0981C129.905 81.1858 129.75 80.995 129.859 80.9022C133.613 77.6529 134.66 71.9898 131.334 68.0081C128.662 64.8001 123.834 66.0482 120.301 64.3978C112.983 60.9731 112.065 52.2774 111.931 45.0979Z" fill="#263238"/>
<path d="M105.329 67.6469C107.325 73.4441 118.135 87.3438 122.715 88.5971C126.032 89.4997 139.643 82.769 143.459 80.1954C147.137 77.7146 139.08 67.1982 136.816 68.5031C133.624 70.3495 125.201 75.7598 123.855 75.7237C122.916 75.6876 117.872 71.8658 110.234 65.0629C106.025 61.2772 104.158 64.1861 105.329 67.6469Z" fill="#D3766A"/>
<path d="M143.887 52.3083L137.781 66.7496C137.721 66.8264 137.684 66.9175 137.671 67.0135C137.659 67.1096 137.673 67.2072 137.71 67.2964C137.748 67.3856 137.809 67.4632 137.886 67.5212C137.964 67.5792 138.056 67.6155 138.152 67.6264L145.914 68.823C146.154 68.8421 146.394 68.7926 146.607 68.6803C146.82 68.5679 146.996 68.3974 147.116 68.1886L153.222 53.7473C153.282 53.6705 153.319 53.5795 153.332 53.4834C153.344 53.3873 153.331 53.2897 153.293 53.2005C153.255 53.1113 153.194 53.0337 153.117 52.9757C153.039 52.9178 152.947 52.8814 152.851 52.8705L145.089 51.6739C144.849 51.6548 144.609 51.7043 144.396 51.8167C144.183 51.929 144.007 52.0995 143.887 52.3083Z" fill="#37474F"/>
<path d="M144.81 52.4423L138.703 66.8837C138.644 66.9604 138.607 67.0515 138.594 67.1476C138.582 67.2437 138.595 67.3413 138.633 67.4305C138.671 67.5197 138.732 67.5972 138.809 67.6552C138.887 67.7132 138.979 67.7495 139.075 67.7605L146.837 68.957C147.077 68.9755 147.317 68.9257 147.529 68.8135C147.742 68.7012 147.919 68.531 148.039 68.3227L154.145 53.8813C154.204 53.8046 154.242 53.7135 154.254 53.6174C154.267 53.5213 154.253 53.4237 154.216 53.3345C154.178 53.2453 154.117 53.1678 154.039 53.1098C153.962 53.0518 153.87 53.0155 153.774 53.0045L146.012 51.808C145.772 51.7889 145.532 51.8384 145.319 51.9507C145.106 52.063 144.93 52.2335 144.81 52.4423Z" fill="#455A64"/>
<path d="M146.832 53.4584C146.809 53.5877 146.747 53.7072 146.656 53.8018C146.565 53.8965 146.448 53.962 146.32 53.9902C146.191 54.0184 146.058 54.008 145.935 53.9602C145.813 53.9125 145.707 53.8296 145.632 53.7219C145.557 53.6143 145.515 53.4868 145.512 53.3554C145.509 53.2241 145.545 53.0948 145.615 52.9838C145.686 52.8729 145.787 52.7853 145.908 52.7321C146.028 52.6789 146.161 52.6624 146.29 52.6848C146.464 52.7162 146.619 52.8152 146.72 52.9601C146.822 53.105 146.862 53.2841 146.832 53.4584Z" fill="#263238"/>
<path d="M150.462 70.7209C151.721 66.9043 151.458 65.7335 154.233 63.0773C156.053 61.334 155.718 59.4257 153.201 60.1529C149.075 61.334 146.424 65.914 145.98 67.7707L150.462 70.7209Z" fill="#D3766A"/>
<path d="M143.666 80.1233C143.666 80.1233 148.045 76.4769 149.788 72.5468C150.995 69.8287 152.96 63.6189 147.797 56.3931C146.57 54.6808 143.614 53.1077 144.594 56.6303C145.296 59.1369 146.492 60.514 146.657 62.0407C146.657 62.0407 142.655 60.4934 140.984 61.7828C139.523 62.9125 138.144 64.1449 136.858 65.4705C137.047 65.7623 137.256 66.0414 137.482 66.306C137.482 66.306 135.935 67.5645 135.697 70.5662L143.666 80.1233Z" fill="#D3766A"/>
<path d="M150.524 69.7668C150.065 68.2763 149.034 65.125 147.295 62.8608C145.366 60.3335 140.972 55.9857 139.121 57.4298C137.764 58.4871 139.296 60.2923 139.296 60.2923C139.296 60.2923 137.099 58.8791 136.083 60.1015C135.154 61.2207 136.423 62.5462 136.423 62.5462C136.423 62.5462 134.943 61.9169 134.257 63.1651C133.432 64.6608 136.671 65.7439 137.145 67.9771C137.254 68.4774 150.524 69.7668 150.524 69.7668Z" fill="#D3766A"/>
<path d="M144.964 65.3468C143.657 63.1287 141.705 61.3618 139.368 60.282C139.306 60.282 139.255 60.282 139.306 60.3232C141.383 61.7703 143.277 63.4622 144.949 65.3622L144.964 65.3468Z" fill="#263238"/>
<path d="M142.36 67.2187C141.669 66.1305 139.193 63.5207 136.46 62.4995C136.398 62.4995 136.351 62.4995 136.403 62.5459C138.551 63.8811 140.541 65.4556 142.334 67.2394C142.334 67.2394 142.365 67.2291 142.36 67.2187Z" fill="#263238"/>
<path d="M135.495 68.3484L140.725 85.4614C140.725 85.4614 126.439 90.2425 122.431 88.9634C118.424 87.6843 108.506 75.4453 105.205 68.1112C103.183 63.6447 105.88 60.8028 110.811 64.8722C115.876 69.055 122.999 74.847 123.545 75.0688C124.092 75.2906 135.495 68.3484 135.495 68.3484Z" fill="#F66D1D"/>
<path d="M134.242 78.4212C133.938 77.1421 132.741 72.0103 132.54 70.7158C132.54 70.7158 132.571 70.6796 132.576 70.7158C133.009 71.9175 134.34 76.9462 134.639 78.2304C135.324 80.7772 135.869 83.36 136.269 85.9668C136.268 85.9761 136.265 85.9851 136.259 85.9924C136.253 85.9997 136.245 86.0051 136.237 86.0079C136.228 86.0107 136.218 86.0107 136.209 86.008C136.2 86.0053 136.192 85.9999 136.186 85.9926C135.377 83.4963 134.851 80.9433 134.242 78.4212Z" fill="#263238"/>
<path opacity="0.1" d="M129.595 88.494C126.639 89.1026 123.87 89.4224 122.431 88.9634C118.418 87.6843 108.505 75.4452 105.204 68.1111C103.621 64.6194 104.926 62.118 107.928 63.1443L129.595 88.494Z" fill="black"/>
<path d="M117.64 85.1367L117.795 93.6571H91.6455C91.6455 93.6571 91.857 73.9807 98.6238 65.5016C102.141 61.1073 106.231 61.5251 109.058 64.2328C109.775 64.9188 117.728 74.4862 118.718 78.6742C119.222 80.8863 118.834 83.2078 117.64 85.1367Z" fill="#EBEBEB"/>
<path d="M112.162 84.1463C111.041 84.3241 109.935 84.5826 108.851 84.92C108.335 85.1005 107.794 85.3017 107.273 85.5131L106.484 85.8123C106.21 85.9199 105.924 85.9927 105.633 86.0289C105.607 86.0289 105.607 86.0701 105.633 86.0701C105.911 86.0668 106.188 86.0427 106.463 85.9979C106.729 85.9492 106.991 85.8819 107.247 85.7968C107.794 85.6214 108.33 85.4254 108.872 85.2449C109.97 84.8839 111.064 84.5177 112.183 84.2392C112.234 84.2237 112.219 84.136 112.162 84.1463Z" fill="#263238"/>
<path d="M115.02 84.9559C114.084 84.9207 113.147 84.9396 112.214 85.0127C111.745 85.0488 111.286 85.1107 110.821 85.188L110.161 85.3067C109.919 85.3582 109.687 85.4356 109.444 85.482C109.444 85.482 109.444 85.5233 109.444 85.5181C109.676 85.4872 109.914 85.4872 110.146 85.4666L110.842 85.3995L112.235 85.2757C113.168 85.1777 114.091 85.0952 115.025 85.0333C115.033 85.0299 115.039 85.0242 115.044 85.0169C115.048 85.0097 115.05 85.0013 115.049 84.9928C115.049 84.9844 115.046 84.9763 115.04 84.9697C115.035 84.9631 115.028 84.9583 115.02 84.9559Z" fill="#263238"/>
<path d="M108.423 63.6294C108.423 63.6294 114.158 76.8793 114.504 78.9939C114.849 81.1086 117.304 113.241 117.304 113.241C117.304 113.241 122.622 110.951 122.679 110.724C122.735 110.497 117.717 85.5596 117.789 85.3223C117.861 85.0851 120.182 82.5218 118.888 78.9114C116.077 71.1131 108.423 63.6294 108.423 63.6294Z" fill="#F66D1D"/>
<path d="M115.314 87.8959L116.185 75.9766L113.091 72.882L114.705 72.5623C114.705 72.5623 108.99 64.3101 108.418 63.6499C108.552 64.0109 112.73 73.6402 113.534 76.3428C114.225 78.6018 115.37 87.4007 115.314 87.8959Z" fill="#F66D1D"/>
<path opacity="0.2" d="M115.314 87.8959L116.185 75.9766L113.091 72.882L114.705 72.5623C114.705 72.5623 108.99 64.3101 108.418 63.6499C108.552 64.0109 112.73 73.6402 113.534 76.3428C114.225 78.6018 115.37 87.4007 115.314 87.8959Z" fill="black"/>
<path d="M101.719 62.8865C101.719 62.8865 104.881 79.4528 105.098 80.9743C105.314 82.4957 105.567 114.246 105.567 114.246L85.0293 110.723L90.7749 93.3216C90.9038 92.9348 92.9256 74.063 97.0156 67.4252C99.5067 63.3507 101.719 62.8865 101.719 62.8865Z" fill="#F66D1D"/>
<path d="M103.839 91.5784C103.839 91.7402 103.782 91.8968 103.677 92.0199C103.572 92.1429 103.426 92.2242 103.266 92.2489C103.081 92.2677 102.896 92.2141 102.75 92.0993C102.677 92.0349 102.618 91.9556 102.578 91.8667C102.537 91.7777 102.517 91.6812 102.517 91.5835C102.517 91.4859 102.537 91.3894 102.578 91.3004C102.618 91.2115 102.677 91.1322 102.75 91.0678C102.822 91.0106 102.905 90.9684 102.994 90.9436C103.082 90.9188 103.175 90.9119 103.266 90.9234C103.423 90.9476 103.567 91.0266 103.672 91.1465C103.776 91.2663 103.836 91.4193 103.839 91.5784ZM103.839 91.5784C103.837 91.5043 103.82 91.4315 103.788 91.3647C103.756 91.298 103.71 91.2389 103.653 91.1915C103.598 91.1512 103.535 91.1223 103.469 91.1063C103.402 91.0904 103.333 91.0878 103.266 91.0987C103.16 91.1273 103.065 91.1894 102.996 91.2757C102.928 91.362 102.888 91.4681 102.884 91.5784C102.884 91.6679 102.908 91.7558 102.955 91.8322C103.001 91.9086 103.068 91.9704 103.148 92.0107C103.228 92.0509 103.318 92.068 103.407 92.06C103.496 92.0519 103.581 92.0191 103.653 91.9652C103.71 91.9178 103.756 91.8588 103.788 91.792C103.82 91.7253 103.837 91.6524 103.839 91.5784Z" fill="#263238"/>
<path d="M103.838 97.7573C103.839 97.9191 103.782 98.0758 103.677 98.1988C103.572 98.3218 103.426 98.4031 103.266 98.4278C103.175 98.4393 103.082 98.4324 102.994 98.4076C102.905 98.3828 102.822 98.3406 102.75 98.2834C102.677 98.2186 102.617 98.1393 102.576 98.0506C102.534 97.9619 102.511 97.8656 102.508 97.7676C102.509 97.6693 102.531 97.5724 102.573 97.4834C102.615 97.3944 102.675 97.3154 102.75 97.2519C102.848 97.1706 102.967 97.1189 103.094 97.1028C103.22 97.0867 103.348 97.1069 103.463 97.161C103.578 97.2151 103.676 97.3008 103.744 97.4083C103.812 97.5157 103.849 97.6403 103.849 97.7676L103.838 97.7573ZM103.838 97.7573C103.837 97.6833 103.82 97.6104 103.788 97.5437C103.756 97.4769 103.71 97.4179 103.653 97.3705C103.597 97.3311 103.535 97.303 103.468 97.288C103.402 97.2729 103.333 97.2712 103.266 97.2828C103.157 97.3055 103.06 97.3652 102.99 97.4517C102.921 97.5383 102.883 97.6463 102.884 97.7573C102.888 97.8676 102.927 97.9737 102.996 98.06C103.065 98.1463 103.159 98.2083 103.266 98.237C103.333 98.2479 103.402 98.2453 103.469 98.2293C103.535 98.2134 103.598 98.1844 103.653 98.1441C103.71 98.0968 103.756 98.0377 103.788 97.9709C103.82 97.9042 103.837 97.8313 103.838 97.7573Z" fill="#263238"/>
<path d="M103.839 103.941C103.84 104.103 103.783 104.259 103.678 104.382C103.572 104.504 103.426 104.584 103.266 104.607C103.175 104.618 103.082 104.611 102.994 104.586C102.905 104.561 102.822 104.519 102.75 104.462C102.677 104.398 102.618 104.318 102.578 104.229C102.537 104.141 102.517 104.044 102.517 103.946C102.517 103.849 102.537 103.752 102.578 103.663C102.618 103.574 102.677 103.495 102.75 103.431C102.822 103.373 102.905 103.331 102.994 103.306C103.082 103.282 103.175 103.275 103.266 103.286C103.423 103.31 103.567 103.389 103.672 103.509C103.776 103.629 103.836 103.782 103.839 103.941ZM103.839 103.941C103.837 103.867 103.82 103.794 103.788 103.728C103.756 103.661 103.71 103.602 103.653 103.554C103.598 103.514 103.535 103.485 103.469 103.469C103.402 103.453 103.333 103.451 103.266 103.462C103.16 103.49 103.065 103.552 102.996 103.638C102.928 103.725 102.888 103.831 102.884 103.941C102.884 104.031 102.908 104.119 102.955 104.195C103.001 104.271 103.068 104.333 103.148 104.373C103.228 104.414 103.318 104.431 103.407 104.423C103.496 104.415 103.581 104.382 103.653 104.328C103.71 104.281 103.756 104.222 103.788 104.155C103.82 104.088 103.837 104.015 103.839 103.941Z" fill="#263238"/>
<path d="M103.838 110.12C103.839 110.282 103.782 110.439 103.677 110.562C103.572 110.685 103.426 110.766 103.266 110.791C103.174 110.801 103.082 110.793 102.993 110.768C102.905 110.742 102.822 110.699 102.75 110.641C102.676 110.577 102.616 110.498 102.574 110.409C102.533 110.32 102.51 110.223 102.508 110.125C102.509 110.027 102.531 109.93 102.573 109.841C102.615 109.752 102.675 109.673 102.75 109.61C102.848 109.528 102.967 109.477 103.094 109.46C103.22 109.444 103.348 109.465 103.463 109.519C103.578 109.573 103.676 109.659 103.744 109.766C103.812 109.873 103.849 109.998 103.849 110.125L103.838 110.12ZM103.838 110.12C103.837 110.046 103.82 109.973 103.788 109.906C103.756 109.84 103.71 109.781 103.653 109.733C103.597 109.694 103.535 109.666 103.468 109.651C103.402 109.636 103.333 109.634 103.266 109.646C103.157 109.668 103.06 109.728 102.99 109.815C102.921 109.901 102.883 110.009 102.884 110.12C102.888 110.23 102.927 110.336 102.996 110.423C103.065 110.509 103.159 110.571 103.266 110.6C103.333 110.611 103.402 110.608 103.469 110.592C103.535 110.576 103.598 110.547 103.653 110.507C103.71 110.46 103.756 110.401 103.788 110.334C103.82 110.267 103.837 110.194 103.838 110.12Z" fill="#263238"/>
<path d="M97.1696 65.0167C89.1082 68.0029 71.9385 74.7852 72.5162 79.6231C73.4703 87.5709 81.0933 99.1189 83.7443 102.348C84.8841 103.745 97.0355 96.7928 96.2619 95.0289C95.3335 92.9091 87.7054 81.8305 88.0097 81.2941C88.314 80.7577 94.3742 75.2958 98.8046 70.1072C104.297 63.6705 100.532 63.7737 97.1696 65.0167Z" fill="#D3766A"/>
<path d="M90.9909 90.3921C90.9909 90.3921 96.2826 91.8259 99.7021 92.9245C101.61 93.5434 104.788 94.8844 105.984 95.9778C107.769 97.6128 114.2 105.586 112.302 107.185C110.58 108.635 105.927 101.084 105.927 101.084C105.927 101.084 111.296 108.305 108.908 109.656C106.52 111.007 102.389 101.785 102.389 101.785C102.389 101.785 107.743 109.315 105.056 110.331C103.024 111.1 98.815 102.946 98.815 102.946C98.815 102.946 103.369 109.45 101.316 110.331C99.0419 111.301 94.6889 104.019 94.6889 104.019C89.0825 105.38 85.792 104.019 83.7083 102.291C83.2235 101.894 90.9909 90.3921 90.9909 90.3921Z" fill="#D3766A"/>
<path d="M104.473 98.8198C108.831 103.828 109.44 107.619 109.404 107.521C108.542 105.22 106.49 102.038 105.902 101.156C105.314 100.274 105.02 99.7223 104.437 98.8404C104.421 98.8198 104.452 98.8043 104.473 98.8198Z" fill="#263238"/>
<path d="M101.012 100.532C102.868 102.477 104.363 104.737 105.427 107.206C105.463 107.304 105.427 107.294 105.355 107.206C104.643 106.066 101.744 101.646 100.986 100.548C100.976 100.532 100.996 100.517 101.012 100.532Z" fill="#263238"/>
<path d="M97.9368 101.801C99.3421 103.34 100.449 105.128 101.202 107.072C101.238 107.165 101.16 107.149 101.109 107.072C100.077 105.297 99.2469 103.9 97.8801 101.857C97.8595 101.816 97.9059 101.77 97.9368 101.801Z" fill="#263238"/>
<path d="M94.1521 91.2895L79.9067 99.8099C79.9067 99.8099 71.0408 82.9083 72.3714 78.6636C73.7021 74.4189 93.6105 64.9753 98.6444 63.8612C102.255 63.0721 102.466 66.079 100.011 69.3232C97.3756 72.7942 88.2518 81.2373 88.1795 81.49C88.1073 81.7427 94.1521 91.2895 94.1521 91.2895Z" fill="#F66D1D"/>
<path d="M92.8004 76.8481C93.5586 76.1364 94.3167 75.4143 95.0646 74.6871C95.4514 74.3106 95.8382 73.9341 96.2354 73.5627L96.7821 73.047C96.8698 72.9593 96.9729 72.8819 97.0554 72.7942C97.3649 72.4641 97.0915 72.753 97.4268 72.459C97.4268 72.459 97.4835 72.459 97.4629 72.4951C97.2824 72.7117 97.3958 72.6498 97.2308 72.7994C97.1109 72.9099 96.9972 73.027 96.8904 73.1501C96.7253 73.3358 96.55 73.5163 96.3746 73.6968C96.0291 74.0733 95.6732 74.4395 95.3122 74.8005L95.1677 74.945L95.2142 74.9089C95.6732 74.5581 96.1374 74.2177 96.5964 73.8773V73.9083C96.1735 74.3003 95.7454 74.6768 95.2864 75.0275C95.0233 75.2338 94.7448 75.4195 94.4715 75.6051C93.9866 76.0899 93.5018 76.5748 93.0119 77.0493C91.4646 78.5192 89.9534 79.9943 88.3184 81.3404C88.8342 82.1656 89.35 82.9651 89.8657 83.7954C90.3815 84.6258 90.8611 85.4562 91.3511 86.2917C91.8411 87.1273 92.3414 87.9628 92.821 88.8035C93.048 89.2058 93.2697 89.6132 93.4967 90.0207C93.7236 90.4281 93.9351 90.9284 94.1878 91.3617C94.2136 91.4081 94.1414 91.439 94.1156 91.3926C93.8474 90.9491 93.5173 90.5416 93.2388 90.1032C92.9603 89.6648 92.723 89.3347 92.5013 88.9479C91.9855 88.1227 91.4697 87.2923 90.9901 86.4568C90.5104 85.6212 89.9947 84.796 89.5047 83.9553C89.0147 83.1146 88.5711 82.2585 88.0812 81.4229C88.0748 81.4101 88.0715 81.396 88.0715 81.3817C88.0715 81.3673 88.0748 81.3532 88.0812 81.3404C88.0678 81.3226 88.0605 81.3008 88.0605 81.2785C88.0605 81.2562 88.0678 81.2345 88.0812 81.2166C89.6594 79.7364 91.2531 78.318 92.8004 76.8481Z" fill="#263238"/>
<path d="M85.0281 92.2642C86.0596 91.6504 90.2682 89.247 91.3513 88.7261C91.3513 88.7261 91.3926 88.7261 91.3513 88.757C90.4126 89.4533 86.3433 91.9496 85.3014 92.5633C83.2474 93.8386 81.1244 94.9991 78.9421 96.0396C78.9008 96.0396 78.8596 96.0035 78.8957 95.9777C80.8711 94.6006 82.9702 93.4608 85.0281 92.2642Z" fill="#263238"/>
<path d="M102.492 74.2179L100.945 77.5187L105.278 89.0409C105.118 88.7469 105.504 83.4397 104.87 79.0763C104.112 73.862 101.662 62.9124 101.662 62.9124L100.032 73.7434L102.492 74.2179Z" fill="#F66D1D"/>
<path opacity="0.2" d="M102.492 74.2179L100.945 77.5187L105.278 89.0409C105.118 88.7469 105.504 83.4397 104.87 79.0763C104.112 73.862 101.662 62.9124 101.662 62.9124L100.032 73.7434L102.492 74.2179Z" fill="black"/>
<path d="M102.424 63.7116C102.646 64.2274 105.772 67.1518 108.144 66.5947C108.918 66.4142 108.113 62.154 108.113 62.154V61.8239L108.284 57.2337L102.492 54.8612L101.661 54.562C101.661 54.562 101.697 55.8205 101.759 57.3884C101.759 57.4606 101.759 57.5328 101.759 57.6102C101.759 57.6875 101.759 57.7855 101.759 57.868C101.759 58.1001 101.759 58.3425 101.785 58.5798C101.811 58.817 101.785 58.9357 101.816 59.1265C101.847 59.3173 101.816 59.503 101.852 59.6938C101.953 61.0444 102.144 62.3866 102.424 63.7116Z" fill="#D3766A"/>
<path d="M101.776 57.3884C102.448 58.5456 103.365 59.542 104.463 60.3081C105.56 61.0743 106.812 61.5916 108.13 61.8239L108.3 57.2337L102.508 54.8612L101.678 54.562C101.678 54.562 101.719 55.8205 101.776 57.3884Z" fill="#263238"/>
<path d="M113.55 49.5746C115.226 57.4606 110.693 59.3741 108.991 59.7196C107.444 60.0445 102.147 60.9626 99.6607 53.2881C97.1748 45.6135 100.316 42.3384 103.787 41.4255C107.258 40.5126 111.874 41.6834 113.55 49.5746Z" fill="#D3766A"/>
<path d="M111.085 48.1457C110.9 48.1561 110.714 48.1561 110.528 48.1457C110.331 48.17 110.132 48.1283 109.961 48.0271C109.913 47.985 109.881 47.9282 109.869 47.8657C109.856 47.8032 109.865 47.7385 109.894 47.6816C109.968 47.5785 110.068 47.497 110.184 47.4453C110.3 47.3937 110.428 47.3737 110.554 47.3876C110.814 47.3732 111.07 47.458 111.271 47.6248C111.31 47.6663 111.338 47.718 111.35 47.7741C111.362 47.8302 111.358 47.8885 111.339 47.9425C111.319 47.9966 111.285 48.0442 111.241 48.0801C111.196 48.116 111.142 48.1387 111.085 48.1457Z" fill="#263238"/>
<path d="M105.7 49.3941C105.876 49.3316 106.048 49.2593 106.215 49.1775C106.407 49.1276 106.576 49.015 106.695 48.8577C106.724 48.801 106.734 48.736 106.722 48.6733C106.709 48.6106 106.677 48.5538 106.628 48.5122C106.522 48.4425 106.398 48.4028 106.271 48.3974C106.144 48.3919 106.018 48.4209 105.906 48.4812C105.654 48.5716 105.447 48.7566 105.328 48.997C105.309 49.0499 105.304 49.1072 105.316 49.1624C105.327 49.2177 105.353 49.2688 105.392 49.31C105.43 49.3512 105.479 49.3809 105.534 49.3957C105.588 49.4106 105.646 49.41 105.7 49.3941Z" fill="#263238"/>
<path d="M107.329 51.1016C107.329 51.1016 107.293 51.1325 107.298 51.1583C107.432 51.6741 107.499 52.3239 107.051 52.6076C107.051 52.6076 107.051 52.6437 107.051 52.6385C107.639 52.4271 107.546 51.5761 107.329 51.1016Z" fill="#263238"/>
<path d="M106.732 50.6422C105.85 50.7659 106.159 52.5144 106.974 52.4009C107.789 52.2874 107.469 50.5442 106.732 50.6422Z" fill="#263238"/>
<path d="M106.401 50.7972C106.267 50.921 106.149 51.1221 105.968 51.1737C105.788 51.2253 105.566 51.0757 105.396 50.9261C105.396 50.9261 105.365 50.9261 105.396 50.9519C105.447 51.2871 105.638 51.6069 106.004 51.5966C106.37 51.5863 106.52 51.2459 106.551 50.8952C106.525 50.8281 106.458 50.7456 106.401 50.7972Z" fill="#263238"/>
<path d="M110.378 50.2144C110.378 50.2144 110.424 50.2144 110.429 50.2556C110.501 50.8023 110.677 51.4161 111.198 51.5089V51.5399C110.589 51.576 110.362 50.7456 110.378 50.2144Z" fill="#263238"/>
<path d="M110.765 49.5645C111.631 49.353 111.992 51.1118 111.193 51.2871C110.393 51.4625 110.043 49.745 110.765 49.5645Z" fill="#263238"/>
<path d="M111.152 49.6056C111.312 49.6675 111.482 49.8068 111.668 49.781C111.853 49.7552 111.962 49.5386 112.044 49.3323C112.044 49.3323 112.07 49.3323 112.075 49.3323C112.158 49.6624 112.116 50.0286 111.812 50.1627C111.508 50.2968 111.26 50.0389 111.111 49.7243C111.064 49.683 111.09 49.5798 111.152 49.6056Z" fill="#263238"/>
<path d="M110.301 54.1132C110.15 54.4675 109.91 54.7767 109.604 55.0107C109.433 55.1332 109.227 55.1982 109.016 55.1963C108.557 55.1963 108.449 54.7992 108.444 54.4433C108.44 54.2526 108.459 54.0621 108.501 53.876C109.06 54.144 109.691 54.2271 110.301 54.1132Z" fill="#263238"/>
<path d="M109.604 55.0108C109.432 55.1334 109.227 55.1984 109.016 55.1965C108.557 55.1965 108.449 54.7994 108.443 54.4435C108.672 54.3918 108.912 54.4199 109.123 54.523C109.334 54.6262 109.504 54.7983 109.604 55.0108Z" fill="#FF9CBD"/>
<path d="M110.27 53.0096C110.27 53.0096 110.533 53.7936 110.605 54.1753C110.605 54.2114 110.523 54.2475 110.394 54.2784C110.078 54.3994 109.735 54.4317 109.402 54.3717C109.07 54.3117 108.76 54.1617 108.506 53.938C108.499 53.9312 108.494 53.9221 108.493 53.9123C108.492 53.9025 108.495 53.8927 108.5 53.8846C108.506 53.8765 108.514 53.8707 108.524 53.8682C108.533 53.8657 108.544 53.8667 108.552 53.871C109.102 54.1149 109.716 54.1729 110.301 54.036C110.301 53.9225 109.785 52.7002 109.862 52.6847C110.164 52.6566 110.467 52.6687 110.765 52.7208C110.249 51.0652 109.496 49.5025 109.022 47.8469C109.022 47.7901 109.089 47.754 109.115 47.8056C109.985 49.4501 110.689 51.178 111.214 52.9632C111.271 53.1798 110.435 53.0457 110.27 53.0096Z" fill="#263238"/>
<path d="M100.026 52.6074C101.857 52.3495 101.414 49.4716 101.414 49.4716C101.414 49.4716 103.477 48.9558 103.111 45.6085C103.618 46.2141 104.258 46.695 104.98 47.0142C105.703 47.3335 106.489 47.4825 107.278 47.4498C107.887 47.4498 105.664 46.2068 105.664 46.2068C105.664 46.2068 108.377 48.012 112.683 46.5266C112.988 46.4234 111.652 41.8486 107.912 40.7707C104.173 39.6927 101.208 41.0646 99.3715 43.5816C99.3715 43.5816 96.9938 45.1288 97.0712 47.589C97.1485 50.0492 99.3147 52.6796 100.026 52.6074Z" fill="#263238"/>
<path d="M101.043 53.1231C101.043 53.1231 98.9796 50.8383 97.948 51.5758C96.9165 52.3134 98.6546 55.7999 100.047 56.13C100.223 56.1848 100.408 56.2035 100.591 56.1848C100.774 56.1661 100.952 56.1105 101.113 56.0213C101.274 55.9321 101.415 55.8112 101.528 55.6659C101.641 55.5206 101.723 55.3539 101.77 55.1758L101.043 53.1231Z" fill="#D3766A"/>
<path d="M98.459 52.5714C98.459 52.5714 98.459 52.6023 98.459 52.6075C99.4441 52.8705 100.042 53.6751 100.522 54.5313C100.456 54.4442 100.372 54.3724 100.276 54.321C100.18 54.2695 100.074 54.2396 99.965 54.2332C99.8561 54.2268 99.7472 54.2442 99.6456 54.2841C99.5441 54.3239 99.4525 54.3854 99.377 54.4642C99.3741 54.4692 99.3726 54.475 99.3727 54.4808C99.3729 54.4866 99.3747 54.4923 99.3779 54.4972C99.3812 54.502 99.3857 54.5058 99.391 54.5082C99.3963 54.5106 99.4022 54.5114 99.408 54.5106C99.5658 54.4384 99.742 54.4165 99.9127 54.4479C100.083 54.4793 100.24 54.5624 100.362 54.686C100.555 54.8981 100.728 55.1277 100.878 55.372C100.929 55.4545 101.074 55.3719 101.033 55.2946C100.883 54.0825 99.7535 52.5301 98.459 52.5714Z" fill="#263238"/>
<path d="M101.837 62.8194C102.772 62.3721 103.803 62.1631 104.838 62.2108C105.994 62.2417 108.346 63.6394 108.346 63.6394C108.346 63.6394 111.26 74.2951 109.547 74.3879C107.422 74.5065 101.589 63.2578 101.837 62.8194Z" fill="#D3766A"/>
</svg>
