<svg width="871" height="672" viewBox="0 0 871 672" fill="none" xmlns="http://www.w3.org/2000/svg">
<path d="M775.02 591L319.618 592.838C208.925 510.425 197.493 388.334 276.458 314.436C324.265 269.676 384.957 278.703 442.741 271.568H442.912C463.319 269.554 483.175 264.059 501.522 255.35C561.017 225.618 594.57 155.342 644.628 96.3099C650.872 88.9038 657.371 81.687 664.241 74.6864C705.406 33.0073 787.335 31.6558 830.182 90.2283C939.022 238.997 889.049 460.583 775.02 591Z" fill="#DBDBDB"/>
<path d="M785.08 250.349C773.164 427.499 557.365 493.612 422.612 440.554C305.419 394.415 343.79 289.19 442.567 271.459H442.738C463.146 269.445 483.002 263.951 501.349 255.241C560.843 225.509 594.396 155.233 644.455 96.2012C719.143 59.3603 793.832 120.609 785.08 250.349Z" fill="#C7C7C7"/>
<path d="M627.095 8.5454C594.626 37.737 572.305 113.662 588.753 161.585C608.366 218.671 662.074 247.809 706.117 234.294C746.027 222.023 763.73 183.695 749.049 155.179C734.795 127.664 707.771 117.582 702.753 93.012C700.359 81.2812 704.492 61.8201 703.466 44.143C701.642 12.0592 652.438 -14.1592 627.095 8.5454Z" fill="#263238"/>
<path d="M754.408 161.774C752.697 155.804 750.034 150.116 746.512 144.908C743.157 139.829 739.176 135.147 734.653 130.961C730.149 126.825 725.73 122.555 721.454 118.095C717.053 113.579 713.226 108.59 710.051 103.229C708.405 100.449 707.022 97.5364 705.918 94.5254C704.917 91.3889 704.324 88.1485 704.15 84.8759C703.944 78.4218 704.096 71.9619 704.606 65.5229C705.043 59.2017 704.718 52.8538 703.637 46.6024C702.095 40.46 699.463 34.6106 695.855 29.3037C699.881 34.3992 702.886 40.1529 704.72 46.2781C706.079 52.6078 706.643 59.0676 706.402 65.5229C706.402 71.9559 705.804 78.3889 706.402 84.6327C706.622 87.6965 707.215 90.726 708.17 93.6605C709.268 96.4653 710.612 99.1777 712.189 101.769C718.29 112.446 727.497 120.69 736.107 129.447C740.51 133.892 744.338 138.819 747.509 144.124C750.794 149.618 753.123 155.578 754.408 161.774Z" fill="#263238"/>
<path d="M392.197 670.843C398.896 668.519 550.098 553.941 552.949 546.13C554.032 543.157 537.726 521.317 517.229 495.45C512.811 489.855 508.193 484.098 503.489 478.287C472.929 440.446 439.576 401.172 439.576 401.172L338.204 477.53L404.883 552.563L419.507 569.051C419.507 569.051 382.448 637.462 380.167 646.355C377.886 655.247 385.498 673.168 392.197 670.843Z" fill="#D3766A"/>
<path d="M392.197 670.844C398.896 668.519 550.099 553.942 552.949 546.13C554.261 542.509 529.916 510.993 503.489 478.287L404.883 552.563L419.507 569.051C419.507 569.051 382.448 637.462 380.167 646.355C377.887 655.248 385.498 673.168 392.197 670.844Z" fill="white"/>
<path d="M392.197 670.844C398.896 668.519 550.098 553.942 552.949 546.131C554.032 543.158 537.726 521.318 517.23 495.451L419.507 569.133C419.507 569.133 382.448 637.544 380.167 646.437C377.887 655.329 385.498 673.168 392.197 670.844Z" fill="#F66D1D"/>
<path d="M389.517 663.465C414.375 643.68 516.573 566.16 542.715 548.293C542.943 548.131 543.057 548.293 542.857 548.293C518.683 568.43 415.829 645.274 389.859 663.735C389.317 664.249 389.003 663.898 389.517 663.465Z" fill="#263238"/>
<path d="M385.553 633.84C388.309 631.633 391.518 629.993 394.979 629.025C398.439 628.057 402.073 627.782 405.651 628.218C412.102 628.938 418.008 631.999 422.129 636.76C422.129 636.895 421.958 637.111 421.815 636.976C416.941 632.871 410.794 630.375 404.297 629.863C397.8 629.351 391.303 630.851 385.781 634.138C385.74 634.154 385.694 634.156 385.651 634.145C385.608 634.133 385.571 634.108 385.544 634.074C385.518 634.04 385.505 633.998 385.506 633.956C385.508 633.913 385.524 633.873 385.553 633.84Z" fill="#263238"/>
<path d="M411.696 578.89C421.731 571.052 436.355 565.538 449.297 568.647C449.782 568.647 449.611 569.43 449.297 569.512C436.711 571.822 424.421 575.401 412.637 580.188C412.455 580.306 412.232 580.351 412.015 580.313C411.799 580.275 411.607 580.157 411.482 579.985C411.358 579.813 411.31 579.601 411.35 579.396C411.39 579.191 411.515 579.009 411.696 578.89Z" fill="#263238"/>
<path d="M406.306 587.702C416.341 579.89 430.965 574.376 443.907 577.458C444.392 577.593 444.221 578.269 443.907 578.35C431.321 580.66 419.031 584.239 407.247 589.026C407.061 589.145 406.834 589.188 406.615 589.148C406.396 589.107 406.203 588.986 406.078 588.81C405.953 588.634 405.907 588.419 405.95 588.211C405.993 588.003 406.121 587.82 406.306 587.702Z" fill="#263238"/>
<path d="M400.92 596.54C410.954 588.729 425.578 583.215 438.521 586.297C439.005 586.297 438.834 587.08 438.521 587.162C425.925 589.499 413.633 593.124 401.861 597.973C401.761 598.031 401.651 598.071 401.536 598.089C401.42 598.107 401.302 598.104 401.189 598.078C401.075 598.053 400.967 598.007 400.872 597.943C400.777 597.878 400.696 597.797 400.635 597.703C400.573 597.609 400.531 597.504 400.512 597.395C400.493 597.285 400.497 597.173 400.523 597.066C400.55 596.958 400.598 596.856 400.666 596.766C400.734 596.676 400.821 596.599 400.92 596.54Z" fill="#263238"/>
<path d="M395.531 605.379C405.565 597.541 420.19 592.027 433.104 595.108C433.617 595.243 433.417 595.919 433.104 596C420.516 598.306 408.226 601.886 396.443 606.677C396.262 606.791 396.04 606.833 395.826 606.792C395.612 606.752 395.424 606.632 395.303 606.46C395.182 606.288 395.138 606.078 395.181 605.875C395.223 605.672 395.349 605.494 395.531 605.379Z" fill="#263238"/>
<path d="M517.03 530.346C528.433 521.75 542.544 538.454 531.113 547.158C519.681 555.861 505.598 538.968 517.03 530.346Z" fill="white"/>
<path d="M379.113 561.51C380.823 553.591 390.516 552.645 397.329 554.429C408.756 557.712 419.07 563.79 427.233 572.052C427.274 572.082 427.308 572.121 427.331 572.165C427.354 572.21 427.366 572.259 427.366 572.308C427.366 572.358 427.354 572.407 427.331 572.452C427.308 572.496 427.274 572.535 427.233 572.565C427.337 572.778 427.388 573.01 427.383 573.244C427.379 573.478 427.318 573.709 427.205 573.917C427.092 574.126 426.931 574.307 426.733 574.447C426.535 574.588 426.306 574.684 426.064 574.728C414.832 575.457 402.945 577.566 391.856 574.998C385.299 573.511 377.46 569.133 379.113 561.51ZM408.789 572.538C414.319 572.295 419.792 571.808 425.323 571.754C419.479 568.349 413.92 564.7 407.591 561.835C404.619 560.421 401.553 559.193 398.412 558.159C393.537 556.672 376.804 556.159 384.615 567.403C388.919 573.592 402.204 572.809 408.789 572.538Z" fill="#263238"/>
<path d="M455.481 556.51C447.727 564.484 436.61 568.998 426.974 574.296C426.75 574.396 426.504 574.444 426.257 574.437C426.009 574.429 425.767 574.366 425.55 574.253C425.333 574.139 425.147 573.979 425.008 573.784C424.87 573.59 424.781 573.367 424.751 573.134C424.523 573.134 424.323 572.998 424.38 572.755C426.327 561.572 431.352 551.073 438.947 542.32C443.451 537.293 452.146 532.941 458.247 538.617C464.347 544.293 460.014 551.861 455.481 556.51ZM456.992 546.402C456.992 532.887 443.28 542.185 440.116 545.996C438.096 548.5 436.267 551.138 434.643 553.889C431.36 559.609 428.382 565.482 425.72 571.485C430.338 568.593 435.184 566.079 439.974 563.376C445.561 560.159 457.049 553.808 456.992 546.402Z" fill="#263238"/>
<path d="M235.807 330.707C242.734 380.63 372.641 524.804 387.55 541.346L390.971 545.103L498.329 466.853L497.103 465.339L402.545 347.978L684.566 346.411L577.494 267.458C577.494 267.458 568.799 272.215 550.754 269.702C488.494 261.079 348.182 241.943 315.085 243.213C272.41 244.781 229.421 284.865 235.807 330.707Z" fill="#37474F"/>
<path d="M368.592 304.246C372.087 308.015 375.343 311.977 378.342 316.111C381.678 320.274 385.07 324.382 388.405 328.545C387.807 327.328 387.237 326.112 386.609 324.896C384.5 320.76 382.818 316.49 380.338 312.544C380.314 312.497 380.308 312.444 380.322 312.394C380.336 312.344 380.368 312.301 380.413 312.271C380.458 312.242 380.512 312.229 380.566 312.234C380.62 312.239 380.671 312.263 380.708 312.3C383.274 316.247 386.239 319.977 388.434 324.112C389.489 326.058 390.458 328.004 391.285 330.004C391.769 331.113 392.282 332.221 392.739 333.329C392.968 333.85 393.168 334.382 393.337 334.924C394.848 336.843 396.188 338.789 397.756 340.762C400.949 345.141 403.743 349.763 406.964 354.087C407.135 354.331 406.764 354.547 406.565 354.331C403.315 350.249 399.666 346.438 396.331 342.384C392.995 338.329 389.774 334.032 386.609 329.761C383.445 325.491 380.509 321.409 377.43 317.22C374.045 313.118 370.932 308.821 368.108 304.354C368.222 304.381 368.45 304.246 368.592 304.246Z" fill="#263238"/>
<path d="M627.467 173.938C612.216 201.697 553.776 290.515 521.05 294.11C499.584 296.461 415.573 280.758 402.831 260.351C397.329 251.458 414.091 194.589 425.18 197.94C436.27 201.292 503.461 216.158 512.07 214.644C520.679 213.131 590.436 150.558 615.608 135.746C658.996 110.23 635.677 158.991 627.467 173.938Z" fill="#D3766A"/>
<path d="M451.322 196.129L440.49 282.92C440.49 282.92 506.598 300.84 536.445 292.975C572.734 283.434 631.516 182.155 639.755 165.532C653.267 138.07 651.158 120.852 634.338 124.042C627.782 125.231 619.03 129.448 608.083 137.557C596.68 145.936 530.515 200.778 510.133 210.536C498.758 216.266 451.322 196.129 451.322 196.129Z" fill="#455A64"/>
<path d="M451.321 196.129L440.488 282.947C440.488 282.947 451.463 285.92 466.487 288.894C488.323 293.245 518.74 297.624 536.443 292.975C572.704 283.434 631.514 182.155 639.753 165.505C649.531 145.665 651.156 131.151 644.856 125.853C643.378 124.775 641.65 124.046 639.816 123.726C637.982 123.406 636.094 123.505 634.308 124.015C627.808 125.231 619.028 129.421 608.081 137.53C596.679 145.909 530.542 200.778 510.159 210.671C498.757 216.293 451.321 196.129 451.321 196.129Z" fill="#F66D1D"/>
<path d="M457.336 282.622C459.36 269.837 465.546 217.265 466.06 205.805C466.06 205.021 465.575 204.805 465.432 205.616C458.448 243.781 458.106 269.891 456.88 282.514C456.795 282.838 457.308 282.947 457.336 282.622Z" fill="#263238"/>
<path d="M639.753 165.532C631.543 182.263 572.704 283.487 536.472 293.002C527.52 295.353 515.291 295.38 502.577 294.326L636.56 123.744C638.023 123.519 639.521 123.594 640.951 123.962C642.382 124.33 643.713 124.984 644.856 125.88C651.127 131.259 649.588 145.692 639.753 165.532Z" fill="#263238"/>
<path d="M740.441 335.816L568.942 294.272L585.847 235.565C585.847 235.565 572.278 217.158 578.065 199.589C583.196 183.939 622.308 137.421 630.204 131.178C643.745 120.555 667.976 116.987 681.232 131.826C735.909 192.939 740.441 335.816 740.441 335.816Z" fill="#F66D1D"/>
<path opacity="0.1" d="M639.61 125.664L685.221 136.475C683.938 134.881 682.627 133.34 681.287 131.826L680.347 130.826L647.62 123.15C644.87 123.74 642.188 124.582 639.61 125.664ZM628.862 132.34L693.232 147.666C693.517 148.125 693.83 148.584 694.087 149.044L627.865 133.286L628.862 132.34ZM620.567 141.043L700.387 159.964C701.271 161.64 702.155 163.369 703.01 165.099L617.26 144.773C618.4 143.449 619.512 142.206 620.567 141.043ZM610.732 152.45L707.97 175.587L708.54 176.884L609.905 153.45L610.732 152.45ZM603.463 161.396L712.759 187.399C713.386 189.056 713.985 190.705 714.555 192.345L600.526 165.316C601.439 163.91 602.465 162.64 603.463 161.396ZM594.483 173.019L718.005 202.4C718.164 202.806 718.297 203.222 718.404 203.643L593.827 173.911C593.998 173.695 594.255 173.37 594.483 173.019ZM587.983 182.128L721.454 213.887C721.882 215.482 722.338 217.104 722.794 218.699L585.36 186.02C586.187 184.777 587.042 183.479 587.983 182.128ZM580.514 194.129L725.302 228.564C725.302 228.97 725.502 229.402 725.616 229.808L579.973 195.156C580.124 194.801 580.305 194.457 580.514 194.129ZM577.008 203.941L727.925 239.835L728.951 244.593L576.637 208.373C576.634 206.889 576.758 205.406 577.008 203.941ZM730.947 254.296C730.947 254.701 731.118 255.134 731.175 255.539L578.177 219.158C578.177 218.725 577.949 218.32 577.863 217.888L730.947 254.296ZM732.942 265.432C733.199 267.027 733.455 268.595 733.684 270.135L585.446 234.862C584.314 233.167 583.276 231.417 582.339 229.618L732.942 265.432ZM583.593 243.674L735.109 279.731L735.28 280.947L583.194 244.782L583.593 243.674ZM580.742 253.647L736.506 290.732C736.705 292.326 736.905 293.867 737.076 295.381L579.431 257.864L580.742 253.647ZM577.036 266.54L738.131 304.868C738.131 305.273 738.131 305.679 738.131 306.084L576.495 267.649L577.036 266.54ZM574.186 276.514L739.128 315.761C739.128 317.383 739.385 318.923 739.499 320.356L572.846 280.731L574.186 276.514ZM570.48 289.38L740.098 329.762C740.098 330.167 740.098 330.573 740.098 330.951L569.938 290.407L570.48 289.38Z" fill="black"/>
<path d="M607.34 155.262C603.035 160.343 598.36 165.208 593.913 170.209C595.88 166.533 597.847 162.884 599.985 159.397C599.985 159.397 599.985 159.262 599.985 159.397C596.767 163.623 594.016 168.152 591.775 172.912C588.432 176.659 585.383 180.634 582.653 184.804C579.266 189.658 576.833 195.051 575.469 200.725C574.396 206.503 574.659 212.432 576.239 218.104C578.138 224.674 580.677 231.062 583.822 237.187C584.221 237.998 585.503 237.403 585.19 236.592C580.971 225.781 576.21 214.374 578.092 202.779C579.973 191.183 587.157 181.345 594.17 171.966C598.318 166.21 602.85 160.712 607.739 155.505C607.939 155.316 607.511 155.045 607.34 155.262Z" fill="#263238"/>
<path d="M611.161 227.861C619.005 230.568 626.628 233.82 633.966 237.592C637.587 239.538 641.065 241.592 644.514 243.755C646.253 244.836 647.992 245.836 649.759 246.836C651.533 247.961 653.448 248.869 655.461 249.539C655.499 249.539 655.535 249.553 655.562 249.579C655.588 249.604 655.604 249.638 655.604 249.674C655.604 249.71 655.588 249.744 655.562 249.77C655.535 249.795 655.499 249.809 655.461 249.809C653.466 249.41 651.504 248.877 649.588 248.214C647.761 247.508 645.98 246.696 644.258 245.782C640.58 243.863 637.017 241.782 633.339 239.835C625.956 235.889 618.601 231.943 610.932 228.51C610.533 228.294 610.79 227.726 611.161 227.861Z" fill="#263238"/>
<path d="M589.466 229.537C596.28 230.567 603.027 231.957 609.678 233.7C613.013 234.565 616.234 235.619 619.456 236.781C620.995 237.322 622.506 237.889 624.017 238.484C625.528 239.079 627.295 239.998 628.948 240.619C629.148 240.619 628.948 240.944 628.948 240.89C627.324 240.349 625.642 240.052 623.988 239.592L619.085 238.214C615.778 237.295 612.5 236.403 609.222 235.511C602.665 233.619 596.108 231.807 589.466 230.105C588.953 229.969 589.096 229.483 589.466 229.537Z" fill="#263238"/>
<path d="M663.84 131.394C662.814 134.313 645.852 152.369 631.513 150.449C626.866 149.828 629.346 125.501 629.346 125.501L629.09 123.691L625.64 97.9857L658.68 81.7681L663.412 79.6328C663.412 79.6328 663.869 86.7415 664.353 95.553V96.8234C664.353 97.3099 664.353 97.7965 664.353 98.256C664.353 99.5804 664.524 100.959 664.581 102.256C664.638 103.554 664.581 104.283 664.581 105.365V108.554C664.885 116.174 664.638 123.806 663.84 131.394Z" fill="#D3766A"/>
<path d="M664.324 95.5799C660.951 102.412 656.05 108.466 649.96 113.32C643.87 118.174 636.739 121.713 629.061 123.69L625.612 97.9855L658.651 81.7681L663.383 79.6328C663.383 79.6328 663.84 86.7685 664.324 95.5799Z" fill="#263238"/>
<path d="M591.72 52.0892C579.49 96.0388 605.973 107.959 615.865 110.445C624.931 112.716 656.146 119.311 673.108 76.794C690.069 34.2769 672.395 15.0321 651.927 8.81536C631.459 2.59863 603.978 8.16668 591.72 52.0892Z" fill="#D3766A"/>
<path d="M599.986 50.1708C601.087 50.225 602.191 50.225 603.292 50.1708C604.461 50.294 605.64 50.057 606.656 49.495C606.936 49.2556 607.127 48.9363 607.199 48.5852C607.27 48.2342 607.22 47.8705 607.055 47.549C606.618 46.9692 606.026 46.5108 605.339 46.2209C604.652 45.931 603.897 45.8203 603.15 45.9002C601.605 45.829 600.089 46.3115 598.902 47.2517C598.667 47.4826 598.504 47.7711 598.431 48.085C598.359 48.3988 598.38 48.7256 598.493 49.0286C598.605 49.3317 598.804 49.599 599.068 49.8008C599.332 50.0025 599.649 50.1306 599.986 50.1708Z" fill="#263238"/>
<path d="M632.797 54.5223C631.756 54.1728 630.738 53.7667 629.746 53.3061C628.615 53.024 627.614 52.3972 626.896 51.5222C626.73 51.2007 626.68 50.837 626.752 50.486C626.824 50.135 627.015 49.8157 627.295 49.5762C627.926 49.1886 628.654 48.9668 629.406 48.9336C630.157 48.9003 630.904 49.0568 631.571 49.3871C633.027 49.8518 634.247 50.8158 634.992 52.0898C635.173 52.3942 635.252 52.7442 635.216 53.0923C635.181 53.4404 635.033 53.7697 634.793 54.0354C634.553 54.3012 634.233 54.4904 633.876 54.5775C633.519 54.6647 633.142 54.6454 632.797 54.5223Z" fill="#263238"/>
<path d="M624.132 61.8472C624.132 61.8472 624.36 62.0634 624.332 62.1715C623.534 65.1718 623.163 68.7397 625.814 70.2803C625.814 70.2803 625.814 70.4966 625.814 70.4425C622.336 69.3073 622.878 64.5771 624.132 61.8472Z" fill="#263238"/>
<path d="M627.696 59.279C632.912 59.9547 631.117 69.7936 626.271 69.1719C621.425 68.5502 623.335 58.7114 627.696 59.279Z" fill="#263238"/>
<path d="M629.634 60.1441C630.432 60.8469 631.145 61.9822 632.228 62.2525C633.311 62.5228 634.622 61.7119 635.62 60.8469C635.62 60.8469 635.791 60.8469 635.791 61.0091C635.449 62.9012 634.337 64.6852 632.171 64.6312C630.005 64.5771 629.064 62.6579 628.921 60.6847C628.893 60.3063 629.32 59.8468 629.634 60.1441Z" fill="#263238"/>
<path d="M605.401 57.6035C605.401 57.6035 605.144 57.6035 605.115 57.8468C604.688 60.9011 603.633 64.3608 600.554 64.9014V65.0907C604.175 65.1717 605.515 60.5767 605.401 57.6035Z" fill="#263238"/>
<path d="M603.092 53.9819C597.989 52.7926 595.851 62.5771 600.583 63.6583C605.315 64.7394 607.396 54.982 603.092 53.9819Z" fill="#263238"/>
<path d="M600.811 54.1987C599.87 54.5501 598.872 55.334 597.96 55.1988C597.048 55.0637 596.221 53.8203 595.708 52.6851C595.708 52.5499 595.708 52.6851 595.537 52.6851C595.081 54.5231 595.309 56.6043 597.105 57.3341C598.901 58.0639 600.383 56.6584 601.267 54.8745C601.353 54.6312 601.124 54.0366 600.811 54.1987Z" fill="#263238"/>
<path d="M618.229 87.7684C617.374 88.4171 616.462 89.3091 615.378 89.255C614.184 89.0788 613.039 88.6741 612.015 88.0657C612.015 88.0657 611.787 88.0657 611.844 88.0657C612.224 88.7242 612.785 89.2728 613.468 89.6534C614.15 90.0341 614.929 90.2327 615.72 90.2281C616.39 90.1309 617.015 89.8521 617.521 89.4252C618.027 88.9983 618.392 88.4416 618.571 87.8224C618.742 87.7954 618.514 87.6873 618.229 87.7684Z" fill="#263238"/>
<path d="M607.142 74.4963C607.142 74.4963 605.574 78.929 605.146 81.0643C605.146 81.2535 605.631 81.4698 606.4 81.632C608.274 82.3138 610.309 82.4904 612.282 82.1421C614.254 81.7939 616.087 80.9343 617.575 79.6589C617.615 79.6233 617.64 79.5756 617.645 79.5242C617.651 79.4729 617.637 79.4213 617.606 79.3789C617.575 79.3365 617.529 79.306 617.476 79.2929C617.424 79.2798 617.368 79.2849 617.319 79.3075C614.066 80.6677 610.438 80.9994 606.971 80.2535C606.971 79.6318 609.821 72.7394 609.565 72.6583C607.777 72.4967 605.975 72.5603 604.205 72.8475C607.056 63.5495 611.674 54.7651 614.468 45.4401C614.495 45.3697 614.492 45.2923 614.461 45.2235C614.431 45.1546 614.373 45.0993 614.302 45.0686C614.23 45.038 614.148 45.0341 614.073 45.0579C613.999 45.0816 613.936 45.1312 613.898 45.1968C608.759 54.4748 604.614 64.2179 601.526 74.2801C601.127 75.4153 606.144 74.6314 607.142 74.4963Z" fill="#263238"/>
<path d="M672.622 79.2533C669.727 77.5064 667.356 75.0813 665.739 72.212C664.121 69.3428 663.31 66.1264 663.386 62.8736C655.431 58.5441 648.845 52.2719 644.315 44.71C644.514 45.6831 646.054 52.6566 646.937 56.1974C617.261 47.6562 610.42 24.6814 610.42 24.6814C604.041 29.1333 598.799 34.8883 595.083 41.5206C595.083 41.5206 596.936 23.8706 607.854 13.0589C611.43 9.27017 616.007 6.45396 621.113 4.90039C626.219 3.34683 631.669 3.11207 636.903 4.22033C644.585 3.28046 652.393 4.32359 659.503 7.23971C666.612 10.1558 672.76 14.8369 677.298 20.7892C694.63 43.2234 672.622 79.2533 672.622 79.2533Z" fill="#263238"/>
<path d="M624.445 49.0348C629.025 52.0733 634.061 54.4422 639.383 56.0623C631.122 52.96 623.936 47.7375 618.63 40.9801C616.382 38.0939 614.524 34.9521 613.099 31.6281C611.351 28.0555 610.382 24.1851 610.248 20.2489C610.248 19.9515 609.792 19.9515 609.792 20.2489C609.466 24.1443 609.832 28.064 610.876 31.8443C612.102 35.5515 614.034 39.0143 616.577 42.0613C618.848 44.7422 621.495 47.1158 624.445 49.1159" fill="#263238"/>
<path d="M664.781 78.3346C664.781 78.3346 677.638 66.0633 683.71 70.6313C689.782 75.1992 678.293 94.2008 669.941 95.6874C668.882 95.9473 667.779 96.0011 666.698 95.8458C665.617 95.6904 664.581 95.329 663.651 94.7834C662.721 94.2379 661.918 93.5194 661.289 92.6713C660.66 91.8233 660.219 90.8632 659.992 89.8491L664.781 78.3346Z" fill="#D3766A"/>
<path d="M680.291 76.0102V76.1994C674.39 77.4158 670.599 81.7946 667.662 86.4708C668.083 86.0033 668.605 85.6278 669.193 85.3703C669.781 85.1128 670.421 84.9795 671.069 84.9795C671.717 84.9795 672.357 85.1128 672.945 85.3703C673.533 85.6278 674.055 86.0033 674.476 86.4708C674.476 86.4708 674.476 86.7682 674.276 86.7141C673.361 86.2666 672.324 86.0966 671.304 86.2272C670.284 86.3577 669.331 86.7825 668.575 87.4439C667.318 88.5714 666.19 89.8217 665.211 91.174C664.869 91.6065 664.042 91.1741 664.327 90.6875C665.467 83.8489 672.623 75.4426 680.291 76.0102Z" fill="#263238"/>
<path d="M701.098 154.368C726.754 192.479 756.117 253.322 756.915 296.353C757.314 317.355 719 336.437 705.032 330.085C672.249 315.084 626.58 280.649 608.621 257.944C602.264 249.835 670.139 196.02 675.128 205.642C680.117 215.265 683.195 220.887 688.184 224.563C690.636 226.374 676.211 198.074 668.942 158.449C659.05 104.363 691.805 140.556 701.098 154.368Z" fill="#D3766A"/>
<path d="M621.449 113.203C621.449 113.203 632.082 100.715 622.504 94.5526C612.926 88.3899 604.573 102.283 604.573 102.283L621.449 113.203Z" fill="#FF91B4"/>
<path d="M604.984 101.854L621.844 112.762L554.774 205.952L537.914 195.043L604.984 101.854Z" fill="#F66D1D"/>
<path opacity="0.2" d="M604.984 101.854L621.844 112.762L554.774 205.952L537.914 195.043L604.984 101.854Z" fill="black"/>
<path d="M603.92 100.406L623.605 113.143L620.938 116.849L601.253 104.112L603.92 100.406Z" fill="#37474F"/>
<path d="M601.007 104.506L620.692 117.243L618.025 120.949L598.34 108.212L601.007 104.506Z" fill="#37474F"/>
<path d="M537.869 194.939L535.93 210.562L535.275 215.697L540.121 213.265L554.745 205.859V202.453L551.41 203.696V200.264L548.046 201.507V198.101L544.654 199.318V195.912L541.29 197.128V193.723L537.869 194.939Z" fill="white"/>
<path d="M535.93 210.562L535.274 215.698L540.12 213.265L535.93 210.562Z" fill="#37474F"/>
<path d="M572.876 128.204C566.804 136.151 588.726 148.665 588.726 148.665C584.276 148.491 579.905 149.812 576.382 152.395C570.367 157.206 575.698 168.234 575.698 168.234C571.04 168.966 566.726 171.02 563.326 174.127C558.081 179.289 561.787 191.128 561.787 191.128C557.9 194.052 555.258 198.208 554.346 202.832C552.408 215.238 568.828 226.672 577.523 235.672C586.844 245.295 605.117 254.458 612.187 261.458L677.297 210.616C677.297 210.616 656.458 160.45 638.185 146.935C628.008 139.367 582.141 116.068 572.876 128.204Z" fill="#D3766A"/>
<path d="M589.067 148.557C602.352 152.989 614.467 160.395 626.127 167.693C626.383 167.855 626.127 168.234 625.842 168.072C614.439 160.693 600.556 156.044 588.782 149.151C588.699 149.115 588.634 149.05 588.602 148.969C588.57 148.888 588.573 148.798 588.611 148.719C588.649 148.64 588.718 148.579 588.804 148.548C588.889 148.518 588.984 148.521 589.067 148.557Z" fill="#263238"/>
<path d="M576.608 167.612C579.519 168.903 582.241 170.548 584.704 172.504C587.555 174.396 590.149 176.369 592.8 178.37C598.16 182.334 603.396 186.451 608.508 190.722C608.736 190.911 608.508 191.263 608.251 191.1C602.92 187.127 597.533 183.235 592.002 179.478C589.151 177.586 586.5 175.748 583.707 173.883C580.968 172.351 578.416 170.538 576.095 168.477C575.974 168.412 575.885 168.305 575.848 168.178C575.81 168.052 575.827 167.916 575.896 167.801C575.964 167.687 576.077 167.602 576.211 167.567C576.344 167.531 576.487 167.548 576.608 167.612Z" fill="#263238"/>
<path d="M562.014 191.29C564.626 192.49 567.006 194.098 569.055 196.047C571.45 197.912 573.844 199.778 576.267 201.616C581.085 205.292 585.931 208.968 590.892 212.427C591.148 212.59 590.891 212.968 590.606 212.806C585.561 209.238 580.429 205.751 575.412 202.156C572.932 200.399 570.48 198.615 568.029 196.75C565.631 195.307 563.518 193.478 561.786 191.344C561.786 191.344 561.871 191.263 562.014 191.29Z" fill="#263238"/>
<path d="M641.746 149.963C636.735 144.108 629.949 139.852 622.305 137.773C621.991 137.773 621.991 137.773 622.305 137.989C629.257 141.229 635.751 145.289 641.632 150.071L641.746 149.963Z" fill="#263238"/>
<path d="M605.401 269.269L676.185 203.183L686.989 221.752C686.989 221.752 670.854 180.424 666.749 157.882C662.644 135.34 663.328 108.905 693.489 142.691C723.022 175.775 762.59 271.216 760.566 295.947C758.542 320.679 725.36 335.653 708.654 332.815C691.949 329.977 605.401 269.269 605.401 269.269Z" fill="#F66D1D"/>
<path d="M623.931 276.406C633.823 267.513 672.878 229.726 680.746 221.023C681.288 220.401 681.003 219.942 680.347 220.509C650.044 246.457 632.797 266.81 623.589 276C623.304 276.243 623.618 276.622 623.931 276.406Z" fill="#263238"/>
<path d="M737.618 288.704C733.798 282.433 729.351 276.405 725.103 270.351C720.856 264.296 716.551 258.161 712.104 252.214C707.657 246.268 702.811 240.457 698.022 234.645C695.655 231.726 691.009 226.05 688.614 223.158C686.22 220.266 685.992 220.942 688.244 224.077C690.496 227.212 694.829 232.888 696.995 235.916C701.243 241.862 705.547 247.863 709.795 253.728C714.043 259.593 718.775 265.405 723.307 271.216C727.84 277.027 732.259 283.19 737.133 288.92C737.333 289.163 737.76 288.974 737.618 288.704Z" fill="#263238"/>
<path d="M681.117 201.237C678.665 194.399 675.7 187.722 673.79 180.641C673.79 180.37 673.249 180.479 673.334 180.641C674.76 185.263 675.871 189.939 677.154 194.588C677.02 194.405 676.897 194.215 676.784 194.02C675.672 192.236 674.588 190.398 673.534 188.614C673.391 188.371 672.992 188.614 673.135 188.858C674.104 190.723 675.073 192.615 675.985 194.507C676.632 196.067 677.444 197.561 678.408 198.967C678.722 199.967 679.007 200.967 679.349 201.967C681.552 208.835 684.267 215.546 687.474 222.049C687.53 222.123 687.61 222.177 687.702 222.202C687.795 222.227 687.893 222.222 687.982 222.188C688.071 222.154 688.145 222.092 688.192 222.013C688.24 221.934 688.258 221.842 688.243 221.752C686.134 214.887 683.597 208.021 681.117 201.237Z" fill="#263238"/>
<path d="M676.727 202.804C676.499 202.453 674.76 204.183 673.877 205.102C673.734 205.237 673.877 205.318 674.133 205.102C674.39 204.885 675.359 204.453 675.901 204.021C677.554 207.156 686.734 221.941 687.304 222.59C687.874 223.238 687.874 222.589 687.731 222.211C687.332 220.67 678.78 206.021 676.727 202.804Z" fill="#263238"/>
<path d="M685.421 321.301C665.01 307.165 644.2 293.488 622.905 280.541C617.203 276.974 611.502 273.162 605.801 269.459C606.428 269.081 612.186 263.297 612.357 263.08C612.528 262.864 612.357 262.81 612.357 262.918C611.702 263.432 604.347 269.081 603.805 269.73C603.263 270.378 625.157 284.136 635.391 291.002C645.625 297.867 656.372 304.381 667.005 310.868C673.049 314.544 679.121 318.166 685.278 321.68C685.449 321.815 685.649 321.463 685.421 321.301Z" fill="#263238"/>
<path d="M453.202 292.271L559.961 301.029L521.932 167.072L415.173 158.314L453.202 292.271Z" fill="#EBEBEB"/>
<path d="M445.874 291.677L552.662 300.407L514.634 166.45L407.874 157.72L445.874 291.677Z" fill="#F66D1D"/>
<path d="M503.288 165.532C503.815 167.863 505.29 169.902 507.393 171.208C508.362 171.803 508.733 170.559 507.792 169.992C506.422 169.152 505.411 167.878 504.941 166.397C504.858 166.158 504.791 165.914 504.741 165.667C504.51 164.853 504.51 163.995 504.741 163.181C504.855 162.839 505.086 162.544 505.397 162.343H505.54C505.605 162.357 505.674 162.357 505.739 162.343C505.979 162.264 506.24 162.264 506.48 162.343C506.932 162.547 507.33 162.842 507.649 163.208C508.026 163.645 508.342 164.127 508.59 164.64C508.59 164.883 508.847 165.154 508.989 165.424V165.586V165.856C508.998 165.919 508.998 165.983 508.989 166.046L510.5 166.181C510.223 165.231 509.811 164.322 509.274 163.478C508.875 162.787 508.321 162.186 507.651 161.72C506.981 161.253 506.212 160.93 505.397 160.775C504.798 160.713 504.197 160.872 503.719 161.219C503.241 161.567 502.923 162.076 502.832 162.64C502.727 163.625 502.884 164.619 503.288 165.532Z" fill="#455A64"/>
<path d="M494.937 164.856C495.464 167.187 496.939 169.226 499.042 170.532C500.011 171.127 500.382 169.883 499.413 169.316C498.059 168.46 497.053 167.192 496.562 165.721C496.562 165.478 496.419 165.208 496.391 164.991C496.161 164.177 496.161 163.319 496.391 162.505C496.509 162.159 496.751 161.862 497.075 161.667H497.303C497.543 161.591 497.804 161.591 498.044 161.667C498.49 161.855 498.881 162.142 499.184 162.505C499.724 163.199 500.174 163.952 500.524 164.748V164.91C500.531 165 500.531 165.09 500.524 165.18C500.537 165.243 500.537 165.307 500.524 165.37H502.035C501.754 164.421 501.342 163.512 500.809 162.667C500.41 161.976 499.856 161.375 499.186 160.909C498.517 160.442 497.747 160.119 496.932 159.964C496.334 159.902 495.733 160.061 495.255 160.408C494.777 160.756 494.459 161.265 494.367 161.829C494.274 162.868 494.47 163.912 494.937 164.856Z" fill="#455A64"/>
<path d="M486.584 164.18C487.1 166.501 488.566 168.532 490.661 169.829C491.63 170.45 492.029 169.207 491.06 168.612C489.714 167.76 488.71 166.503 488.209 165.045C488.139 164.795 488.082 164.543 488.038 164.288C487.808 163.473 487.808 162.616 488.038 161.801C488.173 161.463 488.411 161.171 488.722 160.963H488.922C489.186 160.944 489.452 160.991 489.692 161.098C490.141 161.28 490.534 161.569 490.832 161.936C491.228 162.36 491.546 162.845 491.773 163.369C491.934 163.616 492.068 163.879 492.172 164.153V164.342C492.188 164.431 492.188 164.523 492.172 164.612C492.172 164.612 492.172 164.612 492.172 164.774L493.683 164.909C493.402 163.961 492.99 163.052 492.457 162.206C492.049 161.522 491.492 160.927 490.824 160.461C490.155 159.995 489.391 159.669 488.58 159.504C487.978 159.449 487.377 159.614 486.9 159.966C486.423 160.318 486.106 160.829 486.014 161.396C485.95 162.354 486.146 163.313 486.584 164.18Z" fill="#455A64"/>
<path d="M478.232 163.478C478.482 164.632 478.971 165.728 479.671 166.703C480.37 167.677 481.267 168.51 482.308 169.154C483.277 169.748 483.677 168.505 482.707 167.937C481.345 167.09 480.337 165.818 479.856 164.343C479.783 164.103 479.726 163.859 479.685 163.613C479.456 162.798 479.456 161.941 479.685 161.126C479.81 160.783 480.051 160.489 480.37 160.288H480.512H480.712C480.954 160.224 481.211 160.224 481.453 160.288C481.909 160.486 482.309 160.782 482.622 161.153C483.008 161.584 483.325 162.067 483.562 162.586C483.712 162.839 483.846 163.101 483.962 163.37V163.532V163.802C483.962 163.802 483.962 163.802 483.962 163.991L485.501 164.126C485.224 163.177 484.812 162.267 484.275 161.423C483.867 160.739 483.31 160.144 482.642 159.678C481.974 159.212 481.209 158.886 480.398 158.721C479.796 158.658 479.192 158.816 478.709 159.163C478.226 159.51 477.902 160.019 477.804 160.586C477.691 161.568 477.838 162.562 478.232 163.478Z" fill="#455A64"/>
<path d="M469.85 162.802C470.377 165.133 471.852 167.172 473.955 168.478C474.924 169.073 475.323 167.83 474.354 167.262C472.992 166.414 471.984 165.143 471.503 163.667C471.503 163.424 471.361 163.154 471.332 162.937C471.102 162.123 471.102 161.265 471.332 160.451C471.441 160.1 471.686 159.801 472.016 159.613H472.216C472.456 159.534 472.717 159.534 472.957 159.613C473.411 159.8 473.812 160.087 474.126 160.451C474.503 160.898 474.819 161.388 475.067 161.91C475.209 162.153 475.323 162.424 475.466 162.694V162.856C475.488 162.945 475.488 163.038 475.466 163.127C475.466 163.127 475.466 163.127 475.466 163.316H476.977C476.714 162.366 476.311 161.456 475.779 160.613C475.38 159.922 474.826 159.321 474.156 158.855C473.487 158.388 472.717 158.065 471.902 157.91C471.299 157.84 470.691 157.996 470.206 158.344C469.722 158.692 469.4 159.205 469.308 159.775C469.206 160.812 469.393 161.856 469.85 162.802Z" fill="#455A64"/>
<path d="M461.441 162.126C461.97 164.449 463.445 166.479 465.546 167.775C466.516 168.396 466.915 167.153 465.945 166.558C464.591 165.715 463.584 164.455 463.095 162.99C463.015 162.741 462.948 162.489 462.895 162.234C462.665 161.428 462.665 160.579 462.895 159.774C463.001 159.422 463.233 159.116 463.551 158.909H464.292C464.548 158.887 464.804 158.934 465.033 159.044C465.493 159.222 465.896 159.511 466.202 159.882C466.579 160.32 466.895 160.801 467.143 161.315C467.143 161.558 467.399 161.828 467.542 162.098V162.288C467.554 162.377 467.554 162.468 467.542 162.558C467.542 162.558 467.542 162.558 467.542 162.72H469.053C468.783 161.773 468.38 160.864 467.855 160.017C467.444 159.335 466.887 158.742 466.219 158.276C465.551 157.81 464.788 157.483 463.978 157.314C463.374 157.259 462.769 157.423 462.287 157.775C461.806 158.126 461.483 158.638 461.384 159.206C461.147 160.169 461.167 161.172 461.441 162.126Z" fill="#455A64"/>
<path d="M453.145 161.45C453.682 163.77 455.156 165.798 457.25 167.099C458.22 167.694 458.59 166.451 457.649 165.883C456.279 165.044 455.269 163.769 454.799 162.288C454.715 162.049 454.649 161.805 454.599 161.558C454.368 160.744 454.368 159.886 454.599 159.072C454.713 158.731 454.943 158.435 455.255 158.234H455.397H455.739C455.982 158.169 456.238 158.169 456.481 158.234C456.936 158.431 457.337 158.727 457.649 159.099C458.026 159.536 458.342 160.018 458.59 160.531C458.733 160.774 458.847 161.045 458.989 161.315V161.504C459 161.585 459 161.667 458.989 161.747C458.999 161.81 458.999 161.874 458.989 161.937H460.5C460.238 160.982 459.825 160.071 459.274 159.234C458.875 158.543 458.321 157.942 457.651 157.475C456.982 157.009 456.212 156.686 455.397 156.531C454.799 156.468 454.198 156.628 453.72 156.975C453.242 157.323 452.924 157.831 452.832 158.396C452.658 159.423 452.766 160.475 453.145 161.45Z" fill="#455A64"/>
<path d="M444.792 160.747C445.319 163.078 446.794 165.117 448.897 166.423C449.867 167.018 450.237 165.775 449.268 165.207C447.914 164.351 446.909 163.083 446.417 161.612C446.417 161.369 446.275 161.098 446.246 160.882C446.016 160.068 446.016 159.21 446.246 158.395C446.365 158.049 446.607 157.753 446.93 157.557H447.158C447.399 157.481 447.659 157.481 447.9 157.557C448.345 157.745 448.737 158.033 449.04 158.395C449.437 158.829 449.755 159.322 449.981 159.855C450.142 160.102 450.276 160.365 450.38 160.639V160.801V161.071C450.392 161.134 450.392 161.198 450.38 161.261H451.891C451.604 160.314 451.192 159.406 450.665 158.558C450.265 157.866 449.712 157.266 449.042 156.799C448.372 156.332 447.603 156.01 446.788 155.855C446.189 155.792 445.588 155.951 445.11 156.299C444.632 156.646 444.314 157.155 444.222 157.72C444.129 158.759 444.326 159.803 444.792 160.747Z" fill="#455A64"/>
<path d="M436.44 160.071C436.955 162.392 438.422 164.424 440.517 165.72C441.486 166.342 441.885 165.099 440.916 164.531C439.574 163.663 438.572 162.399 438.065 160.936C437.994 160.687 437.937 160.434 437.894 160.179C437.664 159.374 437.664 158.525 437.894 157.72C438.021 157.37 438.26 157.068 438.578 156.855H438.892C439.156 156.836 439.421 156.883 439.661 156.99C440.111 157.172 440.504 157.46 440.802 157.828C441.192 158.256 441.51 158.739 441.742 159.26C441.904 159.508 442.038 159.77 442.141 160.044V160.233C442.153 160.323 442.153 160.414 442.141 160.504C442.141 160.504 442.141 160.504 442.141 160.666L443.652 160.801C443.372 159.853 442.959 158.944 442.427 158.098C442.018 157.413 441.462 156.819 440.794 156.353C440.125 155.887 439.361 155.561 438.55 155.395C437.948 155.34 437.347 155.506 436.87 155.857C436.393 156.209 436.076 156.721 435.984 157.287C435.899 158.236 436.055 159.191 436.44 160.071Z" fill="#455A64"/>
<path d="M428.087 159.396C428.602 161.717 430.068 163.749 432.163 165.045C433.132 165.64 433.531 164.397 432.562 163.829C431.208 162.973 430.203 161.705 429.711 160.234C429.638 159.995 429.581 159.751 429.54 159.504C429.311 158.69 429.311 157.832 429.54 157.018C429.665 156.674 429.905 156.38 430.225 156.18H430.424C430.666 156.115 430.923 156.115 431.165 156.18C431.621 156.377 432.021 156.673 432.334 157.045C432.72 157.475 433.037 157.958 433.275 158.477C433.425 158.73 433.558 158.992 433.674 159.261V159.45C433.69 159.54 433.69 159.631 433.674 159.72C433.674 159.72 433.674 159.72 433.674 159.883L435.213 160.018C434.936 159.068 434.524 158.159 433.987 157.315C433.579 156.63 433.022 156.035 432.354 155.57C431.686 155.104 430.921 154.777 430.11 154.612C429.512 154.55 428.911 154.709 428.433 155.056C427.955 155.403 427.637 155.912 427.545 156.477C427.452 157.478 427.639 158.485 428.087 159.396Z" fill="#455A64"/>
<path d="M419.705 158.692C420.232 161.023 421.707 163.063 423.81 164.369C424.779 164.963 425.179 163.72 424.209 163.152C422.848 162.304 421.84 161.033 421.359 159.557C421.288 159.317 421.231 159.074 421.188 158.828C420.958 158.013 420.958 157.155 421.188 156.341C421.297 155.99 421.541 155.691 421.872 155.503H422.071C422.311 155.425 422.572 155.425 422.812 155.503C423.261 155.699 423.66 155.985 423.981 156.341C424.358 156.788 424.674 157.278 424.922 157.8C424.922 158.044 425.179 158.314 425.321 158.584V158.747C425.343 158.835 425.343 158.928 425.321 159.017C425.321 159.017 425.321 159.152 425.321 159.206H426.832C426.577 158.253 426.174 157.342 425.635 156.503C425.235 155.812 424.681 155.212 424.012 154.745C423.342 154.278 422.573 153.955 421.758 153.8C421.154 153.73 420.546 153.886 420.062 154.234C419.578 154.582 419.255 155.095 419.163 155.665C419.061 156.702 419.248 157.746 419.705 158.692Z" fill="#455A64"/>
<path d="M411.352 158.017C411.881 160.34 413.356 162.371 415.458 163.666C416.427 164.288 416.826 163.044 415.857 162.477C414.506 161.617 413.501 160.351 413.006 158.882C413.006 158.639 412.863 158.368 412.806 158.152C412.575 157.338 412.575 156.48 412.806 155.665C412.912 155.306 413.156 154.997 413.491 154.8H413.633H413.833C414.088 154.779 414.345 154.825 414.574 154.935C415.034 155.113 415.437 155.402 415.743 155.773C416.113 156.215 416.429 156.696 416.684 157.206C416.684 157.449 416.94 157.72 417.083 157.99V158.179C417.095 158.269 417.095 158.36 417.083 158.449C417.083 158.449 417.083 158.449 417.083 158.611L418.594 158.747C418.324 157.799 417.921 156.89 417.396 156.044C416.985 155.361 416.428 154.768 415.76 154.302C415.092 153.837 414.329 153.509 413.519 153.341C412.914 153.285 412.309 153.45 411.828 153.801C411.346 154.152 411.023 154.664 410.925 155.233C410.83 156.18 410.977 157.135 411.352 158.017Z" fill="#455A64"/>
<path d="M411.468 189.885C405.995 200.94 392.169 214.698 391.085 223.725C390.73 225.939 391.137 228.203 392.246 230.18C393.356 232.157 395.108 233.742 397.243 234.699C397.243 234.699 387.779 239.24 388.206 247.565C388.434 251.863 395.846 255.296 395.846 255.296C395.846 255.296 388.434 259.242 389.318 266.621C390.002 272.513 397.328 275.081 397.328 275.081C397.328 275.081 392.083 282.001 394.82 287.785C400.35 299.515 454.029 299.272 462.211 280.487C466.03 271.729 452.917 272.378 452.917 272.378C452.917 272.378 471.475 266.972 471.703 256.512C471.931 246.052 454.97 247.971 454.97 247.971C454.97 247.971 472.929 242.565 472.074 231.753C471.133 220.401 454.514 225.104 454.514 225.104C454.514 225.104 466.401 217.373 463.664 209.184C459.189 195.669 436.668 212.806 424.866 210.211L418.253 191.804L411.468 189.885Z" fill="#D3766A"/>
<path d="M400.806 205.967C404.996 195.155 390.715 181.641 393.166 170.829C396.473 155.99 414.147 170.423 418.166 191.939V209.156L400.806 205.967Z" fill="#D3766A"/>
<path d="M398.439 275.648C398.268 275.648 398.211 275.865 398.439 275.892C416.79 280.105 436.058 278.926 453.686 272.513C454.256 272.297 454.114 271.351 453.458 271.459C435.43 275.38 416.896 276.792 398.439 275.648Z" fill="#263238"/>
<path d="M395.589 255.404C395.39 255.404 395.361 255.702 395.589 255.756C413.834 259.783 437.124 258.324 455.625 248.512C456.281 248.16 456.481 247.268 455.625 247.593C442.854 253.242 412.979 256.702 395.589 255.404Z" fill="#263238"/>
<path d="M455.539 224.023C437.408 232.781 418.137 235.159 397.983 234.835C397.698 234.835 397.726 235.186 397.983 235.24C407.789 237.943 420.788 236.808 430.595 235.24C439.855 233.865 448.574 230.211 455.881 224.645C456.137 224.402 455.909 223.834 455.539 224.023Z" fill="#263238"/>
<path d="M0.223175 508.938C2.70328 515.263 124.03 658.275 132.297 660.951C135.404 661.978 158.41 646.436 185.634 626.921C191.506 622.704 197.55 618.298 203.679 613.812C243.389 584.728 284.696 552.915 284.696 552.915L203.821 457.042L125.056 520.48L107.724 534.4C107.724 534.4 35.458 499.262 26.0507 497.343C16.6433 495.424 -2.25696 502.586 0.223175 508.938Z" fill="#D3766A"/>
<path d="M0.222092 508.938C2.70221 515.263 124.029 658.275 132.296 660.951C136.116 662.194 169.355 639.003 203.563 613.812L125.055 520.48L107.723 534.4C107.723 534.4 35.4569 499.262 26.0495 497.343C16.6422 495.424 -2.25804 502.587 0.222092 508.938Z" fill="white"/>
<path d="M0.222733 508.938C2.70285 515.263 124.029 658.275 132.296 660.951C135.403 661.978 158.409 646.436 185.633 626.921L107.694 534.508C107.694 534.508 35.429 499.37 26.0217 497.451C16.6144 495.532 -2.25737 502.586 0.222733 508.938Z" fill="#F66D1D"/>
<path d="M8.0055 506.371C28.9584 529.886 111.145 626.516 129.988 651.248C129.988 651.464 129.988 651.572 129.817 651.383C108.522 628.516 27.1909 531.238 7.57791 506.695C7.17881 506.182 7.54939 505.884 8.0055 506.371Z" fill="#263238"/>
<path d="M39.2493 502.505C41.5676 505.098 43.296 508.117 44.3262 511.372C45.3563 514.628 45.666 518.051 45.2357 521.425C44.4925 527.541 41.2854 533.149 36.2846 537.075C36.142 537.075 35.914 536.913 36.0565 536.778C40.3643 532.141 42.9707 526.306 43.4846 520.146C43.9986 513.986 42.3925 507.834 38.9072 502.613C38.9118 502.578 38.9269 502.544 38.9508 502.516C38.9747 502.488 39.0064 502.468 39.0422 502.456C39.078 502.445 39.1165 502.444 39.1531 502.452C39.1898 502.461 39.2231 502.479 39.2493 502.505Z" fill="#263238"/>
<path d="M97.2897 527.129C105.557 536.616 111.544 550.455 108.208 562.727C108.208 563.213 107.382 563.051 107.296 562.727C104.814 550.796 100.991 539.152 95.8927 527.994C95.7717 527.818 95.7293 527.604 95.7747 527.399C95.8202 527.194 95.9498 527.014 96.1351 526.899C96.3203 526.785 96.546 526.744 96.7625 526.787C96.979 526.83 97.1687 526.953 97.2897 527.129Z" fill="#263238"/>
<path d="M87.9952 522.047C96.2623 531.535 102.249 545.374 98.9134 557.645C98.9134 558.132 98.0868 557.942 98.0013 557.645C95.5192 545.715 91.6964 534.071 86.5984 522.912C86.4774 522.737 86.4349 522.523 86.4804 522.317C86.5258 522.112 86.6554 521.932 86.8406 521.818C87.0259 521.703 87.2515 521.663 87.4681 521.706C87.6846 521.749 87.8742 521.872 87.9952 522.047Z" fill="#263238"/>
<path d="M78.6182 516.966C86.9138 526.454 92.8718 540.293 89.565 552.564C89.565 553.051 88.7383 552.862 88.6528 552.564C86.1673 540.643 82.3446 529.009 77.2499 517.858C77.1882 517.773 77.1447 517.677 77.122 517.576C77.0993 517.475 77.0979 517.371 77.1177 517.269C77.1376 517.167 77.1783 517.07 77.2377 516.984C77.297 516.897 77.3738 516.822 77.4637 516.764C77.5535 516.705 77.6547 516.664 77.7613 516.642C77.868 516.621 77.9781 516.619 78.0853 516.638C78.1925 516.657 78.2948 516.696 78.3862 516.752C78.4777 516.808 78.5565 516.881 78.6182 516.966Z" fill="#263238"/>
<path d="M69.2946 511.884C77.5898 521.371 83.5475 535.21 80.2408 547.482C80.2408 547.968 79.3857 547.779 79.3002 547.482C76.8194 535.56 72.9967 523.925 67.8978 512.776C67.7731 512.6 67.727 512.385 67.7698 512.177C67.8125 511.969 67.9406 511.786 68.1258 511.668C68.311 511.55 68.5382 511.506 68.7574 511.547C68.9766 511.587 69.1698 511.709 69.2946 511.884Z" fill="#263238"/>
<path d="M148.801 626.841C157.923 637.652 140.249 651.167 131.127 640.355C122.005 629.543 139.707 616.029 148.801 626.841Z" fill="white"/>
<path d="M115.506 496.153C123.859 497.775 124.914 506.965 123.032 513.425C119.615 524.285 113.244 534.101 104.559 541.887C104.527 541.926 104.486 541.958 104.439 541.98C104.392 542.002 104.341 542.013 104.289 542.013C104.236 542.013 104.185 542.002 104.138 541.98C104.091 541.958 104.05 541.926 104.018 541.887C103.795 541.998 103.548 542.056 103.297 542.057C103.046 542.058 102.798 542.002 102.574 541.894C102.351 541.785 102.158 541.627 102.013 541.433C101.867 541.239 101.772 541.015 101.737 540.779C100.91 530.156 98.6584 518.885 101.31 508.344C102.849 502.073 107.581 494.64 115.506 496.153ZM104.103 524.345C104.388 529.589 104.93 534.778 104.987 540.022C108.751 534.578 112.223 528.958 115.392 523.183C116.879 520.357 118.165 517.441 119.241 514.452C120.808 509.83 121.265 493.964 109.463 501.397C102.792 505.505 103.647 518.101 103.961 524.345H104.103Z" fill="#263238"/>
<path d="M121.036 568.565C112.484 561.267 107.78 550.725 102.164 541.535C102.059 541.323 102.008 541.09 102.016 540.855C102.024 540.62 102.09 540.39 102.21 540.185C102.329 539.979 102.499 539.803 102.704 539.671C102.909 539.54 103.144 539.456 103.39 539.427C103.39 539.211 103.533 539.022 103.789 539.076C115.593 540.882 126.685 545.609 135.946 552.78C141.248 557.05 145.895 565.294 139.908 571.078C133.921 576.863 125.968 572.862 121.036 568.565ZM131.698 569.97C145.952 569.835 136.117 556.969 132.068 553.969C129.41 552.071 126.62 550.346 123.716 548.806C117.675 545.706 111.471 542.9 105.129 540.4C108.179 544.779 110.83 549.347 113.681 553.915C117.131 559.186 123.887 570.051 131.698 569.97Z" fill="#263238"/>
<path d="M129.245 506.127L213.426 613.784L497.357 426.931L524.753 408.93C524.753 408.93 532.507 413.876 544.166 419.985C560.387 428.472 584.076 439.229 605.171 442.176C640.406 447.122 693.544 446.581 723.277 408.93C748.306 377.197 740.381 335.815 740.381 335.815L701.668 320.057C701.668 320.057 610.046 247.7 550.58 245.511C525.38 244.565 488.691 262.674 454.711 281.595C420.73 300.515 129.245 506.127 129.245 506.127Z" fill="#37474F"/>
<path d="M524.754 408.93C524.754 408.93 532.508 413.876 544.168 419.985C564.807 396.578 608.509 354.034 609.734 352.412L524.754 408.93Z" fill="#263238"/>
<path d="M668.148 295.84C673.621 299.435 678.924 303.273 684.34 306.976C689.756 310.679 695.116 314.03 700.19 318.004C705.264 321.977 710.196 326.356 715.014 330.707C717.351 332.816 719.689 334.924 721.941 337.113C724.318 339.21 726.519 341.478 728.526 343.898C728.697 344.114 728.355 344.384 728.127 344.249C725.56 342.517 723.112 340.63 720.801 338.6L713.132 332.41C708.201 328.437 703.183 324.599 698.28 320.598C693.377 316.598 688.873 312.328 684.027 308.327C679.18 304.327 673.393 300.056 668.006 296.002C667.949 295.921 668.034 295.759 668.148 295.84Z" fill="#263238"/>
<path d="M149.002 502.262C154.475 507.857 159.521 513.857 164.623 519.75C169.726 525.642 174.8 531.642 179.846 537.616C189.938 549.563 200.115 561.456 210.035 573.538C215.509 580.187 220.868 586.863 225.942 593.783C226.17 594.08 225.657 594.431 225.372 594.161C214.539 582.836 204.59 570.754 194.527 558.834C184.464 546.914 174.401 534.859 164.481 522.75C159.065 516.128 153.477 509.533 148.517 502.613C148.488 502.552 148.482 502.484 148.5 502.419C148.517 502.354 148.557 502.297 148.613 502.256C148.669 502.215 148.738 502.194 148.808 502.195C148.879 502.196 148.947 502.219 149.002 502.262Z" fill="#263238"/>
<path d="M364.517 513.993C378.771 503.451 410.784 482.828 425.437 472.935C440.09 463.043 454.571 453.204 469.366 443.636C473.604 440.915 477.871 438.212 482.166 435.527C486.442 432.824 490.889 430.337 495.08 427.553C495.308 427.391 495.536 427.77 495.308 427.932C491.459 430.635 487.839 433.473 483.905 436.176C479.971 438.878 476.721 441.392 473.101 443.933C466.003 448.906 458.847 453.799 451.663 458.718C437.182 468.638 422.558 478.476 407.791 488.072C399.41 493.478 373.582 509.695 365.03 514.831C364.717 515.074 364.09 514.371 364.517 513.993Z" fill="#263238"/>
<path d="M275.488 402.768C288.544 392.524 318.249 372.793 331.989 363.306C345.73 353.818 359.584 344.034 373.496 334.492L414.86 306.165C428.201 297.003 441.514 287.677 455.625 279.569C463.35 275.136 471.275 271.027 479.428 267.324C487.314 263.485 495.536 260.302 504.002 257.81C504.05 257.806 504.098 257.816 504.139 257.839C504.181 257.863 504.214 257.898 504.233 257.94C504.252 257.982 504.256 258.029 504.245 258.073C504.234 258.118 504.209 258.158 504.173 258.188C497.217 261.891 489.919 264.973 482.878 268.541C475.837 272.109 469.052 275.758 462.296 279.623C448.299 287.732 435.071 296.84 421.787 305.895C394.163 324.816 366.626 343.736 338.831 362.17C323.266 372.577 292.25 394.038 276.115 403.579C276.002 403.628 275.874 403.639 275.754 403.609C275.634 403.579 275.528 403.511 275.454 403.416C275.38 403.32 275.344 403.204 275.35 403.086C275.356 402.968 275.405 402.856 275.488 402.768Z" fill="#263238"/>
</svg>
