<svg width="29" height="29" viewBox="0 0 29 29" fill="none" xmlns="http://www.w3.org/2000/svg">
<circle cx="14.5" cy="14.5" r="14.5" fill="white"/>
<mask id="mask0" mask-type="alpha" maskUnits="userSpaceOnUse" x="0" y="0" width="29" height="29">
<circle cx="14.5" cy="14.5" r="14.5" fill="white"/>
</mask>
<g mask="url(#mask0)">
<path d="M14.9098 18.0518C14.9098 18.0518 5.30371 17.7406 5.30371 22.8548C5.30371 28.6456 7.2124 39.4964 14.9098 39.3836C22.6072 39.2708 24.0189 24.0556 24.0983 23.379C24.1045 23.3727 24.5055 18.4903 14.9098 18.0518Z" fill="#944BCB"/>
<path d="M23.8735 22.0531C23.8618 22.0654 23.8484 22.0759 23.8338 22.0845L23.7106 22.1659C23.6041 22.239 23.4412 22.3371 23.2303 22.4583C22.6244 22.7928 21.9899 23.0724 21.3341 23.2936C20.3614 23.6241 19.3583 23.8571 18.3395 23.989C17.093 24.147 15.8369 24.2168 14.5806 24.1978C13.3251 24.2026 12.0703 24.1392 10.8217 24.0078C9.79708 23.8969 8.79478 23.6337 7.84796 23.2268C7.21254 22.9472 6.62375 22.5718 6.10215 22.1137C5.92256 21.9466 5.78891 21.8088 5.70538 21.7127L5.6114 21.6L5.58008 21.5603C5.58008 21.5603 5.5947 21.5707 5.61976 21.5937L5.72208 21.6981C5.80979 21.79 5.94761 21.9216 6.13974 22.0803C6.66529 22.5247 7.25446 22.888 7.88764 23.1578C8.82684 23.5538 9.81877 23.8105 10.8321 23.9201C12.0777 24.0446 13.3288 24.1052 14.5806 24.1017C15.8327 24.1164 17.0843 24.0467 18.327 23.8929C19.3409 23.7658 20.3402 23.5413 21.3111 23.2226C21.9652 23.0063 22.6002 22.736 23.2094 22.4144C23.4182 22.2996 23.5894 22.2056 23.7001 22.1408L23.8275 22.0698C23.8422 22.0628 23.8576 22.0572 23.8735 22.0531V22.0531Z" fill="#263238"/>
<path d="M18.0687 23.9824C18.0785 24.0291 18.0834 24.0767 18.0833 24.1244C18.0833 24.2184 18.0833 24.3583 18.0833 24.5421C18.0835 25.0489 18.0303 25.5542 17.9246 26.0498C17.8493 26.3928 17.7395 26.7272 17.5967 27.048C17.4378 27.4192 17.2268 27.7658 16.9702 28.0776C16.6812 28.4208 16.3342 28.7106 15.9449 28.9338C15.7366 29.0481 15.5177 29.1418 15.2912 29.2136C15.0562 29.2833 14.8136 29.3246 14.5687 29.3368C14.0849 29.3481 13.6069 29.2298 13.1842 28.9943C12.7913 28.7754 12.4451 28.4817 12.1651 28.1298C11.6983 27.5302 11.3921 26.8215 11.2755 26.0707C11.1941 25.5704 11.162 25.0633 11.1794 24.5567C11.1794 24.3792 11.1961 24.2393 11.2045 24.139C11.2055 24.0905 11.2118 24.0422 11.2233 23.995C11.2269 24.0429 11.2269 24.0911 11.2233 24.139C11.2233 24.2435 11.2233 24.3813 11.2233 24.5567C11.22 25.0587 11.2633 25.56 11.3527 26.054C11.4755 26.7878 11.7815 27.4788 12.2423 28.0629C12.5159 28.4028 12.8528 28.6865 13.2343 28.8982C13.6438 29.1233 14.1058 29.235 14.5729 29.2219C14.8085 29.2107 15.0419 29.1714 15.2683 29.105C15.4856 29.0356 15.6955 28.9447 15.8948 28.8335C16.2752 28.6167 16.6139 28.3339 16.895 27.9982C17.1512 27.6969 17.3622 27.3599 17.5215 26.9979C17.6662 26.6836 17.7789 26.3554 17.8577 26.0185C17.9696 25.5288 18.0339 25.0295 18.0499 24.5275C18.0499 24.3583 18.0499 24.2226 18.0603 24.1098C18.0591 24.0672 18.0618 24.0245 18.0687 23.9824Z" fill="#263238"/>
<path d="M18.8604 30.6984L19.3031 28.7229H23.1831C23.0453 29.3118 22.8532 29.9988 22.6318 30.7297L18.8604 30.6984Z" fill="#FAFAFA"/>
<path d="M10.1811 30.6984L9.74052 28.7229H5.8584C5.99623 29.3118 6.11317 29.9988 6.33244 30.7297L10.1811 30.6984Z" fill="#FAFAFA"/>
<path opacity="0.4" d="M23.5983 21.5684C22.669 20.0523 20.2111 18.2982 14.9089 18.0517C14.9089 18.0517 8.96775 17.8596 6.43049 20.2632C6.19006 20.5097 5.97332 20.7782 5.78312 21.0651C5.62858 21.3512 7.7649 23.9177 14.6312 23.6985C21.7146 23.4708 23.5983 21.5684 23.5983 21.5684Z" fill="black"/>
<path d="M5.13829 12.5096C4.7979 11.7474 4.63293 10.8745 4.86473 10.0726C5.09653 9.27071 5.78566 8.57114 6.61889 8.49805" fill="#263238"/>
<path d="M6.3409 8.5459C6.3409 8.56052 6.20098 8.67328 6.00259 8.90091C5.74196 9.19388 5.52402 9.5222 5.35523 9.87614C5.19708 10.2369 5.06177 10.6073 4.9501 10.985C4.91517 11.146 4.86911 11.3044 4.81227 11.4591C4.80715 11.2925 4.82829 11.1262 4.87492 10.9662C4.96599 10.5765 5.09323 10.1962 5.25499 9.83019C5.42801 9.46616 5.66176 9.13425 5.94621 8.8487C6.05621 8.7224 6.19042 8.61944 6.3409 8.5459V8.5459Z" fill="#944BCB"/>
<path d="M24.3398 12.5096C24.6802 11.7474 24.8452 10.8745 24.6134 10.0726C24.3816 9.27071 23.6925 8.57114 22.8613 8.49805" fill="#263238"/>
<path d="M23.1372 8.5459C23.2882 8.61859 23.4226 8.72168 23.5319 8.8487C23.8169 9.13377 24.0508 9.46579 24.2231 9.83019C24.3849 10.1962 24.5121 10.5765 24.6032 10.9662C24.6498 11.1262 24.671 11.2925 24.6659 11.4591C24.6102 11.304 24.5642 11.1457 24.528 10.985C24.4172 10.6073 24.2826 10.2369 24.125 9.87614C23.9548 9.52251 23.7362 9.19429 23.4755 8.90091C23.2771 8.67537 23.1268 8.56052 23.1372 8.5459Z" fill="#944BCB"/>
<path d="M5.90823 16.2934C5.44612 15.8215 5.10666 15.2435 4.91954 14.6101C4.73243 13.9767 4.70334 13.307 4.83485 12.6598C5.39034 9.86148 7.42642 4.82453 14.9087 4.93312C22.7586 5.0438 24.2329 10.4775 24.4856 13.0941C24.5384 13.6296 24.4848 14.1702 24.3278 14.6849C24.1708 15.1995 23.9136 15.6781 23.5709 16.0929C22.4036 17.5025 19.9248 19.3235 14.9087 19.3214C9.94071 19.3256 7.2698 17.6675 5.90823 16.2934Z" fill="#944BCB"/>
<path d="M11.4111 5.26099C11.4301 5.29009 11.4449 5.32173 11.455 5.35496L11.5636 5.63061C11.6575 5.86868 11.7891 6.21533 11.9938 6.62255C12.2255 7.10169 12.5434 7.53419 12.9314 7.89849C13.4009 8.35059 14.0275 8.60288 14.6793 8.60224C15.329 8.56332 15.9474 8.30993 16.4376 7.88178C16.8368 7.52948 17.1718 7.11046 17.4275 6.64343C17.6033 6.32865 17.7602 6.0037 17.8973 5.67029C17.9439 5.5455 17.9976 5.42348 18.0581 5.30484C18.0556 5.33945 18.0472 5.37336 18.0331 5.40508C18.0122 5.46982 17.9809 5.56588 17.937 5.68491C17.8136 6.02714 17.6656 6.36004 17.4943 6.68102C17.2436 7.16283 16.9075 7.59515 16.5024 7.95696C15.9979 8.40666 15.3561 8.67237 14.6814 8.71083C14.3316 8.71943 13.9845 8.648 13.6665 8.50201C13.3725 8.36833 13.1018 8.18856 12.8646 7.96949C12.4703 7.59407 12.1514 7.14683 11.9248 6.65178C11.7701 6.32363 11.6362 5.98606 11.5239 5.64106C11.4821 5.51854 11.4529 5.42457 11.4362 5.35914C11.4248 5.32728 11.4164 5.29442 11.4111 5.26099Z" fill="#263238"/>
<path d="M19.8671 15.9844C16.2251 16.874 12.6708 16.9074 9.21682 16.022C8.58443 15.8575 8.02474 15.4873 7.62587 14.9697C7.22701 14.4521 7.01164 13.8166 7.01369 13.1631V13.113C7.01369 12.7247 7.09017 12.3402 7.23877 11.9814C7.38738 11.6227 7.60519 11.2967 7.87978 11.0221C8.15436 10.7475 8.48033 10.5297 8.83909 10.3811C9.19786 10.2325 9.58237 10.156 9.97069 10.156H19.1591C19.5475 10.156 19.932 10.2325 20.2908 10.3811C20.6495 10.5297 20.9755 10.7475 21.2501 11.0221C21.5247 11.2967 21.7425 11.6227 21.8911 11.9814C22.0397 12.3402 22.1162 12.7247 22.1162 13.113V13.113C22.1166 13.7743 21.8953 14.4166 21.4875 14.9371C21.0798 15.4577 20.5092 15.8265 19.8671 15.9844V15.9844Z" fill="#263238"/>
<path d="M11.8429 13.6748C11.8219 13.8057 11.7626 13.9273 11.6725 14.0244C11.5824 14.1216 11.4655 14.1898 11.3366 14.2206C11.2078 14.2513 11.0727 14.2432 10.9484 14.1972C10.8242 14.1512 10.7163 14.0694 10.6385 13.9622C10.5607 13.855 10.5164 13.7271 10.5113 13.5947C10.5061 13.4623 10.5403 13.3313 10.6095 13.2183C10.6787 13.1054 10.7798 13.0154 10.9001 12.9599C11.0204 12.9044 11.1545 12.8857 11.2854 12.9064C11.3725 12.9201 11.4561 12.9509 11.5313 12.9969C11.6065 13.043 11.6719 13.1035 11.7237 13.1749C11.7755 13.2463 11.8127 13.3272 11.8331 13.413C11.8536 13.4988 11.8569 13.5878 11.8429 13.6748Z" fill="white"/>
<path d="M19.5235 13.2863C19.5025 13.4171 19.443 13.5388 19.3528 13.6359C19.2626 13.733 19.1455 13.8012 19.0166 13.8318C18.8876 13.8625 18.7524 13.8541 18.6282 13.8079C18.5039 13.7618 18.3961 13.6798 18.3185 13.5723C18.2408 13.4649 18.1968 13.3368 18.1919 13.2043C18.187 13.0719 18.2215 12.9409 18.291 12.828C18.3605 12.7152 18.462 12.6255 18.5825 12.5702C18.703 12.515 18.8372 12.4967 18.9681 12.5178C19.055 12.5317 19.1383 12.5627 19.2133 12.6089C19.2883 12.6551 19.3534 12.7156 19.405 12.7869C19.4566 12.8583 19.4936 12.9391 19.514 13.0248C19.5343 13.1105 19.5376 13.1993 19.5235 13.2863V13.2863Z" fill="white"/>
<path d="M16.5754 13.3718C16.6054 13.5711 16.5702 13.7747 16.4752 13.9524C16.3859 14.1523 16.2507 14.3284 16.0805 14.4661C15.8735 14.6324 15.6207 14.7315 15.3558 14.7501C15.0934 14.771 14.8309 14.7105 14.6041 14.5768C14.4203 14.4648 14.2662 14.31 14.1551 14.1257C14.0395 13.9619 13.9814 13.7643 13.9901 13.5639C14.0538 13.74 14.135 13.9093 14.2323 14.0693C14.3453 14.2313 14.493 14.3662 14.6646 14.464C14.8727 14.5796 15.1102 14.6311 15.3475 14.6123C15.5867 14.5959 15.816 14.5102 16.0074 14.3658C16.1663 14.2431 16.2973 14.0879 16.3916 13.9106C16.4686 13.7368 16.5301 13.5565 16.5754 13.3718V13.3718Z" fill="white"/>
</g>
</svg>
