<svg width="648" height="479" viewBox="0 0 648 479" fill="none" xmlns="http://www.w3.org/2000/svg">
<path d="M0 403.005L80.8949 402.601L161.805 402.472L323.594 402.198L485.384 402.472L566.294 402.601L647.189 403.005L566.294 403.392L485.384 403.538L323.594 403.812L161.805 403.538L80.8949 403.392L0 403.005Z" fill="#263238"/>
<path d="M354.15 478.287C485.221 478.287 591.475 463.578 591.475 445.433C591.475 427.288 485.221 412.579 354.15 412.579C223.079 412.579 116.824 427.288 116.824 445.433C116.824 463.578 223.079 478.287 354.15 478.287Z" fill="#7FA5A8"/>
<path d="M296.868 363.904H136.131V450.987H296.868V363.904Z" fill="#F66D1D"/>
<path opacity="0.1" d="M255.185 363.904H136.131V385.36H255.185V363.904Z" fill="black"/>
<path opacity="0.1" d="M296.87 363.904H255.188V450.971H296.87V363.904Z" fill="black"/>
<path d="M216.076 389.816H175.244V403.7H216.076V389.816Z" fill="#263238"/>
<path d="M302.897 352.248H130.395V374.22H302.897V352.248Z" fill="#F66D1D"/>
<path opacity="0.1" d="M302.897 352.248H262.832V374.22H302.897V352.248Z" fill="black"/>
<path d="M293.227 269.701H140.867V352.247H293.227V269.701Z" fill="#F66D1D"/>
<path opacity="0.1" d="M253.724 269.701H140.867V290.026H253.724V269.701Z" fill="black"/>
<path opacity="0.1" d="M293.224 269.701H253.721V352.247H293.224V269.701Z" fill="black"/>
<path d="M216.638 294.273H177.936V307.43H216.638V294.273Z" fill="#263238"/>
<path d="M298.948 258.658H135.436V279.484H298.948V258.658Z" fill="#F66D1D"/>
<path opacity="0.1" d="M298.947 258.658H260.959V279.484H298.947V258.658Z" fill="black"/>
<path d="M291.03 352.28C281.376 352.102 271.738 352.28 262.084 352.28C252.429 352.28 242.792 352.167 233.138 352.07C213.914 351.876 194.707 351.715 175.483 351.86C164.62 351.86 153.791 352.07 142.944 352.474C142.918 352.483 142.896 352.499 142.88 352.521C142.864 352.543 142.855 352.568 142.855 352.595C142.855 352.621 142.864 352.647 142.88 352.668C142.896 352.69 142.918 352.707 142.944 352.716C162.236 353.41 181.545 353.442 200.837 353.442C220.129 353.442 239.25 352.974 258.474 352.926C269.32 352.926 280.184 353.023 291.013 352.829C291.09 352.831 291.165 352.804 291.22 352.754C291.276 352.704 291.309 352.635 291.311 352.562C291.313 352.49 291.285 352.419 291.232 352.366C291.18 352.313 291.107 352.282 291.03 352.28V352.28Z" fill="#263238"/>
<path d="M569.325 430.355C565.442 431.614 454.152 431.969 449.913 429.434C448.21 428.498 447.273 413.129 446.626 394.53C446.626 394.53 442.863 390.252 437.261 384.004C421 365.858 389.381 330.614 389.381 330.614L474.704 330.162L512.181 384.02L518.413 392.964V394.11C518.413 394.11 561.083 412.031 565.442 415.292C569.801 418.553 573.275 429.112 569.325 430.355Z" fill="#FF9786"/>
<path d="M518.413 392.948L512.181 384.02H437.262L445.452 393.19H518.924L518.413 392.948Z" fill="#455A64"/>
<path d="M565.406 415.275C561.319 412.224 523.723 395.337 518.922 393.174H445.449L446.624 394.53C447.271 413.128 448.327 428.433 449.91 429.434C454.15 431.985 565.44 431.614 569.322 430.354C573.204 429.095 569.731 418.52 565.406 415.275Z" fill="#DED9D9"/>
<path d="M568.045 426.27C549.316 425.899 473.578 426.06 455.002 427.045C454.848 427.045 454.848 427.142 455.002 427.158C473.595 427.916 549.298 427.158 568.045 426.56C568.437 426.544 568.437 426.27 568.045 426.27Z" fill="#263238"/>
<path d="M526.532 394.772C519.261 393.029 510.169 393.578 504.209 398.227C503.988 398.405 504.209 398.712 504.499 398.647C511.682 396.915 519.039 395.908 526.447 395.644C526.569 395.655 526.69 395.619 526.784 395.545C526.879 395.471 526.938 395.364 526.949 395.249C526.96 395.133 526.923 395.018 526.845 394.929C526.766 394.839 526.654 394.783 526.532 394.772V394.772Z" fill="#263238"/>
<path d="M531.661 398.114C524.373 396.386 515.298 396.919 509.338 401.569C509.117 401.746 509.338 402.069 509.628 402.005C516.809 400.262 524.167 399.255 531.576 399.002C531.688 398.994 531.794 398.948 531.874 398.873C531.954 398.798 532.004 398.698 532.014 398.592C532.025 398.485 531.995 398.379 531.93 398.292C531.865 398.204 531.77 398.141 531.661 398.114V398.114Z" fill="#263238"/>
<path d="M536.785 401.472C529.498 399.728 520.422 400.277 514.463 404.927C514.224 405.105 514.463 405.411 514.752 405.363C521.933 403.615 529.291 402.603 536.7 402.344C536.761 402.349 536.822 402.343 536.879 402.326C536.937 402.309 536.991 402.282 537.038 402.245C537.084 402.208 537.123 402.163 537.151 402.112C537.18 402.061 537.197 402.006 537.203 401.948C537.208 401.891 537.202 401.833 537.184 401.778C537.166 401.724 537.137 401.673 537.098 401.628C537.059 401.584 537.012 401.548 536.958 401.521C536.905 401.494 536.846 401.477 536.785 401.472V401.472Z" fill="#263238"/>
<path d="M523.572 393.368L480.221 397.404L437.346 401.392C437.346 401.392 350.507 294.661 345.127 289.607C333.071 278.161 237.855 250.861 211.803 226.256C184.253 200.296 196.275 167.474 196.275 167.474H268.249C268.249 167.474 268.061 194.08 271.893 195.211C313.405 207.448 391.645 234.216 409.609 249.262C441.841 276.272 523.572 393.368 523.572 393.368Z" fill="#455A64"/>
<path d="M510.069 380.791C497.878 381.889 501.352 381.42 489.177 382.631C483.218 383.229 444.055 387.184 438.606 388.67C438.58 388.679 438.558 388.695 438.542 388.717C438.526 388.739 438.518 388.764 438.518 388.791C438.518 388.817 438.526 388.843 438.542 388.864C438.558 388.886 438.58 388.903 438.606 388.912C444.276 389.17 483.337 384.569 489.296 383.858C501.437 382.421 497.929 382.712 510.069 381.13C510.274 381.146 510.274 380.791 510.069 380.791Z" fill="#263238"/>
<path d="M480.221 397.404L437.346 401.392C437.346 401.392 350.507 294.661 345.127 289.607C333.071 278.161 237.855 250.861 211.803 226.256C184.253 200.296 196.275 167.474 196.275 167.474H224.727L229.256 168.637L480.221 397.404Z" fill="#263238"/>
<path d="M416.778 458.284C412.844 459.382 301.639 455.265 297.587 452.553C295.986 451.552 295.68 436.15 295.884 417.536V416.955C295.884 413.112 295.969 409.157 296.072 405.169C296.072 404.604 296.072 404.055 296.072 403.555C296.651 376.706 297.859 348.841 297.859 348.841L372.269 351.408L368.522 405.556L368.386 407.688L367.62 418.908V420.054C367.62 420.054 409.439 439.686 413.594 443.125C417.748 446.564 420.711 457.267 416.778 458.284Z" fill="#FF9786"/>
<path d="M416.778 458.285C412.844 459.382 301.639 455.266 297.587 452.553C295.986 451.552 295.68 436.15 295.884 417.536V416.955C295.884 413.112 295.969 409.157 296.072 405.169C296.072 404.604 296.072 404.055 296.072 403.555L368.522 405.557L368.386 407.688L367.62 418.908V420.054C367.62 420.054 409.439 439.686 413.594 443.125C417.748 446.564 420.711 457.267 416.778 458.285Z" fill="#455A64"/>
<path d="M416.778 458.285C412.844 459.382 301.639 455.266 297.587 452.553C295.986 451.552 295.68 436.15 295.884 417.536V416.954L367.654 418.859V420.006C367.654 420.006 409.473 439.638 413.628 443.076C417.782 446.515 420.711 457.267 416.778 458.285Z" fill="#DED9D9"/>
<path d="M415.684 454.216C396.954 453.086 321.302 450.196 302.709 450.422C302.555 450.422 302.555 450.519 302.709 450.535C321.234 452.053 396.903 454.361 415.667 454.507C416.059 454.523 416.076 454.248 415.684 454.216Z" fill="#263238"/>
<path d="M376.216 420.377C368.997 418.424 359.904 418.763 353.791 423.17C353.553 423.348 353.791 423.655 354.064 423.606C361.3 422.087 368.686 421.297 376.097 421.249C376.219 421.264 376.342 421.232 376.44 421.161C376.537 421.09 376.601 420.985 376.616 420.87C376.632 420.754 376.599 420.637 376.524 420.545C376.449 420.452 376.338 420.392 376.216 420.377Z" fill="#263238"/>
<path d="M381.224 423.881C374.004 421.927 364.912 422.266 358.799 426.674C358.561 426.835 358.799 427.158 359.072 427.11C366.305 425.575 373.692 424.785 381.105 424.753C381.227 424.768 381.35 424.736 381.447 424.665C381.545 424.594 381.608 424.489 381.624 424.373C381.64 424.258 381.607 424.141 381.532 424.048C381.456 423.956 381.346 423.896 381.224 423.881V423.881Z" fill="#263238"/>
<path d="M386.23 427.384C379.01 425.431 369.918 425.77 363.805 430.177C363.584 430.338 363.805 430.661 364.078 430.613C371.312 429.079 378.698 428.289 386.111 428.256C386.233 428.271 386.356 428.239 386.453 428.168C386.551 428.097 386.614 427.992 386.63 427.876C386.646 427.761 386.613 427.644 386.538 427.552C386.463 427.459 386.352 427.399 386.23 427.384V427.384Z" fill="#263238"/>
<path d="M370.65 419.232L289.601 418.925C289.601 418.925 302.575 306.301 301.077 296.372C300.379 291.755 203.766 275.901 173.475 244.161C147.423 216.844 173.475 167.474 173.475 167.474H246.93C246.93 167.474 248.752 188.947 243.133 202.104C243.133 202.104 356.96 231.035 369.135 255.155C382.144 280.938 370.65 419.232 370.65 419.232Z" fill="#455A64"/>
<path d="M375.299 287.815C374.958 281.551 374.379 275.303 373.46 269.087C373 266.004 372.472 262.92 371.757 259.869C371.272 257.064 370.348 254.343 369.016 251.797C366.257 246.953 361.013 243.724 356.211 240.996C350.984 237.973 345.539 235.302 339.916 233.004C328.321 228.161 316.265 224.383 304.329 220.412C297.127 218.038 289.924 215.568 282.705 213.324C275.485 211.08 267.925 208.884 260.569 206.414C260.416 206.414 260.348 206.592 260.569 206.657C266.955 208.868 273.238 211.387 279.572 213.712C285.906 216.036 292.019 218.216 298.302 220.412L316.895 226.966C322.685 229 328.491 230.97 334.195 233.198C339.758 235.34 345.187 237.782 350.456 240.511C355.36 243.095 360.673 245.904 364.504 249.843C368.641 254.089 369.373 260.127 370.361 265.6C371.485 271.816 372.234 278.08 372.745 284.36C373.886 298.212 373.63 312.112 373.852 325.997C373.852 326.189 373.932 326.374 374.076 326.51C374.22 326.647 374.415 326.723 374.618 326.723C374.821 326.723 375.016 326.647 375.16 326.51C375.303 326.374 375.384 326.189 375.384 325.997C375.895 313.243 375.997 300.505 375.299 287.815Z" fill="#263238"/>
<path d="M310.867 295.613C310.679 294.776 310.266 294 309.67 293.358C309.074 292.716 308.313 292.231 307.462 291.948C302.933 289.833 298.25 287.993 293.551 286.217C275.008 279.178 255.767 273.947 237.054 267.328C227.534 264.055 218.246 260.205 209.249 255.8C204.856 253.605 200.548 251.231 196.393 248.648C191.949 246.002 187.821 242.906 184.082 239.414C168.485 224.173 170.188 201.361 174.326 182.181C174.888 179.55 175.501 176.934 176.029 174.319C176.019 174.294 176.001 174.273 175.979 174.258C175.956 174.243 175.929 174.235 175.901 174.235C175.873 174.235 175.846 174.243 175.823 174.258C175.8 174.273 175.783 174.294 175.773 174.319C171.38 193.224 166.646 214.535 177.476 232.439C182.448 240.689 190.723 246.372 199.083 251.296C207.678 256.297 216.693 260.617 226.038 264.212C244.563 271.477 263.838 276.74 282.67 283.181C287.489 284.796 292.274 286.556 297.007 288.412C299.34 289.333 301.673 290.285 303.988 291.286C306.304 292.287 309.505 293.078 310.135 295.5C310.339 296.649 310.339 297.822 310.135 298.971C309.982 300.408 309.846 301.844 309.693 303.281L308.841 311.677C308.262 317.198 307.695 322.719 307.138 328.241C304.868 350.466 302.598 372.703 300.328 394.95L299.51 403.119C299.51 403.442 299.987 403.426 300.021 403.119C302.388 380.969 304.635 358.802 306.917 336.636C308.052 325.518 309.187 314.4 310.323 303.281L310.731 299.423C310.942 298.163 310.988 296.883 310.867 295.613V295.613Z" fill="#263238"/>
<path d="M200.376 180.6C200.376 180.47 200.104 180.47 200.104 180.6C200.512 183.973 200.158 187.391 199.065 190.625C198.001 193.11 196.233 195.266 193.957 196.857C188.525 200.764 181.765 201.119 175.363 202.556C175.304 202.57 175.253 202.602 175.215 202.648C175.178 202.693 175.158 202.749 175.158 202.806C175.158 202.864 175.178 202.919 175.215 202.965C175.253 203.01 175.304 203.042 175.363 203.056C182.174 203.153 189.751 201.926 195.285 197.842C197.693 196.121 199.525 193.778 200.563 191.093C201.537 187.648 201.473 184.012 200.376 180.6V180.6Z" fill="#263238"/>
<path d="M367.773 406.929C355.547 406.526 359.055 406.477 346.812 406.203C340.819 406.073 301.452 405.218 295.85 406.009C295.731 406.009 295.714 406.235 295.85 406.251C301.435 407.204 340.802 407.414 346.795 407.43C359.038 407.43 355.53 407.349 367.773 407.268C367.801 407.277 367.831 407.278 367.86 407.274C367.889 407.269 367.916 407.258 367.94 407.242C367.963 407.225 367.983 407.204 367.996 407.179C368.009 407.154 368.016 407.127 368.016 407.099C368.016 407.071 368.009 407.043 367.996 407.019C367.983 406.994 367.963 406.972 367.94 406.956C367.916 406.939 367.889 406.928 367.86 406.924C367.831 406.919 367.801 406.921 367.773 406.929V406.929Z" fill="#263238"/>
<path d="M247.442 172.188C246.965 176.434 246.608 180.696 245.944 184.926C245.62 186.912 245.365 188.946 244.905 190.916C244.786 191.778 244.359 192.575 243.696 193.176C242.887 193.685 241.942 193.965 240.972 193.983C240.535 194.074 240.081 194.069 239.646 193.969C239.211 193.869 238.806 193.676 238.461 193.406C238.116 193.135 237.841 192.793 237.657 192.406C237.472 192.02 237.383 191.598 237.396 191.174C237.124 187.283 238.69 173.819 238.758 172.721C238.758 172.495 238.009 172.479 237.975 172.721C236.63 181.197 234.859 192.014 236.698 193.902C237.689 194.887 239.02 195.501 240.449 195.631C241.878 195.762 243.309 195.4 244.479 194.613C245.52 193.732 246.165 192.508 246.284 191.19C246.625 189.35 246.778 187.445 246.965 185.588C247.442 181.148 247.97 176.709 248.191 172.253C248.208 171.833 247.493 171.785 247.442 172.188Z" fill="#263238"/>
<path d="M244.515 195.436C244.349 195.966 244.219 196.505 244.123 197.05C244.004 197.599 243.868 198.132 243.697 198.665C243.527 199.198 243.408 199.73 243.238 200.279C243.067 200.828 242.965 201.345 242.829 201.894C242.825 201.941 242.837 201.988 242.864 202.028C242.892 202.067 242.932 202.097 242.979 202.112C243.027 202.126 243.078 202.126 243.125 202.11C243.172 202.094 243.211 202.063 243.238 202.023C243.516 201.544 243.761 201.048 243.97 200.538C244.174 200.005 244.378 199.456 244.532 198.923C244.685 198.39 244.855 197.858 244.991 197.309C245.161 196.783 245.275 196.242 245.332 195.694C245.341 195.6 245.316 195.506 245.261 195.427C245.207 195.348 245.126 195.289 245.031 195.259C244.936 195.229 244.834 195.23 244.74 195.262C244.647 195.294 244.567 195.356 244.515 195.436V195.436Z" fill="#263238"/>
<path d="M272.964 99.5862C278.073 115.117 296.99 139.431 316.009 159.321C327.826 171.639 347.935 165.375 351.494 158.497C357.539 146.793 352.396 101.524 337.872 66.151C332.321 52.7188 296.138 69.283 297.586 77.662C298.71 84.2651 301.894 98.2462 301.894 98.2462C302.064 99.0696 296.785 91.0781 283.521 76.7256C274.514 66.9744 269.218 88.2366 272.964 99.5862Z" fill="#FF9786"/>
<path d="M338.861 68.7504C339.644 72.1892 299.919 79.9386 298.966 79.5188C298.012 79.0991 296.684 75.8056 295.56 73.723L295.322 73.3193C293.739 70.7847 291.917 68.0401 290.589 66.248C287.473 62.1958 276.967 51.8633 278.244 47.7141C279.521 43.565 289.448 48.037 295.543 54.1719C293.057 49.49 290.929 45.5185 290.623 45.0341C287.217 39.6903 276.575 32.958 278.942 28.8896C280.917 25.4347 287.081 29.3255 287.081 29.3255C287.081 29.3255 281.411 24.127 284.084 21.0273C286.996 17.6531 293.807 22.9485 293.807 22.9485C293.807 22.9485 290.078 17.2494 292.751 14.8762C295.986 11.9863 301.605 16.6359 302.014 16.9911C301.826 16.7167 299.306 13.0034 303.138 10.9531C306.969 8.90271 318.377 21.1241 321.408 25.9836C329.581 39.0768 338.009 64.9726 338.861 68.7504Z" fill="#FF9786"/>
<path d="M286.603 29.3899C294.044 35.2021 296.939 37.8176 300.702 45.8416C300.702 46.0031 301.043 45.9385 300.975 45.7609C298.046 37.5754 294.845 34.2495 286.842 29.0185C286.45 28.841 286.263 29.1154 286.603 29.3899Z" fill="#263238"/>
<path d="M293.688 23.0136C301.35 28.8416 303.904 32.7 308.468 40.772C308.468 40.885 308.74 40.772 308.689 40.6751C304.892 32.3287 302.287 27.6308 293.824 22.7392C293.45 22.5132 293.347 22.7392 293.688 23.0136Z" fill="#263238"/>
<path d="M302.166 17.3465C309.148 23.4974 312.383 27.4527 315.788 35.9122C315.812 35.944 315.845 35.9677 315.884 35.9796C315.923 35.9915 315.965 35.9911 316.004 35.9782C316.042 35.9654 316.076 35.941 316.098 35.9087C316.121 35.8763 316.131 35.8379 316.129 35.7992C314.337 28.1328 309.447 21.4381 302.507 17.1527C301.894 16.8298 301.724 16.959 302.166 17.3465Z" fill="#263238"/>
<path d="M298.251 56.933C303.87 54.8019 311.873 54.1722 316.709 57.5465C316.736 57.56 316.768 57.5642 316.798 57.5584C316.828 57.5525 316.856 57.5371 316.876 57.5145C316.896 57.4919 316.907 57.4635 316.907 57.4342C316.908 57.4048 316.898 57.3761 316.879 57.3528C312.179 53.0582 302.968 53.704 298.047 55.8997C297.11 56.2872 296.787 57.482 298.251 56.933Z" fill="#263238"/>
<path d="M353.265 160.048C343.304 171.139 331.947 171.768 318.989 164.181C315.922 162.219 313.111 159.921 310.611 157.335C297.773 144.63 281.529 120.8 275.706 109.096C268.52 94.6625 267.192 67.6043 279.792 73.158C282.551 74.385 301.11 96.8097 301.11 96.8097L298.471 86.2996L345.688 76.0963C345.688 76.0963 363.209 148.956 353.265 160.048Z" fill="#F66D1D"/>
<path d="M299.086 92.2569L296.004 81.9243L347.903 71.1074L349.708 83.4419L299.086 92.2569Z" fill="#F66D1D"/>
<path d="M347.22 83.7326C345.312 83.7326 335.096 85.347 333.206 85.7022C329.585 86.3049 325.97 86.9346 322.36 87.5911L311.513 89.593C307.784 90.2872 303.936 90.8362 300.275 91.8048C300.255 91.7976 300.233 91.7952 300.211 91.7978C300.189 91.8004 300.168 91.808 300.15 91.8199C300.132 91.8318 300.117 91.8476 300.107 91.8661C300.097 91.8846 300.092 91.9051 300.092 91.9259C300.092 91.9467 300.097 91.9673 300.107 91.9857C300.117 92.0042 300.132 92.02 300.15 92.0319C300.168 92.0438 300.189 92.0514 300.211 92.054C300.233 92.0566 300.255 92.0542 300.275 92.047C304.055 91.7402 307.853 90.9653 311.599 90.4325L322.683 88.6566C326.378 88.0432 330.073 87.4296 333.768 86.7516C335.573 86.4287 345.483 84.5882 347.237 84.0231C347.424 83.8294 347.339 83.6357 347.22 83.7326Z" fill="#263238"/>
<path d="M334.671 160.645C334.103 158.472 334.103 156.2 334.671 154.026C335.238 156.2 335.238 158.472 334.671 160.645V160.645ZM320.879 115.247C320.896 114.13 320.753 113.017 320.453 111.937C319.885 114.111 319.885 116.383 320.453 118.556C320.753 117.477 320.896 116.363 320.879 115.247V115.247ZM312.927 143.968C314.076 143.979 315.222 143.843 316.332 143.564C314.046 143.026 311.655 143.026 309.368 143.564C310.529 143.857 311.727 143.993 312.927 143.968V143.968ZM281.205 82.1182C282.354 82.1272 283.5 81.9915 284.611 81.7146C283.5 81.4377 282.354 81.3019 281.205 81.311C280.028 81.3019 278.855 81.4376 277.715 81.7146C278.855 81.9916 280.028 82.1272 281.205 82.1182V82.1182ZM312.859 98.4888C314.036 98.4978 315.209 98.3621 316.349 98.0852C314.063 97.5471 311.672 97.5471 309.385 98.0852C310.521 98.3515 311.689 98.4763 312.859 98.4565V98.4888ZM334.994 129.809C334.179 129.008 333.251 128.318 332.236 127.759C332.826 128.721 333.553 129.602 334.398 130.374C335.21 131.179 336.139 131.87 337.157 132.425C336.553 131.457 335.82 130.567 334.977 129.777L334.994 129.809ZM334.994 91.7242C334.179 90.923 333.251 90.233 332.236 89.6738C332.826 90.6363 333.553 91.5165 334.398 92.2893C335.21 93.0941 336.139 93.7846 337.157 94.3396C336.553 93.3721 335.82 92.4822 334.977 91.6919L334.994 91.7242ZM296.36 108.337C295.533 107.541 294.6 106.852 293.584 106.287C294.796 108.211 296.493 109.819 298.522 110.969C297.918 109.996 297.186 109.101 296.343 108.305L296.36 108.337ZM349.621 143.581C348.776 144.353 348.048 145.233 347.458 146.196C349.472 145.04 351.16 143.439 352.379 141.53C351.36 142.078 350.426 142.757 349.604 143.548L349.621 143.581ZM303.562 128.485C302.717 129.258 301.989 130.138 301.4 131.101C303.413 129.945 305.102 128.344 306.32 126.435C305.301 126.983 304.367 127.662 303.545 128.453L303.562 128.485ZM343.78 110.839C342.941 111.617 342.214 112.497 341.618 113.455C342.634 112.889 343.567 112.2 344.393 111.404C345.228 110.623 345.955 109.744 346.556 108.789C345.531 109.337 344.592 110.016 343.763 110.807L343.78 110.839Z" fill="white"/>
<path d="M304.379 106.335C303.119 101.976 301.723 97.6007 300.702 93.1933C300.702 93.0319 300.412 93.0964 300.446 93.1933C301.332 97.1325 301.996 101.12 302.881 105.076C303.766 109.031 304.72 112.793 305.776 116.635C307.683 123.625 309.93 130.568 312.365 137.413C312.365 137.833 312.365 138.252 312.365 138.656C312.365 139.721 312.536 140.771 312.655 141.885C312.774 142.999 312.961 144 313.114 145.114C313.268 146.228 313.54 147.245 313.608 148.343C313.608 148.504 313.881 148.504 313.864 148.343C313.744 147.293 313.864 146.211 313.779 145.114C313.693 144.016 313.778 142.983 313.659 141.885C313.659 141.626 313.659 141.368 313.659 141.11C315.056 144.904 316.486 148.682 317.984 152.411C318.103 152.702 318.597 152.572 318.495 152.266C313.285 137.09 308.841 121.72 304.379 106.335Z" fill="#263238"/>
<path d="M310.611 157.335C297.773 144.63 281.529 120.8 275.706 109.096C268.52 94.6625 267.192 67.6043 279.792 73.158L310.611 157.335Z" fill="#263238"/>
<path d="M287.627 103.639C287.184 116.313 282.655 196.793 280.816 197.939C277.785 199.763 164.69 187.429 164.316 186.638C163.941 185.847 167.262 178.566 172.438 168.185C183.165 146.696 202.065 112.212 214.154 96.9715C225.529 82.6029 233.617 75.6769 239.849 72.0283C241.994 70.7603 244.278 69.7156 246.659 68.9124C249.231 68.0729 251.478 67.6208 253.607 67.0235C260.332 65.1346 277.087 70.5753 279.573 72.3512C282.331 74.3208 288.07 90.9335 287.627 103.639Z" fill="#F66D1D"/>
<path d="M250.983 168.184C250.415 166.016 250.415 163.749 250.983 161.581C251.55 163.749 251.55 166.016 250.983 168.184V168.184ZM237.957 118.556C237.968 117.467 237.825 116.381 237.531 115.327C236.964 117.495 236.964 119.762 237.531 121.93C237.84 120.83 237.983 119.694 237.957 118.556ZM205.946 155.882C205.972 154.765 205.829 153.651 205.52 152.573C204.952 154.741 204.952 157.008 205.52 159.176C205.82 158.102 205.964 156.993 205.946 155.882V155.882ZM284.748 96.6482C284.76 95.5586 284.616 94.4725 284.322 93.4193C283.754 95.5874 283.754 97.8542 284.322 100.022C284.629 98.9219 284.772 97.7862 284.748 96.6482V96.6482ZM228.558 150.635C229.707 150.644 230.852 150.509 231.963 150.232C229.671 149.694 227.274 149.694 224.982 150.232C226.171 150.524 227.398 150.654 228.626 150.619L228.558 150.635ZM203.851 123.19C205 123.201 206.146 123.065 207.257 122.786C204.97 122.248 202.579 122.248 200.292 122.786C201.473 123.099 202.694 123.252 203.919 123.238L203.851 123.19ZM244.019 90.6263C245.167 90.63 246.312 90.4944 247.424 90.2227C245.137 89.6846 242.746 89.6846 240.46 90.2227C241.642 90.5285 242.862 90.6805 244.087 90.6747L244.019 90.6263ZM201.144 180.164C202.293 180.174 203.438 180.038 204.549 179.76C202.263 179.222 199.872 179.222 197.585 179.76C198.765 180.075 199.986 180.227 201.212 180.212L201.144 180.164ZM279.878 118.088C281.055 118.106 282.23 117.97 283.369 117.684C281.082 117.146 278.691 117.146 276.404 117.684C277.557 117.992 278.749 118.144 279.946 118.136L279.878 118.088ZM248.122 189.221C249.271 189.232 250.417 189.096 251.528 188.817C249.241 188.279 246.85 188.279 244.563 188.817C245.743 189.131 246.965 189.283 248.19 189.269L248.122 189.221ZM228.864 177.144C228.043 176.343 227.109 175.653 226.089 175.094C226.69 176.049 227.416 176.928 228.251 177.71C229.072 178.511 230.006 179.201 231.027 179.76C230.443 178.825 229.74 177.963 228.932 177.193L228.864 177.144ZM192.579 140.319C191.762 139.514 190.827 138.823 189.804 138.269C190.405 139.224 191.131 140.103 191.966 140.884C192.787 141.685 193.721 142.375 194.742 142.934C194.158 142 193.455 141.138 192.647 140.367L192.579 140.319ZM250.608 136.38C249.787 135.578 248.853 134.888 247.833 134.329C248.433 135.285 249.16 136.163 249.995 136.945C250.814 137.742 251.741 138.432 252.753 138.995C252.181 138.058 251.483 137.195 250.676 136.428L250.608 136.38ZM225.374 105.576C224.559 104.775 223.63 104.085 222.615 103.526C223.834 105.435 225.523 107.036 227.536 108.191C226.964 107.25 226.259 106.387 225.442 105.625L225.374 105.576ZM271.347 180.099C270.517 179.307 269.585 178.618 268.572 178.049C269.784 179.973 271.481 181.581 273.51 182.73C272.911 181.788 272.19 180.92 271.364 180.147L271.347 180.099ZM272.369 147.81C271.524 148.583 270.796 149.463 270.206 150.425C271.222 149.866 272.15 149.176 272.965 148.375C273.8 147.594 274.526 146.715 275.127 145.76C274.123 146.346 273.202 147.051 272.386 147.858L272.369 147.81ZM219.21 135.056C218.375 135.837 217.648 136.716 217.047 137.671C218.071 137.116 219.005 136.426 219.823 135.621C220.658 134.84 221.384 133.961 221.985 133.006C220.968 133.581 220.039 134.287 219.227 135.104L219.21 135.056ZM183.061 167.135C182.216 167.913 181.488 168.799 180.898 169.766C181.909 169.201 182.836 168.512 183.657 167.716C184.502 166.938 185.23 166.052 185.819 165.085C184.815 165.67 183.894 166.376 183.078 167.183L183.061 167.135ZM258.27 107.949C257.421 108.719 256.693 109.599 256.108 110.565C257.123 110.006 258.051 109.316 258.866 108.514C259.701 107.733 260.428 106.854 261.029 105.899C260.014 106.458 259.085 107.148 258.27 107.949V107.949ZM227.23 85.6861C226.391 86.464 225.664 87.3434 225.067 88.3015C226.09 87.7466 227.025 87.0562 227.843 86.2511C228.678 85.4698 229.404 84.591 230.005 83.6357C229.008 84.2045 228.097 84.8998 227.298 85.7022L227.23 85.6861Z" fill="white"/>
<path d="M246.638 68.9119L172.365 168.184C183.092 146.696 201.993 112.211 214.082 96.971C225.456 82.6024 233.544 75.6764 239.776 72.0277C241.938 70.7566 244.239 69.7119 246.638 68.9119V68.9119Z" fill="#263238"/>
<path d="M266.631 96.6482L272.369 88.1238L278.737 96.3091L276.677 102.347L269.951 102.815L266.631 96.6482Z" fill="#455A64"/>
<path d="M269.95 102.815L262.68 173.819L275.399 198.084L281.359 173.56L276.676 102.347L269.95 102.815Z" fill="#455A64"/>
<path d="M280.407 71.4466L272.114 85.1694L255.819 64.3591L249.57 69.5577C249.57 69.5577 263.924 101.201 264.231 99.9093L272.37 88.2045L280.219 98.1172L282.671 76.1446L280.407 71.4466Z" fill="#F66D1D"/>
<path d="M282.109 87.2518C282.399 83.6031 282.773 79.9383 282.875 76.2896C282.875 76.1605 282.688 76.0797 282.62 76.2896C281.36 79.68 280.372 93.5967 279.862 96.9063C279.538 96.4704 272.54 88.1236 272.438 88.2205C270.735 90.0287 264.81 98.5369 264.367 99.328C262.102 94.307 252.277 74.3684 249.434 69.525C249.432 69.5048 249.425 69.4852 249.413 69.468C249.402 69.4509 249.386 69.4365 249.368 69.4261C249.349 69.4157 249.329 69.4096 249.307 69.4082C249.286 69.4069 249.264 69.4104 249.245 69.4184C249.225 69.4264 249.207 69.4388 249.194 69.4544C249.18 69.47 249.17 69.4885 249.166 69.5083C249.161 69.5281 249.161 69.5488 249.166 69.5685C249.171 69.5882 249.181 69.6065 249.196 69.6219C251.069 74.8689 263.703 101.12 263.941 101.088C267.008 97.1116 269.85 92.9835 272.455 88.721C273.596 90.4807 280.543 99.7801 280.645 99.2473C281.356 95.2762 281.845 91.2721 282.109 87.2518V87.2518Z" fill="#263238"/>
<path d="M271.996 86.9616C265.594 87.0908 257.097 76.1448 254.577 68.1532C254.407 67.6204 256.28 62.5994 258.425 56.3999C259.668 52.6382 260.945 48.3276 261.831 44.4852C262.001 43.6779 264.572 45.7444 264.572 45.7444L269.68 48.0531L286.52 55.7057C283.938 60.3028 281.959 65.1825 280.629 70.2358C280.512 70.7671 280.45 71.3077 280.442 71.8503C280.45 71.9416 280.45 72.0334 280.442 72.1247C280.237 75.4667 278.177 86.9616 271.996 86.9616Z" fill="#FF9786"/>
<path d="M280.405 72.0117C280.413 72.103 280.413 72.1948 280.405 72.2861C279.491 72.23 278.585 72.0949 277.698 71.8825C260.262 67.9917 262.799 46.4387 262.799 46.4387L269.61 48.0532L286.45 55.7057C283.867 60.3027 281.889 65.1825 280.558 70.2357C280.442 70.821 280.391 71.4162 280.405 72.0117Z" fill="#263238"/>
<path d="M267.293 13.6008C261.197 20.9466 256.004 46.7294 260.073 54.398C265.965 65.5054 280.506 71.7049 291.693 63.9394C302.539 56.3999 308.72 22.674 303.697 15.2314C296.341 4.2693 276.283 2.73556 267.293 13.6008Z" fill="#FF9786"/>
<path d="M282.927 30.8106C283.73 30.6196 284.543 30.4687 285.362 30.3585C286.191 30.0927 287.088 30.0927 287.916 30.3585C288.162 30.4889 288.355 30.6926 288.466 30.9378C288.577 31.1831 288.599 31.4562 288.529 31.7147C288.306 32.2025 287.951 32.6254 287.499 32.9403C287.048 33.2551 286.516 33.4506 285.958 33.5068C284.846 33.794 283.66 33.673 282.638 33.1678C282.407 33.0419 282.22 32.8546 282.101 32.629C281.981 32.4035 281.933 32.1496 281.964 31.8988C281.995 31.648 282.103 31.4112 282.274 31.2178C282.445 31.0244 282.672 30.8828 282.927 30.8106Z" fill="#263238"/>
<path d="M302.851 35.0247C302.314 34.4326 301.746 33.8668 301.148 33.3295C300.633 32.651 299.897 32.1518 299.054 31.9089C298.775 31.8817 298.496 31.9431 298.258 32.0834C298.021 32.2237 297.839 32.435 297.743 32.6838C297.621 33.2027 297.648 33.7431 297.822 34.2486C297.996 34.7541 298.309 35.2061 298.73 35.5574C299.457 36.4257 300.503 37.0022 301.659 37.1719C301.936 37.2073 302.217 37.1613 302.465 37.04C302.714 36.9186 302.917 36.7278 303.047 36.4935C303.177 36.2591 303.228 35.9925 303.193 35.7298C303.158 35.4671 303.038 35.2209 302.851 35.0247V35.0247Z" fill="#263238"/>
<path d="M281.324 52.8479C282.692 52.3909 284.146 52.215 285.59 52.3319C287.034 52.4488 288.436 52.8558 289.702 53.5259C289.702 53.5259 290.587 49.619 290.587 49.619C291.047 49.9741 293.431 51.3464 293.499 50.9751C294.805 44.961 295.483 38.8396 295.525 32.6995C295.525 32.5058 295.219 32.4896 295.185 32.6995C293.925 38.2532 293.754 44.1621 292.579 49.7481C291.792 49.1013 290.915 48.5582 289.974 48.1337C289.53 49.4098 289.216 50.7236 289.038 52.0568C287.848 51.5675 286.555 51.3478 285.26 51.415C283.966 51.4823 282.706 51.8347 281.58 52.4442C281.256 52.638 281.069 52.9447 281.324 52.8479Z" fill="#263238"/>
<path d="M286.332 39.093C286.332 39.093 286.161 39.093 286.161 39.2222C285.787 40.9335 285.072 42.8546 283.301 43.0645V43.1614C285.344 43.3712 286.281 40.7882 286.332 39.093Z" fill="#263238"/>
<path d="M285.155 36.9139C282.294 36.0745 280.727 41.5469 283.367 42.3379C286.006 43.1289 287.539 37.6565 285.155 36.9139Z" fill="#263238"/>
<path d="M296.293 40.6753C296.293 40.6753 296.429 40.7721 296.412 40.8367C296.105 42.5803 296.037 44.6144 297.621 45.4216C297.621 45.4216 297.621 45.5185 297.621 45.4216C295.594 44.9858 295.731 42.2574 296.293 40.6753Z" fill="#263238"/>
<path d="M298.215 39.0766C301.195 39.2542 300.582 44.9048 297.824 44.7272C295.065 44.5496 295.729 38.9152 298.215 39.0766Z" fill="#263238"/>
<path d="M262.102 38.1565C265.66 38.1565 269.798 31.9409 270.871 29.5353C271.944 27.1298 271.841 20.1069 274.702 16.6197C280.202 9.85512 290.027 18.3956 294.879 18.9929C299.732 19.5903 300.669 16.1031 302.542 16.3937C304.057 16.6358 305.113 19.2997 305.453 23.1421C305.453 23.1421 305.777 15.5057 302.201 11.1144C295.56 2.94526 273.953 1.55682 266.989 9.38693C256.398 21.2209 259.548 38.1888 262.102 38.1565Z" fill="#263238"/>
<path d="M263.379 37.5752C263.379 37.5752 260.604 27.7272 256.109 28.3891C251.614 29.051 251.58 41.9341 255.394 45.0016C255.851 45.4198 256.392 45.7468 256.985 45.9631C257.578 46.1795 258.211 46.281 258.846 46.2614C259.481 46.2418 260.105 46.1017 260.682 45.8492C261.259 45.5968 261.777 45.2372 262.205 44.7917L263.379 37.5752Z" fill="#FF9786"/>
<path d="M256.143 32.0706C256.143 32.0706 256.024 32.0706 256.143 32.1674C258.782 34.4276 259.361 37.705 259.429 40.9177C259.36 40.5683 259.214 40.2368 258.999 39.9453C258.785 39.6538 258.507 39.409 258.185 39.2273C257.863 39.0455 257.503 38.9309 257.131 38.8911C256.758 38.8513 256.381 38.8873 256.024 38.9965C255.997 38.9965 255.971 39.0067 255.952 39.0249C255.933 39.0431 255.922 39.0677 255.922 39.0934C255.922 39.1191 255.933 39.1437 255.952 39.1619C255.971 39.1801 255.997 39.1903 256.024 39.1903C256.63 39.2137 257.214 39.4139 257.695 39.7635C258.177 40.1131 258.532 40.5951 258.714 41.1437C259.007 42.0632 259.19 43.0109 259.259 43.969C259.259 44.2919 259.855 44.3242 259.872 43.969C261.285 40.1428 260.23 33.9272 256.143 32.0706Z" fill="#263238"/>
<path d="M305.452 23.0937C305.452 22.9322 305.452 23.0936 305.452 23.2389C305.351 27.3741 304.89 31.4943 304.072 35.5573C303.364 39.4853 302.397 43.3676 301.178 47.1814C298.964 53.9782 296.07 60.8235 289.736 65.0534C289.599 65.1503 289.582 65.2633 289.736 65.1826C296.632 61.8568 299.509 54.3173 301.757 47.7626C303.017 43.8394 306.337 30.6009 305.452 23.0937Z" fill="#263238"/>
<path d="M228.152 99.2151C198.082 117.588 176.049 129.47 163.925 129.05C142.062 128.308 140.649 109.176 145.195 101.233C154.152 85.46 190.147 51.3466 204.637 39.7709C209.2 36.1223 233.924 66.8292 229.19 70.8814C225.53 74.0135 219.502 78.1788 219.502 78.1788C226.522 75.3958 233.708 73.0077 241.024 71.0268C257.047 66.1673 248.346 86.9614 228.152 99.2151Z" fill="#FF9786"/>
<path d="M203.223 41.5632C203.223 41.5632 212.468 29.3579 218.905 21.6409C222.48 17.3464 229.342 10.485 233.497 8.46693C239.729 5.4479 267.807 -3.44774 270.191 3.01007C272.37 8.8221 247.238 13.504 247.238 13.504C247.238 13.504 272.166 6.64259 273.426 14.0852C274.686 21.5279 245.552 23.2553 245.552 23.2553C245.552 23.2553 271.331 16.7975 271.365 24.6115C271.365 30.5688 245.075 33.5394 245.075 33.5394C245.075 33.5394 267.211 28.0825 267.568 34.2013C267.909 40.9659 243.815 45.1473 243.815 45.1473C241.823 60.8237 234.11 67.5075 228.031 71.6405C226.567 72.6414 203.223 41.5632 203.223 41.5632Z" fill="#FF9786"/>
<path d="M238.467 15.3605C241.361 14.4564 244.29 13.5202 247.27 12.8583C250.25 12.1964 253.229 11.6314 256.26 11.2439C260.201 10.6532 264.201 10.4961 268.179 10.7758C261.182 11.1118 254.233 12.0685 247.423 13.6331C244.46 14.295 241.464 14.8116 238.501 15.4735L238.467 15.3605Z" fill="#263238"/>
<path d="M240.783 25.6123C244.546 24.6113 248.224 23.4811 252.021 22.6254C255.818 21.7697 259.479 21.3015 263.31 20.7041C263.599 20.7041 263.531 20.8171 263.31 20.8817C259.496 21.6082 256.039 22.4962 252.242 23.3681C248.445 24.2399 244.614 24.7889 240.868 25.693C240.749 25.6123 240.732 25.6123 240.783 25.6123Z" fill="#263238"/>
<path d="M241.107 34.6856C246.824 33.0185 252.707 31.9096 258.662 31.376C258.951 31.376 258.849 31.5374 258.543 31.5858C252.685 32.5868 248.088 33.3295 241.175 34.8148C241.073 34.8955 240.988 34.7341 241.107 34.6856Z" fill="#263238"/>
<path d="M267.569 34.6206C267.368 36.026 266.621 37.3098 265.475 38.2211C264.377 38.9499 263.173 39.5211 261.899 39.9164C259.158 40.869 256.604 41.6924 253.896 42.6773C253.76 42.6773 253.896 42.9195 253.896 42.8711C257.064 41.87 260.145 41.095 263.21 39.868C264.45 39.4317 265.556 38.7105 266.428 37.769C267.165 36.883 267.583 35.7966 267.62 34.669C267.689 34.5076 267.603 34.4268 267.569 34.6206Z" fill="#263238"/>
<path d="M228.984 73.093L196.189 42.1924C196.189 42.1924 151.612 84.4103 144.103 101.927C136.594 119.444 146.657 130.987 166.766 129.825C186.875 128.662 222.956 103.994 235.352 95.2432C249.569 85.2336 259.19 63.3578 241.039 70.0416C236.544 71.6561 224.233 75.8375 224.233 75.8375L228.984 73.093Z" fill="#F66D1D"/>
<path d="M212.704 103.235C212.137 101.067 212.137 98.8002 212.704 96.632C213.272 98.8002 213.272 101.067 212.704 103.235V103.235ZM193.974 83.7165C193.978 82.6274 193.835 81.5423 193.549 80.4876C193.246 81.5393 193.103 82.6265 193.123 83.7165C193.112 84.806 193.255 85.892 193.549 86.9454C193.833 85.8958 193.976 84.8163 193.974 83.7326V83.7165ZM186.023 112.454C187.171 112.457 188.316 112.322 189.428 112.05C187.141 111.512 184.751 111.512 182.464 112.05C183.626 112.333 184.823 112.468 186.023 112.454V112.454ZM152.854 104.543C154.002 104.547 155.147 104.411 156.259 104.139C153.972 103.601 151.582 103.601 149.295 104.139C150.457 104.423 151.654 104.559 152.854 104.543V104.543ZM185.955 66.9262C187.104 66.9376 188.249 66.8018 189.36 66.5226C187.073 65.9845 184.683 65.9845 182.396 66.5226C183.556 66.8144 184.754 66.9503 185.955 66.9262V66.9262ZM162.116 120.542C161.299 119.737 160.364 119.046 159.341 118.492C159.942 119.447 160.669 120.326 161.503 121.107C162.325 121.908 163.259 122.598 164.279 123.157C163.694 122.205 162.984 121.326 162.168 120.542H162.116ZM208.005 60.1617C207.181 59.37 206.254 58.6811 205.246 58.1113C205.836 59.0788 206.564 59.9643 207.409 60.7429C208.233 61.5345 209.16 62.2235 210.167 62.7932C209.594 61.8287 208.883 60.9433 208.056 60.1617H208.005ZM169.37 76.7905C168.555 75.9893 167.627 75.2992 166.612 74.7401C167.831 76.6493 169.519 78.2502 171.533 79.4059C170.959 78.4464 170.248 77.5663 169.421 76.7905H169.37ZM234.227 81.7791C233.382 82.5576 232.654 83.4432 232.064 84.4107C234.084 83.255 235.773 81.6475 236.985 79.7288C235.993 80.2978 235.083 80.987 234.278 81.7791H234.227ZM176.573 96.9226C175.737 97.7097 175.011 98.594 174.41 99.5542C176.439 98.4049 178.136 96.7962 179.348 94.8723C178.353 95.4452 177.438 96.1341 176.624 96.9226H176.573ZM214.816 76.9358C213.971 77.7143 213.243 78.5999 212.653 79.5673C214.673 78.4117 216.362 76.8041 217.574 74.8854C216.585 75.4585 215.675 76.1474 214.867 76.9358H214.816Z" fill="white"/>
<path d="M229.325 74.9013L237.532 67.5072L198.71 33.1035L190.52 42.8386L229.325 74.9013Z" fill="#F66D1D"/>
<path d="M192.562 44.2108C194.163 45.1956 202.081 51.5081 203.545 52.6867C206.337 54.9469 209.113 57.2556 211.854 59.5643L220.112 66.5388C222.939 68.9282 225.953 71.253 228.626 73.8685C228.645 73.8917 228.655 73.9204 228.654 73.9498C228.654 73.9792 228.643 74.0075 228.623 74.0301C228.603 74.0527 228.576 74.0682 228.545 74.074C228.515 74.0799 228.483 74.0757 228.456 74.0622C225.374 71.9634 222.53 69.461 219.636 67.1362L211.122 60.2424C208.261 57.9391 205.424 55.6089 202.608 53.2517C201.229 52.0893 193.703 45.7122 192.494 44.3722C192.273 44.2592 192.443 44.1462 192.562 44.2108Z" fill="#263238"/>
<path d="M226.564 74.046C223.397 76.7583 220.502 79.7289 217.437 82.5057C214.372 85.2825 211.324 88.3338 208.311 91.256C202.317 97.0841 196.392 103.041 190.67 109.015C187.401 112.389 184.217 115.812 180.948 119.186C180.829 119.299 180.948 119.476 181.152 119.347L191.283 109.806C190.279 111.42 189.41 113.035 188.559 114.552C188.559 114.665 188.661 114.811 188.763 114.698C189.887 113.293 191.028 111.872 191.998 110.387C192.509 109.628 192.986 108.869 193.446 108.111C193.633 107.804 193.837 107.513 194.042 107.19C201.908 99.764 209.69 92.2569 217.199 84.4915C220.451 81.1173 223.788 77.7915 226.87 74.2882C226.892 74.249 226.898 74.2041 226.889 74.1609C226.88 74.1177 226.855 74.0788 226.819 74.0505C226.784 74.0223 226.739 74.0065 226.692 74.0056C226.646 74.0048 226.601 74.0191 226.564 74.046V74.046Z" fill="#263238"/>
</svg>
