<svg width="534" height="377" viewBox="0 0 534 377" fill="none" xmlns="http://www.w3.org/2000/svg">
<path d="M469.975 58.9707H54.9272V336.609H469.975V58.9707Z" fill="#DBDBDB"/>
<path d="M466.954 62.3535H57.9481V333.214H466.954V62.3535Z" fill="#37474F"/>
<path d="M524.024 357.418H0.864746V376.467H524.024V357.418Z" fill="#C7C7C7"/>
<path d="M0.864746 357.418L54.927 336.609H469.975L524.024 357.418H0.864746Z" fill="#DBDBDB"/>
<path d="M59.7579 350.041L94.6344 336.609H430.267L465.144 350.041H59.7579Z" fill="#37474F"/>
<path d="M443.836 82.9371H81.0533V312.643H443.836V82.9371Z" fill="white"/>
<path d="M443.849 82.9371H80.7538V91.7748H443.849V82.9371Z" fill="#A6A6A6"/>
<path d="M87.781 87.3564C87.781 87.7909 87.6521 88.2157 87.4107 88.5769C87.1693 88.9382 86.8262 89.2198 86.4248 89.3861C86.0233 89.5524 85.5816 89.5959 85.1554 89.5111C84.7293 89.4264 84.3378 89.2171 84.0306 88.9099C83.7233 88.6026 83.5141 88.2112 83.4293 87.785C83.3445 87.3588 83.388 86.9171 83.5543 86.5157C83.7206 86.1142 84.0022 85.7711 84.3635 85.5297C84.7248 85.2883 85.1495 85.1595 85.584 85.1595C85.873 85.1578 86.1594 85.2135 86.4267 85.3233C86.694 85.4331 86.9369 85.5949 87.1412 85.7992C87.3455 86.0036 87.5073 86.2464 87.6171 86.5137C87.7269 86.781 87.7826 87.0674 87.781 87.3564Z" fill="#C7C7C7"/>
<path d="M94.5342 89.5533C95.7476 89.5533 96.7312 88.5697 96.7312 87.3564C96.7312 86.143 95.7476 85.1594 94.5342 85.1594C93.3209 85.1594 92.3373 86.143 92.3373 87.3564C92.3373 88.5697 93.3209 89.5533 94.5342 89.5533Z" fill="white"/>
<path d="M105.682 87.3564C105.682 87.7909 105.553 88.2157 105.311 88.5769C105.07 88.9382 104.727 89.2198 104.326 89.3861C103.924 89.5524 103.482 89.5959 103.056 89.5111C102.63 89.4264 102.239 89.2171 101.931 88.9099C101.624 88.6026 101.415 88.2112 101.33 87.785C101.245 87.3588 101.289 86.9171 101.455 86.5157C101.621 86.1142 101.903 85.7711 102.264 85.5297C102.626 85.2883 103.05 85.1595 103.485 85.1595C103.774 85.1578 104.06 85.2135 104.327 85.3233C104.595 85.4331 104.838 85.5949 105.042 85.7992C105.246 86.0036 105.408 86.2464 105.518 86.5137C105.628 86.781 105.683 87.0674 105.682 87.3564Z" fill="#F66D1D"/>
<path d="M161.905 63.7773C148.685 81.2529 147.849 107.129 147.849 107.129C147.849 107.129 136.69 134.591 142.769 147.785C144.413 151.543 146.944 154.845 150.144 157.411C153.344 159.976 157.118 161.727 161.143 162.515L158.647 155.1C158.647 155.1 164.988 164.188 182.089 165.798C199.19 167.408 220.336 159.195 230.896 151.817C237.168 147.487 242.209 141.603 245.526 134.741L242.829 146.425C242.829 146.425 258.807 143.579 265.91 125.204C273.012 106.83 242.193 86.1212 239.072 81.1656C235.951 76.21 227.576 38.1005 187.993 50.5082C187.968 50.4583 171.004 51.7315 161.905 63.7773Z" fill="#263238"/>
<path d="M155.164 162.353C150.27 160.842 145.814 156.723 142.856 152.654C139.674 148.38 138.017 143.163 138.15 137.837C138.387 131.446 140.896 125.479 143.33 119.662C145.827 113.645 148.81 107.791 151.219 101.749C151.344 101.412 150.845 101.225 150.657 101.5C147.653 106.237 144.923 111.142 142.481 116.192C139.909 120.855 137.89 125.803 136.465 130.934C135.134 135.663 135.186 140.675 136.614 145.376C137.956 149.194 140.215 152.623 143.193 155.362C146.7 158.658 150.845 160.505 155.001 162.777C155.029 162.788 155.059 162.793 155.089 162.792C155.119 162.791 155.148 162.784 155.175 162.772C155.202 162.76 155.227 162.743 155.247 162.721C155.268 162.699 155.284 162.674 155.295 162.646C155.305 162.618 155.31 162.588 155.31 162.559C155.309 162.529 155.302 162.499 155.29 162.472C155.278 162.445 155.26 162.42 155.239 162.4C155.217 162.379 155.191 162.363 155.164 162.353Z" fill="#263238"/>
<path d="M266.808 107.104C259.931 93.6108 245.9 86.4207 236.388 75.1614C231.233 69.0574 226.926 62.1046 220.635 57.0616C220.46 56.9368 220.236 57.2239 220.398 57.3612C225.628 61.9673 229.136 67.884 233.218 73.4263C237.514 78.89 242.348 83.9082 247.648 88.4055C257.047 96.8937 268.281 106.917 268.356 120.661C268.356 127.014 265.685 134.392 259.618 137.275C259.394 137.375 259.618 137.762 259.818 137.625C262.193 136.259 264.265 134.423 265.907 132.229C267.549 130.036 268.726 127.531 269.367 124.867C270.681 118.831 269.772 112.524 266.808 107.104Z" fill="#263238"/>
<path d="M267.944 110.837C267.61 105.404 265.604 100.207 262.202 95.9574C258.757 91.7758 253.888 89.1045 249.083 86.7952C243.528 84.1364 237.736 81.7023 233.754 76.8091C233.592 76.5969 233.305 76.884 233.467 77.0837C239.82 85.1724 250.119 87.9061 257.746 94.3846C266.483 101.799 268.231 114.145 264.436 124.58C261.985 130.954 258.063 136.66 252.99 141.232C252.902 141.307 252.99 141.444 253.114 141.357C261.802 133.717 268.868 122.87 267.944 110.837Z" fill="#263238"/>
<path d="M198.591 172.002C211.735 185.808 279.279 251.117 308.763 245.025C344.501 237.648 386.005 215.903 402.208 200.45C411.295 191.799 367.494 148.023 358.356 154.776C343.964 165.436 309.287 183.161 303.183 185.658C297.079 188.154 245.439 161.529 215.33 151.118C188.218 141.681 189.342 162.278 198.591 172.002Z" fill="#DD6A57"/>
<path d="M426.911 180.814C418.985 191.387 394.306 206.653 386.967 208.051C379.627 209.45 352.24 168.357 354.699 161.054C357.158 153.752 386.617 120.249 399.637 116.891C412.656 113.533 435.137 169.867 426.911 180.814Z" fill="#DD6A57"/>
<path d="M358.68 154.451C358.68 154.451 363.361 137.912 362.425 122.808C361.601 110.1 358.942 91.3265 365.758 90.6274C379.751 89.1919 386.367 136.014 386.367 136.014C386.367 136.014 385.955 157.147 372.224 159.731C363.573 161.466 358.68 154.451 358.68 154.451Z" fill="#DD6A57"/>
<path d="M380.6 126.091C379.901 133.056 388.514 129.898 388.514 129.898C388.514 129.898 377.28 137.388 379.277 144.877C381.275 152.055 391.535 147.861 392.284 147.573C391.685 147.985 381.487 155.188 384.333 162.465C387.291 170.03 396.815 164.063 397.489 163.713C397.04 164.263 391.336 171.74 394.756 176.783C400.623 185.446 415.752 166.797 424.202 166.198C424.202 166.198 426.761 180.428 426.911 180.827C426.911 180.827 441.666 163.351 440.305 151.955C440.131 150.298 439.396 148.75 438.222 147.568C437.049 146.385 435.507 145.638 433.851 145.451C433.851 145.451 439.231 140.334 437.184 134.529C436.123 131.546 430.406 130.597 430.406 130.597C430.406 130.597 434.55 126.328 432.403 121.273C430.693 117.241 425.238 116.916 425.238 116.916C425.238 116.916 427.298 110.962 424.227 107.404C418.023 100.202 382.086 111.174 380.6 126.091Z" fill="#DD6A57"/>
<path d="M424.377 116.716C424.404 116.716 424.429 116.705 424.448 116.687C424.466 116.668 424.477 116.643 424.477 116.616C424.477 116.59 424.466 116.564 424.448 116.545C424.429 116.527 424.404 116.516 424.377 116.516C411.682 117.24 397.951 121.934 388.04 130.01C387.716 130.285 388.04 130.921 388.415 130.697C400.211 124.318 411.208 119.612 424.377 116.716Z" fill="#263238"/>
<path d="M430.568 130.46C430.705 130.46 430.655 130.197 430.568 130.197C417.486 131.021 402.182 136.726 391.872 147.386C391.522 147.748 391.572 148.435 392.009 148.048C399.324 141.482 418.697 133.006 430.568 130.46Z" fill="#263238"/>
<path d="M397.064 164.687C407.362 154.851 419.783 149.296 433.351 145.439C433.526 145.439 433.439 145.139 433.276 145.139C426.124 145.226 417.723 148.584 411.419 151.755C405.509 154.596 400.441 158.929 396.715 164.325C396.528 164.537 396.802 164.899 397.064 164.687Z" fill="#263238"/>
<path d="M388.327 129.835C387.94 130.148 388.839 130.372 388.452 130.697C386.854 132.095 377.967 141.295 380.151 145.289C381.924 148.497 387.453 148.347 389.55 147.461L394.843 145.227L390.649 149.159C388.779 150.895 387.202 152.923 385.98 155.163C385.353 156.169 384.946 157.296 384.787 158.471C384.628 159.646 384.72 160.842 385.057 161.978C385.382 163.024 386.054 163.927 386.962 164.54C387.869 165.153 388.958 165.438 390.05 165.349C392.499 165.084 394.841 164.199 396.853 162.777L402.532 159.032L398.376 164.437C397.223 165.927 396.267 167.559 395.53 169.293C394.765 170.91 394.496 172.716 394.756 174.486C394.903 175.276 395.269 176.01 395.811 176.603C396.354 177.197 397.052 177.626 397.826 177.844C399.634 178.07 401.469 177.78 403.119 177.007C406.698 175.371 410.146 173.459 413.43 171.29C415.127 170.254 416.837 169.218 418.598 168.257C420.301 167.191 422.211 166.498 424.202 166.222C422.281 166.703 420.471 167.551 418.872 168.719C417.212 169.792 415.602 170.953 413.991 172.127C410.784 174.564 407.357 176.7 403.756 178.505C401.822 179.53 399.63 179.964 397.452 179.753C396.282 179.504 395.211 178.919 394.368 178.07C393.526 177.22 392.949 176.144 392.709 174.973C392.33 172.786 392.608 170.536 393.507 168.507C394.297 166.561 395.338 164.727 396.603 163.052L398.151 164.687C395.796 166.406 393.034 167.481 390.137 167.808C388.524 167.927 386.919 167.486 385.593 166.559C384.324 165.614 383.367 164.31 382.847 162.815C382.42 161.376 382.303 159.864 382.503 158.377C382.703 156.89 383.216 155.463 384.008 154.189C385.38 151.74 387.152 149.538 389.251 147.673L390.349 149.371C387.641 150.419 381.474 151.256 378.116 146.625C374.596 139.896 386.08 131.258 388.327 129.835Z" fill="#263238"/>
<path d="M388.514 129.898C387.087 130.116 385.635 130.116 384.208 129.898C383.634 129.827 383.09 129.605 382.632 129.254C382.173 128.903 381.817 128.436 381.599 127.901C381.292 126.663 381.348 125.363 381.761 124.156C382.148 122.795 382.635 121.397 383.184 119.962C381.988 120.965 381.015 122.206 380.325 123.607C379.488 125.132 379.286 126.926 379.764 128.6C380.114 129.483 380.729 130.238 381.524 130.759C382.278 131.211 383.141 131.448 384.02 131.446C385.645 131.425 387.221 130.882 388.514 129.898Z" fill="#263238"/>
<path d="M347.883 159.332L398.625 216.677C398.625 216.677 323.305 253.551 298.764 247.883C274.223 242.216 223.556 204.019 201.399 176.732C179.243 149.445 192.661 141.856 223.531 152.067C254.401 162.277 298.04 182.212 302.471 182.025C306.902 181.838 347.883 159.332 347.883 159.332Z" fill="#F66D1D"/>
<path d="M398.626 216.677C398.626 216.677 323.305 253.538 298.764 247.883C283.486 244.376 258.096 228.236 235.752 209.949C235.657 209.892 235.569 209.825 235.49 209.749C222.034 198.714 209.701 186.931 201.387 176.682C194.185 167.832 190.752 161.054 190.428 156.286C190.347 155.395 190.41 154.498 190.615 153.627C192.338 146.137 204.683 145.813 223.519 152.042C254.426 162.24 298.028 182.175 302.472 182C306.916 181.825 347.871 159.332 347.871 159.332L398.626 216.677Z" fill="#F66D1D"/>
<path d="M261.403 210.997C262.351 210.671 263.371 210.615 264.349 210.835C264.882 211.035 265.344 211.39 265.673 211.856C266.003 212.321 266.185 212.874 266.196 213.444C266.187 213.822 266.275 214.197 266.452 214.531C266.629 214.865 266.889 215.149 267.207 215.354C267.557 215.585 267.962 215.719 268.381 215.741C268.855 215.828 269.317 215.878 269.791 216.003C268.835 216.341 267.799 216.38 266.82 216.115C266.303 215.894 265.862 215.525 265.553 215.054C265.244 214.583 265.082 214.032 265.085 213.469C265.074 213.093 264.969 212.725 264.78 212.4C264.59 212.075 264.321 211.803 263.999 211.609C263.621 211.385 263.191 211.264 262.751 211.259C262.339 211.172 261.865 211.122 261.403 210.997Z" fill="white"/>
<path d="M195.058 158.196C194.106 158.527 193.077 158.571 192.1 158.321C191.682 158.151 191.312 157.881 191.023 157.535C190.733 157.189 190.533 156.777 190.44 156.336C190.359 155.445 190.422 154.548 190.627 153.677C191.147 154.199 191.446 154.901 191.463 155.637C191.458 156.016 191.549 156.39 191.728 156.724C191.907 157.058 192.168 157.341 192.487 157.547C192.834 157.773 193.234 157.906 193.648 157.934C194.122 158.021 194.584 158.071 195.058 158.196Z" fill="white"/>
<path d="M332.754 191.238C333.709 190.922 334.731 190.87 335.712 191.088C336.247 191.285 336.708 191.64 337.036 192.106C337.364 192.572 337.542 193.127 337.547 193.697C337.544 194.075 337.636 194.449 337.815 194.782C337.994 195.116 338.254 195.399 338.571 195.606C338.921 195.834 339.327 195.963 339.744 195.981C340.206 196.081 340.68 196.131 341.142 196.256C340.19 196.591 339.159 196.63 338.184 196.368C337.663 196.146 337.219 195.776 336.908 195.303C336.597 194.83 336.433 194.275 336.436 193.709C336.431 193.335 336.329 192.969 336.141 192.645C335.953 192.322 335.685 192.052 335.363 191.862C334.987 191.631 334.555 191.51 334.115 191.512C333.69 191.412 333.228 191.362 332.754 191.238Z" fill="white"/>
<path d="M382.085 212.084C383.036 211.768 384.054 211.716 385.031 211.934C385.565 212.13 386.027 212.483 386.357 212.946C386.686 213.41 386.868 213.962 386.879 214.53C386.87 214.91 386.958 215.286 387.135 215.623C387.312 215.959 387.572 216.245 387.89 216.453C388.24 216.68 388.646 216.81 389.063 216.827C389.538 216.915 389.999 216.977 390.474 217.102C389.516 217.429 388.483 217.468 387.503 217.214C386.983 216.992 386.541 216.621 386.232 216.148C385.923 215.674 385.762 215.12 385.768 214.555C385.757 214.179 385.652 213.812 385.462 213.487C385.272 213.162 385.004 212.89 384.682 212.695C384.302 212.475 383.872 212.359 383.433 212.358C383.071 212.258 382.597 212.209 382.085 212.084Z" fill="white"/>
<path d="M286.131 225.602C287.086 225.287 288.108 225.235 289.09 225.452C289.634 225.65 290.105 226.01 290.44 226.483C290.774 226.956 290.956 227.519 290.962 228.099C290.954 228.477 291.043 228.851 291.22 229.185C291.397 229.519 291.656 229.803 291.973 230.008C292.324 230.236 292.729 230.365 293.147 230.383C293.621 230.483 294.083 230.533 294.557 230.658C293.6 230.991 292.566 231.03 291.586 230.77C291.067 230.548 290.624 230.177 290.316 229.704C290.007 229.23 289.845 228.676 289.851 228.111C289.841 227.737 289.735 227.371 289.546 227.048C289.356 226.725 289.087 226.455 288.765 226.264C288.39 226.034 287.957 225.913 287.517 225.914C287.068 225.814 286.593 225.752 286.131 225.602Z" fill="white"/>
<path d="M232.007 157.023C232.961 156.707 233.984 156.655 234.965 156.873C235.498 157.073 235.957 157.429 236.285 157.894C236.612 158.36 236.792 158.913 236.8 159.482C236.797 159.86 236.889 160.234 237.068 160.567C237.247 160.901 237.507 161.184 237.824 161.391C238.173 161.623 238.578 161.757 238.997 161.778C239.459 161.866 239.933 161.916 240.408 162.041C239.452 162.379 238.415 162.418 237.437 162.153C236.919 161.932 236.478 161.563 236.17 161.092C235.861 160.621 235.698 160.07 235.702 159.507C235.693 159.13 235.589 158.762 235.399 158.436C235.209 158.111 234.94 157.839 234.616 157.647C234.238 157.422 233.807 157.302 233.367 157.297C232.956 157.21 232.481 157.147 232.007 157.023Z" fill="white"/>
<path d="M348.957 222.906C348.516 223.807 347.833 224.568 346.985 225.103C346.467 225.34 345.89 225.415 345.329 225.319C344.768 225.224 344.249 224.961 343.839 224.566C343.575 224.295 343.246 224.094 342.884 223.983C342.522 223.872 342.138 223.853 341.767 223.929C341.358 224.016 340.979 224.21 340.668 224.491C340.269 224.753 339.907 225.053 339.483 225.29C340.019 224.529 340.419 223.592 341.505 223.118C342.029 222.907 342.604 222.856 343.157 222.971C343.71 223.087 344.217 223.364 344.613 223.767C344.883 224.027 345.215 224.214 345.578 224.31C345.94 224.406 346.321 224.408 346.685 224.316C347.092 224.211 347.465 224.005 347.771 223.717C348.17 223.443 348.545 223.105 348.957 222.906Z" fill="white"/>
<path d="M289.639 199.389C289.197 200.293 288.51 201.054 287.655 201.586C287.139 201.821 286.564 201.896 286.005 201.801C285.446 201.705 284.929 201.443 284.521 201.049C284.257 200.778 283.929 200.577 283.567 200.466C283.205 200.355 282.82 200.336 282.449 200.412C282.04 200.499 281.661 200.693 281.351 200.974C280.951 201.236 280.577 201.536 280.165 201.773C280.702 201.011 281.101 200.075 282.175 199.601C282.699 199.39 283.274 199.339 283.827 199.454C284.38 199.57 284.887 199.847 285.283 200.25C285.557 200.509 285.891 200.695 286.255 200.791C286.619 200.887 287.002 200.89 287.368 200.799C287.774 200.694 288.148 200.488 288.453 200.2C288.853 199.975 289.215 199.688 289.639 199.389Z" fill="white"/>
<path d="M318.486 212.271C318.042 213.169 317.36 213.929 316.514 214.468C315.996 214.705 315.417 214.779 314.856 214.681C314.294 214.583 313.776 214.317 313.368 213.918C313.105 213.646 312.776 213.446 312.413 213.337C312.051 213.228 311.666 213.213 311.296 213.294C310.885 213.376 310.505 213.57 310.198 213.856C309.798 214.118 309.436 214.418 308.949 214.655C309.486 213.893 309.886 212.957 310.972 212.483C311.495 212.273 312.069 212.222 312.621 212.335C313.174 212.448 313.681 212.721 314.08 213.119C314.348 213.382 314.68 213.571 315.043 213.667C315.407 213.764 315.789 213.764 316.152 213.669C316.563 213.565 316.941 213.359 317.25 213.069C317.7 212.807 318.074 212.508 318.486 212.271Z" fill="white"/>
<path d="M355.797 169.867C355.347 170.766 354.661 171.526 353.812 172.064C353.294 172.301 352.717 172.376 352.156 172.28C351.595 172.185 351.076 171.922 350.666 171.527C350.402 171.255 350.074 171.054 349.712 170.942C349.35 170.831 348.965 170.813 348.594 170.891C348.187 170.983 347.809 171.176 347.496 171.452C347.109 171.714 346.734 172.014 346.247 172.251C346.797 171.49 347.184 170.553 348.269 170.079C348.794 169.868 349.369 169.817 349.922 169.932C350.475 170.048 350.982 170.325 351.378 170.728C351.649 170.987 351.981 171.173 352.343 171.269C352.705 171.365 353.086 171.368 353.45 171.277C353.885 171.179 354.288 170.973 354.623 170.678C355.01 170.404 355.372 170.117 355.797 169.867Z" fill="white"/>
<path d="M213.433 166.934C213.749 167.888 213.8 168.91 213.583 169.892C213.382 170.424 213.026 170.884 212.561 171.211C212.096 171.539 211.543 171.718 210.974 171.727C210.595 171.724 210.222 171.816 209.888 171.995C209.555 172.174 209.271 172.434 209.064 172.751C208.833 173.1 208.699 173.505 208.677 173.924C208.59 174.386 208.54 174.86 208.415 175.334C208.077 174.379 208.038 173.342 208.303 172.364C208.524 171.846 208.893 171.405 209.364 171.096C209.835 170.788 210.386 170.625 210.949 170.628C211.325 170.618 211.693 170.513 212.018 170.323C212.343 170.133 212.615 169.865 212.809 169.542C213.033 169.164 213.154 168.734 213.158 168.294C213.246 167.845 213.296 167.37 213.433 166.934Z" fill="white"/>
<path d="M364.011 202.784C364.326 203.738 364.378 204.76 364.161 205.742C363.962 206.275 363.606 206.736 363.141 207.064C362.675 207.391 362.121 207.57 361.552 207.577C361.172 207.569 360.797 207.659 360.463 207.839C360.128 208.018 359.846 208.28 359.642 208.601C359.413 208.946 359.283 209.347 359.268 209.761C359.168 210.236 359.118 210.698 358.993 211.172C358.657 210.22 358.618 209.188 358.881 208.214C359.102 207.693 359.473 207.249 359.946 206.938C360.419 206.627 360.973 206.463 361.539 206.466C361.914 206.458 362.281 206.354 362.605 206.164C362.928 205.974 363.197 205.704 363.387 205.38C363.608 205.023 363.729 204.614 363.736 204.194C363.824 203.72 363.886 203.246 364.011 202.784Z" fill="white"/>
<path d="M321.732 233.828C322.047 234.783 322.099 235.805 321.882 236.787C321.684 237.321 321.329 237.783 320.863 238.11C320.397 238.438 319.842 238.616 319.273 238.622C318.894 238.618 318.521 238.711 318.187 238.889C317.854 239.068 317.57 239.328 317.363 239.645C317.135 239.996 317.006 240.401 316.989 240.819C316.889 241.28 316.839 241.755 316.714 242.229C316.38 241.272 316.341 240.237 316.602 239.258C316.824 238.739 317.195 238.296 317.668 237.988C318.141 237.679 318.695 237.517 319.26 237.523C319.635 237.513 320.001 237.407 320.324 237.218C320.647 237.028 320.916 236.759 321.108 236.437C321.338 236.062 321.459 235.629 321.457 235.189C321.557 234.777 321.607 234.34 321.732 233.828Z" fill="white"/>
<path d="M314.342 181.376C314.658 182.331 314.71 183.353 314.492 184.334C314.295 184.869 313.939 185.33 313.473 185.658C313.008 185.986 312.453 186.164 311.883 186.169C311.505 186.166 311.131 186.258 310.798 186.437C310.464 186.616 310.181 186.876 309.973 187.193C309.746 187.544 309.616 187.949 309.599 188.366C309.499 188.828 309.449 189.303 309.324 189.764C308.989 188.812 308.95 187.781 309.212 186.806C309.434 186.285 309.804 185.841 310.277 185.53C310.75 185.219 311.305 185.055 311.871 185.058C312.245 185.053 312.611 184.951 312.935 184.763C313.258 184.575 313.528 184.307 313.718 183.985C313.948 183.609 314.069 183.177 314.068 182.737C314.168 182.312 314.218 181.913 314.342 181.376Z" fill="white"/>
<path d="M265.535 177.182C265.856 178.135 265.908 179.159 265.684 180.14C265.488 180.673 265.134 181.133 264.671 181.461C264.207 181.788 263.655 181.968 263.088 181.975C262.708 181.972 262.333 182.064 261.997 182.243C261.661 182.422 261.376 182.682 261.166 182.999C260.938 183.349 260.809 183.755 260.791 184.172C260.704 184.634 260.641 185.108 260.517 185.57C260.189 184.617 260.15 183.588 260.404 182.612C260.627 182.092 260.998 181.649 261.471 181.338C261.944 181.027 262.497 180.863 263.063 180.864C263.439 180.859 263.807 180.758 264.133 180.57C264.459 180.382 264.731 180.114 264.923 179.791C265.143 179.411 265.259 178.981 265.26 178.542C265.36 178.168 265.41 177.656 265.535 177.182Z" fill="white"/>
<path d="M235.763 209.999C235.669 209.942 235.581 209.875 235.501 209.799C235.501 209.637 235.564 209.475 235.614 209.3C235.651 209.549 235.713 209.774 235.763 209.999Z" fill="white"/>
<path d="M230.92 188.029C231.373 187.132 232.059 186.373 232.905 185.832C233.424 185.599 234.002 185.526 234.562 185.624C235.123 185.722 235.641 185.986 236.051 186.381C236.466 186.799 237.028 187.04 237.617 187.051C238.206 187.063 238.777 186.845 239.209 186.444C239.608 186.182 239.983 185.895 240.457 185.645C239.908 186.406 239.521 187.343 238.435 187.817C237.911 188.026 237.338 188.078 236.785 187.964C236.233 187.851 235.726 187.579 235.327 187.18C235.056 186.917 234.722 186.729 234.356 186.632C233.991 186.536 233.608 186.536 233.242 186.631C232.833 186.731 232.459 186.938 232.156 187.23C231.707 187.492 231.345 187.792 230.92 188.029Z" fill="white"/>
<path d="M383.334 223.418C380.725 219.611 377.33 216.228 374.359 212.695C371.388 209.163 368.117 205.543 364.884 202.01C358.643 195.145 352.227 188.479 345.773 181.838C342.029 177.968 338.122 174.261 334.314 170.429C334.177 170.292 333.94 170.516 334.065 170.666C340.219 177.819 346.273 185.009 352.576 192.024C358.88 199.039 365.059 205.755 371.538 212.346C373.385 214.243 375.282 216.09 377.18 217.938C379.034 219.957 381.001 221.87 383.072 223.667C383.209 223.792 383.434 223.58 383.334 223.418Z" fill="#263238"/>
<path opacity="0.1" d="M325.801 245.125C314.842 247.996 305.118 249.381 298.776 247.933C283.498 244.426 258.108 228.286 235.764 209.999C235.669 209.942 235.581 209.875 235.502 209.799C222.046 198.764 209.713 186.981 201.399 176.733C194.197 167.882 190.764 161.104 190.44 156.336C190.359 155.445 190.422 154.548 190.627 153.677C191.426 150.232 194.497 148.297 199.365 147.835L325.801 245.125Z" fill="black"/>
<path d="M248.796 245.661L260.617 312.643H119.014C123.046 247.159 161.043 175.534 177.795 155.125C186.183 144.902 202.76 142.717 215.33 151.056C218.313 153.028 253.053 204.281 255.899 211.759C261.566 226.501 248.796 245.661 248.796 245.661Z" fill="#F66D1D"/>
<path d="M201.836 195.644C202.791 195.328 203.813 195.277 204.795 195.494C205.326 195.696 205.785 196.052 206.112 196.517C206.439 196.982 206.619 197.535 206.63 198.103C206.623 198.694 206.848 199.264 207.256 199.691C207.664 200.118 208.224 200.368 208.814 200.387C209.289 200.487 209.75 200.537 210.225 200.662C209.269 201 208.233 201.039 207.254 200.774C206.736 200.553 206.295 200.184 205.987 199.713C205.678 199.242 205.515 198.691 205.519 198.128C205.51 197.751 205.406 197.383 205.216 197.058C205.026 196.732 204.757 196.461 204.433 196.268C204.055 196.044 203.624 195.923 203.185 195.918C202.773 195.794 202.336 195.731 201.836 195.644Z" fill="white"/>
<path d="M211.073 254.312C212.028 253.997 213.05 253.945 214.032 254.162C214.564 254.363 215.024 254.719 215.351 255.184C215.679 255.649 215.858 256.202 215.867 256.771C215.864 257.15 215.956 257.523 216.135 257.857C216.314 258.191 216.573 258.474 216.89 258.681C217.241 258.909 217.646 259.038 218.064 259.056C218.526 259.155 219 259.205 219.462 259.33C218.51 259.666 217.478 259.705 216.503 259.443C215.982 259.223 215.538 258.853 215.229 258.379C214.919 257.905 214.759 257.35 214.768 256.784C214.758 256.409 214.653 256.043 214.463 255.72C214.273 255.397 214.004 255.128 213.682 254.936C213.307 254.706 212.875 254.585 212.434 254.587C211.972 254.549 211.51 254.487 211.073 254.312Z" fill="white"/>
<path d="M176.334 215.191C177.287 214.866 178.311 214.809 179.293 215.029C179.824 215.231 180.283 215.587 180.61 216.052C180.937 216.517 181.117 217.07 181.128 217.638C181.121 218.017 181.212 218.392 181.391 218.726C181.57 219.061 181.832 219.343 182.151 219.548C182.495 219.781 182.897 219.915 183.312 219.935C183.786 220.022 184.248 220.072 184.723 220.197C183.771 220.533 182.739 220.572 181.764 220.309C181.244 220.09 180.801 219.722 180.49 219.251C180.179 218.78 180.014 218.227 180.017 217.663C180.009 217.286 179.906 216.917 179.716 216.592C179.526 216.266 179.255 215.995 178.931 215.803C178.571 215.589 178.163 215.469 177.745 215.454C177.271 215.366 176.809 215.316 176.334 215.191Z" fill="white"/>
<path d="M157.523 275.358C158.473 275.042 159.491 274.99 160.469 275.208C161.004 275.404 161.467 275.759 161.795 276.225C162.123 276.692 162.3 277.247 162.304 277.817C162.301 278.196 162.393 278.569 162.572 278.903C162.751 279.236 163.01 279.52 163.327 279.727C163.678 279.954 164.083 280.084 164.501 280.101C164.963 280.201 165.437 280.251 165.911 280.376C164.954 280.71 163.92 280.749 162.94 280.488C162.421 280.266 161.979 279.895 161.67 279.422C161.361 278.949 161.199 278.395 161.205 277.829C161.195 277.455 161.09 277.089 160.9 276.766C160.71 276.443 160.441 276.173 160.119 275.982C159.744 275.752 159.312 275.631 158.871 275.633C158.459 275.533 157.985 275.533 157.523 275.358Z" fill="white"/>
<path d="M242.192 304.58C243.147 304.264 244.169 304.213 245.151 304.43C245.683 304.631 246.143 304.987 246.47 305.452C246.797 305.917 246.977 306.47 246.985 307.039C246.982 307.418 247.075 307.791 247.253 308.125C247.432 308.458 247.692 308.742 248.009 308.949C248.36 309.177 248.765 309.306 249.182 309.323C249.644 309.423 250.119 309.473 250.593 309.598C249.636 309.932 248.601 309.971 247.622 309.71C247.102 309.488 246.66 309.117 246.351 308.644C246.043 308.171 245.881 307.617 245.887 307.052C245.876 306.677 245.771 306.311 245.581 305.988C245.392 305.665 245.123 305.396 244.801 305.204C244.425 304.974 243.993 304.853 243.553 304.855C243.141 304.767 242.666 304.705 242.192 304.58Z" fill="white"/>
<path d="M126.479 283.197C125.522 283.531 124.487 283.57 123.508 283.309C123.301 283.231 123.107 283.121 122.934 282.985C122.996 282.573 123.083 282.173 123.171 281.737C123.343 282.055 123.592 282.325 123.895 282.523C124.245 282.751 124.651 282.88 125.068 282.897C125.542 283.022 126.004 283.022 126.479 283.197Z" fill="white"/>
<path d="M186.67 153.203C187.622 152.877 188.646 152.821 189.628 153.04C190.16 153.242 190.619 153.599 190.946 154.064C191.273 154.529 191.453 155.081 191.463 155.649C191.454 156.028 191.542 156.402 191.719 156.736C191.897 157.071 192.157 157.354 192.474 157.559C192.824 157.791 193.229 157.924 193.648 157.946C194.122 158.034 194.584 158.083 195.058 158.208C194.106 158.544 193.075 158.583 192.1 158.321C191.579 158.103 191.135 157.735 190.823 157.263C190.512 156.792 190.348 156.239 190.352 155.674C190.345 155.297 190.241 154.929 190.051 154.603C189.861 154.277 189.591 154.006 189.266 153.814C188.888 153.59 188.458 153.469 188.018 153.465C187.606 153.365 187.132 153.315 186.67 153.203Z" fill="white"/>
<path d="M237 238.085C236.555 238.983 235.873 239.743 235.028 240.282C234.509 240.519 233.931 240.593 233.37 240.495C232.808 240.397 232.29 240.131 231.882 239.733C231.619 239.461 231.29 239.26 230.927 239.151C230.564 239.042 230.18 239.027 229.81 239.108C229.399 239.19 229.018 239.385 228.712 239.67C228.312 239.932 227.95 240.232 227.526 240.469C228.062 239.708 228.462 238.771 229.548 238.297C230.071 238.088 230.645 238.036 231.197 238.149C231.75 238.263 232.257 238.535 232.656 238.934C232.924 239.197 233.256 239.385 233.62 239.482C233.983 239.578 234.365 239.578 234.728 239.483C235.137 239.383 235.512 239.176 235.814 238.884C236.214 238.572 236.588 238.272 237 238.085Z" fill="white"/>
<path d="M145.989 219.286C145.536 220.183 144.851 220.942 144.004 221.483C143.651 221.64 143.268 221.722 142.881 221.722C142.494 221.722 142.111 221.64 141.758 221.483C141.895 221.146 142.02 220.809 142.169 220.472C142.645 220.708 143.187 220.774 143.705 220.659C144.115 220.547 144.492 220.337 144.803 220.047C145.203 219.81 145.577 219.523 145.989 219.286Z" fill="white"/>
<path d="M145.988 259.692C145.543 260.594 144.856 261.355 144.004 261.889C143.488 262.125 142.913 262.2 142.354 262.104C141.795 262.009 141.278 261.747 140.871 261.353C140.606 261.081 140.278 260.881 139.916 260.77C139.554 260.658 139.17 260.64 138.798 260.716C138.389 260.803 138.01 260.997 137.7 261.278C137.301 261.54 136.926 261.839 136.514 262.077C137.051 261.315 137.45 260.379 138.524 259.905C139.048 259.693 139.623 259.642 140.176 259.758C140.73 259.873 141.236 260.15 141.632 260.554C141.906 260.813 142.24 260.999 142.604 261.095C142.968 261.191 143.351 261.193 143.717 261.103C144.125 260.994 144.498 260.784 144.803 260.491C145.202 260.229 145.564 259.942 145.988 259.692Z" fill="white"/>
<path d="M185.247 300.498C184.797 301.397 184.111 302.156 183.262 302.695C182.744 302.932 182.165 303.006 181.604 302.908C181.042 302.81 180.524 302.544 180.116 302.145C179.853 301.873 179.524 301.673 179.161 301.564C178.799 301.455 178.414 301.44 178.044 301.521C177.634 301.606 177.255 301.8 176.946 302.083C176.559 302.345 176.184 302.645 175.76 302.882C176.309 302.12 176.696 301.184 177.782 300.71C178.306 300.5 178.879 300.449 179.432 300.562C179.984 300.675 180.491 300.948 180.89 301.346C181.159 301.608 181.491 301.797 181.854 301.893C182.217 301.989 182.599 301.99 182.962 301.896C183.373 301.792 183.751 301.586 184.061 301.297C184.448 301.059 184.86 300.76 185.247 300.498Z" fill="white"/>
<path d="M188.193 250.979C187.74 251.876 187.055 252.635 186.208 253.176C185.691 253.41 185.116 253.483 184.557 253.385C183.998 253.287 183.481 253.023 183.075 252.627C182.656 252.212 182.094 251.973 181.505 251.959C180.915 251.945 180.343 252.157 179.904 252.552C179.505 252.827 179.131 253.114 178.719 253.364C179.255 252.602 179.642 251.666 180.728 251.192C181.251 250.975 181.826 250.921 182.38 251.034C182.934 251.148 183.441 251.424 183.836 251.828C184.11 252.087 184.444 252.273 184.809 252.369C185.173 252.465 185.555 252.468 185.921 252.377C186.328 252.272 186.701 252.066 187.007 251.778C187.357 251.504 187.769 251.217 188.193 250.979Z" fill="white"/>
<path d="M221.472 292.135C221.015 293.029 220.33 293.787 219.487 294.332C218.969 294.569 218.39 294.643 217.829 294.545C217.267 294.447 216.749 294.181 216.341 293.782C216.078 293.51 215.749 293.31 215.386 293.201C215.024 293.092 214.639 293.077 214.269 293.158C213.858 293.24 213.478 293.435 213.171 293.72C212.771 293.982 212.409 294.269 211.922 294.519C212.459 293.758 212.859 292.821 213.945 292.347C214.468 292.138 215.042 292.086 215.594 292.199C216.147 292.313 216.654 292.585 217.053 292.984C217.321 293.247 217.653 293.435 218.016 293.532C218.38 293.628 218.762 293.628 219.125 293.533C219.536 293.43 219.914 293.223 220.223 292.934C220.673 292.672 221.06 292.372 221.472 292.135Z" fill="white"/>
<path d="M213.433 166.934C213.749 167.888 213.8 168.91 213.583 169.892C213.382 170.424 213.026 170.884 212.561 171.211C212.096 171.539 211.543 171.718 210.974 171.727C210.595 171.724 210.222 171.816 209.888 171.995C209.555 172.174 209.271 172.434 209.064 172.751C208.833 173.1 208.699 173.505 208.677 173.924C208.59 174.386 208.54 174.86 208.415 175.334C208.077 174.379 208.038 173.342 208.303 172.364C208.524 171.846 208.893 171.405 209.364 171.096C209.835 170.788 210.386 170.625 210.949 170.628C211.325 170.618 211.693 170.513 212.018 170.323C212.343 170.133 212.615 169.865 212.809 169.542C213.033 169.164 213.154 168.734 213.158 168.294C213.246 167.845 213.296 167.37 213.433 166.934Z" fill="white"/>
<path d="M241.032 271.663C241.358 272.615 241.414 273.639 241.194 274.621C240.992 275.153 240.636 275.612 240.171 275.939C239.706 276.266 239.154 276.446 238.585 276.456C238.206 276.452 237.833 276.544 237.499 276.723C237.165 276.902 236.882 277.162 236.675 277.48C236.444 277.829 236.31 278.235 236.288 278.653C236.201 279.115 236.151 279.589 236.026 280.051C235.691 279.099 235.651 278.068 235.914 277.093C236.132 276.572 236.5 276.128 236.971 275.816C237.442 275.505 237.996 275.341 238.56 275.345C238.936 275.341 239.305 275.239 239.63 275.051C239.956 274.863 240.228 274.595 240.42 274.272C240.645 273.894 240.765 273.463 240.77 273.024C240.807 272.599 240.857 272.137 241.032 271.663Z" fill="white"/>
<path d="M235.614 209.3C235.935 210.253 235.987 211.277 235.764 212.258C235.566 212.79 235.212 213.249 234.749 213.576C234.286 213.904 233.735 214.084 233.167 214.093C232.787 214.088 232.411 214.179 232.075 214.358C231.739 214.537 231.453 214.798 231.245 215.117C231.016 215.466 230.886 215.872 230.871 216.29C230.783 216.752 230.721 217.226 230.596 217.688C230.269 216.734 230.23 215.706 230.484 214.73C230.705 214.209 231.076 213.765 231.549 213.454C232.022 213.143 232.576 212.979 233.142 212.982C233.519 212.975 233.888 212.871 234.214 212.681C234.539 212.491 234.811 212.221 235.002 211.896C235.212 211.535 235.328 211.128 235.339 210.71C235.439 210.236 235.489 209.774 235.614 209.3Z" fill="white"/>
<path d="M207.154 225.315C207.473 226.268 207.529 227.291 207.316 228.273C207.114 228.805 206.758 229.264 206.293 229.591C205.828 229.918 205.275 230.098 204.707 230.108C204.116 230.111 203.548 230.34 203.121 230.749C202.693 231.158 202.439 231.715 202.41 232.305C202.323 232.767 202.261 233.241 202.136 233.703C201.804 232.75 201.769 231.718 202.036 230.745C202.254 230.224 202.622 229.78 203.093 229.468C203.564 229.157 204.117 228.993 204.682 228.997C205.058 228.993 205.427 228.891 205.752 228.703C206.078 228.515 206.35 228.247 206.542 227.924C206.758 227.542 206.878 227.114 206.892 226.676C206.979 226.251 207.029 225.789 207.154 225.315Z" fill="white"/>
<path d="M143.755 293.358C144.07 294.313 144.122 295.335 143.905 296.316C143.706 296.85 143.35 297.31 142.884 297.638C142.419 297.965 141.865 298.144 141.296 298.151C140.917 298.146 140.543 298.237 140.209 298.416C139.874 298.595 139.591 298.856 139.386 299.175C139.158 299.521 139.029 299.922 139.011 300.336C138.924 300.81 138.862 301.285 138.737 301.746C138.41 300.793 138.37 299.764 138.625 298.788C138.846 298.267 139.217 297.823 139.69 297.512C140.163 297.201 140.717 297.037 141.283 297.04C141.66 297.033 142.029 296.929 142.355 296.739C142.68 296.549 142.952 296.279 143.143 295.954C143.353 295.594 143.469 295.186 143.48 294.769C143.58 294.257 143.668 293.832 143.755 293.358Z" fill="white"/>
<path d="M164.213 195.244C164.533 196.198 164.589 197.22 164.376 198.203C164.174 198.734 163.817 199.193 163.352 199.52C162.887 199.847 162.335 200.027 161.767 200.037C161.176 200.034 160.606 200.259 160.178 200.667C159.75 201.074 159.496 201.631 159.47 202.222C159.383 202.696 159.32 203.158 159.195 203.632C158.864 202.679 158.829 201.648 159.096 200.674C159.313 200.153 159.681 199.709 160.153 199.398C160.624 199.086 161.177 198.922 161.742 198.927C162.119 198.919 162.488 198.816 162.813 198.626C163.139 198.435 163.41 198.165 163.602 197.841C163.811 197.48 163.927 197.072 163.939 196.655C164.039 196.18 164.089 195.706 164.213 195.244Z" fill="white"/>
<path d="M164.213 236.3C164.533 237.253 164.589 238.275 164.375 239.258C164.174 239.789 163.817 240.248 163.352 240.575C162.887 240.902 162.335 241.083 161.767 241.093C161.176 241.089 160.606 241.315 160.178 241.722C159.749 242.129 159.496 242.687 159.47 243.277C159.382 243.752 159.32 244.214 159.195 244.688C158.866 243.73 158.831 242.695 159.095 241.717C159.314 241.198 159.682 240.755 160.154 240.446C160.625 240.137 161.178 239.975 161.742 239.982C162.118 239.971 162.485 239.866 162.81 239.676C163.135 239.487 163.407 239.218 163.602 238.896C163.822 238.517 163.938 238.086 163.939 237.648C164.038 237.236 164.088 236.762 164.213 236.3Z" fill="white"/>
<path d="M197.217 271.663C197.533 272.618 197.585 273.64 197.367 274.621C197.168 275.155 196.812 275.615 196.347 275.943C195.881 276.27 195.327 276.449 194.758 276.456C194.38 276.453 194.006 276.545 193.673 276.724C193.339 276.903 193.055 277.163 192.848 277.48C192.621 277.83 192.491 278.236 192.474 278.653C192.374 279.115 192.324 279.589 192.199 280.051C191.864 279.099 191.824 278.068 192.087 277.093C192.308 276.572 192.679 276.128 193.152 275.817C193.625 275.506 194.18 275.342 194.746 275.345C195.12 275.34 195.486 275.238 195.81 275.05C196.133 274.862 196.403 274.594 196.593 274.272C196.821 273.895 196.942 273.464 196.943 273.024C197.03 272.599 197.092 272.137 197.217 271.663Z" fill="white"/>
<path d="M230.92 188.029C231.373 187.132 232.059 186.373 232.905 185.832C233.424 185.599 234.002 185.526 234.562 185.624C235.123 185.722 235.641 185.986 236.051 186.381C236.466 186.799 237.028 187.04 237.617 187.051C238.206 187.063 238.777 186.845 239.209 186.444C239.608 186.182 239.983 185.895 240.457 185.645C239.908 186.406 239.521 187.343 238.435 187.817C237.911 188.026 237.338 188.078 236.785 187.964C236.233 187.851 235.726 187.579 235.327 187.18C235.056 186.917 234.722 186.729 234.356 186.632C233.991 186.536 233.608 186.536 233.242 186.631C232.833 186.731 232.459 186.938 232.156 187.23C231.707 187.492 231.345 187.792 230.92 188.029Z" fill="white"/>
<path d="M180.503 183.835C180.952 182.936 181.639 182.176 182.488 181.638C183.004 181.401 183.581 181.326 184.14 181.424C184.7 181.522 185.217 181.788 185.621 182.188C185.885 182.46 186.214 182.66 186.576 182.769C186.939 182.878 187.323 182.893 187.693 182.812C188.105 182.73 188.485 182.535 188.792 182.25C189.191 181.988 189.566 181.701 189.978 181.451C189.441 182.212 189.042 183.149 187.968 183.623C187.444 183.832 186.871 183.884 186.319 183.771C185.766 183.657 185.259 183.385 184.86 182.986C184.588 182.724 184.254 182.536 183.889 182.44C183.524 182.344 183.141 182.343 182.775 182.437C182.367 182.537 181.992 182.744 181.689 183.036C181.29 183.298 180.928 183.598 180.503 183.835Z" fill="white"/>
<path d="M170.73 161.529C151.906 177.07 84.2748 234.627 88.3442 255.061C92.4385 275.757 108.104 292.509 120.15 280.9C130.136 271.376 174.225 200.687 182.226 181.788C189.853 163.788 189.229 146.25 170.73 161.529Z" fill="#DD6A57"/>
<path d="M86.6216 249.319C86.6216 263.649 96.2207 290.662 114.857 285.631C127.065 282.348 177.695 198.889 185.859 179.092C195.308 156.161 187.107 147.149 169.631 160.667C152.155 174.186 86.6465 228.86 86.6216 249.319Z" fill="#F66D1D"/>
<path d="M139.198 189.315C138.246 189.651 137.215 189.69 136.24 189.427C136.091 189.367 135.949 189.292 135.815 189.203C136.06 189.008 136.293 188.8 136.514 188.579L136.627 188.666C136.974 188.892 137.374 189.021 137.788 189.04C138.262 189.14 138.736 189.203 139.198 189.315Z" fill="white"/>
<path d="M116.567 237.985C117.522 237.669 118.544 237.617 119.526 237.835C120.06 238.032 120.522 238.388 120.849 238.854C121.177 239.32 121.355 239.874 121.36 240.444C121.357 240.823 121.45 241.196 121.628 241.53C121.807 241.863 122.067 242.147 122.384 242.354C122.735 242.581 123.14 242.711 123.557 242.728C124.019 242.828 124.494 242.878 124.955 243.003C124.003 243.339 122.972 243.378 121.997 243.115C121.476 242.894 121.032 242.523 120.721 242.05C120.41 241.577 120.246 241.022 120.25 240.456C120.244 240.082 120.142 239.716 119.954 239.392C119.766 239.069 119.498 238.799 119.176 238.609C118.799 238.381 118.368 238.26 117.928 238.259C117.453 238.16 117.041 238.085 116.567 237.985Z" fill="white"/>
<path d="M122.546 279.39C122.272 279.689 121.997 279.989 121.723 280.264C121.661 279.96 121.537 279.672 121.359 279.419C121.18 279.165 120.951 278.951 120.686 278.791C120.307 278.571 119.877 278.454 119.438 278.454C118.976 278.366 118.502 278.304 118.028 278.179C118.982 277.864 120.004 277.812 120.986 278.029C121.324 278.139 121.637 278.317 121.905 278.551C122.173 278.784 122.391 279.07 122.546 279.39Z" fill="white"/>
<path d="M145.988 219.286C145.539 220.185 144.853 220.945 144.004 221.483C143.488 221.72 142.911 221.795 142.351 221.697C141.792 221.599 141.275 221.333 140.871 220.933C140.607 220.661 140.278 220.461 139.916 220.352C139.553 220.243 139.168 220.228 138.798 220.309C138.387 220.391 138.007 220.586 137.7 220.871C137.301 221.133 136.926 221.42 136.514 221.67C137.051 220.909 137.45 219.972 138.524 219.498C139.047 219.289 139.621 219.237 140.173 219.35C140.726 219.464 141.233 219.736 141.632 220.135C141.904 220.397 142.238 220.585 142.603 220.681C142.968 220.777 143.351 220.778 143.717 220.684C144.125 220.584 144.5 220.377 144.803 220.085C145.202 219.823 145.564 219.523 145.988 219.286Z" fill="white"/>
<path d="M167.034 164.437C167.35 165.387 167.402 166.406 167.184 167.383C166.99 167.917 166.638 168.38 166.173 168.708C165.709 169.036 165.156 169.214 164.588 169.218C164.207 169.214 163.832 169.306 163.496 169.484C163.16 169.663 162.874 169.924 162.665 170.242C162.438 170.592 162.308 170.997 162.291 171.415C162.203 171.889 162.141 172.351 162.016 172.825C161.689 171.867 161.65 170.835 161.904 169.855C162.126 169.335 162.497 168.893 162.97 168.584C163.443 168.275 163.998 168.114 164.563 168.12C164.939 168.109 165.306 168.004 165.631 167.814C165.956 167.624 166.228 167.356 166.422 167.034C166.642 166.654 166.759 166.224 166.76 165.785C166.859 165.373 166.909 164.899 167.034 164.437Z" fill="white"/>
<path d="M164.213 195.244C164.533 196.198 164.589 197.22 164.376 198.203C164.174 198.734 163.817 199.193 163.352 199.52C162.887 199.847 162.335 200.027 161.767 200.037C161.176 200.034 160.606 200.259 160.178 200.667C159.75 201.074 159.496 201.631 159.47 202.222C159.383 202.696 159.32 203.158 159.195 203.632C158.864 202.679 158.829 201.648 159.096 200.674C159.313 200.153 159.681 199.709 160.153 199.398C160.624 199.086 161.177 198.922 161.742 198.927C162.119 198.919 162.488 198.816 162.813 198.626C163.139 198.435 163.41 198.165 163.602 197.841C163.811 197.48 163.927 197.072 163.939 196.655C164.039 196.18 164.089 195.706 164.213 195.244Z" fill="white"/>
<path d="M105.071 260.916C105.386 261.87 105.438 262.892 105.221 263.874C105.024 264.406 104.67 264.867 104.207 265.194C103.743 265.522 103.192 265.701 102.624 265.709C102.244 265.705 101.868 265.796 101.532 265.975C101.196 266.154 100.911 266.414 100.702 266.732C100.474 267.083 100.345 267.488 100.327 267.906C100.24 268.368 100.178 268.842 100.053 269.316C99.7258 268.358 99.6868 267.325 99.9404 266.345C100.162 265.826 100.534 265.384 101.007 265.075C101.48 264.766 102.034 264.604 102.599 264.61C102.975 264.6 103.343 264.494 103.668 264.305C103.993 264.115 104.265 263.847 104.459 263.524C104.679 263.145 104.795 262.715 104.796 262.276C104.896 261.864 104.971 261.39 105.071 260.916Z" fill="white"/>
<path d="M184.759 181.613C184.622 181.925 184.46 182.262 184.298 182.599C183.826 182.364 183.285 182.307 182.775 182.437C182.366 182.537 181.991 182.744 181.689 183.036C181.289 183.298 180.927 183.598 180.44 183.835C181.002 183.061 181.364 182.162 182.425 181.638C182.788 181.461 183.186 181.367 183.589 181.363C183.993 181.358 184.393 181.444 184.759 181.613Z" fill="white"/>
<path d="M173.813 207.964C172.128 210.311 170.268 212.533 168.47 214.792L167.222 216.415C168.345 214.26 169.444 212.088 170.517 209.899C172.158 206.764 173.629 203.543 174.924 200.25C175.011 200.038 174.687 199.938 174.574 200.113C172.889 202.759 171.541 205.58 169.943 208.276C168.345 210.973 166.81 213.706 165.287 216.44C162.216 221.895 159.046 227.325 155.813 232.667C149.309 243.352 142.382 253.8 135.217 264.061C133.207 266.932 131.222 269.828 129.112 272.637C127.003 275.445 125.018 278.491 122.871 281.312C122.796 281.412 122.934 281.549 123.021 281.449C125.043 278.953 127.128 276.619 129.187 274.21C131.247 271.8 132.995 269.291 134.929 266.795C138.787 261.802 142.419 256.709 145.989 251.529C153.106 241.103 159.692 230.325 165.724 219.236L166.161 218.387C167.185 217.301 168.183 216.178 169.132 215.004C170.917 212.783 172.465 210.398 174.025 208.014C174.075 207.952 173.888 207.852 173.813 207.964Z" fill="#263238"/>
<path d="M212.721 150.981C212.721 150.981 216.852 167.907 211.922 170.241C202.722 174.598 186.282 161.067 185.209 158.645C184.947 158.021 183.574 141.756 182.55 129.124C181.876 120.985 181.302 114.344 181.302 114.344L213.569 127.139L212.845 149.383L212.721 150.981Z" fill="#DD6A57"/>
<path d="M213.57 127.139L212.846 149.383C206.667 148.318 200.781 145.964 195.572 142.473C190.363 138.983 185.948 134.434 182.613 129.124C181.939 120.985 181.365 114.344 181.365 114.344L185.397 115.792L213.57 127.139Z" fill="#263238"/>
<path d="M219.487 101.849C219.974 110.949 226.839 117.964 234.815 117.527C242.792 117.09 248.858 109.376 248.372 100.289C247.885 91.2013 241.007 84.1736 233.03 84.6105C225.054 85.0474 218.987 92.7617 219.487 101.849Z" fill="#455A64"/>
<path d="M214.818 102.686C215.367 112.797 223.006 120.598 231.882 120.161C240.757 119.724 247.497 111.086 246.961 100.975C246.424 90.8645 238.772 83.0504 229.897 83.4998C221.022 83.9491 214.294 92.5622 214.818 102.686Z" fill="#C7C7C7"/>
<path d="M241.931 95.2332C244.939 134.179 221.959 140.383 213.558 141.02C205.931 141.606 179.855 142.617 172.864 104.183C165.874 65.7493 183 52.0433 200.326 49.784C217.652 47.5246 238.91 56.2749 241.931 95.2332Z" fill="#DD6A57"/>
<path d="M229.797 88.293C228.903 88.1795 228.016 88.0212 227.138 87.8186C226.181 87.7767 225.264 87.4215 224.529 86.8076C224.341 86.5647 224.239 86.2661 224.239 85.9587C224.239 85.6514 224.341 85.3528 224.529 85.1099C224.959 84.6715 225.498 84.3567 226.091 84.1986C226.684 84.0405 227.309 84.0448 227.9 84.2112C229.15 84.3568 230.302 84.9618 231.133 85.9088C231.31 86.1393 231.417 86.4171 231.438 86.7075C231.459 86.9979 231.395 87.2881 231.252 87.5421C231.11 87.7962 230.896 88.0028 230.637 88.1363C230.379 88.2698 230.086 88.3243 229.797 88.293Z" fill="#263238"/>
<path d="M203.072 90.3777C203.953 90.1845 204.824 89.947 205.681 89.6662C206.626 89.5325 207.503 89.0943 208.177 88.4179C208.351 88.166 208.435 87.8634 208.417 87.5582C208.399 87.2529 208.279 86.9624 208.077 86.7328C207.612 86.3335 207.048 86.0662 206.444 85.9586C205.841 85.8511 205.219 85.9072 204.645 86.1211C203.412 86.3744 202.317 87.0774 201.574 88.0934C201.413 88.3357 201.327 88.62 201.326 88.9109C201.325 89.2018 201.41 89.4866 201.569 89.7298C201.729 89.9731 201.956 90.1642 202.223 90.2794C202.49 90.3945 202.785 90.4287 203.072 90.3777Z" fill="#263238"/>
<path d="M209.825 99.8643C209.825 99.7645 209.638 100.014 209.65 100.114C209.963 102.76 209.888 105.843 207.566 106.929C207.491 106.929 207.566 107.092 207.566 107.079C210.487 106.405 210.549 102.311 209.825 99.8643Z" fill="#263238"/>
<path d="M207.216 97.3053C202.922 97.3053 203.347 105.931 207.329 105.881C211.311 105.831 210.811 97.2553 207.216 97.3053Z" fill="#263238"/>
<path d="M205.556 97.8422C204.832 98.3664 204.133 99.2527 203.234 99.39C202.335 99.5273 201.362 98.691 200.638 97.8547C200.563 97.7673 200.5 97.8547 200.5 97.967C200.5 99.6022 201.274 101.262 202.997 101.425C204.72 101.587 205.693 100.052 206.018 98.3789C206.08 98.0669 205.843 97.63 205.556 97.8422Z" fill="#263238"/>
<path d="M225.316 98.1295C225.316 98.0172 225.528 98.2418 225.528 98.3542C225.528 101.013 226.028 104.059 228.474 104.833C228.549 104.833 228.549 104.995 228.474 104.982C225.503 104.695 224.917 100.651 225.316 98.1295Z" fill="#263238"/>
<path d="M227.575 95.2461C231.832 94.7468 232.569 103.31 228.574 103.772C224.58 104.234 224.005 95.6705 227.575 95.2461Z" fill="#263238"/>
<path d="M229.398 95.6705C230.109 96.0699 230.846 96.8438 231.657 96.8314C232.468 96.8189 233.217 95.8327 233.754 94.8965C233.754 94.7967 233.879 94.8965 233.891 94.9839C234.066 96.6067 233.667 98.3542 232.119 98.8036C230.571 99.253 229.535 97.8799 229.023 96.3071C228.923 95.9825 229.111 95.5082 229.398 95.6705Z" fill="#263238"/>
<path d="M212.247 120.448C212.883 121.072 213.495 121.921 214.494 121.996C215.483 121.971 216.456 121.742 217.352 121.322C217.37 121.307 217.394 121.3 217.417 121.302C217.441 121.305 217.462 121.316 217.477 121.334C217.492 121.353 217.499 121.376 217.497 121.399C217.494 121.423 217.483 121.444 217.465 121.459C217.086 121.983 216.573 122.394 215.98 122.649C215.386 122.904 214.734 122.993 214.094 122.907C213.55 122.774 213.06 122.48 212.685 122.064C212.311 121.647 212.071 121.128 211.997 120.573C211.947 120.411 212.159 120.361 212.247 120.448Z" fill="#263238"/>
<path d="M222.757 110.175C222.757 110.175 223.556 114.107 223.669 115.979C223.669 116.154 223.232 116.267 222.595 116.342C222.595 116.342 222.595 116.342 222.52 116.342C220.933 116.735 219.267 116.682 217.707 116.189C216.148 115.695 214.755 114.781 213.683 113.545C213.545 113.371 213.77 113.171 213.945 113.271C216.431 114.754 219.328 115.397 222.208 115.106C222.308 114.581 220.635 108.415 220.96 108.378C222.42 108.418 223.868 108.653 225.266 109.077C223.868 100.838 221.147 92.8492 219.861 84.6731C219.858 84.6144 219.874 84.5563 219.908 84.5081C219.941 84.4599 219.99 84.4242 220.046 84.407C220.102 84.3897 220.163 84.3918 220.217 84.4129C220.272 84.434 220.318 84.4728 220.348 84.5233C223.781 92.6495 225.616 102.086 227.289 110.562C227.463 111.611 223.556 110.45 222.757 110.175Z" fill="#263238"/>
<path d="M221.297 115.405C220.434 116.854 219.213 118.058 217.752 118.901C216.94 119.329 216.015 119.495 215.106 119.375C213.108 119.1 212.859 117.34 213.033 115.78C213.132 114.952 213.329 114.139 213.62 113.358C215.894 114.845 218.585 115.563 221.297 115.405Z" fill="#263238"/>
<path d="M217.752 118.901C216.94 119.329 216.015 119.495 215.106 119.375C213.108 119.1 212.859 117.34 213.033 115.78C215.118 115.755 217.315 116.903 217.752 118.901Z" fill="#F392B9"/>
<path d="M173.438 100.688C177.695 100.688 189.328 89.5539 190.714 69.0948C190.714 69.0948 188.217 87.3819 186.682 90.0032C185.147 92.6246 193.185 83.7619 194.534 67.2599C194.534 67.2599 203.346 74.3251 211.023 76.909C218.7 79.4929 223.506 79.6676 224.08 79.1309C224.654 78.5941 213.37 74.3999 210.449 70.6552C210.449 70.6552 230.708 81.3653 240.233 82.5761C241.331 82.7134 238.797 65.762 224.504 55.3515C210.212 44.9409 191.276 48.461 184.672 54.2155C184.672 54.2155 177.183 54.8896 168.632 65.4499C160.082 76.0102 168.857 100.776 173.438 100.688Z" fill="#263238"/>
<path d="M179.292 106.705C179.292 106.705 170.879 94.4222 165.312 97.418C159.745 100.414 165.998 118.139 172.477 120.623C173.286 120.997 174.162 121.204 175.052 121.231C175.943 121.258 176.83 121.105 177.66 120.781C178.49 120.457 179.246 119.969 179.882 119.345C180.519 118.722 181.023 117.976 181.365 117.153L179.292 106.705Z" fill="#DD6A57"/>
<path d="M167.234 102.461C167.218 102.467 167.204 102.478 167.194 102.493C167.184 102.507 167.179 102.524 167.179 102.542C167.179 102.559 167.184 102.576 167.194 102.591C167.204 102.605 167.218 102.616 167.234 102.623C171.778 104.52 174.137 108.764 175.772 113.158C174.436 111.461 172.589 110.512 170.317 112.11C170.205 112.197 170.317 112.384 170.442 112.347C171.245 112.103 172.103 112.112 172.901 112.373C173.698 112.635 174.396 113.135 174.898 113.807C175.733 114.941 176.44 116.164 177.008 117.452C177.22 117.864 177.956 117.652 177.807 117.178V117.078C177.907 111.261 173.463 103.097 167.234 102.461Z" fill="#263238"/>
<path d="M176.122 118.925C176.114 119.197 176.026 119.461 175.868 119.683C175.711 119.904 175.491 120.074 175.236 120.171C174.982 120.267 174.705 120.286 174.44 120.225C174.175 120.163 173.934 120.025 173.748 119.826C173.562 119.628 173.439 119.379 173.394 119.11C173.35 118.842 173.386 118.566 173.499 118.319C173.612 118.071 173.795 117.862 174.027 117.719C174.258 117.576 174.527 117.505 174.798 117.515C175.16 117.528 175.503 117.683 175.751 117.948C175.998 118.212 176.132 118.563 176.122 118.925Z" fill="white"/>
<path d="M172.378 116.429C172.373 116.542 172.346 116.653 172.298 116.756C172.25 116.858 172.183 116.951 172.099 117.027C172.016 117.104 171.918 117.163 171.811 117.202C171.705 117.24 171.592 117.258 171.479 117.253C171.366 117.249 171.255 117.224 171.153 117.177C171.05 117.131 170.958 117.065 170.881 116.982C170.805 116.9 170.745 116.803 170.706 116.697C170.667 116.591 170.65 116.479 170.655 116.366C170.658 116.253 170.684 116.142 170.73 116.039C170.776 115.935 170.843 115.842 170.925 115.765C171.007 115.687 171.104 115.626 171.21 115.586C171.315 115.546 171.428 115.527 171.541 115.53C171.77 115.543 171.984 115.644 172.14 115.811C172.296 115.979 172.381 116.2 172.378 116.429Z" fill="white"/>
<path d="M165.699 105.157L163.015 105.719C162.945 105.733 162.873 105.734 162.804 105.72C162.734 105.707 162.667 105.679 162.608 105.64C162.549 105.6 162.498 105.55 162.458 105.49C162.419 105.431 162.392 105.364 162.378 105.294C162.349 105.155 162.376 105.01 162.453 104.891C162.53 104.772 162.651 104.688 162.79 104.658L165.474 104.096C165.544 104.082 165.616 104.081 165.686 104.095C165.756 104.108 165.822 104.135 165.881 104.175C165.941 104.214 165.991 104.265 166.031 104.325C166.07 104.384 166.097 104.451 166.111 104.521C166.14 104.66 166.114 104.805 166.036 104.924C165.959 105.043 165.838 105.127 165.699 105.157Z" fill="#F66D1D"/>
<path d="M165.4 103.434L162.666 103.597C162.595 103.602 162.523 103.593 162.455 103.569C162.387 103.546 162.325 103.51 162.271 103.462C162.218 103.414 162.174 103.356 162.143 103.292C162.113 103.227 162.095 103.157 162.092 103.085C162.085 102.941 162.135 102.801 162.231 102.693C162.326 102.586 162.46 102.52 162.604 102.511L165.325 102.348C165.469 102.338 165.611 102.385 165.72 102.478C165.83 102.571 165.899 102.704 165.912 102.848C165.919 102.993 165.869 103.135 165.774 103.244C165.678 103.354 165.544 103.422 165.4 103.434Z" fill="#F66D1D"/>
<path d="M171.217 97.3305C171.217 97.3305 167.921 77.6828 172.627 66.1239C177.87 53.3417 202.898 42.6815 222.483 53.9159C222.483 53.9159 192.724 47.9991 180.541 66.2237C175.411 73.9006 177.87 97.1307 177.87 97.1307L171.217 97.3305Z" fill="#C7C7C7"/>
<path d="M176.733 125.455C185.567 124.486 191.832 115.54 190.728 105.473C189.624 95.4059 181.568 88.0306 172.734 88.9996C163.901 89.9686 157.635 98.9149 158.74 108.982C159.844 119.049 167.9 126.424 176.733 125.455Z" fill="#C7C7C7"/>
<path d="M186.008 105.419C187.007 114.469 181.377 122.508 173.438 123.382C165.499 124.256 158.247 117.627 157.211 108.577C156.175 99.5274 161.854 91.4761 169.793 90.6148C177.732 89.7535 185.022 96.3693 186.008 105.419Z" fill="#455A64"/>
<path d="M207.153 132.02L194.134 129.698L181.851 120.099L183.336 118.201L195.145 127.439L207.565 129.648L207.153 132.02Z" fill="#C7C7C7"/>
<path d="M205.443 130.435C205.793 126.69 215.742 125.729 215.217 131.346C214.693 136.963 205.094 134.154 205.443 130.435Z" fill="#37474F"/>
<path d="M212.821 150.494L209.538 168.719L184.223 151.742L179.717 159.806C179.717 159.806 207.179 189.403 206.967 187.842L210.911 171.927L223.007 179.941L216.953 154.776L212.821 150.494Z" fill="white"/>
<path d="M121.823 279.065C110.239 293.208 91.3901 277.055 89.2431 264.473C84.1877 234.926 90.6911 180.739 99.3041 155.063C102.075 146.799 156.949 162.552 157.086 171.852C157.224 181.613 145.315 250.367 121.823 279.065Z" fill="#DD6A57"/>
<path d="M97.8313 169.917C97.8313 169.917 98.6552 142.792 108.304 124.717C114.97 112.235 132.508 86.6452 174.762 84.7728C184.748 84.3484 199.365 90.8394 183.25 97.4926C171.803 102.211 163.128 101.749 156.962 105.706C156.962 105.706 174.537 116.167 174.575 126.215C174.605 135.009 174.013 143.794 172.802 152.504C171.142 152.649 169.474 152.687 167.809 152.616C167.809 152.616 167.559 162.028 157.049 171.789L97.8313 169.917Z" fill="#DD6A57"/>
<path d="M116.567 113.808C123.507 111.174 138.312 105.831 151.943 105.681C167.084 105.507 196.294 109.251 196.306 120.423C196.306 128.624 185.072 128.175 185.072 128.175C185.072 128.175 196.818 132.269 195.208 139.672C193.735 146.425 185.034 145.551 185.034 145.551C185.034 145.551 191.738 149.296 189.066 155.537C185.858 163.027 172.34 154.027 162.541 158.807C160.319 159.831 116.567 113.808 116.567 113.808Z" fill="#DD6A57"/>
<path d="M149.459 121.709C156.4 120.299 172.964 121.135 184.885 127.951C185.16 128.1 185.184 128.388 184.885 128.3C173.371 124.737 161.467 122.586 149.434 121.897C149.384 121.847 149.384 121.722 149.459 121.709Z" fill="#263238"/>
<path d="M150.083 136.975C156.187 136.376 173.226 137.999 185.035 145.264C185.297 145.426 185.309 145.726 185.035 145.626C173.743 141.479 162.018 138.623 150.083 137.113C150.07 137.107 150.059 137.097 150.051 137.085C150.043 137.073 150.038 137.058 150.038 137.044C150.038 137.029 150.043 137.015 150.051 137.003C150.059 136.991 150.07 136.981 150.083 136.975Z" fill="#263238"/>
<path d="M194.996 115.555C193.348 113.733 191.014 113.059 188.966 111.81C188.854 111.748 188.754 111.935 188.867 111.985C192.474 113.495 196.256 117.066 195.657 121.297C194.933 126.39 188.829 127.688 184.597 127.801C184.385 127.801 184.485 128.038 184.697 128.075C189.403 128.899 196.044 127.264 196.918 121.722C197.084 120.615 196.998 119.486 196.665 118.418C196.332 117.35 195.761 116.371 194.996 115.555Z" fill="#263238"/>
<path d="M184.01 127.638C183.898 127.638 183.811 127.763 183.923 127.813C190.439 130.31 194.458 134.841 194.783 137.412C195.016 138.657 194.866 139.944 194.351 141.101C193.836 142.258 192.981 143.231 191.9 143.891C189.637 145.137 187.009 145.552 184.472 145.064C184.26 145.064 184.185 145.339 184.385 145.376C187.443 145.938 193.323 146.624 195.445 141.694C197.217 137.574 195.232 130.734 184.01 127.638Z" fill="#263238"/>
<path d="M188.817 148.459C187.517 146.637 185.631 145.315 183.474 144.715C183.375 144.715 183.3 144.852 183.474 144.889C187.219 146.4 190.427 150.881 189.229 155.038C189.154 155.3 189.541 155.375 189.628 155.138C190.015 154.037 190.142 152.862 190.002 151.704C189.861 150.546 189.456 149.436 188.817 148.459Z" fill="#263238"/>
<path d="M190.865 90.6523C190.565 88.7799 188.206 86.9075 183.675 86.0587C187.419 87.0823 190.153 89.1045 190.128 90.9269C190.103 92.7494 188.755 94.6717 184.786 96.8063C184.673 96.8063 184.786 96.9186 184.873 96.8687C187.22 95.7827 191.389 94.0101 190.865 90.6523Z" fill="#263238"/>
<path d="M94.9848 159.606L162.89 182.474C162.89 182.474 138.15 258.681 126.466 275.046C114.782 291.41 98.5798 288.464 89.2303 268.168C79.8808 247.871 94.9848 159.606 94.9848 159.606Z" fill="#F66D1D"/>
<path d="M130.81 184.297C131.765 183.982 132.787 183.93 133.769 184.147C134.301 184.348 134.761 184.704 135.088 185.169C135.415 185.634 135.595 186.187 135.604 186.756C135.601 187.135 135.693 187.508 135.872 187.842C136.05 188.176 136.31 188.459 136.627 188.666C136.978 188.894 137.383 189.023 137.801 189.041C138.262 189.14 138.737 189.19 139.199 189.315C138.247 189.651 137.215 189.69 136.24 189.428C135.719 189.206 135.275 188.835 134.964 188.362C134.654 187.889 134.489 187.335 134.493 186.769C134.487 186.395 134.385 186.028 134.197 185.705C134.009 185.381 133.741 185.112 133.419 184.921C133.041 184.697 132.611 184.576 132.171 184.572C131.746 184.484 131.285 184.41 130.81 184.297Z" fill="white"/>
<path d="M116.567 237.985C117.522 237.669 118.544 237.617 119.526 237.835C120.06 238.032 120.522 238.388 120.849 238.854C121.177 239.32 121.355 239.874 121.36 240.444C121.357 240.823 121.45 241.196 121.628 241.53C121.807 241.863 122.067 242.147 122.384 242.354C122.735 242.581 123.14 242.711 123.557 242.728C124.019 242.828 124.494 242.878 124.955 243.003C124.003 243.339 122.972 243.378 121.997 243.115C121.476 242.894 121.032 242.523 120.721 242.05C120.41 241.577 120.246 241.022 120.25 240.456C120.244 240.082 120.142 239.716 119.954 239.392C119.766 239.069 119.498 238.799 119.176 238.609C118.799 238.381 118.368 238.26 117.928 238.259C117.453 238.16 117.041 238.085 116.567 237.985Z" fill="white"/>
<path d="M122.634 279.577C122.334 279.877 122.035 280.151 121.735 280.413C121.691 280.081 121.573 279.762 121.39 279.481C121.206 279.2 120.961 278.964 120.674 278.791C120.296 278.567 119.865 278.45 119.426 278.454C118.964 278.366 118.49 278.304 118.015 278.179C118.97 277.864 119.992 277.812 120.974 278.029C121.347 278.15 121.689 278.352 121.975 278.619C122.262 278.886 122.487 279.213 122.634 279.577Z" fill="white"/>
<path d="M145.988 219.286C145.539 220.185 144.853 220.945 144.004 221.483C143.488 221.72 142.911 221.795 142.351 221.697C141.792 221.599 141.275 221.333 140.871 220.933C140.607 220.661 140.278 220.461 139.916 220.352C139.553 220.243 139.168 220.228 138.798 220.309C138.387 220.391 138.007 220.586 137.7 220.871C137.301 221.133 136.926 221.42 136.514 221.67C137.051 220.909 137.45 219.972 138.524 219.498C139.047 219.289 139.621 219.237 140.173 219.35C140.726 219.464 141.233 219.736 141.632 220.135C141.904 220.397 142.238 220.585 142.603 220.681C142.968 220.777 143.351 220.778 143.717 220.684C144.125 220.584 144.5 220.377 144.803 220.085C145.202 219.823 145.564 219.523 145.988 219.286Z" fill="white"/>
<path d="M99.7533 224.092C99.3001 224.989 98.6147 225.747 97.7686 226.289C97.2502 226.526 96.6721 226.6 96.1106 226.502C95.5491 226.404 95.0304 226.138 94.623 225.74C94.3594 225.468 94.0307 225.267 93.668 225.158C93.3054 225.049 92.9208 225.034 92.5508 225.115C92.1397 225.197 91.7593 225.392 91.4524 225.677C91.0654 225.939 90.6909 226.239 90.2041 226.476C90.7533 225.715 91.1403 224.778 92.2263 224.304C92.7499 224.095 93.3234 224.043 93.8758 224.156C94.4283 224.27 94.9354 224.542 95.3345 224.941C95.6035 225.203 95.9356 225.391 96.2985 225.487C96.6615 225.583 97.0431 225.584 97.4066 225.49C97.8177 225.387 98.1957 225.181 98.5051 224.891C98.9544 224.629 99.3289 224.354 99.7533 224.092Z" fill="white"/>
<path d="M107.305 174.061C106.86 174.963 106.173 175.724 105.32 176.258C104.805 176.494 104.23 176.569 103.671 176.473C103.112 176.378 102.595 176.116 102.187 175.722C101.923 175.45 101.595 175.25 101.232 175.139C100.87 175.027 100.486 175.009 100.115 175.085C99.7057 175.172 99.3268 175.366 99.0166 175.647C98.6171 175.909 98.2427 176.208 97.7683 176.446C98.3051 175.684 98.7045 174.748 99.778 174.274C100.302 174.062 100.877 174.011 101.431 174.127C101.984 174.242 102.49 174.519 102.886 174.923C103.16 175.182 103.494 175.368 103.858 175.464C104.223 175.56 104.605 175.562 104.971 175.472C105.377 175.367 105.751 175.161 106.057 174.873C106.519 174.598 106.893 174.311 107.305 174.061Z" fill="white"/>
<path d="M114.083 199.389C114.403 200.342 114.459 201.364 114.245 202.347C114.043 202.878 113.687 203.337 113.222 203.664C112.757 203.991 112.205 204.172 111.636 204.182C111.257 204.173 110.881 204.263 110.547 204.442C110.212 204.621 109.929 204.884 109.727 205.206C109.488 205.547 109.353 205.95 109.34 206.366C109.252 206.841 109.19 207.303 109.065 207.777C108.733 206.824 108.699 205.792 108.965 204.819C109.183 204.298 109.551 203.853 110.022 203.542C110.494 203.231 111.047 203.067 111.611 203.071C111.988 203.064 112.357 202.96 112.683 202.77C113.008 202.58 113.28 202.31 113.471 201.985C113.682 201.624 113.802 201.217 113.821 200.799C113.908 200.375 113.958 199.9 114.083 199.389Z" fill="white"/>
<path d="M105.071 260.916C105.386 261.87 105.438 262.892 105.221 263.874C105.024 264.406 104.67 264.867 104.207 265.194C103.743 265.522 103.192 265.701 102.624 265.709C102.244 265.705 101.868 265.796 101.532 265.975C101.196 266.154 100.911 266.414 100.702 266.732C100.474 267.083 100.345 267.488 100.327 267.906C100.24 268.368 100.178 268.842 100.053 269.316C99.7258 268.358 99.6868 267.325 99.9404 266.345C100.162 265.826 100.534 265.384 101.007 265.075C101.48 264.766 102.034 264.604 102.599 264.61C102.975 264.6 103.343 264.494 103.668 264.305C103.993 264.115 104.265 263.847 104.459 263.524C104.679 263.145 104.795 262.715 104.796 262.276C104.896 261.864 104.971 261.39 105.071 260.916Z" fill="white"/>
<path d="M155.313 195.194C151.621 193.51 147.842 192.023 143.992 190.738C140.122 189.24 136.215 187.917 132.308 186.581C124.718 183.972 117.067 181.651 109.415 179.354C104.958 178.006 100.477 176.857 96.0209 175.609C95.8586 175.609 95.7962 175.884 96.0209 175.946C103.685 178.817 111.325 181.8 119.051 184.484C126.778 187.168 134.243 189.652 141.907 191.911C144.092 192.56 146.301 193.16 148.498 193.746C150.731 194.484 153.007 195.084 155.313 195.544C155.426 195.569 155.476 195.282 155.313 195.194Z" fill="#263238"/>
<path d="M164.264 182.649C164.076 182.038 156.549 180.078 156.162 179.966C156.05 179.966 156 180.115 156.162 180.153C156.524 180.278 162.903 182.936 162.878 182.986C159.133 192.972 155.713 203.058 152.118 213.094C148.523 223.131 144.841 233.192 141.445 243.34C139.536 249.019 139.66 249.581 141.683 244.688C143.705 239.795 145.777 235.775 147.637 230.807C151.382 220.821 154.889 210.673 158.397 200.562C160.344 194.832 164.326 182.849 164.264 182.649Z" fill="#263238"/>
<path d="M526.11 83.0252C529.248 86.1575 531.449 90.1045 532.463 94.4209C533.478 98.7373 533.266 103.251 531.852 107.454L518.058 93.7228L507.897 98.5536L503.054 108.727L516.785 122.533C512.76 123.884 508.448 124.135 504.294 123.261C500.139 122.386 496.294 120.418 493.155 117.559C490.017 114.7 487.699 111.055 486.442 107C485.184 102.945 485.033 98.6279 486.004 94.4949C486.974 90.362 489.031 86.5633 491.962 83.4919C494.892 80.4204 498.59 78.1877 502.673 77.0246C506.756 75.8615 511.076 75.8102 515.185 76.8762C519.294 77.9421 523.044 80.0865 526.047 83.0876L526.11 83.0252Z" fill="#7030A0"/>
<path d="M416.386 40.6839C413.249 37.5508 411.049 33.6038 410.035 29.2877C409.02 24.9716 409.231 20.458 410.644 16.2554L424.438 30.0487L434.598 25.2054L439.442 15.0446L425.648 1.23878C429.673 -0.1122 433.986 -0.363465 438.14 0.510986C442.294 1.38544 446.139 3.35385 449.278 6.21263C452.416 9.0714 454.734 12.7167 455.992 16.7716C457.249 20.8265 457.4 25.1436 456.43 29.2766C455.459 33.4095 453.402 37.2082 450.472 40.2796C447.541 43.3511 443.843 45.5838 439.76 46.7469C435.677 47.91 431.358 47.9613 427.248 46.8953C423.139 45.8294 419.389 43.685 416.386 40.6839Z" fill="#7030A0"/>
<path d="M447.272 22.871L432.267 37.8761L493.32 98.9293L508.325 83.9242L447.272 22.871Z" fill="#7030A0"/>
</svg>
