<svg width="1440" height="159" viewBox="0 0 1440 159" fill="none" xmlns="http://www.w3.org/2000/svg">
<mask id="mask0" mask-type="alpha" maskUnits="userSpaceOnUse" x="0" y="0" width="1440" height="159">
<path d="M0 159H1440V0H0V159Z" fill="#DFB5FF"/>
</mask>
<g mask="url(#mask0)">
<path d="M0 454H1440V0H0V454Z" fill="#DFB5FF"/>
<path d="M-92.123 62.1229C-129.139 25.0801 -147.674 -23.4598 -147.674 -71.9997C-147.674 -120.54 -129.139 -169.079 -92.123 -206.122C-55.0801 -243.138 -6.54024 -261.673 41.9996 -261.673C90.5395 -261.673 139.079 -243.138 176.122 -206.122L163.873 -193.873C130.215 -227.531 86.1072 -244.347 41.9996 -244.347C-2.108 -244.347 -46.2156 -227.504 -79.8738 -193.873C-113.532 -160.215 -130.348 -116.107 -130.348 -71.9997C-130.348 -27.8921 -113.505 16.2156 -79.8738 49.8738L-92.123 62.1229Z" fill="#E7C8FF"/>
<path d="M-70.7946 40.7936C-101.928 9.66043 -117.508 -31.17 -117.508 -72.0004C-117.508 -112.831 -101.928 -153.661 -70.7946 -184.794C-39.6614 -215.928 1.16903 -231.508 41.9995 -231.508C82.8299 -231.508 123.66 -215.928 154.794 -184.794L142.544 -172.545C114.796 -200.321 78.3976 -214.182 41.9995 -214.182C5.60128 -214.182 -30.77 -200.294 -58.5455 -172.545C-86.3209 -144.797 -100.182 -108.399 -100.182 -72.0004C-100.182 -35.6022 -86.294 0.769073 -58.5455 28.5445L-70.7946 40.7936Z" fill="#E7C8FF"/>
<path d="M-49.4662 19.4657C-74.7166 -5.78468 -87.3418 -38.8788 -87.3418 -71.973C-87.3418 -105.067 -74.7166 -138.161 -49.4662 -163.412C-24.2158 -188.662 8.90517 -201.287 41.9993 -201.287C75.0934 -201.287 108.188 -188.662 133.438 -163.412L121.189 -151.162C99.3231 -173.028 70.6344 -183.961 41.9725 -183.961C13.3106 -183.961 -15.3513 -173.028 -37.2171 -151.162C-59.0829 -129.27 -70.0426 -100.608 -70.0426 -71.9461C-70.0426 -43.2842 -59.1097 -14.6223 -37.244 7.24344L-49.4931 19.4926L-49.4662 19.4657Z" fill="#E7C8FF"/>
<path d="M26.7969 -56.7964C63.8129 -19.7535 82.3478 28.7863 82.3478 77.3262C82.3478 125.866 63.8129 174.406 26.7969 211.449C-10.2459 248.492 -58.7858 267 -107.326 267C-155.866 267 -204.405 248.492 -241.448 211.449L-229.199 199.2C-195.541 232.858 -151.433 249.674 -107.326 249.674C-63.218 249.674 -19.1104 232.831 14.5478 199.2C48.206 165.541 65.0486 121.434 65.0486 77.3262C65.0486 33.2186 48.206 -10.889 14.5478 -44.5473L26.7969 -56.7964Z" fill="#E7C8FF"/>
<path d="M5.46698 -35.4675C36.6002 -4.30747 52.1802 36.4961 52.1802 77.3265C52.1802 118.13 36.6002 158.961 5.46698 190.121C-25.6662 221.254 -66.4966 236.834 -107.327 236.834C-148.131 236.834 -188.988 221.254 -220.121 190.121L-207.872 177.871C-180.097 205.647 -143.725 219.508 -107.327 219.508C-70.9289 219.508 -34.5307 205.62 -6.78214 177.871C20.9933 150.096 34.8542 113.725 34.8542 77.3265C34.8542 40.9552 20.9664 4.55701 -6.78214 -23.1916L5.46698 -35.4407V-35.4675Z" fill="#E7C8FF"/>
<path d="M-15.8873 -14.1123C9.36313 11.1381 21.9883 44.2322 21.9883 77.3532C21.9883 110.447 9.36313 143.542 -15.8873 168.819C-41.1377 194.069 -74.2318 206.694 -107.353 206.694C-140.447 206.694 -173.541 194.069 -198.818 168.819L-186.569 156.57C-164.703 178.435 -136.015 189.368 -107.353 189.368C-78.6909 189.368 -50.0022 178.435 -28.1364 156.57C-6.27065 134.704 4.68909 106.015 4.68909 77.3532C4.68909 48.6914 -6.24379 20.0026 -28.1364 -1.86318L-15.8873 -14.1123Z" fill="#E7C8FF"/>
<path d="M229.148 -41.2969C226.005 -22.0636 219.88 -3.17957 210.774 14.5763C201.937 31.7681 190.386 47.8585 176.122 62.1491C161.831 76.4398 145.768 87.9905 128.549 96.8013C110.793 105.908 91.9093 112.032 72.676 115.175L69.9092 98.1175C87.4501 95.2701 104.588 89.6828 120.705 81.4362C136.205 73.5118 150.791 62.9819 163.873 49.8732C176.955 36.7913 187.485 22.2052 195.436 6.70571C203.709 -9.41156 209.27 -26.5496 212.117 -44.0906L229.175 -41.3238L229.148 -41.2969Z" fill="#E7C8FF"/>
<path d="M197.962 -38.5291C194.819 -23.7818 189.527 -9.35689 182.113 4.23535C174.968 17.3709 165.862 29.7006 154.794 40.7678L154.768 40.7947C143.7 51.8619 131.371 60.9681 118.235 68.1135C104.643 75.5006 90.2179 80.8192 75.4706 83.9621L71.8711 67.039C85.0604 64.2185 97.9005 59.5176 109.988 52.9632C121.647 46.5969 132.66 38.4577 142.572 28.5724C152.484 18.6603 160.624 7.64682 166.963 -4.01134C173.517 -16.0724 178.218 -28.9125 181.039 -42.1287L197.962 -38.5291Z" fill="#E7C8FF"/>
<path d="M167.58 -41.1352C164.813 -29.88 160.515 -18.8934 154.659 -8.52459C148.965 1.57556 141.9 11.0042 133.438 19.4657C124.977 27.9273 115.548 34.992 105.448 40.6868C95.0793 46.5427 84.0926 50.8407 72.8374 53.6075L68.7812 36.8187C78.5591 34.4279 88.0682 30.6941 97.0133 25.6709C105.582 20.8357 113.748 14.6843 121.216 7.21661C128.684 -0.25106 134.835 -8.41717 139.67 -16.9862C144.72 -25.9044 148.427 -35.4404 150.818 -45.2183L167.607 -41.1621L167.58 -41.1352Z" fill="#E7C8FF"/>
<path d="M138.461 -48.9797C136.366 -40.2226 133.089 -31.6805 128.576 -23.595C124.17 -15.7513 118.691 -8.41791 112.136 -1.86355C105.582 4.6908 98.2485 10.1707 90.4047 14.5492C82.3461 19.0889 73.7771 22.393 65.0469 24.4613L61.0713 7.61877C68.2972 5.8996 75.3619 3.18653 81.97 -0.520447C88.3363 -4.06625 94.3803 -8.60594 99.887 -14.1127C105.394 -19.6194 109.933 -25.6634 113.479 -32.0029C117.186 -38.6378 119.899 -45.7025 121.618 -52.9553L138.461 -48.9797Z" fill="#E7C8FF"/>
<path d="M304.12 190.12C272.987 221.254 232.157 236.834 191.326 236.834C150.523 236.834 109.665 221.254 78.5322 190.12C73.106 184.641 68.0828 178.838 63.5431 172.768C58.896 166.562 54.786 160.115 51.1865 153.507L66.3368 145.261C69.5602 151.197 73.2403 156.946 77.3502 162.426C81.3527 167.771 85.8118 172.956 90.7545 177.871C118.557 205.647 154.955 219.508 191.326 219.508C227.724 219.508 264.096 205.62 291.871 177.871L304.12 190.12Z" fill="#E7C8FF"/>
<path d="M282.792 168.792C257.541 194.043 224.447 206.668 191.326 206.668C158.232 206.668 125.138 194.043 99.8605 168.792C91.4527 160.384 84.3879 150.983 78.6931 140.909C72.8372 130.568 68.5393 119.635 65.7725 108.46L82.5613 104.323C84.9789 114.101 88.6858 123.557 93.7091 132.448C98.5442 140.99 104.669 149.102 112.11 156.516C133.975 178.382 162.664 189.315 191.326 189.315C219.988 189.315 248.65 178.382 270.542 156.516L282.792 168.765V168.792Z" fill="#E7C8FF"/>
<path d="M261.437 147.463C242.069 166.831 216.684 176.501 191.327 176.501C165.942 176.501 140.557 166.831 121.19 147.463C114.635 140.909 109.155 133.602 104.804 125.839C100.345 117.888 97.0406 109.373 94.9453 100.562L111.734 96.5864C113.453 103.705 116.166 110.716 119.9 117.378C123.473 123.744 127.986 129.761 133.439 135.214C149.422 151.197 170.374 159.202 191.327 159.202C212.279 159.202 233.232 151.197 249.188 135.214L261.437 147.463Z" fill="#E7C8FF"/>
<path d="M240.108 126.108C226.65 139.566 208.975 146.308 191.326 146.308C173.705 146.308 156.057 139.566 142.572 126.108C137.119 120.709 132.767 114.557 129.517 107.976C126.159 101.207 123.983 93.9809 122.989 86.6475L140.1 84.3374C140.853 89.8441 142.491 95.2435 145.016 100.32C147.407 105.156 150.684 109.749 154.794 113.859C164.867 123.959 178.11 128.982 191.326 128.982C204.543 128.982 217.786 123.932 227.859 113.859L240.108 126.108Z" fill="#E7C8FF"/>
<path d="M218.752 104.807C211.177 112.382 201.238 116.169 191.326 116.169C181.414 116.169 171.475 112.382 163.9 104.807C156.271 97.2317 152.483 87.2927 152.483 77.3537C152.483 67.4147 156.271 57.4758 163.846 49.9006L176.095 62.1498C171.878 66.3402 169.783 71.847 169.783 77.3537C169.783 82.8605 171.878 88.3672 176.095 92.5577C180.259 96.7751 185.792 98.8703 191.299 98.8703C196.833 98.8703 202.34 96.7751 206.557 92.5577L218.725 104.807H218.752Z" fill="#E7C8FF"/>
<path d="M298.56 -79.1179C303.234 -75.9213 307.881 -72.3755 312.501 -68.5343C317.148 -64.6661 321.473 -60.7442 325.449 -56.7687C362.491 -19.7258 380.999 28.8141 380.999 77.3539C380.999 125.894 362.465 174.434 325.449 211.477L313.199 199.227C346.858 165.569 363.673 121.462 363.673 77.3539C363.673 33.2463 346.831 -10.8613 313.199 -44.5195C309.224 -48.4951 305.302 -52.0946 301.461 -55.2912C297.458 -58.6221 293.241 -61.8187 288.809 -64.8541L298.56 -79.1179Z" fill="#E7C8FF"/>
<path d="M267.507 -62.813C274.115 -59.2135 280.562 -55.1035 286.74 -50.4564C292.918 -45.8361 298.721 -40.8398 304.093 -35.4673C335.226 -4.33413 350.806 36.4963 350.806 77.3267C350.806 118.13 335.226 158.988 304.093 190.121L291.844 177.872C319.619 150.096 333.48 113.725 333.48 77.3267C333.48 40.9285 319.593 4.53036 291.844 -23.2182C286.821 -28.2414 281.663 -32.7274 276.398 -36.6761C270.918 -40.786 265.17 -44.4393 259.233 -47.6628L267.48 -62.813H267.507Z" fill="#E7C8FF"/>
<path d="M222.164 -48.2542C233.419 -45.4874 244.406 -41.1894 254.775 -35.3334C264.848 -29.6924 274.277 -22.6008 282.765 -14.1124C308.015 11.138 320.641 44.2322 320.641 77.3532C320.641 110.447 308.015 143.541 282.765 168.819L270.516 156.57C292.382 134.704 303.315 106.015 303.315 77.3532C303.315 48.6913 292.382 20.0025 270.516 -1.86325C263.129 -9.2772 254.963 -15.4286 246.313 -20.2907C237.395 -25.3676 227.859 -29.1015 218.081 -31.4653L222.137 -48.2542H222.164Z" fill="#E7C8FF"/>
<path d="M214.347 -19.1357C223.051 -17.0674 231.593 -13.7633 239.705 -9.2505C247.549 -4.89884 254.855 0.607885 261.463 7.18911C280.831 26.5567 290.501 51.9414 290.501 77.3261C290.501 102.711 280.831 128.096 261.463 147.436L249.214 135.187C265.197 119.204 273.202 98.2517 273.202 77.3261C273.202 56.3737 265.197 35.4212 249.214 19.4383C243.734 13.9584 237.69 9.41866 231.297 5.846C224.716 2.13903 217.651 -0.574045 210.398 -2.29322L214.374 -19.1357H214.347Z" fill="#E7C8FF"/>
<path d="M200.487 8.98877C207.874 9.98267 215.154 12.1585 221.923 15.5162C228.531 18.7934 234.683 23.1451 240.109 28.5712C253.567 42.0829 260.309 59.7313 260.309 77.3529C260.309 95.0013 253.567 112.677 240.109 126.134L227.86 113.885C237.96 103.785 242.983 90.569 242.983 77.3529C242.983 64.1098 237.933 50.8668 227.887 40.8204C223.723 36.6836 219.13 33.4333 214.268 31.0157C209.164 28.4907 203.738 26.8521 198.258 26.1268L200.487 9.01562V8.98877Z" fill="#E7C8FF"/>
<path d="M163.873 49.8737C171.448 42.2986 181.387 38.511 191.326 38.511C201.265 38.511 211.204 42.2986 218.779 49.8737C226.354 57.4488 230.142 67.3878 230.142 77.3267C230.142 87.2657 226.354 97.2047 218.779 104.78L206.53 92.5307C210.721 88.3402 212.843 82.8335 212.843 77.3267C212.843 71.82 210.747 66.3133 206.53 62.1228C202.34 57.9055 196.833 55.8102 191.326 55.8102C185.819 55.8102 180.313 57.9055 176.122 62.1228L163.873 49.8737Z" fill="#E7C8FF"/>
<path d="M585.877 62.1229C548.861 25.0801 530.326 -23.4598 530.326 -71.9997C530.326 -120.54 548.861 -169.079 585.877 -206.122C622.92 -243.138 671.46 -261.673 720 -261.673C768.539 -261.673 817.079 -243.138 854.122 -206.122L841.873 -193.873C808.215 -227.531 764.107 -244.347 720 -244.347C675.892 -244.347 631.784 -227.504 598.126 -193.873C564.468 -160.215 547.652 -116.107 547.652 -71.9997C547.652 -27.8921 564.495 16.2156 598.126 49.8738L585.877 62.1229Z" fill="#E7C8FF"/>
<path d="M607.205 40.7936C576.072 9.66043 560.492 -31.17 560.492 -72.0004C560.492 -112.831 576.072 -153.661 607.205 -184.794C638.339 -215.928 679.169 -231.508 719.999 -231.508C760.83 -231.508 801.66 -215.928 832.794 -184.794L820.544 -172.545C792.796 -200.321 756.398 -214.182 719.999 -214.182C683.601 -214.182 647.23 -200.294 619.455 -172.545C591.679 -144.797 577.818 -108.399 577.818 -72.0004C577.818 -35.6022 591.706 0.769073 619.455 28.5445L607.205 40.7936Z" fill="#E7C8FF"/>
<path d="M628.534 19.4657C603.283 -5.78468 590.658 -38.8788 590.658 -71.973C590.658 -105.067 603.283 -138.161 628.534 -163.412C653.784 -188.662 686.905 -201.287 719.999 -201.287C753.093 -201.287 786.188 -188.662 811.438 -163.412L799.189 -151.162C777.323 -173.028 748.634 -183.961 719.972 -183.961C691.311 -183.961 662.649 -173.028 640.783 -151.162C618.917 -129.27 607.957 -100.608 607.957 -71.9461C607.957 -43.2842 618.89 -14.6223 640.756 7.24344L628.507 19.4926L628.534 19.4657Z" fill="#E7C8FF"/>
<path d="M704.797 -56.7964C741.813 -19.7535 760.348 28.7863 760.348 77.3262C760.348 125.866 741.813 174.406 704.797 211.449C667.754 248.492 619.214 267 570.674 267C522.134 267 473.595 248.492 436.552 211.449L448.801 199.2C482.459 232.858 526.567 249.674 570.674 249.674C614.782 249.674 658.89 232.831 692.548 199.2C726.206 165.541 743.049 121.434 743.049 77.3262C743.049 33.2186 726.206 -10.889 692.548 -44.5473L704.797 -56.7964Z" fill="#E7C8FF"/>
<path d="M683.467 -35.4675C714.6 -4.30747 730.18 36.4961 730.18 77.3265C730.18 118.13 714.6 158.961 683.467 190.121C652.334 221.254 611.503 236.834 570.673 236.834C529.869 236.834 489.012 221.254 457.879 190.121L470.128 177.871C497.903 205.647 534.275 219.508 570.673 219.508C607.071 219.508 643.469 205.62 671.218 177.871C698.993 150.096 712.854 113.725 712.854 77.3265C712.854 40.9552 698.966 4.55701 671.218 -23.1916L683.467 -35.4407V-35.4675Z" fill="#E7C8FF"/>
<path d="M662.113 -14.1123C687.363 11.1381 699.988 44.2322 699.988 77.3532C699.988 110.447 687.363 143.542 662.113 168.819C636.862 194.069 603.768 206.694 570.647 206.694C537.553 206.694 504.459 194.069 479.182 168.819L491.431 156.57C513.297 178.435 541.985 189.368 570.647 189.368C599.309 189.368 627.998 178.435 649.864 156.57C671.729 134.704 682.689 106.015 682.689 77.3532C682.689 48.6914 671.756 20.0026 649.864 -1.86318L662.113 -14.1123Z" fill="#E7C8FF"/>
<path d="M640.783 7.21582C660.151 26.5834 669.821 51.9681 669.821 77.3528C669.821 102.738 660.151 128.122 640.783 147.463C621.416 166.831 596.031 176.501 570.646 176.501C545.262 176.501 519.877 166.831 500.536 147.463L512.785 135.214C528.768 151.197 549.721 159.202 570.646 159.202C591.599 159.202 612.551 151.197 628.534 135.214C644.517 119.231 652.495 98.2784 652.495 77.3528C652.495 56.4004 644.49 35.4479 628.534 19.4649L640.783 7.21582Z" fill="#E7C8FF"/>
<path d="M619.456 28.5449C632.914 42.0297 639.656 59.6781 639.656 77.3265C639.656 94.9749 632.914 112.65 619.456 126.108C605.971 139.566 588.323 146.308 570.647 146.308C553.026 146.308 535.377 139.566 521.893 126.108L534.061 113.859C544.134 123.959 557.377 128.982 570.62 128.982C583.837 128.982 597.08 123.932 607.153 113.859C617.253 103.759 622.303 90.5427 622.303 77.3265C622.303 64.1103 617.253 50.8673 607.18 40.794L619.429 28.5449H619.456Z" fill="#E7C8FF"/>
<path d="M598.126 49.8738C605.701 57.4489 609.489 67.3878 609.489 77.3268C609.489 87.2658 605.701 97.2048 598.126 104.78C590.498 112.355 580.585 116.143 570.673 116.143C560.761 116.143 550.822 112.355 543.247 104.78L555.416 92.5308C559.633 96.7213 565.14 98.8434 570.673 98.8434C576.18 98.8434 581.687 96.7482 585.904 92.5577C590.095 88.3403 592.19 82.8336 592.19 77.3268C592.19 71.8201 590.095 66.3134 585.877 62.1229L598.126 49.8738Z" fill="#E7C8FF"/>
<path d="M542.764 -92.7641C525.223 -89.9167 508.085 -84.3294 491.967 -76.0827C476.495 -68.1315 461.909 -57.6285 448.8 -44.5197C415.142 -10.8615 398.326 33.2461 398.326 77.3537C398.326 121.461 415.169 165.569 448.8 199.227L436.551 211.476C399.508 174.46 381 125.894 381 77.3537C381 28.8139 399.508 -19.726 436.551 -56.7689C450.842 -71.0595 466.905 -82.6102 484.097 -91.421C501.853 -100.527 520.737 -106.652 539.97 -109.795L542.737 -92.7641H542.764Z" fill="#E7C8FF"/>
<path d="M540.803 -61.7116C527.613 -58.8911 514.746 -54.1902 502.685 -47.6359C491 -41.2695 480.014 -33.1572 470.128 -23.245C442.353 4.55725 428.492 40.9554 428.492 77.3267C428.492 113.725 442.38 150.096 470.128 177.872L457.879 190.121C426.746 158.988 411.166 118.157 411.166 77.3267C411.166 36.4963 426.746 -4.33412 457.879 -35.4673C468.973 -46.5345 481.303 -55.6408 494.439 -62.7861C508.031 -70.1732 522.456 -75.465 537.203 -78.6079L540.803 -61.6848V-61.7116Z" fill="#E7C8FF"/>
<path d="M543.893 -31.4653C534.115 -29.0746 524.606 -25.3676 515.661 -20.3175C507.011 -15.4286 498.872 -9.2772 491.458 -1.86325C469.592 20.0025 458.659 48.6644 458.659 77.3532C458.659 106.015 469.592 134.677 491.458 156.57L479.209 168.819C453.958 143.568 441.333 110.447 441.333 77.3532C441.333 44.259 453.958 11.138 479.209 -14.1124C487.724 -22.6008 497.153 -29.6924 507.199 -35.3603C517.568 -41.1894 528.554 -45.4874 539.81 -48.2542L543.866 -31.4653H543.893Z" fill="#E7C8FF"/>
<path d="M551.629 -2.26632C544.349 -0.547148 537.284 2.1659 530.703 5.84601C524.31 9.44553 518.266 13.9853 512.786 19.4651C496.803 35.4481 488.798 56.4006 488.798 77.353C488.798 98.3055 496.803 119.231 512.786 135.214L500.537 147.463C481.169 128.096 471.499 102.711 471.499 77.353C471.499 51.9683 481.169 26.5836 500.537 7.216C507.118 0.634781 514.452 -4.87194 522.242 -9.2236C530.354 -13.7364 538.896 -17.0674 547.626 -19.1089L551.629 -2.26632Z" fill="#E7C8FF"/>
<path d="M563.742 26.1007C558.236 26.826 552.81 28.4645 547.706 30.9896C542.79 33.4072 538.197 36.6844 534.114 40.7674C524.013 50.8944 518.99 64.1375 518.99 77.3536C518.99 90.5967 524.04 103.84 534.114 113.913L521.864 126.082C508.406 112.624 501.664 94.9752 501.664 77.3267C501.664 59.6783 508.406 42.0031 521.864 28.5452C527.344 23.0921 533.496 18.7405 540.05 15.4902C546.846 12.1324 554.099 9.95655 561.486 8.96265L563.716 26.0738L563.742 26.1007Z" fill="#E7C8FF"/>
<path d="M585.878 62.1221C581.688 57.9047 576.181 55.8095 570.674 55.8095C565.167 55.8095 559.661 57.9047 555.47 62.1221C551.253 66.3126 549.158 71.8193 549.158 77.326C549.158 82.8596 551.253 88.3664 555.47 92.5837L543.221 104.752C535.646 97.1771 531.858 87.2381 531.858 77.326C531.858 67.4139 535.646 57.4749 543.221 49.8998C550.796 42.271 560.735 38.4834 570.674 38.4834C580.613 38.4834 590.552 42.2709 598.127 49.8461L585.878 62.0952V62.1221Z" fill="#E7C8FF"/>
<path d="M907.148 -41.2969C904.005 -22.0636 897.88 -3.17957 888.774 14.5763C879.937 31.7681 868.386 47.8585 854.122 62.1491C839.831 76.4398 823.768 87.9905 806.549 96.8013C788.793 105.908 769.909 112.032 750.676 115.175L747.909 98.1175C765.45 95.2701 782.588 89.6828 798.705 81.4362C814.205 73.5118 828.791 62.9819 841.873 49.8732C854.955 36.7913 865.485 22.2052 873.436 6.70571C881.709 -9.41156 887.27 -26.5496 890.117 -44.0906L907.175 -41.3238L907.148 -41.2969Z" fill="#E7C8FF"/>
<path d="M875.962 -38.5291C872.819 -23.7818 867.527 -9.35689 860.113 4.23535C852.968 17.3709 843.862 29.7006 832.794 40.7678L832.768 40.7947C821.7 51.8619 809.371 60.9681 796.235 68.1135C782.643 75.5006 768.218 80.8192 753.471 83.9621L749.871 67.039C763.06 64.2185 775.9 59.5176 787.988 52.9632C799.647 46.5969 810.66 38.4577 820.572 28.5724C830.484 18.6603 838.624 7.64682 844.963 -4.01134C851.517 -16.0724 856.218 -28.9125 859.039 -42.1287L875.962 -38.5291Z" fill="#E7C8FF"/>
<path d="M845.58 -41.1352C842.813 -29.88 838.515 -18.8934 832.659 -8.52459C826.965 1.57556 819.9 11.0042 811.438 19.4657C802.977 27.9273 793.548 34.992 783.448 40.6868C773.079 46.5427 762.093 50.8407 750.837 53.6075L746.781 36.8187C756.559 34.4279 766.068 30.6941 775.013 25.6709C783.582 20.8357 791.748 14.6843 799.216 7.21661C806.684 -0.25106 812.835 -8.41717 817.67 -16.9862C822.72 -25.9044 826.427 -35.4404 828.818 -45.2183L845.607 -41.1621L845.58 -41.1352Z" fill="#E7C8FF"/>
<path d="M816.461 -48.9797C814.366 -40.2226 811.089 -31.6805 806.576 -23.595C802.17 -15.7513 796.691 -8.41791 790.136 -1.86355C783.582 4.6908 776.248 10.1707 768.405 14.5492C760.346 19.0889 751.777 22.393 743.047 24.4613L739.071 7.61877C746.297 5.8996 753.362 3.18653 759.97 -0.520447C766.336 -4.06625 772.38 -8.60594 777.887 -14.1127C783.394 -19.6194 787.933 -25.6634 791.479 -32.0029C795.186 -38.6378 797.899 -45.7025 799.618 -52.9553L816.461 -48.9797Z" fill="#E7C8FF"/>
<path d="M982.12 190.12C950.987 221.254 910.157 236.834 869.326 236.834C828.523 236.834 787.665 221.254 756.532 190.12C751.106 184.641 746.083 178.838 741.543 172.768C736.896 166.562 732.786 160.115 729.187 153.507L744.337 145.261C747.56 151.197 751.24 156.946 755.35 162.426C759.353 167.771 763.812 172.956 768.754 177.871C796.557 205.647 832.955 219.508 869.326 219.508C905.724 219.508 942.096 205.62 969.871 177.871L982.12 190.12Z" fill="#E7C8FF"/>
<path d="M960.792 168.792C935.541 194.043 902.447 206.668 869.326 206.668C836.232 206.668 803.138 194.043 777.861 168.792C769.453 160.384 762.388 150.983 756.693 140.909C750.837 130.568 746.539 119.635 743.772 108.46L760.561 104.323C762.979 114.101 766.686 123.557 771.709 132.448C776.544 140.99 782.669 149.102 790.11 156.516C811.975 178.382 840.664 189.315 869.326 189.315C897.988 189.315 926.65 178.382 948.542 156.516L960.792 168.765V168.792Z" fill="#E7C8FF"/>
<path d="M939.437 147.463C920.069 166.831 894.684 176.501 869.327 176.501C843.942 176.501 818.557 166.831 799.19 147.463C792.635 140.909 787.155 133.602 782.804 125.839C778.345 117.888 775.041 109.373 772.945 100.562L789.734 96.5864C791.453 103.705 794.166 110.716 797.9 117.378C801.473 123.744 805.986 129.761 811.439 135.214C827.422 151.197 848.374 159.202 869.327 159.202C890.279 159.202 911.232 151.197 927.188 135.214L939.437 147.463Z" fill="#E7C8FF"/>
<path d="M918.108 126.108C904.65 139.566 886.975 146.308 869.326 146.308C851.705 146.308 834.057 139.566 820.572 126.108C815.119 120.709 810.767 114.557 807.517 107.976C804.159 101.207 801.983 93.9809 800.989 86.6475L818.1 84.3374C818.853 89.8441 820.491 95.2435 823.016 100.32C825.407 105.156 828.684 109.749 832.794 113.859C842.867 123.959 856.11 128.982 869.326 128.982C882.543 128.982 895.786 123.932 905.859 113.859L918.108 126.108Z" fill="#E7C8FF"/>
<path d="M896.752 104.807C889.177 112.382 879.238 116.169 869.326 116.169C859.414 116.169 849.475 112.382 841.9 104.807C834.271 97.2317 830.483 87.2927 830.483 77.3537C830.483 67.4147 834.271 57.4758 841.846 49.9006L854.095 62.1498C849.878 66.3402 847.783 71.847 847.783 77.3537C847.783 82.8605 849.878 88.3672 854.095 92.5577C858.259 96.7751 863.792 98.8703 869.299 98.8703C874.833 98.8703 880.34 96.7751 884.557 92.5577L896.725 104.807H896.752Z" fill="#E7C8FF"/>
<path d="M976.56 -79.1179C981.234 -75.9213 985.881 -72.3755 990.501 -68.5343C995.148 -64.6661 999.473 -60.7442 1003.45 -56.7687C1040.49 -19.7258 1059 28.8141 1059 77.3539C1059 125.894 1040.46 174.434 1003.45 211.477L991.199 199.227C1024.86 165.569 1041.67 121.462 1041.67 77.3539C1041.67 33.2463 1024.83 -10.8613 991.199 -44.5195C987.224 -48.4951 983.302 -52.0946 979.461 -55.2912C975.458 -58.6221 971.241 -61.8187 966.809 -64.8541L976.56 -79.1179Z" fill="#E7C8FF"/>
<path d="M945.507 -62.813C952.115 -59.2135 958.562 -55.1035 964.74 -50.4564C970.918 -45.8361 976.721 -40.8398 982.093 -35.4673C1013.23 -4.33413 1028.81 36.4963 1028.81 77.3267C1028.81 118.13 1013.23 158.988 982.093 190.121L969.844 177.872C997.619 150.096 1011.48 113.725 1011.48 77.3267C1011.48 40.9285 997.593 4.53036 969.844 -23.2182C964.821 -28.2414 959.663 -32.7274 954.398 -36.6761C948.918 -40.786 943.17 -44.4393 937.233 -47.6628L945.48 -62.813H945.507Z" fill="#E7C8FF"/>
<path d="M900.164 -48.2542C911.419 -45.4874 922.406 -41.1894 932.775 -35.3334C942.848 -29.6924 952.277 -22.6008 960.765 -14.1124C986.015 11.138 998.641 44.2322 998.641 77.3532C998.641 110.447 986.015 143.541 960.765 168.819L948.516 156.57C970.382 134.704 981.315 106.015 981.315 77.3532C981.315 48.6913 970.382 20.0025 948.516 -1.86325C941.129 -9.2772 932.963 -15.4286 924.313 -20.2907C915.395 -25.3676 905.859 -29.1015 896.081 -31.4653L900.137 -48.2542H900.164Z" fill="#E7C8FF"/>
<path d="M892.347 -19.1357C901.051 -17.0674 909.593 -13.7633 917.705 -9.2505C925.549 -4.89884 932.855 0.607885 939.463 7.18911C958.831 26.5567 968.501 51.9414 968.501 77.3261C968.501 102.711 958.831 128.096 939.463 147.436L927.214 135.187C943.197 119.204 951.202 98.2517 951.202 77.3261C951.202 56.3737 943.197 35.4212 927.214 19.4383C921.734 13.9584 915.69 9.41866 909.297 5.846C902.716 2.13903 895.651 -0.574045 888.398 -2.29322L892.374 -19.1357H892.347Z" fill="#E7C8FF"/>
<path d="M878.487 8.98877C885.874 9.98267 893.154 12.1585 899.923 15.5162C906.531 18.7934 912.683 23.1451 918.109 28.5712C931.567 42.0829 938.309 59.7313 938.309 77.3529C938.309 95.0013 931.567 112.677 918.109 126.134L905.86 113.885C915.96 103.785 920.983 90.569 920.983 77.3529C920.983 64.1098 915.933 50.8668 905.887 40.8204C901.723 36.6836 897.13 33.4333 892.268 31.0157C887.164 28.4907 881.738 26.8521 876.258 26.1268L878.487 9.01562V8.98877Z" fill="#E7C8FF"/>
<path d="M841.873 49.8737C849.448 42.2986 859.387 38.511 869.326 38.511C879.265 38.511 889.204 42.2986 896.779 49.8737C904.354 57.4488 908.142 67.3878 908.142 77.3267C908.142 87.2657 904.354 97.2047 896.779 104.78L884.53 92.5307C888.721 88.3402 890.843 82.8335 890.843 77.3267C890.843 71.82 888.747 66.3133 884.53 62.1228C880.34 57.9055 874.833 55.8102 869.326 55.8102C863.819 55.8102 858.313 57.9055 854.122 62.1228L841.873 49.8737Z" fill="#E7C8FF"/>
<path d="M1263.88 62.1229C1226.86 25.0801 1208.33 -23.4598 1208.33 -71.9997C1208.33 -120.54 1226.86 -169.079 1263.88 -206.122C1300.92 -243.138 1349.46 -261.673 1398 -261.673C1446.54 -261.673 1495.08 -243.138 1532.12 -206.122L1519.87 -193.873C1486.21 -227.531 1442.11 -244.347 1398 -244.347C1353.89 -244.347 1309.78 -227.504 1276.13 -193.873C1242.47 -160.215 1225.65 -116.107 1225.65 -71.9997C1225.65 -27.8921 1242.49 16.2156 1276.13 49.8738L1263.88 62.1229Z" fill="#E7C8FF"/>
<path d="M1285.21 40.7936C1254.07 9.66043 1238.49 -31.17 1238.49 -72.0004C1238.49 -112.831 1254.07 -153.661 1285.21 -184.794C1316.34 -215.928 1357.17 -231.508 1398 -231.508C1438.83 -231.508 1479.66 -215.928 1510.79 -184.794L1498.54 -172.545C1470.8 -200.321 1434.4 -214.182 1398 -214.182C1361.6 -214.182 1325.23 -200.294 1297.45 -172.545C1269.68 -144.797 1255.82 -108.399 1255.82 -72.0004C1255.82 -35.6022 1269.71 0.769073 1297.45 28.5445L1285.21 40.7936Z" fill="#E7C8FF"/>
<path d="M1306.53 19.4657C1281.28 -5.78468 1268.66 -38.8788 1268.66 -71.973C1268.66 -105.067 1281.28 -138.161 1306.53 -163.412C1331.78 -188.662 1364.91 -201.287 1398 -201.287C1431.09 -201.287 1464.19 -188.662 1489.44 -163.412L1477.19 -151.162C1455.32 -173.028 1426.63 -183.961 1397.97 -183.961C1369.31 -183.961 1340.65 -173.028 1318.78 -151.162C1296.92 -129.27 1285.96 -100.608 1285.96 -71.9461C1285.96 -43.2842 1296.89 -14.6223 1318.76 7.24344L1306.51 19.4926L1306.53 19.4657Z" fill="#E7C8FF"/>
<path d="M1382.8 -56.7964C1419.81 -19.7535 1438.35 28.7863 1438.35 77.3262C1438.35 125.866 1419.81 174.406 1382.8 211.449C1345.75 248.492 1297.21 267 1248.67 267C1200.13 267 1151.59 248.492 1114.55 211.449L1126.8 199.2C1160.46 232.858 1204.57 249.674 1248.67 249.674C1292.78 249.674 1336.89 232.831 1370.55 199.2C1404.21 165.541 1421.05 121.434 1421.05 77.3262C1421.05 33.2186 1404.21 -10.889 1370.55 -44.5473L1382.8 -56.7964Z" fill="#E7C8FF"/>
<path d="M1361.47 -35.4675C1392.6 -4.30747 1408.18 36.4961 1408.18 77.3265C1408.18 118.13 1392.6 158.961 1361.47 190.121C1330.33 221.254 1289.5 236.834 1248.67 236.834C1207.87 236.834 1167.01 221.254 1135.88 190.121L1148.13 177.871C1175.9 205.647 1212.27 219.508 1248.67 219.508C1285.07 219.508 1321.47 205.62 1349.22 177.871C1376.99 150.096 1390.85 113.725 1390.85 77.3265C1390.85 40.9552 1376.97 4.55701 1349.22 -23.1916L1361.47 -35.4407V-35.4675Z" fill="#E7C8FF"/>
<path d="M1340.11 -14.1123C1365.36 11.1381 1377.99 44.2322 1377.99 77.3532C1377.99 110.447 1365.36 143.542 1340.11 168.819C1314.86 194.069 1281.77 206.694 1248.65 206.694C1215.55 206.694 1182.46 194.069 1157.18 168.819L1169.43 156.57C1191.3 178.435 1219.99 189.368 1248.65 189.368C1277.31 189.368 1306 178.435 1327.86 156.57C1349.73 134.704 1360.69 106.015 1360.69 77.3532C1360.69 48.6914 1349.76 20.0026 1327.86 -1.86318L1340.11 -14.1123Z" fill="#E7C8FF"/>
<path d="M1318.78 7.21582C1338.15 26.5834 1347.82 51.9681 1347.82 77.3528C1347.82 102.738 1338.15 128.122 1318.78 147.463C1299.42 166.831 1274.03 176.501 1248.65 176.501C1223.26 176.501 1197.88 166.831 1178.54 147.463L1190.79 135.214C1206.77 151.197 1227.72 159.202 1248.65 159.202C1269.6 159.202 1290.55 151.197 1306.53 135.214C1322.52 119.231 1330.5 98.2784 1330.5 77.3528C1330.5 56.4004 1322.49 35.4479 1306.53 19.4649L1318.78 7.21582Z" fill="#E7C8FF"/>
<path d="M1297.46 28.5449C1310.91 42.0297 1317.66 59.6781 1317.66 77.3265C1317.66 94.9749 1310.91 112.65 1297.46 126.108C1283.97 139.566 1266.32 146.308 1248.65 146.308C1231.03 146.308 1213.38 139.566 1199.89 126.108L1212.06 113.859C1222.13 123.959 1235.38 128.982 1248.62 128.982C1261.84 128.982 1275.08 123.932 1285.15 113.859C1295.25 103.759 1300.3 90.5427 1300.3 77.3265C1300.3 64.1103 1295.25 50.8673 1285.18 40.794L1297.43 28.5449H1297.46Z" fill="#E7C8FF"/>
<path d="M1276.13 49.8738C1283.7 57.4489 1287.49 67.3878 1287.49 77.3268C1287.49 87.2658 1283.7 97.2048 1276.13 104.78C1268.5 112.355 1258.59 116.143 1248.67 116.143C1238.76 116.143 1228.82 112.355 1221.25 104.78L1233.42 92.5308C1237.63 96.7213 1243.14 98.8434 1248.67 98.8434C1254.18 98.8434 1259.69 96.7482 1263.9 92.5577C1268.09 88.3403 1270.19 82.8336 1270.19 77.3268C1270.19 71.8201 1268.09 66.3134 1263.88 62.1229L1276.13 49.8738Z" fill="#E7C8FF"/>
<path d="M1220.76 -92.7641C1203.22 -89.9167 1186.08 -84.3294 1169.97 -76.0827C1154.49 -68.1315 1139.91 -57.6285 1126.8 -44.5197C1093.14 -10.8615 1076.33 33.2461 1076.33 77.3537C1076.33 121.461 1093.17 165.569 1126.8 199.227L1114.55 211.476C1077.51 174.46 1059 125.894 1059 77.3537C1059 28.8139 1077.51 -19.726 1114.55 -56.7689C1128.84 -71.0595 1144.91 -82.6102 1162.1 -91.421C1179.85 -100.527 1198.74 -106.652 1217.97 -109.795L1220.74 -92.7641H1220.76Z" fill="#E7C8FF"/>
<path d="M1218.8 -61.7116C1205.61 -58.8911 1192.75 -54.1902 1180.69 -47.6359C1169 -41.2695 1158.01 -33.1572 1148.13 -23.245C1120.35 4.55725 1106.49 40.9554 1106.49 77.3267C1106.49 113.725 1120.38 150.096 1148.13 177.872L1135.88 190.121C1104.75 158.988 1089.17 118.157 1089.17 77.3267C1089.17 36.4963 1104.75 -4.33412 1135.88 -35.4673C1146.97 -46.5345 1159.3 -55.6408 1172.44 -62.7861C1186.03 -70.1732 1200.46 -75.465 1215.2 -78.6079L1218.8 -61.6848V-61.7116Z" fill="#E7C8FF"/>
<path d="M1221.89 -31.4653C1212.11 -29.0746 1202.61 -25.3676 1193.66 -20.3175C1185.01 -15.4286 1176.87 -9.2772 1169.46 -1.86325C1147.59 20.0025 1136.66 48.6644 1136.66 77.3532C1136.66 106.015 1147.59 134.677 1169.46 156.57L1157.21 168.819C1131.96 143.568 1119.33 110.447 1119.33 77.3532C1119.33 44.259 1131.96 11.138 1157.21 -14.1124C1165.72 -22.6008 1175.15 -29.6924 1185.2 -35.3603C1195.57 -41.1894 1206.55 -45.4874 1217.81 -48.2542L1221.87 -31.4653H1221.89Z" fill="#E7C8FF"/>
<path d="M1229.63 -2.26632C1222.35 -0.547148 1215.28 2.1659 1208.7 5.84601C1202.31 9.44553 1196.27 13.9853 1190.79 19.4651C1174.8 35.4481 1166.8 56.4006 1166.8 77.353C1166.8 98.3055 1174.8 119.231 1190.79 135.214L1178.54 147.463C1159.17 128.096 1149.5 102.711 1149.5 77.353C1149.5 51.9683 1159.17 26.5836 1178.54 7.216C1185.12 0.634781 1192.45 -4.87194 1200.24 -9.2236C1208.35 -13.7364 1216.9 -17.0674 1225.63 -19.1089L1229.63 -2.26632Z" fill="#E7C8FF"/>
<path d="M1241.74 26.1007C1236.24 26.826 1230.81 28.4645 1225.71 30.9896C1220.79 33.4072 1216.2 36.6844 1212.11 40.7674C1202.01 50.8944 1196.99 64.1375 1196.99 77.3536C1196.99 90.5967 1202.04 103.84 1212.11 113.913L1199.86 126.082C1186.41 112.624 1179.66 94.9752 1179.66 77.3267C1179.66 59.6783 1186.41 42.0031 1199.86 28.5452C1205.34 23.0921 1211.5 18.7405 1218.05 15.4902C1224.85 12.1324 1232.1 9.95655 1239.49 8.96265L1241.72 26.0738L1241.74 26.1007Z" fill="#E7C8FF"/>
<path d="M1263.88 62.1221C1259.69 57.9047 1254.18 55.8095 1248.67 55.8095C1243.17 55.8095 1237.66 57.9047 1233.47 62.1221C1229.25 66.3126 1227.16 71.8193 1227.16 77.326C1227.16 82.8596 1229.25 88.3664 1233.47 92.5837L1221.22 104.752C1213.65 97.1771 1209.86 87.2381 1209.86 77.326C1209.86 67.4139 1213.65 57.4749 1221.22 49.8998C1228.8 42.271 1238.74 38.4834 1248.67 38.4834C1258.61 38.4834 1268.55 42.2709 1276.13 49.8461L1263.88 62.0952V62.1221Z" fill="#E7C8FF"/>
<path d="M1585.15 -41.2969C1582 -22.0636 1575.88 -3.17957 1566.77 14.5763C1557.94 31.7681 1546.39 47.8585 1532.12 62.1491C1517.83 76.4398 1501.77 87.9905 1484.55 96.8013C1466.79 105.908 1447.91 112.032 1428.68 115.175L1425.91 98.1175C1443.45 95.2701 1460.59 89.6828 1476.71 81.4362C1492.2 73.5118 1506.79 62.9819 1519.87 49.8732C1532.95 36.7913 1543.48 22.2052 1551.44 6.70571C1559.71 -9.41156 1565.27 -26.5496 1568.12 -44.0906L1585.17 -41.3238L1585.15 -41.2969Z" fill="#E7C8FF"/>
<path d="M1553.96 -38.5291C1550.82 -23.7818 1545.53 -9.35689 1538.11 4.23535C1530.97 17.3709 1521.86 29.7006 1510.79 40.7678L1510.77 40.7947C1499.7 51.8619 1487.37 60.9681 1474.24 68.1135C1460.64 75.5006 1446.22 80.8192 1431.47 83.9621L1427.87 67.039C1441.06 64.2185 1453.9 59.5176 1465.99 52.9632C1477.65 46.5969 1488.66 38.4577 1498.57 28.5724C1508.48 18.6603 1516.62 7.64682 1522.96 -4.01134C1529.52 -16.0724 1534.22 -28.9125 1537.04 -42.1287L1553.96 -38.5291Z" fill="#E7C8FF"/>
<path d="M1523.58 -41.1352C1520.81 -29.88 1516.52 -18.8934 1510.66 -8.52459C1504.96 1.57556 1497.9 11.0042 1489.44 19.4657C1480.98 27.9273 1471.55 34.992 1461.45 40.6868C1451.08 46.5427 1440.09 50.8407 1428.84 53.6075L1424.78 36.8187C1434.56 34.4279 1444.07 30.6941 1453.01 25.6709C1461.58 20.8357 1469.75 14.6843 1477.22 7.21661C1484.68 -0.25106 1490.84 -8.41717 1495.67 -16.9862C1500.72 -25.9044 1504.43 -35.4404 1506.82 -45.2183L1523.61 -41.1621L1523.58 -41.1352Z" fill="#E7C8FF"/>
<path d="M1494.46 -48.9797C1492.37 -40.2226 1489.09 -31.6805 1484.58 -23.595C1480.17 -15.7513 1474.69 -8.41791 1468.14 -1.86355C1461.58 4.6908 1454.25 10.1707 1446.4 14.5492C1438.35 19.0889 1429.78 22.393 1421.05 24.4613L1417.07 7.61877C1424.3 5.8996 1431.36 3.18653 1437.97 -0.520447C1444.34 -4.06625 1450.38 -8.60594 1455.89 -14.1127C1461.39 -19.6194 1465.93 -25.6634 1469.48 -32.0029C1473.19 -38.6378 1475.9 -45.7025 1477.62 -52.9553L1494.46 -48.9797Z" fill="#E7C8FF"/>
<path d="M1660.12 190.12C1628.99 221.254 1588.16 236.834 1547.33 236.834C1506.52 236.834 1465.67 221.254 1434.53 190.12C1429.11 184.641 1424.08 178.838 1419.54 172.768C1414.9 166.562 1410.79 160.115 1407.19 153.507L1422.34 145.261C1425.56 151.197 1429.24 156.946 1433.35 162.426C1437.35 167.771 1441.81 172.956 1446.75 177.871C1474.56 205.647 1510.95 219.508 1547.33 219.508C1583.72 219.508 1620.1 205.62 1647.87 177.871L1660.12 190.12Z" fill="#E7C8FF"/>
<path d="M1638.79 168.792C1613.54 194.043 1580.45 206.668 1547.33 206.668C1514.23 206.668 1481.14 194.043 1455.86 168.792C1447.45 160.384 1440.39 150.983 1434.69 140.909C1428.84 130.568 1424.54 119.635 1421.77 108.46L1438.56 104.323C1440.98 114.101 1444.69 123.557 1449.71 132.448C1454.54 140.99 1460.67 149.102 1468.11 156.516C1489.98 178.382 1518.66 189.315 1547.33 189.315C1575.99 189.315 1604.65 178.382 1626.54 156.516L1638.79 168.765V168.792Z" fill="#E7C8FF"/>
</g>
</svg>
