<svg width="308" height="276" viewBox="0 0 308 276" fill="none" xmlns="http://www.w3.org/2000/svg">
<path d="M160.986 275.703C209.449 275.703 248.737 270.344 248.737 263.732C248.737 257.121 209.449 251.762 160.986 251.762C112.522 251.762 73.2344 257.121 73.2344 263.732C73.2344 270.344 112.522 275.703 160.986 275.703Z" fill="#EBEBEB"/>
<path d="M109.526 252.826C109.526 257.521 88.547 261.333 62.6705 261.333C36.7941 261.333 15.8154 257.521 15.8154 252.826C15.8154 248.131 36.7941 244.319 62.6705 244.319C88.547 244.319 109.526 248.144 109.526 252.826Z" fill="#EBEBEB"/>
<path d="M242.594 165.006H222.2V228.02H242.594V165.006Z" fill="#F66D1D"/>
<g opacity="0.1">
<path opacity="0.1" d="M242.587 165.006H237.921V228.02H242.587V165.006Z" fill="black"/>
</g>
<path d="M269.457 144.502H249.063V228.014H269.457V144.502Z" fill="#F66D1D"/>
<g opacity="0.1">
<path opacity="0.1" d="M269.457 144.502H264.791V228.014H269.457V144.502Z" fill="black"/>
</g>
<path d="M215.786 177.222H195.393V228.021H215.786V177.222Z" fill="#F66D1D"/>
<g opacity="0.1">
<path opacity="0.1" d="M215.779 177.222H211.112V228.021H215.779V177.222Z" fill="black"/>
</g>
<path d="M296.326 117.207H275.933V228.014H296.326V117.207Z" fill="#F66D1D"/>
<g opacity="0.1">
<path opacity="0.1" d="M296.32 117.207H291.653V228.014H296.32V117.207Z" fill="black"/>
</g>
<path d="M195.393 195.21V185.439C195.393 185.439 264.777 179.834 292.83 106.939H295.803C295.803 106.939 276.994 182.356 195.393 195.21Z" fill="#C7C7C7"/>
<path d="M298.218 110.073L289.449 107.319L296.714 100.457L298.218 110.073Z" fill="#C7C7C7"/>
<path d="M0 228.014L38.5017 227.859L77.0034 227.801L154 227.698L230.997 227.801L269.498 227.859L308 228.014L269.498 228.175L230.997 228.233L154 228.336L77.0034 228.233L38.5017 228.175L0 228.014Z" fill="#263238"/>
<path d="M221.922 255.038H179.08V264.016H221.922V255.038Z" fill="#F6D31D"/>
<g opacity="0.1">
<path opacity="0.1" d="M180.849 255.883C181.303 258.257 181.303 260.688 180.849 263.062C180.395 260.688 180.395 258.257 180.849 255.883Z" fill="black"/>
<path opacity="0.1" d="M184.039 255.883C184.493 258.257 184.493 260.688 184.039 263.062C183.586 260.688 183.586 258.257 184.039 255.883Z" fill="black"/>
<path opacity="0.1" d="M185.596 255.883C186.05 258.257 186.05 260.688 185.596 263.062C185.351 261.879 185.237 260.675 185.256 259.469C185.241 258.266 185.355 257.065 185.596 255.883Z" fill="black"/>
<path opacity="0.1" d="M194.133 255.883C194.587 258.257 194.587 260.688 194.133 263.062C193.68 260.688 193.68 258.257 194.133 255.883Z" fill="black"/>
<path opacity="0.1" d="M196.467 255.883C196.705 257.065 196.819 258.266 196.807 259.469C196.822 260.675 196.708 261.878 196.467 263.062C196.222 261.879 196.108 260.675 196.127 259.469C196.112 258.266 196.226 257.065 196.467 255.883Z" fill="black"/>
<path opacity="0.1" d="M206.038 255.883C206.276 257.065 206.39 258.266 206.378 259.469C206.394 260.675 206.28 261.878 206.038 263.062C205.794 261.879 205.68 260.675 205.698 259.469C205.687 258.266 205.8 257.065 206.038 255.883Z" fill="black"/>
<path opacity="0.1" d="M208.249 255.883C208.487 257.065 208.601 258.266 208.589 259.469C208.607 260.675 208.493 261.879 208.249 263.062C208.007 261.878 207.893 260.675 207.909 259.469C207.897 258.266 208.011 257.065 208.249 255.883Z" fill="black"/>
<path opacity="0.1" d="M212.31 255.883C212.548 257.065 212.662 258.266 212.65 259.469C212.665 260.675 212.551 261.878 212.31 263.062C212.065 261.879 211.951 260.675 211.97 259.469C211.958 258.266 212.072 257.065 212.31 255.883Z" fill="black"/>
<path opacity="0.1" d="M204.187 255.883C204.428 257.065 204.542 258.266 204.527 259.469C204.546 260.675 204.432 261.879 204.187 263.062C203.946 261.878 203.832 260.675 203.847 259.469C203.835 258.266 203.949 257.065 204.187 255.883Z" fill="black"/>
<path opacity="0.1" d="M188.426 255.883C188.87 258.258 188.87 260.688 188.426 263.062C187.973 260.688 187.973 258.257 188.426 255.883Z" fill="black"/>
<path opacity="0.1" d="M199.514 255.883C199.967 258.257 199.967 260.688 199.514 263.062C199.06 260.688 199.06 258.257 199.514 255.883Z" fill="black"/>
<path opacity="0.1" d="M201.106 255.883C201.347 257.065 201.461 258.266 201.446 259.469C201.465 260.675 201.351 261.879 201.106 263.062C200.865 261.878 200.751 260.675 200.766 259.469C200.754 258.266 200.868 257.065 201.106 255.883Z" fill="black"/>
<path opacity="0.1" d="M217.602 255.883C217.844 257.065 217.958 258.266 217.942 259.469C217.961 260.675 217.847 261.879 217.602 263.062C217.361 261.878 217.247 260.675 217.262 259.469C217.25 258.266 217.364 257.065 217.602 255.883Z" fill="black"/>
<path opacity="0.1" d="M219.983 255.883C220.221 257.065 220.334 258.266 220.323 259.469C220.338 260.675 220.224 261.878 219.983 263.062C219.738 261.879 219.624 260.675 219.643 259.469C219.627 258.266 219.741 257.065 219.983 255.883Z" fill="black"/>
<path opacity="0.1" d="M214.194 255.883C214.435 257.065 214.549 258.266 214.534 259.469C214.553 260.675 214.439 261.879 214.194 263.062C213.953 261.878 213.839 260.675 213.854 259.469C213.842 258.266 213.956 257.065 214.194 255.883Z" fill="black"/>
<path opacity="0.1" d="M192.304 255.883C192.757 258.257 192.757 260.688 192.304 263.062C192.059 261.879 191.945 260.675 191.964 259.469C191.949 258.266 192.063 257.065 192.304 255.883Z" fill="black"/>
</g>
<path opacity="0.1" d="M221.922 255.038V256.948L179.08 258.225V255.038H221.922Z" fill="black"/>
<path d="M218.35 246.067H175.509V255.045H218.35V246.067Z" fill="#F6D31D"/>
<g opacity="0.1">
<path opacity="0.1" d="M216.418 254.071C215.965 251.696 215.965 249.262 216.418 246.886C216.872 249.262 216.872 251.696 216.418 254.071Z" fill="black"/>
<path opacity="0.1" d="M213.228 254.071C212.774 251.696 212.774 249.262 213.228 246.886C213.682 249.262 213.682 251.696 213.228 254.071Z" fill="black"/>
<path opacity="0.1" d="M211.67 254.071C211.432 252.887 211.318 251.684 211.329 250.479C211.314 249.274 211.428 248.07 211.67 246.886C211.914 248.069 212.028 249.273 212.01 250.479C212.025 251.684 211.911 252.888 211.67 254.071Z" fill="black"/>
<path opacity="0.1" d="M203.113 254.071C202.659 251.696 202.659 249.262 203.113 246.886C203.566 249.262 203.566 251.696 203.113 254.071Z" fill="black"/>
<path opacity="0.1" d="M200.799 254.071C200.562 252.887 200.448 251.684 200.459 250.479C200.444 249.274 200.558 248.07 200.799 246.886C201.044 248.069 201.158 249.273 201.14 250.479C201.151 251.684 201.037 252.887 200.799 254.071Z" fill="black"/>
<path opacity="0.1" d="M191.229 254.071C190.991 252.887 190.877 251.684 190.889 250.479C190.87 249.273 190.984 248.069 191.229 246.886C191.474 248.069 191.588 249.273 191.569 250.479C191.58 251.684 191.466 252.887 191.229 254.071Z" fill="black"/>
<path opacity="0.1" d="M189.018 254.071C188.777 252.888 188.663 251.684 188.678 250.479C188.659 249.273 188.773 248.069 189.018 246.886C189.259 248.07 189.373 249.274 189.358 250.479C189.369 251.684 189.255 252.887 189.018 254.071Z" fill="black"/>
<path opacity="0.1" d="M184.957 254.071C184.72 252.887 184.606 251.684 184.617 250.479C184.599 249.273 184.713 248.069 184.957 246.886C185.199 248.07 185.313 249.274 185.297 250.479C185.309 251.684 185.195 252.887 184.957 254.071Z" fill="black"/>
<path opacity="0.1" d="M193.079 254.071C192.838 252.888 192.724 251.684 192.739 250.479C192.721 249.273 192.835 248.069 193.079 246.886C193.533 249.262 193.533 251.696 193.079 254.071Z" fill="black"/>
<path opacity="0.1" d="M208.84 254.071C208.387 251.696 208.387 249.262 208.84 246.886C209.294 249.262 209.294 251.696 208.84 254.071Z" fill="black"/>
<path opacity="0.1" d="M197.752 254.071C197.299 251.696 197.299 249.262 197.752 246.886C198.206 249.262 198.206 251.696 197.752 254.071Z" fill="black"/>
<path opacity="0.1" d="M196.174 254.071C195.933 252.888 195.819 251.684 195.834 250.479C195.815 249.273 195.929 248.069 196.174 246.886C196.628 249.262 196.628 251.696 196.174 254.071Z" fill="black"/>
<path opacity="0.1" d="M179.664 254.071C179.423 252.888 179.309 251.684 179.324 250.479C179.306 249.273 179.42 248.069 179.664 246.886C180.118 249.262 180.118 251.696 179.664 254.071Z" fill="black"/>
<path opacity="0.1" d="M177.271 254.071C177.034 252.887 176.92 251.684 176.931 250.479C176.916 249.274 177.03 248.07 177.271 246.887C177.516 248.07 177.63 249.274 177.611 250.479C177.626 251.684 177.512 252.888 177.271 254.071Z" fill="black"/>
<path opacity="0.1" d="M183.073 254.071C182.832 252.888 182.718 251.684 182.732 250.479C182.714 249.273 182.828 248.069 183.073 246.886C183.526 249.262 183.526 251.696 183.073 254.071Z" fill="black"/>
<path opacity="0.1" d="M204.963 254.071C204.725 252.887 204.611 251.684 204.622 250.479C204.607 249.274 204.721 248.07 204.963 246.886C205.207 248.069 205.321 249.273 205.303 250.479C205.318 251.684 205.204 252.888 204.963 254.071Z" fill="black"/>
</g>
<path opacity="0.1" d="M218.344 246.067V247.97L175.502 249.253V246.067H218.344Z" fill="black"/>
<path d="M221.65 237.16H178.809V246.138H221.65V237.16Z" fill="#F6D31D"/>
<g opacity="0.1">
<path opacity="0.1" d="M180.571 237.986C181.024 240.359 181.024 242.791 180.571 245.164C180.117 242.791 180.117 240.359 180.571 237.986Z" fill="black"/>
<path opacity="0.1" d="M183.761 237.986C184.214 240.359 184.214 242.791 183.761 245.164C183.308 242.791 183.308 240.359 183.761 237.986Z" fill="black"/>
<path opacity="0.1" d="M185.325 237.986C185.77 240.36 185.77 242.79 185.325 245.164C184.872 242.791 184.872 240.359 185.325 237.986Z" fill="black"/>
<path opacity="0.1" d="M193.876 237.986C194.33 240.359 194.33 242.791 193.876 245.164C193.423 242.791 193.423 240.359 193.876 237.986Z" fill="black"/>
<path opacity="0.1" d="M196.176 237.986C196.63 240.359 196.63 242.791 196.176 245.164C195.723 242.791 195.723 240.359 196.176 237.986Z" fill="black"/>
<path opacity="0.1" d="M205.767 237.986C206.22 240.359 206.22 242.791 205.767 245.164C205.313 242.791 205.313 240.359 205.767 237.986Z" fill="black"/>
<path opacity="0.1" d="M207.977 237.986C208.43 240.359 208.43 242.791 207.977 245.164C207.523 242.791 207.523 240.359 207.977 237.986Z" fill="black"/>
<path opacity="0.1" d="M212.038 237.986C212.492 240.359 212.492 242.791 212.038 245.164C211.585 242.791 211.585 240.359 212.038 237.986Z" fill="black"/>
<path opacity="0.1" d="M203.916 237.986C204.37 240.359 204.37 242.791 203.916 245.164C203.672 243.983 203.558 242.782 203.576 241.578C203.561 240.373 203.675 239.169 203.916 237.986Z" fill="black"/>
<path opacity="0.1" d="M188.149 237.986C188.39 239.169 188.504 240.373 188.489 241.578C188.507 242.782 188.393 243.983 188.149 245.164C187.695 242.791 187.695 240.359 188.149 237.986Z" fill="black"/>
<path opacity="0.1" d="M199.237 237.986C199.69 240.359 199.69 242.791 199.237 245.164C198.783 242.791 198.783 240.359 199.237 237.986Z" fill="black"/>
<path opacity="0.1" d="M200.835 237.986C201.289 240.359 201.289 242.791 200.835 245.164C200.591 243.983 200.477 242.782 200.495 241.578C200.48 240.373 200.594 239.169 200.835 237.986Z" fill="black"/>
<path opacity="0.1" d="M217.331 237.986C217.785 240.359 217.785 242.791 217.331 245.164C216.878 242.791 216.878 240.359 217.331 237.986Z" fill="black"/>
<path opacity="0.1" d="M219.726 237.986C220.179 240.359 220.179 242.791 219.726 245.164C219.272 242.791 219.272 240.359 219.726 237.986Z" fill="black"/>
<path opacity="0.1" d="M213.923 237.986C214.377 240.359 214.377 242.791 213.923 245.164C213.679 243.983 213.564 242.782 213.583 241.578C213.568 240.373 213.682 239.169 213.923 237.986Z" fill="black"/>
<path opacity="0.1" d="M192.027 237.986C192.48 240.359 192.48 242.791 192.027 245.164C191.582 242.79 191.582 240.36 192.027 237.986Z" fill="black"/>
</g>
<path opacity="0.1" d="M221.643 237.16V239.069L178.809 240.353V237.16H221.643Z" fill="black"/>
<path d="M94.2742 244.022H51.4326V253H94.2742V244.022Z" fill="#F6D31D"/>
<g opacity="0.1">
<path opacity="0.1" d="M53.2025 244.842C53.656 247.217 53.656 249.651 53.2025 252.027C52.7489 249.651 52.7489 247.217 53.2025 244.842Z" fill="black"/>
<path opacity="0.1" d="M56.3929 244.842C56.8465 247.217 56.8465 249.651 56.3929 252.027C55.9393 249.651 55.9393 247.217 56.3929 244.842Z" fill="black"/>
<path opacity="0.1" d="M57.9515 244.842C58.4051 247.217 58.4051 249.651 57.9515 252.027C57.4979 249.651 57.4979 247.217 57.9515 244.842Z" fill="black"/>
<path opacity="0.1" d="M66.5081 244.842C66.9526 247.218 66.9526 249.65 66.5081 252.027C66.0546 249.651 66.0546 247.217 66.5081 244.842Z" fill="black"/>
<path opacity="0.1" d="M68.8206 244.842C69.2742 247.217 69.2742 249.651 68.8206 252.027C68.5759 250.844 68.4619 249.64 68.4805 248.434C68.4656 247.229 68.5796 246.025 68.8206 244.842Z" fill="black"/>
<path opacity="0.1" d="M78.3919 244.842C78.8454 247.217 78.8454 249.651 78.3919 252.027C78.1472 250.844 78.0332 249.64 78.0517 248.434C78.0369 247.229 78.1509 246.025 78.3919 244.842Z" fill="black"/>
<path opacity="0.1" d="M80.6028 244.842C80.8404 246.026 80.9544 247.229 80.9429 248.434C80.9581 249.64 80.8441 250.843 80.6028 252.027C80.3581 250.844 80.2442 249.64 80.2627 248.434C80.2513 247.229 80.3652 246.026 80.6028 244.842Z" fill="black"/>
<path opacity="0.1" d="M84.6634 244.842C84.901 246.026 85.0149 247.229 85.0035 248.434C85.0186 249.64 84.9047 250.843 84.6634 252.027C84.4187 250.844 84.3047 249.64 84.3232 248.434C84.3084 247.229 84.4224 246.025 84.6634 244.842Z" fill="black"/>
<path opacity="0.1" d="M76.5417 244.842C76.7793 246.026 76.8932 247.229 76.8818 248.434C76.9003 249.64 76.7863 250.844 76.5417 252.027C76.3003 250.843 76.1864 249.64 76.2015 248.434C76.1901 247.229 76.304 246.026 76.5417 244.842Z" fill="black"/>
<path opacity="0.1" d="M60.807 244.842C61.2589 247.213 61.2589 249.642 60.807 252.014C60.3534 249.638 60.3534 247.204 60.807 244.829V244.842Z" fill="black"/>
<path opacity="0.1" d="M71.8685 244.842C72.3129 247.218 72.3129 249.65 71.8685 252.027C71.4149 249.651 71.4149 247.217 71.8685 244.842Z" fill="black"/>
<path opacity="0.1" d="M73.4596 244.842C73.6972 246.026 73.8112 247.229 73.7997 248.434C73.8183 249.64 73.7043 250.844 73.4596 252.027C73.2183 250.843 73.1043 249.64 73.1195 248.434C73.1081 247.229 73.222 246.026 73.4596 244.842Z" fill="black"/>
<path opacity="0.1" d="M89.9563 244.842C90.1939 246.026 90.3078 247.229 90.2964 248.434C90.3149 249.64 90.2009 250.844 89.9563 252.027C89.7117 250.844 89.5977 249.64 89.6162 248.434C89.6048 247.229 89.7187 246.026 89.9563 244.842Z" fill="black"/>
<path opacity="0.1" d="M92.3499 244.842C92.8035 247.217 92.8035 249.651 92.3499 252.027C91.8964 249.651 91.8964 247.217 92.3499 244.842Z" fill="black"/>
<path opacity="0.1" d="M86.5475 244.842C86.7851 246.026 86.8991 247.229 86.8876 248.434C86.9062 249.64 86.7922 250.844 86.5475 252.027C86.3062 250.843 86.1922 249.64 86.2074 248.434C86.196 247.229 86.3099 246.026 86.5475 244.842Z" fill="black"/>
<path opacity="0.1" d="M64.6575 244.842C65.111 247.217 65.111 249.651 64.6575 252.027C64.204 249.651 64.204 247.217 64.6575 244.842Z" fill="black"/>
</g>
<path opacity="0.1" d="M94.2675 244.022V245.931L51.4326 247.209V244.022H94.2675Z" fill="black"/>
<path d="M91.3426 235.044H48.501V244.022H91.3426V235.044Z" fill="#F6D31D"/>
<g opacity="0.1">
<path opacity="0.1" d="M50.2698 235.889C50.7233 238.263 50.7233 240.694 50.2698 243.068C50.0252 241.887 49.9112 240.685 49.9297 239.482C49.9142 238.276 50.0282 237.073 50.2698 235.889Z" fill="black"/>
<path opacity="0.1" d="M53.4612 235.889C53.9147 238.263 53.9147 240.694 53.4612 243.068C53.2166 241.887 53.1026 240.685 53.1211 239.482C53.1056 238.276 53.2196 237.073 53.4612 235.889Z" fill="black"/>
<path opacity="0.1" d="M55.0188 235.889C55.257 237.073 55.3709 238.277 55.3589 239.482C55.3774 240.685 55.2634 241.887 55.0188 243.068C54.7742 241.887 54.6602 240.685 54.6787 239.482C54.6667 238.277 54.7806 237.073 55.0188 235.889Z" fill="black"/>
<path opacity="0.1" d="M63.5755 235.889C64.0289 238.263 64.0289 240.694 63.5755 243.068C63.122 240.694 63.122 238.263 63.5755 235.889Z" fill="black"/>
<path opacity="0.1" d="M65.8883 235.889C66.1299 237.073 66.2439 238.276 66.2285 239.482C66.247 240.685 66.133 241.887 65.8883 243.068C65.647 241.887 65.5331 240.685 65.5482 239.482C65.5362 238.277 65.6501 237.073 65.8883 235.889Z" fill="black"/>
<path opacity="0.1" d="M75.4597 235.889C75.7013 237.073 75.8153 238.276 75.7998 239.482C75.8183 240.685 75.7043 241.887 75.4597 243.068C75.2183 241.887 75.1044 240.685 75.1195 239.482C75.1074 238.277 75.2214 237.073 75.4597 235.889Z" fill="black"/>
<path opacity="0.1" d="M77.6712 235.889C78.1247 238.263 78.1247 240.694 77.6712 243.068C77.2177 240.694 77.2177 238.263 77.6712 235.889Z" fill="black"/>
<path opacity="0.1" d="M81.7317 235.889C81.9733 237.073 82.0873 238.276 82.0718 239.482C82.0903 240.685 81.9764 241.887 81.7317 243.068C81.2782 240.694 81.2782 238.263 81.7317 235.889Z" fill="black"/>
<path opacity="0.1" d="M73.6096 235.889C74.0631 238.263 74.0631 240.694 73.6096 243.068C73.1562 240.694 73.1562 238.263 73.6096 235.889Z" fill="black"/>
<path opacity="0.1" d="M57.8489 235.889C58.3023 238.263 58.3023 240.694 57.8489 243.068C57.3954 240.694 57.3954 238.263 57.8489 235.889Z" fill="black"/>
<path opacity="0.1" d="M68.97 235.889C69.4235 238.263 69.4235 240.694 68.97 243.068C68.7254 241.887 68.6114 240.685 68.6299 239.482C68.6144 238.276 68.7284 237.073 68.97 235.889Z" fill="black"/>
<path opacity="0.1" d="M70.5276 235.889C70.9811 238.263 70.9811 240.694 70.5276 243.068C70.0741 240.694 70.0741 238.263 70.5276 235.889Z" fill="black"/>
<path opacity="0.1" d="M87.0237 235.889C87.4772 238.263 87.4772 240.694 87.0237 243.068C86.5702 240.694 86.5702 238.263 87.0237 235.889Z" fill="black"/>
<path opacity="0.1" d="M89.4176 235.889C89.6559 237.073 89.7698 238.277 89.7578 239.482C89.7763 240.685 89.6623 241.887 89.4176 243.068C89.1763 241.887 89.0624 240.685 89.0775 239.482C89.0655 238.277 89.1794 237.073 89.4176 235.889Z" fill="black"/>
<path opacity="0.1" d="M83.6155 235.889C84.069 238.263 84.069 240.694 83.6155 243.068C83.162 240.694 83.162 238.263 83.6155 235.889Z" fill="black"/>
<path opacity="0.1" d="M61.7259 235.889C61.9641 237.073 62.078 238.277 62.066 239.482C62.0811 240.685 61.9671 241.887 61.7259 243.068C61.4812 241.887 61.3672 240.685 61.3857 239.482C61.3737 238.277 61.4876 237.073 61.7259 235.889Z" fill="black"/>
</g>
<path opacity="0.1" d="M91.3426 235.044V236.953L48.501 238.237V235.044H91.3426Z" fill="black"/>
<path d="M97.9618 217.172H55.1201V226.15H97.9618V217.172Z" fill="#F6D31D"/>
<g opacity="0.1">
<path opacity="0.1" d="M56.8889 217.991C57.3424 220.365 57.3424 222.797 56.8889 225.17C56.4355 222.797 56.4355 220.365 56.8889 217.991Z" fill="black"/>
<path opacity="0.1" d="M60.0784 217.991C60.5319 220.365 60.5319 222.797 60.0784 225.17C59.6249 222.797 59.6249 220.365 60.0784 217.991Z" fill="black"/>
<path opacity="0.1" d="M61.637 217.991C61.8749 219.175 61.9888 220.379 61.9771 221.584C61.9922 222.787 61.8783 223.989 61.637 225.17C61.3924 223.989 61.2784 222.787 61.2969 221.584C61.2851 220.379 61.3991 219.175 61.637 217.991Z" fill="black"/>
<path opacity="0.1" d="M70.1946 217.991C70.6481 220.365 70.6481 222.797 70.1946 225.17C69.7411 222.797 69.7411 220.365 70.1946 217.991Z" fill="black"/>
<path opacity="0.1" d="M72.5065 217.991C72.7444 219.175 72.8584 220.379 72.8466 221.584C72.8651 222.787 72.7511 223.989 72.5065 225.17C72.2652 223.989 72.1512 222.787 72.1664 221.584C72.1546 220.379 72.2686 219.175 72.5065 217.991Z" fill="black"/>
<path opacity="0.1" d="M82.0778 217.991C82.3191 219.175 82.4331 220.379 82.4179 221.584C82.4364 222.787 82.3224 223.989 82.0778 225.17C81.8365 223.989 81.7225 222.787 81.7377 221.584C81.7259 220.379 81.8399 219.175 82.0778 217.991Z" fill="black"/>
<path opacity="0.1" d="M84.2883 217.991C84.5296 219.175 84.6435 220.379 84.6283 221.584C84.6468 222.787 84.5329 223.989 84.2883 225.17C83.8349 222.797 83.8349 220.365 84.2883 217.991Z" fill="black"/>
<path opacity="0.1" d="M88.3502 217.991C88.5916 219.175 88.7055 220.379 88.6904 221.584C88.7089 222.787 88.5949 223.989 88.3502 225.17C88.109 223.989 87.995 222.787 88.0101 221.584C87.9984 220.379 88.1123 219.175 88.3502 217.991Z" fill="black"/>
<path opacity="0.1" d="M80.2278 217.991C80.6813 220.365 80.6813 222.797 80.2278 225.17C79.7743 222.797 79.7743 220.365 80.2278 217.991Z" fill="black"/>
<path opacity="0.1" d="M64.467 217.991C64.9204 220.365 64.9204 222.797 64.467 225.17C64.0136 222.797 64.0136 220.365 64.467 217.991Z" fill="black"/>
<path opacity="0.1" d="M75.5549 217.991C76.0084 220.365 76.0084 222.797 75.5549 225.17C75.1015 222.797 75.1015 220.365 75.5549 217.991Z" fill="black"/>
<path opacity="0.1" d="M77.1321 217.991C77.5856 220.365 77.5856 222.797 77.1321 225.17C76.6786 222.797 76.6786 220.365 77.1321 217.991Z" fill="black"/>
<path opacity="0.1" d="M93.6428 217.991C94.0963 220.365 94.0963 222.797 93.6428 225.17C93.1894 222.797 93.1894 220.365 93.6428 217.991Z" fill="black"/>
<path opacity="0.1" d="M96.0374 217.991C96.2753 219.175 96.3893 220.379 96.3775 221.584C96.396 222.787 96.282 223.989 96.0374 225.17C95.7927 223.989 95.6788 222.787 95.6973 221.584C95.6855 220.379 95.7995 219.175 96.0374 217.991Z" fill="black"/>
<path opacity="0.1" d="M90.2346 217.991C90.6881 220.365 90.6881 222.797 90.2346 225.17C89.7812 222.797 89.7812 220.365 90.2346 217.991Z" fill="black"/>
<path opacity="0.1" d="M68.344 217.991C68.5819 219.175 68.6958 220.379 68.6841 221.584C68.6992 222.787 68.5852 223.989 68.344 225.17C68.0994 223.989 67.9854 222.787 68.0039 221.584C67.9887 220.379 68.1027 219.175 68.344 217.991Z" fill="black"/>
</g>
<path opacity="0.1" d="M97.9618 217.172V219.074L55.1201 220.358V217.172H97.9618Z" fill="black"/>
<path d="M96.8798 208.194H54.0381V217.172H96.8798V208.194Z" fill="#F6D31D"/>
<g opacity="0.1">
<path opacity="0.1" d="M94.9543 216.198C94.7164 215.014 94.6024 213.811 94.6142 212.606C94.5961 211.4 94.7101 210.196 94.9543 209.013C95.1986 210.196 95.3125 211.4 95.2945 212.606C95.3062 213.811 95.1923 215.014 94.9543 216.198Z" fill="black"/>
<path opacity="0.1" d="M91.7638 216.198C91.5259 215.014 91.412 213.811 91.4237 212.606C91.4057 211.4 91.5196 210.196 91.7638 209.013C92.008 210.196 92.122 211.4 92.1039 212.606C92.1156 213.811 92.0017 215.014 91.7638 216.198Z" fill="black"/>
<path opacity="0.1" d="M90.2062 216.198C89.9649 215.015 89.851 213.811 89.8661 212.606C89.848 211.4 89.962 210.196 90.2062 209.013C90.6598 211.389 90.6598 213.822 90.2062 216.198Z" fill="black"/>
<path opacity="0.1" d="M81.649 216.198C81.4111 215.014 81.2972 213.811 81.3089 212.606C81.2941 211.4 81.408 210.197 81.649 209.013C81.8932 210.196 82.0072 211.4 81.9891 212.606C82.0009 213.811 81.8869 215.014 81.649 216.198Z" fill="black"/>
<path opacity="0.1" d="M79.3353 216.198C78.8817 213.822 78.8817 211.389 79.3353 209.013C79.7889 211.389 79.7889 213.822 79.3353 216.198Z" fill="black"/>
<path opacity="0.1" d="M69.7649 216.198C69.3114 213.822 69.3114 211.389 69.7649 209.013C70.2185 211.389 70.2185 213.822 69.7649 216.198Z" fill="black"/>
<path opacity="0.1" d="M67.554 216.198C67.1005 213.822 67.1005 211.389 67.554 209.013C68.0076 211.389 68.0076 213.822 67.554 216.198Z" fill="black"/>
<path opacity="0.1" d="M63.5277 216.198C63.0741 213.822 63.0741 211.389 63.5277 209.013C63.9812 211.389 63.9812 213.822 63.5277 216.198Z" fill="black"/>
<path opacity="0.1" d="M71.6156 216.198C71.162 213.822 71.162 211.389 71.6156 209.013C72.06 211.39 72.06 213.822 71.6156 216.198Z" fill="black"/>
<path opacity="0.1" d="M87.3766 216.198C87.1386 215.014 87.0247 213.811 87.0364 212.606C87.0216 211.4 87.1356 210.197 87.3766 209.013C87.6208 210.196 87.7348 211.4 87.7167 212.606C87.7318 213.811 87.6179 215.015 87.3766 216.198Z" fill="black"/>
<path opacity="0.1" d="M76.2887 216.198C76.0507 215.014 75.9368 213.811 75.9485 212.606C75.9337 211.4 76.0477 210.197 76.2887 209.013C76.5329 210.196 76.6469 211.4 76.6288 212.606C76.6405 213.811 76.5266 215.014 76.2887 216.198Z" fill="black"/>
<path opacity="0.1" d="M74.6966 216.198C74.2431 213.822 74.2431 211.389 74.6966 209.013C75.1411 211.39 75.1411 213.822 74.6966 216.198Z" fill="black"/>
<path opacity="0.1" d="M58.2005 216.198C57.747 213.822 57.747 211.389 58.2005 209.013C58.6541 211.389 58.6541 213.822 58.2005 216.198Z" fill="black"/>
<path opacity="0.1" d="M55.8069 216.198C55.3534 213.822 55.3534 211.389 55.8069 209.013C56.2605 211.389 56.2605 213.822 55.8069 216.198Z" fill="black"/>
<path opacity="0.1" d="M61.6097 216.198C61.1561 213.822 61.1561 211.389 61.6097 209.013C62.0542 211.39 62.0542 213.822 61.6097 216.198Z" fill="black"/>
<path opacity="0.1" d="M83.4992 216.198C83.2579 215.015 83.1439 213.811 83.1591 212.606C83.141 211.4 83.255 210.196 83.4992 209.013C83.9528 211.389 83.9528 213.822 83.4992 216.198Z" fill="black"/>
</g>
<path opacity="0.1" d="M96.8798 208.194V210.103L54.0381 211.38V208.194H96.8798Z" fill="black"/>
<path d="M94.2742 199.216H51.4326V208.194H94.2742V199.216Z" fill="#F6D31D"/>
<g opacity="0.1">
<path opacity="0.1" d="M53.2015 200.041C53.655 202.415 53.655 204.846 53.2015 207.22C52.7479 204.846 52.7479 202.415 53.2015 200.041Z" fill="black"/>
<path opacity="0.1" d="M56.3919 200.041C56.8453 202.415 56.8453 204.846 56.3919 207.22C55.9384 204.846 55.9384 202.415 56.3919 200.041Z" fill="black"/>
<path opacity="0.1" d="M57.9495 200.041C58.1877 201.225 58.3017 202.429 58.2896 203.634C58.3047 204.837 58.1908 206.039 57.9495 207.22C57.7049 206.039 57.5909 204.837 57.6094 203.634C57.5939 202.428 57.7079 201.225 57.9495 200.041Z" fill="black"/>
<path opacity="0.1" d="M66.508 200.041C66.9615 202.415 66.9615 204.846 66.508 207.22C66.0546 204.846 66.0546 202.415 66.508 200.041Z" fill="black"/>
<path opacity="0.1" d="M68.8206 200.041C69.0588 201.225 69.1728 202.429 69.1607 203.634C69.1758 204.837 69.0619 206.039 68.8206 207.22C68.5759 206.039 68.462 204.837 68.4805 203.634C68.4684 202.429 68.5823 201.225 68.8206 200.041Z" fill="black"/>
<path opacity="0.1" d="M78.3919 200.041C78.6301 201.225 78.744 202.429 78.732 203.634C78.7471 204.837 78.6332 206.039 78.3919 207.22C78.1472 206.039 78.0332 204.837 78.0517 203.634C78.0397 202.429 78.1536 201.225 78.3919 200.041Z" fill="black"/>
<path opacity="0.1" d="M80.6022 200.041C80.8438 201.225 80.9578 202.428 80.9423 203.634C80.9608 204.837 80.8468 206.039 80.6022 207.22C80.3609 206.039 80.247 204.837 80.2621 203.634C80.25 202.429 80.364 201.225 80.6022 200.041Z" fill="black"/>
<path opacity="0.1" d="M84.6637 200.041C84.902 201.225 85.0159 202.429 85.0038 203.634C85.0223 204.837 84.9084 206.039 84.6637 207.22C84.4224 206.039 84.3085 204.837 84.3236 203.634C84.3115 202.429 84.4255 201.225 84.6637 200.041Z" fill="black"/>
<path opacity="0.1" d="M76.5413 200.041C76.7828 201.225 76.8968 202.428 76.8813 203.634C76.8998 204.837 76.7859 206.039 76.5413 207.22C76.0878 204.846 76.0878 202.415 76.5413 200.041Z" fill="black"/>
<path opacity="0.1" d="M60.8069 200.041C61.2604 202.415 61.2604 204.846 60.8069 207.22C60.3534 204.846 60.3534 202.415 60.8069 200.041Z" fill="black"/>
<path opacity="0.1" d="M71.8684 200.041C72.3218 202.415 72.3218 204.846 71.8684 207.22C71.415 204.846 71.415 202.415 71.8684 200.041Z" fill="black"/>
<path opacity="0.1" d="M73.4602 200.041C73.7018 201.225 73.8158 202.428 73.8004 203.634C73.8189 204.837 73.7049 206.039 73.4602 207.22C73.0067 204.846 73.0067 202.415 73.4602 200.041Z" fill="black"/>
<path opacity="0.1" d="M89.9557 200.041C90.1973 201.225 90.3113 202.428 90.2958 203.634C90.3143 204.837 90.2003 206.039 89.9557 207.22C89.7144 206.039 89.6005 204.837 89.6156 203.634C89.6035 202.429 89.7175 201.225 89.9557 200.041Z" fill="black"/>
<path opacity="0.1" d="M92.3509 200.041C92.5891 201.225 92.703 202.429 92.691 203.634C92.7061 204.837 92.5921 206.039 92.3509 207.22C92.1062 206.039 91.9922 204.837 92.0107 203.634C91.9953 202.428 92.1093 201.225 92.3509 200.041Z" fill="black"/>
<path opacity="0.1" d="M86.5471 200.041C86.7888 201.225 86.9027 202.428 86.8873 203.634C86.9058 204.837 86.7918 206.039 86.5471 207.22C86.0937 204.846 86.0937 202.415 86.5471 200.041Z" fill="black"/>
<path opacity="0.1" d="M64.6575 200.041C65.111 202.415 65.111 204.846 64.6575 207.22C64.4129 206.039 64.2989 204.837 64.3174 203.634C64.3019 202.428 64.4159 201.225 64.6575 200.041Z" fill="black"/>
</g>
<path opacity="0.1" d="M94.2742 199.216V201.125L51.4326 202.409V199.216H94.2742Z" fill="black"/>
<path d="M94.2742 226.144H51.4326V235.122H94.2742V226.144Z" fill="#F6D31D"/>
<g opacity="0.1">
<path opacity="0.1" d="M92.3509 234.148C92.1093 232.964 91.9953 231.76 92.0107 230.555C91.9922 229.352 92.1062 228.15 92.3509 226.969C92.8043 229.343 92.8043 231.774 92.3509 234.148Z" fill="black"/>
<path opacity="0.1" d="M89.1594 234.148C88.9178 232.964 88.8039 231.76 88.8193 230.555C88.8008 229.352 88.9148 228.15 89.1594 226.969C89.6129 229.343 89.6129 231.774 89.1594 234.148Z" fill="black"/>
<path opacity="0.1" d="M87.6018 234.148C87.1484 231.774 87.1484 229.343 87.6018 226.969C88.0553 229.343 88.0553 231.774 87.6018 234.148Z" fill="black"/>
<path opacity="0.1" d="M79.0442 234.148C78.8026 232.964 78.6886 231.76 78.7041 230.555C78.6856 229.352 78.7996 228.15 79.0442 226.969C79.2855 228.15 79.3995 229.352 79.3843 230.555C79.3964 231.76 79.2825 232.964 79.0442 234.148Z" fill="black"/>
<path opacity="0.1" d="M76.7317 234.148C76.2782 231.774 76.2782 229.343 76.7317 226.969C77.1852 229.343 77.1852 231.774 76.7317 234.148Z" fill="black"/>
<path opacity="0.1" d="M67.1604 234.148C66.7069 231.774 66.7069 229.343 67.1604 226.969C67.6048 229.343 67.6048 231.773 67.1604 234.148Z" fill="black"/>
<path opacity="0.1" d="M64.9436 234.148C64.4901 231.774 64.4901 229.343 64.9436 226.969C65.3971 229.343 65.3971 231.774 64.9436 234.148Z" fill="black"/>
<path opacity="0.1" d="M60.8821 234.148C60.4377 231.773 60.4377 229.343 60.8821 226.969C61.3356 229.343 61.3356 231.774 60.8821 234.148Z" fill="black"/>
<path opacity="0.1" d="M69.0042 234.148C68.5507 231.774 68.5507 229.343 69.0042 226.969C69.4577 229.343 69.4577 231.774 69.0042 234.148Z" fill="black"/>
<path opacity="0.1" d="M84.7718 234.148C84.5301 232.964 84.4162 231.76 84.4316 230.555C84.4131 229.352 84.5271 228.15 84.7718 226.969C85.013 228.15 85.127 229.352 85.1119 230.555C85.1239 231.76 85.01 232.964 84.7718 234.148Z" fill="black"/>
<path opacity="0.1" d="M73.6838 234.148C73.4422 232.964 73.3283 231.76 73.3437 230.555C73.3252 229.352 73.4392 228.15 73.6838 226.969C73.9251 228.15 74.039 229.352 74.0239 230.555C74.036 231.76 73.922 232.964 73.6838 234.148Z" fill="black"/>
<path opacity="0.1" d="M72.0862 234.148C71.6327 231.774 71.6327 229.343 72.0862 226.969C72.5397 229.343 72.5397 231.774 72.0862 234.148Z" fill="black"/>
<path opacity="0.1" d="M55.5891 234.148C55.1357 231.774 55.1357 229.343 55.5891 226.969C56.0426 229.343 56.0426 231.774 55.5891 234.148Z" fill="black"/>
<path opacity="0.1" d="M53.2015 234.148C52.7479 231.774 52.7479 229.343 53.2015 226.969C53.655 229.343 53.655 231.774 53.2015 234.148Z" fill="black"/>
<path opacity="0.1" d="M58.9973 234.148C58.5439 231.774 58.5439 229.343 58.9973 226.969C59.4508 229.343 59.4508 231.774 58.9973 234.148Z" fill="black"/>
<path opacity="0.1" d="M80.8948 234.148C80.4413 231.774 80.4413 229.343 80.8948 226.969C81.3483 229.343 81.3483 231.774 80.8948 234.148Z" fill="black"/>
</g>
<path opacity="0.1" d="M94.2742 226.144V228.053L51.4326 229.336V226.144H94.2742Z" fill="black"/>
<path d="M48.5077 218.475C76.7037 223.274 69.2619 262.881 41.025 258.076C12.7882 253.271 20.2572 213.651 48.5077 218.475Z" fill="#F6D31D"/>
<path opacity="0.1" d="M48.5077 218.475C76.7037 223.274 69.2619 262.881 41.025 258.076C12.7882 253.271 20.2572 213.651 48.5077 218.475Z" fill="black"/>
<path d="M45.8414 218.004C72.7178 222.577 65.2623 262.185 38.3588 257.606C11.4552 253.026 18.9379 213.425 45.8414 218.004Z" fill="#F6D31D"/>
<path opacity="0.1" d="M25.0674 238.734C25.2102 245.796 29.5162 252.659 39.0396 254.239C61.3787 258.038 67.5621 225.163 45.257 221.345C45.1141 221.345 44.9645 221.293 44.8216 221.281C65.7323 225.247 59.7393 256.361 38.4409 252.736C29.7202 251.285 25.5299 245.19 25.0674 238.734Z" fill="black"/>
<g opacity="0.1">
<path opacity="0.1" d="M44.4332 225.48C44.5254 225.497 44.6126 225.533 44.6895 225.585C44.7663 225.636 44.8311 225.702 44.8797 225.778C44.9282 225.855 44.9596 225.94 44.9717 226.028C44.9839 226.117 44.9765 226.207 44.9502 226.292L44.6645 227.382C46.483 227.963 48.0772 229.046 49.2425 230.491C49.3423 230.582 49.416 230.695 49.4565 230.82C49.497 230.946 49.5029 231.079 49.4738 231.207C49.4212 231.39 49.2943 231.545 49.1209 231.64C48.9475 231.734 48.7417 231.759 48.5487 231.71C48.4526 231.693 48.3616 231.656 48.2818 231.603C48.202 231.55 48.1352 231.48 48.0861 231.4C47.1224 230.136 45.7884 229.167 44.2495 228.614L42.2496 236.225C46.3787 238.16 47.8072 240.095 47.0997 242.771C46.3447 245.654 43.2564 247.086 39.6171 246.351L39.0593 248.466C39.0369 248.551 38.9972 248.631 38.9424 248.701C38.8876 248.771 38.8187 248.83 38.7398 248.875C38.6608 248.92 38.5733 248.95 38.4822 248.963C38.3911 248.976 38.2983 248.971 38.209 248.95C38.1196 248.929 38.0356 248.891 37.9616 248.839C37.8876 248.787 37.8251 248.722 37.7778 248.647C37.7304 248.572 37.699 248.489 37.6855 248.403C37.6719 248.317 37.6764 248.229 37.6988 248.144L38.2634 245.996C35.9084 245.259 33.8821 243.794 32.5085 241.836C32.4018 241.724 32.3357 241.583 32.32 241.433C32.3043 241.283 32.3399 241.133 32.4214 241.003C32.503 240.874 32.6262 240.773 32.7729 240.715C32.9197 240.657 33.0821 240.645 33.2364 240.682C33.4299 240.722 33.5987 240.833 33.7058 240.991C34.8463 242.755 36.589 244.095 38.6443 244.79L40.685 237.05C36.6036 235.115 35.2431 233.219 35.9233 230.504C36.6036 227.789 39.7191 226.26 43.236 227.008L43.5081 225.976C43.5242 225.881 43.5628 225.79 43.6211 225.71C43.6793 225.631 43.7557 225.565 43.8446 225.517C43.9335 225.469 44.0325 225.441 44.1344 225.435C44.2363 225.428 44.3384 225.443 44.4332 225.48ZM41.0796 235.657L43.0319 228.234C40.2361 227.634 37.9913 228.775 37.4743 230.73C36.9981 232.581 37.6103 233.955 41.0796 235.657ZM41.9027 237.592L39.93 245.093C42.8142 245.738 45.093 244.584 45.6304 242.513C46.1338 240.662 45.4331 239.282 41.9095 237.612L41.9027 237.592Z" fill="black"/>
</g>
<path d="M209.14 237.276C207.583 237.753 163.115 237.205 161.435 236.16C160.789 235.78 160.496 229.633 160.367 222.19V221.958C160.333 220.423 160.312 218.849 160.312 217.249C160.312 217.024 160.312 216.804 160.312 216.604L162.469 194.733L192.216 195.017L189.277 216.682L189.243 217.54L189.066 222.054V222.512C189.066 222.512 205.991 229.943 207.712 231.271C209.433 232.6 210.705 236.805 209.14 237.276Z" fill="#F7A9A0"/>
<path d="M209.14 237.276C207.583 237.753 163.115 237.205 161.435 236.16C160.789 235.779 160.496 229.633 160.367 222.19V221.958C160.333 220.423 160.312 218.849 160.312 217.249C160.312 217.023 160.312 216.804 160.312 216.604L189.277 216.682L189.243 217.539L189.066 222.054V222.512C189.066 222.512 205.991 229.942 207.712 231.271C209.433 232.6 210.705 236.805 209.14 237.276Z" fill="#EBEBEB"/>
<path d="M209.147 237.269C208.345 237.514 196.264 237.489 184.455 237.269C182.081 237.224 179.693 237.173 177.469 237.115C169.047 236.895 162.088 236.566 161.442 236.166C160.796 235.767 160.51 229.807 160.381 222.506C160.381 222.403 160.381 222.3 160.381 222.196C160.381 222.093 160.381 222.035 160.381 221.958H160.415L189.073 222.009V222.474C189.073 222.474 205.998 229.897 207.712 231.226C209.426 232.555 210.705 236.799 209.147 237.269Z" fill="#37474F"/>
<path d="M208.664 235.631C201.181 235.366 170.918 234.986 163.489 235.237C163.428 235.237 163.428 235.276 163.489 235.283C170.911 235.702 201.161 235.87 208.657 235.747C208.821 235.747 208.821 235.637 208.664 235.631Z" fill="#263238"/>
<path d="M192.249 222.125C189.31 221.564 185.692 221.951 183.406 223.918C183.318 223.989 183.406 224.112 183.528 224.08C186.36 223.254 189.277 222.717 192.229 222.48C192.273 222.475 192.314 222.455 192.344 222.424C192.374 222.393 192.392 222.353 192.395 222.311C192.397 222.269 192.384 222.227 192.357 222.193C192.331 222.159 192.292 222.135 192.249 222.125Z" fill="#263238"/>
<path d="M194.365 223.363C191.42 222.809 187.808 223.196 185.522 225.156C185.434 225.234 185.522 225.35 185.645 225.324C188.474 224.496 191.388 223.958 194.338 223.718C194.383 223.714 194.424 223.695 194.455 223.664C194.487 223.634 194.505 223.594 194.509 223.552C194.512 223.509 194.499 223.467 194.473 223.433C194.447 223.398 194.409 223.374 194.365 223.363Z" fill="#263238"/>
<path d="M196.474 224.608C193.535 224.054 189.916 224.434 187.631 226.401C187.542 226.479 187.631 226.595 187.753 226.569C190.584 225.741 193.501 225.203 196.453 224.963C196.497 224.958 196.538 224.938 196.569 224.907C196.599 224.876 196.617 224.836 196.619 224.794C196.622 224.752 196.609 224.71 196.582 224.676C196.555 224.642 196.517 224.618 196.474 224.608Z" fill="#263238"/>
<path d="M191.011 222.106H156.115C156.115 222.106 163.693 156.796 163.441 155.557C163.312 154.912 157.04 145.934 149.584 135.427C145.414 129.545 140.877 123.173 136.843 117.549C130.177 108.235 124.878 100.883 124.878 100.883H159.047C159.047 100.883 163.645 106.146 169.672 113.595C178.202 124.147 189.596 139.078 194.841 149.643C198.895 157.847 191.011 222.106 191.011 222.106Z" fill="#455A64"/>
<path d="M186.127 154.009C185.447 150.371 183.563 147.185 181.665 144.025C177.74 137.485 160.047 112.556 155.136 106.681L153.251 104.449C153.21 104.398 153.122 104.449 153.163 104.501C157.972 110.389 175.502 135.092 179.434 141.516C181.372 144.676 183.515 147.869 184.787 151.358C186.1 155.034 185.916 158.943 185.712 162.768C185.291 170.658 184.787 178.544 184.202 186.425C183.608 194.393 182.928 202.348 182.162 210.289C182.066 211.263 181.971 212.224 181.883 213.218C181.849 213.527 182.175 213.56 182.209 213.218C183.012 205.291 183.896 197.442 184.522 189.502C185.148 181.562 185.699 173.519 186.155 165.522C186.379 161.716 186.808 157.808 186.127 154.009Z" fill="#263238"/>
<path d="M189.589 216.92C184.698 216.823 186.107 216.785 181.216 216.74C178.821 216.74 163.087 216.591 160.849 216.939C160.802 216.939 160.802 217.03 160.849 217.036C163.087 217.384 178.821 217.255 181.216 217.236C186.107 217.191 184.698 217.152 189.589 217.055C189.608 217.055 189.626 217.048 189.64 217.036C189.653 217.023 189.661 217.006 189.661 216.988C189.661 216.97 189.653 216.953 189.64 216.94C189.626 216.927 189.608 216.92 189.589 216.92Z" fill="#263238"/>
<path d="M160.57 151.101C151.632 138.02 124.878 100.883 124.878 100.883H142.782L160.57 151.101Z" fill="#263238"/>
<path d="M87.9684 264.997C89.5329 265.461 133.994 264.481 135.66 263.423C136.3 263.03 136.524 256.883 136.578 249.44V249.208C136.578 247.679 140.306 221.912 140.306 221.912L111.246 222.474L107.886 249.563V250.027C107.886 250.027 91.0635 257.593 89.3765 258.934C87.6895 260.276 86.4038 264.539 87.9684 264.997Z" fill="#F7A9A0"/>
<path d="M87.9684 264.997C89.5329 265.461 133.994 264.481 135.66 263.423C136.3 263.03 136.524 256.883 136.578 249.44V249.208C136.578 249.208 137.259 244.048 137.259 243.829L108.566 244.312L107.92 249.537V250.001C107.92 250.001 91.0635 257.593 89.3765 258.934C87.6895 260.276 86.4038 264.539 87.9684 264.997Z" fill="#EBEBEB"/>
<path d="M87.9684 264.997C89.5329 265.461 133.994 264.481 135.66 263.423C136.3 263.03 136.524 256.883 136.578 249.44V249.208L107.886 249.537V250.001C107.886 250.001 91.0635 257.593 89.3765 258.934C87.6895 260.276 86.4038 264.539 87.9684 264.997Z" fill="#37474F"/>
<path d="M88.4308 263.352C95.9135 263.01 126.164 262.314 133.599 262.52C133.66 262.52 133.66 262.559 133.599 262.565C126.184 263.055 95.9339 263.519 88.4308 263.468C88.2744 263.468 88.2744 263.358 88.4308 263.352Z" fill="#263238"/>
<path d="M104.695 249.685C107.634 249.098 111.246 249.447 113.538 251.388C113.627 251.465 113.538 251.588 113.416 251.556C110.577 250.758 107.655 250.249 104.702 250.04C104.658 250.033 104.619 250.011 104.59 249.98C104.561 249.948 104.545 249.907 104.544 249.865C104.543 249.823 104.558 249.782 104.585 249.749C104.613 249.717 104.652 249.694 104.695 249.685Z" fill="#263238"/>
<path d="M102.594 250.949C105.532 250.362 109.151 250.71 111.437 252.652C111.525 252.729 111.437 252.845 111.314 252.82C108.476 252.018 105.554 251.51 102.601 251.304C102.557 251.297 102.517 251.275 102.488 251.244C102.459 251.212 102.443 251.171 102.442 251.129C102.442 251.087 102.456 251.046 102.484 251.013C102.512 250.98 102.55 250.958 102.594 250.949Z" fill="#263238"/>
<path d="M100.499 252.213C103.431 251.626 107.049 251.975 109.342 253.916C109.43 253.994 109.342 254.11 109.219 254.084C106.38 253.284 103.459 252.773 100.505 252.562C100.457 252.562 100.41 252.545 100.375 252.513C100.34 252.481 100.319 252.437 100.318 252.391C100.317 252.344 100.336 252.3 100.37 252.267C100.404 252.233 100.45 252.214 100.499 252.213Z" fill="#263238"/>
<path d="M159.047 100.883C159.047 100.883 154.966 124.547 154.673 125.308C154.673 125.308 153.15 125.992 150.402 127.191L138.273 249.904L106.254 250.027L124.103 100.883H159.047Z" fill="#455A64"/>
<path d="M137.176 244.506C132.285 244.429 133.694 244.384 128.796 244.358C126.408 244.358 110.674 244.28 108.436 244.641C108.388 244.641 108.388 244.725 108.436 244.738C110.681 245.08 126.408 244.886 128.803 244.854C133.694 244.79 132.285 244.757 137.176 244.641C137.188 244.645 137.199 244.645 137.211 244.644C137.223 244.642 137.234 244.637 137.243 244.631C137.252 244.624 137.26 244.616 137.265 244.606C137.271 244.596 137.274 244.585 137.274 244.574C137.274 244.563 137.271 244.552 137.265 244.542C137.26 244.532 137.252 244.523 137.243 244.517C137.234 244.51 137.223 244.506 137.211 244.504C137.199 244.502 137.188 244.503 137.176 244.506Z" fill="#263238"/>
<path d="M132.096 105.462C130.851 122.367 129.565 139.272 128.109 156.163C126.654 173.055 124.912 190.044 122.756 206.93C121.552 216.359 120.239 229.646 118.797 239.043C118.797 239.107 118.892 239.133 118.899 239.043C121.885 222.338 123.987 201.634 125.79 184.762C127.592 167.889 129.028 151.017 130.293 134.118C130.973 124.56 131.653 114.995 132.334 105.436C132.327 105.32 132.102 105.326 132.096 105.462Z" fill="#263238"/>
<path d="M156.04 124.572C152.853 125.831 149.79 127.352 146.884 129.119C146.872 129.125 146.861 129.133 146.852 129.143C146.844 129.153 146.837 129.165 146.833 129.177C146.829 129.189 146.827 129.202 146.829 129.215C146.83 129.228 146.833 129.24 146.84 129.252C146.846 129.263 146.855 129.273 146.865 129.282C146.875 129.29 146.887 129.296 146.9 129.3C146.913 129.304 146.927 129.305 146.94 129.304C146.954 129.303 146.967 129.3 146.979 129.294C150.067 127.875 153.224 126.501 156.224 124.921C156.272 124.898 156.309 124.857 156.327 124.808C156.344 124.759 156.34 124.706 156.316 124.659C156.291 124.613 156.248 124.578 156.197 124.562C156.145 124.545 156.089 124.549 156.04 124.572Z" fill="#263238"/>
<path d="M154.823 111.015C154.319 113.847 154.04 116.723 153.707 119.574C153.625 120.258 153.537 120.948 153.462 121.631C153.44 122.262 153.261 122.879 152.938 123.431C152.292 124.386 151.129 124.831 150.074 125.269C149.952 125.321 150 125.501 150.136 125.463C151.271 125.204 152.319 124.678 153.183 123.934C154.142 122.973 154.108 121.515 154.258 120.277C154.678 117.21 154.905 114.121 154.938 111.028C154.959 110.957 154.836 110.938 154.823 111.015Z" fill="#263238"/>
<path d="M151.196 111.886C151.088 113.924 150.849 115.962 150.666 118C150.577 119 150.503 120.013 150.441 121.019C150.38 122.025 150.251 123.089 150.285 124.108C150.289 124.121 150.298 124.132 150.31 124.14C150.321 124.148 150.335 124.152 150.35 124.152C150.364 124.152 150.378 124.148 150.389 124.14C150.401 124.132 150.41 124.121 150.414 124.108C150.591 123.141 150.618 122.134 150.7 121.154C150.781 120.174 150.863 119.09 150.924 118.058C151.047 116.001 151.101 113.924 151.298 111.866C151.278 111.815 151.196 111.821 151.196 111.886Z" fill="#263238"/>
<path d="M169.644 113.595L156.522 115.175L136.795 117.549L121.83 119.348L124.041 100.883H158.985C158.985 100.883 163.645 106.146 169.644 113.595Z" fill="#263238"/>
<path d="M153.223 68.3305C159.237 80.0562 171.937 92.3559 179.175 92.3559C185.977 92.3559 203.078 79.6499 211.078 72.181C212.901 70.4783 196.269 57.0176 194.48 58.9913C190.303 63.6028 180.535 73.6129 177.406 73.6129C174.617 73.6129 165.842 67.6146 158.162 61.6679C148.856 54.4506 150.829 63.6802 153.223 68.3305Z" fill="#F7A9A0"/>
<path d="M211.078 72.181C213.207 71.0458 219.635 65.8666 223.635 61.068C225.574 58.7332 230.397 51.4836 228.628 49.9357C226.859 48.3878 225.227 50.3872 225.227 50.3872C225.227 50.3872 226.778 47.0333 224.846 45.6273C222.914 44.2212 220.52 47.4138 220.52 47.4138C220.52 47.4138 221.88 43.86 219.839 42.5894C217.799 41.3188 215.962 44.9113 215.962 44.9113C215.962 44.9113 217.322 41.6864 215.2 41.3382C212.622 40.8802 210.785 47.0462 208.507 49.5165C207.983 50.084 197.146 60.1973 197.146 60.1973L211.078 72.181Z" fill="#F7A9A0"/>
<path d="M215.901 44.9762C214.541 49.491 213.119 51.2582 209.473 54.3476C209.405 54.4121 209.473 54.5282 209.561 54.4701C213.425 51.7484 215.541 49.7877 216.139 45.0213C216.16 44.7569 215.963 44.7247 215.901 44.9762Z" fill="#263238"/>
<path d="M220.662 47.253C218.812 51.8388 217.261 53.7608 213.724 57.263C213.669 57.3082 213.724 57.3985 213.812 57.3533C217.615 54.1929 219.683 52.1935 220.894 47.3755C220.941 47.1562 220.737 47.0401 220.662 47.253Z" fill="#263238"/>
<path d="M225.071 50.7806C222.949 55.102 221.37 57.2757 217.445 60.2555C217.432 60.2709 217.424 60.2903 217.423 60.3105C217.422 60.3307 217.429 60.3506 217.441 60.367C217.454 60.3833 217.472 60.3952 217.492 60.4008C217.513 60.4063 217.535 60.4051 217.554 60.3974C221.867 57.7272 223.853 55.0311 225.207 50.858C225.295 50.5484 225.207 50.4839 225.071 50.7806Z" fill="#263238"/>
<path d="M254.418 28.7016L204.205 29.1836L204.572 63.5268L254.785 63.0449L254.418 28.7016Z" fill="#EBEBEB"/>
<path d="M217.083 36.1228L213.424 36.158L213.627 55.1837L217.286 55.1486L217.083 36.1228Z" fill="#F66D1D"/>
<path d="M223.296 55.0763L219.636 55.115L219.507 41.3318L223.16 41.2996L223.296 55.0763Z" fill="#F66D1D"/>
<path d="M229.177 44.4173L225.518 44.4524L225.631 55.0681L229.29 55.033L229.177 44.4173Z" fill="#F66D1D"/>
<path d="M235.2 46.4688L231.54 46.5039L231.631 55.0107L235.29 54.9756L235.2 46.4688Z" fill="#F66D1D"/>
<path d="M241.142 41.1358L237.482 41.1709L237.63 54.9532L241.289 54.9181L241.142 41.1358Z" fill="#F66D1D"/>
<path d="M247.124 38.4223L243.465 38.458L243.643 54.8654L247.303 54.8297L247.124 38.4223Z" fill="#F66D1D"/>
<path d="M210.936 34.05C211.066 37.5716 211.181 41.0932 211.256 44.6212C211.331 48.1492 211.426 51.6708 211.467 55.1924L211.161 54.9022L220.814 54.7861L230.459 54.728C233.677 54.728 236.894 54.728 240.119 54.728C243.343 54.728 246.554 54.7667 249.771 54.8183C246.552 54.9258 243.334 55.0161 240.119 55.0892C236.901 55.1537 233.684 55.244 230.466 55.2827L220.82 55.4117L211.141 55.4891H210.828V55.1989C210.794 51.6708 210.828 48.1492 210.828 44.6212C210.828 41.0932 210.875 37.5716 210.936 34.05Z" fill="#C7C7C7"/>
<path d="M209.779 35.9463C210.176 35.8903 210.576 35.8601 210.977 35.8559C211.375 35.8507 211.773 35.8744 212.167 35.9269C211.375 36.0345 210.571 36.0345 209.779 35.9269V35.9463Z" fill="#C7C7C7"/>
<path d="M209.779 37.8812C210.176 37.8255 210.576 37.7953 210.977 37.791C211.375 37.7857 211.773 37.8094 212.167 37.8619C211.375 37.9694 210.571 37.9694 209.779 37.8619V37.8812Z" fill="#C7C7C7"/>
<path d="M209.779 39.855C210.175 39.7961 210.576 39.7659 210.977 39.7646C211.375 39.7594 211.773 39.7831 212.167 39.8356C211.375 39.9432 210.571 39.9432 209.779 39.8356V39.855Z" fill="#C7C7C7"/>
<path d="M209.82 41.8029C210.614 41.6953 211.421 41.6953 212.215 41.8029C211.421 41.9104 210.614 41.9104 209.82 41.8029Z" fill="#C7C7C7"/>
<path d="M209.841 43.7506C210.635 43.643 211.441 43.643 212.235 43.7506C211.441 43.8582 210.635 43.8582 209.841 43.7506Z" fill="#C7C7C7"/>
<path d="M209.86 45.6984C210.654 45.5908 211.461 45.5908 212.255 45.6984C211.461 45.8059 210.654 45.8059 209.86 45.6984Z" fill="#C7C7C7"/>
<path d="M209.888 47.6462C210.281 47.5871 210.679 47.5569 211.078 47.5559C211.479 47.5506 211.879 47.5743 212.275 47.6269C211.879 47.6858 211.479 47.716 211.078 47.7172C210.68 47.7225 210.282 47.6988 209.888 47.6462Z" fill="#C7C7C7"/>
<path d="M209.909 49.5941C210.701 49.4865 211.505 49.4865 212.297 49.5941C211.901 49.653 211.501 49.6832 211.1 49.6844C210.701 49.6833 210.303 49.6531 209.909 49.5941Z" fill="#C7C7C7"/>
<path d="M209.93 51.5418C210.722 51.4343 211.526 51.4343 212.317 51.5418C211.921 51.6007 211.521 51.6309 211.12 51.6322C210.721 51.631 210.323 51.6008 209.93 51.5418Z" fill="#C7C7C7"/>
<path d="M209.949 53.4897C210.741 53.382 211.545 53.382 212.337 53.4897C211.943 53.5454 211.545 53.5756 211.146 53.58C210.745 53.5791 210.345 53.5489 209.949 53.4897Z" fill="#C7C7C7"/>
<path d="M221.507 33.4567C222.82 33.3407 224.126 33.2826 225.432 33.2311C226.738 33.1795 228.051 33.1537 229.364 33.1343C230.676 33.115 231.983 33.1343 233.289 33.1343C234.595 33.1343 235.908 33.1924 237.22 33.2826C235.908 33.3987 234.601 33.4567 233.295 33.5083C231.989 33.5599 230.676 33.5792 229.364 33.5986C228.051 33.6179 226.745 33.5986 225.439 33.5986C224.133 33.5986 222.82 33.5406 221.507 33.4567Z" fill="#C7C7C7"/>
<path d="M224.473 35.1532C227.732 34.7983 231.022 34.7659 234.289 35.0564C232.661 35.2465 231.024 35.3435 229.384 35.3467C227.744 35.3725 226.104 35.3078 224.473 35.1532Z" fill="#C7C7C7"/>
<path d="M211.031 59.0493V56.824H213.378V59.0557L211.031 59.0493ZM211.351 57.1142V58.701H213.018V57.1207L211.351 57.1142Z" fill="#C7C7C7"/>
<path d="M215.071 56.9469C217.064 56.8631 219.058 56.8051 221.057 56.7599L227.037 56.6697H233.016C235.016 56.6697 237.009 56.6697 239.002 56.7406C237.009 56.818 235.016 56.8824 233.023 56.9211L227.037 57.0178H221.057C219.062 57.0092 217.067 56.9856 215.071 56.9469Z" fill="#C7C7C7"/>
<path d="M215.085 57.8757C217.337 57.7209 219.588 57.6951 221.84 57.6499C224.091 57.6048 226.35 57.6499 228.601 57.7467C226.35 57.9015 224.098 57.9337 221.847 57.9724C219.595 58.0112 217.337 58.0112 215.085 57.8757Z" fill="#C7C7C7"/>
<path d="M215.092 58.8495C217.854 58.6946 220.622 58.6559 223.384 58.6108C226.146 58.5656 228.908 58.6108 231.676 58.6882C228.914 58.8495 226.153 58.8883 223.384 58.9334C220.615 58.9786 217.86 58.9593 215.092 58.8495Z" fill="#C7C7C7"/>
<path d="M211.099 36.9138C211.956 36.5914 212.859 36.3915 213.779 36.3204C214.714 36.2127 215.664 36.328 216.541 36.6558C217.373 37.0692 218.122 37.6196 218.751 38.2812C219.398 38.9261 219.989 39.5711 220.561 40.2677C221.717 41.6157 222.792 43.0218 224.03 44.2666C225.183 45.5533 226.673 46.5298 228.35 47.098C229.176 47.3368 230.05 47.3876 230.9 47.2464C231.767 47.0744 232.6 46.7763 233.37 46.3627C234.928 45.4918 236.401 44.4902 237.771 43.37C239.186 42.2736 240.553 41.1126 242.016 40.0549C242.743 39.5179 243.514 39.0369 244.322 38.6166C244.726 38.4029 245.149 38.2237 245.587 38.0812C246.028 37.9526 246.486 37.8874 246.947 37.8877C246.038 37.9781 245.167 38.2794 244.41 38.7649C243.639 39.2219 242.907 39.7351 242.22 40.2999C240.818 41.4029 239.499 42.5961 238.138 43.7441C236.775 44.9341 235.284 45.9848 233.689 46.8787C232.869 47.3324 231.978 47.6611 231.05 47.8526C230.095 48.0209 229.112 47.9745 228.18 47.7172C226.396 47.1008 224.817 46.0483 223.601 44.6664C222.395 43.3571 221.26 41.9901 220.2 40.5708C219.649 39.8807 219.091 39.197 218.486 38.5585C217.91 37.9104 217.22 37.3626 216.445 36.9396C215.631 36.5912 214.738 36.4384 213.847 36.4946C212.915 36.5172 211.991 36.6582 211.099 36.9138Z" fill="#263238"/>
<path d="M193.256 60.3265C193.256 60.3265 197.052 55.6698 199.235 54.0122C201.419 52.3546 211.969 49.0071 212.84 51.1291C213.99 53.8638 208.303 56.9339 205.31 58.0884C205.31 58.0884 207.976 64.4092 204.398 67.447C200.82 70.4849 193.256 60.3265 193.256 60.3265Z" fill="#F7A9A0"/>
<path d="M212.914 51.9806C212.064 55.2055 208.03 56.4954 205.221 57.7854C205.178 57.803 205.141 57.8302 205.112 57.8646C205.083 57.8989 205.064 57.9394 205.055 57.9826C205.046 58.0258 205.049 58.0703 205.062 58.1124C205.076 58.1544 205.1 58.1927 205.132 58.224C206.058 60.9458 206.541 65.0414 204.615 67.4472C204.609 67.4535 204.604 67.461 204.601 67.4691C204.598 67.4772 204.596 67.4859 204.597 67.4946C204.597 67.5033 204.599 67.5118 204.603 67.5197C204.607 67.5276 204.612 67.5348 204.619 67.5407C204.626 67.5466 204.633 67.5512 204.642 67.5543C204.651 67.5573 204.66 67.5587 204.669 67.5584C204.678 67.5581 204.687 67.5561 204.695 67.5525C204.704 67.5489 204.711 67.5438 204.717 67.5375C207.153 65.222 207.03 61.1651 205.813 58.2433C208.717 56.9534 212.704 55.4764 212.948 51.9741L212.914 51.9806Z" fill="#263238"/>
<path d="M156.632 60.3846C161.659 63.5708 173.938 73.7227 177.291 72.91C180.645 72.0973 191.413 61.2295 191.413 61.2295L208.378 76.4445C208.378 76.4445 189.148 93.7813 178.516 93.1428C167.884 92.5043 156.857 77.0185 153.347 70.3495C149.837 63.6804 148.259 55.0894 156.632 60.3846Z" fill="#F66D1D"/>
<path d="M178.08 81.443C177.854 80.8491 177.854 80.1987 178.08 79.6048C178.307 80.1987 178.307 80.8491 178.08 81.443ZM194.134 70.1882C194.14 69.8753 194.083 69.5642 193.964 69.2723C193.845 69.5642 193.787 69.8753 193.794 70.1882C193.791 70.5008 193.848 70.8112 193.964 71.104C194.079 70.8112 194.137 70.5008 194.134 70.1882ZM196.175 84.5325C196.178 84.2199 196.12 83.9094 196.005 83.6166C195.778 84.2083 195.778 84.8567 196.005 85.4483C196.12 85.1556 196.178 84.8451 196.175 84.5325ZM161.02 77.8053C161.03 77.4922 160.972 77.1804 160.85 76.8895C160.623 77.4811 160.623 78.1295 160.85 78.7212C160.969 78.4293 161.026 78.1182 161.02 77.8053ZM191.12 82.4298C191.127 82.117 191.069 81.8059 190.95 81.514C190.724 82.1056 190.724 82.754 190.95 83.3457C191.069 83.0538 191.127 82.7427 191.12 82.4298ZM172.074 72.007C172.403 72.0092 172.731 71.9545 173.04 71.8458C172.732 71.7304 172.404 71.6756 172.074 71.6845C171.744 71.6777 171.415 71.7325 171.108 71.8458C171.421 71.9575 171.753 72.0123 172.087 72.007H172.074ZM173.298 85.3258C173.628 85.3288 173.955 85.2742 174.264 85.1645C173.64 84.9497 172.956 84.9497 172.332 85.1645C172.645 85.2763 172.977 85.331 173.312 85.3258H173.298ZM185.461 78.876C185.791 78.8817 186.119 78.8269 186.427 78.7148C186.119 78.6026 185.791 78.5478 185.461 78.5535C185.129 78.5506 184.799 78.6052 184.488 78.7148C184.803 78.8281 185.138 78.8849 185.474 78.8825L185.461 78.876ZM200.093 80.2369C200.423 80.2431 200.751 80.1883 201.059 80.0757C200.435 79.8608 199.751 79.8608 199.127 80.0757C199.438 80.1928 199.771 80.2498 200.106 80.2434L200.093 80.2369ZM191.93 64.7574C192.26 64.7611 192.587 64.7064 192.896 64.5962C192.589 64.4798 192.26 64.4249 191.93 64.435C191.6 64.4293 191.272 64.484 190.964 64.5962C191.267 64.7101 191.59 64.7712 191.916 64.7768L191.93 64.7574ZM160.476 67.3761C160.243 67.1513 159.969 66.9697 159.666 66.8407C159.801 67.1267 159.992 67.3851 160.231 67.6018C160.459 67.8285 160.731 68.0104 161.033 68.1371C160.893 67.8583 160.7 67.6067 160.462 67.3954L160.476 67.3761ZM167.482 81.6494C167.252 81.4247 166.98 81.2431 166.679 81.1141C166.962 81.6803 167.443 82.1361 168.04 82.404C167.899 82.1276 167.705 81.8783 167.468 81.6688L167.482 81.6494ZM184.196 84.8743C183.965 84.6481 183.69 84.4663 183.386 84.339C183.662 84.9097 184.145 85.3675 184.747 85.6289C184.606 85.3518 184.415 85.1006 184.182 84.8872L184.196 84.8743ZM193.379 76.5799C193.151 76.3532 192.878 76.1713 192.576 76.0446C192.859 76.6107 193.339 77.0666 193.937 77.3345C193.802 77.0522 193.613 76.7963 193.379 76.5799ZM180.903 73.4259C180.673 73.2033 180.401 73.0239 180.101 72.8971C180.383 73.4632 180.864 73.9191 181.461 74.187C181.324 73.9097 181.135 73.6584 180.903 73.4453V73.4259ZM178.488 89.4278C178.251 89.6456 178.06 89.9038 177.924 90.1889C178.225 90.0614 178.498 89.8796 178.726 89.6536C178.965 89.4375 179.157 89.1789 179.291 88.8925C178.99 89.0215 178.718 89.2031 178.488 89.4278ZM188.848 88.2346C188.612 88.4515 188.423 88.71 188.291 88.9957C188.888 88.7278 189.369 88.2719 189.651 87.7057C189.347 87.8321 189.07 88.0115 188.835 88.2346H188.848ZM171.298 77.27C171.059 77.4861 170.867 77.7447 170.734 78.0311C171.036 77.9043 171.308 77.7224 171.536 77.4958C171.775 77.2791 171.966 77.0206 172.101 76.7347C171.798 76.8473 171.521 77.0137 171.285 77.2249L171.298 77.27ZM200.936 73.1228C200.699 73.3392 200.51 73.5978 200.378 73.8839C200.679 73.7549 200.951 73.5732 201.181 73.3486C201.416 73.1294 201.608 72.8715 201.746 72.5875C201.443 72.7165 201.169 72.898 200.936 73.1228ZM165.088 73.1228C164.851 73.3406 164.659 73.5988 164.523 73.8839C165.12 73.616 165.601 73.1601 165.883 72.5939C165.591 72.7231 165.325 72.9024 165.101 73.1228H165.088ZM186.685 70.7235C186.448 70.9413 186.257 71.1995 186.121 71.4846C186.424 71.3572 186.699 71.1754 186.93 70.9492C187.165 70.7301 187.357 70.4722 187.495 70.1882C187.197 70.3185 186.927 70.5 186.699 70.7235H186.685ZM155.952 63.3836C155.955 63.071 155.898 62.7605 155.782 62.4678C155.66 62.7588 155.602 63.0705 155.612 63.3836C155.605 63.6965 155.662 64.0078 155.782 64.2995C155.903 64.0077 155.965 63.6971 155.966 63.3836H155.952ZM156.285 73.2389C156.617 73.2419 156.947 73.1872 157.258 73.0777C156.949 72.9618 156.618 72.907 156.285 72.9164C155.955 72.9107 155.627 72.9655 155.319 73.0777C155.633 73.188 155.965 73.2427 156.299 73.2389H156.285Z" fill="white"/>
<path d="M203.454 78.16C202.937 77.515 202.29 77.0184 201.712 76.4508C201.134 75.8832 200.528 75.335 199.923 74.7932C198.753 73.7418 197.569 72.7034 196.386 71.6779L192.808 68.6014C191.576 67.5436 190.372 66.4084 189.053 65.4474C189.042 65.438 189.028 65.433 189.013 65.4336C188.998 65.4342 188.984 65.4403 188.975 65.4506C188.965 65.4609 188.959 65.4745 188.96 65.4884C188.961 65.5023 188.967 65.5154 188.978 65.5248C190.08 66.6987 191.359 67.7564 192.563 68.8464L196.12 72.0713C197.304 73.142 198.501 74.2041 199.712 75.2576C200.311 75.7735 200.909 76.2766 201.522 76.7733C202.134 77.2699 202.726 77.8181 203.392 78.2503C203.447 78.2825 203.494 78.2051 203.454 78.16Z" fill="#263238"/>
<path d="M177.128 92.9687C166.924 91.1564 156.721 76.7282 153.319 70.3558C151.061 66.0925 149.632 61.0488 151.081 59.3396C155.21 64.6542 169.645 83.3199 177.128 92.9687Z" fill="#263238"/>
<path d="M168.094 111.531C167.413 112.26 121.524 112.324 121.293 112.06C120.66 111.338 131.531 66.8473 141.7 59.1076C143.884 57.4435 152.264 57.6951 153.407 58.1208C154.713 58.5916 158.4 64.506 160.08 69.324C163.427 78.9664 168.692 110.893 168.094 111.531Z" fill="#F66D1D"/>
<path d="M150.326 84.5326C150.211 84.2398 150.153 83.9293 150.156 83.6167C150.149 83.3038 150.207 82.9926 150.326 82.7009C150.446 82.9926 150.503 83.3038 150.496 83.6167C150.499 83.9293 150.442 84.2398 150.326 84.5326ZM156.135 94.0783C156.139 93.7636 156.081 93.451 155.965 93.1559C155.843 93.4492 155.785 93.7631 155.795 94.0783C155.789 94.3911 155.847 94.702 155.965 94.9941C156.08 94.7011 156.138 94.3908 156.135 94.0783ZM155.965 63.3838C155.969 63.0712 155.911 62.7607 155.795 62.4679C155.673 62.759 155.615 63.0707 155.625 63.3838C155.618 63.6967 155.676 64.0079 155.795 64.2997C155.912 64.0071 155.969 63.6965 155.965 63.3838ZM141.939 94.4265C141.943 94.1139 141.885 93.8033 141.769 93.5107C141.646 93.8016 141.588 94.1134 141.599 94.4265C141.592 94.7394 141.65 95.0505 141.769 95.3424C141.884 95.0496 141.942 94.7391 141.939 94.4265ZM165.904 98.7672C165.91 98.4523 165.852 98.1391 165.734 97.8449C165.615 98.1391 165.557 98.4523 165.564 98.7672C165.561 99.0798 165.619 99.3901 165.734 99.6831C165.852 99.391 165.91 99.0801 165.904 98.7672ZM149.353 105.036C149.36 104.724 149.302 104.412 149.183 104.121C149.065 104.412 149.007 104.724 149.013 105.036C149.009 105.349 149.067 105.66 149.183 105.952C149.303 105.661 149.361 105.349 149.353 105.036ZM135.885 109.351C135.888 109.039 135.83 108.728 135.715 108.435C135.488 109.027 135.488 109.675 135.715 110.267C135.83 109.974 135.888 109.664 135.885 109.351ZM146.932 71.6653C146.938 71.3525 146.88 71.0415 146.762 70.7494C146.535 71.3434 146.535 71.9937 146.762 72.5876C146.881 72.2934 146.938 71.9803 146.932 71.6653ZM138.218 66.4539C138.222 66.1412 138.164 65.8306 138.048 65.538C137.821 66.1297 137.821 66.7781 138.048 67.3698C138.163 67.077 138.221 66.7665 138.218 66.4539ZM138.048 82.0301C138.05 81.7175 137.992 81.4072 137.878 81.1142C137.651 81.7081 137.651 82.3585 137.878 82.9524C137.993 82.6574 138.051 82.3448 138.048 82.0301ZM128.878 98.7995C128.889 98.4863 128.831 98.1745 128.708 97.8836C128.592 98.1762 128.534 98.4868 128.538 98.7995C128.536 99.112 128.593 99.4223 128.708 99.7153C128.831 99.4132 128.889 99.0909 128.878 98.7672V98.7995ZM161.02 77.8377C161.03 77.5246 160.972 77.2128 160.849 76.9219C160.623 77.5135 160.623 78.1619 160.849 78.7536C160.973 78.4516 161.031 78.1291 161.02 77.8055V77.8377ZM144.292 80.6563C144.622 80.6585 144.949 80.6038 145.258 80.495C144.632 80.2803 143.946 80.2803 143.32 80.495C143.633 80.5936 143.963 80.6373 144.292 80.624V80.6563ZM143.32 101.076C143.652 101.079 143.981 101.025 144.292 100.915C143.666 100.7 142.98 100.7 142.354 100.915C142.665 101.013 142.992 101.057 143.32 101.044V101.076ZM148.558 111.409C148.888 111.416 149.216 111.361 149.523 111.248C149.215 111.137 148.887 111.083 148.558 111.086C148.228 111.084 147.901 111.139 147.592 111.248C147.9 111.36 148.228 111.414 148.558 111.409ZM160.591 84.1714C160.921 84.1745 161.248 84.1198 161.557 84.0102C160.933 83.7953 160.249 83.7953 159.625 84.0102C159.926 84.1224 160.247 84.1814 160.571 84.1843L160.591 84.1714ZM136.783 73.0069C137.113 73.013 137.441 72.9583 137.748 72.8456C137.441 72.733 137.113 72.6782 136.783 72.6844C136.453 72.6813 136.125 72.736 135.817 72.8456C136.113 72.9586 136.429 73.0177 136.749 73.0198L136.783 73.0069ZM148.741 64.6222C149.071 64.6252 149.398 64.5705 149.707 64.4609C149.4 64.3451 149.071 64.2902 148.741 64.2997C148.411 64.2928 148.083 64.3476 147.775 64.4609C148.074 64.565 148.389 64.6175 148.707 64.6157L148.741 64.6222ZM136.68 88.8346C137.01 88.8376 137.338 88.783 137.646 88.6733C137.339 88.5575 137.011 88.5026 136.68 88.5121C136.35 88.5053 136.022 88.5601 135.715 88.6733C136.023 88.7836 136.351 88.8382 136.68 88.8346ZM129.933 105.03C130.262 105.036 130.59 104.981 130.898 104.869C130.272 104.654 129.586 104.654 128.96 104.869C129.27 104.984 129.6 105.041 129.933 105.036V105.03ZM156.299 73.2326C156.631 73.2356 156.96 73.1809 157.271 73.0714C156.962 72.9555 156.631 72.9007 156.299 72.9101C155.969 72.9044 155.641 72.9592 155.333 73.0714C155.641 73.1823 155.969 73.2392 156.299 73.2391V73.2326ZM149.979 90.3116C150.309 90.3184 150.637 90.2636 150.945 90.1503C150.321 89.9355 149.637 89.9355 149.013 90.1503C149.321 90.2652 149.649 90.3222 149.979 90.318V90.3116ZM163.788 110.119C164.118 110.126 164.446 110.071 164.754 109.958C164.13 109.743 163.446 109.743 162.822 109.958C163.13 110.07 163.458 110.125 163.788 110.119ZM155.795 101.231C156.125 101.233 156.452 101.179 156.761 101.07C156.135 100.855 155.449 100.855 154.823 101.07C155.135 101.171 155.465 101.216 155.795 101.205V101.231ZM155.911 108.513C155.681 108.288 155.409 108.107 155.108 107.978C155.243 108.263 155.434 108.522 155.673 108.739C155.901 108.965 156.174 109.147 156.476 109.274C156.342 108.98 156.151 108.712 155.911 108.487V108.513ZM130.062 92.2659C129.832 92.0412 129.56 91.8596 129.259 91.7305C129.394 92.0165 129.585 92.275 129.824 92.4916C130.053 92.7163 130.326 92.8979 130.626 93.0269C130.489 92.7316 130.293 92.4644 130.048 92.2401L130.062 92.2659ZM144.143 86.9642C143.914 86.736 143.638 86.554 143.333 86.4288C143.469 86.7139 143.661 86.9721 143.898 87.1899C144.13 87.4147 144.405 87.5962 144.707 87.7252C144.568 87.431 144.372 87.1641 144.129 86.9384L144.143 86.9642ZM136.402 100.954C136.172 100.729 135.9 100.547 135.599 100.418C135.881 100.985 136.362 101.44 136.959 101.708C136.824 101.416 136.63 101.151 136.388 100.928L136.402 100.954ZM123.98 108.558C123.749 108.334 123.474 108.154 123.171 108.029C123.307 108.314 123.499 108.572 123.736 108.79C123.968 109.015 124.242 109.197 124.545 109.326C124.405 109.03 124.209 108.761 123.967 108.532L123.98 108.558ZM134.347 77.7152C134.119 77.4892 133.846 77.3074 133.545 77.1799C133.681 77.4669 133.872 77.7272 134.109 77.9474C134.339 78.17 134.612 78.3494 134.912 78.4763C134.777 78.1796 134.581 77.9119 134.334 77.6894L134.347 77.7152ZM150.449 76.58C150.219 76.3519 149.944 76.1698 149.639 76.0447C149.775 76.3298 149.967 76.588 150.204 76.8058C150.436 77.0305 150.711 77.2121 151.013 77.3411C150.875 77.0571 150.684 76.7992 150.449 76.58ZM161.142 97.7353C160.912 97.5106 160.64 97.329 160.339 97.1999C160.474 97.4859 160.666 97.7444 160.904 97.961C161.132 98.1877 161.405 98.3696 161.707 98.4963C161.57 98.2113 161.379 97.9531 161.142 97.7353ZM143.456 68.0663C143.228 67.8397 142.955 67.6578 142.653 67.531C142.936 68.0972 143.416 68.553 144.014 68.821C143.877 68.5308 143.683 68.268 143.442 68.047L143.456 68.0663ZM156.203 87.306C155.974 87.0813 155.701 86.8997 155.401 86.7707C155.535 87.0586 155.727 87.3192 155.965 87.5382C156.196 87.7613 156.468 87.9427 156.768 88.0735C156.63 87.7786 156.434 87.5115 156.19 87.2867L156.203 87.306ZM155.965 79.992C155.727 80.2086 155.535 80.4671 155.401 80.753C155.998 80.4851 156.479 80.0293 156.761 79.4631C156.459 79.5815 156.184 79.7545 155.952 79.9726L155.965 79.992ZM134.796 95.2457C134.557 95.4618 134.365 95.7204 134.232 96.0067C134.532 95.8799 134.804 95.7005 135.034 95.4779C135.271 95.2577 135.463 94.9973 135.599 94.7103C135.295 94.8322 135.018 95.0072 134.783 95.2263L134.796 95.2457ZM161.428 91.6144C161.189 91.8311 160.998 92.0896 160.863 92.3755C161.166 92.2465 161.44 92.065 161.673 91.8402C161.907 91.622 162.097 91.3638 162.23 91.0791C161.926 91.2003 161.649 91.3754 161.414 91.5951L161.428 91.6144ZM142.843 107.539C142.607 107.757 142.415 108.015 142.279 108.3C142.582 108.175 142.857 107.995 143.088 107.771C143.323 107.549 143.515 107.289 143.653 107.004C143.35 107.133 143.076 107.314 142.843 107.539ZM141.646 76.264C141.408 76.4806 141.216 76.7391 141.082 77.0251C141.679 76.7572 142.16 76.3013 142.442 75.7351C142.147 75.8533 141.877 76.0216 141.646 76.2317V76.264ZM148.891 97.7675C148.656 97.9857 148.467 98.2439 148.333 98.5286C148.635 98.4018 148.908 98.2199 149.136 97.9933C149.374 97.7766 149.566 97.5181 149.7 97.2322C149.4 97.3515 149.126 97.522 148.891 97.7353V97.7675ZM161.135 104.688C160.896 104.904 160.704 105.163 160.571 105.449C161.168 105.181 161.649 104.725 161.931 104.159C161.636 104.277 161.366 104.446 161.135 104.656V104.688ZM131.606 85.1711C131.369 85.3889 131.177 85.6471 131.041 85.9322C131.344 85.8032 131.619 85.6216 131.851 85.3969C132.086 85.1787 132.275 84.9205 132.409 84.6358C132.111 84.7552 131.838 84.9257 131.606 85.1389V85.1711ZM152.074 69.3756C151.837 69.5934 151.646 69.8516 151.51 70.1367C152.107 69.8688 152.588 69.4129 152.87 68.8468C152.575 68.9649 152.306 69.1332 152.074 69.3434V69.3756ZM141.952 61.5521C141.715 61.7709 141.526 62.0316 141.395 62.3196C141.695 62.1906 141.968 62.0089 142.197 61.7843C142.433 61.5651 142.624 61.3072 142.762 61.0232C142.462 61.1402 142.188 61.3086 141.952 61.5198V61.5521Z" fill="white"/>
<path d="M153.931 70.4334L154.597 67.6471L151.89 64.8479L149.795 68.363L151.264 70.7623L149.985 99.2315L155.611 108.648L158.536 98.0512L153.931 70.4334Z" fill="#263238"/>
<path d="M145.096 58.0562L124.308 98.7668C128.151 84.7902 135.069 64.1511 141.681 59.1075C142.714 58.5034 143.885 58.1429 145.096 58.0562Z" fill="#263238"/>
<path d="M141.259 67.5499C138.368 72.4646 121.232 90.769 120.797 92.5814C120.362 94.3938 124.13 99.1924 124.157 99.9148C124.253 102.856 120.804 122.315 117.892 120.651C114.062 118.451 97.6074 102.082 98.6822 93.7875C99.7569 85.4931 133.007 63.2866 138.286 60.9776C143.565 58.6686 144.116 62.6739 141.259 67.5499Z" fill="#F7A9A0"/>
<path d="M129.905 123.928C131.51 122.18 128.415 121.386 128.415 121.386C128.415 121.386 133.177 121.509 134.082 119.097C134.986 116.684 131.184 115.936 130.912 115.872C131.164 115.872 135.531 115.872 136.191 113.369C136.85 110.867 132.932 110.538 132.68 110.525C132.919 110.46 136.082 109.532 136.082 107.513C136.156 104.043 126.939 105.971 124.416 104.501C124.416 104.501 124.109 100.025 124.143 99.8892C123.819 100.991 123.112 101.957 122.137 102.63C120.314 103.656 118.627 104.41 118.055 105.507C117.791 105.993 117.7 106.548 117.796 107.087C117.892 107.626 118.169 108.122 118.586 108.5C118.586 108.5 116.015 108.854 115.43 110.822C115.13 111.828 116.566 113.176 116.566 113.176C116.566 113.176 114.525 113.543 114.117 115.317C113.79 116.736 115.28 117.897 115.28 117.897C115.28 117.897 113.491 119.11 113.654 120.664C114.001 123.766 126.463 127.675 129.905 123.928Z" fill="#F7A9A0"/>
<path d="M115.525 118.084C115.521 118.082 115.516 118.081 115.512 118.08C115.507 118.08 115.502 118.08 115.498 118.081C115.494 118.082 115.49 118.084 115.486 118.087C115.482 118.09 115.479 118.093 115.477 118.097C115.475 118.101 115.473 118.105 115.473 118.109C115.472 118.114 115.473 118.118 115.474 118.122C115.475 118.126 115.477 118.13 115.48 118.134C115.483 118.137 115.487 118.14 115.491 118.142C119.399 120.476 123.964 121.628 128.579 121.444C128.721 121.444 128.769 121.206 128.579 121.186C124.092 120.758 119.694 119.713 115.525 118.084Z" fill="#263238"/>
<path d="M116.532 113.182C116.484 113.182 116.45 113.234 116.532 113.266C120.429 115.543 125.946 116.93 131.048 116.027C131.218 116.027 131.347 115.801 131.143 115.82C127.667 116.181 120.429 114.769 116.532 113.182Z" fill="#263238"/>
<path d="M133.014 110.344C128.089 111.035 123.422 110.157 118.769 108.603C118.708 108.603 118.688 108.668 118.735 108.7C120.776 110.048 123.864 110.744 126.306 111.093C128.564 111.459 130.884 111.257 133.034 110.506C133.122 110.48 133.116 110.332 133.014 110.344Z" fill="#263238"/>
<path d="M109.729 115.73L123.334 97.2127C123.334 97.2127 121.082 93.6009 121.293 92.427C121.504 91.2532 138.877 73.2197 142.027 67.0086C145.176 60.7975 145.911 56.9921 138.517 60.2815C131.123 63.5708 100.172 86.203 98.3826 92.1755C96.5935 98.1479 103.961 107.616 109.729 115.73Z" fill="#F66D1D"/>
<path d="M129.933 76.1543C129.706 75.5604 129.706 74.91 129.933 74.3161C130.159 74.91 130.159 75.5604 129.933 76.1543ZM138.218 66.4796C138.222 66.167 138.164 65.8564 138.048 65.5638C137.822 66.1554 137.822 66.8038 138.048 67.3955C138.167 67.0946 138.225 66.7751 138.218 66.4538V66.4796ZM118.988 82.0558C118.994 81.743 118.936 81.432 118.818 81.1399C118.591 81.7338 118.591 82.3842 118.818 82.9781C118.94 82.6759 118.998 82.3536 118.988 82.03V82.0558ZM105.505 88.3443C105.512 88.0315 105.454 87.7204 105.335 87.4285C105.109 88.0201 105.109 88.6685 105.335 89.2602C105.458 88.9604 105.516 88.6401 105.505 88.3185V88.3443ZM116.818 92.8914C116.821 92.5788 116.763 92.2683 116.648 91.9755C116.421 92.5672 116.421 93.2156 116.648 93.8073C116.767 93.5064 116.824 93.1869 116.818 92.8656V92.8914ZM105.846 99.2251C105.852 98.9101 105.794 98.5969 105.675 98.3028C105.449 98.8967 105.449 99.547 105.675 100.141C105.797 99.8408 105.855 99.5208 105.846 99.1993V99.2251ZM116.818 102.36C116.821 102.047 116.763 101.737 116.648 101.444C116.421 102.035 116.421 102.684 116.648 103.276C116.767 102.975 116.824 102.655 116.818 102.334V102.36ZM135.545 63.0161C135.875 63.0218 136.203 62.967 136.511 62.8549C136.202 62.7461 135.875 62.6914 135.545 62.6936C135.215 62.69 134.888 62.7446 134.579 62.8549C134.885 62.9748 135.214 63.0361 135.545 63.0354V63.0161ZM136.749 73.0326C137.079 73.0387 137.407 72.984 137.715 72.8713C137.407 72.7587 137.079 72.7039 136.749 72.7101C136.419 72.707 136.092 72.7617 135.783 72.8713C136.092 72.9796 136.42 73.03 136.749 73.0197V73.0326ZM124.307 72.2393C124.637 72.2454 124.965 72.1907 125.273 72.078C124.965 71.9654 124.637 71.9106 124.307 71.9168C123.978 71.9131 123.65 71.9678 123.341 72.078C123.65 72.1869 123.978 72.2373 124.307 72.2264V72.2393ZM128.879 80.4498C129.21 80.4528 129.54 80.3981 129.851 80.2886C129.225 80.0738 128.539 80.0738 127.913 80.2886C128.222 80.3974 128.549 80.452 128.879 80.4498ZM114.178 79.7468C114.508 79.7498 114.836 79.6952 115.144 79.5855C114.52 79.3707 113.837 79.3707 113.213 79.5855C113.52 79.7002 113.848 79.7592 114.178 79.7597V79.7468ZM111.743 90.4663C112.073 90.4725 112.401 90.4177 112.709 90.3051C112.085 90.0902 111.401 90.0902 110.777 90.3051C111.084 90.4228 111.412 90.4819 111.743 90.4792V90.4663ZM108.424 111.106C108.754 111.116 109.083 111.061 109.39 110.944C108.766 110.729 108.082 110.729 107.458 110.944C107.764 111.064 108.092 111.125 108.424 111.125V111.106ZM110.777 101.186C111.107 101.188 111.434 101.133 111.743 101.025C111.435 100.912 111.107 100.858 110.777 100.863C110.447 100.856 110.119 100.911 109.811 101.025C110.119 101.141 110.446 101.203 110.777 101.205V101.186ZM100.628 97.503C100.96 97.5092 101.291 97.4544 101.601 97.3418C100.974 97.127 100.288 97.127 99.6621 97.3418C99.9688 97.4605 100.297 97.5219 100.628 97.5223V97.503ZM118.77 75.4383C118.54 75.2137 118.268 75.032 117.967 74.903C118.101 75.1913 118.293 75.4521 118.532 75.6705C118.762 75.8931 119.034 76.0726 119.335 76.1994C119.196 75.9212 119.005 75.6697 118.77 75.4577V75.4383ZM114.301 85.5193C114.069 85.2946 113.794 85.113 113.491 84.984C113.774 85.5502 114.255 86.006 114.852 86.274C114.717 85.9989 114.531 85.7497 114.301 85.5387V85.5193ZM104.601 104.901C104.372 104.677 104.099 104.497 103.798 104.372C104.081 104.938 104.561 105.394 105.158 105.662C105.024 105.383 104.835 105.132 104.601 104.92V104.901ZM114.478 106.468C114.249 106.242 113.977 106.06 113.675 105.933C113.81 106.219 114.001 106.477 114.24 106.694C114.468 106.921 114.74 107.102 115.042 107.229C114.904 106.951 114.713 106.7 114.478 106.488V106.468ZM101.438 92.5689C101.207 92.3427 100.932 92.161 100.628 92.0336C100.763 92.3195 100.954 92.578 101.193 92.7947C101.422 93.02 101.694 93.2017 101.995 93.33C101.859 93.0522 101.67 92.8007 101.438 92.5883V92.5689ZM112.832 95.6777C112.602 95.4551 112.329 95.2757 112.029 95.1488C112.16 95.4349 112.35 95.6935 112.587 95.9099C112.819 96.1347 113.094 96.3162 113.396 96.4452C113.256 96.1664 113.065 95.9132 112.832 95.6971V95.6777ZM128.402 68.6725C128.17 68.4478 127.896 68.2662 127.593 68.1372C127.729 68.4242 127.92 68.6845 128.157 68.9047C128.388 69.1273 128.66 69.3068 128.96 69.4336C128.824 69.1558 128.635 68.9043 128.402 68.6919V68.6725ZM125.001 84.8679C124.773 84.6419 124.5 84.4601 124.198 84.3326C124.335 84.6196 124.526 84.8799 124.763 85.1001C124.993 85.3227 125.265 85.5021 125.566 85.629C125.428 85.349 125.234 85.0971 124.994 84.8873L125.001 84.8679ZM133.225 69.324C132.986 69.5401 132.794 69.7987 132.661 70.085C133.258 69.8171 133.739 69.3613 134.021 68.7951C133.718 68.9264 133.446 69.1127 133.218 69.3433L133.225 69.324ZM123.906 77.67C123.667 77.8861 123.475 78.1447 123.341 78.431C123.642 78.3042 123.914 78.1248 124.144 77.9022C124.381 77.682 124.573 77.4216 124.709 77.1346C124.404 77.2687 124.129 77.457 123.899 77.6893L123.906 77.67ZM108.308 84.0488C108.073 84.2669 107.884 84.5251 107.75 84.8099C108.05 84.683 108.323 84.5036 108.553 84.281C108.79 84.0608 108.981 83.8004 109.117 83.5135C108.811 83.6475 108.534 83.8358 108.301 84.0681L108.308 84.0488ZM106.825 94.0524C106.586 94.2713 106.395 94.532 106.26 94.8199C106.862 94.5584 107.345 94.1006 107.621 93.5299C107.322 93.6649 107.051 93.8482 106.818 94.0717L106.825 94.0524ZM118.539 97.7158C118.286 97.939 118.085 98.209 117.947 98.5092C118.249 98.3824 118.522 98.2005 118.75 97.9738C118.985 97.7585 119.174 97.5023 119.308 97.2192C119.018 97.3452 118.755 97.52 118.532 97.7352L118.539 97.7158ZM109.281 105.823C109.04 106.038 108.848 106.297 108.716 106.584C109.313 106.316 109.794 105.861 110.077 105.294C109.775 105.427 109.502 105.613 109.274 105.843L109.281 105.823ZM119.818 88.4088C119.581 88.6266 119.389 88.8848 119.253 89.1699C119.85 88.902 120.331 88.4461 120.614 87.8799C120.314 88.0051 120.042 88.1823 119.811 88.4024L119.818 88.4088ZM141.96 61.5262C141.723 61.745 141.533 62.0058 141.402 62.2937C141.702 62.1647 141.975 61.9831 142.204 61.7584C142.44 61.5392 142.631 61.2814 142.769 60.9973C142.465 61.1214 142.188 61.2986 141.953 61.5197L141.96 61.5262Z" fill="white"/>
<path d="M108.525 111.144C109.103 110.577 109.565 109.9 110.082 109.287C110.599 108.674 111.096 107.997 111.586 107.352C112.525 106.113 113.45 104.862 114.368 103.611C115.286 102.36 116.205 101.102 117.089 99.8441C117.973 98.5864 119.062 97.2642 119.892 95.9033C119.899 95.8978 119.905 95.8906 119.91 95.8824C119.914 95.8743 119.916 95.8653 119.916 95.8562C119.915 95.8471 119.913 95.8382 119.909 95.8301C119.904 95.8221 119.898 95.8152 119.89 95.8099C119.882 95.8046 119.873 95.8011 119.864 95.7997C119.854 95.7984 119.845 95.7991 119.835 95.8019C119.826 95.8047 119.818 95.8095 119.811 95.8159C119.804 95.8223 119.799 95.8301 119.796 95.8388C118.715 97.032 117.756 98.3736 116.803 99.6442C115.851 100.915 114.865 102.153 113.905 103.411C112.946 104.669 111.987 105.939 111.048 107.21C110.586 107.855 110.137 108.5 109.688 109.145C109.239 109.79 108.756 110.435 108.389 111.08C108.423 111.157 108.484 111.183 108.525 111.144Z" fill="#263238"/>
<path d="M152.482 63.919C150.074 64.7382 145.401 61.61 143.374 58.8882C143.238 58.7012 143.313 56.5663 143.265 53.9671C143.231 52.3933 143.156 50.639 142.966 49.0459C142.925 48.717 144.177 49.1878 144.177 49.1878L146.415 49.4522L153.816 50.3359C153.451 52.3959 153.355 54.4906 153.53 56.5728C153.557 56.7919 153.607 57.008 153.68 57.2177C153.68 57.2177 153.68 57.2822 153.68 57.3209C154.067 58.5528 154.809 63.1257 152.482 63.919Z" fill="#F7A9A0"/>
<path d="M153.68 57.2306C153.68 57.2306 153.68 57.2951 153.68 57.3338C153.325 57.4227 152.963 57.481 152.598 57.5079C145.476 58.1529 143.564 49.6455 143.564 49.6455L146.387 49.4585L153.789 50.3421C153.424 52.4022 153.328 54.4969 153.503 56.5791C153.538 56.8014 153.598 57.0197 153.68 57.2306Z" fill="#263238"/>
<path d="M140.531 36.7334C139.538 40.3453 141.987 50.5746 144.769 52.7611C148.796 55.9408 155.163 55.986 157.952 51.4711C160.673 47.0659 157.217 33.7923 154.129 31.8251C149.592 28.9098 141.987 31.393 140.531 36.7334Z" fill="#F7A9A0"/>
<path d="M149.788 42.8477C149.788 42.8477 149.734 42.8928 149.747 42.9186C149.931 43.6023 150.019 44.415 149.414 44.7826C149.414 44.7826 149.414 44.8278 149.414 44.8213C150.21 44.544 150.074 43.4669 149.788 42.8477Z" fill="#263238"/>
<path d="M148.966 42.2605C147.782 42.4218 148.211 44.6665 149.313 44.5182C150.415 44.3698 149.966 42.1251 148.966 42.2605Z" fill="#263238"/>
<path d="M154.217 41.9575C154.217 41.9575 154.278 41.9575 154.285 42.0091C154.394 42.7057 154.646 43.4925 155.346 43.6086V43.6473C154.523 43.686 154.204 42.6347 154.217 41.9575Z" fill="#263238"/>
<path d="M154.734 41.1064C155.891 40.8162 156.414 43.0411 155.34 43.312C154.265 43.5828 153.755 41.3579 154.734 41.1064Z" fill="#263238"/>
<path d="M147.836 41.3962C148.131 41.2579 148.417 41.1028 148.693 40.9319C149.019 40.7513 149.305 40.6416 149.475 40.2869C149.514 40.1876 149.516 40.0788 149.482 39.9782C149.447 39.8776 149.378 39.7909 149.285 39.7322C149.084 39.6384 148.859 39.5973 148.636 39.6132C148.412 39.6291 148.197 39.7013 148.013 39.8225C147.598 40.0139 147.273 40.345 147.101 40.7513C147.065 40.8465 147.06 40.9496 147.085 41.0479C147.11 41.1462 147.166 41.2352 147.244 41.3039C147.322 41.3726 147.42 41.418 147.525 41.4344C147.63 41.4509 147.739 41.4376 147.836 41.3962Z" fill="#263238"/>
<path d="M155.428 39.8161C155.1 39.8107 154.773 39.7891 154.448 39.7516C154.096 39.7728 153.746 39.682 153.455 39.4936C153.375 39.4192 153.324 39.3218 153.309 39.2167C153.294 39.1116 153.317 39.0048 153.373 38.9132C153.513 38.7472 153.697 38.6197 153.906 38.5437C154.116 38.4678 154.343 38.4461 154.564 38.4811C155.025 38.4852 155.468 38.6505 155.808 38.9455C155.881 39.0178 155.93 39.1086 155.949 39.2066C155.968 39.3047 155.956 39.4059 155.916 39.498C155.876 39.5901 155.808 39.6692 155.722 39.7256C155.635 39.7821 155.533 39.8135 155.428 39.8161Z" fill="#263238"/>
<path d="M150.537 49.2844C150.748 49.4199 150.966 49.6134 151.217 49.5876C151.487 49.5373 151.743 49.4316 151.965 49.278C151.965 49.278 152.02 49.278 152.006 49.278C151.928 49.4328 151.807 49.5644 151.656 49.6588C151.505 49.7532 151.33 49.8066 151.149 49.8134C150.995 49.7994 150.849 49.7431 150.728 49.6514C150.607 49.5598 150.517 49.4367 150.469 49.2973C150.455 49.2909 150.51 49.2651 150.537 49.2844Z" fill="#263238"/>
<path d="M150.911 47.072C151.149 47.3166 151.439 47.5112 151.761 47.6434C152.083 47.7756 152.431 47.8424 152.782 47.8396C153.088 47.8423 153.392 47.8032 153.687 47.7235L153.857 47.6783L154.006 47.6267C154.045 47.6139 154.078 47.5892 154.1 47.5564C154.122 47.5237 154.132 47.4849 154.129 47.4461V47.3752V47.3171C154.047 46.7753 153.836 45.9756 153.836 45.9756C154.061 46.0336 155.197 46.3045 155.129 46.0272C154.599 43.6258 153.815 41.2812 152.789 39.0291C152.782 39.0142 152.77 39.0021 152.754 38.9953C152.739 38.9885 152.721 38.9874 152.705 38.9923C152.689 38.9971 152.675 39.0076 152.667 39.0215C152.658 39.0355 152.656 39.052 152.659 39.0678C153.129 41.293 154.02 43.4214 154.53 45.6466C154.124 45.5447 153.705 45.4991 153.285 45.5112C153.21 45.5112 153.721 47.0591 153.741 47.3042C153.288 47.4269 152.814 47.4622 152.347 47.4079C151.879 47.3536 151.428 47.2109 151.02 46.9882C150.904 46.9688 150.857 47.0269 150.911 47.072Z" fill="#263238"/>
<path d="M153.319 47.6012C153.064 48.0259 152.696 48.3796 152.251 48.6267C152.006 48.7599 151.722 48.8142 151.442 48.7815C150.837 48.7105 150.762 48.201 150.762 47.7495C150.791 47.5079 150.848 47.27 150.932 47.04C151.643 47.4674 152.48 47.6643 153.319 47.6012Z" fill="#263238"/>
<path d="M152.231 48.6267C151.986 48.7599 151.702 48.8142 151.421 48.7815C150.816 48.7105 150.741 48.201 150.741 47.7496C151.058 47.7133 151.378 47.7804 151.649 47.9399C151.919 48.0994 152.125 48.3416 152.231 48.6267Z" fill="#FF9ABB"/>
<path d="M141.523 44.5181C144.02 44.0538 143.639 39.6743 143.639 39.6743C143.639 39.6743 147.788 38.236 147.795 35.0627C147.795 35.0627 152.353 36.7913 155.332 35.1143C158.312 33.4374 157.101 29.7481 156.591 29.0838C155.428 27.5616 153.19 30.1931 153.19 30.1931C153.19 30.1931 148.693 28.6065 144.21 29.8642C140.557 30.8897 139.36 34.5467 139.36 34.5467C139.36 34.5467 137.442 35.3143 137.061 36.759C136.68 38.2038 139.938 44.8084 141.523 44.5181Z" fill="#263238"/>
<path d="M142.64 39.8872C146.041 39.7066 147.81 37.217 147.687 34.1211H147.748C148.218 36.9461 146.089 40.5709 142.633 40.042C142.611 40.0411 142.591 40.0322 142.576 40.017C142.562 40.0019 142.554 39.9819 142.555 39.9614C142.556 39.9408 142.565 39.9215 142.581 39.9076C142.597 39.8937 142.618 39.8863 142.64 39.8872Z" fill="#263238"/>
<path d="M139.456 34.4758C139.456 34.4758 139.517 34.5145 139.456 34.5339C138.606 35.1079 137.606 35.6045 137.116 36.5268C136.524 37.6362 136.953 38.8745 137.463 39.9259C138.266 41.5447 139.633 43.5893 141.442 44.2988C141.551 44.3439 141.442 44.4858 141.374 44.4536C139.232 43.7248 137.531 41.0546 136.858 39.0938C136.143 36.9009 137.361 35.3594 139.456 34.4758Z" fill="#263238"/>
<path d="M151.591 35.2241C152.445 35.542 153.378 35.613 154.274 35.4282C155.17 35.2434 155.988 34.811 156.625 34.1857C158.122 32.5991 157.346 30.5932 156.258 29.026C156.203 28.9486 156.305 28.8325 156.38 28.9034C157.707 30.232 158.237 32.5281 157.06 34.1083C155.884 35.6884 153.292 36.1722 151.489 35.4756C151.346 35.3982 151.442 35.166 151.591 35.2241Z" fill="#263238"/>
<path d="M143.231 45.0405C143.231 45.0405 140.551 41.8544 139.013 42.7767C137.476 43.699 139.639 48.4201 141.557 48.9683C141.798 49.0546 142.054 49.0939 142.311 49.0838C142.567 49.0737 142.819 49.0144 143.051 48.9096C143.283 48.8047 143.491 48.6565 143.66 48.4737C143.83 48.2909 143.96 48.0774 144.04 47.8461L143.231 45.0405Z" fill="#F7A9A0"/>
<path d="M139.667 44.1182C139.667 44.1182 139.667 44.1569 139.667 44.1633C141.027 44.589 141.783 45.7048 142.347 46.8722C142.263 46.752 142.152 46.6506 142.022 46.575C141.892 46.4993 141.746 46.4513 141.595 46.4341C141.444 46.417 141.29 46.4311 141.145 46.4755C141.001 46.52 140.867 46.5937 140.755 46.6916C140.721 46.6916 140.755 46.7625 140.796 46.7561C141.022 46.6724 141.269 46.6573 141.505 46.7127C141.74 46.7682 141.951 46.8915 142.109 47.0657C142.373 47.356 142.602 47.6741 142.789 48.0138C142.857 48.1234 143.068 48.0525 143.014 47.9299C142.925 46.3111 141.476 44.1698 139.667 44.1182Z" fill="#263238"/>
<path d="M153.796 57.5983L151.496 63.79L143.177 56.418L141.027 58.9979C141.027 58.9979 149.381 70.9041 149.408 70.3495L151.809 65.0026L155.795 68.4919L155.068 59.3526L153.796 57.5983Z" fill="#F66D1D"/>
<path d="M155.707 63.9382C155.53 62.429 155.401 60.9069 155.156 59.4234C155.156 59.3718 155.054 59.3525 155.047 59.4234C154.796 60.894 155.489 66.6471 155.544 68.0338C155.381 67.8855 151.864 64.9702 151.83 65.0218C151.299 65.8796 149.53 69.7753 149.415 70.1235C148.088 68.2338 143.048 61.3648 141.504 59.5911C141.496 59.5792 141.483 59.5707 141.468 59.5677C141.453 59.5647 141.438 59.5673 141.425 59.575C141.413 59.5827 141.404 59.5948 141.401 59.6087C141.398 59.6227 141.4 59.6372 141.408 59.6492C142.592 61.655 149.279 70.904 149.367 70.8782C150.31 69.0356 151.15 67.1476 151.884 65.2217C152.483 65.8667 156.054 69.169 156.054 68.9432C156.029 67.2704 155.913 65.5999 155.707 63.9382Z" fill="#263238"/>
<path d="M201.209 13.2241C201.214 15.652 200.506 18.0333 199.164 20.1011C197.822 22.169 195.899 23.8416 193.611 24.9317C191.323 26.0218 188.76 26.4862 186.209 26.273C183.658 26.0597 181.22 25.1771 179.169 23.7242L172.407 25.3624L175.223 19.3964C174.234 17.6432 173.679 15.6991 173.6 13.7119C173.522 11.7248 173.923 9.74685 174.772 7.92855C175.621 6.11025 176.896 4.49945 178.501 3.21862C180.105 1.93779 181.996 1.02065 184.03 0.536931C186.065 0.0532078 188.189 0.015639 190.24 0.42708C192.292 0.83852 194.218 1.68814 195.872 2.91134C197.526 4.13454 198.863 5.69912 199.783 7.48612C200.703 9.27312 201.181 11.2355 201.181 13.2241H201.209Z" fill="white"/>
<path d="M201.208 13.2239C201.209 15.6482 200.502 18.0254 199.167 20.0929C198.834 20.608 198.469 21.1034 198.072 21.5764C197.662 22.0325 197.221 22.4633 196.753 22.8663C194.875 24.5297 192.549 25.6682 190.032 26.1557C189.404 26.2756 188.767 26.3511 188.127 26.3814C187.486 26.4298 186.843 26.4298 186.202 26.3814C183.616 26.1985 181.135 25.3339 179.039 23.8854L179.243 23.9241L172.509 25.6268L171.91 25.7816L172.162 25.2398L174.951 19.2609V19.5382C173.941 17.7662 173.37 15.799 173.282 13.7863C173.195 11.7736 173.593 9.76851 174.446 7.9237C175.3 6.07888 176.585 4.44295 178.206 3.14044C179.827 1.83794 181.739 0.903196 183.799 0.407375C185.858 -0.0884455 188.009 -0.132273 190.089 0.279226C192.169 0.690726 194.122 1.54671 195.8 2.782C197.478 4.0173 198.837 5.59935 199.773 7.40772C200.709 9.21609 201.198 11.2031 201.201 13.2175L201.208 13.2239ZM201.208 13.2239C201.215 11.244 200.74 9.28923 199.822 7.51103C198.904 5.73284 197.566 4.17895 195.912 2.96974C194.259 1.76053 192.334 0.928443 190.287 0.537941C188.239 0.147438 186.125 0.209001 184.107 0.717857C182.101 1.2097 180.239 2.12961 178.665 3.4074C177.135 4.69169 175.915 6.27334 175.087 8.04478C174.266 9.82554 173.88 11.7592 173.958 13.7012C174.048 15.6384 174.589 17.5326 175.543 19.248L175.617 19.3835L175.556 19.5189L172.713 25.4785L172.366 25.085L179.168 23.5049H179.284L179.372 23.5758C181.375 25.0247 183.763 25.9179 186.27 26.1557C186.896 26.2148 187.526 26.2256 188.154 26.188C188.782 26.1675 189.407 26.105 190.025 26.0009C191.267 25.7887 192.471 25.4132 193.603 24.8851C194.743 24.3637 195.795 23.6857 196.725 22.8728C197.193 22.467 197.636 22.0364 198.052 21.5828C198.45 21.1144 198.818 20.6233 199.154 20.1123C200.497 18.0403 201.208 15.6559 201.208 13.2239Z" fill="#263238"/>
<path d="M187.911 12.6114V7.78052C188.937 7.94269 189.905 8.33891 190.734 8.93502C190.907 9.07322 191.127 9.14664 191.353 9.14141C191.589 9.14842 191.818 9.06708 191.991 8.91499C192.164 8.76291 192.267 8.5523 192.278 8.32875C192.271 8.1812 192.225 8.03777 192.142 7.91235C192.06 7.78693 191.945 7.68375 191.808 7.61282C190.672 6.84387 189.346 6.3642 187.958 6.21968V5.73595C187.939 5.5271 187.838 5.33271 187.675 5.1911C187.512 5.04949 187.299 4.97095 187.077 4.97095C186.856 4.97095 186.643 5.04949 186.48 5.1911C186.317 5.33271 186.216 5.5271 186.197 5.73595V6.16808C183.442 6.34222 181.482 7.92241 181.482 10.0379C181.482 12.1534 182.911 13.2628 186.244 13.9658V18.8999C184.824 18.7208 183.493 18.1436 182.421 17.2423C182.246 17.0975 182.021 17.0194 181.789 17.023C181.558 17.0244 181.336 17.1092 181.169 17.2603C181.002 17.4114 180.903 17.6172 180.891 17.8357C180.894 17.9637 180.93 18.0892 180.995 18.2014C181.06 18.3136 181.152 18.4094 181.265 18.4806C182.668 19.5745 184.382 20.248 186.19 20.4156V21.6604C186.209 21.8692 186.31 22.0636 186.473 22.2052C186.636 22.3468 186.849 22.4254 187.071 22.4254C187.292 22.4254 187.505 22.3468 187.668 22.2052C187.831 22.0636 187.932 21.8692 187.952 21.6604V20.4672C190.802 20.2801 192.761 18.6999 192.761 16.5522C192.774 14.4818 191.264 13.2693 187.911 12.6114ZM186.237 12.276C183.782 11.702 183.299 10.986 183.299 9.92828C183.299 8.73508 184.516 7.83212 186.237 7.69667V12.276ZM190.938 16.5973C190.938 17.8873 189.707 18.7773 187.911 18.9128V14.269C190.428 14.8172 190.938 15.546 190.938 16.5973Z" fill="#F66D1D"/>
</svg>
