<svg width="963" height="390" viewBox="0 0 963 390" fill="none" xmlns="http://www.w3.org/2000/svg">
<path d="M0 345.681L124.953 345.336L249.891 345.207L499.783 344.963L749.674 345.207L874.612 345.336L999.565 345.681L874.612 346.041L749.674 346.156L499.783 346.4L249.891 346.156L124.953 346.026L0 345.681Z" fill="#263238"/>
<path d="M316.181 354.161H107.279L91.1044 219.631H300.007L316.181 354.161Z" fill="#37474F"/>
<path d="M304.797 345.134H116.496L102.489 228.657H290.791L304.797 345.134Z" fill="white"/>
<path d="M434.267 345.135H219.847V354.161H434.267V345.135Z" fill="#37474F"/>
<path d="M434.252 345.135H326.337V354.161H434.252V345.135Z" fill="#263238"/>
<path d="M238.28 228.657L116.389 344.229L112.751 314.003L202.748 228.657H238.28Z" fill="#EBEBEB"/>
<path d="M301.613 318.603L273.63 345.135H238.098L297.975 288.362L301.613 318.603Z" fill="#EBEBEB"/>
<path d="M125.818 228.657L104.884 248.506L103.641 238.2L113.706 228.657H125.818Z" fill="#EBEBEB"/>
<path d="M295.641 268.93L215.27 345.135H203.143L294.398 258.61L295.641 268.93Z" fill="#EBEBEB"/>
<path d="M141.613 228.657L106.491 261.959L106.187 259.372L138.582 228.657H141.613Z" fill="#EBEBEB"/>
<path d="M255.697 228.657L132.851 345.134H129.82L252.666 228.657H255.697Z" fill="#EBEBEB"/>
<path d="M293.594 251.898L195.259 345.135H192.228L293.291 249.311L293.594 251.898Z" fill="#EBEBEB"/>
<path d="M682.142 354.161H891.06L907.219 219.631H698.317L682.142 354.161Z" fill="#37474F"/>
<path d="M693.527 345.134H881.843L895.835 228.657H707.533L693.527 345.134Z" fill="white"/>
<path d="M778.491 345.135H564.071V354.161H778.491V345.135Z" fill="#37474F"/>
<path d="M671.986 345.135H564.071V354.161H671.986V345.135Z" fill="#263238"/>
<path d="M890.423 273.773L885.845 311.804L850.692 345.135H815.16L890.423 273.773Z" fill="#EBEBEB"/>
<path d="M823.649 228.657L700.818 345.134H693.527L697.165 314.908L788.132 228.657H823.649Z" fill="#EBEBEB"/>
<path d="M743.626 228.657L702.894 267.277L704.456 254.298L731.499 228.657H743.626Z" fill="#EBEBEB"/>
<path d="M877.614 228.657L754.768 345.134H742.641L865.487 228.657H877.614Z" fill="#EBEBEB"/>
<path d="M892.166 259.257L891.787 262.505L804.64 345.135H801.608L892.166 259.257Z" fill="#EBEBEB"/>
<path d="M890.332 228.657L767.501 345.134H764.469L887.315 228.657H890.332Z" fill="#EBEBEB"/>
<path d="M775.914 228.657L698.726 301.843L699.12 298.595L772.882 228.657H775.914Z" fill="#EBEBEB"/>
<path d="M301.385 151.619C327.292 201.22 365.658 250.792 375.936 260.077C403.555 285.2 477.287 303.267 499.025 303.842C508.408 304.086 521.384 244.985 514.456 238.101C507.529 231.216 416.501 212.431 411.62 208.895C408.239 206.38 364.87 167.243 336.069 144.002C300.249 115.127 294.579 138.54 301.385 151.619Z" fill="#F7A9A0"/>
<path d="M494.356 229.836L470.845 300.191C470.845 300.191 393.809 280.975 373.193 262.175C352.577 243.376 309.875 176.082 301.538 153.89C293.2 131.699 298.627 114.178 336.403 142.967C374.178 171.756 406.209 201.206 412.894 205.949C419.579 210.692 494.356 229.836 494.356 229.836Z" fill="#455A64"/>
<path d="M470.497 232.653C470.61 233.356 470.941 234.011 471.447 234.535C471.954 235.059 472.613 235.429 473.341 235.598C474.069 235.767 474.833 235.728 475.538 235.485C476.242 235.242 476.855 234.806 477.298 234.233C477.742 233.66 477.996 232.975 478.028 232.265C478.061 231.555 477.871 230.851 477.482 230.244C477.093 229.636 476.523 229.152 475.843 228.851C475.164 228.551 474.406 228.449 473.665 228.557C472.672 228.702 471.78 229.215 471.186 229.983C470.592 230.752 470.344 231.712 470.497 232.653Z" fill="#263238"/>
<path d="M451.624 227.494C451.734 228.197 452.063 228.854 452.568 229.38C453.073 229.907 453.731 230.279 454.46 230.45C455.188 230.622 455.953 230.584 456.659 230.342C457.365 230.1 457.979 229.665 458.424 229.092C458.869 228.519 459.124 227.834 459.158 227.123C459.191 226.413 459.001 225.708 458.612 225.1C458.223 224.492 457.653 224.006 456.972 223.706C456.292 223.405 455.533 223.303 454.792 223.412C454.301 223.482 453.829 223.643 453.404 223.887C452.979 224.13 452.609 224.45 452.314 224.829C452.02 225.209 451.807 225.639 451.689 226.096C451.57 226.553 451.548 227.028 451.624 227.494Z" fill="#263238"/>
<path d="M414.014 282.757C397.143 276.548 381.059 269.318 373.192 262.175C352.576 243.49 309.874 176.082 301.537 153.89C296.201 139.704 296.489 127.43 307.252 127.933L414.014 282.757Z" fill="#263238"/>
<path d="M178.509 345.107H372.995C373.783 338.366 333.764 150.47 314.71 126.913C310.632 121.868 297.186 120.474 285.772 121.825C282.79 122.146 279.843 122.714 276.965 123.521C276.873 123.56 276.776 123.589 276.677 123.607C274.35 124.24 272.159 125.257 270.204 126.611C238.416 150.714 176.978 343.454 178.509 345.107Z" fill="#455A64"/>
<path d="M298.885 169.427L307.161 154.163L317.833 165.202L315.226 176.197L304.675 177.476L298.885 169.427Z" fill="#263238"/>
<path d="M304.675 177.476L299.642 289.771L321.834 326.911L333.355 285.114L315.225 176.197L304.675 177.476Z" fill="#263238"/>
<path d="M304.372 152.123C301.34 152.008 280.997 136.945 274.752 125.202C274.328 124.398 275.904 116.119 277.314 105.957C278.132 99.7913 278.83 92.9068 279.133 86.5827C279.133 85.2748 283.756 87.8188 283.756 87.8188L292.321 90.0609L320.668 97.5492C320.668 97.5492 316.12 110.686 315.756 121.724C315.743 122.6 315.809 123.475 315.953 124.34C315.964 124.484 315.964 124.628 315.953 124.771C316.681 129.73 309.39 152.31 304.372 152.123Z" fill="#F7A9A0"/>
<path d="M315.953 124.312C315.964 124.455 315.964 124.599 315.953 124.743C314.523 124.877 313.083 124.901 311.648 124.815C283.468 123.377 281.149 89.2275 281.149 89.2275L292.275 90.0324L320.622 97.5206C320.622 97.5206 316.075 110.657 315.711 121.696C315.713 122.573 315.794 123.448 315.953 124.312Z" fill="#263238"/>
<path d="M272.554 40.0719C268.294 54.2291 276.965 94.7749 287.712 103.657C303.28 116.593 328.383 117.34 339.813 99.6617C350.894 82.5436 338.631 29.8959 326.655 21.8615C309.041 10.0326 278.829 19.145 272.554 40.0719Z" fill="#F7A9A0"/>
<path d="M314.847 63.672C314.847 63.5714 314.65 63.8445 314.68 63.9451C315.332 66.6616 315.62 69.8811 313.164 71.2753C313.088 71.2753 313.164 71.4621 313.164 71.4334C316.363 70.3985 315.984 66.1442 314.847 63.672Z" fill="#263238"/>
<path d="M311.724 61.3006C307.025 61.8324 308.495 70.7148 312.845 70.2261C317.196 69.7374 315.665 60.8407 311.724 61.3006Z" fill="#263238"/>
<path d="M331.778 61.6165C331.778 61.5016 332.021 61.7028 332.036 61.8178C332.4 64.5917 333.309 67.6963 336.083 68.2137C336.174 68.2137 336.189 68.3718 336.083 68.3718C332.809 68.4293 331.657 64.2899 331.778 61.6165Z" fill="#263238"/>
<path d="M333.886 58.3545C338.433 57.3196 340.343 66.1446 336.068 67.0932C331.794 68.0418 330.005 59.2169 333.886 58.3545Z" fill="#263238"/>
<path d="M307.358 57.7798C308.535 57.2579 309.678 56.6724 310.784 56.0263C312.082 55.5715 313.185 54.7225 313.922 53.6116C314.08 53.2192 314.097 52.7884 313.971 52.3857C313.845 51.983 313.583 51.6309 313.225 51.3838C312.438 50.9978 311.556 50.8182 310.671 50.8637C309.786 50.9092 308.93 51.1781 308.192 51.6425C306.546 52.3665 305.24 53.6408 304.524 55.2214C304.383 55.5914 304.358 55.9924 304.453 56.3753C304.549 56.7583 304.76 57.1067 305.06 57.3779C305.361 57.6492 305.738 57.8317 306.146 57.903C306.554 57.9744 306.975 57.9316 307.358 57.7798Z" fill="#263238"/>
<path d="M336.766 53.338C335.432 53.338 334.204 53.108 332.9 52.9787C331.515 53.0343 330.149 52.6499 329.02 51.8863C328.708 51.5878 328.512 51.1986 328.463 50.7814C328.413 50.3642 328.513 49.9433 328.747 49.5867C329.316 48.9431 330.055 48.4547 330.889 48.1718C331.723 47.8889 332.621 47.8216 333.491 47.9769C335.307 48.0404 337.034 48.7363 338.342 49.9316C338.619 50.2235 338.802 50.5849 338.868 50.9726C338.934 51.3603 338.88 51.7577 338.714 52.1173C338.547 52.4769 338.275 52.7833 337.929 52.9998C337.584 53.2163 337.18 53.3337 336.766 53.338Z" fill="#263238"/>
<path d="M316.438 89.6149C317.242 90.1467 318.091 90.9372 319.152 90.8653C320.239 90.6876 321.273 90.2906 322.184 89.7011C322.203 89.6944 322.223 89.693 322.243 89.6972C322.263 89.7013 322.281 89.7107 322.296 89.7243C322.31 89.7379 322.32 89.7552 322.324 89.774C322.329 89.7928 322.327 89.8124 322.32 89.8305C321.997 90.4325 321.508 90.9402 320.904 91.2996C320.301 91.659 319.606 91.8566 318.894 91.8714C318.276 91.8124 317.691 91.5817 317.211 91.2085C316.731 90.8352 316.378 90.3358 316.196 89.773C316.12 89.6293 316.363 89.5287 316.438 89.6149Z" fill="#263238"/>
<path d="M327.504 82.8452C326.528 84.5418 325.108 85.9721 323.381 86.999C322.425 87.5313 321.316 87.7627 320.213 87.6602C317.787 87.4302 317.408 85.4324 317.545 83.6358C317.626 82.6875 317.824 81.7517 318.136 80.8474C320.955 82.441 324.237 83.1408 327.504 82.8452Z" fill="white"/>
<path d="M318.136 80.9195C319.062 81.8936 320.19 82.676 321.45 83.2176C322.71 83.7593 324.074 84.0485 325.457 84.0671C326.668 84.1025 327.878 83.9717 329.05 83.6791C329.278 83.6436 329.501 83.5858 329.717 83.5066C329.914 83.5066 330.111 83.406 330.338 83.3197C330.487 83.267 330.613 83.1696 330.698 83.0425C330.783 82.9153 330.822 82.7654 330.808 82.6155C330.799 82.5211 330.774 82.4288 330.732 82.3424V82.0981C330.444 79.9709 329.686 76.7801 329.686 76.7801C330.566 77.0532 335.022 78.2174 334.78 77.1107C332.688 68.0271 330.353 57.9373 326.245 49.3136C326.217 49.2563 326.168 49.2107 326.107 49.1854C326.046 49.1601 325.977 49.1569 325.914 49.1763C325.85 49.1958 325.797 49.2366 325.763 49.291C325.729 49.3454 325.717 49.4097 325.73 49.4717C327.367 58.2679 330.641 66.7191 332.46 75.5584C330.869 75.1223 329.221 74.8997 327.564 74.8973C327.261 75.041 329.08 81.0488 329.186 82.0118V82.1124C325.503 83.1329 322.486 82.4717 318.454 80.6751C318.12 80.5027 317.878 80.7183 318.136 80.9195Z" fill="#263238"/>
<path d="M277.586 71.692C287.788 70.2547 287.061 52.3893 287.061 52.3893C287.061 52.3893 304.175 47.2294 304.796 34.3658C304.796 34.3658 322.987 42.1415 335.386 35.803C347.786 29.4646 342.875 15.8392 340.965 13.0365C339.055 10.2338 332.658 16.8166 332.658 16.8166C332.658 16.8166 330.596 8.98338 328.247 8.48033C325.897 7.97728 324.184 13.1227 324.184 13.1227C324.184 13.1227 306.494 10.1045 291.26 12.6341C276.025 15.1637 270.704 30.8875 270.704 30.8875C270.704 30.8875 262.776 33.6615 260.972 39.5112C259.169 45.361 271.068 72.5687 277.586 71.692Z" fill="#263238"/>
<path d="M283.013 53.0794C296.838 52.907 304.523 43.1191 304.599 30.5284C304.608 30.5031 304.626 30.4811 304.649 30.4655C304.672 30.45 304.7 30.4416 304.728 30.4416C304.756 30.4416 304.784 30.45 304.807 30.4655C304.83 30.4811 304.847 30.5031 304.857 30.5284C306.221 42.0267 296.898 56.3996 282.968 53.6831C282.573 53.5969 282.589 53.0794 283.013 53.0794Z" fill="#263238"/>
<path d="M271.038 30.5715C271.07 30.565 271.104 30.5686 271.134 30.5819C271.164 30.5951 271.188 30.6172 271.204 30.6448C271.219 30.6725 271.224 30.7041 271.219 30.735C271.214 30.7658 271.198 30.7942 271.174 30.8158C267.627 33.0149 263.474 34.8546 261.306 38.5053C258.699 42.9178 260.184 48.0201 262.094 52.3607C265.02 59.0728 270.219 67.6103 277.42 70.8011C277.844 70.9879 277.526 71.5628 277.117 71.4047C268.537 68.0846 262.14 56.96 259.79 48.8969C257.153 39.8707 262.382 33.7623 271.038 30.5715Z" fill="#263238"/>
<path d="M320.213 35.9042C326.716 38.4913 335.599 37.3414 340.859 32.7134C347.256 26.9643 344.543 19.4185 340.45 13.3388C340.253 13.0513 340.692 12.6346 340.965 12.9076C346.074 18.0387 347.756 26.6768 342.678 32.3972C337.6 38.1176 326.928 39.5836 319.758 36.709C319.167 36.5222 319.606 35.6598 320.213 35.9042Z" fill="#263238"/>
<path d="M312.482 79.755C310.128 79.8415 307.795 79.2997 305.75 78.1911C303.705 77.0825 302.029 75.4518 300.913 73.4846C299.798 71.5173 299.287 69.2926 299.439 67.0636C299.591 64.8346 300.401 62.6909 301.775 60.8765C303.149 59.0622 305.032 57.65 307.211 56.8008C309.39 55.9516 311.777 55.6995 314.099 56.0731C316.422 56.4468 318.587 57.4312 320.349 58.9143C322.11 60.3975 323.397 62.3197 324.063 64.4623C325.003 67.4946 324.636 70.7567 323.041 73.5324C321.447 76.308 318.756 78.3702 315.559 79.2663C314.558 79.5475 313.525 79.7116 312.482 79.755ZM311.587 57.5058C310.684 57.5475 309.789 57.6873 308.92 57.9226C306.264 58.6681 304.008 60.3452 302.611 62.6125C301.215 64.8798 300.782 67.5667 301.401 70.1259C302.021 72.6852 303.646 74.9243 305.945 76.3873C308.245 77.8503 311.046 78.4271 313.779 78.0002C316.511 77.5733 318.969 76.1748 320.653 74.0896C322.336 72.0044 323.117 69.3893 322.838 66.7769C322.558 64.1645 321.239 61.7513 319.149 60.0288C317.059 58.3063 314.355 57.4041 311.587 57.5058Z" fill="#455A64"/>
<path d="M340.965 75.4432C336.159 75.6156 331.612 71.1313 330.596 64.9654C330.063 62.0352 330.508 59.0203 331.87 56.3417C332.421 55.1796 333.26 54.1609 334.315 53.3726C335.371 52.5843 336.612 52.0497 337.933 51.8142C339.262 51.654 340.612 51.8032 341.867 52.249C343.121 52.6947 344.243 53.4236 345.133 54.3726C347.286 56.5345 348.679 59.2763 349.12 62.2202C350.181 68.7167 346.907 74.6239 341.814 75.3713C341.533 75.418 341.249 75.4421 340.965 75.4432ZM338.812 53.3234H338.176C337.124 53.5307 336.139 53.9725 335.304 54.6124C334.468 55.2523 333.805 56.0717 333.37 57.0028C332.17 59.3851 331.783 62.063 332.264 64.6635C333.188 70.2833 337.327 74.3652 341.526 73.7472C345.725 73.1291 348.362 67.998 347.437 62.407C347.061 59.7952 345.837 57.3591 343.936 55.4362C343.281 54.7676 342.489 54.2337 341.607 53.8678C340.726 53.5018 339.774 53.3116 338.812 53.309V53.3234Z" fill="#455A64"/>
<path d="M323.942 65.929L322.683 64.8797C324.321 63.0975 328.338 60.4385 331.885 63.0688L330.854 64.3192C327.61 61.9621 324.017 65.7709 323.942 65.929Z" fill="#455A64"/>
<path d="M269.006 77.1395L267.49 76.6365C267.733 75.9322 270.022 69.7232 273.554 68.6021C277.086 67.481 299.536 66.2449 300.491 66.1874L300.597 67.7828C294.109 68.1565 276.692 69.3063 274.085 70.1112C271.477 70.9161 269.613 75.4435 269.006 77.1395Z" fill="#455A64"/>
<path d="M284.074 73.4887C284.074 73.4887 273.842 60.6969 267.672 64.2182C261.503 67.7396 269.598 86.5105 277.101 88.8533C278.042 89.2052 279.047 89.3751 280.057 89.3531C281.068 89.3311 282.064 89.1177 282.986 88.7252C283.909 88.3328 284.739 87.7694 285.428 87.0682C286.118 86.3669 286.652 85.542 287 84.642L284.074 73.4887Z" fill="#F7A9A0"/>
<path d="M270.143 69.5501C270.022 69.5501 270.007 69.6938 270.143 69.737C275.419 71.5336 278.329 75.9891 280.436 80.6316C278.814 78.8781 276.677 77.9582 274.176 79.7836C274.154 79.8081 274.14 79.8384 274.137 79.8704C274.133 79.9024 274.14 79.9346 274.157 79.9627C274.173 79.9908 274.199 80.0135 274.229 80.0277C274.259 80.0419 274.294 80.047 274.327 80.0423C275.228 79.7356 276.207 79.7009 277.13 79.9428C278.053 80.1847 278.874 80.6914 279.481 81.3933C280.492 82.5672 281.362 83.8447 282.073 85.2021C282.346 85.6333 283.165 85.3602 282.968 84.8572V84.7566C282.74 78.49 277.253 69.9094 270.143 69.5501Z" fill="#263238"/>
<path d="M316.105 125.288L305.979 148.846L275.297 119.094L266.551 128.623C266.551 128.623 296.535 175.852 296.717 173.725L306.964 153.517L321.653 167.616L320.546 132.288L316.105 125.288Z" fill="#455A64"/>
<path d="M322.153 150.182C321.759 144.347 321.532 138.468 320.865 132.676C320.865 132.46 320.501 132.374 320.44 132.676C319.197 138.296 320.819 160.574 320.774 165.906C320.167 165.302 307.131 153.502 307.025 153.689C304.812 156.894 297.293 171.612 296.777 172.949C292.033 165.446 273.873 138.166 268.249 131.066C268.217 131.027 268.172 131.001 268.121 130.991C268.071 130.981 268.018 130.99 267.973 131.015C267.928 131.039 267.895 131.079 267.879 131.125C267.862 131.172 267.865 131.222 267.885 131.267C272.069 139.201 296.11 175.924 296.489 175.823C300.438 168.881 304.01 161.753 307.191 154.465C309.39 157.024 322.517 170.275 322.562 169.47C322.787 163.039 322.65 156.6 322.153 150.182Z" fill="#263238"/>
<path d="M379.68 371.035L228.23 385.25L227.745 273.932L379.195 259.703L379.68 371.035Z" fill="#F66D1D"/>
<path d="M277.177 256.972L227.608 261.629L227.744 273.932L280.785 268.945L277.177 256.972Z" fill="#F66D1D"/>
<g opacity="0.1">
<path opacity="0.1" d="M379.68 371.036L228.229 385.25L227.744 273.933L379.195 259.704L379.68 371.036Z" fill="black"/>
<path opacity="0.1" d="M277.177 256.972L227.608 261.629L227.744 273.932L280.785 268.945L277.177 256.972Z" fill="black"/>
</g>
<path d="M379.575 371.049L233.505 384.761L212.617 273.127L368.312 260.738L379.575 371.049Z" fill="#EBEBEB"/>
<path d="M379.574 371.049L229.791 385.106L207.401 277.813L364.855 263.037L379.574 371.049Z" fill="white"/>
<path d="M379.301 371.078L227.532 385.321L205.37 280.342L357.154 266.099L379.301 371.078Z" fill="#F66D1D"/>
<path d="M249.846 143.427C198.079 187.983 160.713 264.733 161.926 285.416C163.442 312.724 215.648 359.465 249.649 372.99C258.244 376.41 291.502 309.663 278.921 306.185C265.642 302.52 234.96 276.131 233.445 274.924C230.261 272.365 255 213.969 265.354 178.525C276.95 138.497 271.629 124.685 249.846 143.427Z" fill="#F7A9A0"/>
<path d="M230.367 362.785C263.307 385.322 308.056 390.209 315.771 389.461C322.365 388.843 325.746 388.469 325.746 388.469C337.585 387.593 341.829 382.275 341.829 382.275C341.829 382.275 355.836 385.063 359.019 377.33C362.627 368.707 342.254 366.421 331.855 358.646C308.01 340.953 279.33 309.476 272.994 303.727L230.367 362.785Z" fill="#F7A9A0"/>
<path d="M293.124 356.806C300.249 361.88 307.116 367.039 314.922 371.179C323.502 375.706 332.552 378.71 341.693 381.987C341.742 382.012 341.78 382.053 341.801 382.102C341.822 382.151 341.825 382.205 341.809 382.255C341.793 382.306 341.759 382.35 341.713 382.379C341.667 382.409 341.612 382.423 341.556 382.418C323.145 378.465 306.227 369.806 292.639 357.381C292.321 357.151 292.76 356.562 293.124 356.806Z" fill="#263238"/>
<path d="M279.769 368.908C286.985 373.479 299.733 381.441 325.822 388.211C325.913 388.211 325.897 388.369 325.822 388.354C308.793 386.333 292.691 379.864 279.315 369.67C278.875 369.296 279.284 368.649 279.769 368.908Z" fill="#263238"/>
<path d="M304.538 335.664C302.401 332.186 304.311 331.093 311.314 333.709C318.318 336.325 343.769 352.394 348.908 343.454C354.047 334.514 317.878 312.48 305.751 308.973C293.624 305.466 272.963 303.785 272.963 303.785C279.132 309.433 292.639 324.453 304.538 335.664Z" fill="#F7A9A0"/>
<path d="M231.549 367.801L272.796 302.161C272.796 302.161 234.202 276.491 234.02 273.932C233.838 271.374 261.139 200.631 269.386 165.82C277.632 131.009 273.554 114.408 237.416 153.215C201.277 192.022 154.937 257.317 157.393 285.301C159.849 313.285 231.549 367.801 231.549 367.801Z" fill="#455A64"/>
<path d="M262.534 199.05C261.018 201.536 259.426 203.98 258.077 206.538C257.622 207.372 257.183 208.205 256.743 209.039C257.077 208.033 257.425 207.041 257.774 206.035C259.881 199.725 261.927 193.387 263.716 186.977C263.73 186.94 263.729 186.9 263.712 186.865C263.694 186.83 263.663 186.803 263.625 186.79C263.587 186.776 263.545 186.778 263.508 186.794C263.471 186.81 263.442 186.84 263.428 186.876C258.668 197.742 254.727 208.938 250.816 220.106C246.905 231.274 243.237 242.671 239.659 254.026C237.689 260.379 235.658 266.76 234.111 273.214C234.12 273.236 234.135 273.255 234.156 273.268C234.176 273.281 234.2 273.289 234.225 273.289C234.25 273.289 234.274 273.281 234.294 273.268C234.315 273.255 234.33 273.236 234.339 273.214C236.612 267.68 238.538 262.003 240.508 256.369C242.479 250.735 244.48 245.115 246.405 239.481C249.437 230.483 252.468 221.481 255.5 212.474C256.796 210.786 257.904 208.975 258.805 207.07C260.215 204.454 261.336 201.723 262.579 199.05H262.534Z" fill="#263238"/>
<path d="M224.228 351.315C223.995 351.991 223.978 352.717 224.181 353.402C224.383 354.086 224.795 354.699 225.364 355.161C225.933 355.624 226.635 355.916 227.379 356C228.123 356.085 228.878 355.958 229.546 355.636C230.215 355.314 230.767 354.812 231.134 354.192C231.501 353.572 231.666 352.863 231.608 352.154C231.55 351.445 231.271 350.769 230.808 350.21C230.344 349.652 229.716 349.236 229.003 349.016C228.048 348.725 227.011 348.804 226.117 349.234C225.222 349.665 224.544 350.413 224.228 351.315Z" fill="#263238"/>
<path d="M209.812 338.682C209.582 339.358 209.568 340.084 209.772 340.767C209.977 341.451 210.391 342.061 210.961 342.522C211.532 342.983 212.234 343.272 212.978 343.355C213.722 343.437 214.476 343.309 215.143 342.986C215.81 342.662 216.361 342.159 216.727 341.538C217.092 340.918 217.255 340.209 217.196 339.501C217.136 338.792 216.857 338.117 216.392 337.559C215.928 337.002 215.3 336.587 214.587 336.368C214.113 336.222 213.614 336.167 213.117 336.204C212.621 336.242 212.137 336.372 211.693 336.587C211.25 336.801 210.855 337.097 210.533 337.457C210.21 337.816 209.965 338.233 209.812 338.682Z" fill="#263238"/>
<path d="M183.891 325.732C188.666 329.584 193.153 333.723 197.534 337.891C199.747 339.99 201.945 342.088 204.113 344.215C206.28 346.343 208.418 348.527 210.555 350.698C205.619 347.08 200.959 343.137 196.609 338.897C192.119 334.733 187.873 330.338 183.891 325.732Z" fill="#263238"/>
<path d="M712.004 29.4507C715.248 19.5622 729.437 -2.16955 752.342 4.37008C784.948 13.7124 783.705 75.0269 798.409 95.5657C825.028 132.648 822.663 166.769 797.439 170.003C769.229 173.61 745.172 143.125 752.251 82.4433C756.677 44.499 747.051 26.648 738.957 27.0648C730.862 27.4816 725.496 36.6371 725.496 36.6371L712.004 29.4507Z" fill="#263238"/>
<path d="M713.414 25.7278C715.53 21.1756 718.223 16.8849 721.433 12.9504C724.66 8.8978 728.744 5.52955 733.424 3.0619C738.245 0.553871 743.777 -0.451828 749.235 0.187333C754.679 0.819249 759.88 2.69335 764.393 5.64901C768.745 8.68945 772.362 12.5751 775.004 17.0466C777.609 21.4363 779.674 26.0948 781.159 30.9308C783.931 40.5057 785.558 50.3459 786.01 60.2657C784.43 50.5299 782.079 40.9208 778.976 31.5201C777.338 26.9331 775.21 22.5168 772.624 18.3402C770.106 14.2185 766.702 10.6441 762.635 7.84805C758.542 5.13779 753.83 3.38443 748.886 2.73133C743.96 2.04343 738.929 2.80073 734.47 4.90162C729.93 7.08508 725.878 10.0819 722.54 13.7265C720.801 15.5509 719.176 17.4706 717.674 19.4757C716.178 21.5358 714.759 23.6198 713.414 25.7278Z" fill="#263238"/>
<path d="M754.116 61.4156C753.858 67.481 752.888 73.4888 752.175 79.4967C751.463 85.5045 750.568 91.4836 749.962 97.4771C749.356 103.471 748.962 109.478 749.007 115.472C748.939 121.435 749.492 127.391 750.659 133.251C751.728 139.061 753.95 144.626 757.208 149.65C760.661 154.563 764.997 158.863 770.017 162.356C775.041 165.903 780.88 168.272 787.055 169.269C790.158 169.782 793.317 169.908 796.454 169.643C798.026 169.504 799.585 169.264 801.123 168.924C802.705 168.624 804.236 168.116 805.67 167.415C802.882 168.978 799.788 169.986 796.575 170.376C793.372 170.858 790.116 170.945 786.889 170.635C783.645 170.278 780.458 169.55 777.399 168.464C774.347 167.342 771.438 165.896 768.729 164.153C766.008 162.413 763.47 160.43 761.149 158.231L759.467 156.549L757.845 154.81C756.745 153.637 755.732 152.393 754.813 151.088C751.303 145.822 748.889 139.967 747.703 133.84C745.278 121.667 746.021 109.306 747.628 97.2902C748.431 91.2536 749.538 85.2745 750.659 79.3242C751.781 73.3738 753.206 67.4091 754.116 61.4156Z" fill="#263238"/>
<path d="M710.003 29.4505C709.912 26.5759 712.08 22.9396 714.02 22.4365C715.961 21.9335 730.331 27.7832 731.574 31.2902C732.817 34.7971 726.405 37.8729 726.405 37.8729L710.003 29.4505Z" fill="#455A64"/>
<path d="M721.1 154.925C712.55 172.546 649.005 255.377 617.46 257.633C584.444 260.005 505.285 208.852 497.706 204.583C476.893 192.913 534.936 139.043 544.971 148.529C561.736 164.526 601.831 194.652 611.669 192.625C632.285 188.313 675.199 154.163 705.653 136.37C723.904 125.748 730.544 135.421 721.1 154.925Z" fill="#AD6359"/>
<path d="M502.633 207.329C499.055 205.072 470.163 189.851 459.324 175.191C453.594 167.43 440.361 144.433 444.908 140.466C449.062 136.902 454.322 142.378 454.322 142.378C454.322 142.378 448.577 132.015 454.413 127.128C460.249 122.242 468.632 131.914 468.632 131.914C468.632 131.914 463.554 120.862 469.738 116.392C475.923 111.922 482.623 122.96 482.623 122.96C482.623 122.96 477.485 113.072 484.215 111.462C492.325 109.464 499.631 128.709 507.484 136.126C509.257 137.807 546.184 167.746 546.184 167.746L502.633 207.329Z" fill="#AD6359"/>
<path d="M483.108 122.96C488.52 137.103 493.461 142.406 505.846 151.49C506.089 151.663 505.846 152.051 505.588 151.878C492.658 144.031 485.443 138.224 482.411 123.132C482.199 122.428 482.82 122.285 483.108 122.96Z" fill="#263238"/>
<path d="M469.086 131.842C476.044 146.072 481.365 151.864 493.553 162.284C493.719 162.428 493.477 162.715 493.295 162.586C480.425 153.315 473.376 147.379 468.374 132.288C468.147 131.613 468.768 131.196 469.086 131.842Z" fill="#263238"/>
<path d="M454.928 142.866C462.72 156.176 468.253 162.773 481.456 171.44C481.522 171.478 481.57 171.539 481.589 171.611C481.607 171.682 481.595 171.758 481.555 171.821C481.514 171.883 481.45 171.929 481.374 171.946C481.299 171.964 481.219 171.952 481.153 171.914C466.782 164.311 459.809 156.104 454.519 143.168C454.17 142.248 454.443 142.018 454.928 142.866Z" fill="#263238"/>
<path d="M558.69 163.39C558.69 163.39 550.504 146.215 545.138 139.416C539.772 132.618 510 114.278 505.452 120.157C499.586 127.731 514.548 141.544 522.855 147.393C522.855 147.393 509.212 164.928 517.761 177.045C526.311 189.161 558.69 163.39 558.69 163.39Z" fill="#AD6359"/>
<path d="M504.558 122.73C504.467 133.309 515.851 140.337 523.431 146.575C523.551 146.66 523.647 146.773 523.711 146.902C523.774 147.032 523.802 147.174 523.793 147.317C523.784 147.459 523.738 147.597 523.659 147.718C523.58 147.84 523.47 147.941 523.34 148.012C518.171 155.73 513.229 168.033 517.14 176.944C517.168 176.996 517.173 177.056 517.155 177.111C517.136 177.166 517.095 177.212 517.041 177.239C516.987 177.266 516.924 177.271 516.865 177.253C516.807 177.236 516.759 177.197 516.73 177.146C511.167 168.134 514.972 155.673 521.278 147.566C513.395 141.285 502.299 133.768 504.512 122.745C504.467 122.673 504.558 122.673 504.558 122.73Z" fill="#263238"/>
<path d="M720.236 159.927C710.337 178.612 652.643 258.395 621.477 259.66C590.31 260.925 525.037 235.715 525.037 235.715L573.393 165.877C573.393 165.877 606.879 188.788 612.139 188.96C617.399 189.133 687.751 145.109 704.122 135.421C720.493 125.734 736.258 129.514 720.236 159.927Z" fill="#F66D1D"/>
<path d="M569.195 236.232C568.961 234.107 569.017 231.962 569.361 229.851C569.641 227.732 570.201 225.656 571.029 223.67C571.262 225.795 571.206 227.94 570.862 230.052C570.579 232.17 570.019 234.246 569.195 236.232Z" fill="white"/>
<path d="M665.467 222.248C665.242 220.122 665.298 217.978 665.634 215.866C665.912 213.746 666.477 211.668 667.317 209.686C667.699 213.951 667.067 218.244 665.467 222.248Z" fill="white"/>
<path d="M670.803 169.111C668.561 169.328 666.299 169.27 664.073 168.939C661.837 168.684 659.645 168.153 657.555 167.358C659.796 167.144 662.057 167.197 664.285 167.516C666.521 167.781 668.712 168.317 670.803 169.111Z" fill="white"/>
<path d="M593.206 193.215C590.968 193.424 588.712 193.367 586.49 193.042C584.253 192.791 582.061 192.259 579.972 191.461C582.209 191.247 584.465 191.3 586.687 191.619C588.924 191.883 591.115 192.419 593.206 193.215Z" fill="white"/>
<path d="M604.53 258.094C604.442 258.21 604.346 258.321 604.242 258.424H603.847L604.53 258.094Z" fill="white"/>
<path d="M549.807 211.152C552.702 207.889 556.327 205.277 560.418 203.506C558.994 205.162 557.354 206.64 555.537 207.904C553.782 209.215 551.856 210.307 549.807 211.152Z" fill="white"/>
<path d="M630.496 195.284C631.924 193.632 633.564 192.154 635.377 190.886C637.155 189.576 639.101 188.484 641.168 187.638C639.748 189.297 638.107 190.776 636.287 192.036C634.509 193.347 632.563 194.438 630.496 195.284Z" fill="white"/>
<path d="M603.726 217.188C607.187 219.916 609.946 223.357 611.791 227.249C608.338 224.514 605.581 221.074 603.726 217.188Z" fill="white"/>
<path d="M680.338 184.433C683.786 187.169 686.538 190.608 688.387 194.494C686.642 193.152 685.088 191.601 683.764 189.88C682.383 188.21 681.232 186.379 680.338 184.433Z" fill="white"/>
<path d="M583.868 177.218C577.805 187.667 571.908 198.217 565.329 208.393C558.971 218.554 552.048 228.39 544.592 237.857C544.558 237.887 544.515 237.905 544.469 237.909C544.423 237.914 544.377 237.904 544.338 237.881C544.298 237.858 544.268 237.824 544.251 237.783C544.234 237.743 544.231 237.698 544.243 237.656C550.064 227.235 556.719 217.174 563.192 207.113C569.664 197.052 576.668 187.078 583.171 176.93C583.429 176.528 584.095 176.815 583.868 177.218Z" fill="#263238"/>
<path d="M720.236 159.926C710.337 178.611 652.643 258.395 621.477 259.66C613.898 259.961 604.333 258.711 594.191 256.627C618.445 232.064 686.159 162.787 717.523 130.721C727.027 130.175 731.711 138.338 720.236 159.926Z" fill="#263238"/>
<path d="M662.738 345.107H845.659C845.659 345.107 774.534 174.372 736.652 140.021C726.36 130.693 700.923 131.397 688.463 147.135C678.246 160.071 649.884 211.439 648.595 229.937C647.307 248.435 662.602 266.674 662.602 266.674L662.738 345.107Z" fill="#F66D1D"/>
<path d="M686.114 281.133C685.887 279.012 685.943 276.873 686.28 274.766C686.558 272.645 687.123 270.568 687.963 268.585C688.192 270.706 688.13 272.846 687.781 274.952C687.502 277.071 686.941 279.147 686.114 281.133Z" fill="white"/>
<path d="M811.809 313.271C811.604 311.128 811.685 308.969 812.052 306.846C812.329 304.726 812.895 302.648 813.735 300.666C813.963 302.792 813.902 304.936 813.553 307.047C813.252 309.183 812.666 311.275 811.809 313.271Z" fill="white"/>
<path d="M732.893 341.341C732.667 339.22 732.723 337.081 733.06 334.974C733.337 332.853 733.903 330.776 734.743 328.793C734.971 330.914 734.91 333.054 734.561 335.16C734.281 337.279 733.721 339.355 732.893 341.341Z" fill="white"/>
<path d="M714.703 212.474C714.482 210.352 714.544 208.213 714.885 206.107C715.15 203.986 715.711 201.907 716.553 199.926C716.953 204.188 716.321 208.48 714.703 212.474Z" fill="white"/>
<path d="M763.317 264.374C763.11 262.242 763.186 260.093 763.544 257.978C763.817 255.858 764.377 253.781 765.212 251.798C765.614 256.064 764.982 260.361 763.362 264.36L763.317 264.374Z" fill="white"/>
<path d="M665.467 222.248C665.242 220.122 665.298 217.978 665.634 215.866C665.912 213.746 666.477 211.668 667.317 209.686C667.699 213.951 667.067 218.244 665.467 222.248Z" fill="white"/>
<path d="M729.801 273.271C725.303 273.648 720.773 273.053 716.552 271.532C718.794 271.311 721.056 271.364 723.283 271.69C725.517 271.957 727.706 272.488 729.801 273.271Z" fill="white"/>
<path d="M784.979 223.67C782.737 223.885 780.476 223.831 778.248 223.512C776.012 223.249 773.821 222.713 771.73 221.917C776.229 221.554 780.756 222.154 784.979 223.67Z" fill="white"/>
<path d="M686.523 331.61C684.286 331.82 682.029 331.762 679.807 331.438C677.57 331.187 675.379 330.655 673.289 329.857C675.526 329.643 677.782 329.696 680.005 330.015C682.241 330.278 684.432 330.814 686.523 331.61Z" fill="white"/>
<path d="M789.162 288.636C786.921 288.857 784.658 288.804 782.431 288.478C780.198 288.211 778.008 287.68 775.913 286.897C778.154 286.675 780.417 286.728 782.644 287.055C784.877 287.321 787.067 287.853 789.162 288.636Z" fill="white"/>
<path d="M702.561 312.207C703.989 310.559 705.629 309.086 707.442 307.823C709.216 306.507 711.162 305.416 713.233 304.575C710.342 307.839 706.716 310.447 702.621 312.207H702.561Z" fill="white"/>
<path d="M771.73 324.74C773.15 323.081 774.791 321.602 776.611 320.342C778.389 319.032 780.334 317.94 782.402 317.094C779.517 320.367 775.889 322.981 771.791 324.74H771.73Z" fill="white"/>
<path d="M790.042 263.382C791.47 261.734 793.11 260.261 794.923 258.998C796.697 257.683 798.643 256.591 800.713 255.75C799.297 257.409 797.655 258.883 795.832 260.134C794.058 261.45 792.112 262.541 790.042 263.382Z" fill="white"/>
<path d="M680.823 241.335C682.251 239.682 683.891 238.204 685.704 236.936C687.482 235.626 689.427 234.535 691.495 233.688C690.074 235.348 688.434 236.826 686.614 238.086C684.836 239.397 682.89 240.488 680.823 241.335Z" fill="white"/>
<path d="M751.554 199.05C752.982 197.397 754.622 195.92 756.435 194.652C758.213 193.341 760.158 192.25 762.226 191.403C760.805 193.063 759.165 194.541 757.344 195.801C755.567 197.112 753.621 198.203 751.554 199.05Z" fill="white"/>
<path d="M667.453 291.841C666.048 293.463 664.434 294.912 662.648 296.152V294.399C664.139 293.372 665.752 292.514 667.453 291.841Z" fill="white"/>
<path d="M715.521 172.058C716.949 170.405 718.589 168.928 720.402 167.66C722.18 166.349 724.126 165.258 726.193 164.412C723.308 167.685 719.681 170.299 715.582 172.058H715.521Z" fill="white"/>
<path d="M655.205 250.088C656.948 251.442 658.507 252.997 659.844 254.716C661.226 256.401 662.377 258.246 663.27 260.206C659.817 257.471 657.061 254.032 655.205 250.145V250.088Z" fill="white"/>
<path d="M680.338 184.433C683.786 187.169 686.538 190.608 688.387 194.494C686.642 193.152 685.088 191.601 683.764 189.88C682.383 188.21 681.232 186.379 680.338 184.433Z" fill="white"/>
<path d="M743.838 290.605C747.28 293.346 750.031 296.784 751.887 300.666C750.172 299.311 748.644 297.756 747.339 296.038C745.93 294.377 744.753 292.551 743.838 290.605Z" fill="white"/>
<path d="M809.627 332.3C811.37 333.654 812.928 335.209 814.265 336.928C815.648 338.614 816.799 340.459 817.691 342.419C815.937 341.076 814.378 339.52 813.053 337.791C811.667 336.107 810.516 334.262 809.627 332.3Z" fill="white"/>
<path d="M742.55 153.431C745.998 156.167 748.75 159.606 750.599 163.492C747.151 160.756 744.399 157.316 742.55 153.431Z" fill="white"/>
<path d="M730.741 234.349C732.491 235.696 734.05 237.252 735.379 238.978C736.77 240.658 737.921 242.504 738.805 244.468C735.353 241.732 732.596 238.293 730.741 234.407V234.349Z" fill="white"/>
<path d="M724.495 141.673C723.495 144.246 707.821 159.754 695.194 157.613C691.071 156.908 694.102 135.421 694.102 135.421L693.951 133.783L691.753 110.901L721.6 97.5199L725.89 95.7952C725.89 95.7952 726.057 102.09 726.178 109.938C726.178 110.312 726.178 110.671 726.178 111.059C726.178 111.447 726.178 111.921 726.178 112.338C726.178 113.502 726.178 114.71 726.178 115.903C726.178 116.808 726.178 117.685 726.178 118.648V121.523C726.115 128.268 725.553 135.002 724.495 141.673Z" fill="#AD6359"/>
<path d="M726.178 109.938C722.955 115.893 718.403 121.111 712.837 125.229C707.272 129.347 700.827 132.266 693.951 133.783L691.753 110.901L721.6 97.5199L725.89 95.7952C725.89 95.7952 726.057 102.09 726.178 109.938Z" fill="#263238"/>
<path d="M661.041 77.1827C657.675 117.427 682.687 123.851 691.843 124.527C700.135 125.145 728.497 126.251 736.228 86.5825C743.959 46.9135 725.314 32.7275 706.411 30.356C687.508 27.9845 664.421 36.9675 661.041 77.1827Z" fill="#AD6359"/>
<path d="M668.196 68.6308C669.166 68.5 670.128 68.3176 671.076 68.0846C672.119 68.0307 673.112 67.6459 673.896 66.9923C674.1 66.7409 674.211 66.4327 674.211 66.1155C674.211 65.7984 674.1 65.4901 673.896 65.2388C673.419 64.797 672.825 64.4841 672.178 64.3325C671.53 64.1808 670.852 64.196 670.212 64.3764C668.853 64.5587 667.612 65.2084 666.726 66.2018C666.537 66.4401 666.426 66.7257 666.406 67.0233C666.387 67.3209 666.46 67.6173 666.616 67.8759C666.773 68.1345 667.006 68.3439 667.287 68.478C667.568 68.6122 667.884 68.6653 668.196 68.6308Z" fill="#263238"/>
<path d="M696.422 69.2059C695.436 69.0909 694.527 68.8178 693.557 68.6166C692.514 68.5359 691.528 68.1318 690.752 67.4668C690.548 67.2154 690.438 66.9072 690.438 66.59C690.438 66.2729 690.548 65.9646 690.752 65.7133C691.24 65.2787 691.842 64.9762 692.495 64.8372C693.149 64.6982 693.829 64.7277 694.466 64.9228C695.819 65.1158 697.047 65.7824 697.907 66.7912C698.086 67.0321 698.188 67.3164 698.201 67.6105C698.214 67.9045 698.138 68.196 697.981 68.4502C697.825 68.7045 697.595 68.9108 697.318 69.0448C697.042 69.1787 696.731 69.2346 696.422 69.2059Z" fill="#263238"/>
<path d="M689.782 79.353C689.782 79.238 690.01 79.4823 689.994 79.5973C689.813 82.3425 690.085 85.5045 692.677 86.4962C692.753 86.4962 692.677 86.6687 692.677 86.6543C689.464 86.1225 689.146 81.9113 689.782 79.353Z" fill="#263238"/>
<path d="M692.465 76.5642C697.134 76.363 697.195 85.188 692.875 85.4179C688.554 85.6479 688.554 76.7223 692.465 76.5642Z" fill="#263238"/>
<path d="M694.299 77.0244C695.133 77.5131 695.936 78.4617 696.922 78.4617C697.907 78.4617 698.908 77.6281 699.65 76.737C699.65 76.6507 699.802 76.737 699.817 76.8376C699.817 78.5336 699.165 80.2871 697.255 80.5458C695.345 80.8045 694.224 79.2953 693.769 77.585C693.693 77.2831 693.981 76.8807 694.299 77.0244Z" fill="#263238"/>
<path d="M673.698 78.7346C673.698 78.634 673.486 78.8783 673.486 78.9933C673.623 81.7385 673.289 84.9005 670.682 85.8491C670.591 85.8491 670.606 86.0072 670.682 85.9928C673.895 85.5042 674.29 81.3217 673.698 78.7346Z" fill="#263238"/>
<path d="M671.076 75.9033C666.407 75.6302 666.179 84.5269 670.5 84.7569C674.82 84.9869 674.987 76.1332 671.076 75.9033Z" fill="#263238"/>
<path d="M669.106 76.4497C668.363 76.8953 667.59 77.7289 666.726 77.772C665.862 77.8151 664.967 76.8234 664.346 75.8892C664.27 75.803 664.194 75.8892 664.194 75.9898C664.103 77.6858 664.649 79.4536 666.347 79.8273C668.044 80.201 669.09 78.735 669.56 77.0534C669.651 76.7515 669.409 76.2629 669.106 76.4497Z" fill="#263238"/>
<path d="M689.994 101.085C689.342 101.76 688.691 102.68 687.645 102.809C686.571 102.841 685.502 102.66 684.507 102.277C684.487 102.272 684.466 102.273 684.446 102.279C684.427 102.285 684.41 102.297 684.397 102.312C684.384 102.327 684.376 102.346 684.374 102.365C684.372 102.384 684.376 102.404 684.386 102.421C684.828 102.938 685.41 103.332 686.069 103.562C686.727 103.792 687.439 103.85 688.13 103.729C688.718 103.562 689.239 103.229 689.623 102.775C690.008 102.32 690.238 101.766 690.282 101.185C690.313 101.027 690.085 100.984 689.994 101.085Z" fill="#263238"/>
<path d="M677.943 91.0814C677.943 91.0814 677.321 95.192 677.306 97.1179C677.306 97.3048 677.806 97.391 678.488 97.4341C678.488 97.4341 678.488 97.4341 678.579 97.4341C680.327 97.7491 682.132 97.6003 683.795 97.0043C685.459 96.4083 686.917 95.3882 688.008 94.0565C688.03 94.0184 688.039 93.9745 688.032 93.9314C688.025 93.8883 688.004 93.8485 687.972 93.8177C687.94 93.787 687.897 93.767 687.852 93.7608C687.807 93.7546 687.76 93.7626 687.72 93.7834C685.104 95.455 681.988 96.2817 678.837 96.1406C678.701 95.6088 680.156 89.1554 679.822 89.1266C678.238 89.2612 676.679 89.5897 675.184 90.104C676.23 81.4803 678.701 73.1872 679.595 64.6354C679.613 64.5687 679.603 64.4979 679.566 64.4386C679.529 64.3793 679.468 64.3363 679.398 64.3192C679.328 64.302 679.253 64.3121 679.19 64.3471C679.128 64.3821 679.083 64.4393 679.064 64.506C675.821 73.1297 674.396 82.9176 673.092 91.8144C672.91 92.8492 677.139 91.4119 677.943 91.0814Z" fill="#263238"/>
<path d="M678.928 97.003C680.152 98.5504 681.776 99.773 683.642 100.553C684.667 100.947 685.796 101.027 686.871 100.783C689.236 100.223 689.312 98.1816 688.903 96.4712C688.674 95.5413 688.333 94.6394 687.887 93.7834C685.34 95.7368 682.2 96.8652 678.928 97.003Z" fill="#263238"/>
<path d="M683.643 100.581C684.667 100.975 685.796 101.055 686.872 100.811C689.236 100.251 689.312 98.2096 688.903 96.4993C686.386 96.6717 683.885 98.2672 683.643 100.581Z" fill="#EB9481"/>
<path d="M734.349 90.5923C731.635 89.3308 729.314 87.4222 727.613 85.0536C725.912 82.6851 724.89 79.938 724.647 77.0818C717.258 73.9812 710.878 69.0635 706.169 62.8384C706.441 63.672 708.457 69.6511 709.594 72.6694C682.763 67.797 674.547 48.2356 674.547 48.2356C665.801 56.4425 664.042 61.7029 662.769 64.3188C662.769 64.3188 662.648 48.7099 671.167 38.2896C681.596 25.5265 716.643 22.2208 732.727 38.9938C750.083 57.118 734.349 90.5923 734.349 90.5923Z" fill="#263238"/>
<path d="M689.267 68.3722C693.57 70.6274 698.204 72.26 703.016 73.2159C695.454 71.243 688.627 67.2993 683.309 61.8326C681.052 59.507 679.116 56.9182 677.549 54.1287C675.713 51.1415 674.518 47.8395 674.032 44.4127C674.032 44.3593 674.01 44.3082 673.97 44.2704C673.93 44.2327 673.876 44.2115 673.82 44.2115C673.764 44.2115 673.71 44.2327 673.67 44.2704C673.63 44.3082 673.608 44.3593 673.608 44.4127C673.706 47.8537 674.414 51.2546 675.7 54.4737C677.107 57.6141 679.117 60.4797 681.627 62.9249C683.869 65.083 686.421 66.9313 689.206 68.4153" fill="#263238"/>
<path d="M729.24 89.1695C729.24 89.1695 738.427 76.507 744.399 79.6115C750.372 82.7161 743.596 101.013 736.547 103.557C735.665 103.942 734.71 104.153 733.74 104.179C732.769 104.205 731.803 104.045 730.9 103.708C729.997 103.371 729.174 102.864 728.483 102.218C727.791 101.572 727.244 100.801 726.876 99.9491L729.24 89.1695Z" fill="#AD6359"/>
<path d="M742.322 84.8147C742.443 84.8147 742.459 84.944 742.322 84.9872C737.38 86.9275 734.743 91.3112 732.999 95.8387C734.515 94.0852 736.471 93.1222 738.942 94.7751C739.063 94.8613 738.942 95.0481 738.805 95.0194C737.937 94.7543 737.003 94.7501 736.132 95.0074C735.261 95.2647 734.495 95.7708 733.939 96.4567C733.041 97.6308 732.269 98.8875 731.635 100.208C731.408 100.639 730.604 100.409 730.771 99.9349V99.8199C730.741 93.884 735.592 85.5046 742.322 84.8147Z" fill="#263238"/>
<path d="M730.711 102.637C730.711 103.206 730.888 103.761 731.222 104.234C731.555 104.707 732.028 105.075 732.582 105.293C733.136 105.51 733.746 105.567 734.334 105.456C734.922 105.345 735.462 105.072 735.886 104.67C736.31 104.268 736.599 103.755 736.716 103.198C736.833 102.64 736.773 102.062 736.543 101.537C736.314 101.012 735.925 100.563 735.427 100.247C734.928 99.9311 734.342 99.7625 733.742 99.7625C732.944 99.7808 732.184 100.089 731.62 100.625C731.055 101.16 730.73 101.88 730.711 102.637Z" fill="white"/>
<path d="M680.308 149.88C680.308 149.88 671.637 173.251 687.326 174.903C703.015 176.556 743.989 147.825 743.989 147.825C743.989 147.825 732.62 130.376 714.46 132.245C699.377 133.783 680.308 149.88 680.308 149.88Z" fill="#AD6359"/>
<path d="M754.449 177.247C754.449 206.107 736.956 292.646 720.16 304.303C686.553 327.63 607.743 326.02 586.005 326.379C576.622 326.523 564.298 267.292 571.286 260.48C578.275 253.667 674.365 251.137 679.216 247.645C682.627 245.216 709.731 203.089 725.42 176.011C746.581 139.403 754.449 162.701 754.449 177.247Z" fill="#AD6359"/>
<path d="M587.961 257.317C587.961 257.317 559.599 254.342 540.969 253.235C530.555 252.603 512.622 253.048 504.755 255.894C492.992 260.206 446.682 285.172 452.821 295.951C458.385 305.696 472.528 294.916 472.528 294.916C472.528 294.916 455.853 305.322 464.554 313.4C473.255 321.477 490.324 305.782 490.324 305.782C490.324 305.782 471.846 315.671 481.956 323.461C490.733 330.202 512.38 314.075 512.38 314.075C512.38 314.075 491.794 322.455 500.071 330.202C509.166 338.825 544.865 318.445 544.865 318.445C568.073 325.775 583.05 327.198 600.816 326.134C604.029 325.947 587.961 257.317 587.961 257.317Z" fill="#AD6359"/>
<path d="M485.109 309.333L489.308 305.826C491.982 303.489 494.796 301.3 497.736 299.272C500.647 297.332 503.633 295.535 506.68 293.825C509.727 292.114 513.335 290.49 516.503 288.593C516.527 288.576 516.554 288.563 516.584 288.557C516.613 288.55 516.643 288.55 516.673 288.555C516.702 288.561 516.73 288.572 516.755 288.589C516.779 288.605 516.8 288.627 516.815 288.651C516.83 288.676 516.84 288.703 516.843 288.732C516.846 288.76 516.843 288.789 516.833 288.816C516.824 288.843 516.808 288.868 516.788 288.889C516.768 288.91 516.743 288.927 516.715 288.938C513.567 290.777 510.531 292.783 507.62 294.946C504.694 296.972 501.784 299.042 498.873 301.097C495.963 303.153 493.083 304.935 490.187 306.846C488.671 307.809 487.337 308.844 485.943 309.865C484.677 310.93 483.318 311.892 481.88 312.739C481.744 312.811 481.607 312.624 481.698 312.509C482.716 311.341 483.859 310.277 485.109 309.333Z" fill="#263238"/>
<path d="M469.102 297.144C471.027 294.773 481.623 286.58 484.457 284.64C489.937 280.863 495.802 277.618 501.966 274.952C502.01 274.941 502.057 274.943 502.1 274.959C502.143 274.976 502.179 275.004 502.203 275.042C502.227 275.079 502.238 275.123 502.233 275.166C502.229 275.21 502.209 275.251 502.178 275.283C496.706 279.078 491.173 282.786 485.64 286.508C482.926 288.319 470.921 296.929 469.541 297.676C469.208 297.863 468.904 297.403 469.102 297.144Z" fill="#263238"/>
<path d="M499.783 321.219C504.394 317.082 509.291 313.24 514.441 309.72C520.033 306.579 525.865 303.841 531.889 301.528C532.116 301.456 532.298 301.743 532.101 301.858C526.523 305.006 520.914 308.039 515.427 311.431C512.789 313.084 502.693 320.256 500.025 321.621C499.904 321.693 499.661 321.362 499.783 321.219Z" fill="#263238"/>
<path d="M607.091 330.734L581.17 252.632C581.17 252.632 675.487 246.883 678.549 245.445C681.611 244.008 715.233 187.623 728.573 165.719C741.913 143.815 762.468 152.784 754.782 202.269C747.067 251.985 738.578 290.619 726.83 302.117C712.52 316.03 660.374 330.403 607.091 330.734Z" fill="#F66D1D"/>
<path d="M686.114 281.133C685.887 279.012 685.943 276.873 686.28 274.766C686.558 272.645 687.123 270.568 687.963 268.585C688.192 270.706 688.13 272.846 687.781 274.952C687.502 277.071 686.941 279.147 686.114 281.133Z" fill="white"/>
<path d="M633.998 325.832C633.764 323.707 633.82 321.563 634.164 319.451C634.448 317.333 635.008 315.257 635.832 313.271C636.066 315.396 636.01 317.541 635.665 319.652C635.386 321.771 634.825 323.847 633.998 325.832Z" fill="white"/>
<path d="M714.703 212.474C714.482 210.352 714.544 208.213 714.885 206.107C715.15 203.986 715.711 201.907 716.553 199.926C716.953 204.188 716.321 208.48 714.703 212.474Z" fill="white"/>
<path d="M729.801 273.271C725.303 273.648 720.773 273.053 716.552 271.532C718.794 271.311 721.056 271.364 723.283 271.69C725.517 271.957 727.706 272.488 729.801 273.271Z" fill="white"/>
<path d="M639.243 275.729C637.002 275.95 634.74 275.897 632.513 275.571C630.278 275.306 628.088 274.775 625.994 273.99C628.236 273.768 630.498 273.822 632.725 274.148C634.958 274.416 637.148 274.947 639.243 275.729Z" fill="white"/>
<path d="M702.561 312.207C703.989 310.559 705.629 309.086 707.442 307.823C709.216 306.507 711.162 305.416 713.233 304.575C710.342 307.839 706.716 310.447 702.621 312.207H702.561Z" fill="white"/>
<path d="M593.858 265.726C595.286 264.077 596.926 262.605 598.739 261.342C600.513 260.026 602.459 258.934 604.529 258.094C603.113 259.752 601.472 261.226 599.648 262.477C597.874 263.793 595.928 264.885 593.858 265.726Z" fill="white"/>
<path d="M691.495 233.688C690.074 235.348 688.434 236.826 686.614 238.086C685.239 239.077 683.778 239.957 682.248 240.716C682.718 240.027 683.233 239.279 683.764 238.446C684.385 237.928 685.037 237.425 685.689 237.008C687.467 235.672 689.418 234.556 691.495 233.688Z" fill="white"/>
<path d="M755.647 195.299C755.647 195.902 755.525 196.506 755.45 197.124C754.225 197.909 752.92 198.573 751.554 199.107C752.764 197.697 754.136 196.419 755.647 195.299Z" fill="white"/>
<path d="M656.782 299.487C658.21 297.834 659.849 296.357 661.663 295.089C663.44 293.778 665.386 292.687 667.453 291.841C666.033 293.5 664.392 294.978 662.572 296.239C660.795 297.549 658.849 298.641 656.782 299.487Z" fill="white"/>
<path d="M655.205 250.088C656.948 251.442 658.507 252.997 659.844 254.716C661.226 256.401 662.377 258.246 663.27 260.206C659.817 257.471 657.061 254.032 655.205 250.145V250.088Z" fill="white"/>
<path d="M750.598 163.534C748.857 162.188 747.303 160.638 745.975 158.92C744.84 157.527 743.855 156.029 743.034 154.45C743.312 154.436 743.59 154.436 743.868 154.45C745.069 155.547 746.174 156.735 747.173 158.001C748.56 159.698 749.712 161.558 750.598 163.534Z" fill="white"/>
<path d="M730.741 234.349C732.491 235.696 734.05 237.252 735.379 238.978C736.77 240.658 737.921 242.504 738.805 244.468C735.353 241.732 732.596 238.293 730.741 234.407V234.349Z" fill="white"/>
<path d="M708.078 198.734C705.047 203.045 702.151 207.616 699.317 212.115L699.074 212.488C699.211 212.143 699.362 211.799 699.499 211.468C700.423 209.226 701.242 206.94 702.242 204.741C702.242 204.612 702.106 204.497 702.045 204.626C701.015 206.797 699.878 208.938 698.907 211.109C698.256 212.546 697.665 214.084 697.104 215.593C694.997 218.927 692.889 222.262 690.813 225.654C688.024 230.167 685.25 234.709 682.445 239.222C681.748 240.329 681.081 241.435 680.368 242.542C679.869 243.522 678.997 244.287 677.928 244.684C676.66 244.969 675.365 245.133 674.062 245.172C672.683 245.302 671.303 245.46 669.924 245.618C663.648 246.351 657.418 247.328 651.142 248.104C650.991 248.104 650.991 248.349 651.142 248.334C656.903 247.917 662.678 247.716 668.439 247.271C671.288 247.055 674.138 246.868 676.958 246.523C678.049 246.469 679.101 246.12 679.989 245.517C680.77 244.844 681.413 244.04 681.884 243.146C687.594 233.775 693.304 224.399 699.014 215.018C702.242 209.7 705.517 204.411 708.488 198.964C708.52 198.912 708.529 198.851 708.514 198.793C708.498 198.735 708.459 198.685 708.404 198.655C708.35 198.624 708.285 198.615 708.224 198.63C708.163 198.645 708.111 198.682 708.078 198.734Z" fill="#263238"/>
<path d="M754.919 219.589C754.628 221.38 754.176 223.145 753.57 224.864C753.115 226.401 752.676 227.939 752.191 229.463C751.706 230.986 750.993 232.898 750.372 234.608C751.645 227 752.655 219.335 753.403 211.612C753.403 211.382 753.009 211.339 752.964 211.612C751.448 222.348 749.371 233.042 746.991 243.62C744.611 254.199 741.731 264.763 738.472 275.154C736.865 280.271 735.167 285.373 733.288 290.404C731.818 294.81 729.585 298.954 726.678 302.664C723.241 306.367 718.938 309.256 714.112 311.101C709.087 313.293 703.935 315.212 698.68 316.85C686.735 320.558 674.426 322.915 662.208 325.689C662.072 325.689 662.102 325.933 662.208 325.919C673.421 324.433 684.527 322.302 695.467 319.537C701.007 318.138 706.45 316.409 711.762 314.363C716.628 312.437 721.646 310.353 725.572 306.932C729.165 303.576 731.939 299.514 733.697 295.032C735.743 290.332 737.35 285.445 738.942 280.659C742.428 270.052 745.339 259.358 747.719 248.478C748.396 245.326 749.027 242.168 749.614 239.006C750.977 236.001 752.082 232.896 752.918 229.722C753.373 228.069 753.813 226.416 754.161 224.734C754.51 223.053 754.616 221.299 755.116 219.675C755.192 219.459 754.934 219.416 754.919 219.589Z" fill="#263238"/>
<path d="M623.493 324.438C619.218 313.213 614.701 302.074 610.957 290.691C607.075 279.459 603.821 268.041 601.21 256.483C601.21 256.44 601.226 256.397 601.254 256.363C601.283 256.328 601.322 256.304 601.367 256.292C601.411 256.281 601.458 256.283 601.501 256.3C601.544 256.316 601.58 256.345 601.604 256.383C606.045 267.392 609.653 278.761 613.382 290.001C617.111 301.24 620.416 312.811 624.19 324.136C624.327 324.568 623.675 324.869 623.493 324.438Z" fill="#263238"/>
<path d="M607.607 250.792C605.35 250.677 603.088 250.677 600.831 250.792C598.572 250.792 596.283 250.936 594.055 251.022C589.507 251.209 585.035 251.525 580.533 251.885C580.445 251.888 580.359 251.91 580.281 251.949C580.204 251.989 580.137 252.045 580.085 252.113C580.034 252.181 580 252.259 579.986 252.342C579.971 252.424 579.977 252.509 580.003 252.589C580.551 254.172 581.326 255.676 582.307 257.059C582.383 257.131 582.534 257.059 582.534 256.987C582.336 255.587 581.938 254.218 581.352 252.919C585.657 252.646 589.962 252.402 594.267 252.086L601.028 251.626C603.226 251.453 605.469 251.396 607.652 251.065C607.834 251.065 607.758 250.792 607.607 250.792Z" fill="#263238"/>
<path d="M505.846 234.062C511.47 236.707 537.164 237.713 544.652 246.452C549.64 252.201 549.2 258.137 552.05 275.485C554.581 290.547 541.439 286.983 537.634 279.25C531.692 267.134 526.583 253.854 526.583 253.854C522.198 253.647 517.803 253.71 513.425 254.04L505.846 234.062Z" fill="#F7A9A0"/>
<path d="M524.309 291.036C533.208 285.689 561.66 319.782 547.442 328.765C533.223 337.748 514.229 297.073 524.309 291.036Z" fill="#F7A9A0"/>
<path d="M509.894 298.223C518.777 292.876 547.245 326.968 533.026 335.951C518.807 344.934 499.783 304.331 509.894 298.223Z" fill="#F7A9A0"/>
<path d="M499.677 299.659C508.545 295.965 529.418 330.676 515.169 337.029C500.92 343.381 489.642 303.784 499.677 299.659Z" fill="#F7A9A0"/>
<path d="M489.172 298.654C498.494 297.604 507.559 335.405 492.446 337.46C477.333 339.516 478.667 299.847 489.172 298.654Z" fill="#F7A9A0"/>
<path d="M522.278 302.807C523.91 304.514 525.39 306.346 526.704 308.283C528.22 310.31 529.63 312.365 530.903 314.521C532.145 316.575 533.258 318.696 534.238 320.874C535.239 323.188 535.936 325.66 537.012 327.945C537.026 327.97 537.033 327.998 537.035 328.026C537.036 328.054 537.032 328.082 537.021 328.108C537.01 328.135 536.994 328.158 536.973 328.178C536.952 328.198 536.927 328.214 536.899 328.224C536.871 328.234 536.842 328.238 536.812 328.237C536.783 328.236 536.754 328.228 536.727 328.216C536.701 328.203 536.677 328.185 536.659 328.163C536.64 328.141 536.626 328.116 536.618 328.089C535.582 325.863 534.376 323.711 533.011 321.65C531.752 319.566 530.615 317.424 529.388 315.326C528.16 313.227 527.053 311.215 525.825 309.189C524.597 307.162 523.127 305.15 521.99 303.008C521.972 302.972 521.967 302.931 521.977 302.892C521.987 302.853 522.012 302.818 522.046 302.794C522.08 302.77 522.122 302.758 522.164 302.761C522.207 302.763 522.247 302.78 522.278 302.807Z" fill="#263238"/>
<path d="M507.469 302.62C508.378 305.178 511.44 314.952 512.471 317.482C513.502 320.011 514.639 322.541 515.806 325.042C516.973 327.543 517.974 330.259 519.489 332.717C519.502 332.761 519.499 332.807 519.48 332.849C519.462 332.891 519.428 332.926 519.386 332.948C519.344 332.969 519.295 332.977 519.248 332.969C519.2 332.961 519.157 332.938 519.126 332.904C517.701 330.46 516.094 328.189 514.73 325.717C513.365 323.245 512.289 320.701 511.243 318.114C509.522 313.074 508.13 307.938 507.075 302.735C506.999 302.419 507.363 302.404 507.469 302.62Z" fill="#263238"/>
<path d="M496.296 305.049C497.009 308.7 497.479 312.394 498.206 316.044C498.555 317.841 498.934 319.638 499.283 321.449C499.449 322.311 499.601 323.188 499.768 324.065C499.856 325.078 500.054 326.079 500.359 327.054C500.465 327.298 499.98 327.413 499.95 327.054C499.671 325.961 499.306 324.89 498.858 323.849C498.6 323.001 498.343 322.167 498.115 321.305C497.645 319.523 497.266 317.74 496.963 315.915C496.282 312.336 495.886 308.713 495.781 305.078C495.781 304.848 496.251 304.776 496.296 305.049Z" fill="#263238"/>
<path d="M635.013 63.3559C638.767 58.0684 640.797 51.85 640.849 45.4761C640.849 22.8246 614.609 4.47046 582.276 4.47046C549.942 4.47046 523.748 22.8246 523.748 45.4761C523.748 68.1277 549.942 86.4818 582.276 86.4818C597.965 86.4818 612.169 82.17 622.674 75.1417L642.85 79.9997L635.013 63.3559Z" fill="#F66D1D"/>
<path d="M561.22 45.4765C561.22 46.6135 560.865 47.7251 560.198 48.6705C559.532 49.616 558.585 50.3528 557.477 50.788C556.369 51.2231 555.15 51.337 553.974 51.1151C552.798 50.8933 551.717 50.3458 550.869 49.5417C550.021 48.7377 549.444 47.7133 549.21 46.5981C548.976 45.4829 549.096 44.3269 549.555 43.2764C550.014 42.2259 550.791 41.328 551.788 40.6963C552.785 40.0646 553.957 39.7274 555.157 39.7274C556.765 39.7274 558.307 40.3331 559.444 41.4113C560.581 42.4894 561.22 43.9517 561.22 45.4765Z" fill="#263238"/>
<path d="M582.291 51.2399C585.649 51.2399 588.37 48.6595 588.37 45.4764C588.37 42.2933 585.649 39.7129 582.291 39.7129C578.934 39.7129 576.213 42.2933 576.213 45.4764C576.213 48.6595 578.934 51.2399 582.291 51.2399Z" fill="#263238"/>
<path d="M615.488 45.4765C615.488 46.6135 615.133 47.7251 614.466 48.6705C613.8 49.616 612.853 50.3528 611.745 50.788C610.637 51.2231 609.418 51.337 608.242 51.1151C607.066 50.8933 605.985 50.3458 605.137 49.5417C604.289 48.7377 603.712 47.7133 603.478 46.5981C603.244 45.4829 603.364 44.3269 603.823 43.2764C604.282 42.2259 605.059 41.328 606.056 40.6963C607.053 40.0646 608.226 39.7274 609.425 39.7274C611.033 39.7274 612.575 40.3331 613.712 41.4113C614.849 42.4894 615.488 43.9517 615.488 45.4765Z" fill="#263238"/>
</svg>
