<svg width="39" height="51" viewBox="0 0 39 51" fill="none" xmlns="http://www.w3.org/2000/svg">
<path d="M19.4998 0C9.1114 0 0.660156 8.45124 0.660156 18.8396C0.660156 22.2596 2.19392 25.9377 2.2582 26.0929C2.75357 27.2687 3.73102 29.095 4.43584 30.1656L17.3532 49.7377C17.8818 50.5401 18.6642 51 19.4998 51C20.3354 51 21.1178 50.5401 21.6464 49.7388L34.5649 30.1656C35.2708 29.095 36.2471 27.2687 36.7425 26.0929C36.8068 25.9389 38.3394 22.2607 38.3394 18.8396C38.3394 8.45124 29.8882 0 19.4998 0ZM34.6989 25.2329C34.2568 26.2868 33.3469 27.9857 32.7141 28.9454L19.7957 48.5187C19.5408 48.9055 19.4599 48.9055 19.205 48.5187L6.28656 28.9454C5.65377 27.9857 4.74392 26.2857 4.30175 25.2318C4.28291 25.1864 2.87658 21.8008 2.87658 18.8396C2.87658 9.6736 10.3338 2.21643 19.4998 2.21643C28.6658 2.21643 36.123 9.6736 36.123 18.8396C36.123 21.8052 34.7134 25.1997 34.6989 25.2329Z" fill="#2B3640"/>
<path d="M19.4993 8.8667C13.9992 8.8667 9.52539 13.3417 9.52539 18.8406C9.52539 24.3396 13.9992 28.8145 19.4993 28.8145C24.9994 28.8145 29.4732 24.3396 29.4732 18.8406C29.4732 13.3417 24.9994 8.8667 19.4993 8.8667ZM19.4993 26.5981C15.2227 26.5981 11.7418 23.1183 11.7418 18.8406C11.7418 14.5629 15.2227 11.0831 19.4993 11.0831C23.7759 11.0831 27.2568 14.5629 27.2568 18.8406C27.2568 23.1183 23.7759 26.5981 19.4993 26.5981Z" fill="#2B3640"/>
</svg>
