<svg width="28" height="28" viewBox="0 0 28 28" fill="none" xmlns="http://www.w3.org/2000/svg">
<circle cx="14" cy="14" r="14" fill="white"/>
<mask id="mask0" mask-type="alpha" maskUnits="userSpaceOnUse" x="0" y="0" width="28" height="28">
<circle cx="14" cy="14" r="14" fill="white"/>
</mask>
<g mask="url(#mask0)">
<path d="M14.395 17.4293C14.395 17.4293 5.12012 17.1289 5.12012 22.0668C5.12012 27.6579 6.96299 38.1344 14.395 38.0256C21.827 37.9167 23.19 23.2261 23.2666 22.5728C23.2726 22.5668 23.6598 17.8527 14.395 17.4293Z" fill="#F66D1D"/>
<path d="M23.0503 21.2927C23.039 21.3046 23.0261 21.3148 23.012 21.323L22.893 21.4016C22.7902 21.4722 22.6329 21.5669 22.4293 21.6839C21.8443 22.0069 21.2316 22.2768 20.5985 22.4904C19.6593 22.8095 18.6908 23.0344 17.7071 23.1618C16.5036 23.3144 15.2908 23.3818 14.0778 23.3634C12.8656 23.3681 11.6541 23.3069 10.4485 23.18C9.45928 23.073 8.49155 22.8188 7.57737 22.4259C6.96386 22.1559 6.39538 21.7935 5.89176 21.3512C5.71836 21.1899 5.58932 21.0568 5.50867 20.9641L5.41794 20.8552L5.3877 20.8169C5.3877 20.8169 5.40181 20.827 5.42601 20.8491L5.5248 20.95C5.60948 21.0387 5.74256 21.1657 5.92806 21.3189C6.43548 21.7481 7.00434 22.0988 7.61568 22.3593C8.5225 22.7416 9.48023 22.9895 10.4586 23.0953C11.6612 23.2155 12.8692 23.2741 14.0778 23.2707C15.2867 23.2849 16.4952 23.2175 17.695 23.0691C18.674 22.9463 19.6389 22.7296 20.5763 22.4218C21.2078 22.2131 21.8209 21.9521 22.4091 21.6416C22.6107 21.5307 22.7761 21.4399 22.8829 21.3774L23.0059 21.3089C23.0201 21.302 23.035 21.2966 23.0503 21.2927Z" fill="#263238"/>
<path d="M17.4452 23.1555C17.4547 23.2006 17.4594 23.2466 17.4593 23.2926C17.4593 23.3834 17.4593 23.5185 17.4593 23.6959C17.4596 24.1852 17.4082 24.6731 17.3061 25.1516C17.2334 25.4828 17.1274 25.8057 16.9895 26.1154C16.836 26.4738 16.6324 26.8084 16.3846 27.1094C16.1056 27.4409 15.7705 27.7207 15.3947 27.9361C15.1936 28.0465 14.9822 28.137 14.7636 28.2063C14.5366 28.2736 14.3024 28.3135 14.0659 28.3253C13.5988 28.3361 13.1373 28.222 12.7291 27.9946C12.3498 27.7833 12.0155 27.4997 11.7452 27.1598C11.2945 26.581 10.9989 25.8967 10.8863 25.1718C10.8077 24.6887 10.7767 24.1991 10.7935 23.71C10.7935 23.5386 10.8096 23.4035 10.8177 23.3067C10.8187 23.2598 10.8248 23.2132 10.8358 23.1676C10.8394 23.2139 10.8394 23.2604 10.8358 23.3067C10.8358 23.4076 10.8358 23.5406 10.8358 23.71C10.8327 24.1947 10.8746 24.6787 10.9609 25.1557C11.0794 25.8642 11.3748 26.5313 11.8198 27.0953C12.0839 27.4235 12.4092 27.6974 12.7775 27.9018C13.1729 28.1191 13.619 28.227 14.07 28.2144C14.2975 28.2035 14.5228 28.1656 14.7414 28.1014C14.9512 28.0345 15.1539 27.9467 15.3463 27.8393C15.7136 27.63 16.0406 27.3569 16.3121 27.0328C16.5594 26.7419 16.7631 26.4165 16.9169 26.067C17.0567 25.7635 17.1654 25.4467 17.2416 25.1214C17.3495 24.6486 17.4116 24.1665 17.4271 23.6818C17.4271 23.5185 17.4271 23.3874 17.4371 23.2785C17.4359 23.2374 17.4386 23.1962 17.4452 23.1555Z" fill="#263238"/>
<path d="M18.21 29.6398L18.6374 27.7324H22.3837C22.2506 28.301 22.0651 28.9644 21.8514 29.6701L18.21 29.6398Z" fill="#FAFAFA"/>
<path d="M9.82994 29.6398L9.40451 27.7324H5.65625C5.78932 28.301 5.90223 28.9644 6.11394 29.6701L9.82994 29.6398Z" fill="#FAFAFA"/>
<path opacity="0.4" d="M22.7845 20.8247C21.8872 19.3609 19.5141 17.6672 14.3948 17.4293C14.3948 17.4293 8.65845 17.2438 6.20868 19.5645C5.97654 19.8025 5.76727 20.0617 5.58363 20.3388C5.43443 20.615 7.49708 23.093 14.1266 22.8813C20.9658 22.6615 22.7845 20.8247 22.7845 20.8247Z" fill="black"/>
<path d="M4.96108 12.0781C4.63242 11.3422 4.47314 10.4994 4.69695 9.72511C4.92075 8.95086 5.58612 8.2754 6.39062 8.20483" fill="#263238"/>
<path d="M6.12215 8.25122C6.12215 8.26533 5.98705 8.37421 5.7955 8.59399C5.54386 8.87686 5.33344 9.19386 5.17046 9.53559C5.01777 9.88392 4.88712 10.2415 4.77931 10.6062C4.74558 10.7617 4.70111 10.9146 4.64623 11.0639C4.64129 10.9031 4.6617 10.7425 4.70672 10.5881C4.79465 10.2118 4.9175 9.84463 5.07368 9.49123C5.24073 9.13975 5.46642 8.81929 5.74107 8.54358C5.84728 8.42164 5.97686 8.32223 6.12215 8.25122Z" fill="#F66D1D"/>
<path d="M23.5008 12.0781C23.8294 11.3422 23.9887 10.4994 23.7649 9.72511C23.5411 8.95086 22.8757 8.2754 22.0732 8.20483" fill="#263238"/>
<path d="M22.3394 8.25122C22.4852 8.32141 22.6149 8.42094 22.7204 8.54358C22.9956 8.81883 23.2214 9.13939 23.3878 9.49123C23.544 9.84463 23.6669 10.2118 23.7548 10.5881C23.7998 10.7425 23.8202 10.9031 23.8153 11.0639C23.7616 10.9142 23.7171 10.7614 23.6822 10.6062C23.5752 10.2415 23.4452 9.8839 23.2931 9.53559C23.1287 9.19416 22.9177 8.87725 22.666 8.59399C22.4745 8.37623 22.3293 8.26533 22.3394 8.25122Z" fill="#F66D1D"/>
<path d="M5.70437 15.7317C5.25819 15.276 4.93043 14.718 4.74977 14.1064C4.5691 13.4948 4.54103 12.8483 4.668 12.2234C5.20433 9.52155 7.1702 4.6583 14.3945 4.76314C21.9737 4.87001 23.3972 10.1164 23.6412 12.6427C23.6921 13.1597 23.6403 13.6817 23.4888 14.1786C23.3372 14.6755 23.0888 15.1376 22.758 15.5381C21.6309 16.8991 19.2376 18.6573 14.3945 18.6553C9.5978 18.6593 7.01898 17.0584 5.70437 15.7317Z" fill="#F66D1D"/>
<path d="M11.0176 5.07959C11.0359 5.10769 11.0501 5.13824 11.0599 5.17032L11.1648 5.43647C11.2555 5.66633 11.3825 6.00103 11.5801 6.3942C11.8039 6.85683 12.1108 7.2744 12.4854 7.62615C12.9387 8.06266 13.5437 8.30624 14.173 8.30563C14.8003 8.26805 15.3974 8.0234 15.8707 7.61002C16.2562 7.26986 16.5796 6.86529 16.8265 6.41437C16.9962 6.11044 17.1477 5.79669 17.2801 5.47478C17.3251 5.35429 17.3769 5.23648 17.4354 5.12193C17.433 5.15535 17.4248 5.18809 17.4112 5.21871C17.391 5.28122 17.3608 5.37397 17.3184 5.48889C17.1992 5.81933 17.0564 6.14075 16.891 6.45066C16.6489 6.91586 16.3244 7.33327 15.9333 7.6826C15.4462 8.11679 14.8265 8.37334 14.1751 8.41048C13.8373 8.41878 13.5022 8.34981 13.1952 8.20885C12.9113 8.07979 12.65 7.90622 12.4209 7.6947C12.0402 7.33222 11.7323 6.9004 11.5136 6.42243C11.3642 6.1056 11.2349 5.77966 11.1265 5.44655C11.0861 5.32827 11.0579 5.23753 11.0418 5.17436C11.0307 5.1436 11.0226 5.11187 11.0176 5.07959Z" fill="#263238"/>
<path d="M19.1817 15.4333C15.6653 16.2923 12.2336 16.3245 8.89867 15.4696C8.28808 15.3108 7.74768 14.9534 7.36257 14.4536C6.97746 13.9539 6.76952 13.3402 6.7715 12.7093V12.661C6.7715 12.286 6.84534 11.9148 6.98882 11.5684C7.1323 11.222 7.34261 10.9072 7.60772 10.6421C7.87284 10.377 8.18757 10.1667 8.53396 10.0232C8.88035 9.87976 9.25161 9.80591 9.62654 9.80591H18.4982C18.8731 9.80591 19.2443 9.87976 19.5907 10.0232C19.9371 10.1667 20.2519 10.377 20.517 10.6421C20.7821 10.9072 20.9924 11.222 21.1359 11.5684C21.2794 11.9148 21.3532 12.286 21.3532 12.661C21.3536 13.2994 21.1399 13.9195 20.7462 14.4222C20.3525 14.9248 19.8016 15.2808 19.1817 15.4333Z" fill="#263238"/>
<path d="M11.4347 13.2035C11.4144 13.3298 11.3571 13.4473 11.2701 13.541C11.1831 13.6348 11.0703 13.7007 10.9459 13.7304C10.8214 13.7601 10.691 13.7522 10.571 13.7078C10.451 13.6634 10.3469 13.5845 10.2718 13.4809C10.1967 13.3774 10.1539 13.2539 10.1489 13.1261C10.1439 12.9982 10.1769 12.8718 10.2438 12.7627C10.3106 12.6536 10.4083 12.5668 10.5244 12.5132C10.6406 12.4596 10.77 12.4416 10.8964 12.4615C10.9805 12.4747 11.0612 12.5045 11.1338 12.549C11.2064 12.5934 11.2695 12.6518 11.3195 12.7208C11.3695 12.7897 11.4055 12.8678 11.4252 12.9506C11.445 13.0335 11.4482 13.1194 11.4347 13.2035Z" fill="white"/>
<path d="M18.8507 12.8281C18.8303 12.9544 18.7729 13.0719 18.6858 13.1657C18.5987 13.2594 18.4857 13.3253 18.3612 13.3548C18.2366 13.3844 18.1061 13.3764 17.9861 13.3318C17.8662 13.2872 17.7621 13.208 17.6871 13.1043C17.6122 13.0005 17.5696 12.8769 17.5649 12.749C17.5602 12.6211 17.5935 12.4946 17.6606 12.3857C17.7277 12.2767 17.8257 12.19 17.942 12.1367C18.0584 12.0834 18.188 12.0658 18.3143 12.0861C18.3983 12.0996 18.4787 12.1295 18.5511 12.174C18.6235 12.2186 18.6864 12.277 18.7362 12.346C18.786 12.4149 18.8218 12.4929 18.8414 12.5756C18.861 12.6583 18.8642 12.7441 18.8507 12.8281Z" fill="white"/>
<path d="M16.0038 12.9109C16.0327 13.1033 15.9988 13.2999 15.907 13.4714C15.8209 13.6645 15.6903 13.8344 15.5259 13.9674C15.3261 14.128 15.082 14.2236 14.8263 14.2416C14.5729 14.2618 14.3194 14.2034 14.1004 14.0743C13.923 13.9661 13.7743 13.8167 13.6669 13.6388C13.5553 13.4806 13.4993 13.2898 13.5077 13.0964C13.5692 13.2664 13.6475 13.4299 13.7415 13.5843C13.8506 13.7408 13.9932 13.8709 14.1589 13.9654C14.3598 14.077 14.5892 14.1268 14.8182 14.1086C15.0492 14.0927 15.2706 14.01 15.4554 13.8706C15.6088 13.7521 15.7353 13.6023 15.8264 13.4311C15.9007 13.2632 15.9601 13.0892 16.0038 12.9109Z" fill="white"/>
</g>
</svg>
