<svg width="62" height="62" viewBox="0 0 62 62" fill="none" xmlns="http://www.w3.org/2000/svg">
<circle cx="31" cy="31" r="31" fill="white"/>
<path d="M30.6367 11V50" stroke="#FF8B47" stroke-width="2" stroke-linecap="round" stroke-linejoin="round"/>
<path d="M39.5019 18.0916H26.2051C24.5599 18.0916 22.982 18.7457 21.8172 19.9086C20.6542 21.0733 20 22.651 20 24.2961C20 25.9412 20.6542 27.5189 21.8172 28.6835C22.982 29.8465 24.5599 30.5006 26.2051 30.5006H35.0696C36.7149 30.5006 38.2927 31.1548 39.4575 32.3177C40.6205 33.4824 41.2748 35.0601 41.2748 36.7052C41.2748 38.3503 40.6205 39.9279 39.4575 41.0926C38.2927 42.2555 36.7149 42.9097 35.0696 42.9097H20" stroke="#FF8B47" stroke-width="2" stroke-linecap="round" stroke-linejoin="round"/>
</svg>
