<svg width="34" height="34" viewBox="0 0 34 34" fill="none" xmlns="http://www.w3.org/2000/svg">
<circle cx="16.7047" cy="16.7987" r="15.7047" fill="white" stroke="#2B3640" stroke-width="2"/>
<path d="M16.5098 6.02148V27.0371" stroke="#2B3640" stroke-width="2" stroke-linecap="round" stroke-linejoin="round"/>
<path d="M21.2861 9.84277H14.1211C13.2345 9.84277 12.3842 10.1953 11.7566 10.8219C11.1299 11.4495 10.7773 12.2997 10.7773 13.1862C10.7773 14.0726 11.1299 14.9228 11.7566 15.5504C12.3842 16.177 13.2345 16.5295 14.1211 16.5295H18.8978C19.7843 16.5295 20.6346 16.8821 21.2622 17.5087C21.8889 18.1363 22.2415 18.9865 22.2415 19.8729C22.2415 20.7594 21.8889 21.6096 21.2622 22.2372C20.6346 22.8638 19.7843 23.2163 18.8978 23.2163H10.7773" stroke="#2B3640" stroke-width="2" stroke-linecap="round" stroke-linejoin="round"/>
</svg>
