<svg width="61" height="61" viewBox="0 0 61 61" fill="none" xmlns="http://www.w3.org/2000/svg">
<circle cx="30.5" cy="30.5" r="30.5" fill="white"/>
<mask id="mask0" mask-type="alpha" maskUnits="userSpaceOnUse" x="0" y="0" width="61" height="61">
<circle cx="30.5" cy="30.5" r="30.5" fill="white"/>
</mask>
<g mask="url(#mask0)">
<path d="M31.3612 37.9708C31.3612 37.9708 11.1553 37.3163 11.1553 48.0738C11.1553 60.2545 15.1701 83.0784 31.3612 82.8412C47.5524 82.604 50.5218 50.5996 50.6887 49.1764C50.7019 49.1632 51.5452 38.8933 31.3612 37.9708Z" fill="#F66D1D"/>
<path d="M50.2175 46.3875C50.1929 46.4133 50.1648 46.4354 50.134 46.4534L49.8748 46.6247C49.6508 46.7784 49.3082 46.9849 48.8645 47.2396C47.5902 47.9434 46.2554 48.5314 44.8761 48.9967C42.8301 49.6919 40.72 50.1819 38.5771 50.4594C35.9551 50.7919 33.313 50.9387 30.6704 50.8987C28.0295 50.9088 25.3901 50.7754 22.7637 50.499C20.6085 50.2658 18.5002 49.7121 16.5087 48.8561C15.1721 48.268 13.9336 47.4784 12.8364 46.5149C12.4587 46.1635 12.1775 45.8735 12.0018 45.6715L11.8042 45.4343L11.7383 45.3508C11.7383 45.3508 11.769 45.3728 11.8217 45.4211L12.037 45.6407C12.2215 45.834 12.5114 46.1107 12.9155 46.4446C14.021 47.3795 15.2603 48.1435 16.5921 48.7112C18.5677 49.544 20.6542 50.0841 22.7857 50.3145C25.4057 50.5764 28.0373 50.7039 30.6704 50.6966C33.3041 50.7275 35.9368 50.5808 38.5507 50.2574C40.6835 49.9899 42.7855 49.5177 44.8277 48.8473C46.2036 48.3925 47.5391 47.8239 48.8206 47.1474C49.2599 46.9058 49.6201 46.7081 49.8529 46.572L50.1208 46.4226C50.1518 46.4077 50.1842 46.396 50.2175 46.3875V46.3875Z" fill="#263238"/>
<path d="M38.0058 50.4458C38.0264 50.544 38.0367 50.6441 38.0365 50.7445C38.0365 50.9422 38.0365 51.2365 38.0365 51.623C38.037 52.689 37.9252 53.752 37.7027 54.7945C37.5444 55.5159 37.3133 56.2194 37.013 56.8941C36.6787 57.6748 36.235 58.404 35.6953 59.0597C35.0874 59.7817 34.3574 60.3913 33.5385 60.8607C33.1005 61.1012 32.64 61.2984 32.1636 61.4493C31.6691 61.5959 31.1589 61.6829 30.6438 61.7084C29.6261 61.7322 28.6207 61.4834 27.7315 60.988C26.905 60.5277 26.1768 59.9099 25.5879 59.1695C24.6061 57.9084 23.962 56.4177 23.7166 54.8384C23.5455 53.786 23.4779 52.7194 23.5146 51.6538C23.5146 51.2804 23.5497 50.9861 23.5673 50.7752C23.5695 50.6731 23.5828 50.5715 23.6068 50.4722C23.6145 50.573 23.6145 50.6744 23.6068 50.7752C23.6068 50.9949 23.6068 51.2848 23.6068 51.6538C23.5999 52.7098 23.6911 53.7641 23.8792 54.8033C24.1374 56.3468 24.781 57.8003 25.7504 59.0289C26.3258 59.7439 27.0344 60.3406 27.8369 60.786C28.6982 61.2593 29.6701 61.4943 30.6525 61.4668C31.1482 61.4432 31.6392 61.3606 32.1153 61.2208C32.5725 61.075 33.014 60.8837 33.4331 60.6498C34.2333 60.1938 34.9458 59.5988 35.5371 58.8928C36.0759 58.2589 36.5198 57.5502 36.8549 56.7887C37.1593 56.1275 37.3962 55.4373 37.5621 54.7286C37.7973 53.6986 37.9326 52.6483 37.9662 51.5923C37.9662 51.2365 37.9662 50.951 37.9882 50.7138C37.9855 50.6241 37.9914 50.5344 38.0058 50.4458Z" fill="#263238"/>
<path d="M39.6719 64.5726L40.6031 60.4172H48.7646C48.4747 61.6559 48.0705 63.1011 47.6049 64.6385L39.6719 64.5726Z" fill="#FAFAFA"/>
<path d="M21.4149 64.5726L20.4881 60.4172H12.3223C12.6122 61.6559 12.8582 63.1011 13.3194 64.6385L21.4149 64.5726Z" fill="#FAFAFA"/>
<path opacity="0.4" d="M49.637 45.3679C47.6823 42.1789 42.5122 38.4891 31.3594 37.9708C31.3594 37.9708 18.8624 37.5667 13.5254 42.6226C13.0197 43.1409 12.5638 43.7057 12.1637 44.3093C11.8387 44.9111 16.3323 50.3096 30.7752 49.8484C45.6749 49.3696 49.637 45.3679 49.637 45.3679Z" fill="black"/>
<path d="M10.8073 26.3132C10.0913 24.7099 9.74425 22.8738 10.2318 21.187C10.7194 19.5003 12.169 18.0287 13.9216 17.875" fill="#263238"/>
<path d="M13.3381 17.9758C13.3381 18.0066 13.0437 18.2438 12.6264 18.7226C12.0782 19.3388 11.6198 20.0294 11.2647 20.7739C10.9321 21.5328 10.6475 22.3118 10.4126 23.1064C10.3391 23.4451 10.2422 23.7782 10.1227 24.1035C10.1119 23.7532 10.1564 23.4033 10.2544 23.0669C10.446 22.2472 10.7137 21.4472 11.0539 20.6773C11.4178 19.9116 11.9095 19.2134 12.5078 18.6128C12.7392 18.3471 13.0215 18.1305 13.3381 17.9758V17.9758Z" fill="#F66D1D"/>
<path d="M51.1979 26.3132C51.9139 24.7099 52.2609 22.8738 51.7733 21.187C51.2857 19.5003 49.8361 18.0287 48.0879 17.875" fill="#263238"/>
<path d="M48.6671 17.9758C48.9847 18.1287 49.2673 18.3456 49.4973 18.6128C50.0968 19.2124 50.5886 19.9108 50.9512 20.6773C51.2915 21.4472 51.5591 22.2472 51.7507 23.0669C51.8488 23.4033 51.8932 23.7532 51.8825 24.1035C51.7654 23.7774 51.6686 23.4444 51.5926 23.1064C51.3595 22.3118 51.0763 21.5327 50.7448 20.7739C50.3868 20.0301 49.927 19.3397 49.3787 18.7226C48.9614 18.2482 48.6451 18.0066 48.6671 17.9758Z" fill="#F66D1D"/>
<path d="M12.4281 34.2724C11.456 33.2798 10.742 32.0641 10.3484 30.7317C9.95482 29.3993 9.89365 27.9908 10.1703 26.6293C11.3387 20.7432 15.6215 10.1483 31.3602 10.3767C47.872 10.6095 50.9731 22.039 51.5046 27.543C51.6157 28.6693 51.5028 29.8065 51.1726 30.889C50.8424 31.9716 50.3014 32.9781 49.5807 33.8507C47.1252 36.8157 41.9112 40.6461 31.3602 40.6417C20.9102 40.6505 15.292 37.1628 12.4281 34.2724Z" fill="#F66D1D"/>
<path d="M24.002 11.0664C24.0418 11.1276 24.0729 11.1942 24.0942 11.2641L24.3226 11.8439C24.5203 12.3447 24.797 13.0738 25.2275 13.9304C25.715 14.9382 26.3835 15.848 27.1998 16.6143C28.1873 17.5652 29.5054 18.0959 30.8764 18.0946C32.243 18.0127 33.5438 17.4797 34.5749 16.5791C35.4147 15.8381 36.1192 14.9567 36.657 13.9743C37.0268 13.3122 37.3568 12.6287 37.6454 11.9274C37.7433 11.6649 37.8562 11.4082 37.9836 11.1587C37.9783 11.2315 37.9605 11.3028 37.9309 11.3695C37.887 11.5057 37.8211 11.7077 37.7288 11.9581C37.4691 12.678 37.1579 13.3782 36.7976 14.0534C36.2702 15.0668 35.5632 15.9762 34.7111 16.7373C33.65 17.6832 32.3 18.2421 30.8808 18.323C30.145 18.3411 29.4148 18.1908 28.746 17.8837C28.1276 17.6026 27.5582 17.2244 27.0592 16.7636C26.2299 15.9739 25.559 15.0332 25.0825 13.9919C24.757 13.3016 24.4753 12.5916 24.2391 11.8659C24.1513 11.6082 24.0898 11.4105 24.0547 11.2729C24.0306 11.2058 24.013 11.1367 24.002 11.0664Z" fill="#263238"/>
<path d="M41.7884 33.6225C34.1277 35.4938 26.6515 35.5641 19.3862 33.7016C18.056 33.3556 16.8787 32.5769 16.0397 31.4882C15.2007 30.3995 14.7477 29.0626 14.752 27.6881V27.5827C14.752 26.7659 14.9129 25.9571 15.2254 25.2025C15.538 24.4478 15.9962 23.7621 16.5738 23.1846C17.1513 22.607 17.837 22.1488 18.5916 21.8363C19.3463 21.5237 20.1551 21.3628 20.9719 21.3628H40.2993C41.1161 21.3628 41.925 21.5237 42.6796 21.8363C43.4342 22.1488 44.1199 22.607 44.6975 23.1846C45.2751 23.7621 45.7332 24.4478 46.0458 25.2025C46.3584 25.9571 46.5193 26.7659 46.5193 27.5827V27.5827C46.5202 28.9736 46.0546 30.3246 45.1969 31.4196C44.3392 32.5146 43.1391 33.2903 41.7884 33.6225V33.6225Z" fill="#263238"/>
<path d="M24.9116 28.7645C24.8674 29.0397 24.7426 29.2956 24.5531 29.4999C24.3635 29.7042 24.1177 29.8477 23.8466 29.9124C23.5755 29.9771 23.2914 29.96 23.03 29.8633C22.7686 29.7665 22.5418 29.5945 22.3781 29.3689C22.2145 29.1434 22.1213 28.8743 22.1104 28.5959C22.0996 28.3174 22.1715 28.0419 22.3171 27.8043C22.4627 27.5666 22.6754 27.3775 22.9284 27.2607C23.1815 27.1439 23.4635 27.1047 23.7388 27.148C23.922 27.1769 24.0978 27.2416 24.256 27.3386C24.4142 27.4355 24.5517 27.5627 24.6607 27.7128C24.7696 27.863 24.8479 28.0332 24.8909 28.2137C24.934 28.3941 24.941 28.5813 24.9116 28.7645Z" fill="white"/>
<path d="M41.0677 27.9471C41.0234 28.2224 40.8984 28.4783 40.7086 28.6826C40.5187 28.8869 40.2726 29.0303 40.0013 29.0947C39.73 29.1591 39.4457 29.1416 39.1843 29.0444C38.9229 28.9473 38.6963 28.7748 38.5329 28.5488C38.3696 28.3228 38.2769 28.0534 38.2666 27.7748C38.2563 27.4961 38.3289 27.2207 38.4751 26.9832C38.6214 26.7458 38.8347 26.5571 39.0882 26.4409C39.3417 26.3248 39.624 26.2864 39.8993 26.3306C40.0822 26.36 40.2575 26.4251 40.4152 26.5222C40.5729 26.6194 40.7099 26.7466 40.8184 26.8968C40.9269 27.0469 41.0048 27.2169 41.0476 27.3971C41.0903 27.5773 41.0972 27.7642 41.0677 27.9471V27.9471Z" fill="white"/>
<path d="M34.8656 28.1272C34.9287 28.5463 34.8547 28.9746 34.6548 29.3483C34.4671 29.7689 34.1826 30.1392 33.8246 30.4289C33.3892 30.7787 32.8574 30.9871 32.3003 31.0263C31.7483 31.0703 31.1961 30.943 30.719 30.6617C30.3324 30.4261 30.0084 30.1006 29.7746 29.7129C29.5314 29.3683 29.4093 28.9527 29.4276 28.5313C29.5616 28.9017 29.7323 29.2578 29.9371 29.5943C30.1748 29.9351 30.4854 30.2187 30.8464 30.4245C31.284 30.6676 31.7837 30.7761 32.2828 30.7364C32.7859 30.7019 33.2682 30.5218 33.6708 30.2181C34.0051 29.9598 34.2806 29.6334 34.4791 29.2605C34.641 28.8948 34.7703 28.5156 34.8656 28.1272V28.1272Z" fill="white"/>
</g>
</svg>
