<svg width="389" height="388" viewBox="0 0 389 388" fill="none" xmlns="http://www.w3.org/2000/svg">
<path d="M190.701 388C296.022 388 381.402 368.593 381.402 344.652C381.402 320.712 296.022 301.304 190.701 301.304C85.3797 301.304 0 320.712 0 344.652C0 368.593 85.3797 388 190.701 388Z" fill="#EBEBEB"/>
<path d="M142.467 322.442L315.815 300.458L388.649 349.393L217.652 381.777L142.467 322.442Z" fill="#F66D1D"/>
<path d="M152.975 322.964L221.79 377.473L382.027 347.234L311.56 300.274C311.56 300.274 264.77 300.556 262.538 300.937C260.305 301.318 238.949 306.92 238.949 306.92C238.949 306.92 209.855 308.246 207.831 308.627C205.807 309.008 152.975 322.964 152.975 322.964Z" fill="white"/>
<path d="M238.947 306.864L247.341 313.566L255.675 320.34L272.239 333.985L288.669 347.785L296.824 354.741L304.92 361.754L296.527 355.066L288.193 348.293L271.629 334.648L255.214 320.847L247.058 313.891L238.947 306.864Z" fill="#DBDBDB"/>
<path d="M248.859 341.802C250.883 341.435 252.907 341.152 254.946 340.899C256.985 340.645 259.039 340.419 261.093 340.221C263.146 340.024 265.2 339.854 267.254 339.742C269.308 339.629 271.376 339.516 273.445 339.502C271.406 339.883 269.367 340.151 267.328 340.419C265.289 340.687 263.251 340.884 261.212 341.082C259.173 341.279 257.104 341.449 255.05 341.562C252.997 341.675 250.943 341.787 248.859 341.802Z" fill="#DBDBDB"/>
<path d="M212.027 356.717C217.4 355.037 222.802 353.443 228.204 351.863C233.607 350.282 239.039 348.787 244.471 347.277C247.179 346.515 249.903 345.866 252.656 345.132C253.36 344.965 254.076 344.852 254.799 344.793L256.927 344.582L261.139 344.215C266.779 343.763 272.419 343.354 278.075 343.058C272.464 343.749 266.839 344.328 261.213 344.934L257.001 345.358C255.616 345.467 254.239 345.661 252.879 345.936C250.156 346.613 247.447 347.347 244.724 348.095L228.353 352.483C222.951 353.923 217.489 355.362 212.027 356.717Z" fill="#DBDBDB"/>
<path d="M216.834 360.611C222.043 358.918 227.252 357.323 232.52 355.757C237.788 354.191 243.027 352.667 248.295 351.157C250.929 350.395 253.563 349.675 256.227 348.984C256.897 348.815 257.552 348.645 258.266 348.504C258.98 348.363 259.65 348.335 260.335 348.25L264.442 347.869C269.934 347.432 275.41 347.037 280.902 346.754C275.455 347.446 269.993 348.01 264.531 348.617L260.439 349.04C259.754 349.125 259.07 349.181 258.415 349.308C257.76 349.435 257.12 349.619 256.465 349.788L248.548 351.975C243.265 353.386 238.011 354.939 232.713 356.364C227.415 357.789 222.147 359.242 216.834 360.611Z" fill="#DBDBDB"/>
<path d="M221.684 363.913C226.962 362.427 232.26 361.016 237.578 359.68C242.891 358.269 248.233 356.985 253.561 355.658C256.24 355.009 258.859 354.346 261.627 353.824L269.798 352.667C275.26 351.947 280.721 351.256 286.168 350.621C280.751 351.622 275.319 352.511 269.887 353.443L261.732 354.699C259.112 355.207 256.419 355.926 253.755 356.533C248.397 357.775 243.069 359.116 237.727 360.329C232.384 361.543 227.056 362.756 221.684 363.913Z" fill="#DBDBDB"/>
<path d="M300.16 349.252C305.121 347.662 310.106 346.223 315.117 344.934C316.382 344.61 317.632 344.285 318.912 344.003C319.552 343.862 320.177 343.721 320.861 343.622L322.796 343.368L330.535 342.366C335.699 341.689 340.863 341.082 346.027 340.447C351.191 339.812 356.37 339.219 361.535 338.655C356.4 339.445 351.251 340.221 346.102 340.955C340.952 341.689 335.803 342.451 330.654 343.128L322.915 344.186L320.98 344.44C320.385 344.553 319.745 344.694 319.12 344.85L315.34 345.725C310.295 346.952 305.295 348.166 300.16 349.252Z" fill="#DBDBDB"/>
<path d="M295.605 344.892C300.457 343.594 305.348 342.432 310.279 341.407C312.75 340.885 315.191 340.334 317.72 339.996L325.162 338.98C330.147 338.288 335.148 337.667 340.148 337.018C345.148 336.369 350.134 335.777 355.149 335.198C350.179 336.002 345.208 336.793 340.267 337.54C335.326 338.288 330.311 339.05 325.385 339.742L317.944 340.814C316.708 340.969 315.503 341.237 314.268 341.477L310.562 342.183C305.572 343.18 300.586 344.083 295.605 344.892Z" fill="#DBDBDB"/>
<path d="M291.156 340.969C295.993 339.713 300.845 338.556 305.741 337.554C308.196 337.046 310.622 336.496 313.182 336.143L320.623 335.325C325.594 334.774 330.579 334.28 335.505 333.787C340.431 333.293 345.476 332.827 350.462 332.375C345.506 333.053 340.536 333.702 335.58 334.295C330.624 334.887 325.653 335.522 320.698 336.087C318.227 336.369 315.712 336.637 313.256 336.947L305.919 338.359C301.028 339.309 296.107 340.179 291.156 340.969Z" fill="#DBDBDB"/>
<path d="M287.316 337.964C292.019 336.228 296.811 334.789 301.678 333.49C302.288 333.321 302.898 333.18 303.523 333.053C304.156 332.922 304.797 332.833 305.443 332.785L309.208 332.46L316.724 331.854C326.754 331.077 336.8 330.358 346.845 329.751C336.83 330.781 326.814 331.698 316.798 332.573L309.283 333.236L305.532 333.589C304.307 333.721 303.097 333.957 301.916 334.295C297.049 335.565 292.228 336.933 287.316 337.964Z" fill="#DBDBDB"/>
<path d="M283.135 334.45C287.838 332.714 292.645 331.275 297.496 329.977C298.106 329.807 298.717 329.666 299.342 329.539C299.975 329.411 300.616 329.321 301.261 329.271L305.027 328.947L312.542 328.34C322.588 327.564 332.618 326.844 342.664 326.238C332.663 327.268 322.632 328.185 312.617 329.06L305.101 329.723L301.351 330.076C300.125 330.207 298.915 330.443 297.734 330.781C292.883 332.009 288.046 333.363 283.135 334.45Z" fill="#DBDBDB"/>
<path d="M278.951 330.908C283.669 329.187 288.461 327.747 293.313 326.449C293.923 326.28 294.533 326.139 295.173 326.012C295.806 325.881 296.447 325.791 297.093 325.744L300.843 325.419L308.373 324.812C318.404 324.036 328.435 323.317 338.48 322.71C328.479 323.74 318.464 324.657 308.433 325.532L300.992 326.195L297.227 326.548C296 326.674 294.789 326.911 293.61 327.254C288.699 328.453 283.877 329.808 278.951 330.908Z" fill="#DBDBDB"/>
<path d="M274.785 327.324C279.488 325.603 284.28 324.149 289.146 322.851C289.757 322.696 290.367 322.555 290.992 322.428C291.623 322.29 292.265 322.201 292.912 322.16L296.677 321.835L304.192 321.214C314.223 320.452 324.269 319.719 334.314 319.126C324.298 320.156 314.283 321.059 304.267 321.948L296.751 322.611L293.001 322.95C291.771 323.088 290.555 323.329 289.37 323.67C284.459 324.897 279.696 326.252 274.785 327.324Z" fill="#DBDBDB"/>
<path d="M269.203 324.206C273.906 322.47 278.698 321.031 283.564 319.733C284.175 319.577 284.785 319.422 285.41 319.295C286.042 319.162 286.684 319.077 287.33 319.041L291.095 318.717L298.61 318.096C308.641 317.334 318.686 316.6 328.732 315.993C318.716 317.023 308.701 317.94 298.685 318.815L291.169 319.464L287.419 319.817C286.189 319.95 284.974 320.187 283.788 320.523C278.936 321.779 274.114 323.133 269.203 324.206Z" fill="#DBDBDB"/>
<path d="M263.771 321.13C268.474 319.394 273.281 317.955 278.133 316.656C278.743 316.487 279.353 316.346 279.978 316.219C280.611 316.09 281.253 316.001 281.898 315.951L285.663 315.626L293.194 315.02C303.224 314.243 313.255 313.524 323.3 312.917C313.3 313.947 303.269 314.864 293.253 315.739L285.738 316.402L281.987 316.755C280.762 316.887 279.552 317.123 278.371 317.461C273.519 318.688 268.683 320.057 263.771 321.13Z" fill="#DBDBDB"/>
<path d="M259.605 317.574C264.293 315.838 269.085 314.399 273.937 313.101C274.547 312.945 275.157 312.79 275.782 312.677C276.413 312.533 277.055 312.443 277.702 312.409L281.467 312.141L288.983 311.647C299.014 311.054 309.044 310.504 319.09 310.081C309.074 310.927 299.058 311.661 289.043 312.409L281.527 312.945L277.777 313.242C276.556 313.363 275.35 313.595 274.175 313.933C269.324 315.147 264.502 316.501 259.605 317.574Z" fill="#DBDBDB"/>
<path d="M255.422 313.976C260.11 312.254 264.887 310.815 269.739 309.53C270.349 309.361 270.944 309.22 271.569 309.093C272.203 308.945 272.851 308.86 273.504 308.839L277.269 308.627L284.785 308.274C294.795 307.861 304.821 307.536 314.862 307.301C304.846 307.95 294.83 308.486 284.814 309.037L277.373 309.432L273.623 309.657C272.401 309.778 271.194 310.015 270.021 310.363C265.11 311.591 260.318 312.931 255.422 313.976Z" fill="#DBDBDB"/>
<path d="M251.24 310.447C255.928 308.726 260.69 307.287 265.527 306.003C266.137 305.833 266.747 305.692 267.373 305.565C268 305.414 268.645 305.334 269.292 305.325L273.058 305.213L280.573 305.1C285.574 305.1 290.589 305.1 295.589 305.015C300.59 304.93 305.605 305.015 310.62 305.1C300.605 305.41 290.589 305.622 280.588 305.848L273.147 306.017L269.397 306.144C268.185 306.261 266.988 306.493 265.825 306.835C260.929 308.035 256.181 309.375 251.24 310.447Z" fill="#DBDBDB"/>
<path d="M226.418 368.739C231.805 367.328 237.208 366.1 242.61 364.845C248.012 363.589 253.444 362.403 258.861 361.19C261.585 360.597 264.278 360.033 267.061 359.511L275.291 358.184C280.783 357.352 286.274 356.519 291.796 355.8C286.349 356.915 280.887 357.902 275.425 358.904L267.21 360.315C264.531 360.837 261.793 361.486 259.084 362.037L242.788 365.48C237.342 366.608 231.895 367.709 226.418 368.739Z" fill="#DBDBDB"/>
<path d="M303.449 353.373C308.866 352.117 314.328 350.946 319.82 349.789C325.311 348.632 330.743 347.573 336.19 346.473C338.928 345.922 341.652 345.414 344.45 344.949L352.724 343.792C358.261 343.058 363.797 342.381 369.348 341.717C363.856 342.719 358.35 343.608 352.843 344.54L344.569 345.795C341.86 346.261 339.107 346.854 336.369 347.348L319.998 350.466C314.432 351.44 308.941 352.442 303.449 353.373Z" fill="#DBDBDB"/>
<path d="M247.402 119.996C247.464 120.286 247.414 120.589 247.261 120.847C247.108 121.106 246.863 121.305 246.569 121.407L241.583 122.225C235.63 110.767 229.514 101.807 231.255 105.363C233.919 110.974 235.743 116.911 236.672 123.001C234.484 123.34 229.365 124.088 226.805 124.412C220.242 103.867 213.262 88.8393 214.185 93.6087C217.891 112.785 217.548 119.107 217.072 125.866C193.261 129.323 162.008 133.5 139.238 136.025C135.145 124.737 131.261 112.418 130.963 113.335C128.701 120.165 129.059 129.732 129.922 137.041C122.674 137.789 116.885 138.255 113.328 138.368C113.328 138.368 110.352 128.801 109.741 125.668C108.057 117.557 107.87 109.23 109.191 101.059C110.575 92.7197 113.819 85.1564 116.84 77.4237C116.832 77.3676 116.832 77.3106 116.84 77.2544C118.839 72.1945 120.222 66.9348 120.963 61.5775C120.973 61.5357 120.973 61.4922 120.963 61.4504C121.446 57.5454 121.581 53.6086 121.364 49.6821C120.605 35.3034 126.975 22.1663 139.759 17.1147C161.77 -9.2017 188.126 -1.59603 198.023 15.9859C198.975 17.6933 199.943 19.6687 200.91 21.8418C204.526 29.8425 208.187 40.3268 211.328 48.4122C211.328 48.4122 211.328 48.4122 211.328 48.4969C212.53 51.6639 213.931 54.7597 215.524 57.7676C223.992 72.1463 239.515 79.2017 247.402 119.996Z" fill="#263238"/>
<path d="M134.61 21.5455C126.499 26.9922 122.02 34.2451 121.99 44.7717C121.99 50.9381 122.332 56.9069 120.755 62.8616C119.177 68.8163 115.978 74.2349 112.733 79.4699C107.554 87.767 104.25 95.8524 104.593 106.181C104.935 116.511 106.989 128.886 111.677 138.241C111.677 138.241 111.796 138.241 111.766 138.241C107.703 128.674 105.902 115.071 106.334 104.601C106.795 93.115 112.212 85.3823 117.585 76.1539C121.932 68.833 124.198 60.567 124.163 52.1657C124.163 46.9448 123.404 41.5968 124.832 36.5452C126.544 30.5058 130.949 26.3431 135.369 22.6038C135.964 22.0394 135.235 21.1363 134.61 21.5455Z" fill="#263238"/>
<path d="M232.371 72.4151C225.198 64.9082 217.935 58.629 213.024 48.9349C208.56 40.1017 205.494 30.5911 200.999 21.786C200.988 21.7579 200.964 21.7355 200.935 21.7236C200.906 21.7117 200.873 21.7113 200.843 21.7225C200.814 21.7337 200.79 21.7556 200.777 21.7834C200.765 21.8112 200.764 21.8426 200.776 21.8707C207.979 37.6182 211.06 53.9019 223.1 66.5592C229.677 73.4311 236.166 79.7526 240.958 88.2896C245.91 97.2799 249.145 107.03 250.513 117.089C250.513 117.456 251.019 117.386 251.004 117.089C250.512 100.587 243.917 84.7731 232.371 72.4151Z" fill="#263238"/>
<path d="M215.018 130.536C262.06 177.285 320.548 274.987 308.984 294.418C296.096 316.064 228.263 249.518 230.391 246.328C232.207 243.633 208.767 184.806 191.697 141.782C174.627 98.7588 203.395 118.909 215.018 130.536Z" fill="#F7A9A0"/>
<path d="M272.656 186.514L205.121 198.056C205.121 198.056 188.259 152.676 184.911 127.503C183.035 113.392 191.786 112.799 202.769 120.306C241.299 146.538 272.656 186.514 272.656 186.514Z" fill="#F66D1D"/>
<path d="M193.231 142.22C193.231 142.457 193.157 142.689 193.018 142.887C192.879 143.084 192.681 143.238 192.45 143.328C192.219 143.419 191.965 143.443 191.719 143.397C191.474 143.35 191.249 143.236 191.072 143.068C190.895 142.901 190.774 142.687 190.725 142.454C190.677 142.222 190.702 141.98 190.797 141.761C190.893 141.542 191.055 141.355 191.263 141.223C191.471 141.091 191.716 141.021 191.966 141.021C192.302 141.021 192.623 141.147 192.861 141.372C193.098 141.597 193.231 141.902 193.231 142.22ZM213.054 141.021C212.804 141.021 212.56 141.091 212.351 141.223C212.143 141.355 211.981 141.542 211.886 141.761C211.79 141.98 211.765 142.222 211.814 142.454C211.862 142.687 211.983 142.901 212.16 143.068C212.337 143.236 212.562 143.35 212.808 143.397C213.053 143.443 213.307 143.419 213.538 143.328C213.77 143.238 213.967 143.084 214.106 142.887C214.245 142.689 214.319 142.457 214.319 142.22C214.319 142.06 214.286 141.902 214.22 141.755C214.155 141.607 214.059 141.474 213.938 141.362C213.818 141.25 213.675 141.162 213.518 141.104C213.361 141.045 213.193 141.017 213.025 141.021H213.054ZM202.518 125.499C202.267 125.499 202.023 125.569 201.815 125.701C201.607 125.833 201.445 126.02 201.349 126.239C201.253 126.459 201.228 126.7 201.277 126.932C201.326 127.165 201.446 127.379 201.623 127.547C201.8 127.714 202.025 127.829 202.271 127.875C202.516 127.921 202.771 127.897 203.002 127.807C203.233 127.716 203.43 127.562 203.569 127.365C203.708 127.168 203.783 126.936 203.783 126.698C203.767 126.39 203.627 126.099 203.392 125.887C203.156 125.674 202.843 125.555 202.518 125.555V125.499ZM213.025 172.206C212.774 172.206 212.53 172.276 212.322 172.408C212.114 172.539 211.952 172.727 211.856 172.946C211.76 173.165 211.735 173.406 211.784 173.639C211.833 173.872 211.953 174.085 212.13 174.253C212.307 174.421 212.532 174.535 212.778 174.581C213.023 174.628 213.277 174.604 213.509 174.513C213.74 174.422 213.937 174.269 214.076 174.071C214.215 173.874 214.29 173.642 214.29 173.405C214.29 173.087 214.156 172.782 213.919 172.557C213.682 172.332 213.36 172.206 213.025 172.206ZM234.113 172.206C233.862 172.206 233.618 172.276 233.41 172.408C233.202 172.539 233.04 172.727 232.944 172.946C232.848 173.165 232.823 173.406 232.872 173.639C232.921 173.872 233.041 174.085 233.218 174.253C233.395 174.421 233.62 174.535 233.866 174.581C234.111 174.628 234.366 174.604 234.597 174.513C234.828 174.422 235.025 174.269 235.164 174.071C235.303 173.874 235.378 173.642 235.378 173.405C235.378 173.092 235.249 172.791 235.018 172.567C234.787 172.343 234.473 172.213 234.142 172.206H234.113ZM255.201 172.206C254.951 172.206 254.706 172.276 254.498 172.408C254.29 172.539 254.128 172.727 254.032 172.946C253.936 173.165 253.911 173.406 253.96 173.639C254.009 173.872 254.129 174.085 254.306 174.253C254.483 174.421 254.709 174.535 254.954 174.581C255.199 174.628 255.454 174.604 255.685 174.513C255.916 174.422 256.114 174.269 256.253 174.071C256.392 173.874 256.466 173.642 256.466 173.405C256.466 173.092 256.337 172.791 256.106 172.567C255.875 172.343 255.561 172.213 255.23 172.206H255.201ZM202.488 156.684C202.238 156.684 201.993 156.754 201.785 156.886C201.577 157.018 201.415 157.205 201.319 157.424C201.223 157.643 201.198 157.884 201.247 158.117C201.296 158.35 201.417 158.564 201.593 158.731C201.77 158.899 201.996 159.013 202.241 159.059C202.487 159.106 202.741 159.082 202.972 158.991C203.203 158.9 203.401 158.747 203.54 158.549C203.679 158.352 203.753 158.12 203.753 157.883C203.734 157.581 203.598 157.296 203.369 157.085C203.141 156.873 202.837 156.75 202.518 156.74L202.488 156.684ZM223.561 156.684C223.311 156.684 223.066 156.754 222.858 156.886C222.65 157.018 222.488 157.205 222.392 157.424C222.297 157.643 222.272 157.884 222.32 158.117C222.369 158.35 222.49 158.564 222.667 158.731C222.844 158.899 223.069 159.013 223.314 159.059C223.56 159.106 223.814 159.082 224.045 158.991C224.276 158.9 224.474 158.747 224.613 158.549C224.752 158.352 224.826 158.12 224.826 157.883C224.808 157.581 224.671 157.296 224.442 157.085C224.214 156.873 223.91 156.75 223.591 156.74L223.561 156.684ZM244.649 156.684C244.399 156.684 244.154 156.754 243.946 156.886C243.738 157.018 243.576 157.205 243.481 157.424C243.385 157.643 243.36 157.884 243.409 158.117C243.457 158.35 243.578 158.564 243.755 158.731C243.932 158.899 244.157 159.013 244.402 159.059C244.648 159.106 244.902 159.082 245.133 158.991C245.364 158.9 245.562 158.747 245.701 158.549C245.84 158.352 245.914 158.12 245.914 157.883C245.896 157.581 245.759 157.296 245.53 157.085C245.302 156.873 244.998 156.75 244.679 156.74L244.649 156.684ZM202.488 187.883C202.155 187.881 201.835 188.003 201.595 188.221C201.833 188.941 202.086 189.632 202.309 190.267H202.488C202.653 190.267 202.817 190.236 202.97 190.176C203.122 190.115 203.261 190.027 203.377 189.915C203.493 189.804 203.585 189.671 203.647 189.526C203.709 189.38 203.74 189.225 203.738 189.068C203.727 188.767 203.593 188.482 203.366 188.272C203.139 188.062 202.835 187.942 202.518 187.939L202.488 187.883ZM223.561 187.883C223.307 187.88 223.058 187.949 222.846 188.08C222.634 188.212 222.467 188.4 222.368 188.622C222.269 188.843 222.241 189.088 222.289 189.324C222.337 189.56 222.458 189.778 222.636 189.949C222.814 190.12 223.042 190.237 223.291 190.285C223.54 190.333 223.798 190.31 224.033 190.218C224.267 190.127 224.468 189.972 224.609 189.772C224.751 189.572 224.826 189.337 224.826 189.096C224.815 188.789 224.681 188.497 224.452 188.28C224.223 188.062 223.915 187.935 223.591 187.925L223.561 187.883ZM244.649 187.883C244.396 187.88 244.147 187.949 243.934 188.08C243.722 188.212 243.555 188.4 243.456 188.622C243.357 188.843 243.33 189.088 243.377 189.324C243.425 189.56 243.546 189.778 243.724 189.949C243.902 190.12 244.13 190.237 244.379 190.285C244.628 190.333 244.886 190.31 245.121 190.218C245.355 190.127 245.556 189.972 245.697 189.772C245.839 189.572 245.914 189.337 245.914 189.096C245.903 188.789 245.769 188.497 245.54 188.28C245.311 188.062 245.003 187.935 244.679 187.925L244.649 187.883Z" fill="white"/>
<path d="M205.585 187.558C215.824 184.975 243.802 178.71 262.554 176.89C262.673 176.89 262.762 177.285 262.643 177.313C247.3 181.053 216.166 186.415 205.734 188.164C205.585 188.193 205.361 187.614 205.585 187.558Z" fill="#263238"/>
<path opacity="0.1" d="M263.624 188.066L205.122 198.042C205.122 198.042 188.276 152.662 184.927 127.489C183.722 118.458 186.892 114.972 192.205 115.593L263.624 188.066Z" fill="black"/>
<path d="M242.462 292.429H71.3164C71.3164 292.429 86.8981 179.204 142.037 119.657C156.919 103.599 183.901 108.369 196.655 119.22C201.16 123.364 205.315 127.836 209.081 132.597C220.675 146.707 239.605 180.644 241.376 189.816C244.352 204.985 230.155 221.367 230.155 221.367L242.462 292.429Z" fill="#F66D1D"/>
<path d="M172.142 111.036C172.142 111.273 172.068 111.505 171.929 111.702C171.79 111.899 171.593 112.053 171.362 112.144C171.13 112.235 170.876 112.259 170.631 112.212C170.385 112.166 170.16 112.052 169.983 111.884C169.806 111.716 169.686 111.503 169.637 111.27C169.588 111.037 169.613 110.796 169.709 110.577C169.805 110.358 169.967 110.17 170.175 110.039C170.383 109.907 170.627 109.836 170.877 109.836C171.213 109.836 171.535 109.963 171.772 110.188C172.009 110.413 172.142 110.718 172.142 111.036ZM128.716 141.021C128.466 141.021 128.221 141.091 128.013 141.223C127.805 141.355 127.643 141.542 127.547 141.761C127.452 141.981 127.427 142.222 127.475 142.454C127.524 142.687 127.645 142.901 127.822 143.069C127.999 143.236 128.224 143.351 128.469 143.397C128.715 143.443 128.969 143.419 129.2 143.329C129.431 143.238 129.629 143.084 129.768 142.887C129.907 142.69 129.981 142.458 129.981 142.22C129.981 142.063 129.948 141.907 129.885 141.761C129.821 141.616 129.728 141.484 129.611 141.372C129.493 141.261 129.354 141.173 129.2 141.112C129.047 141.052 128.882 141.021 128.716 141.021ZM149.804 141.021C149.554 141.021 149.309 141.091 149.101 141.223C148.893 141.355 148.731 141.542 148.636 141.761C148.54 141.981 148.515 142.222 148.564 142.454C148.612 142.687 148.733 142.901 148.91 143.069C149.087 143.236 149.312 143.351 149.557 143.397C149.803 143.443 150.057 143.419 150.288 143.329C150.519 143.238 150.717 143.084 150.856 142.887C150.995 142.69 151.069 142.458 151.069 142.22C151.069 141.902 150.936 141.597 150.699 141.372C150.462 141.147 150.14 141.021 149.804 141.021ZM170.877 141.021C170.627 141.021 170.383 141.091 170.175 141.223C169.967 141.355 169.805 141.542 169.709 141.761C169.613 141.981 169.588 142.222 169.637 142.454C169.686 142.687 169.806 142.901 169.983 143.069C170.16 143.236 170.385 143.351 170.631 143.397C170.876 143.443 171.13 143.419 171.362 143.329C171.593 143.238 171.79 143.084 171.929 142.887C172.068 142.69 172.142 142.458 172.142 142.22C172.142 142.063 172.11 141.907 172.046 141.761C171.983 141.616 171.889 141.484 171.772 141.372C171.654 141.261 171.515 141.173 171.362 141.112C171.208 141.052 171.044 141.021 170.877 141.021ZM191.966 141.021C191.715 141.021 191.471 141.091 191.263 141.223C191.055 141.355 190.893 141.542 190.797 141.761C190.701 141.981 190.676 142.222 190.725 142.454C190.774 142.687 190.894 142.901 191.071 143.069C191.248 143.236 191.473 143.351 191.719 143.397C191.964 143.443 192.219 143.419 192.45 143.329C192.681 143.238 192.878 143.084 193.017 142.887C193.156 142.69 193.231 142.458 193.231 142.22C193.231 142.063 193.198 141.907 193.134 141.761C193.071 141.616 192.978 141.484 192.86 141.372C192.743 141.261 192.603 141.173 192.45 141.112C192.296 141.052 192.132 141.021 191.966 141.021ZM213.054 141.021C212.803 141.021 212.559 141.091 212.351 141.223C212.143 141.355 211.981 141.542 211.885 141.761C211.789 141.981 211.764 142.222 211.813 142.454C211.862 142.687 211.982 142.901 212.159 143.069C212.336 143.236 212.562 143.351 212.807 143.397C213.052 143.443 213.307 143.419 213.538 143.329C213.769 143.238 213.967 143.084 214.105 142.887C214.245 142.69 214.319 142.458 214.319 142.22C214.319 142.061 214.285 141.902 214.22 141.755C214.154 141.607 214.058 141.474 213.938 141.362C213.817 141.25 213.674 141.163 213.517 141.104C213.36 141.046 213.193 141.017 213.024 141.021H213.054ZM139.253 125.499C139.003 125.499 138.758 125.57 138.55 125.701C138.342 125.833 138.18 126.021 138.084 126.24C137.988 126.459 137.963 126.7 138.012 126.933C138.061 127.165 138.181 127.379 138.358 127.547C138.535 127.715 138.761 127.829 139.006 127.875C139.251 127.921 139.506 127.898 139.737 127.807C139.968 127.716 140.166 127.562 140.305 127.365C140.444 127.168 140.518 126.936 140.518 126.699C140.502 126.39 140.362 126.1 140.127 125.887C139.891 125.674 139.578 125.555 139.253 125.556V125.499ZM160.341 125.499C160.091 125.499 159.846 125.57 159.638 125.701C159.43 125.833 159.268 126.021 159.172 126.24C159.076 126.459 159.051 126.7 159.1 126.933C159.149 127.165 159.269 127.379 159.446 127.547C159.623 127.715 159.849 127.829 160.094 127.875C160.339 127.921 160.594 127.898 160.825 127.807C161.056 127.716 161.254 127.562 161.393 127.365C161.532 127.168 161.606 126.936 161.606 126.699C161.591 126.39 161.451 126.1 161.215 125.887C160.979 125.674 160.666 125.555 160.341 125.556V125.499ZM181.429 125.499C181.179 125.499 180.934 125.57 180.726 125.701C180.518 125.833 180.356 126.021 180.26 126.24C180.165 126.459 180.139 126.7 180.188 126.933C180.237 127.165 180.358 127.379 180.534 127.547C180.711 127.715 180.937 127.829 181.182 127.875C181.428 127.921 181.682 127.898 181.913 127.807C182.144 127.716 182.342 127.562 182.481 127.365C182.62 127.168 182.694 126.936 182.694 126.699C182.679 126.39 182.539 126.1 182.303 125.887C182.067 125.674 181.754 125.555 181.429 125.556V125.499ZM203.752 126.275L203.231 125.669C202.991 125.535 202.711 125.48 202.435 125.513C202.159 125.546 201.902 125.664 201.703 125.849C201.505 126.035 201.377 126.277 201.339 126.538C201.3 126.8 201.354 127.066 201.491 127.295C201.629 127.525 201.842 127.705 202.099 127.808C202.355 127.911 202.64 127.931 202.91 127.864C203.179 127.798 203.418 127.649 203.589 127.441C203.76 127.233 203.854 126.977 203.856 126.713C203.833 126.565 203.772 126.424 203.678 126.304L203.752 126.275ZM107.702 172.149H107.524C107.241 172.77 106.943 173.391 106.661 173.998C106.784 174.168 106.951 174.306 107.147 174.397C107.343 174.488 107.56 174.53 107.778 174.518C107.995 174.506 108.206 174.441 108.389 174.329C108.573 174.217 108.722 174.062 108.824 173.879C108.926 173.696 108.976 173.491 108.969 173.285C108.963 173.078 108.9 172.876 108.787 172.7C108.674 172.523 108.515 172.376 108.325 172.275C108.135 172.174 107.92 172.121 107.702 172.121V172.149ZM128.791 172.149C128.54 172.149 128.296 172.22 128.088 172.351C127.88 172.483 127.718 172.67 127.622 172.89C127.526 173.109 127.501 173.35 127.55 173.583C127.599 173.815 127.719 174.029 127.896 174.197C128.073 174.364 128.298 174.479 128.544 174.525C128.789 174.571 129.043 174.548 129.275 174.457C129.506 174.366 129.703 174.212 129.842 174.015C129.981 173.818 130.056 173.586 130.056 173.349C130.048 173.19 130.007 173.034 129.935 172.89C129.864 172.747 129.763 172.618 129.638 172.511C129.513 172.405 129.368 172.323 129.209 172.271C129.051 172.218 128.884 172.196 128.716 172.206L128.791 172.149ZM149.879 172.149C149.628 172.149 149.384 172.22 149.176 172.351C148.968 172.483 148.806 172.67 148.71 172.89C148.614 173.109 148.589 173.35 148.638 173.583C148.687 173.815 148.807 174.029 148.984 174.197C149.161 174.364 149.386 174.479 149.632 174.525C149.877 174.571 150.132 174.548 150.363 174.457C150.594 174.366 150.791 174.212 150.93 174.015C151.069 173.818 151.144 173.586 151.144 173.349C151.136 173.19 151.095 173.034 151.024 172.89C150.952 172.747 150.851 172.618 150.726 172.511C150.602 172.405 150.456 172.323 150.298 172.271C150.139 172.218 149.972 172.196 149.804 172.206L149.879 172.149ZM170.952 172.149C170.702 172.149 170.457 172.22 170.249 172.351C170.041 172.483 169.879 172.67 169.783 172.89C169.687 173.109 169.662 173.35 169.711 173.583C169.76 173.815 169.88 174.029 170.057 174.197C170.234 174.364 170.46 174.479 170.705 174.525C170.95 174.571 171.205 174.548 171.436 174.457C171.667 174.366 171.865 174.212 172.004 174.015C172.143 173.818 172.217 173.586 172.217 173.349C172.209 173.19 172.168 173.034 172.097 172.89C172.025 172.747 171.924 172.618 171.799 172.511C171.675 172.405 171.529 172.323 171.371 172.271C171.213 172.218 171.045 172.196 170.877 172.206L170.952 172.149ZM192.04 172.149C191.79 172.149 191.545 172.22 191.337 172.351C191.129 172.483 190.967 172.67 190.871 172.89C190.776 173.109 190.751 173.35 190.799 173.583C190.848 173.815 190.969 174.029 191.146 174.197C191.322 174.364 191.548 174.479 191.793 174.525C192.039 174.571 192.293 174.548 192.524 174.457C192.755 174.366 192.953 174.212 193.092 174.015C193.231 173.818 193.305 173.586 193.305 173.349C193.297 173.19 193.257 173.034 193.185 172.89C193.113 172.747 193.012 172.618 192.888 172.511C192.763 172.405 192.617 172.323 192.459 172.271C192.301 172.218 192.133 172.196 191.966 172.206L192.04 172.149ZM213.128 172.149C212.878 172.149 212.633 172.22 212.425 172.351C212.217 172.483 212.055 172.67 211.959 172.89C211.864 173.109 211.839 173.35 211.887 173.583C211.936 173.815 212.057 174.029 212.234 174.197C212.411 174.364 212.636 174.479 212.881 174.525C213.127 174.571 213.381 174.548 213.612 174.457C213.843 174.366 214.041 174.212 214.18 174.015C214.319 173.818 214.393 173.586 214.393 173.349C214.386 173.187 214.344 173.029 214.27 172.883C214.197 172.738 214.093 172.607 213.965 172.501C213.837 172.394 213.688 172.313 213.526 172.262C213.365 172.211 213.194 172.192 213.024 172.206L213.128 172.149ZM233.963 172.149C233.692 172.21 233.45 172.356 233.277 172.563C233.104 172.771 233.01 173.028 233.011 173.292C233.011 173.612 233.144 173.918 233.38 174.145C233.617 174.372 233.939 174.502 234.276 174.506C234.552 174.506 234.82 174.416 235.035 174.252C234.559 173.659 234.201 172.968 233.859 172.262L233.963 172.149ZM118.299 156.627C118.048 156.627 117.804 156.698 117.596 156.83C117.388 156.961 117.226 157.149 117.13 157.368C117.034 157.587 117.009 157.828 117.058 158.061C117.107 158.294 117.227 158.507 117.404 158.675C117.581 158.843 117.806 158.957 118.052 159.003C118.297 159.05 118.552 159.026 118.783 158.935C119.014 158.844 119.211 158.69 119.35 158.493C119.489 158.296 119.564 158.064 119.564 157.827C119.53 157.507 119.363 157.213 119.101 157.009C118.839 156.806 118.502 156.709 118.165 156.74L118.299 156.627ZM139.387 156.627C139.136 156.627 138.892 156.698 138.684 156.83C138.476 156.961 138.314 157.149 138.218 157.368C138.122 157.587 138.097 157.828 138.146 158.061C138.195 158.294 138.315 158.507 138.492 158.675C138.669 158.843 138.895 158.957 139.14 159.003C139.385 159.05 139.64 159.026 139.871 158.935C140.102 158.844 140.299 158.69 140.438 158.493C140.577 158.296 140.652 158.064 140.652 157.827C140.618 157.507 140.452 157.213 140.189 157.009C139.927 156.806 139.59 156.709 139.253 156.74L139.387 156.627ZM160.475 156.627C160.225 156.627 159.98 156.698 159.772 156.83C159.564 156.961 159.402 157.149 159.306 157.368C159.21 157.587 159.185 157.828 159.234 158.061C159.283 158.294 159.403 158.507 159.58 158.675C159.757 158.843 159.983 158.957 160.228 159.003C160.473 159.05 160.728 159.026 160.959 158.935C161.19 158.844 161.388 158.69 161.527 158.493C161.666 158.296 161.74 158.064 161.74 157.827C161.706 157.507 161.54 157.213 161.277 157.009C161.015 156.806 160.678 156.709 160.341 156.74L160.475 156.627ZM181.563 156.627C181.313 156.627 181.068 156.698 180.86 156.83C180.652 156.961 180.49 157.149 180.394 157.368C180.298 157.587 180.273 157.828 180.322 158.061C180.371 158.294 180.492 158.507 180.668 158.675C180.845 158.843 181.071 158.957 181.316 159.003C181.562 159.05 181.816 159.026 182.047 158.935C182.278 158.844 182.476 158.69 182.615 158.493C182.754 158.296 182.828 158.064 182.828 157.827C182.794 157.507 182.628 157.213 182.365 157.009C182.103 156.806 181.766 156.709 181.429 156.74L181.563 156.627ZM202.651 156.627C202.401 156.627 202.156 156.698 201.948 156.83C201.74 156.961 201.578 157.149 201.482 157.368C201.387 157.587 201.362 157.828 201.41 158.061C201.459 158.294 201.58 158.507 201.757 158.675C201.933 158.843 202.159 158.957 202.404 159.003C202.65 159.05 202.904 159.026 203.135 158.935C203.366 158.844 203.564 158.69 203.703 158.493C203.842 158.296 203.916 158.064 203.916 157.827C203.882 157.507 203.716 157.213 203.454 157.009C203.191 156.806 202.855 156.709 202.517 156.74L202.651 156.627ZM223.724 156.627C223.474 156.627 223.23 156.698 223.021 156.83C222.813 156.961 222.651 157.149 222.556 157.368C222.46 157.587 222.435 157.828 222.484 158.061C222.532 158.294 222.653 158.507 222.83 158.675C223.007 158.843 223.232 158.957 223.477 159.003C223.723 159.05 223.977 159.026 224.208 158.935C224.44 158.844 224.637 158.69 224.776 158.493C224.915 158.296 224.989 158.064 224.989 157.827C224.955 157.507 224.789 157.213 224.527 157.009C224.265 156.806 223.928 156.709 223.59 156.74L223.724 156.627ZM107.762 203.277C107.512 203.277 107.267 203.348 107.059 203.48C106.851 203.611 106.689 203.799 106.593 204.018C106.497 204.237 106.472 204.478 106.521 204.711C106.57 204.943 106.691 205.157 106.867 205.325C107.044 205.493 107.27 205.607 107.515 205.653C107.761 205.699 108.015 205.676 108.246 205.585C108.477 205.494 108.675 205.34 108.814 205.143C108.953 204.946 109.027 204.714 109.027 204.477C109.012 204.318 108.964 204.163 108.885 204.022C108.806 203.881 108.699 203.756 108.568 203.655C108.438 203.553 108.288 203.478 108.126 203.432C107.965 203.387 107.795 203.373 107.628 203.39L107.762 203.277ZM128.85 203.277C128.6 203.277 128.355 203.348 128.147 203.48C127.939 203.611 127.777 203.799 127.681 204.018C127.586 204.237 127.561 204.478 127.609 204.711C127.658 204.943 127.779 205.157 127.956 205.325C128.132 205.493 128.358 205.607 128.603 205.653C128.849 205.699 129.103 205.676 129.334 205.585C129.565 205.494 129.763 205.34 129.902 205.143C130.041 204.946 130.115 204.714 130.115 204.477C130.1 204.318 130.052 204.163 129.973 204.022C129.895 203.881 129.787 203.756 129.657 203.655C129.526 203.553 129.376 203.478 129.214 203.432C129.053 203.387 128.884 203.373 128.716 203.39L128.85 203.277ZM149.938 203.277C149.688 203.277 149.443 203.348 149.235 203.48C149.027 203.611 148.865 203.799 148.769 204.018C148.674 204.237 148.649 204.478 148.698 204.711C148.746 204.943 148.867 205.157 149.044 205.325C149.221 205.493 149.446 205.607 149.691 205.653C149.937 205.699 150.191 205.676 150.422 205.585C150.653 205.494 150.851 205.34 150.99 205.143C151.129 204.946 151.203 204.714 151.203 204.477C151.188 204.318 151.14 204.163 151.061 204.022C150.983 203.881 150.875 203.756 150.745 203.655C150.614 203.553 150.464 203.478 150.303 203.432C150.141 203.387 149.972 203.373 149.804 203.39L149.938 203.277ZM171.011 203.277C170.761 203.277 170.517 203.348 170.309 203.48C170.101 203.611 169.938 203.799 169.843 204.018C169.747 204.237 169.722 204.478 169.771 204.711C169.82 204.943 169.94 205.157 170.117 205.325C170.294 205.493 170.519 205.607 170.765 205.653C171.01 205.699 171.264 205.676 171.495 205.585C171.727 205.494 171.924 205.34 172.063 205.143C172.202 204.946 172.276 204.714 172.276 204.477C172.262 204.318 172.213 204.163 172.135 204.022C172.056 203.881 171.948 203.756 171.818 203.655C171.688 203.553 171.537 203.478 171.376 203.432C171.214 203.387 171.045 203.373 170.877 203.39L171.011 203.277ZM192.1 203.277C191.849 203.277 191.605 203.348 191.397 203.48C191.189 203.611 191.027 203.799 190.931 204.018C190.835 204.237 190.81 204.478 190.859 204.711C190.908 204.943 191.028 205.157 191.205 205.325C191.382 205.493 191.607 205.607 191.853 205.653C192.098 205.699 192.352 205.676 192.584 205.585C192.815 205.494 193.012 205.34 193.151 205.143C193.29 204.946 193.365 204.714 193.365 204.477C193.35 204.318 193.301 204.163 193.223 204.022C193.144 203.881 193.036 203.756 192.906 203.655C192.776 203.553 192.625 203.478 192.464 203.432C192.302 203.387 192.133 203.373 191.966 203.39L192.1 203.277ZM213.188 203.277C212.937 203.277 212.693 203.348 212.485 203.48C212.277 203.611 212.115 203.799 212.019 204.018C211.923 204.237 211.898 204.478 211.947 204.711C211.996 204.943 212.116 205.157 212.293 205.325C212.47 205.493 212.695 205.607 212.941 205.653C213.186 205.699 213.441 205.676 213.672 205.585C213.903 205.494 214.1 205.34 214.239 205.143C214.378 204.946 214.453 204.714 214.453 204.477C214.438 204.315 214.389 204.158 214.308 204.014C214.228 203.871 214.117 203.745 213.984 203.643C213.85 203.542 213.696 203.467 213.531 203.423C213.366 203.38 213.194 203.369 213.024 203.39L213.188 203.277ZM234.276 203.277C234.026 203.277 233.781 203.348 233.573 203.48C233.365 203.611 233.203 203.799 233.107 204.018C233.011 204.237 232.986 204.478 233.035 204.711C233.084 204.943 233.204 205.157 233.381 205.325C233.558 205.493 233.784 205.607 234.029 205.653C234.274 205.699 234.529 205.676 234.76 205.585C234.991 205.494 235.189 205.34 235.328 205.143C235.467 204.946 235.541 204.714 235.541 204.477C235.526 204.318 235.478 204.163 235.399 204.022C235.32 203.881 235.213 203.756 235.082 203.655C234.952 203.553 234.802 203.478 234.64 203.432C234.479 203.387 234.309 203.373 234.142 203.39L234.276 203.277ZM118.299 187.756C118.045 187.753 117.796 187.822 117.584 187.953C117.371 188.085 117.205 188.273 117.106 188.495C117.006 188.716 116.979 188.961 117.027 189.197C117.074 189.433 117.195 189.651 117.373 189.822C117.552 189.993 117.78 190.11 118.028 190.158C118.277 190.206 118.535 190.183 118.77 190.092C119.005 190 119.205 189.845 119.347 189.645C119.488 189.445 119.564 189.21 119.564 188.969C119.519 188.657 119.348 188.373 119.087 188.179C118.826 187.984 118.495 187.893 118.165 187.925L118.299 187.756ZM139.387 187.756C139.133 187.753 138.884 187.822 138.672 187.953C138.459 188.085 138.293 188.273 138.194 188.495C138.095 188.716 138.067 188.961 138.115 189.197C138.162 189.433 138.283 189.651 138.462 189.822C138.64 189.993 138.868 190.11 139.117 190.158C139.365 190.206 139.623 190.183 139.858 190.092C140.093 190 140.294 189.845 140.435 189.645C140.576 189.445 140.652 189.21 140.652 188.969C140.607 188.657 140.436 188.373 140.175 188.179C139.914 187.984 139.583 187.893 139.253 187.925L139.387 187.756ZM160.475 187.756C160.221 187.753 159.972 187.822 159.76 187.953C159.547 188.085 159.381 188.273 159.282 188.495C159.183 188.716 159.155 188.961 159.203 189.197C159.251 189.433 159.371 189.651 159.55 189.822C159.728 189.993 159.956 190.11 160.205 190.158C160.453 190.206 160.711 190.183 160.946 190.092C161.181 190 161.382 189.845 161.523 189.645C161.664 189.445 161.74 189.21 161.74 188.969C161.695 188.657 161.524 188.373 161.263 188.179C161.002 187.984 160.671 187.893 160.341 187.925L160.475 187.756ZM181.563 187.756C181.309 187.753 181.06 187.822 180.848 187.953C180.635 188.085 180.469 188.273 180.37 188.495C180.271 188.716 180.243 188.961 180.291 189.197C180.339 189.433 180.459 189.651 180.638 189.822C180.816 189.993 181.044 190.11 181.293 190.158C181.541 190.206 181.8 190.183 182.034 190.092C182.269 190 182.47 189.845 182.611 189.645C182.752 189.445 182.828 189.21 182.828 188.969C182.783 188.657 182.612 188.373 182.351 188.179C182.09 187.984 181.759 187.893 181.429 187.925L181.563 187.756ZM202.651 187.756C202.397 187.753 202.148 187.822 201.936 187.953C201.724 188.085 201.557 188.273 201.458 188.495C201.359 188.716 201.331 188.961 201.379 189.197C201.427 189.433 201.548 189.651 201.726 189.822C201.904 189.993 202.132 190.11 202.381 190.158C202.63 190.206 202.888 190.183 203.122 190.092C203.357 190 203.558 189.845 203.699 189.645C203.841 189.445 203.916 189.21 203.916 188.969C203.871 188.657 203.7 188.373 203.439 188.179C203.178 187.984 202.848 187.893 202.517 187.925L202.651 187.756ZM223.724 187.756C223.471 187.753 223.222 187.822 223.009 187.953C222.797 188.085 222.63 188.273 222.531 188.495C222.432 188.716 222.405 188.961 222.452 189.197C222.5 189.433 222.621 189.651 222.799 189.822C222.977 189.993 223.206 190.11 223.454 190.158C223.703 190.206 223.961 190.183 224.196 190.092C224.43 190 224.631 189.845 224.772 189.645C224.914 189.445 224.989 189.21 224.989 188.969C224.945 188.657 224.774 188.373 224.513 188.179C224.252 187.984 223.921 187.893 223.59 187.925L223.724 187.756ZM86.525 234.575C86.2748 234.575 86.0303 234.645 85.8222 234.777C85.6142 234.909 85.4521 235.096 85.3563 235.315C85.2606 235.534 85.2355 235.776 85.2843 236.008C85.3331 236.241 85.4536 236.455 85.6305 236.622C85.8074 236.79 86.0328 236.904 86.2782 236.951C86.5236 236.997 86.778 236.973 87.0091 236.882C87.2403 236.792 87.4378 236.638 87.5768 236.441C87.7158 236.243 87.79 236.011 87.79 235.774C87.79 235.617 87.7573 235.461 87.6937 235.315C87.6301 235.17 87.537 235.038 87.4195 234.926C87.302 234.815 87.1626 234.726 87.0091 234.666C86.8556 234.606 86.6911 234.575 86.525 234.575ZM107.613 234.575C107.363 234.575 107.118 234.645 106.91 234.777C106.702 234.909 106.54 235.096 106.444 235.315C106.349 235.534 106.324 235.776 106.372 236.008C106.421 236.241 106.542 236.455 106.719 236.622C106.896 236.79 107.121 236.904 107.366 236.951C107.612 236.997 107.866 236.973 108.097 236.882C108.328 236.792 108.526 236.638 108.665 236.441C108.804 236.243 108.878 236.011 108.878 235.774C108.878 235.459 108.747 235.156 108.513 234.931C108.279 234.707 107.961 234.579 107.628 234.575H107.613ZM128.701 234.575C128.451 234.575 128.206 234.645 127.998 234.777C127.79 234.909 127.628 235.096 127.533 235.315C127.437 235.534 127.412 235.776 127.461 236.008C127.509 236.241 127.63 236.455 127.807 236.622C127.984 236.79 128.209 236.904 128.454 236.951C128.7 236.997 128.954 236.973 129.185 236.882C129.416 236.792 129.614 236.638 129.753 236.441C129.892 236.243 129.966 236.011 129.966 235.774C129.966 235.459 129.835 235.156 129.601 234.931C129.367 234.707 129.049 234.579 128.716 234.575H128.701ZM149.789 234.575C149.539 234.575 149.295 234.645 149.087 234.777C148.879 234.909 148.716 235.096 148.621 235.315C148.525 235.534 148.5 235.776 148.549 236.008C148.597 236.241 148.718 236.455 148.895 236.622C149.072 236.79 149.297 236.904 149.543 236.951C149.788 236.997 150.042 236.973 150.273 236.882C150.505 236.792 150.702 236.638 150.841 236.441C150.98 236.243 151.054 236.011 151.054 235.774C151.054 235.459 150.923 235.156 150.689 234.931C150.455 234.707 150.137 234.579 149.804 234.575H149.789ZM170.863 234.575C170.612 234.575 170.368 234.645 170.16 234.777C169.952 234.909 169.79 235.096 169.694 235.315C169.598 235.534 169.573 235.776 169.622 236.008C169.671 236.241 169.791 236.455 169.968 236.622C170.145 236.79 170.37 236.904 170.616 236.951C170.861 236.997 171.116 236.973 171.347 236.882C171.578 236.792 171.775 236.638 171.914 236.441C172.053 236.243 172.128 236.011 172.128 235.774C172.128 235.459 171.996 235.156 171.762 234.931C171.528 234.707 171.21 234.579 170.877 234.575H170.863ZM191.951 234.575C191.701 234.575 191.456 234.645 191.248 234.777C191.04 234.909 190.878 235.096 190.782 235.315C190.686 235.534 190.661 235.776 190.71 236.008C190.759 236.241 190.879 236.455 191.056 236.622C191.233 236.79 191.459 236.904 191.704 236.951C191.949 236.997 192.204 236.973 192.435 236.882C192.666 236.792 192.864 236.638 193.003 236.441C193.142 236.243 193.216 236.011 193.216 235.774C193.216 235.459 193.084 235.156 192.85 234.931C192.616 234.707 192.299 234.579 191.966 234.575H191.951ZM213.039 234.575C212.789 234.575 212.544 234.645 212.336 234.777C212.128 234.909 211.966 235.096 211.87 235.315C211.774 235.534 211.749 235.776 211.798 236.008C211.847 236.241 211.967 236.455 212.144 236.622C212.321 236.79 212.547 236.904 212.792 236.951C213.037 236.997 213.292 236.973 213.523 236.882C213.754 236.792 213.952 236.638 214.091 236.441C214.23 236.243 214.304 236.011 214.304 235.774C214.304 235.616 214.271 235.458 214.206 235.312C214.142 235.166 214.047 235.033 213.928 234.921C213.809 234.81 213.668 234.722 213.513 234.662C213.357 234.603 213.191 234.573 213.024 234.575H213.039ZM97.0765 219.053C96.8263 219.053 96.5817 219.123 96.3737 219.255C96.1657 219.387 96.0036 219.574 95.9078 219.794C95.8121 220.013 95.787 220.254 95.8358 220.487C95.8846 220.719 96.0051 220.933 96.182 221.101C96.3589 221.268 96.5843 221.383 96.8297 221.429C97.0751 221.475 97.3295 221.451 97.5606 221.361C97.7917 221.27 97.9893 221.116 98.1283 220.919C98.2673 220.722 98.3415 220.49 98.3415 220.253C98.3193 219.95 98.1787 219.667 97.9474 219.458C97.7161 219.249 97.4108 219.13 97.0914 219.124L97.0765 219.053ZM118.15 219.053C117.9 219.053 117.655 219.123 117.447 219.255C117.239 219.387 117.077 219.574 116.981 219.794C116.885 220.013 116.86 220.254 116.909 220.487C116.958 220.719 117.078 220.933 117.255 221.101C117.432 221.268 117.658 221.383 117.903 221.429C118.148 221.475 118.403 221.451 118.634 221.361C118.865 221.27 119.063 221.116 119.202 220.919C119.341 220.722 119.415 220.49 119.415 220.253C119.396 219.949 119.256 219.664 119.024 219.454C118.792 219.245 118.485 219.127 118.165 219.124L118.15 219.053ZM139.238 219.053C138.988 219.053 138.743 219.123 138.535 219.255C138.327 219.387 138.165 219.574 138.069 219.794C137.973 220.013 137.948 220.254 137.997 220.487C138.046 220.719 138.166 220.933 138.343 221.101C138.52 221.268 138.746 221.383 138.991 221.429C139.236 221.475 139.491 221.451 139.722 221.361C139.953 221.27 140.151 221.116 140.29 220.919C140.429 220.722 140.503 220.49 140.503 220.253C140.484 219.949 140.344 219.664 140.112 219.454C139.88 219.245 139.573 219.127 139.253 219.124L139.238 219.053ZM160.326 219.053C160.076 219.053 159.831 219.123 159.623 219.255C159.415 219.387 159.253 219.574 159.157 219.794C159.062 220.013 159.036 220.254 159.085 220.487C159.134 220.719 159.255 220.933 159.431 221.101C159.608 221.268 159.834 221.383 160.079 221.429C160.325 221.475 160.579 221.451 160.81 221.361C161.041 221.27 161.239 221.116 161.378 220.919C161.517 220.722 161.591 220.49 161.591 220.253C161.572 219.949 161.433 219.664 161.201 219.454C160.969 219.245 160.661 219.127 160.341 219.124L160.326 219.053ZM181.414 219.053C181.164 219.053 180.919 219.123 180.711 219.255C180.503 219.387 180.341 219.574 180.245 219.794C180.15 220.013 180.125 220.254 180.173 220.487C180.222 220.719 180.343 220.933 180.52 221.101C180.697 221.268 180.922 221.383 181.167 221.429C181.413 221.475 181.667 221.451 181.898 221.361C182.129 221.27 182.327 221.116 182.466 220.919C182.605 220.722 182.679 220.49 182.679 220.253C182.66 219.949 182.521 219.664 182.289 219.454C182.057 219.245 181.749 219.127 181.429 219.124L181.414 219.053ZM202.502 219.053C202.252 219.053 202.007 219.123 201.799 219.255C201.591 219.387 201.429 219.574 201.334 219.794C201.238 220.013 201.213 220.254 201.262 220.487C201.31 220.719 201.431 220.933 201.608 221.101C201.785 221.268 202.01 221.383 202.255 221.429C202.501 221.475 202.755 221.451 202.986 221.361C203.217 221.27 203.415 221.116 203.554 220.919C203.693 220.722 203.767 220.49 203.767 220.253C203.748 219.949 203.609 219.664 203.377 219.454C203.145 219.245 202.838 219.127 202.517 219.124L202.502 219.053ZM223.575 219.053C223.325 219.053 223.081 219.123 222.873 219.255C222.665 219.387 222.502 219.574 222.407 219.794C222.311 220.013 222.286 220.254 222.335 220.487C222.384 220.719 222.504 220.933 222.681 221.101C222.858 221.268 223.083 221.383 223.329 221.429C223.574 221.475 223.828 221.451 224.06 221.361C224.291 221.27 224.488 221.116 224.627 220.919C224.766 220.722 224.84 220.49 224.84 220.253C224.822 219.949 224.682 219.664 224.45 219.454C224.218 219.245 223.911 219.127 223.59 219.124L223.575 219.053ZM86.525 265.759C86.2748 265.759 86.0303 265.83 85.8222 265.962C85.6142 266.093 85.4521 266.281 85.3563 266.5C85.2606 266.719 85.2355 266.96 85.2843 267.193C85.3331 267.426 85.4536 267.639 85.6305 267.807C85.8074 267.975 86.0328 268.089 86.2782 268.135C86.5236 268.182 86.778 268.158 87.0091 268.067C87.2403 267.976 87.4378 267.822 87.5768 267.625C87.7158 267.428 87.79 267.196 87.79 266.959C87.79 266.641 87.6567 266.336 87.4195 266.111C87.1823 265.886 86.8605 265.759 86.525 265.759ZM107.613 265.759C107.363 265.759 107.118 265.83 106.91 265.962C106.702 266.093 106.54 266.281 106.444 266.5C106.349 266.719 106.324 266.96 106.372 267.193C106.421 267.426 106.542 267.639 106.719 267.807C106.896 267.975 107.121 268.089 107.366 268.135C107.612 268.182 107.866 268.158 108.097 268.067C108.328 267.976 108.526 267.822 108.665 267.625C108.804 267.428 108.878 267.196 108.878 266.959C108.878 266.643 108.747 266.34 108.513 266.116C108.279 265.891 107.961 265.763 107.628 265.759H107.613ZM128.701 265.759C128.451 265.759 128.206 265.83 127.998 265.962C127.79 266.093 127.628 266.281 127.533 266.5C127.437 266.719 127.412 266.96 127.461 267.193C127.509 267.426 127.63 267.639 127.807 267.807C127.984 267.975 128.209 268.089 128.454 268.135C128.7 268.182 128.954 268.158 129.185 268.067C129.416 267.976 129.614 267.822 129.753 267.625C129.892 267.428 129.966 267.196 129.966 266.959C129.966 266.643 129.835 266.34 129.601 266.116C129.367 265.891 129.049 265.763 128.716 265.759H128.701ZM149.789 265.759C149.539 265.759 149.295 265.83 149.087 265.962C148.879 266.093 148.716 266.281 148.621 266.5C148.525 266.719 148.5 266.96 148.549 267.193C148.597 267.426 148.718 267.639 148.895 267.807C149.072 267.975 149.297 268.089 149.543 268.135C149.788 268.182 150.042 268.158 150.273 268.067C150.505 267.976 150.702 267.822 150.841 267.625C150.98 267.428 151.054 267.196 151.054 266.959C151.054 266.643 150.923 266.34 150.689 266.116C150.455 265.891 150.137 265.763 149.804 265.759H149.789ZM170.863 265.759C170.612 265.759 170.368 265.83 170.16 265.962C169.952 266.093 169.79 266.281 169.694 266.5C169.598 266.719 169.573 266.96 169.622 267.193C169.671 267.426 169.791 267.639 169.968 267.807C170.145 267.975 170.37 268.089 170.616 268.135C170.861 268.182 171.116 268.158 171.347 268.067C171.578 267.976 171.775 267.822 171.914 267.625C172.053 267.428 172.128 267.196 172.128 266.959C172.128 266.643 171.996 266.34 171.762 266.116C171.528 265.891 171.21 265.763 170.877 265.759H170.863ZM191.951 265.759C191.701 265.759 191.456 265.83 191.248 265.962C191.04 266.093 190.878 266.281 190.782 266.5C190.686 266.719 190.661 266.96 190.71 267.193C190.759 267.426 190.879 267.639 191.056 267.807C191.233 267.975 191.459 268.089 191.704 268.135C191.949 268.182 192.204 268.158 192.435 268.067C192.666 267.976 192.864 267.822 193.003 267.625C193.142 267.428 193.216 267.196 193.216 266.959C193.216 266.643 193.084 266.34 192.85 266.116C192.616 265.891 192.299 265.763 191.966 265.759H191.951ZM213.039 265.759C212.789 265.759 212.544 265.83 212.336 265.962C212.128 266.093 211.966 266.281 211.87 266.5C211.774 266.719 211.749 266.96 211.798 267.193C211.847 267.426 211.967 267.639 212.144 267.807C212.321 267.975 212.547 268.089 212.792 268.135C213.037 268.182 213.292 268.158 213.523 268.067C213.754 267.976 213.952 267.822 214.091 267.625C214.23 267.428 214.304 267.196 214.304 266.959C214.304 266.8 214.271 266.643 214.206 266.497C214.142 266.35 214.047 266.217 213.928 266.106C213.809 265.994 213.668 265.906 213.513 265.847C213.357 265.787 213.191 265.758 213.024 265.759H213.039ZM234.127 265.759C233.877 265.759 233.632 265.83 233.424 265.962C233.216 266.093 233.054 266.281 232.958 266.5C232.863 266.719 232.837 266.96 232.886 267.193C232.935 267.426 233.056 267.639 233.232 267.807C233.409 267.975 233.635 268.089 233.88 268.135C234.126 268.182 234.38 268.158 234.611 268.067C234.842 267.976 235.04 267.822 235.179 267.625C235.318 267.428 235.392 267.196 235.392 266.959C235.392 266.643 235.261 266.34 235.027 266.116C234.793 265.891 234.475 265.763 234.142 265.759H234.127ZM97.0914 250.308C96.8412 250.308 96.5966 250.379 96.3886 250.51C96.1806 250.642 96.0184 250.83 95.9227 251.049C95.8269 251.268 95.8019 251.509 95.8507 251.742C95.8995 251.974 96.02 252.188 96.1969 252.356C96.3738 252.524 96.5992 252.638 96.8446 252.684C97.09 252.73 97.3443 252.707 97.5755 252.616C97.8066 252.525 98.0042 252.371 98.1432 252.174C98.2822 251.977 98.3564 251.745 98.3564 251.508C98.3525 251.191 98.218 250.888 97.9816 250.664C97.7452 250.44 97.4257 250.312 97.0914 250.308ZM118.165 250.308C117.914 250.308 117.67 250.379 117.462 250.51C117.254 250.642 117.092 250.83 116.996 251.049C116.9 251.268 116.875 251.509 116.924 251.742C116.973 251.974 117.093 252.188 117.27 252.356C117.447 252.524 117.672 252.638 117.918 252.684C118.163 252.73 118.418 252.707 118.649 252.616C118.88 252.525 119.077 252.371 119.216 252.174C119.355 251.977 119.43 251.745 119.43 251.508C119.43 251.19 119.296 250.885 119.059 250.66C118.822 250.435 118.5 250.308 118.165 250.308ZM139.253 250.308C139.003 250.308 138.758 250.379 138.55 250.51C138.342 250.642 138.18 250.83 138.084 251.049C137.988 251.268 137.963 251.509 138.012 251.742C138.061 251.974 138.181 252.188 138.358 252.356C138.535 252.524 138.761 252.638 139.006 252.684C139.251 252.73 139.506 252.707 139.737 252.616C139.968 252.525 140.166 252.371 140.305 252.174C140.444 251.977 140.518 251.745 140.518 251.508C140.518 251.19 140.384 250.885 140.147 250.66C139.91 250.435 139.588 250.308 139.253 250.308ZM160.341 250.308C160.091 250.308 159.846 250.379 159.638 250.51C159.43 250.642 159.268 250.83 159.172 251.049C159.076 251.268 159.051 251.509 159.1 251.742C159.149 251.974 159.269 252.188 159.446 252.356C159.623 252.524 159.849 252.638 160.094 252.684C160.339 252.73 160.594 252.707 160.825 252.616C161.056 252.525 161.254 252.371 161.393 252.174C161.532 251.977 161.606 251.745 161.606 251.508C161.606 251.19 161.473 250.885 161.235 250.66C160.998 250.435 160.676 250.308 160.341 250.308ZM181.429 250.308C181.179 250.308 180.934 250.379 180.726 250.51C180.518 250.642 180.356 250.83 180.26 251.049C180.165 251.268 180.139 251.509 180.188 251.742C180.237 251.974 180.358 252.188 180.534 252.356C180.711 252.524 180.937 252.638 181.182 252.684C181.428 252.73 181.682 252.707 181.913 252.616C182.144 252.525 182.342 252.371 182.481 252.174C182.62 251.977 182.694 251.745 182.694 251.508C182.694 251.19 182.561 250.885 182.323 250.66C182.086 250.435 181.764 250.308 181.429 250.308ZM202.517 250.308C202.267 250.308 202.022 250.379 201.814 250.51C201.606 250.642 201.444 250.83 201.348 251.049C201.253 251.268 201.228 251.509 201.276 251.742C201.325 251.974 201.446 252.188 201.623 252.356C201.8 252.524 202.025 252.638 202.27 252.684C202.516 252.73 202.77 252.707 203.001 252.616C203.232 252.525 203.43 252.371 203.569 252.174C203.708 251.977 203.782 251.745 203.782 251.508C203.782 251.19 203.649 250.885 203.412 250.66C203.174 250.435 202.853 250.308 202.517 250.308ZM223.59 250.308C223.34 250.308 223.096 250.379 222.888 250.51C222.68 250.642 222.517 250.83 222.422 251.049C222.326 251.268 222.301 251.509 222.35 251.742C222.398 251.974 222.519 252.188 222.696 252.356C222.873 252.524 223.098 252.638 223.344 252.684C223.589 252.73 223.843 252.707 224.074 252.616C224.306 252.525 224.503 252.371 224.642 252.174C224.781 251.977 224.855 251.745 224.855 251.508C224.855 251.19 224.722 250.885 224.485 250.66C224.248 250.435 223.926 250.308 223.59 250.308ZM76.0033 281.521C75.7531 281.521 75.5085 281.591 75.3005 281.723C75.0925 281.855 74.9303 282.042 74.8346 282.262C74.7388 282.481 74.7138 282.722 74.7626 282.955C74.8114 283.187 74.9319 283.401 75.1088 283.569C75.2857 283.736 75.5111 283.851 75.7565 283.897C76.0019 283.943 76.2562 283.919 76.4874 283.829C76.7185 283.738 76.9161 283.584 77.0551 283.387C77.1941 283.19 77.2683 282.958 77.2683 282.721C77.2683 282.563 77.2356 282.407 77.172 282.262C77.1084 282.116 77.0152 281.984 76.8978 281.872C76.7803 281.761 76.6408 281.673 76.4874 281.612C76.3339 281.552 76.1694 281.521 76.0033 281.521ZM97.0914 281.521C96.8412 281.521 96.5966 281.591 96.3886 281.723C96.1806 281.855 96.0184 282.042 95.9227 282.262C95.8269 282.481 95.8019 282.722 95.8507 282.955C95.8995 283.187 96.02 283.401 96.1969 283.569C96.3738 283.736 96.5992 283.851 96.8446 283.897C97.09 283.943 97.3443 283.919 97.5755 283.829C97.8066 283.738 98.0042 283.584 98.1432 283.387C98.2822 283.19 98.3564 282.958 98.3564 282.721C98.3525 282.404 98.218 282.101 97.9816 281.876C97.7452 281.652 97.4257 281.525 97.0914 281.521ZM118.165 281.521C117.914 281.521 117.67 281.591 117.462 281.723C117.254 281.855 117.092 282.042 116.996 282.262C116.9 282.481 116.875 282.722 116.924 282.955C116.973 283.187 117.093 283.401 117.27 283.569C117.447 283.736 117.672 283.851 117.918 283.897C118.163 283.943 118.418 283.919 118.649 283.829C118.88 283.738 119.077 283.584 119.216 283.387C119.355 283.19 119.43 282.958 119.43 282.721C119.43 282.563 119.397 282.407 119.333 282.262C119.27 282.116 119.177 281.984 119.059 281.872C118.942 281.761 118.802 281.673 118.649 281.612C118.495 281.552 118.331 281.521 118.165 281.521ZM139.253 281.521C139.003 281.521 138.758 281.591 138.55 281.723C138.342 281.855 138.18 282.042 138.084 282.262C137.988 282.481 137.963 282.722 138.012 282.955C138.061 283.187 138.181 283.401 138.358 283.569C138.535 283.736 138.761 283.851 139.006 283.897C139.251 283.943 139.506 283.919 139.737 283.829C139.968 283.738 140.166 283.584 140.305 283.387C140.444 283.19 140.518 282.958 140.518 282.721C140.518 282.402 140.384 282.097 140.147 281.872C139.91 281.647 139.588 281.521 139.253 281.521ZM160.341 281.521C160.091 281.521 159.846 281.591 159.638 281.723C159.43 281.855 159.268 282.042 159.172 282.262C159.076 282.481 159.051 282.722 159.1 282.955C159.149 283.187 159.269 283.401 159.446 283.569C159.623 283.736 159.849 283.851 160.094 283.897C160.339 283.943 160.594 283.919 160.825 283.829C161.056 283.738 161.254 283.584 161.393 283.387C161.532 283.19 161.606 282.958 161.606 282.721C161.606 282.563 161.573 282.407 161.51 282.262C161.446 282.116 161.353 281.984 161.235 281.872C161.118 281.761 160.978 281.673 160.825 281.612C160.671 281.552 160.507 281.521 160.341 281.521ZM181.429 281.521C181.179 281.521 180.934 281.591 180.726 281.723C180.518 281.855 180.356 282.042 180.26 282.262C180.165 282.481 180.139 282.722 180.188 282.955C180.237 283.187 180.358 283.401 180.534 283.569C180.711 283.736 180.937 283.851 181.182 283.897C181.428 283.943 181.682 283.919 181.913 283.829C182.144 283.738 182.342 283.584 182.481 283.387C182.62 283.19 182.694 282.958 182.694 282.721C182.694 282.402 182.561 282.097 182.323 281.872C182.086 281.647 181.764 281.521 181.429 281.521ZM202.517 281.521C202.267 281.521 202.022 281.591 201.814 281.723C201.606 281.855 201.444 282.042 201.348 282.262C201.253 282.481 201.228 282.722 201.276 282.955C201.325 283.187 201.446 283.401 201.623 283.569C201.8 283.736 202.025 283.851 202.27 283.897C202.516 283.943 202.77 283.919 203.001 283.829C203.232 283.738 203.43 283.584 203.569 283.387C203.708 283.19 203.782 282.958 203.782 282.721C203.782 282.563 203.749 282.407 203.686 282.262C203.622 282.116 203.529 281.984 203.412 281.872C203.294 281.761 203.155 281.673 203.001 281.612C202.848 281.552 202.683 281.521 202.517 281.521ZM223.59 281.521C223.34 281.521 223.096 281.591 222.888 281.723C222.68 281.855 222.517 282.042 222.422 282.262C222.326 282.481 222.301 282.722 222.35 282.955C222.398 283.187 222.519 283.401 222.696 283.569C222.873 283.736 223.098 283.851 223.344 283.897C223.589 283.943 223.843 283.919 224.074 283.829C224.306 283.738 224.503 283.584 224.642 283.387C224.781 283.19 224.855 282.958 224.855 282.721C224.855 282.402 224.722 282.097 224.485 281.872C224.248 281.647 223.926 281.521 223.59 281.521Z" fill="white"/>
<path d="M243.07 188.997C241.493 182.746 237.832 177.102 234.602 171.457C231.194 165.559 227.623 159.745 223.962 153.988L223.56 153.367C222.95 151.533 222.072 149.727 221.342 147.949C220.39 145.663 219.378 143.405 218.44 141.105C218.44 141.035 218.277 141.105 218.306 141.105C219.065 143.49 219.795 145.875 220.747 148.161C220.985 148.753 221.223 149.374 221.461 149.995C220.226 148.062 218.976 146.157 217.696 144.252C215.523 141.021 213.231 137.874 211.044 134.643C211.044 134.643 210.85 134.643 210.91 134.727C214.407 140.372 217.756 146.129 221.253 151.787C224.75 157.445 228.143 163.16 231.403 168.946C233.02 171.768 234.588 174.66 236.106 177.624C237.607 180.362 238.919 183.19 240.034 186.09C242.065 191.718 242.112 197.819 240.168 203.474C238.055 209.867 234.305 215.68 230.733 221.409C230.584 221.649 230.956 221.917 231.135 221.691C238.635 212.378 246.181 201.259 243.07 188.997Z" fill="#263238"/>
<path d="M308.985 294.348C297.957 308.783 268.595 311.153 195.166 323.528C185.001 325.25 152.93 260.581 163.675 258.21C177.218 255.233 230.407 246.456 234.38 246.287C267.955 244.834 316.471 284.555 308.985 294.348Z" fill="#F7A9A0"/>
<path d="M178.423 255.275C178.423 255.275 147.364 259.226 131.723 266.098C110.784 275.284 96.6901 291.398 91.2134 298.453C79.7839 313.256 62.9372 356.533 75.2299 363.362C86.3619 369.486 101.229 324.431 101.229 324.431C101.229 324.431 78.0873 368.005 92.9249 373.042C107.762 378.08 121.871 324.854 121.871 324.854C121.871 324.854 99.1457 370.136 115.308 373.042C127.526 375.244 143.182 327.705 143.182 327.705C143.182 327.705 123.925 366.749 136.396 369.515C150.162 372.591 167.515 329.567 167.515 329.567C200.434 331.571 216.983 319.69 227.698 310.01C230.288 307.625 178.423 255.275 178.423 255.275Z" fill="#F7A9A0"/>
<path d="M108.209 308.854C105.307 313.877 102.256 318.943 99.8896 324.192C97.5233 329.441 95.2017 334.789 93.2968 340.222C88.6238 353.584 87.8945 362.643 88.0136 362.079C90.5882 348.97 98.9967 330.034 101.408 324.77C103.818 319.507 105.991 314.173 108.417 308.924C108.492 308.797 108.283 308.727 108.209 308.854Z" fill="#263238"/>
<path d="M128.375 316.797C124.952 323.359 121.291 329.765 118.165 336.552C115.04 343.34 112.733 349.831 110.114 356.688C109.921 357.225 110.278 357.154 110.501 356.688C113.403 349.915 116.647 343.876 119.624 337.159C122.6 330.442 125.324 323.585 128.553 316.981C128.598 316.797 128.434 316.797 128.375 316.797Z" fill="#263238"/>
<path d="M146.992 320.735C141.202 330.527 137.333 341.308 133.806 351.976C133.627 352.498 134.089 352.357 134.297 351.82C138.479 341.364 141.738 333.138 147.349 320.932C147.438 320.735 147.111 320.537 146.992 320.735Z" fill="#263238"/>
<path d="M266.809 254.075C261.927 251.155 248.117 244.269 234.529 246.174C234.498 246.174 234.467 246.185 234.445 246.207C234.423 246.228 234.41 246.256 234.41 246.286C234.41 246.316 234.423 246.345 234.445 246.366C234.467 246.387 234.498 246.399 234.529 246.399C245.721 246.399 261.704 251.789 266.69 254.259C266.824 254.329 266.928 254.146 266.809 254.075Z" fill="#263238"/>
<path d="M161.176 109.78C155.595 112.503 155.462 119.812 161.876 127.954C172.144 141.021 201.12 151.702 201.12 151.702C201.12 151.702 202.742 126.303 193.873 114.606C187.92 106.831 167.873 106.548 161.176 109.78Z" fill="#F7A9A0"/>
<path d="M162.423 115.438C163.406 118.035 179.047 133.895 191.875 131.877C196.042 131.214 193.244 109.441 193.244 109.441L193.423 107.79L195.923 84.6627L165.891 70.8059L161.575 68.9998C161.575 68.9998 161.337 75.3778 161.114 83.3081C161.114 83.675 161.114 84.0418 161.114 84.4369C161.114 84.832 161.114 85.3118 161.114 85.7351C161.114 86.9204 161.024 88.134 160.995 89.3334C160.995 90.2506 160.995 91.1395 160.995 92.1555C160.995 93.1715 160.995 94.0605 160.995 94.9777C160.976 101.821 161.453 108.657 162.423 115.438Z" fill="#F7A9A0"/>
<path d="M161.176 83.3081C164.366 89.3667 168.908 94.6946 174.487 98.9222C180.067 103.15 186.549 106.176 193.485 107.79L195.985 84.6627L165.953 70.8059L161.637 68.9998C161.637 68.9998 161.399 75.3778 161.176 83.3081Z" fill="#263238"/>
<path d="M224.529 45.7454C235.75 85.1425 212.132 95.9513 203.173 98.2372C195.032 100.311 167.053 106.393 151.606 68.3084C136.158 30.2237 151.918 12.8252 170.268 7.15268C188.618 1.48018 213.307 6.36249 224.529 45.7454Z" fill="#F7A9A0"/>
<path d="M213.873 38.6192C212.861 38.7039 211.909 38.6192 210.897 38.6192C209.87 38.7463 208.827 38.5584 207.92 38.083C207.656 37.8794 207.474 37.596 207.403 37.2801C207.333 36.9643 207.379 36.6351 207.533 36.3475C207.91 35.8154 208.431 35.3892 209.041 35.1136C209.651 34.8381 210.328 34.7233 211.001 34.7813C212.385 34.6853 213.756 35.0885 214.841 35.9101C215.081 36.1127 215.254 36.3781 215.336 36.6731C215.419 36.9682 215.408 37.2798 215.305 37.5689C215.202 37.8581 215.011 38.1119 214.756 38.2988C214.501 38.4856 214.194 38.5971 213.873 38.6192Z" fill="#263238"/>
<path d="M187.234 44.2779C188.201 43.9534 189.035 43.5159 189.942 43.1208C190.961 42.8481 191.853 42.2562 192.472 41.4416C192.623 41.1555 192.667 40.8293 192.597 40.5166C192.526 40.2038 192.346 39.9229 192.085 39.72C191.509 39.3807 190.848 39.1938 190.17 39.1789C189.492 39.1641 188.823 39.3216 188.231 39.6353C186.947 40.1128 185.89 41.0152 185.254 42.1753C185.13 42.4473 185.09 42.7473 185.14 43.04C185.19 43.3327 185.327 43.6057 185.535 43.8269C185.743 44.048 186.014 44.208 186.315 44.2879C186.616 44.3679 186.935 44.3644 187.234 44.2779Z" fill="#263238"/>
<path d="M195.166 53.1817C195.166 53.083 194.973 53.3652 195.002 53.4781C195.776 56.159 196.193 59.3479 193.842 60.8295C193.767 60.8295 193.842 61.0129 193.842 60.9847C196.907 59.8417 196.312 55.6087 195.166 53.1817Z" fill="#263238"/>
<path d="M191.876 50.9524C187.203 51.6579 189.049 60.4627 193.365 59.7995C197.68 59.1364 195.775 50.3456 191.876 50.9524Z" fill="#263238"/>
<path d="M190.151 51.7564C189.436 52.4055 188.826 53.4356 187.874 53.7178C186.921 54 185.716 53.2662 184.793 52.5325C184.704 52.4478 184.629 52.5325 184.659 52.6595C184.986 54.3528 186.028 55.9473 187.993 55.8344C189.957 55.7215 190.716 54.0141 190.805 52.2361C190.82 51.8975 190.433 51.5165 190.151 51.7564Z" fill="#263238"/>
<path d="M211.045 48.9624C211.045 48.8495 211.298 49.0471 211.313 49.16C211.775 51.9116 212.801 54.9737 215.569 55.4111C215.659 55.4111 215.674 55.5664 215.569 55.5664C212.31 55.7498 211.016 51.6294 211.045 48.9624Z" fill="#263238"/>
<path d="M213.023 45.6464C217.577 44.4752 219.721 53.2099 215.494 54.2964C211.267 55.383 209.214 46.6341 213.023 45.6464Z" fill="#263238"/>
<path d="M215.092 45.8727C215.94 46.1691 216.863 46.8464 217.741 46.7194C218.619 46.5924 219.229 45.4494 219.705 44.4052C219.705 44.2923 219.839 44.4052 219.869 44.4052C220.33 46.0703 220.182 47.933 218.559 48.6385C216.937 49.3441 215.583 48.0882 214.779 46.5218C214.63 46.1973 214.764 45.6752 215.092 45.8727Z" fill="#263238"/>
<path d="M198.457 75.2224C199.245 75.7728 200.079 76.549 201.15 76.4785C202.218 76.3048 203.233 75.9149 204.127 75.3353C204.127 75.3353 204.32 75.3353 204.276 75.4623C203.95 76.0643 203.458 76.5712 202.853 76.929C202.247 77.2869 201.551 77.4824 200.838 77.4946C200.222 77.4333 199.64 77.2011 199.163 76.8269C198.687 76.4528 198.337 75.9535 198.159 75.3918C198.144 75.2365 198.338 75.1519 198.457 75.2224Z" fill="#263238"/>
<path d="M209.454 62.2831C209.454 62.2831 210.942 66.2482 211.389 68.1673C209.582 68.9822 207.578 69.3218 205.586 69.1505C203.593 68.9792 201.686 68.3034 200.063 67.1936C199.87 67.0525 200.063 66.7844 200.302 66.8691C203.265 68.0247 206.543 68.2424 209.648 67.49C209.648 66.9255 206.835 60.7874 207.147 60.7027C208.755 60.5162 210.383 60.5399 211.984 60.7733C209.097 52.4338 204.826 44.6024 202.073 36.263C201.983 35.9667 202.43 35.7832 202.579 36.0372C207.668 43.9392 211.21 53.4639 214.484 62.0009C214.841 63.0592 210.332 62.4524 209.454 62.2831Z" fill="#263238"/>
<path d="M208.559 68.5202C207.729 70.0768 206.495 71.4073 204.972 72.3865C204.123 72.8905 203.13 73.1321 202.13 73.0779C199.942 72.9509 199.525 71.1447 199.6 69.522C199.641 68.6615 199.791 67.8088 200.046 66.9822C202.637 68.3447 205.621 68.8837 208.559 68.5202Z" fill="#263238"/>
<path d="M204.988 72.3863C204.139 72.8904 203.146 73.132 202.145 73.0778C199.958 72.9508 199.541 71.1445 199.615 69.5216C201.877 69.3382 204.378 70.3683 204.988 72.3863Z" fill="#FF9ABB"/>
<path d="M151.083 67.6312C151.083 67.6312 136.022 56.0463 136.201 36.4607C136.379 16.875 159.03 0.139781 184.836 2.59504C184.836 2.59504 150.934 10.624 146.455 28.474C141.975 46.324 151.083 67.6312 151.083 67.6312Z" fill="#F66D1D"/>
<path d="M159.09 70.5241C166.903 69.113 163.227 52.1802 163.227 52.1802C163.227 52.1802 193.423 37.1664 187.649 11.6402C187.649 11.6402 198.542 25.7509 217.726 27.6276C217.726 27.6276 207.308 0.901923 182.871 2.65165C182.871 2.65165 151.47 1.63569 142.942 27.6417C134.415 53.6477 153.851 71.4836 159.09 70.5241Z" fill="#263238"/>
<path d="M187.129 9.80566C188.816 13.4999 189.653 17.4925 189.585 21.5175C189.584 25.5915 188.698 29.6217 186.98 33.3563C186.544 34.2879 186.047 35.1927 185.492 36.0655L184.748 37.406C184.45 37.8293 184.138 38.2385 183.825 38.6478C183.185 39.4662 182.575 40.2987 181.905 41.0889C181.236 41.8791 180.417 42.4999 179.703 43.276C179.331 43.6288 178.974 44.0098 178.587 44.3484L177.366 45.308L174.896 47.1988C173.14 48.2994 171.339 49.3154 169.523 50.3031C171.101 48.9767 172.783 47.8196 174.316 46.5074L176.548 44.4613L177.649 43.4454C177.991 43.0926 178.304 42.6975 178.646 42.3306C179.286 41.5686 179.941 40.8208 180.611 40.1011C181.28 39.3815 181.742 38.4925 182.322 37.7023L183.17 36.5029L183.87 35.2189C184.376 34.3869 184.823 33.5243 185.209 32.6366C186.87 29.1007 187.876 25.3204 188.186 21.461C188.357 19.5218 188.357 17.5725 188.186 15.6334C188.011 13.6656 187.658 11.7158 187.129 9.80566Z" fill="#263238"/>
<path d="M158.914 68.2944C158.914 68.2944 147.306 57.3163 141.903 61.4649C136.501 65.6134 146.874 82.6309 154.389 83.8868C155.342 84.1201 156.335 84.1675 157.308 84.0259C158.28 83.8843 159.212 83.5568 160.047 83.0633C160.882 82.5698 161.603 81.9205 162.165 81.1548C162.728 80.3892 163.12 79.5232 163.319 78.6094L158.914 68.2944Z" fill="#F7A9A0"/>
<path d="M144.997 66.2624C144.978 66.2697 144.961 66.2824 144.95 66.2987C144.938 66.3151 144.932 66.3343 144.932 66.3541C144.932 66.3738 144.938 66.3931 144.95 66.4095C144.961 66.4258 144.978 66.4385 144.997 66.4458C150.295 67.5041 153.718 71.4129 156.382 75.6038C154.581 74.1927 152.409 73.5154 150.28 75.6038C150.161 75.7167 150.28 75.886 150.459 75.8437C151.277 75.4337 152.208 75.2746 153.125 75.3884C154.042 75.5021 154.9 75.8831 155.578 76.4787C156.695 77.4784 157.693 78.5903 158.555 79.7948C158.867 80.1758 159.626 79.7948 159.359 79.3715C159.364 79.334 159.364 79.296 159.359 79.2586C158.347 73.2473 151.873 65.712 144.997 66.2624Z" fill="#263238"/>
<path d="M158.168 81.4031C158.213 81.6293 158.207 81.8616 158.152 82.0855C158.096 82.3095 157.993 82.5201 157.847 82.7042C157.702 82.8883 157.518 83.0418 157.307 83.1551C157.096 83.2684 156.862 83.339 156.621 83.3625C156.38 83.3859 156.136 83.3617 155.905 83.2914C155.674 83.2211 155.461 83.1062 155.279 82.9539C155.097 82.8017 154.951 82.6153 154.848 82.4067C154.746 82.1981 154.691 81.9717 154.686 81.7417C154.677 81.3236 154.834 80.9174 155.126 80.604C155.418 80.2906 155.824 80.0929 156.262 80.0502C156.701 80.0075 157.141 80.123 157.494 80.3737C157.847 80.6244 158.088 80.9919 158.168 81.4031Z" fill="white"/>
<path d="M153.601 79.1314C153.62 79.2865 153.606 79.4435 153.559 79.5932C153.513 79.7429 153.435 79.8824 153.331 80.0033C153.227 80.1243 153.099 80.2243 152.954 80.2976C152.808 80.3708 152.649 80.4158 152.485 80.4298C152.239 80.4538 151.991 80.408 151.773 80.2982C151.554 80.1884 151.375 80.0196 151.257 79.8132C151.14 79.6067 151.09 79.3719 151.113 79.1384C151.136 78.9049 151.232 78.6832 151.389 78.5014C151.545 78.3196 151.755 78.1858 151.991 78.117C152.227 78.0483 152.48 78.0476 152.717 78.115C152.954 78.1825 153.164 78.315 153.322 78.4959C153.479 78.6769 153.577 78.898 153.601 79.1314Z" fill="white"/>
<path d="M142.276 66.0932H139.686C139.566 66.097 139.446 66.078 139.333 66.0373C139.22 65.9966 139.117 65.935 139.03 65.8562C138.943 65.7774 138.873 65.6829 138.825 65.5782C138.776 65.4736 138.75 65.3608 138.749 65.2465C138.745 65.1311 138.765 65.0162 138.809 64.9085C138.853 64.8007 138.919 64.7025 139.004 64.6195C139.088 64.5366 139.19 64.4707 139.302 64.4256C139.414 64.3806 139.535 64.3575 139.656 64.3575H142.246C142.367 64.3557 142.487 64.3764 142.6 64.4187C142.713 64.4609 142.816 64.5238 142.903 64.6038C142.99 64.6837 143.059 64.7791 143.108 64.8846C143.156 64.99 143.182 65.1034 143.184 65.2183C143.184 65.4479 143.088 65.6684 142.919 65.832C142.749 65.9957 142.518 66.0895 142.276 66.0932Z" fill="#F66D1D"/>
<path d="M142.647 68.6047L140.117 69.1691C139.881 69.2199 139.632 69.1804 139.426 69.0589C139.22 68.9374 139.073 68.7438 139.016 68.5201C138.987 68.4089 138.983 68.2934 139.002 68.1803C139.021 68.0673 139.063 67.959 139.127 67.8617C139.191 67.7645 139.274 67.6803 139.373 67.6141C139.471 67.5479 139.583 67.5009 139.701 67.4761L142.231 66.9117C142.348 66.8846 142.47 66.8799 142.589 66.898C142.708 66.916 142.823 66.9565 142.925 67.0169C143.028 67.0774 143.116 67.1566 143.186 67.25C143.256 67.3433 143.306 67.449 143.332 67.5607C143.361 67.6719 143.366 67.7874 143.346 67.9005C143.327 68.0135 143.285 68.1218 143.221 68.219C143.157 68.3163 143.074 68.4005 142.975 68.4667C142.877 68.5329 142.765 68.5798 142.647 68.6047Z" fill="#F66D1D"/>
<path d="M238.323 89.6153C238.323 89.6153 232.936 75.3915 222.994 79.7377C213.053 84.0838 220.807 97.2211 220.807 97.2211L238.323 89.6153Z" fill="#FF9ABB"/>
<path d="M266.862 193.47L284.383 185.927L238.023 89.1152L220.502 96.6581L266.862 193.47Z" fill="#F66D1D"/>
<path d="M220.64 100.624L241.088 91.8208L239.242 87.9663L218.794 96.7694L220.64 100.624Z" fill="#37474F"/>
<path d="M222.671 104.866L243.119 96.0635L241.273 92.2091L220.825 101.012L222.671 104.866Z" fill="#37474F"/>
<path d="M266.867 193.442L279.175 202.557L283.223 205.577L283.535 200.681L284.398 185.893L281.422 184.242C281.422 184.242 280.871 187.346 280.842 187.402L277.865 185.752C277.865 185.752 277.3 188.856 277.285 188.912L274.398 187.247C274.398 187.247 273.802 190.366 273.773 190.422L271.064 188.757C271.064 188.757 270.469 191.876 270.439 191.932L267.552 190.267C267.552 190.267 266.882 193.385 266.867 193.442Z" fill="#EBEBEB"/>
<path d="M279.176 202.557L283.224 205.577L283.536 200.681L279.176 202.557Z" fill="#37474F"/>
<path d="M124.595 139.708C102.271 174.322 64.8722 248.191 79.2335 275.355C93.0591 301.516 202.964 263.685 225.258 255.91C234.425 252.721 223.323 180.94 213.174 183.198C190.85 188.122 143.525 209.514 142.468 208.851C141.411 208.188 148.153 177.102 153.496 146.242C161.309 101.355 140.623 114.817 124.595 139.708Z" fill="#F7A9A0"/>
<path d="M280.129 149.021C286.186 155.611 278.909 161.439 278.909 161.439C282.897 161.927 286.581 163.719 289.326 166.504C293.925 171.641 287.436 180.728 287.436 180.728C291.482 182.059 295.01 184.519 297.556 187.783C301.426 193.117 296.261 203.164 296.261 203.164C299.261 206.318 300.962 210.39 301.054 214.636C300.83 225.925 285.204 234.984 275.233 240.628C260.425 249.094 231.539 253.92 225.244 255.966L185.746 195.982C185.746 195.982 222.788 158.899 235.096 152.986C247.686 146.891 274.176 142.53 280.129 149.021Z" fill="#F7A9A0"/>
<path d="M277.835 160.733C265.319 162.822 254.128 168.283 242.624 173.151C242.58 173.179 242.549 173.22 242.534 173.268C242.52 173.316 242.523 173.367 242.545 173.412C242.566 173.458 242.604 173.495 242.651 173.517C242.698 173.538 242.752 173.544 242.803 173.532C254.188 168.565 266.451 165.813 278.014 161.284C278.074 161.25 278.12 161.197 278.146 161.135C278.171 161.073 278.173 161.005 278.153 160.942C278.132 160.878 278.09 160.823 278.032 160.786C277.975 160.748 277.905 160.729 277.835 160.733Z" fill="#263238"/>
<path d="M286.738 180.051C283.944 180.792 281.263 181.874 278.762 183.268C276.023 184.576 273.31 185.935 270.621 187.346C265.234 190.168 259.906 193.075 254.682 196.137C254.444 196.278 254.608 196.645 254.861 196.518C260.233 193.696 265.65 191.015 271.157 188.447C273.895 187.163 276.663 185.893 279.431 184.651C282.124 183.634 284.689 182.337 287.081 180.785C287.15 180.725 287.197 180.646 287.216 180.559C287.235 180.473 287.225 180.382 287.188 180.301C287.15 180.22 287.086 180.153 287.006 180.108C286.925 180.063 286.832 180.043 286.738 180.051Z" fill="#263238"/>
<path d="M296.053 203.221C293.583 203.602 291.172 205.295 289.029 206.466C286.608 207.793 284.172 209.105 281.722 210.403C276.84 213.014 271.959 215.61 266.973 218.051C266.735 218.178 266.973 218.545 267.152 218.432C272.227 215.977 277.331 213.578 282.376 211.08C284.857 209.867 287.337 208.63 289.817 207.369C291.916 206.311 294.669 205.196 296.232 203.446C296.263 203.424 296.284 203.391 296.29 203.353C296.295 203.316 296.285 203.279 296.261 203.249C296.238 203.219 296.203 203.199 296.163 203.194C296.124 203.189 296.085 203.198 296.053 203.221Z" fill="#263238"/>
<path d="M142.499 208.413C138.773 211.229 135.339 214.376 132.245 217.811C129.235 221.083 126.408 224.502 123.777 228.056C123.777 228.14 123.941 228.211 124.015 228.14C126.992 224.796 130.355 221.621 133.525 218.362C136.695 215.102 140.267 212.054 143.199 208.724C143.392 208.498 142.752 208.23 142.499 208.413Z" fill="#263238"/>
<path d="M104.146 284.442C114.527 283.58 124.838 282.076 135.012 279.94L142.647 278.346L150.237 276.638C152.767 276.06 155.282 275.411 157.812 274.804C160.342 274.197 162.842 273.562 165.342 272.885C175.388 270.303 185.329 267.368 195.255 264.348L210.048 259.649L224.782 254.71H224.871C230.482 253.455 236.092 252.086 241.688 250.731C247.284 249.377 252.85 247.909 258.371 246.371C263.911 244.922 269.293 242.976 274.444 240.557C279.58 238.055 284.489 235.153 289.118 231.879C284.732 235.495 279.987 238.699 274.95 241.446C272.429 242.839 269.819 244.083 267.137 245.172C264.428 246.244 261.69 247.175 258.951 248.064C253.445 249.842 247.879 251.409 242.313 252.932C236.747 254.456 231.151 255.868 225.541 257.25H225.69L210.956 262.373C206.015 263.953 201.074 265.618 196.074 267.128C186.103 270.105 176.087 273.026 165.937 275.411C155.788 277.796 145.579 280.039 135.25 281.662C132.671 282.076 130.086 282.457 127.497 282.805C124.892 283.101 122.303 283.454 119.698 283.694C114.535 284.242 109.342 284.492 104.146 284.442Z" fill="#263238"/>
<path d="M79.7402 196.053L148.332 198.268C148.332 198.268 158.17 151.068 157.664 125.668C157.396 111.445 148.645 112.052 138.882 120.984C104.698 152.239 79.7402 196.053 79.7402 196.053Z" fill="#F66D1D"/>
<path d="M129.983 142.22C129.983 142.457 129.909 142.689 129.77 142.887C129.631 143.084 129.434 143.238 129.202 143.328C128.971 143.419 128.717 143.443 128.472 143.397C128.226 143.35 128.001 143.236 127.824 143.068C127.647 142.901 127.526 142.687 127.478 142.454C127.429 142.222 127.454 141.98 127.55 141.761C127.645 141.542 127.808 141.355 128.016 141.223C128.224 141.091 128.468 141.021 128.718 141.021C129.054 141.021 129.376 141.147 129.613 141.372C129.85 141.597 129.983 141.902 129.983 142.22ZM149.806 141.021C149.556 141.021 149.312 141.091 149.104 141.223C148.896 141.355 148.734 141.542 148.638 141.761C148.542 141.98 148.517 142.222 148.566 142.454C148.615 142.687 148.735 142.901 148.912 143.068C149.089 143.236 149.314 143.35 149.56 143.397C149.805 143.443 150.059 143.419 150.291 143.328C150.522 143.238 150.719 143.084 150.858 142.887C150.997 142.689 151.071 142.457 151.071 142.22C151.071 141.902 150.938 141.597 150.701 141.372C150.464 141.147 150.142 141.021 149.806 141.021ZM139.255 125.499C139.005 125.499 138.76 125.569 138.552 125.701C138.344 125.833 138.182 126.02 138.086 126.239C137.991 126.459 137.965 126.7 138.014 126.932C138.063 127.165 138.184 127.379 138.361 127.547C138.537 127.714 138.763 127.829 139.008 127.875C139.254 127.921 139.508 127.897 139.739 127.807C139.97 127.716 140.168 127.562 140.307 127.365C140.446 127.168 140.52 126.936 140.52 126.698C140.505 126.39 140.365 126.099 140.129 125.887C139.893 125.674 139.58 125.555 139.255 125.555V125.499ZM107.63 172.149C107.38 172.149 107.135 172.219 106.927 172.351C106.719 172.483 106.557 172.67 106.462 172.889C106.366 173.109 106.341 173.35 106.39 173.582C106.438 173.815 106.559 174.029 106.736 174.197C106.913 174.364 107.138 174.479 107.383 174.525C107.629 174.571 107.883 174.547 108.114 174.457C108.345 174.366 108.543 174.212 108.682 174.015C108.821 173.818 108.895 173.586 108.895 173.348C108.88 173.04 108.74 172.749 108.504 172.537C108.269 172.324 107.956 172.205 107.63 172.205V172.149ZM128.718 172.149C128.468 172.149 128.224 172.219 128.016 172.351C127.808 172.483 127.645 172.67 127.55 172.889C127.454 173.109 127.429 173.35 127.478 173.582C127.526 173.815 127.647 174.029 127.824 174.197C128.001 174.364 128.226 174.479 128.472 174.525C128.717 174.571 128.971 174.547 129.202 174.457C129.434 174.366 129.631 174.212 129.77 174.015C129.909 173.818 129.983 173.586 129.983 173.348C129.968 173.04 129.828 172.749 129.592 172.537C129.357 172.324 129.044 172.205 128.718 172.205V172.149ZM149.806 172.149C149.556 172.149 149.312 172.219 149.104 172.351C148.896 172.483 148.734 172.67 148.638 172.889C148.542 173.109 148.517 173.35 148.566 173.582C148.615 173.815 148.735 174.029 148.912 174.197C149.089 174.364 149.314 174.479 149.56 174.525C149.805 174.571 150.059 174.547 150.291 174.457C150.522 174.366 150.719 174.212 150.858 174.015C150.997 173.818 151.071 173.586 151.071 173.348C151.056 173.04 150.916 172.749 150.681 172.537C150.445 172.324 150.132 172.205 149.806 172.205V172.149ZM118.167 156.627C117.917 156.627 117.672 156.698 117.464 156.829C117.256 156.961 117.094 157.148 116.998 157.368C116.902 157.587 116.877 157.828 116.926 158.061C116.975 158.293 117.095 158.507 117.272 158.675C117.449 158.842 117.675 158.957 117.92 159.003C118.165 159.049 118.42 159.026 118.651 158.935C118.882 158.844 119.08 158.69 119.219 158.493C119.358 158.296 119.432 158.064 119.432 157.827C119.399 157.53 119.252 157.255 119.018 157.054C118.785 156.854 118.482 156.742 118.167 156.74V156.627ZM139.255 156.627C139.005 156.627 138.76 156.698 138.552 156.829C138.344 156.961 138.182 157.148 138.086 157.368C137.991 157.587 137.965 157.828 138.014 158.061C138.063 158.293 138.184 158.507 138.361 158.675C138.537 158.842 138.763 158.957 139.008 159.003C139.254 159.049 139.508 159.026 139.739 158.935C139.97 158.844 140.168 158.69 140.307 158.493C140.446 158.296 140.52 158.064 140.52 157.827C140.487 157.53 140.34 157.255 140.106 157.054C139.873 156.854 139.57 156.742 139.255 156.74V156.627ZM97.0936 187.812C96.8398 187.809 96.5909 187.878 96.3785 188.009C96.1661 188.141 95.9997 188.33 95.9006 188.551C95.8014 188.773 95.7739 189.017 95.8216 189.253C95.8693 189.49 95.99 189.707 96.1684 189.878C96.3468 190.049 96.5748 190.166 96.8235 190.214C97.0721 190.262 97.3303 190.239 97.565 190.148C97.7997 190.056 98.0005 189.901 98.1418 189.701C98.2831 189.501 98.3585 189.266 98.3586 189.025C98.3259 188.727 98.1792 188.45 97.9462 188.248C97.7131 188.045 97.4098 187.93 97.0936 187.925V187.812ZM118.167 187.812C117.913 187.809 117.664 187.878 117.452 188.009C117.239 188.141 117.073 188.33 116.974 188.551C116.875 188.773 116.847 189.017 116.895 189.253C116.943 189.49 117.063 189.707 117.242 189.878C117.42 190.049 117.648 190.166 117.897 190.214C118.145 190.262 118.403 190.239 118.638 190.148C118.873 190.056 119.074 189.901 119.215 189.701C119.356 189.501 119.432 189.266 119.432 189.025C119.402 188.726 119.257 188.447 119.023 188.244C118.789 188.041 118.484 187.927 118.167 187.925V187.812ZM139.255 187.812C139.001 187.809 138.752 187.878 138.54 188.009C138.327 188.141 138.161 188.33 138.062 188.551C137.963 188.773 137.935 189.017 137.983 189.253C138.031 189.49 138.151 189.707 138.33 189.878C138.508 190.049 138.736 190.166 138.985 190.214C139.234 190.262 139.492 190.239 139.726 190.148C139.961 190.056 140.162 189.901 140.303 189.701C140.444 189.501 140.52 189.266 140.52 189.025C140.49 188.726 140.345 188.447 140.111 188.244C139.877 188.041 139.572 187.927 139.255 187.925V187.812Z" fill="white"/>
<path d="M146.309 187.967C135.788 186.796 107.154 184.397 88.2687 185.145C88.1497 185.145 88.1199 185.568 88.2687 185.568C104.029 187.191 135.654 188.278 146.309 188.574C146.458 188.588 146.503 187.996 146.309 187.967Z" fill="#263238"/>
<path d="M157.621 149.924C156.832 152.746 156.133 155.569 155.374 158.391L155.508 157.361C155.924 153.41 156.341 149.459 156.639 145.494C156.639 145.395 156.475 145.381 156.46 145.494C154.421 159.308 148.662 194.232 148.334 198.056C148.007 198.056 144.882 198.141 144.152 198.056C143.989 198.056 144.004 198.268 144.152 198.282C144.524 198.282 149.227 198.86 149.257 198.762C151.296 192.031 154.406 166.575 155.061 160.945C156.133 157.304 157.011 153.631 157.695 149.924H157.621Z" fill="#263238"/>
</svg>
