<svg width="723" height="407" viewBox="0 0 723 407" fill="none" xmlns="http://www.w3.org/2000/svg">
<rect width="722.51" height="406.536" fill="#BDBBBB"/>
<path d="M28.6632 323.204H20.4301L19.063 327.212H13.4707L21.5175 305.401H27.638L35.6847 327.212H30.0303L28.6632 323.204ZM27.2962 319.165L24.5622 311.087L21.7971 319.165H27.2962Z" fill="#2B3640"/>
<path d="M48.5617 309.658C49.9908 309.658 51.2647 310.02 52.3831 310.745C53.5223 311.449 54.4129 312.475 55.055 313.821C55.7178 315.147 56.0492 316.721 56.0492 318.543C56.0492 320.345 55.7178 321.92 55.055 323.266C54.4129 324.612 53.5223 325.648 52.3831 326.373C51.2647 327.077 49.9908 327.429 48.5617 327.429C47.2361 327.429 46.0969 327.129 45.1441 326.528C44.1914 325.927 43.4975 325.109 43.0626 324.074V335.476H37.7498V309.875H43.0626V313.013C43.4975 311.978 44.1914 311.16 45.1441 310.559C46.0969 309.958 47.2361 309.658 48.5617 309.658ZM46.8529 314.318C45.7345 314.318 44.8128 314.701 44.0878 315.468C43.3836 316.213 43.0315 317.239 43.0315 318.543C43.0315 319.828 43.3836 320.853 44.0878 321.619C44.8128 322.386 45.7345 322.769 46.8529 322.769C47.9921 322.769 48.9035 322.396 49.587 321.65C50.2912 320.905 50.6433 319.869 50.6433 318.543C50.6433 317.218 50.2912 316.182 49.587 315.437C48.9035 314.691 47.9921 314.318 46.8529 314.318Z" fill="#2B3640"/>
<path d="M64.1188 313.138C64.7816 312.081 65.6308 311.242 66.6664 310.621C67.7228 310 68.8619 309.689 70.084 309.689V315.374H68.5616C67.1532 315.374 66.0554 315.675 65.2683 316.275C64.502 316.876 64.1188 317.891 64.1188 319.32V327.212H58.8061V309.875H64.1188V313.138Z" fill="#2B3640"/>
<path d="M88.7739 318.077C88.7739 318.512 88.7221 318.989 88.6186 319.507H76.595C76.6572 320.811 76.9886 321.754 77.5892 322.334C78.1899 322.893 78.9562 323.173 79.8883 323.173C80.6754 323.173 81.3278 322.976 81.8456 322.582C82.3634 322.189 82.7052 321.681 82.8709 321.06H88.4943C88.2664 322.282 87.7693 323.38 87.003 324.353C86.2366 325.306 85.2632 326.062 84.0826 326.621C82.9019 327.16 81.5867 327.429 80.1368 327.429C78.4384 327.429 76.9264 327.077 75.6008 326.373C74.2959 325.648 73.2707 324.612 72.525 323.266C71.7794 321.92 71.4066 320.345 71.4066 318.543C71.4066 316.721 71.769 315.147 72.494 313.821C73.2396 312.475 74.2752 311.449 75.6008 310.745C76.9264 310.02 78.4384 309.658 80.1368 309.658C81.856 309.658 83.368 310.01 84.6729 310.714C85.9777 311.418 86.9823 312.413 87.6865 313.697C88.4114 314.96 88.7739 316.42 88.7739 318.077ZM83.399 317.27C83.4198 316.13 83.1091 315.281 82.467 314.722C81.8456 314.142 81.0689 313.852 80.1368 313.852C79.1634 313.852 78.3556 314.142 77.7135 314.722C77.0714 315.302 76.7089 316.151 76.6261 317.27H83.399Z" fill="#2B3640"/>
<path d="M102.542 309.689C104.53 309.689 106.104 310.352 107.264 311.677C108.445 313.003 109.035 314.826 109.035 317.145V327.212H103.722V317.767C103.722 316.607 103.412 315.706 102.79 315.064C102.19 314.401 101.382 314.07 100.367 314.07C99.2898 314.07 98.4302 314.411 97.7882 315.095C97.1668 315.778 96.8561 316.752 96.8561 318.015V327.212H91.5434V309.875H96.8561V313.044C97.3532 312.009 98.0885 311.191 99.062 310.59C100.056 309.989 101.216 309.689 102.542 309.689Z" fill="#2B3640"/>
<path d="M119.125 309.658C120.451 309.658 121.59 309.958 122.543 310.559C123.496 311.16 124.19 311.978 124.625 313.013V304.221H129.937V327.212H124.625V324.074C124.19 325.109 123.496 325.927 122.543 326.528C121.59 327.129 120.451 327.429 119.125 327.429C117.696 327.429 116.412 327.077 115.273 326.373C114.155 325.648 113.264 324.612 112.601 323.266C111.959 321.92 111.638 320.345 111.638 318.543C111.638 316.721 111.959 315.147 112.601 313.821C113.264 312.475 114.155 311.449 115.273 310.745C116.412 310.02 117.696 309.658 119.125 309.658ZM120.834 314.318C119.695 314.318 118.773 314.691 118.069 315.437C117.386 316.182 117.044 317.218 117.044 318.543C117.044 319.869 117.386 320.905 118.069 321.65C118.773 322.396 119.695 322.769 120.834 322.769C121.953 322.769 122.864 322.386 123.568 321.619C124.293 320.853 124.656 319.828 124.656 318.543C124.656 317.239 124.293 316.213 123.568 315.468C122.864 314.701 121.953 314.318 120.834 314.318Z" fill="#2B3640"/>
<path d="M150.062 318.077C150.062 318.512 150.01 318.989 149.906 319.507H137.883C137.945 320.811 138.276 321.754 138.877 322.334C139.478 322.893 140.244 323.173 141.176 323.173C141.963 323.173 142.615 322.976 143.133 322.582C143.651 322.189 143.993 321.681 144.159 321.06H149.782C149.554 322.282 149.057 323.38 148.291 324.353C147.524 325.306 146.551 326.062 145.37 326.621C144.19 327.16 142.874 327.429 141.424 327.429C139.726 327.429 138.214 327.077 136.888 326.373C135.584 325.648 134.558 324.612 133.813 323.266C133.067 321.92 132.694 320.345 132.694 318.543C132.694 316.721 133.057 315.147 133.782 313.821C134.527 312.475 135.563 311.449 136.888 310.745C138.214 310.02 139.726 309.658 141.424 309.658C143.144 309.658 144.656 310.01 145.96 310.714C147.265 311.418 148.27 312.413 148.974 313.697C149.699 314.96 150.062 316.42 150.062 318.077ZM144.687 317.27C144.707 316.13 144.397 315.281 143.755 314.722C143.133 314.142 142.357 313.852 141.424 313.852C140.451 313.852 139.643 314.142 139.001 314.722C138.359 315.302 137.997 316.151 137.914 317.27H144.687Z" fill="#2B3640"/>
<path d="M165.637 309.658C166.963 309.658 168.102 309.958 169.055 310.559C170.008 311.16 170.712 311.978 171.168 313.013V309.875H176.449V327.212H171.168V324.074C170.712 325.109 170.008 325.927 169.055 326.528C168.102 327.129 166.963 327.429 165.637 327.429C164.208 327.429 162.924 327.077 161.785 326.373C160.666 325.648 159.776 324.612 159.113 323.266C158.471 321.92 158.15 320.345 158.15 318.543C158.15 316.721 158.471 315.147 159.113 313.821C159.776 312.475 160.666 311.449 161.785 310.745C162.924 310.02 164.208 309.658 165.637 309.658ZM167.346 314.318C166.207 314.318 165.285 314.691 164.581 315.437C163.897 316.182 163.556 317.218 163.556 318.543C163.556 319.869 163.897 320.905 164.581 321.65C165.285 322.396 166.207 322.769 167.346 322.769C168.465 322.769 169.376 322.386 170.08 321.619C170.805 320.853 171.168 319.828 171.168 318.543C171.168 317.239 170.805 316.213 170.08 315.468C169.376 314.701 168.465 314.318 167.346 314.318Z" fill="#2B3640"/>
<path d="M194.156 309.658C196.393 309.658 198.268 310.279 199.78 311.522C201.292 312.744 202.244 314.432 202.638 316.586H197.014C196.849 315.841 196.507 315.261 195.989 314.846C195.471 314.432 194.819 314.225 194.032 314.225C193.1 314.225 192.333 314.598 191.733 315.343C191.132 316.068 190.832 317.135 190.832 318.543C190.832 319.952 191.132 321.029 191.733 321.775C192.333 322.5 193.1 322.862 194.032 322.862C194.819 322.862 195.471 322.655 195.989 322.241C196.507 321.826 196.849 321.246 197.014 320.501H202.638C202.244 322.655 201.292 324.353 199.78 325.596C198.268 326.818 196.393 327.429 194.156 327.429C192.458 327.429 190.946 327.077 189.62 326.373C188.315 325.648 187.29 324.612 186.544 323.266C185.799 321.92 185.426 320.345 185.426 318.543C185.426 316.721 185.788 315.147 186.513 313.821C187.259 312.475 188.294 311.449 189.62 310.745C190.946 310.02 192.458 309.658 194.156 309.658Z" fill="#2B3640"/>
<path d="M213.52 309.658C215.239 309.658 216.772 310.02 218.118 310.745C219.485 311.449 220.552 312.475 221.318 313.821C222.105 315.167 222.499 316.742 222.499 318.543C222.499 320.345 222.105 321.92 221.318 323.266C220.552 324.612 219.485 325.648 218.118 326.373C216.772 327.077 215.239 327.429 213.52 327.429C211.801 327.429 210.258 327.077 208.891 326.373C207.524 325.648 206.447 324.612 205.659 323.266C204.893 321.92 204.51 320.345 204.51 318.543C204.51 316.742 204.893 315.167 205.659 313.821C206.447 312.475 207.524 311.449 208.891 310.745C210.258 310.02 211.801 309.658 213.52 309.658ZM213.52 314.256C212.505 314.256 211.645 314.629 210.941 315.374C210.258 316.099 209.916 317.156 209.916 318.543C209.916 319.931 210.258 320.988 210.941 321.712C211.645 322.437 212.505 322.8 213.52 322.8C214.535 322.8 215.384 322.437 216.067 321.712C216.751 320.988 217.093 319.931 217.093 318.543C217.093 317.156 216.751 316.099 216.067 315.374C215.384 314.629 214.535 314.256 213.52 314.256Z" fill="#2B3640"/>
<path d="M247.716 309.689C249.85 309.689 251.527 310.352 252.749 311.677C253.971 312.982 254.582 314.805 254.582 317.145V327.212H249.301V317.767C249.301 316.669 249 315.82 248.4 315.219C247.82 314.598 247.022 314.287 246.007 314.287C244.951 314.287 244.112 314.618 243.491 315.281C242.89 315.923 242.59 316.835 242.59 318.015V327.212H237.277V317.767C237.277 316.669 236.987 315.82 236.407 315.219C235.827 314.598 235.03 314.287 234.015 314.287C232.959 314.287 232.12 314.608 231.498 315.25C230.877 315.892 230.566 316.814 230.566 318.015V327.212H225.254V309.875H230.566V312.827C231.022 311.853 231.716 311.087 232.648 310.528C233.601 309.969 234.709 309.689 235.972 309.689C237.298 309.689 238.468 310 239.483 310.621C240.498 311.222 241.264 312.092 241.782 313.231C242.383 312.154 243.201 311.294 244.236 310.652C245.293 310.01 246.453 309.689 247.716 309.689Z" fill="#2B3640"/>
<path d="M275.355 309.875V327.212H270.011V324.074C269.514 325.089 268.769 325.896 267.775 326.497C266.801 327.098 265.662 327.398 264.357 327.398C262.369 327.398 260.784 326.735 259.604 325.41C258.444 324.084 257.864 322.261 257.864 319.942V309.875H263.145V319.289C263.145 320.47 263.446 321.391 264.046 322.054C264.668 322.696 265.496 323.017 266.532 323.017C267.609 323.017 268.458 322.676 269.079 321.992C269.701 321.309 270.011 320.335 270.011 319.072V309.875H275.355Z" fill="#2B3640"/>
<path d="M290.015 309.689C292.003 309.689 293.578 310.352 294.737 311.677C295.918 313.003 296.508 314.826 296.508 317.145V327.212H291.196V317.767C291.196 316.607 290.885 315.706 290.264 315.064C289.663 314.401 288.855 314.07 287.84 314.07C286.763 314.07 285.904 314.411 285.262 315.095C284.64 315.778 284.329 316.752 284.329 318.015V327.212H279.017V309.875H284.329V313.044C284.827 312.009 285.562 311.191 286.535 310.59C287.53 309.989 288.689 309.689 290.015 309.689Z" fill="#2B3640"/>
<path d="M299.515 304.998C299.515 304.19 299.805 303.527 300.385 303.009C300.965 302.471 301.731 302.201 302.684 302.201C303.637 302.201 304.403 302.471 304.983 303.009C305.563 303.527 305.853 304.19 305.853 304.998C305.853 305.785 305.563 306.447 304.983 306.986C304.403 307.504 303.637 307.763 302.684 307.763C301.731 307.763 300.965 307.504 300.385 306.986C299.805 306.447 299.515 305.785 299.515 304.998ZM305.325 309.875V327.212H300.012V309.875H305.325Z" fill="#2B3640"/>
<path d="M316.822 309.658C319.059 309.658 320.934 310.279 322.446 311.522C323.958 312.744 324.911 314.432 325.304 316.586H319.681C319.515 315.841 319.173 315.261 318.655 314.846C318.138 314.432 317.485 314.225 316.698 314.225C315.766 314.225 315 314.598 314.399 315.343C313.798 316.068 313.498 317.135 313.498 318.543C313.498 319.952 313.798 321.029 314.399 321.775C315 322.5 315.766 322.862 316.698 322.862C317.485 322.862 318.138 322.655 318.655 322.241C319.173 321.826 319.515 321.246 319.681 320.501H325.304C324.911 322.655 323.958 324.353 322.446 325.596C320.934 326.818 319.059 327.429 316.822 327.429C315.124 327.429 313.612 327.077 312.286 326.373C310.981 325.648 309.956 324.612 309.211 323.266C308.465 321.92 308.092 320.345 308.092 318.543C308.092 316.721 308.455 315.147 309.18 313.821C309.925 312.475 310.961 311.449 312.286 310.745C313.612 310.02 315.124 309.658 316.822 309.658Z" fill="#2B3640"/>
<path d="M334.664 309.658C335.989 309.658 337.129 309.958 338.081 310.559C339.034 311.16 339.738 311.978 340.194 313.013V309.875H345.476V327.212H340.194V324.074C339.738 325.109 339.034 325.927 338.081 326.528C337.129 327.129 335.989 327.429 334.664 327.429C333.235 327.429 331.95 327.077 330.811 326.373C329.693 325.648 328.802 324.612 328.139 323.266C327.497 321.92 327.176 320.345 327.176 318.543C327.176 316.721 327.497 315.147 328.139 313.821C328.802 312.475 329.693 311.449 330.811 310.745C331.95 310.02 333.235 309.658 334.664 309.658ZM336.373 314.318C335.233 314.318 334.312 314.691 333.607 315.437C332.924 316.182 332.582 317.218 332.582 318.543C332.582 319.869 332.924 320.905 333.607 321.65C334.312 322.396 335.233 322.769 336.373 322.769C337.491 322.769 338.402 322.386 339.107 321.619C339.832 320.853 340.194 319.828 340.194 318.543C340.194 317.239 339.832 316.213 339.107 315.468C338.402 314.701 337.491 314.318 336.373 314.318Z" fill="#2B3640"/>
<path d="M354.446 313.138C355.109 312.081 355.958 311.242 356.994 310.621C358.05 310 359.189 309.689 360.411 309.689V315.374H358.889C357.481 315.374 356.383 315.675 355.596 316.275C354.829 316.876 354.446 317.891 354.446 319.32V327.212H349.133V309.875H354.446V313.138Z" fill="#2B3640"/>
<path d="M372.453 322.645V327.212H370.06C368.031 327.212 366.446 326.715 365.307 325.72C364.188 324.705 363.629 323.038 363.629 320.718V314.349H361.299V309.875H363.629V305.619H368.942V309.875H372.422V314.349H368.942V320.811C368.942 321.495 369.077 321.971 369.346 322.241C369.636 322.51 370.112 322.645 370.775 322.645H372.453Z" fill="#2B3640"/>
<path d="M391.905 318.077C391.905 318.512 391.853 318.989 391.75 319.507H379.726C379.788 320.811 380.12 321.754 380.72 322.334C381.321 322.893 382.087 323.173 383.019 323.173C383.806 323.173 384.459 322.976 384.977 322.582C385.495 322.189 385.836 321.681 386.002 321.06H391.625C391.398 322.282 390.9 323.38 390.134 324.353C389.368 325.306 388.394 326.062 387.214 326.621C386.033 327.16 384.718 327.429 383.268 327.429C381.569 327.429 380.057 327.077 378.732 326.373C377.427 325.648 376.402 324.612 375.656 323.266C374.91 321.92 374.538 320.345 374.538 318.543C374.538 316.721 374.9 315.147 375.625 313.821C376.371 312.475 377.406 311.449 378.732 310.745C380.057 310.02 381.569 309.658 383.268 309.658C384.987 309.658 386.499 310.01 387.804 310.714C389.109 311.418 390.113 312.413 390.818 313.697C391.543 314.96 391.905 316.42 391.905 318.077ZM386.53 317.27C386.551 316.13 386.24 315.281 385.598 314.722C384.977 314.142 384.2 313.852 383.268 313.852C382.294 313.852 381.487 314.142 380.845 314.722C380.202 315.302 379.84 316.151 379.757 317.27H386.53Z" fill="#2B3640"/>
<path d="M22.8845 356.591C25.1214 356.591 26.9959 357.213 28.5079 358.455C30.0199 359.677 30.9727 361.365 31.3662 363.52H25.7428C25.5771 362.774 25.2353 362.194 24.7175 361.78C24.1997 361.365 23.5473 361.158 22.7602 361.158C21.8282 361.158 21.0618 361.531 20.4611 362.277C19.8605 363.002 19.5601 364.068 19.5601 365.477C19.5601 366.885 19.8605 367.962 20.4611 368.708C21.0618 369.433 21.8282 369.795 22.7602 369.795C23.5473 369.795 24.1997 369.588 24.7175 369.174C25.2353 368.76 25.5771 368.18 25.7428 367.434H31.3662C30.9727 369.588 30.0199 371.287 28.5079 372.529C26.9959 373.751 25.1214 374.362 22.8845 374.362C21.1861 374.362 19.6741 374.01 18.3485 373.306C17.0436 372.581 16.0183 371.546 15.2727 370.199C14.527 368.853 14.1542 367.279 14.1542 365.477C14.1542 363.654 14.5167 362.08 15.2416 360.754C15.9873 359.408 17.0229 358.383 18.3485 357.679C19.6741 356.954 21.1861 356.591 22.8845 356.591Z" fill="#2B3640"/>
<path d="M42.2482 356.591C43.9673 356.591 45.5001 356.954 46.8464 357.679C48.2134 358.383 49.2801 359.408 50.0464 360.754C50.8335 362.101 51.227 363.675 51.227 365.477C51.227 367.279 50.8335 368.853 50.0464 370.199C49.2801 371.546 48.2134 372.581 46.8464 373.306C45.5001 374.01 43.9673 374.362 42.2482 374.362C40.5291 374.362 38.986 374.01 37.619 373.306C36.252 372.581 35.1749 371.546 34.3879 370.199C33.6215 368.853 33.2383 367.279 33.2383 365.477C33.2383 363.675 33.6215 362.101 34.3879 360.754C35.1749 359.408 36.252 358.383 37.619 357.679C38.986 356.954 40.5291 356.591 42.2482 356.591ZM42.2482 361.189C41.2333 361.189 40.3737 361.562 39.6695 362.308C38.986 363.033 38.6443 364.089 38.6443 365.477C38.6443 366.865 38.986 367.921 39.6695 368.646C40.3737 369.371 41.2333 369.733 42.2482 369.733C43.2631 369.733 44.1123 369.371 44.7958 368.646C45.4794 367.921 45.8211 366.865 45.8211 365.477C45.8211 364.089 45.4794 363.033 44.7958 362.308C44.1123 361.562 43.2631 361.189 42.2482 361.189Z" fill="#2B3640"/>
<path d="M64.9802 356.622C66.9686 356.622 68.5428 357.285 69.7027 358.611C70.8833 359.936 71.4736 361.759 71.4736 364.079V374.145H66.1608V364.7C66.1608 363.54 65.8501 362.639 65.2288 361.997C64.6281 361.334 63.8203 361.003 62.8054 361.003C61.7284 361.003 60.8688 361.345 60.2267 362.028C59.6054 362.712 59.2947 363.685 59.2947 364.949V374.145H53.9819V356.809H59.2947V359.978C59.7918 358.942 60.5271 358.124 61.5005 357.523C62.4947 356.923 63.6546 356.622 64.9802 356.622Z" fill="#2B3640"/>
<path d="M92.1956 356.622C94.184 356.622 95.7581 357.285 96.918 358.611C98.0986 359.936 98.6889 361.759 98.6889 364.079V374.145H93.3762V364.7C93.3762 363.54 93.0655 362.639 92.4441 361.997C91.8435 361.334 91.0357 361.003 90.0208 361.003C88.9437 361.003 88.0842 361.345 87.4421 362.028C86.8207 362.712 86.51 363.685 86.51 364.949V374.145H81.1973V356.809H86.51V359.978C87.0071 358.942 87.7424 358.124 88.7159 357.523C89.7101 356.923 90.87 356.622 92.1956 356.622Z" fill="#2B3640"/>
<path d="M119.436 356.809V374.145H114.092V371.007C113.595 372.022 112.849 372.83 111.855 373.43C110.882 374.031 109.743 374.331 108.438 374.331C106.449 374.331 104.865 373.669 103.684 372.343C102.524 371.017 101.944 369.195 101.944 366.875V356.809H107.226V366.223C107.226 367.403 107.526 368.325 108.127 368.988C108.748 369.63 109.577 369.951 110.612 369.951C111.689 369.951 112.539 369.609 113.16 368.925C113.781 368.242 114.092 367.268 114.092 366.005V356.809H119.436Z" fill="#2B3640"/>
<path d="M139.564 365.011C139.564 365.446 139.512 365.922 139.408 366.44H127.385C127.447 367.745 127.778 368.687 128.379 369.267C128.98 369.826 129.746 370.106 130.678 370.106C131.465 370.106 132.118 369.909 132.635 369.516C133.153 369.122 133.495 368.615 133.661 367.993H139.284C139.056 369.215 138.559 370.313 137.793 371.287C137.026 372.239 136.053 372.995 134.872 373.555C133.692 374.093 132.377 374.362 130.927 374.362C129.228 374.362 127.716 374.01 126.391 373.306C125.086 372.581 124.061 371.546 123.315 370.199C122.569 368.853 122.196 367.279 122.196 365.477C122.196 363.654 122.559 362.08 123.284 360.754C124.029 359.408 125.065 358.383 126.391 357.679C127.716 356.954 129.228 356.591 130.927 356.591C132.646 356.591 134.158 356.943 135.463 357.648C136.768 358.352 137.772 359.346 138.476 360.63C139.201 361.894 139.564 363.354 139.564 365.011ZM134.189 364.203C134.21 363.064 133.899 362.215 133.257 361.655C132.635 361.076 131.859 360.786 130.927 360.786C129.953 360.786 129.145 361.076 128.503 361.655C127.861 362.235 127.499 363.085 127.416 364.203H134.189Z" fill="#2B3640"/>
<path d="M148.64 356.591C150.836 356.591 152.586 357.14 153.891 358.238C155.216 359.336 156.045 360.786 156.376 362.587H151.405C151.26 361.883 150.929 361.334 150.411 360.941C149.914 360.527 149.282 360.319 148.516 360.319C147.915 360.319 147.46 360.454 147.149 360.723C146.838 360.972 146.683 361.334 146.683 361.811C146.683 362.349 146.962 362.753 147.522 363.022C148.102 363.292 149.003 363.561 150.225 363.83C151.55 364.141 152.638 364.462 153.487 364.793C154.336 365.104 155.071 365.622 155.693 366.347C156.314 367.072 156.625 368.045 156.625 369.267C156.625 370.261 156.356 371.142 155.817 371.908C155.278 372.674 154.502 373.275 153.487 373.71C152.472 374.145 151.271 374.362 149.883 374.362C147.542 374.362 145.668 373.845 144.259 372.809C142.851 371.773 141.991 370.293 141.681 368.366H146.807C146.89 369.112 147.201 369.681 147.739 370.075C148.298 370.469 149.013 370.665 149.883 370.665C150.484 370.665 150.939 370.531 151.25 370.261C151.561 369.971 151.716 369.599 151.716 369.143C151.716 368.542 151.426 368.118 150.846 367.869C150.287 367.6 149.365 367.32 148.081 367.03C146.797 366.761 145.74 366.471 144.912 366.16C144.083 365.85 143.369 365.353 142.768 364.669C142.168 363.965 141.867 363.012 141.867 361.811C141.867 360.257 142.457 359.004 143.638 358.051C144.819 357.078 146.486 356.591 148.64 356.591Z" fill="#2B3640"/>
<path d="M169.384 369.578V374.145H166.992C164.962 374.145 163.378 373.648 162.238 372.654C161.12 371.639 160.561 369.971 160.561 367.652V361.283H158.231V356.809H160.561V352.552H165.873V356.809H169.353V361.283H165.873V367.745C165.873 368.428 166.008 368.905 166.277 369.174C166.567 369.443 167.044 369.578 167.707 369.578H169.384Z" fill="#2B3640"/>
<path d="M177.683 360.071C178.346 359.015 179.195 358.176 180.231 357.554C181.287 356.933 182.426 356.622 183.648 356.622V362.308H182.126C180.717 362.308 179.62 362.608 178.832 363.209C178.066 363.81 177.683 364.824 177.683 366.254V374.145H172.37V356.809H177.683V360.071Z" fill="#2B3640"/>
<path d="M193.981 356.591C195.7 356.591 197.232 356.954 198.579 357.679C199.946 358.383 201.012 359.408 201.779 360.754C202.566 362.101 202.959 363.675 202.959 365.477C202.959 367.279 202.566 368.853 201.779 370.199C201.012 371.546 199.946 372.581 198.579 373.306C197.232 374.01 195.7 374.362 193.981 374.362C192.261 374.362 190.718 374.01 189.351 373.306C187.984 372.581 186.907 371.546 186.12 370.199C185.354 368.853 184.971 367.279 184.971 365.477C184.971 363.675 185.354 362.101 186.12 360.754C186.907 359.408 187.984 358.383 189.351 357.679C190.718 356.954 192.261 356.591 193.981 356.591ZM193.981 361.189C192.966 361.189 192.106 361.562 191.402 362.308C190.718 363.033 190.377 364.089 190.377 365.477C190.377 366.865 190.718 367.921 191.402 368.646C192.106 369.371 192.966 369.733 193.981 369.733C194.996 369.733 195.845 369.371 196.528 368.646C197.212 367.921 197.553 366.865 197.553 365.477C197.553 364.089 197.212 363.033 196.528 362.308C195.845 361.562 194.996 361.189 193.981 361.189Z" fill="#2B3640"/>
<path d="M218.521 356.591C219.846 356.591 220.985 356.892 221.938 357.492C222.891 358.093 223.595 358.911 224.051 359.947V356.809H229.333V374.145H224.051V371.007C223.595 372.043 222.891 372.861 221.938 373.462C220.985 374.062 219.846 374.362 218.521 374.362C217.092 374.362 215.807 374.01 214.668 373.306C213.55 372.581 212.659 371.546 211.996 370.199C211.354 368.853 211.033 367.279 211.033 365.477C211.033 363.654 211.354 362.08 211.996 360.754C212.659 359.408 213.55 358.383 214.668 357.679C215.807 356.954 217.092 356.591 218.521 356.591ZM220.229 361.252C219.09 361.252 218.169 361.624 217.464 362.37C216.781 363.116 216.439 364.151 216.439 365.477C216.439 366.802 216.781 367.838 217.464 368.584C218.169 369.329 219.09 369.702 220.229 369.702C221.348 369.702 222.259 369.319 222.963 368.553C223.688 367.786 224.051 366.761 224.051 365.477C224.051 364.172 223.688 363.147 222.963 362.401C222.259 361.635 221.348 361.252 220.229 361.252Z" fill="#2B3640"/>
<path d="M243.989 356.622C245.977 356.622 247.551 357.285 248.711 358.611C249.892 359.936 250.482 361.759 250.482 364.079V374.145H245.169V364.7C245.169 363.54 244.859 362.639 244.237 361.997C243.637 361.334 242.829 361.003 241.814 361.003C240.737 361.003 239.877 361.345 239.235 362.028C238.614 362.712 238.303 363.685 238.303 364.949V374.145H232.99V356.809H238.303V359.978C238.8 358.942 239.535 358.124 240.509 357.523C241.503 356.923 242.663 356.622 243.989 356.622Z" fill="#2B3640"/>
<path d="M260.572 356.591C261.898 356.591 263.037 356.892 263.99 357.492C264.943 358.093 265.647 358.911 266.103 359.947V356.809H271.384V374.145H266.103V371.007C265.647 372.043 264.943 372.861 263.99 373.462C263.037 374.062 261.898 374.362 260.572 374.362C259.143 374.362 257.859 374.01 256.72 373.306C255.602 372.581 254.711 371.546 254.048 370.199C253.406 368.853 253.085 367.279 253.085 365.477C253.085 363.654 253.406 362.08 254.048 360.754C254.711 359.408 255.602 358.383 256.72 357.679C257.859 356.954 259.143 356.591 260.572 356.591ZM262.281 361.252C261.142 361.252 260.22 361.624 259.516 362.37C258.833 363.116 258.491 364.151 258.491 365.477C258.491 366.802 258.833 367.838 259.516 368.584C260.22 369.329 261.142 369.702 262.281 369.702C263.4 369.702 264.311 369.319 265.015 368.553C265.74 367.786 266.103 366.761 266.103 365.477C266.103 364.172 265.74 363.147 265.015 362.401C264.311 361.635 263.4 361.252 262.281 361.252Z" fill="#2B3640"/>
<path d="M280.355 351.154V374.145H275.042V351.154H280.355Z" fill="#2B3640"/>
<path d="M283.526 351.931C283.526 351.123 283.816 350.46 284.396 349.943C284.976 349.404 285.742 349.135 286.695 349.135C287.648 349.135 288.414 349.404 288.994 349.943C289.574 350.46 289.864 351.123 289.864 351.931C289.864 352.718 289.574 353.381 288.994 353.919C288.414 354.437 287.648 354.696 286.695 354.696C285.742 354.696 284.976 354.437 284.396 353.919C283.816 353.381 283.526 352.718 283.526 351.931ZM289.336 356.809V374.145H284.023V356.809H289.336Z" fill="#2B3640"/>
<path d="M299.311 356.591C301.506 356.591 303.256 357.14 304.561 358.238C305.887 359.336 306.715 360.786 307.047 362.587H302.076C301.931 361.883 301.599 361.334 301.082 360.941C300.584 360.527 299.953 360.319 299.186 360.319C298.586 360.319 298.13 360.454 297.819 360.723C297.509 360.972 297.353 361.334 297.353 361.811C297.353 362.349 297.633 362.753 298.192 363.022C298.772 363.292 299.673 363.561 300.895 363.83C302.221 364.141 303.308 364.462 304.157 364.793C305.007 365.104 305.742 365.622 306.363 366.347C306.985 367.072 307.295 368.045 307.295 369.267C307.295 370.261 307.026 371.142 306.487 371.908C305.949 372.674 305.172 373.275 304.157 373.71C303.142 374.145 301.941 374.362 300.553 374.362C298.213 374.362 296.338 373.845 294.93 372.809C293.522 371.773 292.662 370.293 292.351 368.366H297.478C297.56 369.112 297.871 369.681 298.41 370.075C298.969 370.469 299.683 370.665 300.553 370.665C301.154 370.665 301.61 370.531 301.92 370.261C302.231 369.971 302.386 369.599 302.386 369.143C302.386 368.542 302.096 368.118 301.516 367.869C300.957 367.6 300.036 367.32 298.751 367.03C297.467 366.761 296.411 366.471 295.582 366.16C294.754 365.85 294.039 365.353 293.439 364.669C292.838 363.965 292.538 363.012 292.538 361.811C292.538 360.257 293.128 359.004 294.309 358.051C295.489 357.078 297.157 356.591 299.311 356.591Z" fill="#2B3640"/>
<path d="M320.055 369.578V374.145H317.662C315.633 374.145 314.048 373.648 312.909 372.654C311.79 371.639 311.231 369.971 311.231 367.652V361.283H308.901V356.809H311.231V352.552H316.544V356.809H320.024V361.283H316.544V367.745C316.544 368.428 316.679 368.905 316.948 369.174C317.238 369.443 317.714 369.578 318.377 369.578H320.055Z" fill="#2B3640"/>
<path d="M329.627 356.591C330.953 356.591 332.092 356.892 333.045 357.492C333.998 358.093 334.702 358.911 335.157 359.947V356.809H340.439V374.145H335.157V371.007C334.702 372.043 333.998 372.861 333.045 373.462C332.092 374.062 330.953 374.362 329.627 374.362C328.198 374.362 326.914 374.01 325.775 373.306C324.656 372.581 323.766 371.546 323.103 370.199C322.461 368.853 322.14 367.279 322.14 365.477C322.14 363.654 322.461 362.08 323.103 360.754C323.766 359.408 324.656 358.383 325.775 357.679C326.914 356.954 328.198 356.591 329.627 356.591ZM331.336 361.252C330.197 361.252 329.275 361.624 328.571 362.37C327.887 363.116 327.546 364.151 327.546 365.477C327.546 366.802 327.887 367.838 328.571 368.584C329.275 369.329 330.197 369.702 331.336 369.702C332.454 369.702 333.366 369.319 334.07 368.553C334.795 367.786 335.157 366.761 335.157 365.477C335.157 364.172 334.795 363.147 334.07 362.401C333.366 361.635 332.454 361.252 331.336 361.252Z" fill="#2B3640"/>
<path d="M358.332 368.957L362.092 356.809H367.746L361.595 374.145H355.008L348.857 356.809H354.511L358.332 368.957Z" fill="#2B3640"/>
<path d="M369.45 351.931C369.45 351.123 369.74 350.46 370.32 349.943C370.9 349.404 371.666 349.135 372.619 349.135C373.572 349.135 374.338 349.404 374.918 349.943C375.498 350.46 375.788 351.123 375.788 351.931C375.788 352.718 375.498 353.381 374.918 353.919C374.338 354.437 373.572 354.696 372.619 354.696C371.666 354.696 370.9 354.437 370.32 353.919C369.74 353.381 369.45 352.718 369.45 351.931ZM375.26 356.809V374.145H369.947V356.809H375.26Z" fill="#2B3640"/>
<path d="M384.24 360.071C384.903 359.015 385.753 358.176 386.788 357.554C387.844 356.933 388.984 356.622 390.206 356.622V362.308H388.683C387.275 362.308 386.177 362.608 385.39 363.209C384.624 363.81 384.24 364.824 384.24 366.254V374.145H378.928V356.809H384.24V360.071Z" fill="#2B3640"/>
<path d="M402.247 369.578V374.145H399.855C397.825 374.145 396.24 373.648 395.101 372.654C393.983 371.639 393.423 369.971 393.423 367.652V361.283H391.093V356.809H393.423V352.552H398.736V356.809H402.216V361.283H398.736V367.745C398.736 368.428 398.871 368.905 399.14 369.174C399.43 369.443 399.906 369.578 400.569 369.578H402.247Z" fill="#2B3640"/>
<path d="M422.476 356.809V374.145H417.132V371.007C416.635 372.022 415.889 372.83 414.895 373.43C413.922 374.031 412.783 374.331 411.478 374.331C409.489 374.331 407.905 373.669 406.724 372.343C405.564 371.017 404.984 369.195 404.984 366.875V356.809H410.266V366.223C410.266 367.403 410.566 368.325 411.167 368.988C411.788 369.63 412.617 369.951 413.652 369.951C414.73 369.951 415.579 369.609 416.2 368.925C416.822 368.242 417.132 367.268 417.132 366.005V356.809H422.476Z" fill="#2B3640"/>
<path d="M432.724 356.591C434.05 356.591 435.189 356.892 436.142 357.492C437.094 358.093 437.799 358.911 438.254 359.947V356.809H443.536V374.145H438.254V371.007C437.799 372.043 437.094 372.861 436.142 373.462C435.189 374.062 434.05 374.362 432.724 374.362C431.295 374.362 430.011 374.01 428.871 373.306C427.753 372.581 426.862 371.546 426.2 370.199C425.557 368.853 425.236 367.279 425.236 365.477C425.236 363.654 425.557 362.08 426.2 360.754C426.862 359.408 427.753 358.383 428.871 357.679C430.011 356.954 431.295 356.591 432.724 356.591ZM434.433 361.252C433.294 361.252 432.372 361.624 431.668 362.37C430.984 363.116 430.642 364.151 430.642 365.477C430.642 366.802 430.984 367.838 431.668 368.584C432.372 369.329 433.294 369.702 434.433 369.702C435.551 369.702 436.463 369.319 437.167 368.553C437.892 367.786 438.254 366.761 438.254 365.477C438.254 364.172 437.892 363.147 437.167 362.401C436.463 361.635 435.551 361.252 434.433 361.252Z" fill="#2B3640"/>
<path d="M452.506 351.154V374.145H447.194V351.154H452.506Z" fill="#2B3640"/>
<path d="M358.612 252.515C385.811 252.515 407.859 230.452 407.859 203.268C407.859 176.083 385.811 154.021 358.612 154.021C331.413 154.021 309.365 176.083 309.365 203.268C309.365 230.452 331.413 252.515 358.612 252.515Z" stroke="black" stroke-width="2" stroke-linecap="round" stroke-linejoin="round"/>
<path d="M349.027 183.767L378.774 203.598L349.027 223.429V183.767Z" stroke="black" stroke-width="2" stroke-linecap="round" stroke-linejoin="round"/>
</svg>
