<svg width="708" height="428" viewBox="0 0 708 428" fill="none" xmlns="http://www.w3.org/2000/svg">
<path d="M719.123 404.405L629.232 404.012L539.342 403.864L359.561 403.602L179.781 403.864L89.8904 404.012L6.10352e-05 404.405L89.8904 404.815L179.781 404.963L359.561 405.225L539.342 404.963L629.232 404.815L719.123 404.405Z" fill="#263238"/>
<path d="M544.114 202.37C529.682 265.166 499.833 340.444 487.09 352.662C470.969 368.111 364.317 396.451 359.003 397.025C345.883 398.354 319.429 303.543 333.468 301.493C354.789 298.41 432.461 294.195 437.102 289.423C441.743 284.65 474.708 243.092 508.394 196.4C531.65 164.14 553.085 163.402 544.114 202.37Z" fill="#AD6359"/>
<path d="M369.565 391.908C368.007 392.696 345.719 403.913 331.943 407.899C321.66 410.884 291.844 418.674 287.432 407.669C284.414 400.19 301.422 393.548 313.328 388.579C319.61 385.955 327.351 379.395 325.497 375.36C322.217 368.308 306.096 375.36 295.468 381.56C274.919 393.499 247.546 415 235 404.52C230.26 400.584 235.771 393.401 243.824 386.365C230.703 394.565 216.796 401.289 211.367 397.124C208.235 394.746 208.087 391.482 209.826 387.775C205.791 389.087 202.232 388.825 199.739 386.135C195.492 381.674 197.558 375.114 202.216 368.374C201.416 368.291 200.648 368.019 199.975 367.58C199.302 367.14 198.743 366.547 198.345 365.848C189.342 352.121 234.426 312.711 249.99 309.021C295.829 298.115 344.145 300.148 344.145 300.148C362.152 314.597 369.614 391.876 369.565 391.908Z" fill="#AD6359"/>
<path d="M302.16 349.71C291.246 351.415 280.819 355.424 271.574 361.469C259.946 369.145 252.238 378.132 242.496 387.169C242.457 387.22 242.437 387.283 242.44 387.347C242.442 387.411 242.467 387.473 242.509 387.521C242.551 387.569 242.609 387.601 242.672 387.612C242.736 387.622 242.801 387.611 242.857 387.579C247.498 383.282 266.752 367.111 271.721 363.437C280.71 356.674 291.118 352.041 302.16 349.891C302.308 349.874 302.275 349.678 302.16 349.71Z" fill="#263238"/>
<path d="M293.616 330.243C281.562 333.523 269.212 336.803 258.027 342.576C245.792 348.808 236.215 358.976 226.866 368.817C221.203 374.688 215.676 380.701 210.286 386.857C210.072 387.119 210.417 387.529 210.646 387.267C220.202 377.164 230.043 367.324 240.167 357.746C249.538 348.852 260.573 341.897 272.64 337.279C279.528 334.638 286.613 332.556 293.698 330.456C293.796 330.423 293.747 330.21 293.616 330.243Z" fill="#263238"/>
<path d="M280.741 313.236C269.031 315.647 258.814 317.697 248.449 323.962C234.722 332.277 221.47 346.266 216.829 351.236C211.696 356.713 206.743 362.355 201.888 368.079C201.691 368.308 202.085 368.669 202.298 368.44C213.424 355.89 225.35 344.073 238.002 333.064C243.954 327.734 250.691 323.353 257.977 320.075C265.364 317.176 272.985 314.915 280.758 313.318C280.758 313.318 280.84 313.22 280.741 313.236Z" fill="#263238"/>
<path d="M351.525 296.376L384.325 400.289C384.325 400.289 473.133 374.934 489.288 357.435C505.442 339.936 535.471 249.57 544.278 205.764C553.085 161.959 530.945 163.124 510.592 190.66C490.239 218.196 439.562 285.208 436.79 286.667C434.018 288.127 351.525 296.376 351.525 296.376Z" fill="#F66D1D"/>
<path d="M392.854 354.122C388.869 341.871 384.802 329.653 381.292 317.254C379.291 310.218 377.257 303.166 375.322 296.114C375.24 295.835 375.683 295.687 375.781 295.95C380.259 308.086 384.72 320.272 388.639 332.605C392.559 344.938 396.544 357.205 400.283 369.456C402.399 376.476 404.318 383.528 406.007 390.662C406.007 390.793 405.81 390.875 405.761 390.744C400.874 378.755 396.856 366.455 392.854 354.122Z" fill="#263238"/>
<path d="M429.115 386.004L433.051 384.627C440.447 381.986 447.992 379.149 455.093 376.246C456.011 375.885 456.913 375.508 457.799 375.131C459.226 374.541 460.653 373.934 462.03 373.327L464.097 372.425L464.835 372.097L466.967 371.113C469.788 369.817 472.461 368.522 474.954 367.21L476.594 366.291C480.491 364.287 484.163 361.873 487.549 359.091C487.861 358.813 488.172 358.534 488.451 358.255C488.73 357.976 489.025 357.697 489.271 357.435C505.508 339.936 535.455 249.57 544.262 205.765L544.557 204.256V203.928C545.147 200.648 545.672 196.482 546.098 192.021C547.328 170.225 537.013 166.666 524.27 176.244C492.502 244.42 443.842 357.074 429.115 386.004Z" fill="#263238"/>
<path d="M475.183 403.454L668.708 404.471C668.544 400.305 640.991 278.451 619.08 233.481C590.986 175.817 576.439 171.16 567.862 168.076C556.792 164.107 537.078 166.075 532.404 168.29C527.09 170.766 510.198 200.254 504.146 221.886C492.043 265.396 472.461 400.797 475.183 403.454Z" fill="#EBEBEB"/>
<path d="M577.784 172.636C577.784 172.636 553.184 263.74 551.954 269.791C550.101 278.582 537.833 404.012 537.833 404.012L672.726 404.471C672.726 404.471 643.287 288.357 621.376 237.516C597.465 181.754 577.784 172.636 577.784 172.636Z" fill="#F66D1D"/>
<path d="M530.633 169.7C529.911 172.603 507.23 246.618 505.655 265.068C503.9 285.536 488.386 404.471 488.386 404.471H468.705C468.705 404.471 497.193 233.596 505.016 215.539C521.022 178.687 530.633 169.7 530.633 169.7Z" fill="#F66D1D"/>
<path d="M603.254 193.94C635.661 228.659 714.448 360.387 689.454 384.414C664.46 408.44 525.697 376.099 486.73 357.517C475.135 352.007 519.186 279.714 532.815 278.025C544.164 276.631 602.155 303.15 603.845 299.821C605.731 296.048 596.514 268.217 582.524 217.819C566.468 159.729 588.92 178.589 603.254 193.94Z" fill="#AD6359"/>
<path d="M475.216 254.703C447.04 250.767 439.135 254.096 417.175 238.155C402.727 227.692 389.836 232.432 398.085 249.045C411.566 276.237 446.86 288.931 460.407 289.816L475.216 254.703Z" fill="#AD6359"/>
<path d="M550.068 281.797C550.068 281.797 518.399 264.215 488.78 257.065C468.312 252.145 422.555 246.323 378.766 291.506C368.385 302.215 361.185 324.847 384.49 313.515C401.054 305.462 409.09 295.36 419.603 292.424C419.603 292.424 413.863 322.289 424.999 332.277C434.731 341.005 445.073 349.029 455.946 356.287C457.734 354.605 459.41 352.808 460.965 350.908C460.965 350.908 472.248 359.255 493.47 357.222L550.068 281.797Z" fill="#AD6359"/>
<path d="M468.476 255.556C458.635 260.656 438.119 271.825 424.473 286.815C409.303 303.478 384.588 339.624 397.003 350.776C406.089 358.895 416.683 345.856 416.683 345.856C416.683 345.856 409.615 362.962 419.439 368.489C428.377 373.54 436.019 363.011 436.019 363.011C436.019 363.011 433.51 374.114 443.071 377.312C454.552 381.15 457.93 357.238 472.936 351.072C476.364 349.595 468.476 255.556 468.476 255.556Z" fill="#AD6359"/>
<path d="M444.728 299.837C436.315 306.151 420.866 325.389 416.602 345.315C416.503 345.774 416.782 346.086 416.963 345.692C424.371 329.384 433.733 314.035 444.843 299.985C444.974 299.837 444.843 299.837 444.728 299.837Z" fill="#263238"/>
<path d="M461.096 315.631C454.388 321.83 439.349 342.363 435.725 362.716C435.643 363.175 435.954 363.47 436.102 363.06C442.669 346.395 451.103 330.528 461.243 315.762C461.342 315.663 461.243 315.549 461.096 315.631Z" fill="#263238"/>
<path d="M419.603 292.227C410.419 294.933 404.449 299.443 396.643 304.822C392.843 307.538 388.895 310.04 384.818 312.317C381.079 314.335 375.552 317.385 371.583 314.22C369.353 312.465 369.385 309.3 369.943 306.725C371.064 302.998 372.769 299.472 374.994 296.278C374.994 296.147 374.879 295.999 374.781 296.114C372.633 299.024 370.787 302.145 369.271 305.429C368.278 307.68 367.986 310.177 368.434 312.596C369.795 317.648 375.765 318.32 379.914 316.926C382.429 316.002 384.846 314.832 387.131 313.433C389.361 312.153 391.526 310.776 393.691 309.333C398.053 306.38 402.235 303.182 406.565 300.181C410.771 297.357 415.154 294.805 419.685 292.539C419.72 292.522 419.747 292.494 419.763 292.46C419.779 292.425 419.783 292.386 419.773 292.349C419.763 292.312 419.741 292.28 419.71 292.257C419.679 292.235 419.641 292.224 419.603 292.227Z" fill="#263238"/>
<path d="M400.365 324.536C402.743 319.304 415.617 297.492 419.783 292.44C419.799 292.415 419.805 292.386 419.802 292.356C419.798 292.327 419.785 292.3 419.764 292.279C419.743 292.258 419.716 292.245 419.687 292.242C419.657 292.238 419.628 292.245 419.603 292.26C412.436 299.05 400.939 317.074 398.282 322.847C395.625 328.619 392.575 335.852 392.575 342.199C392.575 351.793 398.938 353.679 401.284 354.089C404.09 354.598 406.986 354.123 409.484 352.744C412.406 350.959 414.929 348.592 416.897 345.791C416.995 345.659 416.815 345.479 416.7 345.61C413.42 349.399 407.844 353.122 402.645 352.433C401.492 352.324 400.372 351.985 399.352 351.435C398.332 350.886 397.433 350.138 396.708 349.235C395.287 346.927 394.74 344.187 395.166 341.51C395.933 335.6 397.691 329.862 400.365 324.536Z" fill="#263238"/>
<path d="M550.068 281.796L505.655 375.278C505.655 375.278 679.368 414.278 694.358 384.036C709.348 353.794 641.877 235.449 611.487 200.975C576.243 161.024 571.749 174.62 579.506 210.028C587.706 247.093 603.336 300.69 603.336 300.69L550.068 281.796Z" fill="#F66D1D"/>
<path d="M656.128 325.569C640.105 314.441 622.511 305.768 603.926 299.837C598.661 298.197 593.348 296.639 588.034 295.113C587.87 295.113 587.804 295.327 588.034 295.376C597.302 298.375 606.387 301.912 615.242 305.97C624.088 309.907 632.834 314.001 641.483 318.254C646.403 320.665 651.192 323.306 656.014 325.88C656.046 325.873 656.076 325.858 656.101 325.837C656.126 325.815 656.145 325.787 656.156 325.756C656.168 325.725 656.171 325.692 656.166 325.659C656.161 325.626 656.148 325.595 656.128 325.569Z" fill="#263238"/>
<path d="M550.527 281.55C551.396 281.78 598.908 297.475 600.466 298.197C600.269 297.475 591.741 272.219 590.461 268.512C590.347 268.151 590.232 267.774 590.101 267.413C589.248 265.773 588.362 264.133 587.559 262.493C586.542 260.345 585.525 258.163 584.525 255.933H584.623L587.903 262.28C588.411 263.248 588.887 264.248 589.363 265.248C588.526 262.641 587.723 260.017 586.919 257.376C585.64 253.194 584.492 248.963 583.36 244.732C583.36 244.584 583.524 244.551 583.573 244.732C586.099 252.095 588.854 259.377 591.396 266.741C593.938 274.105 603.713 301.182 603.631 301.182C603.549 301.182 551.314 282.715 550.297 282.305C550.247 282.29 550.201 282.265 550.161 282.232C550.121 282.199 550.088 282.159 550.064 282.113C550.04 282.067 550.024 282.017 550.019 281.966C550.014 281.914 550.02 281.862 550.035 281.813C550.05 281.763 550.074 281.717 550.107 281.677C550.14 281.637 550.181 281.604 550.226 281.58C550.272 281.555 550.322 281.54 550.374 281.535C550.425 281.53 550.477 281.535 550.527 281.55Z" fill="#263238"/>
<path d="M547.329 342.478C552.249 332.064 557.021 321.584 562.286 311.317C565.287 305.495 568.255 299.657 571.306 293.867C571.421 293.654 571.814 293.867 571.716 294.048C567.222 304.708 562.696 315.368 557.71 325.848C552.724 336.328 547.87 346.676 542.802 357.009C539.916 362.88 536.849 368.658 533.602 374.344C533.602 374.459 533.339 374.344 533.388 374.344C537.521 363.487 542.392 353.007 547.329 342.478Z" fill="#263238"/>
<path d="M503.409 376.722C505.147 373.835 507.345 369.702 509.198 366.882C509.69 366.144 510.264 366.291 509.871 367.062C508.542 369.686 507.443 372.622 506.148 375.262C508.575 375.754 511.068 376.181 513.462 376.689C516.283 377.279 519.088 377.886 521.908 378.46C527.441 379.554 532.973 380.647 538.506 381.74C549.723 383.829 560.985 385.665 572.29 387.251C594.939 390.567 617.744 392.708 640.614 393.663C647.01 393.893 653.423 394.008 659.819 393.926C666.128 393.942 672.434 393.635 678.712 393.007C678.893 393.007 678.925 393.286 678.712 393.319C673.31 394.46 667.826 395.173 662.312 395.451C656.522 395.73 650.717 395.861 644.911 395.795C633.431 395.664 621.836 394.91 610.339 393.86C587.543 391.761 564.812 388.678 542.278 384.692C535.958 383.599 529.655 382.413 523.368 381.133C520.186 380.494 517.021 379.854 513.856 379.149C510.691 378.444 503.114 377.214 503.409 376.722Z" fill="#263238"/>
<path d="M530.6 203.698C542.081 206.863 562.63 189.889 571.027 175.817C571.601 174.85 570.47 164.419 569.699 151.676C569.256 143.952 568.961 135.276 569.256 127.436C569.256 125.796 519.35 137.637 519.35 137.637C519.35 137.637 523.614 154.333 523.023 168.076C522.971 169.182 522.817 170.28 522.564 171.357C522.519 171.529 522.486 171.704 522.466 171.881C521.236 177.966 519.497 200.631 530.6 203.698Z" fill="#AD6359"/>
<path d="M566.205 127.633C563.417 140.885 553.938 172.783 527.533 172.406C525.84 172.39 524.151 172.236 522.482 171.947C522.461 171.767 522.461 171.586 522.482 171.406C522.725 170.326 522.884 169.23 522.958 168.126C523.532 154.366 519.284 137.654 519.284 137.654C519.284 137.654 555.397 129.126 566.205 127.633Z" fill="#263238"/>
<path d="M513.396 103.771C513.954 115.874 505.786 126.075 495.159 126.567C484.532 127.059 475.479 117.612 474.937 105.509C474.396 93.4056 482.564 83.2045 493.175 82.7289C503.786 82.2533 512.855 91.6671 513.396 103.771Z" fill="#455A64"/>
<path d="M476.888 106.178C476.279 92.7135 485.365 81.3654 497.182 80.8309C508.999 80.2963 519.073 90.7778 519.682 104.242C520.291 117.706 511.205 129.054 499.388 129.588C487.571 130.123 477.497 119.642 476.888 106.178Z" fill="#C7C7C7"/>
<path d="M562.745 64.6394C571.339 80.843 571.88 132.356 561.777 145.838C547.132 165.354 518.349 172.521 500.604 153.874C483.334 135.735 483.826 68.5919 495.553 55.8488C512.789 37.0376 550.051 40.7113 562.745 64.6394Z" fill="#AD6359"/>
<path d="M519.908 104.46C519.908 104.328 520.186 104.64 520.17 104.788C519.99 108.248 520.35 112.25 523.45 113.463C523.549 113.463 523.532 113.677 523.45 113.66C519.612 113.037 519.186 107.723 519.908 104.46Z" fill="#263238"/>
<path d="M523.089 100.917C528.681 100.622 528.862 111.823 523.696 112.086C518.53 112.348 518.398 101.163 523.089 100.917Z" fill="#263238"/>
<path d="M500.489 104.886C500.489 104.755 500.227 105.066 500.227 105.197C500.391 108.674 499.997 112.676 496.947 113.873C496.848 113.873 496.947 114.086 496.947 114.07C500.735 113.463 501.211 108.149 500.489 104.886Z" fill="#263238"/>
<path d="M497.324 101.392C491.748 101.048 491.486 112.249 496.668 112.561C501.851 112.873 502.015 101.589 497.324 101.392Z" fill="#263238"/>
<path d="M528.107 91.9624C526.467 91.8804 525.106 91.536 523.548 91.3064C521.905 91.2749 520.318 90.698 519.038 89.6663C518.695 89.2714 518.492 88.7736 518.463 88.2511C518.433 87.7287 518.578 87.2112 518.874 86.7799C519.591 86.0252 520.497 85.4755 521.497 85.1872C522.497 84.8989 523.556 84.8826 524.565 85.1398C526.702 85.3097 528.698 86.2754 530.158 87.8459C530.463 88.2223 530.654 88.6788 530.707 89.1609C530.761 89.6429 530.674 90.1301 530.458 90.5642C530.242 90.9983 529.905 91.361 529.488 91.609C529.072 91.8569 528.592 91.9796 528.107 91.9624Z" fill="#263238"/>
<path d="M492.06 93.1926C493.557 92.8632 495.035 92.4526 496.488 91.9625C498.101 91.7679 499.606 91.0475 500.769 89.9125C501.063 89.4794 501.205 88.9609 501.172 88.4384C501.139 87.9159 500.934 87.4191 500.588 87.026C499.786 86.3539 498.82 85.907 497.788 85.7312C496.756 85.5554 495.696 85.657 494.717 86.0256C492.62 86.4663 490.761 87.6703 489.502 89.4041C489.256 89.8159 489.133 90.2892 489.147 90.7684C489.16 91.2477 489.31 91.7132 489.578 92.1105C489.846 92.5079 490.222 92.8206 490.662 93.0122C491.101 93.2038 491.586 93.2664 492.06 93.1926Z" fill="#263238"/>
<path d="M526.238 136.621C525.418 137.441 524.598 138.572 523.351 138.703C522.062 138.692 520.788 138.413 519.612 137.883C519.588 137.878 519.564 137.88 519.541 137.888C519.519 137.896 519.499 137.91 519.483 137.929C519.468 137.947 519.458 137.97 519.455 137.994C519.452 138.018 519.455 138.042 519.464 138.064C519.967 138.741 520.645 139.268 521.426 139.589C522.206 139.91 523.059 140.012 523.893 139.884C524.598 139.687 525.229 139.286 525.707 138.732C526.186 138.178 526.49 137.495 526.582 136.768C526.631 136.571 526.369 136.489 526.238 136.621Z" fill="#263238"/>
<path d="M522.417 126.288C521.56 127.674 520.426 128.868 519.085 129.794C517.744 130.72 516.226 131.358 514.627 131.667C513.232 131.965 511.801 132.059 510.379 131.946C510.104 131.936 509.83 131.909 509.559 131.864L508.804 131.749C508.619 131.719 508.448 131.629 508.318 131.493C508.188 131.357 508.105 131.182 508.083 130.995C508.075 130.875 508.075 130.754 508.083 130.634V130.323C507.968 127.649 508.083 123.582 508.083 123.582C507.115 124.09 502.162 126.419 502.228 125.025C502.72 113.447 503.278 100.589 506.213 89.1906C506.23 89.1181 506.27 89.0534 506.328 89.007C506.387 88.9607 506.459 88.9354 506.533 88.9354C506.607 88.9354 506.679 88.9607 506.738 89.007C506.796 89.0534 506.836 89.1181 506.853 89.1906C506.853 100.326 504.819 111.38 504.606 122.565C506.362 121.716 508.228 121.114 510.149 120.778C510.527 120.892 509.641 128.633 509.789 129.831C509.785 129.874 509.785 129.918 509.789 129.962C514.299 130.454 517.661 129.043 521.958 125.96C522.351 125.78 522.63 125.993 522.417 126.288Z" fill="#263238"/>
<path d="M511.936 130.552C513.428 132.44 515.383 133.909 517.611 134.816C518.841 135.272 520.182 135.335 521.449 134.997C524.204 134.21 524.237 131.717 523.695 129.503C523.393 128.363 522.958 127.262 522.4 126.223C519.462 128.744 515.796 130.26 511.936 130.552Z" fill="#263238"/>
<path d="M517.611 134.816C518.841 135.272 520.182 135.335 521.449 134.997C524.204 134.21 524.237 131.717 523.695 129.503C520.727 129.863 517.824 131.93 517.611 134.816Z" fill="#FF98B9"/>
<path opacity="0.2" d="M569.191 101.015C565.812 100.474 557.71 89.0431 554.283 84.5002C550.855 79.9573 548.871 55.6028 548.559 50.0594C554.574 53.4607 559.499 58.4996 562.762 64.5902C566.599 71.8719 568.813 86.1894 569.191 101.015Z" fill="#263238"/>
<path d="M506.656 70.2318C508.659 72.4285 511.189 74.0771 514.008 75.0214C516.826 75.9657 519.839 76.1743 522.761 75.6275C525.743 75.0788 528.535 73.7766 530.871 71.8447C533.208 69.9129 535.011 67.4155 536.111 64.5901C536.111 64.4097 536.439 64.5081 536.373 64.6721C535.487 67.7499 533.776 70.5269 531.426 72.7033C529.076 74.8798 526.176 76.3729 523.04 77.0216C519.923 77.4923 516.738 77.1338 513.804 75.9821C510.871 74.8305 508.292 72.9264 506.328 70.4614C506.317 70.4192 506.319 70.3746 506.334 70.3336C506.349 70.2925 506.376 70.2571 506.412 70.2321C506.447 70.207 506.49 70.1936 506.534 70.1935C506.577 70.1935 506.62 70.2069 506.656 70.2318Z" fill="#263238"/>
<path d="M523.318 26.5742C533.437 26.4758 542.884 31.7731 546.804 38.5301C548.981 42.3806 549.79 46.8548 549.1 51.2239C549.1 51.4044 548.723 51.3715 548.739 51.2239C548.824 47.3734 547.872 43.5709 545.982 40.2151C544.092 36.8592 541.334 34.0737 537.997 32.1503C534.343 29.9112 530.22 28.5504 525.951 28.1747C521.682 27.7991 517.385 28.4189 513.396 29.9855C509.509 31.424 506.263 34.2043 504.245 37.8249C504.048 38.2021 503.294 37.9889 503.441 37.6117C506 31.1827 514.183 26.6562 523.318 26.5742Z" fill="#263238"/>
<path d="M465.343 50.3382C466.844 45.2985 470.072 40.949 474.462 38.0543C480.546 34.0198 487.582 34.3642 494.536 34.8562C494.575 34.8562 494.613 34.8718 494.64 34.8995C494.668 34.9272 494.684 34.9647 494.684 35.0039C494.684 35.043 494.668 35.0805 494.64 35.1082C494.613 35.1359 494.575 35.1515 494.536 35.1515C488.599 34.7578 482.547 34.6922 477.201 37.6607C472.751 40.0699 469.273 43.9473 467.361 48.6325C465.54 53.4382 465.517 58.7396 467.295 63.5611C469.073 68.3826 472.532 72.3997 477.037 74.8731C479.664 76.2302 482.541 77.0364 485.491 77.2423C488.44 77.4482 491.401 77.0494 494.192 76.0703C494.421 75.9883 494.585 76.2999 494.372 76.3983C490.603 77.8838 486.495 78.291 482.508 77.5746C478.52 76.8581 474.811 75.0461 471.795 72.3415C468.779 69.6368 466.575 66.1462 465.429 62.2602C464.284 58.3742 464.243 54.2462 465.311 50.3382H465.343Z" fill="#263238"/>
<path d="M566.403 74.5616C566.403 74.5616 575.357 56.1441 566.96 45.9759C562.204 40.2193 547.149 41.5313 547.149 41.5313C547.149 41.5313 541.982 33.0524 529.387 30.6415C516.791 28.2307 501.933 36.1192 501.933 36.1192C501.933 36.1192 489.698 29.7067 478.71 36.5292C463.376 46.0414 466.196 69.8055 482.236 76.8905C493.487 81.8106 508.148 71.544 508.148 71.544C509.608 71.6916 524.729 80.0558 535.422 66.4599C535.422 66.4599 544.803 74.2008 552.757 68.2475C554.111 70.5715 556.145 72.4236 558.586 73.553C561.026 74.6823 563.755 75.0345 566.403 74.5616Z" fill="#263238"/>
<path d="M559.957 107.247C559.957 107.247 568.469 89.207 576.488 91.8967C584.508 94.5864 580.064 119.548 572.027 124.238C571.036 124.911 569.918 125.376 568.743 125.606C567.567 125.836 566.356 125.826 565.184 125.576C564.012 125.327 562.903 124.842 561.923 124.153C560.943 123.464 560.112 122.583 559.481 121.565L559.957 107.247Z" fill="#AD6359"/>
<path d="M575.045 98.9983C575.176 98.9983 575.242 99.1623 575.045 99.2279C569.436 102.705 567.222 108.855 566.009 115.038C567.403 112.496 569.65 110.856 572.995 112.463C573.03 112.486 573.056 112.519 573.071 112.558C573.086 112.597 573.088 112.639 573.077 112.679C573.066 112.719 573.042 112.755 573.01 112.781C572.978 112.807 572.938 112.822 572.897 112.824C571.777 112.672 570.637 112.869 569.634 113.389C568.63 113.908 567.811 114.725 567.288 115.727C566.438 117.412 565.767 119.182 565.287 121.008C565.09 121.598 564.073 121.467 564.172 120.811C564.164 120.762 564.164 120.712 564.172 120.663C562.794 113.004 566.911 101.212 575.045 98.9983Z" fill="#263238"/>
<path d="M541.409 143.574L557.563 136.604L570.552 120.433L568.059 118.416L555.562 133.98L540.129 140.638L541.409 143.574Z" fill="#C7C7C7"/>
<path d="M543.13 141C541.49 136.293 528.37 138.031 530.748 145.149C533.126 152.267 544.721 145.674 543.13 141Z" fill="#37474F"/>
<path d="M576.735 91.4048C576.735 91.4048 578.49 64.9511 570.749 50.4039C562.122 34.1512 526.369 18.6857 501.867 36.152C501.867 36.152 541.671 29.0343 560.22 51.5684C568.026 61.0478 567.829 92.1428 567.829 92.1428L576.735 91.4048Z" fill="#C7C7C7"/>
<path d="M573.125 129.399C561.296 129.281 551.816 118.26 551.95 104.783C552.084 91.3062 561.782 80.4762 573.611 80.5939C585.439 80.7116 594.92 91.7324 594.786 105.21C594.652 118.687 584.954 129.517 573.125 129.399Z" fill="#C7C7C7"/>
<path d="M558.202 104.082C558.087 116.202 566.599 126.108 577.227 126.207C587.854 126.305 596.579 116.579 596.694 104.46C596.809 92.3398 588.297 82.434 577.669 82.3356C567.042 82.2372 558.317 91.9626 558.202 104.082Z" fill="#455A64"/>
<path d="M522.663 171.061L534.225 200.254L570.601 163.55L580.802 175.424C580.802 175.424 545.131 233.825 544.918 231.185L533.028 206.01L515.611 223.411L517.251 179.557L522.663 171.061Z" fill="#EBEBEB"/>
<path d="M515.184 201.681C515.693 194.448 515.988 187.15 516.824 179.95C516.824 179.704 517.251 179.59 517.316 179.95C518.727 186.953 516.644 214.588 516.644 221.23H516.726C517.448 220.476 532.864 205.929 533.012 206.158C535.586 210.16 544.328 228.479 544.918 230.152C550.56 220.869 574.439 184.313 581.163 175.539C581.196 175.482 581.249 175.441 581.312 175.424C581.375 175.407 581.443 175.416 581.499 175.449C581.556 175.481 581.597 175.535 581.614 175.598C581.631 175.661 581.622 175.728 581.589 175.785C576.669 185.625 545.673 233.858 545.246 233.727C540.645 225.079 536.49 216.2 532.798 207.126C530.191 210.291 514.643 226.724 514.594 225.642C514.367 217.65 514.564 209.652 515.184 201.681Z" fill="#263238"/>
<path d="M333.419 406.439H344.669V413.786H333.419V406.439Z" fill="#455A64"/>
<path d="M318.838 405.947H330.089V413.294H318.838V405.947Z" fill="#455A64"/>
<path d="M304.242 405.455H315.493V412.802H304.242V405.455Z" fill="#455A64"/>
<path d="M289.646 404.979H300.897V412.326H289.646V404.979Z" fill="#455A64"/>
<path d="M275.05 404.487H286.301V411.835H275.05V404.487Z" fill="#455A64"/>
<path d="M260.454 404.012H271.705V411.359H260.454V404.012Z" fill="#455A64"/>
<path d="M245.857 403.52H257.108V410.867H245.857V403.52Z" fill="#455A64"/>
<path d="M231.261 403.027H242.511V410.375H231.261V403.027Z" fill="#455A64"/>
<path d="M216.681 402.552H227.931V409.899H216.681V402.552Z" fill="#455A64"/>
<path d="M213.909 418.001H347.441V409.063L213.909 405.34V418.001Z" fill="#37474F"/>
<path d="M83.592 382.757H304.013L268.965 218.655H48.5444L83.592 382.757Z" fill="#455A64"/>
<path d="M75.4415 382.757H295.862L260.815 218.655H40.3939L75.4415 382.757Z" fill="#37474F"/>
<path d="M154.156 300.413C148.175 294.887 147.154 286.265 151.876 281.156C156.597 276.047 165.272 276.386 171.252 281.912C177.233 287.438 178.254 296.06 173.533 301.169C168.812 306.278 160.136 305.939 154.156 300.413Z" fill="#263238"/>
<path d="M137.779 425.611H246.185V417.181L137.779 413.688V425.611Z" fill="#455A64"/>
<path d="M108.307 425.594H166.512L201.576 333.637H143.371L108.307 425.594Z" fill="#455A64"/>
<path d="M98.7294 425.594H156.934L191.982 333.637H133.777L98.7294 425.594Z" fill="#263238"/>
<path d="M351.557 427.841H463.326C472.854 427.841 459.062 400.682 424.244 390.268C389.426 379.854 340.569 417.657 351.557 427.841Z" fill="#37474F"/>
<path d="M395.412 427.841C395.322 424.746 394.809 421.678 393.887 418.722C392.986 415.743 391.725 412.884 390.131 410.211C388.527 407.525 386.525 405.097 384.194 403.011C381.888 400.918 379.228 399.252 376.338 398.091C377.535 399.075 378.897 399.731 379.996 400.83L381.636 402.289L383.276 403.929C385.348 406.091 387.164 408.485 388.688 411.064C390.235 413.642 391.563 416.347 392.657 419.149C393.769 421.981 394.69 424.885 395.412 427.841Z" fill="#263238"/>
<path d="M382.177 401.994C375.539 404.191 369.256 407.346 363.53 411.359C360.636 413.359 358.017 415.73 355.74 418.411C354.622 419.782 353.659 421.273 352.87 422.856C352.09 424.437 351.644 426.162 351.558 427.923C351.949 426.253 352.632 424.665 353.575 423.233C354.467 421.796 355.512 420.46 356.691 419.248C359.08 416.826 361.688 414.63 364.481 412.687C367.253 410.687 370.188 408.899 373.124 407.128C374.6 406.242 376.109 405.389 377.618 404.569C379.127 403.749 380.652 402.831 382.177 401.994Z" fill="#263238"/>
<path d="M343.554 55.2906C344.519 64.4378 348.005 73.1372 353.625 80.4184C359.245 87.6996 366.777 93.2764 375.382 96.5267C383.986 99.7769 393.324 100.573 402.355 98.8256C411.385 97.0784 419.752 92.8568 426.524 86.6317L451.403 90.3382L438.971 68.8701C442.078 61.3068 443.25 53.0886 442.383 44.9584C441.746 38.4395 439.825 32.1109 436.732 26.3372C433.639 20.5635 429.435 15.4588 424.361 11.3168C419.287 7.17492 413.443 4.07772 407.167 2.20358C400.891 0.329435 394.306 -0.284629 387.792 0.396776C381.277 1.07818 374.962 3.04159 369.209 6.17391C363.457 9.30623 358.381 13.5456 354.274 18.6479C350.166 23.7501 347.109 29.6145 345.278 35.9033C343.447 42.1921 342.878 48.781 343.603 55.2906H343.554Z" fill="white"/>
<path d="M343.554 55.2905C344.509 64.4455 347.977 73.1582 353.575 80.465C354.966 82.2824 356.466 84.0131 358.068 85.6475C359.73 87.225 361.482 88.7036 363.317 90.0756C366.971 92.857 371.002 95.1045 375.289 96.7506C379.574 98.429 384.073 99.4999 388.655 99.9322C390.95 100.148 393.258 100.192 395.56 100.063C397.865 100.01 400.163 99.7739 402.431 99.3582C411.6 97.6759 420.118 93.4735 427.032 87.222L426.442 87.4024L451.255 91.2237L453.043 91.5517L452.141 89.9116L439.775 68.378V69.2308C442.677 62.1766 443.931 54.5534 443.443 46.9414C442.954 39.3293 440.736 31.929 436.957 25.3034C433.178 18.6778 427.937 13.0015 421.633 8.70647C415.33 4.41144 408.13 1.6108 400.581 0.517679C393.032 -0.575441 385.333 0.0677519 378.07 2.3983C370.807 4.72886 364.171 8.68536 358.668 13.9668C353.164 19.2482 348.938 25.7154 346.311 32.8762C343.683 40.0371 342.723 47.7029 343.505 55.2905H343.554ZM343.554 55.2905C342.776 47.8162 343.719 40.2629 346.313 33.21C348.907 26.1572 353.082 19.7922 358.518 14.6034C363.954 9.41467 370.506 5.53999 377.672 3.27665C384.838 1.01332 392.427 0.421465 399.857 1.54653C407.224 2.64549 414.243 5.4169 420.373 9.64831C426.437 13.915 431.505 19.4425 435.232 25.8519C438.899 32.2939 441.063 39.4813 441.563 46.8771C442.021 54.2875 440.816 61.7066 438.037 68.5912L437.856 69.034L438.102 69.4276L450.599 90.8628L451.485 89.5508L426.622 86.074H426.278L426.032 86.3036C419.396 92.5158 411.162 96.7579 402.251 98.5546C400.029 99.0012 397.775 99.2753 395.51 99.3746C393.25 99.5304 390.981 99.5304 388.721 99.3746C384.183 99.0283 379.717 98.0455 375.453 96.4554C371.167 94.9063 367.133 92.7345 363.481 90.01C361.651 88.6499 359.898 87.188 358.232 85.6311C356.626 84.0138 355.119 82.2995 353.722 80.4978C348.063 73.1997 344.543 64.4727 343.554 55.2905Z" fill="#263238"/>
<path d="M365.252 51.6332C365.249 52.8244 365.599 53.9897 366.258 54.9816C366.918 55.9736 367.857 56.7476 368.956 57.2057C370.056 57.6637 371.266 57.7853 372.435 57.5549C373.604 57.3245 374.678 56.7526 375.521 55.9114C376.364 55.0703 376.939 53.9979 377.173 52.8299C377.407 51.6619 377.288 50.4509 376.833 49.3501C376.378 48.2493 375.607 47.3083 374.617 46.6462C373.626 45.9841 372.462 45.6307 371.271 45.6307C370.481 45.6285 369.699 45.7822 368.969 46.0829C368.239 46.3836 367.575 46.8254 367.016 47.383C366.457 47.9406 366.013 48.603 365.71 49.3324C365.408 50.0617 365.252 50.8436 365.252 51.6332Z" fill="#263238"/>
<path d="M386.802 51.6332C386.799 52.8251 387.15 53.991 387.81 54.9833C388.47 55.9756 389.41 56.7497 390.51 57.2072C391.611 57.6648 392.822 57.7854 393.991 57.5537C395.16 57.322 396.234 56.7484 397.077 55.9056C397.92 55.0629 398.493 53.9889 398.725 52.8198C398.957 51.6507 398.836 50.4392 398.379 49.3387C397.921 48.2382 397.147 47.2983 396.155 46.6382C395.163 45.9781 393.997 45.6275 392.805 45.6307C391.213 45.6307 389.686 46.2631 388.56 47.3888C387.435 48.5145 386.802 50.0413 386.802 51.6332Z" fill="#263238"/>
<path d="M408.336 51.6332C408.332 52.8243 408.683 53.9896 409.342 54.9816C410.001 55.9736 410.94 56.7476 412.04 57.2056C413.139 57.6637 414.35 57.7852 415.519 57.5549C416.687 57.3245 417.761 56.7525 418.605 55.9114C419.448 55.0703 420.023 53.9979 420.257 52.8299C420.49 51.6619 420.372 50.4508 419.917 49.3501C419.462 48.2493 418.69 47.3083 417.7 46.6462C416.71 45.9841 415.546 45.6307 414.355 45.6307C412.761 45.6307 411.233 46.2626 410.104 47.3878C408.976 48.513 408.34 50.0397 408.336 51.6332Z" fill="#263238"/>
</svg>
