<svg width="70" height="69" viewBox="0 0 70 69" fill="none" xmlns="http://www.w3.org/2000/svg">
<g filter="url(#filter0_d)">
<circle cx="34.8894" cy="30.3318" r="29.3318" fill="white" stroke="#FF6C02" stroke-width="2"/>
<path d="M49.1548 23.3532C48.9938 22.7171 48.6663 22.1217 48.2047 21.648C47.7446 21.1744 47.1653 20.8225 46.5292 20.6466C44.2013 20.0782 34.8897 20.0781 34.8897 20.0781C34.8897 20.0781 25.578 20.0781 23.2501 20.7006C22.6126 20.8765 22.0347 21.2284 21.5732 21.702C21.1116 22.1757 20.7841 22.7712 20.6244 23.4072C20.1981 25.7755 19.9897 28.1709 20.0019 30.5663C19.9856 32.9887 20.194 35.3975 20.6244 37.7793C20.8017 38.4018 21.136 38.9703 21.5962 39.4169C22.0563 39.8771 22.6248 40.2018 23.2501 40.3777C25.578 41.0003 34.8897 41.0002 34.8897 41.0002C34.8897 41.0002 44.2013 41.0003 46.5292 40.3777C47.1653 40.2018 47.7446 39.85 48.2047 39.3763C48.6663 38.9026 48.9938 38.3072 49.1548 37.6711C49.5771 35.3299 49.7856 32.9481 49.7775 30.5663C49.7923 28.1438 49.5839 25.735 49.1548 23.3532Z" stroke="#FF6C02" stroke-width="2" stroke-linecap="round" stroke-linejoin="round"/>
<path d="M31.843 34.9915L39.6253 30.5662L31.843 26.1409V34.9915Z" stroke="#FF6C02" stroke-width="2" stroke-linecap="round" stroke-linejoin="round"/>
</g>
<defs>
<filter id="filter0_d" x="0.557617" y="0" width="68.6636" height="68.6636" filterUnits="userSpaceOnUse" color-interpolation-filters="sRGB">
<feFlood flood-opacity="0" result="BackgroundImageFix"/>
<feColorMatrix in="SourceAlpha" type="matrix" values="0 0 0 0 0 0 0 0 0 0 0 0 0 0 0 0 0 0 127 0"/>
<feOffset dy="4"/>
<feGaussianBlur stdDeviation="2"/>
<feColorMatrix type="matrix" values="0 0 0 0 0.779167 0 0 0 0 0.322095 0 0 0 0 0.055191 0 0 0 0.19 0"/>
<feBlend mode="normal" in2="BackgroundImageFix" result="effect1_dropShadow"/>
<feBlend mode="normal" in="SourceGraphic" in2="effect1_dropShadow" result="shape"/>
</filter>
</defs>
</svg>
